ISO-10303-21;
HEADER;
FILE_DESCRIPTION(('STEP AP214'),'1');
FILE_NAME('71000w12.stp','2017-07-24T08:30:51',('TraceParts'),('TraceParts S.A.'),'Spatial InterOp 3D',' ',' ');
FILE_SCHEMA(('automotive_design'));
ENDSEC;
DATA;
#1=MECHANICAL_DESIGN_GEOMETRIC_PRESENTATION_REPRESENTATION(' ',(#10,#11,#12,#13,#14,#15,#16,#17,#18,#19,#20),#6);
#2=PRODUCT_DEFINITION_CONTEXT('',#21,'design');
#3=APPLICATION_PROTOCOL_DEFINITION('INTERNATIONAL STANDARD','automotive_design',1994,#21);
#4=PRODUCT_CATEGORY_RELATIONSHIP('NONE','NONE',#22,#23);
#5=SHAPE_DEFINITION_REPRESENTATION(#24,#25);
#6= (GEOMETRIC_REPRESENTATION_CONTEXT(3)GLOBAL_UNCERTAINTY_ASSIGNED_CONTEXT((#28))GLOBAL_UNIT_ASSIGNED_CONTEXT((#30,#31,#32))REPRESENTATION_CONTEXT('NONE','WORKSPACE'));
#10=STYLED_ITEM('',(#34),#35);
#11=STYLED_ITEM('',(#36),#37);
#12=STYLED_ITEM('',(#38),#39);
#13=STYLED_ITEM('',(#40),#41);
#14=STYLED_ITEM('',(#42),#43);
#15=STYLED_ITEM('',(#44),#45);
#16=STYLED_ITEM('',(#46),#47);
#17=STYLED_ITEM('',(#48),#49);
#18=STYLED_ITEM('',(#50),#51);
#19=STYLED_ITEM('',(#52),#53);
#20=STYLED_ITEM('',(#54),#55);
#21=APPLICATION_CONTEXT(' ');
#22=PRODUCT_CATEGORY('part','NONE');
#23=PRODUCT_RELATED_PRODUCT_CATEGORY('detail',' ',(#56));
#24=PRODUCT_DEFINITION_SHAPE('NONE','NONE',#57);
#25=ADVANCED_BREP_SHAPE_REPRESENTATION('71000w12',(#55,#58),#6);
#28=UNCERTAINTY_MEASURE_WITH_UNIT(LENGTH_MEASURE(1.0E-006),#30,'','');
#30= (CONVERSION_BASED_UNIT('MILLIMETRE',#61)LENGTH_UNIT()NAMED_UNIT(#64));
#31= (NAMED_UNIT(#66)PLANE_ANGLE_UNIT()SI_UNIT($,.RADIAN.));
#32= (NAMED_UNIT(#66)SOLID_ANGLE_UNIT()SI_UNIT($,.STERADIAN.));
#34=PRESENTATION_STYLE_ASSIGNMENT((#72));
#35=ADVANCED_FACE('',(#73),#74,.F.);
#36=PRESENTATION_STYLE_ASSIGNMENT((#75));
#37=ADVANCED_FACE('',(#76),#77,.F.);
#38=PRESENTATION_STYLE_ASSIGNMENT((#78));
#39=ADVANCED_FACE('',(#79),#80,.T.);
#40=PRESENTATION_STYLE_ASSIGNMENT((#81));
#41=ADVANCED_FACE('',(#82),#83,.T.);
#42=PRESENTATION_STYLE_ASSIGNMENT((#84));
#43=ADVANCED_FACE('',(#85),#86,.F.);
#44=PRESENTATION_STYLE_ASSIGNMENT((#87));
#45=ADVANCED_FACE('',(#88),#89,.F.);
#46=PRESENTATION_STYLE_ASSIGNMENT((#90));
#47=ADVANCED_FACE('',(#91),#92,.T.);
#48=PRESENTATION_STYLE_ASSIGNMENT((#93));
#49=ADVANCED_FACE('',(#94),#95,.T.);
#50=PRESENTATION_STYLE_ASSIGNMENT((#96));
#51=ADVANCED_FACE('',(#97),#98,.F.);
#52=PRESENTATION_STYLE_ASSIGNMENT((#99));
#53=ADVANCED_FACE('',(#100),#101,.T.);
#54=PRESENTATION_STYLE_ASSIGNMENT((#102));
#55=MANIFOLD_SOLID_BREP('71000w12',#103);
#56=PRODUCT('71000w12','71000w12','PART-71000w12-DESC',(#104));
#57=PRODUCT_DEFINITION('NONE','NONE',#105,#2);
#58=AXIS2_PLACEMENT_3D('',#106,#107,#108);
#61=LENGTH_MEASURE_WITH_UNIT(LENGTH_MEASURE(1.0),#109);
#64=DIMENSIONAL_EXPONENTS(1.0,0.0,0.0,0.0,0.0,0.0,0.0);
#66=DIMENSIONAL_EXPONENTS(0.0,0.0,0.0,0.0,0.0,0.0,0.0);
#72=SURFACE_STYLE_USAGE(.BOTH.,#110);
#73=FACE_OUTER_BOUND('',#111,.T.);
#74=CYLINDRICAL_SURFACE('',#112,6.5);
#75=SURFACE_STYLE_USAGE(.BOTH.,#113);
#76=FACE_OUTER_BOUND('',#114,.T.);
#77=CYLINDRICAL_SURFACE('',#115,6.5);
#78=SURFACE_STYLE_USAGE(.BOTH.,#116);
#79=FACE_OUTER_BOUND('',#117,.T.);
#80=CYLINDRICAL_SURFACE('',#118,10.0);
#81=SURFACE_STYLE_USAGE(.BOTH.,#119);
#82=FACE_OUTER_BOUND('',#120,.T.);
#83=CYLINDRICAL_SURFACE('',#121,10.0);
#84=SURFACE_STYLE_USAGE(.BOTH.,#122);
#85=FACE_OUTER_BOUND('',#123,.T.);
#86=PLANE('',#124);
#87=SURFACE_STYLE_USAGE(.BOTH.,#125);
#88=FACE_OUTER_BOUND('',#126,.T.);
#89=PLANE('',#127);
#90=SURFACE_STYLE_USAGE(.BOTH.,#128);
#91=FACE_OUTER_BOUND('',#129,.T.);
#92=CYLINDRICAL_SURFACE('',#130,10.0);
#93=SURFACE_STYLE_USAGE(.BOTH.,#131);
#94=FACE_OUTER_BOUND('',#132,.T.);
#95=PLANE('',#133);
#96=SURFACE_STYLE_USAGE(.BOTH.,#134);
#97=FACE_OUTER_BOUND('',#135,.T.);
#98=CYLINDRICAL_SURFACE('',#136,6.5);
#99=SURFACE_STYLE_USAGE(.BOTH.,#137);
#100=FACE_OUTER_BOUND('',#138,.T.);
#101=PLANE('',#139);
#102=SURFACE_STYLE_USAGE(.BOTH.,#140);
#103=CLOSED_SHELL('',(#35,#37,#39,#41,#43,#45,#47,#49,#51,#53));
#104=PRODUCT_CONTEXT('',#21,'mechanical');
#105=PRODUCT_DEFINITION_FORMATION_WITH_SPECIFIED_SOURCE(' ','NONE',#56,.NOT_KNOWN.);
#106=CARTESIAN_POINT('',(0.0,0.0,0.0));
#107=DIRECTION('',(0.0,0.0,1.0));
#108=DIRECTION('',(1.0,0.0,0.0));
#109= (NAMED_UNIT(#64)LENGTH_UNIT()SI_UNIT(.MILLI.,.METRE.));
#110=SURFACE_SIDE_STYLE('',(#142));
#111=EDGE_LOOP('',(#143,#144,#145,#146));
#112=AXIS2_PLACEMENT_3D('',#147,#148,#149);
#113=SURFACE_SIDE_STYLE('',(#150));
#114=EDGE_LOOP('',(#151,#152,#153,#154));
#115=AXIS2_PLACEMENT_3D('',#155,#156,#157);
#116=SURFACE_SIDE_STYLE('',(#158));
#117=EDGE_LOOP('',(#159,#160,#161,#162));
#118=AXIS2_PLACEMENT_3D('',#163,#164,#165);
#119=SURFACE_SIDE_STYLE('',(#166));
#120=EDGE_LOOP('',(#167,#168,#169,#170));
#121=AXIS2_PLACEMENT_3D('',#171,#172,#173);
#122=SURFACE_SIDE_STYLE('',(#174));
#123=EDGE_LOOP('',(#175,#176,#177,#178));
#124=AXIS2_PLACEMENT_3D('',#179,#180,#181);
#125=SURFACE_SIDE_STYLE('',(#182));
#126=EDGE_LOOP('',(#183,#184,#185,#186));
#127=AXIS2_PLACEMENT_3D('',#187,#188,#189);
#128=SURFACE_SIDE_STYLE('',(#190));
#129=EDGE_LOOP('',(#191,#192,#193,#194));
#130=AXIS2_PLACEMENT_3D('',#195,#196,#197);
#131=SURFACE_SIDE_STYLE('',(#198));
#132=EDGE_LOOP('',(#199,#200,#201,#202,#203,#204,#205,#206));
#133=AXIS2_PLACEMENT_3D('',#207,#208,#209);
#134=SURFACE_SIDE_STYLE('',(#210));
#135=EDGE_LOOP('',(#211,#212,#213,#214));
#136=AXIS2_PLACEMENT_3D('',#215,#216,#217);
#137=SURFACE_SIDE_STYLE('',(#218));
#138=EDGE_LOOP('',(#219,#220,#221,#222,#223,#224,#225,#226));
#139=AXIS2_PLACEMENT_3D('',#227,#228,#229);
#140=SURFACE_SIDE_STYLE('',(#230));
#142=SURFACE_STYLE_FILL_AREA(#231);
#143=ORIENTED_EDGE('',*,*,#232,.F.);
#144=ORIENTED_EDGE('',*,*,#233,.T.);
#145=ORIENTED_EDGE('',*,*,#234,.T.);
#146=ORIENTED_EDGE('',*,*,#235,.F.);
#147=CARTESIAN_POINT('',(1.75,0.0,0.0));
#148=DIRECTION('',(-1.0,0.0,0.0));
#149=DIRECTION('',(0.0,1.0,-2.44921270764475E-016));
#150=SURFACE_STYLE_FILL_AREA(#236);
#151=ORIENTED_EDGE('',*,*,#237,.F.);
#152=ORIENTED_EDGE('',*,*,#238,.F.);
#153=ORIENTED_EDGE('',*,*,#239,.T.);
#154=ORIENTED_EDGE('',*,*,#240,.T.);
#155=CARTESIAN_POINT('',(1.75,0.0,0.0));
#156=DIRECTION('',(-1.0,0.0,0.0));
#157=DIRECTION('',(0.0,1.0,-2.44921270764475E-016));
#158=SURFACE_STYLE_FILL_AREA(#241);
#159=ORIENTED_EDGE('',*,*,#242,.T.);
#160=ORIENTED_EDGE('',*,*,#243,.T.);
#161=ORIENTED_EDGE('',*,*,#244,.T.);
#162=ORIENTED_EDGE('',*,*,#245,.F.);
#163=CARTESIAN_POINT('',(1.75,0.0,0.0));
#164=DIRECTION('',(-1.0,0.0,0.0));
#165=DIRECTION('',(0.0,1.0,-2.44921270764475E-016));
#166=SURFACE_STYLE_FILL_AREA(#246);
#167=ORIENTED_EDGE('',*,*,#247,.F.);
#168=ORIENTED_EDGE('',*,*,#248,.T.);
#169=ORIENTED_EDGE('',*,*,#242,.F.);
#170=ORIENTED_EDGE('',*,*,#249,.F.);
#171=CARTESIAN_POINT('',(1.75,0.0,0.0));
#172=DIRECTION('',(-1.0,0.0,0.0));
#173=DIRECTION('',(0.0,1.0,-2.44921270764475E-016));
#174=SURFACE_STYLE_FILL_AREA(#250);
#175=ORIENTED_EDGE('',*,*,#239,.F.);
#176=ORIENTED_EDGE('',*,*,#251,.F.);
#177=ORIENTED_EDGE('',*,*,#252,.F.);
#178=ORIENTED_EDGE('',*,*,#253,.F.);
#179=CARTESIAN_POINT('',(-5.25,0.35,0.0));
#180=DIRECTION('',(0.0,1.0,0.0));
#181=DIRECTION('',(-1.0,0.0,0.0));
#182=SURFACE_STYLE_FILL_AREA(#254);
#183=ORIENTED_EDGE('',*,*,#234,.F.);
#184=ORIENTED_EDGE('',*,*,#255,.F.);
#185=ORIENTED_EDGE('',*,*,#244,.F.);
#186=ORIENTED_EDGE('',*,*,#256,.F.);
#187=CARTESIAN_POINT('',(5.25,-0.35,0.0));
#188=DIRECTION('',(0.0,-1.0,0.0));
#189=DIRECTION('',(1.0,0.0,0.0));
#190=SURFACE_STYLE_FILL_AREA(#257);
#191=ORIENTED_EDGE('',*,*,#247,.T.);
#192=ORIENTED_EDGE('',*,*,#258,.F.);
#193=ORIENTED_EDGE('',*,*,#252,.T.);
#194=ORIENTED_EDGE('',*,*,#259,.T.);
#195=CARTESIAN_POINT('',(1.75,0.0,0.0));
#196=DIRECTION('',(-1.0,0.0,0.0));
#197=DIRECTION('',(0.0,1.0,-2.44921270764475E-016));
#198=SURFACE_STYLE_FILL_AREA(#260);
#199=ORIENTED_EDGE('',*,*,#251,.T.);
#200=ORIENTED_EDGE('',*,*,#238,.T.);
#201=ORIENTED_EDGE('',*,*,#261,.T.);
#202=ORIENTED_EDGE('',*,*,#235,.T.);
#203=ORIENTED_EDGE('',*,*,#256,.T.);
#204=ORIENTED_EDGE('',*,*,#243,.F.);
#205=ORIENTED_EDGE('',*,*,#248,.F.);
#206=ORIENTED_EDGE('',*,*,#259,.F.);
#207=CARTESIAN_POINT('',(3.5,8.25,-2.02060048380692E-015));
#208=DIRECTION('',(1.0,0.0,0.0));
#209=DIRECTION('',(0.0,-1.0,2.44921270764475E-016));
#210=SURFACE_STYLE_FILL_AREA(#262);
#211=ORIENTED_EDGE('',*,*,#237,.T.);
#212=ORIENTED_EDGE('',*,*,#263,.T.);
#213=ORIENTED_EDGE('',*,*,#232,.T.);
#214=ORIENTED_EDGE('',*,*,#261,.F.);
#215=CARTESIAN_POINT('',(1.75,0.0,0.0));
#216=DIRECTION('',(-1.0,0.0,0.0));
#217=DIRECTION('',(0.0,1.0,-2.44921270764475E-016));
#218=SURFACE_STYLE_FILL_AREA(#264);
#219=ORIENTED_EDGE('',*,*,#253,.T.);
#220=ORIENTED_EDGE('',*,*,#258,.T.);
#221=ORIENTED_EDGE('',*,*,#249,.T.);
#222=ORIENTED_EDGE('',*,*,#245,.T.);
#223=ORIENTED_EDGE('',*,*,#255,.T.);
#224=ORIENTED_EDGE('',*,*,#233,.F.);
#225=ORIENTED_EDGE('',*,*,#263,.F.);
#226=ORIENTED_EDGE('',*,*,#240,.F.);
#227=CARTESIAN_POINT('',(0.0,8.25,-2.02060048380692E-015));
#228=DIRECTION('',(-1.0,0.0,0.0));
#229=DIRECTION('',(0.0,1.0,-2.44921270764475E-016));
#230=SURFACE_STYLE_FILL_AREA(#265);
#231=FILL_AREA_STYLE('',(#266));
#232=EDGE_CURVE('',#267,#268,#269,.T.);
#233=EDGE_CURVE('',#267,#270,#271,.T.);
#234=EDGE_CURVE('',#270,#272,#273,.T.);
#235=EDGE_CURVE('',#268,#272,#274,.T.);
#236=FILL_AREA_STYLE('',(#275));
#237=EDGE_CURVE('',#276,#277,#278,.T.);
#238=EDGE_CURVE('',#279,#276,#280,.T.);
#239=EDGE_CURVE('',#279,#281,#282,.T.);
#240=EDGE_CURVE('',#281,#277,#283,.T.);
#241=FILL_AREA_STYLE('',(#284));
#242=EDGE_CURVE('',#285,#286,#287,.T.);
#243=EDGE_CURVE('',#286,#288,#289,.T.);
#244=EDGE_CURVE('',#288,#290,#291,.T.);
#245=EDGE_CURVE('',#285,#290,#292,.T.);
#246=FILL_AREA_STYLE('',(#293));
#247=EDGE_CURVE('',#294,#295,#296,.T.);
#248=EDGE_CURVE('',#294,#286,#297,.T.);
#249=EDGE_CURVE('',#295,#285,#298,.T.);
#250=FILL_AREA_STYLE('',(#299));
#251=EDGE_CURVE('',#300,#279,#301,.T.);
#252=EDGE_CURVE('',#302,#300,#303,.T.);
#253=EDGE_CURVE('',#281,#302,#304,.T.);
#254=FILL_AREA_STYLE('',(#305));
#255=EDGE_CURVE('',#290,#270,#306,.T.);
#256=EDGE_CURVE('',#272,#288,#307,.T.);
#257=FILL_AREA_STYLE('',(#308));
#258=EDGE_CURVE('',#302,#295,#309,.T.);
#259=EDGE_CURVE('',#300,#294,#310,.T.);
#260=FILL_AREA_STYLE('',(#311));
#261=EDGE_CURVE('',#276,#268,#312,.T.);
#262=FILL_AREA_STYLE('',(#313));
#263=EDGE_CURVE('',#277,#267,#314,.T.);
#264=FILL_AREA_STYLE('',(#315));
#265=FILL_AREA_STYLE('',(#316));
#266=FILL_AREA_STYLE_COLOUR('',#317);
#267=VERTEX_POINT('',#318);
#268=VERTEX_POINT('',#319);
#269=LINE('',#320,#321);
#270=VERTEX_POINT('',#322);
#271=CIRCLE('',#323,6.5);
#272=VERTEX_POINT('',#324);
#273=LINE('',#325,#326);
#274=CIRCLE('',#327,6.5);
#275=FILL_AREA_STYLE_COLOUR('',#328);
#276=VERTEX_POINT('',#329);
#277=VERTEX_POINT('',#330);
#278=LINE('',#331,#332);
#279=VERTEX_POINT('',#333);
#280=CIRCLE('',#334,6.5);
#281=VERTEX_POINT('',#335);
#282=LINE('',#336,#337);
#283=CIRCLE('',#338,6.5);
#284=FILL_AREA_STYLE_COLOUR('',#339);
#285=VERTEX_POINT('',#340);
#286=VERTEX_POINT('',#341);
#287=LINE('',#342,#343);
#288=VERTEX_POINT('',#344);
#289=CIRCLE('',#345,10.0);
#290=VERTEX_POINT('',#346);
#291=LINE('',#347,#348);
#292=CIRCLE('',#349,10.0);
#293=FILL_AREA_STYLE_COLOUR('',#350);
#294=VERTEX_POINT('',#351);
#295=VERTEX_POINT('',#352);
#296=LINE('',#353,#354);
#297=CIRCLE('',#355,10.0);
#298=CIRCLE('',#356,10.0);
#299=FILL_AREA_STYLE_COLOUR('',#357);
#300=VERTEX_POINT('',#358);
#301=LINE('',#359,#360);
#302=VERTEX_POINT('',#361);
#303=LINE('',#362,#363);
#304=LINE('',#364,#365);
#305=FILL_AREA_STYLE_COLOUR('',#366);
#306=LINE('',#367,#368);
#307=LINE('',#369,#370);
#308=FILL_AREA_STYLE_COLOUR('',#371);
#309=CIRCLE('',#372,10.0);
#310=CIRCLE('',#373,10.0);
#311=FILL_AREA_STYLE_COLOUR('',#374);
#312=CIRCLE('',#375,6.5);
#313=FILL_AREA_STYLE_COLOUR('',#376);
#314=CIRCLE('',#377,6.5);
#315=FILL_AREA_STYLE_COLOUR('',#378);
#316=FILL_AREA_STYLE_COLOUR('',#379);
#317=COLOUR_RGB('',0.689999997615814,0.689999997615814,0.689999997615814);
#318=CARTESIAN_POINT('',(0.0,-6.5,7.95994129984545E-016));
#319=CARTESIAN_POINT('',(3.5,-6.5,7.95994129984545E-016));
#320=CARTESIAN_POINT('',(1.75,-6.5,7.95994129984545E-016));
#321=VECTOR('',#380,1.0);
#322=CARTESIAN_POINT('',(0.0,-0.35,6.49057008282015));
#323=AXIS2_PLACEMENT_3D('',#381,#382,#383);
#324=CARTESIAN_POINT('',(3.5,-0.35,6.49057008282015));
#325=CARTESIAN_POINT('',(1.75,-0.35,6.49057008282015));
#326=VECTOR('',#384,1.0);
#327=AXIS2_PLACEMENT_3D('',#385,#386,#387);
#328=COLOUR_RGB('',0.689999997615814,0.689999997615814,0.689999997615814);
#329=CARTESIAN_POINT('',(3.5,6.5,-7.95994129984545E-016));
#330=CARTESIAN_POINT('',(0.0,6.5,-7.95994129984545E-016));
#331=CARTESIAN_POINT('',(1.75,6.5,-7.95994129984545E-016));
#332=VECTOR('',#388,1.0);
#333=CARTESIAN_POINT('',(3.5,0.35,6.49057008282015));
#334=AXIS2_PLACEMENT_3D('',#389,#390,#391);
#335=CARTESIAN_POINT('',(0.0,0.35,6.49057008282015));
#336=CARTESIAN_POINT('',(1.75,0.35,6.49057008282015));
#337=VECTOR('',#392,1.0);
#338=AXIS2_PLACEMENT_3D('',#393,#394,#395);
#339=COLOUR_RGB('',0.689999997615814,0.689999997615814,0.689999997615814);
#340=CARTESIAN_POINT('',(0.0,-10.0,1.22460635382238E-015));
#341=CARTESIAN_POINT('',(3.5,-10.0,1.22460635382238E-015));
#342=CARTESIAN_POINT('',(1.75,-10.0,1.22460635382238E-015));
#343=VECTOR('',#396,1.0);
#344=CARTESIAN_POINT('',(3.5,-0.35,9.99387312306895));
#345=AXIS2_PLACEMENT_3D('',#397,#398,#399);
#346=CARTESIAN_POINT('',(0.0,-0.35,9.99387312306895));
#347=CARTESIAN_POINT('',(1.75,-0.35,9.99387312306895));
#348=VECTOR('',#400,1.0);
#349=AXIS2_PLACEMENT_3D('',#401,#402,#403);
#350=COLOUR_RGB('',0.689999997615814,0.689999997615814,0.689999997615814);
#351=CARTESIAN_POINT('',(3.5,10.0,-1.22460635382238E-015));
#352=CARTESIAN_POINT('',(0.0,10.0,-1.22460635382238E-015));
#353=CARTESIAN_POINT('',(1.75,10.0,-1.22460635382238E-015));
#354=VECTOR('',#404,1.0);
#355=AXIS2_PLACEMENT_3D('',#405,#406,#407);
#356=AXIS2_PLACEMENT_3D('',#408,#409,#410);
#357=COLOUR_RGB('',0.689999997615814,0.689999997615814,0.689999997615814);
#358=CARTESIAN_POINT('',(3.5,0.35,9.99387312306895));
#359=CARTESIAN_POINT('',(3.5,0.35,-1.01030024190346E-015));
#360=VECTOR('',#411,1.0);
#361=CARTESIAN_POINT('',(0.0,0.35,9.99387312306895));
#362=CARTESIAN_POINT('',(1.75,0.35,9.99387312306895));
#363=VECTOR('',#412,1.0);
#364=CARTESIAN_POINT('',(0.0,0.35,-1.01030024190346E-015));
#365=VECTOR('',#413,1.0);
#366=COLOUR_RGB('',0.689999997615814,0.689999997615814,0.689999997615814);
#367=CARTESIAN_POINT('',(0.0,-0.35,-1.01030024190346E-015));
#368=VECTOR('',#414,1.0);
#369=CARTESIAN_POINT('',(3.5,-0.35,-1.01030024190346E-015));
#370=VECTOR('',#415,1.0);
#371=COLOUR_RGB('',0.689999997615814,0.689999997615814,0.689999997615814);
#372=AXIS2_PLACEMENT_3D('',#416,#417,#418);
#373=AXIS2_PLACEMENT_3D('',#419,#420,#421);
#374=COLOUR_RGB('',0.689999997615814,0.689999997615814,0.689999997615814);
#375=AXIS2_PLACEMENT_3D('',#422,#423,#424);
#376=COLOUR_RGB('',0.689999997615814,0.689999997615814,0.689999997615814);
#377=AXIS2_PLACEMENT_3D('',#425,#426,#427);
#378=COLOUR_RGB('',0.689999997615814,0.689999997615814,0.689999997615814);
#379=COLOUR_RGB('',0.689999997615814,0.689999997615814,0.689999997615814);
#380=DIRECTION('',(1.0,-0.0,0.0));
#381=CARTESIAN_POINT('',(0.0,0.0,0.0));
#382=DIRECTION('',(-1.0,0.0,0.0));
#383=DIRECTION('',(0.0,1.0,-2.44921270764475E-016));
#384=DIRECTION('',(1.0,0.0,0.0));
#385=CARTESIAN_POINT('',(3.5,0.0,0.0));
#386=DIRECTION('',(-1.0,0.0,0.0));
#387=DIRECTION('',(0.0,1.0,-2.44921270764475E-016));
#388=DIRECTION('',(-1.0,-0.0,0.0));
#389=CARTESIAN_POINT('',(3.5,0.0,0.0));
#390=DIRECTION('',(-1.0,0.0,0.0));
#391=DIRECTION('',(0.0,1.0,-2.44921270764475E-016));
#392=DIRECTION('',(-1.0,0.0,0.0));
#393=CARTESIAN_POINT('',(0.0,0.0,0.0));
#394=DIRECTION('',(-1.0,0.0,0.0));
#395=DIRECTION('',(0.0,1.0,-2.44921270764475E-016));
#396=DIRECTION('',(1.0,-0.0,-0.0));
#397=CARTESIAN_POINT('',(3.5,0.0,0.0));
#398=DIRECTION('',(-1.0,0.0,0.0));
#399=DIRECTION('',(0.0,1.0,-2.44921270764475E-016));
#400=DIRECTION('',(-1.0,0.0,0.0));
#401=CARTESIAN_POINT('',(0.0,0.0,0.0));
#402=DIRECTION('',(-1.0,0.0,0.0));
#403=DIRECTION('',(0.0,1.0,-2.44921270764475E-016));
#404=DIRECTION('',(-1.0,0.0,0.0));
#405=CARTESIAN_POINT('',(3.5,0.0,0.0));
#406=DIRECTION('',(-1.0,0.0,0.0));
#407=DIRECTION('',(0.0,1.0,-2.44921270764475E-016));
#408=CARTESIAN_POINT('',(0.0,0.0,0.0));
#409=DIRECTION('',(-1.0,0.0,0.0));
#410=DIRECTION('',(0.0,1.0,-2.44921270764475E-016));
#411=DIRECTION('',(0.0,0.0,-1.0));
#412=DIRECTION('',(1.0,0.0,0.0));
#413=DIRECTION('',(0.0,0.0,1.0));
#414=DIRECTION('',(0.0,0.0,-1.0));
#415=DIRECTION('',(0.0,0.0,1.0));
#416=CARTESIAN_POINT('',(0.0,0.0,0.0));
#417=DIRECTION('',(-1.0,0.0,0.0));
#418=DIRECTION('',(0.0,1.0,-2.44921270764475E-016));
#419=CARTESIAN_POINT('',(3.5,0.0,0.0));
#420=DIRECTION('',(-1.0,0.0,0.0));
#421=DIRECTION('',(0.0,1.0,-2.44921270764475E-016));
#422=CARTESIAN_POINT('',(3.5,0.0,0.0));
#423=DIRECTION('',(-1.0,0.0,0.0));
#424=DIRECTION('',(0.0,1.0,-2.44921270764475E-016));
#425=CARTESIAN_POINT('',(0.0,0.0,0.0));
#426=DIRECTION('',(-1.0,0.0,0.0));
#427=DIRECTION('',(0.0,1.0,-2.44921270764475E-016));
ENDSEC;
END-ISO-10303-21;
