 PTC IGES file: screw-m20x1dot5x46-csn_02_1143.igs                      S      1
1H,,1H;,30HSCREW-M20X1DOT5X46-CSN_02_1143,                              G      1
34Hscrew-m20x1dot5x46-csn_02_1143.igs,                                  G      2
49HPro/ENGINEER by Parametric Technology Corporation,7H2007160,32,38,7, G      3
38,15,30HSCREW-M20X1DOT5X46-CSN_02_1143,1.,2,2HMM,32768,0.5,            G      4
15H20111214.100743,0.00784665,78.4696,13HVladimir Zima,7HUnknown,10,0,  G      5
15H20111214.100743;                                                     G      6
     314       1       1       1       0       0       0       001000200D      1
     314       0       4       1       0                   COLOR       1D      2
     314       2       1       1       0       0       0       001000200D      3
     314       0       1       1       0                   COLOR       2D      4
     314       3       1       1       0       0       0       001000200D      5
     314       0       1       1       0                   COLOR       3D      6
     314       4       1       1       0       0       0       001000200D      7
     314       0       1       1       0                   COLOR       4D      8
     314       5       1       1       0       0       0       001000200D      9
     314       0       8       1       0                   COLOR       5D     10
     314       6       1       1       0       0       0       001000200D     11
     314       0       8       1       0                   COLOR       6D     12
     314       7       1       1       0       0       0       001000200D     13
     314       0       5       1       0                   COLOR       7D     14
     314       8       1       1       0       0       0       001000200D     15
     314       0       8       1       0                   COLOR       8D     16
     124       9       1       1       0       0       0       001000000D     17
     124       0       0       2       0                   XFORM       1D     18
     100      11       1       1       0       0      17       001010000D     19
     100       0       0       2       0                     ARC       1D     20
     124      13       1       1       0       0       0       001000000D     21
     124       0       0       2       0                   XFORM       2D     22
     100      15       1       1       0       0      21       001010000D     23
     100       0       0       1       0                     ARC       2D     24
     110      16       1       1       0       0       0       001010000D     25
     110       0       0       2       0                    LINE       1D     26
     110      18       1       1       0       0       0       001010000D     27
     110       0       0       2       0                    LINE       2D     28
     124      20       1       1       0       0       0       001000000D     29
     124       0       0       1       0                   XFORM       3D     30
     100      21       1       1       0       0      29       001010000D     31
     100       0       0       1       0                     ARC       3D     32
     110      22       1       1       0       0       0       001010000D     33
     110       0       0       2       0                    LINE       3D     34
     124      24       1       1       0       0       0       001000000D     35
     124       0       0       2       0                   XFORM       4D     36
     100      26       1       1       0       0      35       001010000D     37
     100       0       0       1       0                     ARC       4D     38
     124      27       1       1       0       0       0       001000000D     39
     124       0       0       2       0                   XFORM       5D     40
     100      29       1       1       0       0      39       001010000D     41
     100       0       0       1       0                     ARC       5D     42
     124      30       1       1       0       0       0       001000000D     43
     124       0       0       2       0                   XFORM       6D     44
     100      32       1       1       0       0      43       001010000D     45
     100       0       0       1       0                     ARC       6D     46
     124      33       1       1       0       0       0       001000000D     47
     124       0       0       1       0                   XFORM       7D     48
     100      34       1       1       0       0      47       001010000D     49
     100       0       0       1       0                     ARC       7D     50
     110      35       1       1       0       0       0       001010000D     51
     110       0       0       2       0                    LINE       4D     52
     124      37       1       1       0       0       0       001000000D     53
     124       0       0       2       0                   XFORM       8D     54
     100      39       1       1       0       0      53       001010000D     55
     100       0       0       1       0                     ARC       8D     56
     124      40       1       1       0       0       0       001000000D     57
     124       0       0       1       0                   XFORM       9D     58
     100      41       1       1       0       0      57       001010000D     59
     100       0       0       1       0                     ARC       9D     60
     124      42       1       1       0       0       0       001000000D     61
     124       0       0       1       0                   XFORM      10D     62
     100      43       1       1       0       0      61       001010000D     63
     100       0       0       1       0                     ARC      10D     64
     124      44       1       1       0       0       0       001000000D     65
     124       0       0       2       0                   XFORM      11D     66
     100      46       1       1       0       0      65       001010000D     67
     100       0       0       1       0                     ARC      11D     68
     124      47       1       1       0       0       0       001000000D     69
     124       0       0       2       0                   XFORM      12D     70
     100      49       1       1       0       0      69       001010000D     71
     100       0       0       1       0                     ARC      12D     72
     124      50       1       1       0       0       0       001000000D     73
     124       0       0       1       0                   XFORM      13D     74
     100      51       1       1       0       0      73       001010000D     75
     100       0       0       1       0                     ARC      13D     76
     110      52       1       1       0       0       0       001010000D     77
     110       0       0       1       0                    LINE       5D     78
     124      53       1       1       0       0       0       001000000D     79
     124       0       0       2       0                   XFORM      14D     80
     100      55       1       1       0       0      79       001010000D     81
     100       0       0       1       0                     ARC      14D     82
     124      56       1       1       0       0       0       001000000D     83
     124       0       0       1       0                   XFORM      15D     84
     100      57       1       1       0       0      83       001010000D     85
     100       0       0       1       0                     ARC      15D     86
     124      58       1       1       0       0       0       001000000D     87
     124       0       0       1       0                   XFORM      16D     88
     100      59       1       1       0       0      87       001010000D     89
     100       0       0       1       0                     ARC      16D     90
     124      60       1       1       0       0       0       001000000D     91
     124       0       0       1       0                   XFORM      17D     92
     100      61       1       1       0       0      91       001010000D     93
     100       0       0       1       0                     ARC      17D     94
     124      62       1       1       0       0       0       001000000D     95
     124       0       0       2       0                   XFORM      18D     96
     100      64       1       1       0       0      95       001010000D     97
     100       0       0       1       0                     ARC      18D     98
     124      65       1       1       0       0       0       001000000D     99
     124       0       0       2       0                   XFORM      19D    100
     100      67       1       1       0       0      99       001010000D    101
     100       0       0       1       0                     ARC      19D    102
     124      68       1       1       0       0       0       001000000D    103
     124       0       0       1       0                   XFORM      20D    104
     100      69       1       1       0       0     103       001010000D    105
     100       0       0       1       0                     ARC      20D    106
     124      70       1       1       0       0       0       001000000D    107
     124       0       0       2       0                   XFORM      21D    108
     100      72       1       1       0       0     107       001010000D    109
     100       0       0       1       0                     ARC      21D    110
     124      73       1       1       0       0       0       001000000D    111
     124       0       0       2       0                   XFORM      22D    112
     100      75       1       1       0       0     111       001010000D    113
     100       0       0       1       0                     ARC      22D    114
     124      76       1       1       0       0       0       001000000D    115
     124       0       0       1       0                   XFORM      23D    116
     100      77       1       1       0       0     115       001010000D    117
     100       0       0       1       0                     ARC      23D    118
     124      78       1       1       0       0       0       001000000D    119
     124       0       0       1       0                   XFORM      24D    120
     100      79       1       1       0       0     119       001010000D    121
     100       0       0       1       0                     ARC      24D    122
     110      80       1       1       0       0       0       001010000D    123
     110       0       0       1       0                    LINE       6D    124
     126      81       1       1       0       0       0       001010000D    125
     126       0       0      13       0                B_SPLINE       1D    126
     110      94       1       1       0       0       0       001010000D    127
     110       0       0       1       0                    LINE       7D    128
     126      95       1       1       0       0       0       001010000D    129
     126       0       0      13       0                B_SPLINE       2D    130
     110     108       1       1       0       0       0       001010000D    131
     110       0       0       1       0                    LINE       8D    132
     126     109       1       1       0       0       0       001010000D    133
     126       0       0      13       0                B_SPLINE       3D    134
     110     122       1       1       0       0       0       001010000D    135
     110       0       0       1       0                    LINE       9D    136
     126     123       1       1       0       0       0       001010000D    137
     126       0       0      13       0                B_SPLINE       4D    138
     110     136       1       1       0       0       0       001010000D    139
     110       0       0       1       0                    LINE      10D    140
     126     137       1       1       0       0       0       001010000D    141
     126       0       0      11       0                B_SPLINE       5D    142
     110     148       1       1       0       0       0       001010000D    143
     110       0       0       1       0                    LINE      11D    144
     110     149       1       1       0       0       0       001010000D    145
     110       0       0       1       0                    LINE      12D    146
     110     150       1       1       0       0       0       001010000D    147
     110       0       0       1       0                    LINE      13D    148
     110     151       1       1       0       0       0       001010000D    149
     110       0       0       1       0                    LINE      14D    150
     110     152       1       1       0       0       0       001010000D    151
     110       0       0       1       0                    LINE      15D    152
     110     153       1       1       0       0       0       001010000D    153
     110       0       0       1       0                    LINE      16D    154
     110     154       1       1       0       0       0       001010000D    155
     110       0       0       1       0                    LINE      17D    156
     126     155       1       1       0       0       0       001010000D    157
     126       0       0      11       0                B_SPLINE       6D    158
     110     166       1       1       0       0       0       001010000D    159
     110       0       0       1       0                    LINE      18D    160
     502     167       1       1       0       0       0       001010000D    161
     502       0       0      12       1                  VERTEX       1D    162
     504     179       1       1       0       0       0       000010001D    163
     504       0       0      14       1                    EDGE       1D    164
     128     193       1       1       0       0       0       001010000D    165
     128       0       0       6       0                  SPLSRF       1D    166
     508     199       1       1       0       0       0       001010000D    167
     508       0       0       1       1                EDGELOOP       1D    168
     510     200       1       1       0       0       0       000010000D    169
     510       0       0       1       1                    FACE       1D    170
     110     201       1       1       0       0       0       001010000D    171
     110       0       0       2       0                    LINE      19D    172
     110     203       1       1       0       0       0       001010000D    173
     110       0       0       2       0                    LINE      20D    174
     120     205       1       1       0       0       0       001010000D    175
     120       0       0       1       0                    SREV       1D    176
     508     206       1       1       0       0       0       001010000D    177
     508       0       0       1       1                EDGELOOP       2D    178
     510     207       1       1       0       0       0       000010000D    179
     510       0       0       1       1                    FACE       2D    180
     110     208       1       1       0       0       0       001010000D    181
     110       0       0       2       0                    LINE      21D    182
     110     210       1       1       0       0       0       001010000D    183
     110       0       0       2       0                    LINE      22D    184
     120     212       1       1       0       0       0       001010000D    185
     120       0       0       1       0                    SREV       2D    186
     508     213       1       1       0       0       0       001010000D    187
     508       0       0       1       1                EDGELOOP       3D    188
     510     214       1       1       0       0       0       000010000D    189
     510       0       0       1       1                    FACE       3D    190
     110     215       1       1       0       0       0       001010000D    191
     110       0       0       1       0                    LINE      23D    192
     110     216       1       1       0       0       0       001010000D    193
     110       0       0       1       0                    LINE      24D    194
     120     217       1       1       0       0       0       001010000D    195
     120       0       0       1       0                    SREV       3D    196
     508     218       1       1       0       0       0       001010000D    197
     508       0       0       1       1                EDGELOOP       4D    198
     510     219       1       1       0       0       0       000010000D    199
     510       0       0       1       1                    FACE       4D    200
     110     220       1       1       0       0       0       001010000D    201
     110       0       0       1       0                    LINE      25D    202
     124     221       1       1       0       0       0       001000000D    203
     124       0       0       4       0                   XFORM      25D    204
     100     225       1       1       0       0     203       001010000D    205
     100       0       0       1       0                     ARC      25D    206
     120     226       1       1       0       0       0       001010000D    207
     120       0       0       1       0                    SREV       4D    208
     508     227       1       1       0       0       0       001010000D    209
     508       0       0       1       1                EDGELOOP       5D    210
     510     228       1       1       0       0       0       000010000D    211
     510       0       0       1       1                    FACE       5D    212
     110     229       1       1       0       0       0       001010000D    213
     110       0       0       1       0                    LINE      26D    214
     124     230       1       1       0       0       0       001000000D    215
     124       0       0       4       0                   XFORM      26D    216
     100     234       1       1       0       0     215       001010000D    217
     100       0       0       1       0                     ARC      26D    218
     120     235       1       1       0       0       0       001010000D    219
     120       0       0       1       0                    SREV       5D    220
     508     236       1       1       0       0       0       001010000D    221
     508       0       0       1       1                EDGELOOP       6D    222
     510     237       1       1       0       0       0       000010000D    223
     510       0       0       1       1                    FACE       6D    224
     110     238       1       1       0       0       0       001010000D    225
     110       0       0       1       0                    LINE      27D    226
     110     239       1       1       0       0       0       001010000D    227
     110       0       0       1       0                    LINE      28D    228
     120     240       1       1       0       0       0       001010000D    229
     120       0       0       1       0                    SREV       6D    230
     508     241       1       1       0       0       0       001010000D    231
     508       0       0       1       1                EDGELOOP       7D    232
     510     242       1       1       0       0       0       000010000D    233
     510       0       0       1       1                    FACE       7D    234
     128     243       1       1       0       0       0       001010000D    235
     128       0       0       6       0                  SPLSRF       2D    236
     508     249       1       1       0       0       0       001010000D    237
     508       0       0       1       1                EDGELOOP       8D    238
     508     250       1       1       0       0       0       001010000D    239
     508       0       0       1       1                EDGELOOP       9D    240
     510     251       1       1       0       0       0       000010000D    241
     510       0       0       1       1                    FACE       8D    242
     110     252       1       1       0       0       0       001010000D    243
     110       0       0       1       0                    LINE      29D    244
     110     253       1       1       0       0       0       001010000D    245
     110       0       0       1       0                    LINE      30D    246
     120     254       1       1       0       0       0       001010000D    247
     120       0       0       1       0                    SREV       7D    248
     508     255       1       1       0       0       0       001010000D    249
     508       0       0       1       1                EDGELOOP      10D    250
     510     256       1       1       0       0       0       000010000D    251
     510       0       0       1       1                    FACE       9D    252
     110     257       1       1       0       0       0       001010000D    253
     110       0       0       1       0                    LINE      31D    254
     124     258       1       1       0       0       0       001000000D    255
     124       0       0       4       0                   XFORM      27D    256
     100     262       1       1       0       0     255       001010000D    257
     100       0       0       1       0                     ARC      27D    258
     120     263       1       1       0       0       0       001010000D    259
     120       0       0       1       0                    SREV       8D    260
     508     264       1       1       0       0       0       001010000D    261
     508       0       0       1       1                EDGELOOP      11D    262
     510     265       1       1       0       0       0       000010000D    263
     510       0       0       1       1                    FACE      10D    264
     128     266       1       1       0       0       0       001010000D    265
     128       0       0       6       0                  SPLSRF       3D    266
     508     272       1       1       0       0       0       001010000D    267
     508       0       0       1       1                EDGELOOP      12D    268
     508     273       1       1       0       0       0       001010000D    269
     508       0       0       2       1                EDGELOOP      13D    270
     510     275       1       1       0       0       0       000010000D    271
     510       0       0       1       1                    FACE      11D    272
     110     276       1       1       0       0       0       001010000D    273
     110       0       0       1       0                    LINE      32D    274
     124     277       1       1       0       0       0       001000000D    275
     124       0       0       4       0                   XFORM      28D    276
     100     281       1       1       0       0     275       001010000D    277
     100       0       0       1       0                     ARC      28D    278
     120     282       1       1       0       0       0       001010000D    279
     120       0       0       1       0                    SREV       9D    280
     508     283       1       1       0       0       0       001010000D    281
     508       0       0       1       1                EDGELOOP      14D    282
     510     284       1       1       0       0       0       000010000D    283
     510       0       0       1       1                    FACE      12D    284
     110     285       1       1       0       0       0       001010000D    285
     110       0       0       1       0                    LINE      33D    286
     110     286       1       1       0       0       0       001010000D    287
     110       0       0       1       0                    LINE      34D    288
     120     287       1       1       0       0       0       001010000D    289
     120       0       0       1       0                    SREV      10D    290
     508     288       1       1       0       0       0       001010000D    291
     508       0       0       1       1                EDGELOOP      15D    292
     510     289       1       1       0       0       0       000010000D    293
     510       0       0       1       1                    FACE      13D    294
     110     290       1       1       0       0       0       001010000D    295
     110       0       0       1       0                    LINE      35D    296
     110     291       1       1       0       0       0       001010000D    297
     110       0       0       2       0                    LINE      36D    298
     120     293       1       1       0       0       0       001010000D    299
     120       0       0       1       0                    SREV      11D    300
     508     294       1       1       0       0       0       001010000D    301
     508       0       0       1       1                EDGELOOP      16D    302
     510     295       1       1       0       0       0       000010000D    303
     510       0       0       1       1                    FACE      14D    304
     110     296       1       1       0       0       0       001010000D    305
     110       0       0       1       0                    LINE      37D    306
     110     297       1       1       0       0       0       001010000D    307
     110       0       0       2       0                    LINE      38D    308
     120     299       1       1       0       0       0       001010000D    309
     120       0       0       1       0                    SREV      12D    310
     508     300       1       1       0       0       0       001010000D    311
     508       0       0       1       1                EDGELOOP      17D    312
     510     301       1       1       0       0       0       000010000D    313
     510       0       0       1       1                    FACE      15D    314
     110     302       1       1       0       0       0       001010000D    315
     110       0       0       1       0                    LINE      39D    316
     110     303       1       1       0       0       0       001010000D    317
     110       0       0       2       0                    LINE      40D    318
     120     305       1       1       0       0       0       001010000D    319
     120       0       0       1       0                    SREV      13D    320
     508     306       1       1       0       0       0       001010000D    321
     508       0       0       1       1                EDGELOOP      18D    322
     510     307       1       1       0       0       0       000010000D    323
     510       0       0       1       1                    FACE      16D    324
     128     308       1       1       0       0       0       001010000D    325
     128       0       0       6       0                  SPLSRF       4D    326
     508     314       1       1       0       0       0       001010000D    327
     508       0       0       1       1                EDGELOOP      19D    328
     510     315       1       1       0       0       0       000010000D    329
     510       0       0       1       1                    FACE      17D    330
     128     316       1       1       0       0       0       001010000D    331
     128       0       0       6       0                  SPLSRF       5D    332
     508     322       1       1       0       0       0       001010000D    333
     508       0       0       1       1                EDGELOOP      20D    334
     510     323       1       1       0       0       0       000010000D    335
     510       0       0       1       1                    FACE      18D    336
     110     324       1       1       0       0       0       001010000D    337
     110       0       0       1       0                    LINE      41D    338
     110     325       1       1       0       0       0       001010000D    339
     110       0       0       2       0                    LINE      42D    340
     120     327       1       1       0       0       0       001010000D    341
     120       0       0       1       0                    SREV      14D    342
     508     328       1       1       0       0       0       001010000D    343
     508       0       0       1       1                EDGELOOP      21D    344
     510     329       1       1       0       0       0       000010000D    345
     510       0       0       1       1                    FACE      19D    346
     110     330       1       1       0       0       0       001010000D    347
     110       0       0       1       0                    LINE      43D    348
     110     331       1       1       0       0       0       001010000D    349
     110       0       0       2       0                    LINE      44D    350
     120     333       1       1       0       0       0       001010000D    351
     120       0       0       1       0                    SREV      15D    352
     508     334       1       1       0       0       0       001010000D    353
     508       0       0       1       1                EDGELOOP      22D    354
     510     335       1       1       0       0       0       000010000D    355
     510       0       0       1       1                    FACE      20D    356
     110     336       1       1       0       0       0       001010000D    357
     110       0       0       1       0                    LINE      45D    358
     110     337       1       1       0       0       0       001010000D    359
     110       0       0       2       0                    LINE      46D    360
     120     339       1       1       0       0       0       001010000D    361
     120       0       0       1       0                    SREV      16D    362
     508     340       1       1       0       0       0       001010000D    363
     508       0       0       1       1                EDGELOOP      23D    364
     510     341       1       1       0       0       0       000010000D    365
     510       0       0       1       1                    FACE      21D    366
     128     342       1       1       0       0       0       001010000D    367
     128       0       0       6       0                  SPLSRF       6D    368
     508     348       1       1       0       0       0       001010000D    369
     508       0       0       1       1                EDGELOOP      24D    370
     510     349       1       1       0       0       0       000010000D    371
     510       0       0       1       1                    FACE      22D    372
     128     350       1       1       0       0       0       001010000D    373
     128       0       0       6       0                  SPLSRF       7D    374
     508     356       1       1       0       0       0       001010000D    375
     508       0       0       1       1                EDGELOOP      25D    376
     510     357       1       1       0       0       0       000010000D    377
     510       0       0       1       1                    FACE      23D    378
     128     358       1       1       0       0       0       001010000D    379
     128       0       0       6       0                  SPLSRF       8D    380
     508     364       1       1       0       0       0       001010000D    381
     508       0       0       1       1                EDGELOOP      26D    382
     510     365       1       1       0       0       0       000010000D    383
     510       0       0       1       1                    FACE      24D    384
     128     366       1       1       0       0       0       001010000D    385
     128       0       0       5       0                  SPLSRF       9D    386
     508     371       1       1       0       0       0       001010000D    387
     508       0       0       2       1                EDGELOOP      27D    388
     510     373       1       1       0       0       0       000010000D    389
     510       0       0       1       1                    FACE      25D    390
     128     374       1       1       0       0       0       001010000D    391
     128       0       0       6       0                  SPLSRF      10D    392
     508     380       1       1       0       0       0       001010000D    393
     508       0       0       1       1                EDGELOOP      28D    394
     510     381       1       1       0       0       0       000010000D    395
     510       0       0       1       1                    FACE      26D    396
     514     382       1       1       0       0       0       000010000D    397
     514       0       0       3       1                   SHELL       1D    398
     124     385       1       1       0       0       0       001000000D    399
     124       0       0       1       0                   XFORM      29D    400
     100     386       1       1       0       0     399       001010000D    401
     100       0       0       1       0                     ARC      29D    402
     110     387       1       1       0       0       0       001010000D    403
     110       0       0       1       0                    LINE      47D    404
     124     388       1       1       0       0       0       001000000D    405
     124       0       0       1       0                   XFORM      30D    406
     100     389       1       1       0       0     405       001010000D    407
     100       0       0       1       0                     ARC      30D    408
     124     390       1       1       0       0       0       001000000D    409
     124       0       0       1       0                   XFORM      31D    410
     100     391       1       1       0       0     409       001010000D    411
     100       0       0       1       0                     ARC      31D    412
     110     392       1       1       0       0       0       001010000D    413
     110       0       0       1       0                    LINE      48D    414
     124     393       1       1       0       0       0       001000000D    415
     124       0       0       1       0                   XFORM      32D    416
     100     394       1       1       0       0     415       001010000D    417
     100       0       0       1       0                     ARC      32D    418
     502     395       1       1       0       0       0       001010000D    419
     502       0       0       2       1                  VERTEX       2D    420
     504     397       1       1       0       0       0       000010001D    421
     504       0       0       2       1                    EDGE       2D    422
     110     399       1       1       0       0       0       001010000D    423
     110       0       0       1       0                    LINE      49D    424
     110     400       1       1       0       0       0       001010000D    425
     110       0       0       1       0                    LINE      50D    426
     120     401       1       1       0       0       0       001010000D    427
     120       0       0       1       0                    SREV      17D    428
     508     402       1       1       0       0       0       001010000D    429
     508       0       0       1       1                EDGELOOP      29D    430
     510     403       1       1       0       0       0       000010000D    431
     510       0       0       1       1                    FACE      27D    432
     110     404       1       1       0       0       0       001010000D    433
     110       0       0       1       0                    LINE      51D    434
     110     405       1       1       0       0       0       001010000D    435
     110       0       0       1       0                    LINE      52D    436
     120     406       1       1       0       0       0       001010000D    437
     120       0       0       1       0                    SREV      18D    438
     508     407       1       1       0       0       0       001010000D    439
     508       0       0       1       1                EDGELOOP      30D    440
     510     408       1       1       0       0       0       000010000D    441
     510       0       0       1       1                    FACE      28D    442
     514     409       1       1       0       0       0       000000000D    443
     514       0       0       1       1                   SHELL       2D    444
     186     410       1       1       0       0       0       000000000D    445
     186       0       0       1       0                    MSBR       1D    446
314,1.1D0,1.2D0,1D2;                                                   1P      1
314,1.1D1,1.1D1,1.1D1;                                                 3P      2
314,3.92D1,1.2D0,1.2D0;                                                5P      3
314,4.1D1,0D0,2.2D1;                                                   7P      4
314,8.784D1,9.49D1,1D2;                                                9P      5
314,9.6D1,9.6D1,9.6D1;                                                11P      6
314,9.8D1,6.27D1,0D0;                                                 13P      7
314,1D2,1D2,9.49D1;                                                   15P      8
124,0D0,-1D0,0D0,1.176836406103D-14,0D0,0D0,1D0,                      17P      9
4.599998627174D1,-1D0,0D0,0D0,-1.776356839400D-14;                    17P     10
100,0D0,0D0,0D0,9.399980758798D0,0D0,-9.399980758798D0,               19P     11
3.037213781077D-14;                                                   19P     12
124,0D0,1D0,0D0,0D0,0D0,0D0,1D0,4.599998627174D1,1D0,0D0,0D0,         21P     13
-3.286260152890D-14;                                                  21P     14
100,0D0,0D0,0D0,9.399980758798D0,0D0,-9.399980758798D0,0D0;           23P     15
110,-5.372726707199D-9,4.599998901101D1,-9.399989009341D0,            25P     16
-4.286748444427D-9,4.539999123219D1,-9.999991230857D0;                25P     17
110,5.372719918635D-9,4.599998901101D1,9.399989009341D0,              27P     18
4.286745264100D-9,4.539999123219D1,9.999991230857D0;                  27P     19
124,0D0,1D0,0D0,0D0,0D0,0D0,-1D0,8D-1,-1D0,0D0,0D0,0D0;               29P     20
100,0D0,0D0,0D0,1D1,0D0,-1D1,0D0;                                     31P     21
110,-4.774877867229D-13,8D-1,1D1,4.286745264100D-9,                   33P     22
4.539999123219D1,9.999991230857D0;                                    33P     23
124,0D0,1D0,0D0,0D0,0D0,0D0,1D0,4.539999405445D1,1D0,0D0,0D0,         35P     24
0D0;                                                                  35P     25
100,0D0,0D0,0D0,1D1,0D0,-1D1,0D0;                                     37P     26
124,8.643988302914D-13,0D0,1D0,-9.335504591590D-12,0D0,-1D0,0D0,      39P     27
8D-1,1D0,0D0,-8.643988302914D-13,-1.08D1;                             39P     28
100,0D0,0D0,0D0,8D-1,0D0,1.208412493334D-13,8D-1;                     41P     29
124,-8.645306692756D-13,0D0,-1D0,9.336920125946D-12,0D0,-1D0,         43P     30
0D0,8D-1,-1D0,0D0,8.645306692756D-13,1.08D1;                          43P     31
100,0D0,0D0,0D0,8D-1,0D0,1.208412493334D-13,8D-1;                     45P     32
124,0D0,-1D0,0D0,0D0,0D0,0D0,-1D0,8D-1,1D0,0D0,0D0,0D0;               47P     33
100,0D0,0D0,0D0,1D1,0D0,-1D1,0D0;                                     49P     34
110,4.778278607069D-13,8D-1,-1D1,-4.286748444427D-9,                  51P     35
4.539999123219D1,-9.999991230857D0;                                   51P     36
124,0D0,-1D0,0D0,0D0,0D0,0D0,1D0,4.539999405445D1,-1D0,0D0,0D0,       53P     37
0D0;                                                                  53P     38
100,0D0,0D0,0D0,1D1,0D0,-1D1,0D0;                                     55P     39
124,0D0,-1D0,0D0,0D0,0D0,0D0,1D0,0D0,-1D0,0D0,0D0,0D0;                57P     40
100,0D0,0D0,0D0,1.5D1,0D0,-1.5D1,0D0;                                 59P     41
124,0D0,1D0,0D0,0D0,0D0,0D0,1D0,0D0,1D0,0D0,0D0,0D0;                  61P     42
100,0D0,0D0,0D0,1.5D1,0D0,-1.5D1,0D0;                                 63P     43
124,0D0,-1D0,0D0,0D0,0D0,0D0,-1D0,1.421085471520D-14,1D0,0D0,         65P     44
0D0,0D0;                                                              65P     45
100,0D0,0D0,0D0,1.079999984905D1,0D0,-1.079999984905D1,0D0;           67P     46
124,0D0,1D0,0D0,0D0,0D0,0D0,-1D0,1.421085471520D-14,-1D0,0D0,         69P     47
0D0,0D0;                                                              69P     48
100,0D0,0D0,0D0,1.079999984905D1,0D0,-1.079999984905D1,0D0;           71P     49
124,0D0,-1D0,0D0,0D0,0D0,0D0,-1D0,-1.8D1,1D0,0D0,0D0,0D0;             73P     50
100,0D0,0D0,0D0,1.5D1,0D0,-1.5D1,0D0;                                 75P     51
110,0D0,0D0,-1.5D1,-1.584992175756D-11,-1.8D1,-1.5D1;                 77P     52
124,0D0,0D0,-1D0,-1.315614284181D-14,-1D0,0D0,0D0,-1.8D1,0D0,         79P     53
1D0,0D0,1.3D1;                                                        79P     54
100,0D0,0D0,0D0,2D0,0D0,0D0,2D0;                                      81P     55
124,0D0,1D0,0D0,0D0,0D0,0D0,-1D0,-2D1,-1D0,0D0,0D0,0D0;               83P     56
100,0D0,0D0,0D0,1.299999994225D1,0D0,-1.299999994225D1,0D0;           85P     57
124,0D0,-1D0,0D0,0D0,0D0,0D0,-1D0,-2D1,1D0,0D0,0D0,0D0;               87P     58
100,0D0,0D0,0D0,1.299999994225D1,0D0,-1.299999994225D1,0D0;           89P     59
124,1D0,0D0,0D0,0D0,0D0,0D0,-1D0,-2D1,0D0,1D0,0D0,0D0;                91P     60
100,0D0,0D0,0D0,9.814954576224D0,0D0,4.907477288112D0,8.5D0;          93P     61
124,5D-1,-8.660254037844D-1,0D0,0D0,0D0,0D0,-1D0,-2D1,                95P     62
8.660254037844D-1,5D-1,0D0,0D0;                                       95P     63
100,0D0,0D0,0D0,9.814954576224D0,0D0,4.907477288112D0,8.5D0;          97P     64
124,-5D-1,-8.660254037844D-1,0D0,0D0,0D0,0D0,-1D0,-2D1,               99P     65
8.660254037844D-1,-5D-1,0D0,0D0;                                      99P     66
100,0D0,0D0,0D0,9.814954576224D0,0D0,4.907477288112D0,8.5D0;         101P     67
124,-1D0,0D0,0D0,0D0,0D0,0D0,-1D0,-2D1,0D0,-1D0,0D0,0D0;             103P     68
100,0D0,0D0,0D0,9.814954576224D0,0D0,4.907477288112D0,8.5D0;         105P     69
124,-5D-1,8.660254037844D-1,0D0,0D0,0D0,0D0,-1D0,-2D1,               107P     70
-8.660254037844D-1,-5D-1,0D0,0D0;                                    107P     71
100,0D0,0D0,0D0,9.814954576224D0,0D0,4.907477288112D0,8.5D0;         109P     72
124,5D-1,8.660254037844D-1,0D0,0D0,0D0,0D0,-1D0,-2D1,                111P     73
-8.660254037844D-1,5D-1,0D0,0D0;                                     111P     74
100,0D0,0D0,0D0,9.814954576224D0,0D0,4.907477288112D0,8.5D0;         113P     75
124,0D0,0D0,1D0,0D0,-1D0,0D0,0D0,-1.8D1,0D0,-1D0,0D0,-1.3D1;         115P     76
100,0D0,0D0,0D0,2D0,0D0,0D0,2D0;                                     117P     77
124,0D0,1D0,0D0,0D0,0D0,0D0,-1D0,-1.8D1,-1D0,0D0,0D0,0D0;            119P     78
100,0D0,0D0,0D0,1.5D1,0D0,-1.5D1,0D0;                                121P     79
110,0D0,0D0,1.5D1,1.584372658569D-11,-1.8D1,1.5D1;                   123P     80
126,9,3,0,0,1,0,0D0,0D0,0D0,0D0,1.428571428571D-1,                   125P     81
2.857142857143D-1,4.285714285714D-1,5.714285714286D-1,               125P     82
7.142857142857D-1,8.571428571429D-1,1D0,1D0,1D0,1D0,1D0,1D0,1D0,     125P     83
1D0,1D0,1D0,1D0,1D0,1D0,1D0,9.814954576224D0,-2D1,0D0,               125P     84
9.568281824087D0,-1.985758342015D1,4.272497395435D-1,                125P     85
9.083673555889D0,-1.961051458031D1,1.266615881831D0,                 125P     86
8.392662327835D0,-1.936362020591D1,2.463482437421D0,                 125P     87
7.704684058518D0,-1.923543999947D1,3.655095754380D0,                 125P     88
7.016947088029D0,-1.923550507604D1,4.846291129512D0,                 125P     89
6.328906516894D0,-1.936387822774D1,6.038012356386D0,                 125P     90
5.638560768462D0,-1.961063036041D1,7.233726267459D0,                 125P     91
5.154089256774D0,-1.985761851351D1,8.072855540523D0,                 125P     92
4.907477288112D0,-2D1,8.5D0,0D0,1D0,0D0,0D0,1D0;                     125P     93
110,9.814954576224D0,-2D1,0D0,9.814954576224D0,-9D0,0D0;             127P     94
126,9,3,0,0,1,0,0D0,0D0,0D0,0D0,1.428571428571D-1,                   129P     95
2.857142857143D-1,4.285714285714D-1,5.714285714286D-1,               129P     96
7.142857142857D-1,8.571428571429D-1,1D0,1D0,1D0,1D0,1D0,1D0,1D0,     129P     97
1D0,1D0,1D0,1D0,1D0,1D0,1D0,4.907477288112D0,-2D1,-8.5D0,            129P     98
5.154150040248D0,-1.985758342015D1,-8.072750260457D0,                129P     99
5.638758308447D0,-1.961051458031D1,-7.233384118169D0,                129P    100
6.329769536501D0,-1.936362020591D1,-6.036517562579D0,                129P    101
7.017747805817D0,-1.923543999947D1,-4.844904245620D0,                129P    102
7.705484776307D0,-1.923550507604D1,-3.653708870488D0,                129P    103
8.393525347441D0,-1.936387822774D1,-2.461987643614D0,                129P    104
9.083871095873D0,-1.961063036041D1,-1.266273732541D0,                129P    105
9.568342607562D0,-1.985761851351D1,-4.271444594769D-1,               129P    106
9.814954576224D0,-2D1,0D0,0D0,1D0,0D0,0D0,1D0;                       129P    107
110,4.907477288112D0,-2D1,-8.5D0,4.907477288112D0,-9D0,-8.5D0;       131P    108
126,9,3,0,0,1,0,0D0,0D0,0D0,0D0,1.428571428571D-1,                   133P    109
2.857142857143D-1,4.285714285714D-1,5.714285714286D-1,               133P    110
7.142857142857D-1,8.571428571429D-1,1D0,1D0,1D0,1D0,1D0,1D0,1D0,     133P    111
1D0,1D0,1D0,1D0,1D0,1D0,1D0,-9.814954576224D0,-2D1,0D0,              133P    112
-9.568281824087D0,-1.985758342015D1,-4.272497395435D-1,              133P    113
-9.083673555889D0,-1.961051458031D1,-1.266615881831D0,               133P    114
-8.392662327835D0,-1.936362020591D1,-2.463482437421D0,               133P    115
-7.704684058518D0,-1.923543999947D1,-3.655095754380D0,               133P    116
-7.016947088029D0,-1.923550507604D1,-4.846291129512D0,               133P    117
-6.328906516894D0,-1.936387822774D1,-6.038012356386D0,               133P    118
-5.638560768462D0,-1.961063036041D1,-7.233726267459D0,               133P    119
-5.154089256774D0,-1.985761851351D1,-8.072855540523D0,               133P    120
-4.907477288112D0,-2D1,-8.5D0,0D0,1D0,0D0,0D0,1D0;                   133P    121
110,-9.814954576224D0,-2D1,0D0,-9.814954576224D0,-9D0,0D0;           135P    122
126,9,3,0,0,1,0,0D0,0D0,0D0,0D0,1.428571428571D-1,                   137P    123
2.857142857143D-1,4.285714285714D-1,5.714285714286D-1,               137P    124
7.142857142857D-1,8.571428571429D-1,1D0,1D0,1D0,1D0,1D0,1D0,1D0,     137P    125
1D0,1D0,1D0,1D0,1D0,1D0,1D0,-4.907477288112D0,-2D1,8.5D0,            137P    126
-5.154150040248D0,-1.985758342015D1,8.072750260457D0,                137P    127
-5.638758308447D0,-1.961051458031D1,7.233384118169D0,                137P    128
-6.329769536501D0,-1.936362020591D1,6.036517562579D0,                137P    129
-7.017747805817D0,-1.923543999947D1,4.844904245620D0,                137P    130
-7.705484776307D0,-1.923550507604D1,3.653708870488D0,                137P    131
-8.393525347441D0,-1.936387822774D1,2.461987643614D0,                137P    132
-9.083871095873D0,-1.961063036041D1,1.266273732541D0,                137P    133
-9.568342607562D0,-1.985761851351D1,4.271444594769D-1,               137P    134
-9.814954576224D0,-2D1,0D0,0D0,1D0,0D0,0D0,1D0;                      137P    135
110,-4.907477288112D0,-2D1,8.5D0,-4.907477288112D0,-9D0,8.5D0;       139P    136
126,9,3,0,0,1,0,0D0,0D0,0D0,0D0,1.428571428571D-1,                   141P    137
2.857142857143D-1,4.285714285714D-1,5.714285714286D-1,               141P    138
7.142857142857D-1,8.571428571429D-1,1D0,1D0,1D0,1D0,1D0,1D0,1D0,     141P    139
1D0,1D0,1D0,1D0,1D0,1D0,1D0,4.907477288112D0,-2D1,8.5D0,             141P    140
4.414131783839D0,-1.985758342015D1,8.5D0,3.444915247442D0,           141P    141
-1.961051458031D1,8.5D0,2.062892791334D0,-1.936362020591D1,          141P    142
8.5D0,6.869362527010D-1,-1.923543999947D1,8.5D0,                     141P    143
-6.885376882784D-1,-1.923550507604D1,8.5D0,-2.064618830547D0,        141P    144
-1.936387822774D1,8.5D0,-3.445310327411D0,-1.961063036041D1,         141P    145
8.5D0,-4.414253350788D0,-1.985761851351D1,8.5D0,                     141P    146
-4.907477288112D0,-2D1,8.5D0,0D0,1D0,0D0,0D0,1D0;                    141P    147
110,4.907477288112D0,-2D1,8.5D0,4.907477288112D0,-9D0,8.5D0;         143P    148
110,-4.907477288112D0,-9D0,8.5D0,-9.814954576224D0,-9D0,0D0;         145P    149
110,4.907477288112D0,-9D0,8.5D0,-4.907477288112D0,-9D0,8.5D0;        147P    150
110,9.814954576224D0,-9D0,0D0,4.907477288112D0,-9D0,8.5D0;           149P    151
110,4.907477288112D0,-9D0,-8.5D0,9.814954576224D0,-9D0,0D0;          151P    152
110,-4.907477288112D0,-9D0,-8.5D0,4.907477288112D0,-9D0,-8.5D0;      153P    153
110,-9.814954576224D0,-9D0,0D0,-4.907477288112D0,-9D0,-8.5D0;        155P    154
126,9,3,0,0,1,0,0D0,0D0,0D0,0D0,1.428571428571D-1,                   157P    155
2.857142857143D-1,4.285714285714D-1,5.714285714286D-1,               157P    156
7.142857142857D-1,8.571428571429D-1,1D0,1D0,1D0,1D0,1D0,1D0,1D0,     157P    157
1D0,1D0,1D0,1D0,1D0,1D0,1D0,-4.907477288112D0,-2D1,-8.5D0,           157P    158
-4.414131783839D0,-1.985758342015D1,-8.5D0,-3.444915247442D0,        157P    159
-1.961051458031D1,-8.5D0,-2.062892791334D0,-1.936362020591D1,        157P    160
-8.5D0,-6.869362527010D-1,-1.923543999947D1,-8.5D0,                  157P    161
6.885376882784D-1,-1.923550507604D1,-8.5D0,2.064618830547D0,         157P    162
-1.936387822774D1,-8.5D0,3.445310327411D0,-1.961063036041D1,         157P    163
-8.5D0,4.414253350788D0,-1.985761851351D1,-8.5D0,                    157P    164
4.907477288112D0,-2D1,-8.5D0,0D0,1D0,0D0,0D0,1D0;                    157P    165
110,-4.907477288112D0,-2D1,-8.5D0,-4.907477288112D0,-9D0,-8.5D0;     159P    166
502,26,0D0,0D0,-1.5D1,0D0,0D0,1.5D1,-4.907477288112D0,-9D0,          161P    167
8.5D0,-9.814954576224D0,-9D0,0D0,-4.907477288112D0,-9D0,-8.5D0,      161P    168
4.907477288112D0,-9D0,-8.5D0,9.814954576224D0,-9D0,0D0,              161P    169
4.907477288112D0,-9D0,8.5D0,0D0,4.599998627174D1,                    161P    170
-9.399980758798D0,0D0,4.599998627174D1,9.399980758798D0,0D0,         161P    171
4.539999405445D1,-1D1,0D0,4.539999405445D1,1D1,0D0,8D-1,1D1,0D0,     161P    172
8D-1,-1D1,0D0,1.421085471520D-14,1.079999984905D1,0D0,               161P    173
1.421085471520D-14,-1.079999984905D1,0D0,-2D1,-1.299999994225D1,     161P    174
0D0,-2D1,1.299999994225D1,0D0,-1.8D1,-1.5D1,0D0,-1.8D1,1.5D1,        161P    175
9.814954576224D0,-2D1,0D0,4.907477288112D0,-2D1,8.5D0,               161P    176
-4.907477288112D0,-2D1,8.5D0,-9.814954576224D0,-2D1,0D0,             161P    177
-4.907477288112D0,-2D1,-8.5D0,4.907477288112D0,-2D1,-8.5D0;          161P    178
504,48,59,161,1,161,2,63,161,2,161,1,145,161,3,161,4,155,161,4,      163P    179
161,5,153,161,5,161,6,151,161,6,161,7,149,161,7,161,8,147,161,8,     163P    180
161,3,19,161,9,161,10,55,161,11,161,12,23,161,10,161,9,37,161,       163P    181
12,161,11,27,161,10,161,12,25,161,9,161,11,49,161,13,161,14,67,      163P    182
161,15,161,16,31,161,14,161,13,71,161,16,161,15,51,161,14,161,       163P    183
11,33,161,13,161,12,41,161,14,161,16,45,161,13,161,15,85,161,17,     163P    184
161,18,121,161,19,161,20,89,161,18,161,17,75,161,20,161,19,77,       163P    185
161,1,161,19,123,161,2,161,20,81,161,18,161,20,117,161,17,161,       163P    186
19,93,161,21,161,22,97,161,22,161,23,101,161,23,161,24,105,161,      163P    187
24,161,25,109,161,25,161,26,113,161,26,161,21,137,161,23,161,24,     163P    188
133,161,24,161,25,157,161,25,161,26,129,161,26,161,21,125,161,       163P    189
21,161,22,141,161,22,161,23,139,161,23,161,3,135,161,24,161,4,       163P    190
159,161,25,161,5,131,161,26,161,6,127,161,21,161,7,143,161,22,       163P    191
161,8;                                                               163P    192
128,1,1,1,1,0,0,1,0,0,-9.776D0,-9.776D0,9.776D0,9.776D0,             165P    193
-9.775999925621D0,-9.775999925621D0,9.775999925621D0,                165P    194
9.775999925621D0,1D0,1D0,1D0,1D0,9.775999925621D0,4.6D1,9.776D0,     165P    195
9.775999925621D0,4.6D1,-9.776D0,-9.775999925621D0,4.6D1,9.776D0,     165P    196
-9.775999925621D0,4.6D1,-9.776D0,-9.776D0,9.776D0,                   165P    197
-9.775999925621D0,9.775999925621D0;                                  165P    198
508,2,0,163,9,0,0,0,163,11,0,0;                                      167P    199
510,165,1,0,167;                                                     169P    200
110,1.176836406103D-14,5.54D1,-1.776356839400D-14,                   171P    201
1.176836406103D-14,5.44D1,-1.776356839400D-14;                       171P    202
110,1.176836406103D-14,4.606659646444D1,-9.333370799727D0,           173P    203
1.176836406103D-14,4.533336730868D1,-1.006659738377D1;               173P    204
120,171,173,-3.204424520215D0,6.283186491005D-2;                     175P    205
508,4,0,163,9,1,0,0,163,13,1,0,0,163,10,0,0,0,163,14,0,0;            177P    206
510,175,1,0,177;                                                     179P    207
110,0D0,5.54D1,-3.286260152890D-14,0D0,5.44D1,                       181P    208
-3.286260152890D-14;                                                 181P    209
110,0D0,4.606659646444D1,-9.333370799727D0,0D0,4.533336730868D1,     183P    210
-1.006659738377D1;                                                   183P    211
120,181,183,-6.283186662475D-2,3.204424518500D0;                     185P    212
508,4,0,163,11,1,0,0,163,14,1,0,0,163,12,0,0,0,163,13,0,0;           187P    213
510,185,1,0,187;                                                     189P    214
110,0D0,0D0,0D0,0D0,1D0,0D0;                                         191P    215
110,0D0,-9.200026689483D-2,-1D1,0D0,4.629201361164D1,-1D1;           193P    216
120,191,193,3.078760800518D0,6.346017160251D0;                       195P    217
508,4,0,163,17,1,0,0,163,20,1,0,0,163,12,1,0,0,163,19,0,0;           197P    218
510,195,1,0,197;                                                     199P    219
110,0D0,8D-1,0D0,0D0,1.8D0,0D0;                                      201P    220
124,1.152089874193D-2,1.362358555498D-3,9.999327041713D-1,           203P    221
-1.252926282204D-1,1.174328658307D-1,-9.930808235097D-1,0D0,         203P    222
8D-1,9.930139933128D-1,1.174249630887D-1,-1.160116927967D-2,         203P    223
-1.079927320505D1;                                                   203P    224
100,0D0,0D0,0D0,8D-1,0D0,-1.865928456420D-1,7.779351579375D-1;       205P    225
120,201,205,-3.216025936186D0,5.123042354926D-2;                     207P    226
508,4,0,163,17,0,0,0,163,21,1,0,0,163,18,1,0,0,163,22,0,0;           209P    227
510,207,1,0,209;                                                     211P    228
110,0D0,8D-1,0D0,0D0,1.8D0,0D0;                                      213P    229
124,-1.152089874193D-2,-1.362358555498D-3,-9.999327041713D-1,        215P    230
1.252926282204D-1,1.174328658307D-1,-9.930808235097D-1,0D0,8D-1,     215P    231
-9.930139933128D-1,-1.174249630887D-1,1.160116927967D-2,             215P    232
1.079927320505D1;                                                    215P    233
100,0D0,0D0,0D0,8D-1,0D0,-1.865928456420D-1,7.779351579375D-1;       217P    234
120,213,217,-3.216025936186D0,5.123042354926D-2;                     219P    235
508,4,0,163,15,0,0,0,163,22,1,0,0,163,16,1,0,0,163,21,0,0;           221P    236
510,219,1,0,221;                                                     223P    237
110,0D0,0D0,0D0,0D0,1D0,0D0;                                         225P    238
110,0D0,-9.200026689483D-2,-1D1,0D0,4.629201361164D1,-1D1;           227P    239
120,225,227,-6.283185307180D-2,3.204424506662D0;                     229P    240
508,4,0,163,15,1,0,0,163,19,1,0,0,163,10,1,0,0,163,20,0,0;           231P    241
510,229,1,0,231;                                                     233P    242
128,1,1,1,1,0,0,1,0,0,-1.56D1,-1.56D1,1.56D1,1.56D1,                 235P    243
-1.561284860450D1,-1.561284860450D1,1.561284860450D1,                235P    244
1.561284860450D1,1D0,1D0,1D0,1D0,1.561284860450D1,0D0,1.56D1,        235P    245
1.561284860450D1,0D0,-1.56D1,-1.561284860450D1,0D0,1.56D1,           235P    246
-1.561284860450D1,0D0,-1.56D1,-1.56D1,1.56D1,-1.561284860450D1,      235P    247
1.561284860450D1;                                                    235P    248
508,2,0,163,1,0,0,0,163,2,0,0;                                       237P    249
508,2,0,163,16,0,0,0,163,18,0,0;                                     239P    250
510,235,2,0,237,239;                                                 241P    251
110,0D0,0D0,0D0,0D0,1D0,0D0;                                         243P    252
110,0D0,-1.836D1,-1.5D1,0D0,3.6D-1,-1.5D1;                           245P    253
120,243,245,-6.283185307180D-2,3.204424506662D0;                     247P    254
508,4,0,163,26,1,0,0,163,27,0,0,0,163,1,1,0,0,163,28,1,0;            249P    255
510,247,1,0,249;                                                     251P    256
110,0D0,-1.8D1,0D0,0D0,-1.7D1,0D0;                                   253P    257
124,-5.377802119286D-4,1.141369519951D-2,-9.999347170462D-1,         255P    258
1.485426474693D-1,-9.988918342417D-1,-4.706488590436D-2,0D0,         255P    259
-1.8D1,-4.706181336959D-2,9.988266236323D-1,1.142635749763D-2,       255P    260
1.299915132160D1;                                                    255P    261
100,0D0,0D0,0D0,2D0,0D0,-1.880499386483D-1,1.991139678821D0;         257P    262
120,253,257,-3.215851112879D0,5.140524692198D-2;                     259P    263
508,4,0,163,25,1,0,0,163,30,1,0,0,163,26,0,0,0,163,29,0,0;           261P    264
510,259,1,0,261;                                                     263P    265
128,1,1,1,1,0,0,1,0,0,-1.352D1,-1.352D1,1.352D1,1.352D1,             265P    266
-1.352749724950D1,-1.352749724950D1,1.352749724950D1,                265P    267
1.352749724950D1,1D0,1D0,1D0,1D0,1.352749724950D1,-2D1,1.352D1,      265P    268
1.352749724950D1,-2D1,-1.352D1,-1.352749724950D1,-2D1,1.352D1,       265P    269
-1.352749724950D1,-2D1,-1.352D1,-1.352D1,1.352D1,                    265P    270
-1.352749724950D1,1.352749724950D1;                                  265P    271
508,2,0,163,23,0,0,0,163,25,0,0;                                     267P    272
508,6,0,163,31,1,0,0,163,32,1,0,0,163,33,1,0,0,163,34,1,0,0,163,     269P    273
35,1,0,0,163,36,1,0;                                                 269P    274
510,265,2,0,267,269;                                                 271P    275
110,0D0,-1.8D1,0D0,0D0,-1.7D1,0D0;                                   273P    276
124,5.377802119286D-4,-1.141369519951D-2,9.999347170462D-1,          275P    277
-1.485426474693D-1,-9.988918342417D-1,-4.706488590436D-2,0D0,        275P    278
-1.8D1,4.706181336959D-2,-9.988266236323D-1,-1.142635749764D-2,      275P    279
-1.299915132160D1;                                                   275P    280
100,0D0,0D0,0D0,2D0,0D0,-1.880499386483D-1,1.991139678821D0;         277P    281
120,273,277,-3.215851112879D0,5.140524692198D-2;                     279P    282
508,4,0,163,23,1,0,0,163,29,1,0,0,163,24,0,0,0,163,30,0,0;           281P    283
510,279,1,0,281;                                                     283P    284
110,0D0,0D0,0D0,0D0,1D0,0D0;                                         285P    285
110,0D0,-1.836D1,-1.5D1,0D0,3.6D-1,-1.5D1;                           287P    286
120,285,287,3.078760800518D0,6.346017160251D0;                       289P    287
508,4,0,163,24,1,0,0,163,28,0,0,0,163,2,1,0,0,163,27,1,0;            291P    288
510,289,1,0,291;                                                     293P    289
110,0D0,-1.433333333333D1,0D0,0D0,-1.533333333333D1,0D0;             295P    290
110,-8.410607888142D0,-1.918920006160D1,0D0,-9.896502620935D0,       297P    291
-2.004708178557D1,0D0;                                               297P    292
120,295,297,-3.204424506662D0,6.283185307180D-2;                     299P    293
508,2,0,163,41,1,0,0,163,31,0,0;                                     301P    294
510,299,1,0,301;                                                     303P    295
110,0D0,-1.433333333333D1,0D0,0D0,-1.533333333333D1,0D0;             305P    296
110,-8.410607888142D0,-1.918920006160D1,0D0,-9.896502620935D0,       307P    297
-2.004708178557D1,0D0;                                               307P    298
120,305,307,-3.204424506662D0,6.283185307180D-2;                     309P    299
508,2,0,163,42,1,0,0,163,32,0,0;                                     311P    300
510,309,1,0,311;                                                     313P    301
110,0D0,-1.433333333333D1,0D0,0D0,-1.533333333333D1,0D0;             315P    302
110,-8.410607888142D0,-1.918920006160D1,0D0,-9.896502620935D0,       317P    303
-2.004708178557D1,0D0;                                               317P    304
120,315,317,-3.204424506662D0,6.283185307180D-2;                     319P    305
508,2,0,163,37,1,0,0,163,33,0,0;                                     321P    306
510,319,1,0,321;                                                     323P    307
128,1,1,1,1,0,0,1,0,0,-1.962990915245D-1,-1.962990915245D-1,         325P    308
1.001125366775D1,1.001125366775D1,-1.122D1,-1.122D1,2.2D-1,          325P    309
2.2D-1,1D0,1D0,1D0,1D0,9.913104121986D0,-8.78D0,-1.7D-1,             325P    310
4.809327742350D0,-8.78D0,8.67D0,9.913104121986D0,-2.022D1,           325P    311
-1.7D-1,4.809327742350D0,-2.022D1,8.67D0,-1.962990915245D-1,         325P    312
1.001125366775D1,-1.122D1,2.2D-1;                                    325P    313
508,4,0,163,41,0,0,0,163,47,1,0,0,163,7,1,0,0,163,48,0,0;            327P    314
510,325,1,0,327;                                                     329P    315
128,1,1,1,1,0,0,1,0,0,-1.962990915245D-1,-1.962990915245D-1,         331P    316
1.001125366775D1,1.001125366775D1,-1.122D1,-1.122D1,2.2D-1,          331P    317
2.2D-1,1D0,1D0,1D0,1D0,4.809327742350D0,-8.78D0,-8.67D0,             331P    318
9.913104121986D0,-8.78D0,1.7D-1,4.809327742350D0,-2.022D1,           331P    319
-8.67D0,9.913104121986D0,-2.022D1,1.7D-1,-1.962990915245D-1,         331P    320
1.001125366775D1,-1.122D1,2.2D-1;                                    331P    321
508,4,0,163,40,0,0,0,163,46,1,0,0,163,6,1,0,0,163,47,0,0;            333P    322
510,331,1,0,333;                                                     335P    323
110,0D0,-1.433333333333D1,0D0,0D0,-1.533333333333D1,0D0;             337P    324
110,-8.410607888142D0,-1.918920006160D1,0D0,-9.896502620935D0,       339P    325
-2.004708178557D1,0D0;                                               339P    326
120,337,339,-6.346017160251D0,-3.078760800518D0;                     341P    327
508,2,0,163,38,1,0,0,163,34,0,0;                                     343P    328
510,341,1,0,343;                                                     345P    329
110,0D0,-1.433333333333D1,0D0,0D0,-1.533333333333D1,0D0;             347P    330
110,-8.410607888142D0,-1.918920006160D1,0D0,-9.896502620935D0,       349P    331
-2.004708178557D1,0D0;                                               349P    332
120,347,349,-6.346017160251D0,-3.078760800518D0;                     351P    333
508,2,0,163,39,1,0,0,163,35,0,0;                                     353P    334
510,351,1,0,353;                                                     355P    335
110,0D0,-1.433333333333D1,0D0,0D0,-1.533333333333D1,0D0;             357P    336
110,-8.410607888142D0,-1.918920006160D1,0D0,-9.896502620935D0,       359P    337
-2.004708178557D1,0D0;                                               359P    338
120,357,359,-6.346017160251D0,-3.078760800518D0;                     361P    339
508,2,0,163,40,1,0,0,163,36,0,0;                                     363P    340
510,361,1,0,363;                                                     365P    341
128,1,1,1,1,0,0,1,0,0,-1.962990915245D-1,-1.962990915245D-1,         367P    342
1.001125366775D1,1.001125366775D1,-1.122D1,-1.122D1,2.2D-1,          367P    343
2.2D-1,1D0,1D0,1D0,1D0,-9.913104121986D0,-8.78D0,1.7D-1,             367P    344
-4.809327742350D0,-8.78D0,-8.67D0,-9.913104121986D0,-2.022D1,        367P    345
1.7D-1,-4.809327742350D0,-2.022D1,-8.67D0,-1.962990915245D-1,        367P    346
1.001125366775D1,-1.122D1,2.2D-1;                                    367P    347
508,4,0,163,38,0,0,0,163,44,1,0,0,163,4,1,0,0,163,45,0,0;            369P    348
510,367,1,0,369;                                                     371P    349
128,1,1,1,1,0,0,1,0,0,-1.962990915245D-1,-1.962990915245D-1,         373P    350
1.001125366775D1,1.001125366775D1,-1.122D1,-1.122D1,2.2D-1,          373P    351
2.2D-1,1D0,1D0,1D0,1D0,-4.809327742350D0,-8.78D0,8.67D0,             373P    352
-9.913104121986D0,-8.78D0,-1.7D-1,-4.809327742350D0,-2.022D1,        373P    353
8.67D0,-9.913104121986D0,-2.022D1,-1.7D-1,-1.962990915245D-1,        373P    354
1.001125366775D1,-1.122D1,2.2D-1;                                    373P    355
508,4,0,163,37,0,0,0,163,43,1,0,0,163,3,1,0,0,163,44,0,0;            375P    356
510,373,1,0,375;                                                     377P    357
128,1,1,1,1,0,0,1,0,0,-1.962990915245D-1,-1.962990915245D-1,         379P    358
1.001125366775D1,1.001125366775D1,-1.122D1,-1.122D1,2.2D-1,          379P    359
2.2D-1,1D0,1D0,1D0,1D0,5.103776379636D0,-8.78D0,8.5D0,               379P    360
-5.103776379636D0,-8.78D0,8.5D0,5.103776379636D0,-2.022D1,8.5D0,     379P    361
-5.103776379636D0,-2.022D1,8.5D0,-1.962990915245D-1,                 379P    362
1.001125366775D1,-1.122D1,2.2D-1;                                    379P    363
508,4,0,163,42,0,0,0,163,48,1,0,0,163,8,1,0,0,163,43,0,0;            381P    364
510,379,1,0,381;                                                     383P    365
128,1,1,1,1,0,0,1,0,0,-1.020755275927D1,-1.020755275927D1,           385P    366
1.020755275927D1,1.020755275927D1,-8.84D0,-8.84D0,8.84D0,8.84D0,     385P    367
1D0,1D0,1D0,1D0,-1.020755275927D1,-9D0,-8.84D0,1.020755275927D1,     385P    368
-9D0,-8.84D0,-1.020755275927D1,-9D0,8.84D0,1.020755275927D1,         385P    369
-9D0,8.84D0,-1.020755275927D1,1.020755275927D1,-8.84D0,8.84D0;       385P    370
508,6,0,163,3,0,0,0,163,8,0,0,0,163,7,0,0,0,163,6,0,0,0,163,5,0,     387P    371
0,0,163,4,0,0;                                                       387P    372
510,385,1,0,387;                                                     389P    373
128,1,1,1,1,0,0,1,0,0,-1.962990915245D-1,-1.962990915245D-1,         391P    374
1.001125366775D1,1.001125366775D1,-1.122D1,-1.122D1,2.2D-1,          391P    375
2.2D-1,1D0,1D0,1D0,1D0,-5.103776379636D0,-8.78D0,-8.5D0,             391P    376
5.103776379636D0,-8.78D0,-8.5D0,-5.103776379636D0,-2.022D1,          391P    377
-8.5D0,5.103776379636D0,-2.022D1,-8.5D0,-1.962990915245D-1,          391P    378
1.001125366775D1,-1.122D1,2.2D-1;                                    391P    379
508,4,0,163,39,0,0,0,163,45,1,0,0,163,5,1,0,0,163,46,0,0;            393P    380
510,391,1,0,393;                                                     395P    381
514,26,169,1,179,1,189,1,199,1,211,0,223,0,233,1,241,1,251,1,        397P    382
263,1,271,0,283,1,293,1,303,0,313,0,323,0,329,0,335,0,345,0,355,     397P    383
0,365,0,371,0,377,0,383,0,389,1,395,0;                               397P    384
124,-1D0,0D0,0D0,0D0,0D0,0D0,1D0,4.6D1,0D0,1D0,0D0,0D0;              399P    385
100,0D0,0D0,0D0,9.188D0,0D0,-9.188D0,0D0;                            401P    386
110,9.188D0,4.6D1,0D0,9.188D0,0D0,0D0;                               403P    387
124,1D0,0D0,0D0,0D0,0D0,0D0,-1D0,0D0,0D0,1D0,0D0,0D0;                405P    388
100,0D0,0D0,0D0,9.188D0,0D0,-9.188D0,0D0;                            407P    389
124,1D0,0D0,0D0,0D0,0D0,0D0,1D0,4.6D1,0D0,-1D0,0D0,0D0;              409P    390
100,0D0,0D0,0D0,9.188D0,0D0,-9.188D0,0D0;                            411P    391
110,-9.188D0,4.6D1,0D0,-9.188D0,0D0,0D0;                             413P    392
124,-1D0,0D0,0D0,0D0,0D0,0D0,-1D0,0D0,0D0,-1D0,0D0,0D0;              415P    393
100,0D0,0D0,0D0,9.188D0,0D0,-9.188D0,0D0;                            417P    394
502,4,9.188D0,4.6D1,0D0,-9.188D0,4.6D1,0D0,9.188D0,0D0,0D0,          419P    395
-9.188D0,0D0,0D0;                                                    419P    396
504,6,401,419,1,419,2,411,419,2,419,1,407,419,3,419,4,417,419,4,     421P    397
419,3,403,419,1,419,3,413,419,2,419,4;                               421P    398
110,0D0,4.6D1,0D0,0D0,4.5D1,0D0;                                     423P    399
110,9.188D0,4.692D1,0D0,9.188D0,-9.2D-1,0D0;                         425P    400
120,423,425,-6.283185307180D-2,3.204424506662D0;                     427P    401
508,4,0,421,1,0,0,0,421,5,1,0,0,421,3,1,0,0,421,6,0,0;               429P    402
510,427,1,0,429;                                                     431P    403
110,0D0,4.6D1,0D0,0D0,4.5D1,0D0;                                     433P    404
110,9.188D0,4.692D1,0D0,9.188D0,-9.2D-1,0D0;                         435P    405
120,433,435,3.078760800518D0,6.346017160251D0;                       437P    406
508,4,0,421,2,0,0,0,421,6,1,0,0,421,4,1,0,0,421,5,0,0;               439P    407
510,437,1,0,439;                                                     441P    408
514,2,431,1,441,1;                                                   443P    409
186,397,1,0;                                                         445P    410
S      1G      6D    446P    410                                        T      1
