 PTC IGES file: screw-m42x3x90-csn_02_1143.igs                          S      1
1H,,1H;,26HSCREW-M42X3X90-CSN_02_1143,                                  G      1
30Hscrew-m42x3x90-csn_02_1143.igs,                                      G      2
49HPro/ENGINEER by Parametric Technology Corporation,7H2007160,32,38,7, G      3
38,15,26HSCREW-M42X3X90-CSN_02_1143,1.,2,2HMM,32768,0.5,                G      4
15H20111214.100902,0.0159269,159.275,13HVladimir Zima,7HUnknown,10,0,   G      5
15H20111214.100902;                                                     G      6
     314       1       1       1       0       0       0       001000200D      1
     314       0       4       1       0                   COLOR       1D      2
     314       2       1       1       0       0       0       001000200D      3
     314       0       1       1       0                   COLOR       2D      4
     314       3       1       1       0       0       0       001000200D      5
     314       0       1       1       0                   COLOR       3D      6
     314       4       1       1       0       0       0       001000200D      7
     314       0       1       1       0                   COLOR       4D      8
     314       5       1       1       0       0       0       001000200D      9
     314       0       8       1       0                   COLOR       5D     10
     314       6       1       1       0       0       0       001000200D     11
     314       0       8       1       0                   COLOR       6D     12
     314       7       1       1       0       0       0       001000200D     13
     314       0       5       1       0                   COLOR       7D     14
     314       8       1       1       0       0       0       001000200D     15
     314       0       8       1       0                   COLOR       8D     16
     124       9       1       1       0       0       0       001000000D     17
     124       0       0       2       0                   XFORM       1D     18
     100      11       1       1       0       0      17       001010000D     19
     100       0       0       2       0                     ARC       1D     20
     124      13       1       1       0       0       0       001000000D     21
     124       0       0       2       0                   XFORM       2D     22
     100      15       1       1       0       0      21       001010000D     23
     100       0       0       2       0                     ARC       2D     24
     110      17       1       1       0       0       0       001010000D     25
     110       0       0       2       0                    LINE       1D     26
     110      19       1       1       0       0       0       001010000D     27
     110       0       0       2       0                    LINE       2D     28
     124      21       1       1       0       0       0       001000000D     29
     124       0       0       1       0                   XFORM       3D     30
     100      22       1       1       0       0      29       001010000D     31
     100       0       0       1       0                     ARC       3D     32
     110      23       1       1       0       0       0       001010000D     33
     110       0       0       2       0                    LINE       3D     34
     124      25       1       1       0       0       0       001000000D     35
     124       0       0       2       0                   XFORM       4D     36
     100      27       1       1       0       0      35       001010000D     37
     100       0       0       1       0                     ARC       4D     38
     124      28       1       1       0       0       0       001000000D     39
     124       0       0       2       0                   XFORM       5D     40
     100      30       1       1       0       0      39       001010000D     41
     100       0       0       1       0                     ARC       5D     42
     124      31       1       1       0       0       0       001000000D     43
     124       0       0       2       0                   XFORM       6D     44
     100      33       1       1       0       0      43       001010000D     45
     100       0       0       1       0                     ARC       6D     46
     124      34       1       1       0       0       0       001000000D     47
     124       0       0       1       0                   XFORM       7D     48
     100      35       1       1       0       0      47       001010000D     49
     100       0       0       1       0                     ARC       7D     50
     110      36       1       1       0       0       0       001010000D     51
     110       0       0       2       0                    LINE       4D     52
     124      38       1       1       0       0       0       001000000D     53
     124       0       0       2       0                   XFORM       8D     54
     100      40       1       1       0       0      53       001010000D     55
     100       0       0       1       0                     ARC       8D     56
     124      41       1       1       0       0       0       001000000D     57
     124       0       0       1       0                   XFORM       9D     58
     100      42       1       1       0       0      57       001010000D     59
     100       0       0       1       0                     ARC       9D     60
     124      43       1       1       0       0       0       001000000D     61
     124       0       0       1       0                   XFORM      10D     62
     100      44       1       1       0       0      61       001010000D     63
     100       0       0       1       0                     ARC      10D     64
     124      45       1       1       0       0       0       001000000D     65
     124       0       0       2       0                   XFORM      11D     66
     100      47       1       1       0       0      65       001010000D     67
     100       0       0       1       0                     ARC      11D     68
     124      48       1       1       0       0       0       001000000D     69
     124       0       0       2       0                   XFORM      12D     70
     100      50       1       1       0       0      69       001010000D     71
     100       0       0       1       0                     ARC      12D     72
     124      51       1       1       0       0       0       001000000D     73
     124       0       0       1       0                   XFORM      13D     74
     100      52       1       1       0       0      73       001010000D     75
     100       0       0       1       0                     ARC      13D     76
     110      53       1       1       0       0       0       001010000D     77
     110       0       0       1       0                    LINE       5D     78
     124      54       1       1       0       0       0       001000000D     79
     124       0       0       2       0                   XFORM      14D     80
     100      56       1       1       0       0      79       001010000D     81
     100       0       0       1       0                     ARC      14D     82
     124      57       1       1       0       0       0       001000000D     83
     124       0       0       1       0                   XFORM      15D     84
     100      58       1       1       0       0      83       001010000D     85
     100       0       0       1       0                     ARC      15D     86
     124      59       1       1       0       0       0       001000000D     87
     124       0       0       1       0                   XFORM      16D     88
     100      60       1       1       0       0      87       001010000D     89
     100       0       0       1       0                     ARC      16D     90
     124      61       1       1       0       0       0       001000000D     91
     124       0       0       1       0                   XFORM      17D     92
     100      62       1       1       0       0      91       001010000D     93
     100       0       0       1       0                     ARC      17D     94
     124      63       1       1       0       0       0       001000000D     95
     124       0       0       2       0                   XFORM      18D     96
     100      65       1       1       0       0      95       001010000D     97
     100       0       0       1       0                     ARC      18D     98
     124      66       1       1       0       0       0       001000000D     99
     124       0       0       2       0                   XFORM      19D    100
     100      68       1       1       0       0      99       001010000D    101
     100       0       0       1       0                     ARC      19D    102
     124      69       1       1       0       0       0       001000000D    103
     124       0       0       1       0                   XFORM      20D    104
     100      70       1       1       0       0     103       001010000D    105
     100       0       0       1       0                     ARC      20D    106
     124      71       1       1       0       0       0       001000000D    107
     124       0       0       2       0                   XFORM      21D    108
     100      73       1       1       0       0     107       001010000D    109
     100       0       0       1       0                     ARC      21D    110
     124      74       1       1       0       0       0       001000000D    111
     124       0       0       2       0                   XFORM      22D    112
     100      76       1       1       0       0     111       001010000D    113
     100       0       0       1       0                     ARC      22D    114
     124      77       1       1       0       0       0       001000000D    115
     124       0       0       1       0                   XFORM      23D    116
     100      78       1       1       0       0     115       001010000D    117
     100       0       0       1       0                     ARC      23D    118
     124      79       1       1       0       0       0       001000000D    119
     124       0       0       1       0                   XFORM      24D    120
     100      80       1       1       0       0     119       001010000D    121
     100       0       0       1       0                     ARC      24D    122
     110      81       1       1       0       0       0       001010000D    123
     110       0       0       1       0                    LINE       6D    124
     126      82       1       1       0       0       0       001010000D    125
     126       0       0      13       0                B_SPLINE       1D    126
     110      95       1       1       0       0       0       001010000D    127
     110       0       0       1       0                    LINE       7D    128
     126      96       1       1       0       0       0       001010000D    129
     126       0       0      13       0                B_SPLINE       2D    130
     110     109       1       1       0       0       0       001010000D    131
     110       0       0       2       0                    LINE       8D    132
     126     111       1       1       0       0       0       001010000D    133
     126       0       0      13       0                B_SPLINE       3D    134
     110     124       1       1       0       0       0       001010000D    135
     110       0       0       1       0                    LINE       9D    136
     126     125       1       1       0       0       0       001010000D    137
     126       0       0      13       0                B_SPLINE       4D    138
     110     138       1       1       0       0       0       001010000D    139
     110       0       0       2       0                    LINE      10D    140
     126     140       1       1       0       0       0       001010000D    141
     126       0       0      11       0                B_SPLINE       5D    142
     110     151       1       1       0       0       0       001010000D    143
     110       0       0       1       0                    LINE      11D    144
     110     152       1       1       0       0       0       001010000D    145
     110       0       0       1       0                    LINE      12D    146
     110     153       1       1       0       0       0       001010000D    147
     110       0       0       2       0                    LINE      13D    148
     110     155       1       1       0       0       0       001010000D    149
     110       0       0       1       0                    LINE      14D    150
     110     156       1       1       0       0       0       001010000D    151
     110       0       0       1       0                    LINE      15D    152
     110     157       1       1       0       0       0       001010000D    153
     110       0       0       2       0                    LINE      16D    154
     110     159       1       1       0       0       0       001010000D    155
     110       0       0       2       0                    LINE      17D    156
     126     161       1       1       0       0       0       001010000D    157
     126       0       0      11       0                B_SPLINE       6D    158
     110     172       1       1       0       0       0       001010000D    159
     110       0       0       2       0                    LINE      18D    160
     502     174       1       1       0       0       0       001010000D    161
     502       0       0      13       1                  VERTEX       1D    162
     504     187       1       1       0       0       0       000010001D    163
     504       0       0      14       1                    EDGE       1D    164
     128     201       1       1       0       0       0       001010000D    165
     128       0       0       6       0                  SPLSRF       1D    166
     508     207       1       1       0       0       0       001010000D    167
     508       0       0       1       1                EDGELOOP       1D    168
     510     208       1       1       0       0       0       000010000D    169
     510       0       0       1       1                    FACE       1D    170
     110     209       1       1       0       0       0       001010000D    171
     110       0       0       2       0                    LINE      19D    172
     110     211       1       1       0       0       0       001010000D    173
     110       0       0       2       0                    LINE      20D    174
     120     213       1       1       0       0       0       001010000D    175
     120       0       0       1       0                    SREV       1D    176
     508     214       1       1       0       0       0       001010000D    177
     508       0       0       1       1                EDGELOOP       2D    178
     510     215       1       1       0       0       0       000010000D    179
     510       0       0       1       1                    FACE       2D    180
     110     216       1       1       0       0       0       001010000D    181
     110       0       0       2       0                    LINE      21D    182
     110     218       1       1       0       0       0       001010000D    183
     110       0       0       2       0                    LINE      22D    184
     120     220       1       1       0       0       0       001010000D    185
     120       0       0       1       0                    SREV       2D    186
     508     221       1       1       0       0       0       001010000D    187
     508       0       0       1       1                EDGELOOP       3D    188
     510     222       1       1       0       0       0       000010000D    189
     510       0       0       1       1                    FACE       3D    190
     110     223       1       1       0       0       0       001010000D    191
     110       0       0       1       0                    LINE      23D    192
     110     224       1       1       0       0       0       001010000D    193
     110       0       0       1       0                    LINE      24D    194
     120     225       1       1       0       0       0       001010000D    195
     120       0       0       1       0                    SREV       3D    196
     508     226       1       1       0       0       0       001010000D    197
     508       0       0       1       1                EDGELOOP       4D    198
     510     227       1       1       0       0       0       000010000D    199
     510       0       0       1       1                    FACE       4D    200
     110     228       1       1       0       0       0       001010000D    201
     110       0       0       1       0                    LINE      25D    202
     124     229       1       1       0       0       0       001000000D    203
     124       0       0       4       0                   XFORM      25D    204
     100     233       1       1       0       0     203       001010000D    205
     100       0       0       1       0                     ARC      25D    206
     120     234       1       1       0       0       0       001010000D    207
     120       0       0       1       0                    SREV       4D    208
     508     235       1       1       0       0       0       001010000D    209
     508       0       0       1       1                EDGELOOP       5D    210
     510     236       1       1       0       0       0       000010000D    211
     510       0       0       1       1                    FACE       5D    212
     110     237       1       1       0       0       0       001010000D    213
     110       0       0       1       0                    LINE      26D    214
     124     238       1       1       0       0       0       001000000D    215
     124       0       0       4       0                   XFORM      26D    216
     100     242       1       1       0       0     215       001010000D    217
     100       0       0       1       0                     ARC      26D    218
     120     243       1       1       0       0       0       001010000D    219
     120       0       0       1       0                    SREV       5D    220
     508     244       1       1       0       0       0       001010000D    221
     508       0       0       1       1                EDGELOOP       6D    222
     510     245       1       1       0       0       0       000010000D    223
     510       0       0       1       1                    FACE       6D    224
     110     246       1       1       0       0       0       001010000D    225
     110       0       0       1       0                    LINE      27D    226
     110     247       1       1       0       0       0       001010000D    227
     110       0       0       1       0                    LINE      28D    228
     120     248       1       1       0       0       0       001010000D    229
     120       0       0       1       0                    SREV       6D    230
     508     249       1       1       0       0       0       001010000D    231
     508       0       0       1       1                EDGELOOP       7D    232
     510     250       1       1       0       0       0       000010000D    233
     510       0       0       1       1                    FACE       7D    234
     128     251       1       1       0       0       0       001010000D    235
     128       0       0       6       0                  SPLSRF       2D    236
     508     257       1       1       0       0       0       001010000D    237
     508       0       0       1       1                EDGELOOP       8D    238
     508     258       1       1       0       0       0       001010000D    239
     508       0       0       1       1                EDGELOOP       9D    240
     510     259       1       1       0       0       0       000010000D    241
     510       0       0       1       1                    FACE       8D    242
     110     260       1       1       0       0       0       001010000D    243
     110       0       0       1       0                    LINE      29D    244
     110     261       1       1       0       0       0       001010000D    245
     110       0       0       1       0                    LINE      30D    246
     120     262       1       1       0       0       0       001010000D    247
     120       0       0       1       0                    SREV       7D    248
     508     263       1       1       0       0       0       001010000D    249
     508       0       0       1       1                EDGELOOP      10D    250
     510     264       1       1       0       0       0       000010000D    251
     510       0       0       1       1                    FACE       9D    252
     110     265       1       1       0       0       0       001010000D    253
     110       0       0       1       0                    LINE      31D    254
     124     266       1       1       0       0       0       001000000D    255
     124       0       0       4       0                   XFORM      27D    256
     100     270       1       1       0       0     255       001010000D    257
     100       0       0       1       0                     ARC      27D    258
     120     271       1       1       0       0       0       001010000D    259
     120       0       0       1       0                    SREV       8D    260
     508     272       1       1       0       0       0       001010000D    261
     508       0       0       1       1                EDGELOOP      11D    262
     510     273       1       1       0       0       0       000010000D    263
     510       0       0       1       1                    FACE      10D    264
     128     274       1       1       0       0       0       001010000D    265
     128       0       0       6       0                  SPLSRF       3D    266
     508     280       1       1       0       0       0       001010000D    267
     508       0       0       1       1                EDGELOOP      12D    268
     508     281       1       1       0       0       0       001010000D    269
     508       0       0       2       1                EDGELOOP      13D    270
     510     283       1       1       0       0       0       000010000D    271
     510       0       0       1       1                    FACE      11D    272
     110     284       1       1       0       0       0       001010000D    273
     110       0       0       1       0                    LINE      32D    274
     124     285       1       1       0       0       0       001000000D    275
     124       0       0       4       0                   XFORM      28D    276
     100     289       1       1       0       0     275       001010000D    277
     100       0       0       1       0                     ARC      28D    278
     120     290       1       1       0       0       0       001010000D    279
     120       0       0       1       0                    SREV       9D    280
     508     291       1       1       0       0       0       001010000D    281
     508       0       0       1       1                EDGELOOP      14D    282
     510     292       1       1       0       0       0       000010000D    283
     510       0       0       1       1                    FACE      12D    284
     110     293       1       1       0       0       0       001010000D    285
     110       0       0       1       0                    LINE      33D    286
     110     294       1       1       0       0       0       001010000D    287
     110       0       0       1       0                    LINE      34D    288
     120     295       1       1       0       0       0       001010000D    289
     120       0       0       1       0                    SREV      10D    290
     508     296       1       1       0       0       0       001010000D    291
     508       0       0       1       1                EDGELOOP      15D    292
     510     297       1       1       0       0       0       000010000D    293
     510       0       0       1       1                    FACE      13D    294
     110     298       1       1       0       0       0       001010000D    295
     110       0       0       1       0                    LINE      35D    296
     110     299       1       1       0       0       0       001010000D    297
     110       0       0       2       0                    LINE      36D    298
     120     301       1       1       0       0       0       001010000D    299
     120       0       0       1       0                    SREV      11D    300
     508     302       1       1       0       0       0       001010000D    301
     508       0       0       1       1                EDGELOOP      16D    302
     510     303       1       1       0       0       0       000010000D    303
     510       0       0       1       1                    FACE      14D    304
     110     304       1       1       0       0       0       001010000D    305
     110       0       0       1       0                    LINE      37D    306
     110     305       1       1       0       0       0       001010000D    307
     110       0       0       2       0                    LINE      38D    308
     120     307       1       1       0       0       0       001010000D    309
     120       0       0       1       0                    SREV      12D    310
     508     308       1       1       0       0       0       001010000D    311
     508       0       0       1       1                EDGELOOP      17D    312
     510     309       1       1       0       0       0       000010000D    313
     510       0       0       1       1                    FACE      15D    314
     110     310       1       1       0       0       0       001010000D    315
     110       0       0       1       0                    LINE      39D    316
     110     311       1       1       0       0       0       001010000D    317
     110       0       0       2       0                    LINE      40D    318
     120     313       1       1       0       0       0       001010000D    319
     120       0       0       1       0                    SREV      13D    320
     508     314       1       1       0       0       0       001010000D    321
     508       0       0       1       1                EDGELOOP      18D    322
     510     315       1       1       0       0       0       000010000D    323
     510       0       0       1       1                    FACE      16D    324
     128     316       1       1       0       0       0       001010000D    325
     128       0       0       6       0                  SPLSRF       4D    326
     508     322       1       1       0       0       0       001010000D    327
     508       0       0       1       1                EDGELOOP      19D    328
     510     323       1       1       0       0       0       000010000D    329
     510       0       0       1       1                    FACE      17D    330
     128     324       1       1       0       0       0       001010000D    331
     128       0       0       6       0                  SPLSRF       5D    332
     508     330       1       1       0       0       0       001010000D    333
     508       0       0       1       1                EDGELOOP      20D    334
     510     331       1       1       0       0       0       000010000D    335
     510       0       0       1       1                    FACE      18D    336
     110     332       1       1       0       0       0       001010000D    337
     110       0       0       1       0                    LINE      41D    338
     110     333       1       1       0       0       0       001010000D    339
     110       0       0       2       0                    LINE      42D    340
     120     335       1       1       0       0       0       001010000D    341
     120       0       0       1       0                    SREV      14D    342
     508     336       1       1       0       0       0       001010000D    343
     508       0       0       1       1                EDGELOOP      21D    344
     510     337       1       1       0       0       0       000010000D    345
     510       0       0       1       1                    FACE      19D    346
     110     338       1       1       0       0       0       001010000D    347
     110       0       0       1       0                    LINE      43D    348
     110     339       1       1       0       0       0       001010000D    349
     110       0       0       2       0                    LINE      44D    350
     120     341       1       1       0       0       0       001010000D    351
     120       0       0       1       0                    SREV      15D    352
     508     342       1       1       0       0       0       001010000D    353
     508       0       0       1       1                EDGELOOP      22D    354
     510     343       1       1       0       0       0       000010000D    355
     510       0       0       1       1                    FACE      20D    356
     110     344       1       1       0       0       0       001010000D    357
     110       0       0       1       0                    LINE      45D    358
     110     345       1       1       0       0       0       001010000D    359
     110       0       0       2       0                    LINE      46D    360
     120     347       1       1       0       0       0       001010000D    361
     120       0       0       1       0                    SREV      16D    362
     508     348       1       1       0       0       0       001010000D    363
     508       0       0       1       1                EDGELOOP      23D    364
     510     349       1       1       0       0       0       000010000D    365
     510       0       0       1       1                    FACE      21D    366
     128     350       1       1       0       0       0       001010000D    367
     128       0       0       6       0                  SPLSRF       6D    368
     508     356       1       1       0       0       0       001010000D    369
     508       0       0       1       1                EDGELOOP      24D    370
     510     357       1       1       0       0       0       000010000D    371
     510       0       0       1       1                    FACE      22D    372
     128     358       1       1       0       0       0       001010000D    373
     128       0       0       6       0                  SPLSRF       7D    374
     508     364       1       1       0       0       0       001010000D    375
     508       0       0       1       1                EDGELOOP      25D    376
     510     365       1       1       0       0       0       000010000D    377
     510       0       0       1       1                    FACE      23D    378
     128     366       1       1       0       0       0       001010000D    379
     128       0       0       6       0                  SPLSRF       8D    380
     508     372       1       1       0       0       0       001010000D    381
     508       0       0       1       1                EDGELOOP      26D    382
     510     373       1       1       0       0       0       000010000D    383
     510       0       0       1       1                    FACE      24D    384
     128     374       1       1       0       0       0       001010000D    385
     128       0       0       6       0                  SPLSRF       9D    386
     508     380       1       1       0       0       0       001010000D    387
     508       0       0       2       1                EDGELOOP      27D    388
     510     382       1       1       0       0       0       000010000D    389
     510       0       0       1       1                    FACE      25D    390
     128     383       1       1       0       0       0       001010000D    391
     128       0       0       6       0                  SPLSRF      10D    392
     508     389       1       1       0       0       0       001010000D    393
     508       0       0       1       1                EDGELOOP      28D    394
     510     390       1       1       0       0       0       000010000D    395
     510       0       0       1       1                    FACE      26D    396
     514     391       1       1       0       0       0       000010000D    397
     514       0       0       3       1                   SHELL       1D    398
     124     394       1       1       0       0       0       001000000D    399
     124       0       0       1       0                   XFORM      29D    400
     100     395       1       1       0       0     399       001010000D    401
     100       0       0       1       0                     ARC      29D    402
     110     396       1       1       0       0       0       001010000D    403
     110       0       0       1       0                    LINE      47D    404
     124     397       1       1       0       0       0       001000000D    405
     124       0       0       1       0                   XFORM      30D    406
     100     398       1       1       0       0     405       001010000D    407
     100       0       0       1       0                     ARC      30D    408
     124     399       1       1       0       0       0       001000000D    409
     124       0       0       1       0                   XFORM      31D    410
     100     400       1       1       0       0     409       001010000D    411
     100       0       0       1       0                     ARC      31D    412
     110     401       1       1       0       0       0       001010000D    413
     110       0       0       1       0                    LINE      48D    414
     124     402       1       1       0       0       0       001000000D    415
     124       0       0       1       0                   XFORM      32D    416
     100     403       1       1       0       0     415       001010000D    417
     100       0       0       1       0                     ARC      32D    418
     502     404       1       1       0       0       0       001010000D    419
     502       0       0       2       1                  VERTEX       2D    420
     504     406       1       1       0       0       0       000010001D    421
     504       0       0       2       1                    EDGE       2D    422
     110     408       1       1       0       0       0       001010000D    423
     110       0       0       1       0                    LINE      49D    424
     110     409       1       1       0       0       0       001010000D    425
     110       0       0       1       0                    LINE      50D    426
     120     410       1       1       0       0       0       001010000D    427
     120       0       0       1       0                    SREV      17D    428
     508     411       1       1       0       0       0       001010000D    429
     508       0       0       1       1                EDGELOOP      29D    430
     510     412       1       1       0       0       0       000010000D    431
     510       0       0       1       1                    FACE      27D    432
     110     413       1       1       0       0       0       001010000D    433
     110       0       0       1       0                    LINE      51D    434
     110     414       1       1       0       0       0       001010000D    435
     110       0       0       1       0                    LINE      52D    436
     120     415       1       1       0       0       0       001010000D    437
     120       0       0       1       0                    SREV      18D    438
     508     416       1       1       0       0       0       001010000D    439
     508       0       0       1       1                EDGELOOP      30D    440
     510     417       1       1       0       0       0       000010000D    441
     510       0       0       1       1                    FACE      28D    442
     514     418       1       1       0       0       0       000000000D    443
     514       0       0       1       1                   SHELL       2D    444
     186     419       1       1       0       0       0       000000000D    445
     186       0       0       1       0                    MSBR       1D    446
314,1.1D0,1.2D0,1D2;                                                   1P      1
314,1.1D1,1.1D1,1.1D1;                                                 3P      2
314,3.92D1,1.2D0,1.2D0;                                                5P      3
314,4.1D1,0D0,2.2D1;                                                   7P      4
314,8.784D1,9.49D1,1D2;                                                9P      5
314,9.6D1,9.6D1,9.6D1;                                                11P      6
314,9.8D1,6.27D1,0D0;                                                 13P      7
314,1D2,1D2,9.49D1;                                                   15P      8
124,0D0,-1D0,0D0,3.952393967666D-14,0D0,0D0,1D0,                      17P      9
8.999999987894D1,-1D0,0D0,0D0,3.197442310920D-14;                     17P     10
100,0D0,0D0,0D0,1.979999066536D1,0D0,-1.979999066536D1,               19P     11
8.156137932402D-14;                                                   19P     12
124,0D0,1D0,0D0,-4.263256414561D-14,0D0,0D0,1D0,                      21P     13
8.999999987894D1,1D0,0D0,0D0,-2.309263891220D-14;                     21P     14
100,0D0,0D0,0D0,1.979999066536D1,0D0,-1.979999066536D1,               23P     15
8.156137932402D-14;                                                   23P     16
110,-7.490125828147D-9,8.999999684912D1,-1.979999684709D1,            25P     17
-5.958053799048D-9,8.879999749361D1,-2.099999749200D1;                25P     18
110,7.490120618308D-9,8.999999684912D1,1.979999684709D1,              27P     19
5.958059221889D-9,8.879999749361D1,2.099999749200D1;                  27P     20
124,0D0,1D0,0D0,0D0,0D0,0D0,-1D0,1.2D0,-1D0,0D0,0D0,0D0;              29P     21
100,0D0,0D0,0D0,2.1D1,0D0,-2.1D1,0D0;                                 31P     22
110,-5.886477828614D-14,1.2D0,2.1D1,5.958059221889D-9,                33P     23
8.879999749361D1,2.099999749200D1;                                    33P     24
124,0D0,1D0,0D0,0D0,0D0,0D0,1D0,8.879999010685D1,1D0,0D0,0D0,         35P     25
0D0;                                                                  35P     26
100,0D0,0D0,0D0,2.1D1,0D0,-2.1D1,0D0;                                 37P     27
124,1.204713412362D-13,0D0,1D0,-2.674443999595D-12,0D0,-1D0,0D0,      39P     28
1.2D0,1D0,0D0,-1.204713412362D-13,-2.22D1;                            39P     29
100,0D0,0D0,0D0,1.2D0,0D0,3.577824885317D-14,1.2D0;                   41P     30
124,-1.206031802203D-13,0D0,-1D0,2.677358335035D-12,0D0,-1D0,         43P     31
0D0,1.2D0,-1D0,0D0,1.206031802203D-13,2.22D1;                         43P     32
100,0D0,0D0,0D0,1.2D0,0D0,3.924214469D-14,1.2D0;                      45P     33
124,0D0,-1D0,0D0,0D0,0D0,0D0,-1D0,1.2D0,1D0,0D0,0D0,0D0;              47P     34
100,0D0,0D0,0D0,2.1D1,0D0,-2.1D1,0D0;                                 49P     35
110,5.955179865011D-14,1.2D0,-2.1D1,-5.958053799048D-9,               51P     36
8.879999749361D1,-2.099999749200D1;                                   51P     37
124,0D0,-1D0,0D0,0D0,0D0,0D0,1D0,8.879999010685D1,-1D0,0D0,0D0,       53P     38
0D0;                                                                  53P     39
100,0D0,0D0,0D0,2.1D1,0D0,-2.1D1,1.189754674988D-14;                  55P     40
124,0D0,-1D0,0D0,0D0,0D0,0D0,1D0,0D0,-1D0,0D0,0D0,0D0;                57P     41
100,0D0,0D0,0D0,3.15D1,0D0,-3.15D1,0D0;                               59P     42
124,0D0,1D0,0D0,0D0,0D0,0D0,1D0,0D0,1D0,0D0,0D0,0D0;                  61P     43
100,0D0,0D0,0D0,3.15D1,0D0,-3.15D1,0D0;                               63P     44
124,0D0,-1D0,0D0,0D0,0D0,0D0,-1D0,9.037215420449D-14,1D0,0D0,         65P     45
0D0,0D0;                                                              65P     46
100,0D0,0D0,0D0,2.219999953418D1,0D0,-2.219999953418D1,0D0;           67P     47
124,0D0,1D0,0D0,0D0,0D0,0D0,-1D0,9.037215420449D-14,-1D0,0D0,         69P     48
0D0,0D0;                                                              69P     49
100,0D0,0D0,0D0,2.219999953418D1,0D0,-2.219999953418D1,0D0;           71P     50
124,0D0,-1D0,0D0,0D0,0D0,0D0,-1D0,-3.8D1,1D0,0D0,0D0,0D0;             73P     51
100,0D0,0D0,0D0,3.15D1,0D0,-3.15D1,0D0;                               75P     52
110,0D0,0D0,-3.15D1,-2.930395548206D-11,-3.8D1,-3.15D1;               77P     53
124,0D0,0D0,-1D0,2.103872631665D-14,-1D0,0D0,0D0,-3.8D1,0D0,1D0,      79P     54
0D0,2.75D1;                                                           79P     55
100,0D0,0D0,0D0,4D0,0D0,1.090306230717D-14,4D0;                       81P     56
124,0D0,1D0,0D0,0D0,0D0,0D0,-1D0,-4.2D1,-1D0,0D0,0D0,0D0;             83P     57
100,0D0,0D0,0D0,2.749999991670D1,0D0,-2.749999991670D1,0D0;           85P     58
124,0D0,-1D0,0D0,0D0,0D0,0D0,-1D0,-4.2D1,1D0,0D0,0D0,0D0;             87P     59
100,0D0,0D0,0D0,2.749999991670D1,0D0,-2.749999991670D1,0D0;           89P     60
124,1D0,0D0,0D0,0D0,0D0,0D0,-1D0,-4.2D1,0D0,1D0,0D0,0D0;              91P     61
100,0D0,0D0,0D0,1.847520861407D1,0D0,9.237604307034D0,1.6D1;          93P     62
124,5D-1,-8.660254037844D-1,0D0,0D0,0D0,0D0,-1D0,-4.2D1,              95P     63
8.660254037844D-1,5D-1,0D0,0D0;                                       95P     64
100,0D0,0D0,0D0,1.847520861407D1,0D0,9.237604307034D0,1.6D1;          97P     65
124,-5D-1,-8.660254037844D-1,0D0,0D0,0D0,0D0,-1D0,-4.2D1,             99P     66
8.660254037844D-1,-5D-1,0D0,0D0;                                      99P     67
100,0D0,0D0,0D0,1.847520861407D1,0D0,9.237604307034D0,1.6D1;         101P     68
124,-1D0,0D0,0D0,0D0,0D0,0D0,-1D0,-4.2D1,0D0,-1D0,0D0,0D0;           103P     69
100,0D0,0D0,0D0,1.847520861407D1,0D0,9.237604307034D0,1.6D1;         105P     70
124,-5D-1,8.660254037844D-1,0D0,0D0,0D0,0D0,-1D0,-4.2D1,             107P     71
-8.660254037844D-1,-5D-1,0D0,0D0;                                    107P     72
100,0D0,0D0,0D0,1.847520861407D1,0D0,9.237604307034D0,1.6D1;         109P     73
124,5D-1,8.660254037844D-1,0D0,0D0,0D0,0D0,-1D0,-4.2D1,              111P     74
-8.660254037844D-1,5D-1,0D0,0D0;                                     111P     75
100,0D0,0D0,0D0,1.847520861407D1,0D0,9.237604307034D0,1.6D1;         113P     76
124,0D0,0D0,1D0,0D0,-1D0,0D0,0D0,-3.8D1,0D0,-1D0,0D0,-2.75D1;        115P     77
100,0D0,0D0,0D0,4D0,0D0,0D0,4D0;                                     117P     78
124,0D0,1D0,0D0,0D0,0D0,0D0,-1D0,-3.8D1,-1D0,0D0,0D0,0D0;            119P     79
100,0D0,0D0,0D0,3.15D1,0D0,-3.15D1,0D0;                              121P     80
110,0D0,0D0,3.15D1,2.932233648327D-11,-3.8D1,3.15D1;                 123P     81
126,9,3,0,0,1,0,0D0,0D0,0D0,0D0,1.428571428571D-1,                   125P     82
2.857142857143D-1,4.285714285714D-1,5.714285714286D-1,               125P     83
7.142857142857D-1,8.571428571429D-1,1D0,1D0,1D0,1D0,1D0,1D0,1D0,     125P     84
1D0,1D0,1D0,1D0,1D0,1D0,1D0,1.847520861407D1,-4.2D1,0D0,             125P     85
1.801088343358D1,-4.173192173205D1,8.042348038465D-1,                125P     86
1.709867963461D1,-4.126685097470D1,2.384218130506D0,                 125P     87
1.579795261710D1,-4.080210862289D1,4.637143411616D0,                 125P     88
1.450293469839D1,-4.056082823430D1,6.880180243540D0,                 125P     89
1.320837098923D1,-4.056095073137D1,9.122430361435D0,                 125P     90
1.191323579651D1,-4.080259431104D1,1.136567031790D1,                 125P     91
1.061376144652D1,-4.126706891372D1,1.361642591522D1,                 125P     92
9.701815071574D0,-4.173198779013D1,1.519596337040D1,                 125P     93
9.237604307034D0,-4.2D1,1.6D1,0D0,1D0,0D0,0D0,1D0;                   125P     94
110,1.847520861407D1,-4.2D1,0D0,1.847520861407D1,-1.6D1,0D0;         127P     95
126,9,3,0,0,1,0,0D0,0D0,0D0,0D0,1.428571428571D-1,                   129P     96
2.857142857143D-1,4.285714285714D-1,5.714285714286D-1,               129P     97
7.142857142857D-1,8.571428571429D-1,1D0,1D0,1D0,1D0,1D0,1D0,1D0,     129P     98
1D0,1D0,1D0,1D0,1D0,1D0,1D0,9.237604307034D0,-4.2D1,-1.6D1,          129P     99
9.701929487526D0,-4.173192173205D1,-1.519576519615D1,                129P    100
1.061413328649D1,-4.126685097470D1,-1.361578186949D1,                129P    101
1.191486030400D1,-4.080210862289D1,-1.136285658838D1,                129P    102
1.320987822271D1,-4.056082823430D1,-9.119819756460D0,                129P    103
1.450444193187D1,-4.056095073137D1,-6.877569638565D0,                129P    104
1.579957712460D1,-4.080259431104D1,-4.634329682098D0,                129P    105
1.709905147459D1,-4.126706891372D1,-2.383574084783D0,                129P    106
1.801099784953D1,-4.173198779013D1,-8.040366296035D-1,               129P    107
1.847520861407D1,-4.2D1,0D0,0D0,1D0,0D0,0D0,1D0;                     129P    108
110,9.237604307034D0,-4.2D1,-1.6D1,9.237604307034D0,-1.6D1,          131P    109
-1.6D1;                                                              131P    110
126,9,3,0,0,1,0,0D0,0D0,0D0,0D0,1.428571428571D-1,                   133P    111
2.857142857143D-1,4.285714285714D-1,5.714285714286D-1,               133P    112
7.142857142857D-1,8.571428571429D-1,1D0,1D0,1D0,1D0,1D0,1D0,1D0,     133P    113
1D0,1D0,1D0,1D0,1D0,1D0,1D0,-1.847520861407D1,-4.2D1,0D0,            133P    114
-1.801088343358D1,-4.173192173205D1,-8.042348038465D-1,              133P    115
-1.709867963461D1,-4.126685097470D1,-2.384218130506D0,               133P    116
-1.579795261710D1,-4.080210862289D1,-4.637143411616D0,               133P    117
-1.450293469839D1,-4.056082823430D1,-6.880180243540D0,               133P    118
-1.320837098923D1,-4.056095073137D1,-9.122430361435D0,               133P    119
-1.191323579651D1,-4.080259431104D1,-1.136567031790D1,               133P    120
-1.061376144652D1,-4.126706891372D1,-1.361642591522D1,               133P    121
-9.701815071574D0,-4.173198779013D1,-1.519596337040D1,               133P    122
-9.237604307034D0,-4.2D1,-1.6D1,0D0,1D0,0D0,0D0,1D0;                 133P    123
110,-1.847520861407D1,-4.2D1,0D0,-1.847520861407D1,-1.6D1,0D0;       135P    124
126,9,3,0,0,1,0,0D0,0D0,0D0,0D0,1.428571428571D-1,                   137P    125
2.857142857143D-1,4.285714285714D-1,5.714285714286D-1,               137P    126
7.142857142857D-1,8.571428571429D-1,1D0,1D0,1D0,1D0,1D0,1D0,1D0,     137P    127
1D0,1D0,1D0,1D0,1D0,1D0,1D0,-9.237604307034D0,-4.2D1,1.6D1,          137P    128
-9.701929487526D0,-4.173192173205D1,1.519576519615D1,                137P    129
-1.061413328649D1,-4.126685097470D1,1.361578186949D1,                137P    130
-1.191486030400D1,-4.080210862289D1,1.136285658838D1,                137P    131
-1.320987822271D1,-4.056082823430D1,9.119819756460D0,                137P    132
-1.450444193187D1,-4.056095073137D1,6.877569638565D0,                137P    133
-1.579957712460D1,-4.080259431104D1,4.634329682098D0,                137P    134
-1.709905147459D1,-4.126706891372D1,2.383574084783D0,                137P    135
-1.801099784953D1,-4.173198779013D1,8.040366296035D-1,               137P    136
-1.847520861407D1,-4.2D1,0D0,0D0,1D0,0D0,0D0,1D0;                    137P    137
110,-9.237604307034D0,-4.2D1,1.6D1,-9.237604307034D0,-1.6D1,         139P    138
1.6D1;                                                               139P    139
126,9,3,0,0,1,0,0D0,0D0,0D0,0D0,1.428571428571D-1,                   141P    140
2.857142857143D-1,4.285714285714D-1,5.714285714286D-1,               141P    141
7.142857142857D-1,8.571428571429D-1,1D0,1D0,1D0,1D0,1D0,1D0,1D0,     141P    142
1D0,1D0,1D0,1D0,1D0,1D0,1D0,9.237604307034D0,-4.2D1,1.6D1,           141P    143
8.308953946049D0,-4.173192173205D1,1.6D1,6.484546348126D0,           141P    144
-4.126685097470D1,1.6D1,3.883092313099D0,-4.080210862289D1,          141P    145
1.6D1,1.293056475673D0,-4.056082823430D1,1.6D1,                      141P    146
-1.296070942642D0,-4.056095073137D1,1.6D1,-3.886341328089D0,         141P    147
-4.080259431104D1,1.6D1,-6.485290028069D0,-4.126706891372D1,         141P    148
1.6D1,-8.309182777954D0,-4.173198779013D1,1.6D1,                     141P    149
-9.237604307034D0,-4.2D1,1.6D1,0D0,1D0,0D0,0D0,1D0;                  141P    150
110,9.237604307034D0,-4.2D1,1.6D1,9.237604307034D0,-1.6D1,1.6D1;     143P    151
110,-9.237604307034D0,-1.6D1,1.6D1,-1.847520861407D1,-1.6D1,0D0;     145P    152
110,9.237604307034D0,-1.6D1,1.6D1,-9.237604307034D0,-1.6D1,          147P    153
1.6D1;                                                               147P    154
110,1.847520861407D1,-1.6D1,0D0,9.237604307034D0,-1.6D1,1.6D1;       149P    155
110,9.237604307034D0,-1.6D1,-1.6D1,1.847520861407D1,-1.6D1,0D0;      151P    156
110,-9.237604307034D0,-1.6D1,-1.6D1,9.237604307034D0,-1.6D1,         153P    157
-1.6D1;                                                              153P    158
110,-1.847520861407D1,-1.6D1,0D0,-9.237604307034D0,-1.6D1,           155P    159
-1.6D1;                                                              155P    160
126,9,3,0,0,1,0,0D0,0D0,0D0,0D0,1.428571428571D-1,                   157P    161
2.857142857143D-1,4.285714285714D-1,5.714285714286D-1,               157P    162
7.142857142857D-1,8.571428571429D-1,1D0,1D0,1D0,1D0,1D0,1D0,1D0,     157P    163
1D0,1D0,1D0,1D0,1D0,1D0,1D0,-9.237604307034D0,-4.2D1,-1.6D1,         157P    164
-8.308953946049D0,-4.173192173205D1,-1.6D1,-6.484546348126D0,        157P    165
-4.126685097470D1,-1.6D1,-3.883092313099D0,-4.080210862289D1,        157P    166
-1.6D1,-1.293056475673D0,-4.056082823430D1,-1.6D1,                   157P    167
1.296070942642D0,-4.056095073137D1,-1.6D1,3.886341328089D0,          157P    168
-4.080259431104D1,-1.6D1,6.485290028069D0,-4.126706891372D1,         157P    169
-1.6D1,8.309182777954D0,-4.173198779013D1,-1.6D1,                    157P    170
9.237604307034D0,-4.2D1,-1.6D1,0D0,1D0,0D0,0D0,1D0;                  157P    171
110,-9.237604307034D0,-4.2D1,-1.6D1,-9.237604307034D0,-1.6D1,        159P    172
-1.6D1;                                                              159P    173
502,26,0D0,0D0,-3.15D1,0D0,0D0,3.15D1,-9.237604307034D0,-1.6D1,      161P    174
1.6D1,-1.847520861407D1,-1.6D1,0D0,-9.237604307034D0,-1.6D1,         161P    175
-1.6D1,9.237604307034D0,-1.6D1,-1.6D1,1.847520861407D1,-1.6D1,       161P    176
0D0,9.237604307034D0,-1.6D1,1.6D1,0D0,8.999999987894D1,              161P    177
-1.979999066536D1,0D0,8.999999987894D1,1.979999066536D1,0D0,         161P    178
8.879999010685D1,-2.1D1,0D0,8.879999010685D1,2.1D1,0D0,1.2D0,        161P    179
2.1D1,0D0,1.2D0,-2.1D1,0D0,9.037215420449D-14,2.219999953418D1,      161P    180
0D0,9.037215420449D-14,-2.219999953418D1,0D0,-4.2D1,                 161P    181
-2.749999991670D1,0D0,-4.2D1,2.749999991670D1,0D0,-3.8D1,            161P    182
-3.15D1,0D0,-3.8D1,3.15D1,1.847520861407D1,-4.2D1,0D0,               161P    183
9.237604307034D0,-4.2D1,1.6D1,-9.237604307034D0,-4.2D1,1.6D1,        161P    184
-1.847520861407D1,-4.2D1,0D0,-9.237604307034D0,-4.2D1,-1.6D1,        161P    185
9.237604307034D0,-4.2D1,-1.6D1;                                      161P    186
504,48,59,161,1,161,2,63,161,2,161,1,145,161,3,161,4,155,161,4,      163P    187
161,5,153,161,5,161,6,151,161,6,161,7,149,161,7,161,8,147,161,8,     163P    188
161,3,19,161,9,161,10,55,161,11,161,12,23,161,10,161,9,37,161,       163P    189
12,161,11,27,161,10,161,12,25,161,9,161,11,49,161,13,161,14,67,      163P    190
161,15,161,16,31,161,14,161,13,71,161,16,161,15,51,161,14,161,       163P    191
11,33,161,13,161,12,41,161,14,161,16,45,161,13,161,15,85,161,17,     163P    192
161,18,121,161,19,161,20,89,161,18,161,17,75,161,20,161,19,77,       163P    193
161,1,161,19,123,161,2,161,20,81,161,18,161,20,117,161,17,161,       163P    194
19,93,161,21,161,22,97,161,22,161,23,101,161,23,161,24,105,161,      163P    195
24,161,25,109,161,25,161,26,113,161,26,161,21,137,161,23,161,24,     163P    196
133,161,24,161,25,157,161,25,161,26,129,161,26,161,21,125,161,       163P    197
21,161,22,141,161,22,161,23,139,161,23,161,3,135,161,24,161,4,       163P    198
159,161,25,161,5,131,161,26,161,6,127,161,21,161,7,143,161,22,       163P    199
161,8;                                                               163P    200
128,1,1,1,1,0,0,1,0,0,-2.0592D1,-2.0592D1,2.0592D1,2.0592D1,         165P    201
-2.061279337927D1,-2.061279337927D1,2.061279337927D1,                165P    202
2.061279337927D1,1D0,1D0,1D0,1D0,2.061279337927D1,9D1,2.0592D1,      165P    203
2.061279337927D1,9D1,-2.0592D1,-2.061279337927D1,9D1,2.0592D1,       165P    204
-2.061279337927D1,9D1,-2.0592D1,-2.0592D1,2.0592D1,                  165P    205
-2.061279337927D1,2.061279337927D1;                                  165P    206
508,2,0,163,9,0,0,0,163,11,0,0;                                      167P    207
510,165,1,0,167;                                                     169P    208
110,3.952393967666D-14,1.098D2,3.197442310920D-14,                   171P    209
3.952393967666D-14,1.088D2,3.197442310920D-14;                       171P    210
110,3.952393967666D-14,9.013519536836D1,-1.966479524051D1,           173P    211
3.952393967666D-14,8.866479128694D1,-2.113519861973D1;               173P    212
120,171,173,-3.204424515960D0,6.283186123547D-2;                     175P    213
508,4,0,163,9,1,0,0,163,13,1,0,0,163,10,0,0,0,163,14,0,0;            177P    214
510,175,1,0,177;                                                     179P    215
110,-4.263256414561D-14,1.098D2,-2.309263891220D-14,                 181P    216
-4.263256414561D-14,1.088D2,-2.309263891220D-14;                     181P    217
110,-4.263256414561D-14,9.013519536836D1,-1.966479524051D1,          183P    218
-4.263256414561D-14,8.866479128694D1,-2.113519861973D1;              183P    219
120,181,183,-6.283186237034D-2,3.204424514825D0;                     185P    220
508,4,0,163,11,1,0,0,163,14,1,0,0,163,12,0,0,0,163,13,0,0;           187P    221
510,185,1,0,187;                                                     189P    222
110,0D0,0D0,0D0,0D0,1D0,0D0;                                         191P    223
110,0D0,-5.520004929160D-1,-2.1D1,0D0,9.055202513871D1,-2.1D1;       193P    224
120,191,193,3.078760800518D0,6.346017160251D0;                       195P    225
508,4,0,163,17,1,0,0,163,20,1,0,0,163,12,1,0,0,163,19,0,0;           197P    226
510,195,1,0,197;                                                     199P    227
110,0D0,1.2D0,0D0,0D0,2.2D0,0D0;                                     201P    228
124,1.107126178940D-2,1.778440481675D-3,9.999371301796D-1,           203P    229
-2.489328755929D-1,1.586025092072D-1,-9.873425160871D-1,0D0,         203P    230
1.2D0,9.872804420404D-1,1.585925378959D-1,-1.121319259427D-2,        203P    231
-2.219860428999D1;                                                   203P    232
100,0D0,0D0,0D0,1.2D0,0D0,-3.758281678282D-1,1.139628530823D0;       205P    233
120,201,205,-3.215637934252D0,5.161842548127D-2;                     207P    234
508,4,0,163,17,0,0,0,163,21,1,0,0,163,18,1,0,0,163,22,0,0;           209P    235
510,207,1,0,209;                                                     211P    236
110,0D0,1.2D0,0D0,0D0,2.2D0,0D0;                                     213P    237
124,-1.107126178940D-2,-1.778440481675D-3,-9.999371301796D-1,        215P    238
2.489328755929D-1,1.586025092072D-1,-9.873425160871D-1,0D0,          215P    239
1.2D0,-9.872804420404D-1,-1.585925378959D-1,1.121319259427D-2,       215P    240
2.219860428999D1;                                                    215P    241
100,0D0,0D0,0D0,1.2D0,0D0,-3.758281678282D-1,1.139628530823D0;       217P    242
120,213,217,-3.215637934252D0,5.161842548127D-2;                     219P    243
508,4,0,163,15,0,0,0,163,22,1,0,0,163,16,1,0,0,163,21,0,0;           221P    244
510,219,1,0,221;                                                     223P    245
110,0D0,0D0,0D0,0D0,1D0,0D0;                                         225P    246
110,0D0,-5.520004929160D-1,-2.1D1,0D0,9.055202513871D1,-2.1D1;       227P    247
120,225,227,-6.283185307180D-2,3.204424506662D0;                     229P    248
508,4,0,163,15,1,0,0,163,19,1,0,0,163,10,1,0,0,163,20,0,0;           231P    249
510,229,1,0,231;                                                     233P    250
128,1,1,1,1,0,0,1,0,0,-3.276D1,-3.276D1,3.276D1,3.276D1,             235P    251
-3.278698206945D1,-3.278698206945D1,3.278698206945D1,                235P    252
3.278698206945D1,1D0,1D0,1D0,1D0,3.278698206945D1,0D0,3.276D1,       235P    253
3.278698206945D1,0D0,-3.276D1,-3.278698206945D1,0D0,3.276D1,         235P    254
-3.278698206945D1,0D0,-3.276D1,-3.276D1,3.276D1,                     235P    255
-3.278698206945D1,3.278698206945D1;                                  235P    256
508,2,0,163,1,0,0,0,163,2,0,0;                                       237P    257
508,2,0,163,16,0,0,0,163,18,0,0;                                     239P    258
510,235,2,0,237,239;                                                 241P    259
110,0D0,0D0,0D0,0D0,1D0,0D0;                                         243P    260
110,0D0,-3.876D1,-3.15D1,0D0,7.6D-1,-3.15D1;                         245P    261
120,243,245,-6.283185307180D-2,3.204424506662D0;                     247P    262
508,4,0,163,26,1,0,0,163,27,0,0,0,163,1,1,0,0,163,28,1,0;            249P    263
510,247,1,0,249;                                                     251P    264
110,0D0,-3.8D1,0D0,0D0,-3.7D1,0D0;                                   253P    265
124,-5.275256448234D-4,1.103162085835D-2,-9.999390106691D-1,         255P    266
3.037162325908D-1,-9.988586089612D-1,-4.776483334095D-2,0D0,         255P    267
-3.8D1,-4.776192019573D-2,9.987976892430D-1,1.104422663967D-2,       255P    268
2.749832279340D1;                                                    255P    269
100,0D0,0D0,0D0,4D0,0D0,-3.816805734362D-1,3.981748352152D0;         257P    270
120,253,257,-3.215468957890D0,5.178740190272D-2;                     259P    271
508,4,0,163,25,1,0,0,163,30,1,0,0,163,26,0,0,0,163,29,0,0;           261P    272
510,259,1,0,261;                                                     263P    273
128,1,1,1,1,0,0,1,0,0,-2.86D1,-2.86D1,2.86D1,2.86D1,                 265P    274
-2.859999999946D1,-2.859999999946D1,2.859999999946D1,                265P    275
2.859999999946D1,1D0,1D0,1D0,1D0,2.859999999946D1,-4.2D1,2.86D1,     265P    276
2.859999999946D1,-4.2D1,-2.86D1,-2.859999999946D1,-4.2D1,2.86D1,     265P    277
-2.859999999946D1,-4.2D1,-2.86D1,-2.86D1,2.86D1,                     265P    278
-2.859999999946D1,2.859999999946D1;                                  265P    279
508,2,0,163,23,0,0,0,163,25,0,0;                                     267P    280
508,6,0,163,31,1,0,0,163,32,1,0,0,163,33,1,0,0,163,34,1,0,0,163,     269P    281
35,1,0,0,163,36,1,0;                                                 269P    282
510,265,2,0,267,269;                                                 271P    283
110,0D0,-3.8D1,0D0,0D0,-3.7D1,0D0;                                   273P    284
124,5.275256448234D-4,-1.103162085835D-2,9.999390106691D-1,          275P    285
-3.037162325908D-1,-9.988586089612D-1,-4.776483334095D-2,0D0,        275P    286
-3.8D1,4.776192019573D-2,-9.987976892430D-1,-1.104422663967D-2,      275P    287
-2.749832279340D1;                                                   275P    288
100,0D0,0D0,0D0,4D0,0D0,-3.816805734362D-1,3.981748352152D0;         277P    289
120,273,277,-3.215468957890D0,5.178740190272D-2;                     279P    290
508,4,0,163,23,1,0,0,163,29,1,0,0,163,24,0,0,0,163,30,0,0;           281P    291
510,279,1,0,281;                                                     283P    292
110,0D0,0D0,0D0,0D0,1D0,0D0;                                         285P    293
110,0D0,-3.876D1,-3.15D1,0D0,7.6D-1,-3.15D1;                         287P    294
120,285,287,3.078760800518D0,6.346017160251D0;                       289P    295
508,4,0,163,24,1,0,0,163,28,0,0,0,163,2,1,0,0,163,27,1,0;            291P    296
510,289,1,0,291;                                                     293P    297
110,0D0,-3.133333333333D1,0D0,0D0,-3.233333333333D1,0D0;             295P    298
110,-1.581971117311D1,-4.046684783763D1,0D0,-1.864073213810D1,       297P    299
-4.209556505116D1,0D0;                                               297P    300
120,295,297,-3.204424506662D0,6.283185307180D-2;                     299P    301
508,2,0,163,41,1,0,0,163,31,0,0;                                     301P    302
510,299,1,0,301;                                                     303P    303
110,0D0,-3.133333333333D1,0D0,0D0,-3.233333333333D1,0D0;             305P    304
110,-1.581971117311D1,-4.046684783763D1,0D0,-1.864073213810D1,       307P    305
-4.209556505116D1,0D0;                                               307P    306
120,305,307,-3.204424506662D0,6.283185307180D-2;                     309P    307
508,2,0,163,42,1,0,0,163,32,0,0;                                     311P    308
510,309,1,0,311;                                                     313P    309
110,0D0,-3.133333333333D1,0D0,0D0,-3.233333333333D1,0D0;             315P    310
110,-1.581971117311D1,-4.046684783763D1,0D0,-1.864073213810D1,       317P    311
-4.209556505116D1,0D0;                                               317P    312
120,315,317,-3.204424506662D0,6.283185307180D-2;                     319P    313
508,2,0,163,37,1,0,0,163,33,0,0;                                     321P    314
510,319,1,0,321;                                                     323P    315
128,1,1,1,1,0,0,1,0,0,-3.695041722814D-1,-3.695041722814D-1,         325P    316
1.884471278635D1,1.884471278635D1,-2.652D1,-2.652D1,5.2D-1,          325P    317
5.2D-1,1D0,1D0,1D0,1D0,1.865996070021D1,-1.548D1,-3.2D-1,            325P    318
9.052852220893D0,-1.548D1,1.632D1,1.865996070021D1,-4.252D1,         325P    319
-3.2D-1,9.052852220893D0,-4.252D1,1.632D1,-3.695041722814D-1,        325P    320
1.884471278635D1,-2.652D1,5.2D-1;                                    325P    321
508,4,0,163,41,0,0,0,163,47,1,0,0,163,7,1,0,0,163,48,0,0;            327P    322
510,325,1,0,327;                                                     329P    323
128,1,1,1,1,0,0,1,0,0,-3.695041722814D-1,-3.695041722814D-1,         331P    324
1.884471278635D1,1.884471278635D1,-2.652D1,-2.652D1,5.2D-1,          331P    325
5.2D-1,1D0,1D0,1D0,1D0,9.052852220893D0,-1.548D1,-1.632D1,           331P    326
1.865996070021D1,-1.548D1,3.2D-1,9.052852220893D0,-4.252D1,          331P    327
-1.632D1,1.865996070021D1,-4.252D1,3.2D-1,-3.695041722814D-1,        331P    328
1.884471278635D1,-2.652D1,5.2D-1;                                    331P    329
508,4,0,163,40,0,0,0,163,46,1,0,0,163,6,1,0,0,163,47,0,0;            333P    330
510,331,1,0,333;                                                     335P    331
110,0D0,-3.133333333333D1,0D0,0D0,-3.233333333333D1,0D0;             337P    332
110,-1.581971117311D1,-4.046684783763D1,0D0,-1.864073213810D1,       339P    333
-4.209556505116D1,0D0;                                               339P    334
120,337,339,-6.346017160251D0,-3.078760800518D0;                     341P    335
508,2,0,163,38,1,0,0,163,34,0,0;                                     343P    336
510,341,1,0,343;                                                     345P    337
110,0D0,-3.133333333333D1,0D0,0D0,-3.233333333333D1,0D0;             347P    338
110,-1.581971117311D1,-4.046684783763D1,0D0,-1.864073213810D1,       349P    339
-4.209556505116D1,0D0;                                               349P    340
120,347,349,-6.346017160251D0,-3.078760800518D0;                     351P    341
508,2,0,163,39,1,0,0,163,35,0,0;                                     353P    342
510,351,1,0,353;                                                     355P    343
110,0D0,-3.133333333333D1,0D0,0D0,-3.233333333333D1,0D0;             357P    344
110,-1.581971117311D1,-4.046684783763D1,0D0,-1.864073213810D1,       359P    345
-4.209556505116D1,0D0;                                               359P    346
120,357,359,-6.346017160251D0,-3.078760800518D0;                     361P    347
508,2,0,163,40,1,0,0,163,36,0,0;                                     363P    348
510,361,1,0,363;                                                     365P    349
128,1,1,1,1,0,0,1,0,0,-3.695041722814D-1,-3.695041722814D-1,         367P    350
1.884471278635D1,1.884471278635D1,-2.652D1,-2.652D1,5.2D-1,          367P    351
5.2D-1,1D0,1D0,1D0,1D0,-1.865996070021D1,-1.548D1,3.2D-1,            367P    352
-9.052852220893D0,-1.548D1,-1.632D1,-1.865996070021D1,-4.252D1,      367P    353
3.2D-1,-9.052852220893D0,-4.252D1,-1.632D1,-3.695041722814D-1,       367P    354
1.884471278635D1,-2.652D1,5.2D-1;                                    367P    355
508,4,0,163,38,0,0,0,163,44,1,0,0,163,4,1,0,0,163,45,0,0;            369P    356
510,367,1,0,369;                                                     371P    357
128,1,1,1,1,0,0,1,0,0,-3.695041722814D-1,-3.695041722814D-1,         373P    358
1.884471278635D1,1.884471278635D1,-2.652D1,-2.652D1,5.2D-1,          373P    359
5.2D-1,1D0,1D0,1D0,1D0,-9.052852220893D0,-1.548D1,1.632D1,           373P    360
-1.865996070021D1,-1.548D1,-3.2D-1,-9.052852220893D0,-4.252D1,       373P    361
1.632D1,-1.865996070021D1,-4.252D1,-3.2D-1,-3.695041722814D-1,       373P    362
1.884471278635D1,-2.652D1,5.2D-1;                                    373P    363
508,4,0,163,37,0,0,0,163,43,1,0,0,163,3,1,0,0,163,44,0,0;            375P    364
510,373,1,0,375;                                                     377P    365
128,1,1,1,1,0,0,1,0,0,-3.695041722814D-1,-3.695041722814D-1,         379P    366
1.884471278635D1,1.884471278635D1,-2.652D1,-2.652D1,5.2D-1,          379P    367
5.2D-1,1D0,1D0,1D0,1D0,9.607108479315D0,-1.548D1,1.6D1,              379P    368
-9.607108479315D0,-1.548D1,1.6D1,9.607108479315D0,-4.252D1,          379P    369
1.6D1,-9.607108479315D0,-4.252D1,1.6D1,-3.695041722814D-1,           379P    370
1.884471278635D1,-2.652D1,5.2D-1;                                    379P    371
508,4,0,163,42,0,0,0,163,48,1,0,0,163,8,1,0,0,163,43,0,0;            381P    372
510,379,1,0,381;                                                     383P    373
128,1,1,1,1,0,0,1,0,0,-1.921421695863D1,-1.921421695863D1,           385P    374
1.921421695863D1,1.921421695863D1,-1.664D1,-1.664D1,1.664D1,         385P    375
1.664D1,1D0,1D0,1D0,1D0,-1.921421695863D1,-1.6D1,-1.664D1,           385P    376
1.921421695863D1,-1.6D1,-1.664D1,-1.921421695863D1,-1.6D1,           385P    377
1.664D1,1.921421695863D1,-1.6D1,1.664D1,-1.921421695863D1,           385P    378
1.921421695863D1,-1.664D1,1.664D1;                                   385P    379
508,6,0,163,3,0,0,0,163,8,0,0,0,163,7,0,0,0,163,6,0,0,0,163,5,0,     387P    380
0,0,163,4,0,0;                                                       387P    381
510,385,1,0,387;                                                     389P    382
128,1,1,1,1,0,0,1,0,0,-3.695041722814D-1,-3.695041722814D-1,         391P    383
1.884471278635D1,1.884471278635D1,-2.652D1,-2.652D1,5.2D-1,          391P    384
5.2D-1,1D0,1D0,1D0,1D0,-9.607108479315D0,-1.548D1,-1.6D1,            391P    385
9.607108479315D0,-1.548D1,-1.6D1,-9.607108479315D0,-4.252D1,         391P    386
-1.6D1,9.607108479315D0,-4.252D1,-1.6D1,-3.695041722814D-1,          391P    387
1.884471278635D1,-2.652D1,5.2D-1;                                    391P    388
508,4,0,163,39,0,0,0,163,45,1,0,0,163,5,1,0,0,163,46,0,0;            393P    389
510,391,1,0,393;                                                     395P    390
514,26,169,1,179,1,189,1,199,1,211,0,223,0,233,1,241,1,251,1,        397P    391
263,1,271,0,283,1,293,1,303,0,313,0,323,0,329,0,335,0,345,0,355,     397P    392
0,365,0,371,0,377,0,383,0,389,1,395,0;                               397P    393
124,-1D0,0D0,0D0,0D0,0D0,0D0,1D0,9D1,0D0,1D0,0D0,0D0;                399P    394
100,0D0,0D0,0D0,1.9376D1,0D0,-1.9376D1,0D0;                          401P    395
110,1.9376D1,9D1,0D0,1.9376D1,0D0,0D0;                               403P    396
124,1D0,0D0,0D0,0D0,0D0,0D0,-1D0,0D0,0D0,1D0,0D0,0D0;                405P    397
100,0D0,0D0,0D0,1.9376D1,0D0,-1.9376D1,0D0;                          407P    398
124,1D0,0D0,0D0,0D0,0D0,0D0,1D0,9D1,0D0,-1D0,0D0,0D0;                409P    399
100,0D0,0D0,0D0,1.9376D1,0D0,-1.9376D1,0D0;                          411P    400
110,-1.9376D1,9D1,0D0,-1.9376D1,0D0,0D0;                             413P    401
124,-1D0,0D0,0D0,0D0,0D0,0D0,-1D0,0D0,0D0,-1D0,0D0,0D0;              415P    402
100,0D0,0D0,0D0,1.9376D1,0D0,-1.9376D1,0D0;                          417P    403
502,4,1.9376D1,9D1,0D0,-1.9376D1,9D1,0D0,1.9376D1,0D0,0D0,           419P    404
-1.9376D1,0D0,0D0;                                                   419P    405
504,6,401,419,1,419,2,411,419,2,419,1,407,419,3,419,4,417,419,4,     421P    406
419,3,403,419,1,419,3,413,419,2,419,4;                               421P    407
110,0D0,9D1,0D0,0D0,8.9D1,0D0;                                       423P    408
110,1.9376D1,9.18D1,0D0,1.9376D1,-1.8D0,0D0;                         425P    409
120,423,425,-6.283185307180D-2,3.204424506662D0;                     427P    410
508,4,0,421,1,0,0,0,421,5,1,0,0,421,3,1,0,0,421,6,0,0;               429P    411
510,427,1,0,429;                                                     431P    412
110,0D0,9D1,0D0,0D0,8.9D1,0D0;                                       433P    413
110,1.9376D1,9.18D1,0D0,1.9376D1,-1.8D0,0D0;                         435P    414
120,433,435,3.078760800518D0,6.346017160251D0;                       437P    415
508,4,0,421,2,0,0,0,421,6,1,0,0,421,4,1,0,0,421,5,0,0;               439P    416
510,437,1,0,439;                                                     441P    417
514,2,431,1,441,1;                                                   443P    418
186,397,1,0;                                                         445P    419
S      1G      6D    446P    419                                        T      1
