 PTC IGES file: screw-m24x54-csn_02_1143.igs                            S      1
1H,,1H;,24HSCREW-M24X54-CSN_02_1143,28Hscrew-m24x54-csn_02_1143.igs,    G      1
49HPro/ENGINEER by Parametric Technology Corporation,7H2007160,32,38,7, G      2
38,15,24HSCREW-M24X54-CSN_02_1143,1.,2,2HMM,32768,0.5,                  G      3
15H20111214.100911,0.00931528,93.1565,13HVladimir Zima,7HUnknown,10,0,  G      4
15H20111214.100911;                                                     G      5
     314       1       1       1       0       0       0       001000200D      1
     314       0       4       1       0                   COLOR       1D      2
     314       2       1       1       0       0       0       001000200D      3
     314       0       1       1       0                   COLOR       2D      4
     314       3       1       1       0       0       0       001000200D      5
     314       0       1       1       0                   COLOR       3D      6
     314       4       1       1       0       0       0       001000200D      7
     314       0       1       1       0                   COLOR       4D      8
     314       5       1       1       0       0       0       001000200D      9
     314       0       8       1       0                   COLOR       5D     10
     314       6       1       1       0       0       0       001000200D     11
     314       0       8       1       0                   COLOR       6D     12
     314       7       1       1       0       0       0       001000200D     13
     314       0       5       1       0                   COLOR       7D     14
     314       8       1       1       0       0       0       001000200D     15
     314       0       8       1       0                   COLOR       8D     16
     124       9       1       1       0       0       0       001000000D     17
     124       0       0       2       0                   XFORM       1D     18
     100      11       1       1       0       0      17       001010000D     19
     100       0       0       2       0                     ARC       1D     20
     124      13       1       1       0       0       0       001000000D     21
     124       0       0       2       0                   XFORM       2D     22
     100      15       1       1       0       0      21       001010000D     23
     100       0       0       2       0                     ARC       2D     24
     110      17       1       1       0       0       0       001010000D     25
     110       0       0       2       0                    LINE       1D     26
     110      19       1       1       0       0       0       001010000D     27
     110       0       0       2       0                    LINE       2D     28
     124      21       1       1       0       0       0       001000000D     29
     124       0       0       1       0                   XFORM       3D     30
     100      22       1       1       0       0      29       001010000D     31
     100       0       0       1       0                     ARC       3D     32
     110      23       1       1       0       0       0       001010000D     33
     110       0       0       2       0                    LINE       3D     34
     124      25       1       1       0       0       0       001000000D     35
     124       0       0       2       0                   XFORM       4D     36
     100      27       1       1       0       0      35       001010000D     37
     100       0       0       1       0                     ARC       4D     38
     124      28       1       1       0       0       0       001000000D     39
     124       0       0       2       0                   XFORM       5D     40
     100      30       1       1       0       0      39       001010000D     41
     100       0       0       1       0                     ARC       5D     42
     124      31       1       1       0       0       0       001000000D     43
     124       0       0       2       0                   XFORM       6D     44
     100      33       1       1       0       0      43       001010000D     45
     100       0       0       1       0                     ARC       6D     46
     124      34       1       1       0       0       0       001000000D     47
     124       0       0       1       0                   XFORM       7D     48
     100      35       1       1       0       0      47       001010000D     49
     100       0       0       1       0                     ARC       7D     50
     110      36       1       1       0       0       0       001010000D     51
     110       0       0       2       0                    LINE       4D     52
     124      38       1       1       0       0       0       001000000D     53
     124       0       0       2       0                   XFORM       8D     54
     100      40       1       1       0       0      53       001010000D     55
     100       0       0       1       0                     ARC       8D     56
     124      41       1       1       0       0       0       001000000D     57
     124       0       0       1       0                   XFORM       9D     58
     100      42       1       1       0       0      57       001010000D     59
     100       0       0       1       0                     ARC       9D     60
     124      43       1       1       0       0       0       001000000D     61
     124       0       0       1       0                   XFORM      10D     62
     100      44       1       1       0       0      61       001010000D     63
     100       0       0       1       0                     ARC      10D     64
     124      45       1       1       0       0       0       001000000D     65
     124       0       0       2       0                   XFORM      11D     66
     100      47       1       1       0       0      65       001010000D     67
     100       0       0       1       0                     ARC      11D     68
     124      48       1       1       0       0       0       001000000D     69
     124       0       0       2       0                   XFORM      12D     70
     100      50       1       1       0       0      69       001010000D     71
     100       0       0       1       0                     ARC      12D     72
     124      51       1       1       0       0       0       001000000D     73
     124       0       0       1       0                   XFORM      13D     74
     100      52       1       1       0       0      73       001010000D     75
     100       0       0       1       0                     ARC      13D     76
     110      53       1       1       0       0       0       001010000D     77
     110       0       0       1       0                    LINE       5D     78
     124      54       1       1       0       0       0       001000000D     79
     124       0       0       1       0                   XFORM      14D     80
     100      55       1       1       0       0      79       001010000D     81
     100       0       0       1       0                     ARC      14D     82
     124      56       1       1       0       0       0       001000000D     83
     124       0       0       1       0                   XFORM      15D     84
     100      57       1       1       0       0      83       001010000D     85
     100       0       0       1       0                     ARC      15D     86
     124      58       1       1       0       0       0       001000000D     87
     124       0       0       1       0                   XFORM      16D     88
     100      59       1       1       0       0      87       001010000D     89
     100       0       0       1       0                     ARC      16D     90
     124      60       1       1       0       0       0       001000000D     91
     124       0       0       1       0                   XFORM      17D     92
     100      61       1       1       0       0      91       001010000D     93
     100       0       0       1       0                     ARC      17D     94
     124      62       1       1       0       0       0       001000000D     95
     124       0       0       2       0                   XFORM      18D     96
     100      64       1       1       0       0      95       001010000D     97
     100       0       0       1       0                     ARC      18D     98
     124      65       1       1       0       0       0       001000000D     99
     124       0       0       2       0                   XFORM      19D    100
     100      67       1       1       0       0      99       001010000D    101
     100       0       0       1       0                     ARC      19D    102
     124      68       1       1       0       0       0       001000000D    103
     124       0       0       1       0                   XFORM      20D    104
     100      69       1       1       0       0     103       001010000D    105
     100       0       0       1       0                     ARC      20D    106
     124      70       1       1       0       0       0       001000000D    107
     124       0       0       2       0                   XFORM      21D    108
     100      72       1       1       0       0     107       001010000D    109
     100       0       0       1       0                     ARC      21D    110
     124      73       1       1       0       0       0       001000000D    111
     124       0       0       2       0                   XFORM      22D    112
     100      75       1       1       0       0     111       001010000D    113
     100       0       0       1       0                     ARC      22D    114
     124      76       1       1       0       0       0       001000000D    115
     124       0       0       1       0                   XFORM      23D    116
     100      77       1       1       0       0     115       001010000D    117
     100       0       0       1       0                     ARC      23D    118
     124      78       1       1       0       0       0       001000000D    119
     124       0       0       1       0                   XFORM      24D    120
     100      79       1       1       0       0     119       001010000D    121
     100       0       0       1       0                     ARC      24D    122
     110      80       1       1       0       0       0       001010000D    123
     110       0       0       1       0                    LINE       6D    124
     126      81       1       1       0       0       0       001010000D    125
     126       0       0      13       0                B_SPLINE       1D    126
     110      94       1       1       0       0       0       001010000D    127
     110       0       0       1       0                    LINE       7D    128
     126      95       1       1       0       0       0       001010000D    129
     126       0       0      13       0                B_SPLINE       2D    130
     110     108       1       1       0       0       0       001010000D    131
     110       0       0       2       0                    LINE       8D    132
     126     110       1       1       0       0       0       001010000D    133
     126       0       0      13       0                B_SPLINE       3D    134
     110     123       1       1       0       0       0       001010000D    135
     110       0       0       1       0                    LINE       9D    136
     126     124       1       1       0       0       0       001010000D    137
     126       0       0      13       0                B_SPLINE       4D    138
     110     137       1       1       0       0       0       001010000D    139
     110       0       0       2       0                    LINE      10D    140
     126     139       1       1       0       0       0       001010000D    141
     126       0       0      11       0                B_SPLINE       5D    142
     110     150       1       1       0       0       0       001010000D    143
     110       0       0       1       0                    LINE      11D    144
     110     151       1       1       0       0       0       001010000D    145
     110       0       0       1       0                    LINE      12D    146
     110     152       1       1       0       0       0       001010000D    147
     110       0       0       2       0                    LINE      13D    148
     110     154       1       1       0       0       0       001010000D    149
     110       0       0       1       0                    LINE      14D    150
     110     155       1       1       0       0       0       001010000D    151
     110       0       0       1       0                    LINE      15D    152
     110     156       1       1       0       0       0       001010000D    153
     110       0       0       2       0                    LINE      16D    154
     110     158       1       1       0       0       0       001010000D    155
     110       0       0       2       0                    LINE      17D    156
     126     160       1       1       0       0       0       001010000D    157
     126       0       0      11       0                B_SPLINE       6D    158
     110     171       1       1       0       0       0       001010000D    159
     110       0       0       2       0                    LINE      18D    160
     502     173       1       1       0       0       0       001010000D    161
     502       0       0      13       1                  VERTEX       1D    162
     504     186       1       1       0       0       0       000010001D    163
     504       0       0      14       1                    EDGE       1D    164
     128     200       1       1       0       0       0       001010000D    165
     128       0       0       6       0                  SPLSRF       1D    166
     508     206       1       1       0       0       0       001010000D    167
     508       0       0       1       1                EDGELOOP       1D    168
     510     207       1       1       0       0       0       000010000D    169
     510       0       0       1       1                    FACE       1D    170
     110     208       1       1       0       0       0       001010000D    171
     110       0       0       1       0                    LINE      19D    172
     110     209       1       1       0       0       0       001010000D    173
     110       0       0       2       0                    LINE      20D    174
     120     211       1       1       0       0       0       001010000D    175
     120       0       0       1       0                    SREV       1D    176
     508     212       1       1       0       0       0       001010000D    177
     508       0       0       1       1                EDGELOOP       2D    178
     510     213       1       1       0       0       0       000010000D    179
     510       0       0       1       1                    FACE       2D    180
     110     214       1       1       0       0       0       001010000D    181
     110       0       0       2       0                    LINE      21D    182
     110     216       1       1       0       0       0       001010000D    183
     110       0       0       2       0                    LINE      22D    184
     120     218       1       1       0       0       0       001010000D    185
     120       0       0       1       0                    SREV       2D    186
     508     219       1       1       0       0       0       001010000D    187
     508       0       0       1       1                EDGELOOP       3D    188
     510     220       1       1       0       0       0       000010000D    189
     510       0       0       1       1                    FACE       3D    190
     110     221       1       1       0       0       0       001010000D    191
     110       0       0       1       0                    LINE      23D    192
     110     222       1       1       0       0       0       001010000D    193
     110       0       0       1       0                    LINE      24D    194
     120     223       1       1       0       0       0       001010000D    195
     120       0       0       1       0                    SREV       3D    196
     508     224       1       1       0       0       0       001010000D    197
     508       0       0       1       1                EDGELOOP       4D    198
     510     225       1       1       0       0       0       000010000D    199
     510       0       0       1       1                    FACE       4D    200
     110     226       1       1       0       0       0       001010000D    201
     110       0       0       1       0                    LINE      25D    202
     124     227       1       1       0       0       0       001000000D    203
     124       0       0       4       0                   XFORM      25D    204
     100     231       1       1       0       0     203       001010000D    205
     100       0       0       1       0                     ARC      25D    206
     120     232       1       1       0       0       0       001010000D    207
     120       0       0       1       0                    SREV       4D    208
     508     233       1       1       0       0       0       001010000D    209
     508       0       0       1       1                EDGELOOP       5D    210
     510     234       1       1       0       0       0       000010000D    211
     510       0       0       1       1                    FACE       5D    212
     110     235       1       1       0       0       0       001010000D    213
     110       0       0       1       0                    LINE      26D    214
     124     236       1       1       0       0       0       001000000D    215
     124       0       0       4       0                   XFORM      26D    216
     100     240       1       1       0       0     215       001010000D    217
     100       0       0       1       0                     ARC      26D    218
     120     241       1       1       0       0       0       001010000D    219
     120       0       0       1       0                    SREV       5D    220
     508     242       1       1       0       0       0       001010000D    221
     508       0       0       1       1                EDGELOOP       6D    222
     510     243       1       1       0       0       0       000010000D    223
     510       0       0       1       1                    FACE       6D    224
     110     244       1       1       0       0       0       001010000D    225
     110       0       0       1       0                    LINE      27D    226
     110     245       1       1       0       0       0       001010000D    227
     110       0       0       1       0                    LINE      28D    228
     120     246       1       1       0       0       0       001010000D    229
     120       0       0       1       0                    SREV       6D    230
     508     247       1       1       0       0       0       001010000D    231
     508       0       0       1       1                EDGELOOP       7D    232
     510     248       1       1       0       0       0       000010000D    233
     510       0       0       1       1                    FACE       7D    234
     128     249       1       1       0       0       0       001010000D    235
     128       0       0       6       0                  SPLSRF       2D    236
     508     255       1       1       0       0       0       001010000D    237
     508       0       0       1       1                EDGELOOP       8D    238
     508     256       1       1       0       0       0       001010000D    239
     508       0       0       1       1                EDGELOOP       9D    240
     510     257       1       1       0       0       0       000010000D    241
     510       0       0       1       1                    FACE       8D    242
     110     258       1       1       0       0       0       001010000D    243
     110       0       0       1       0                    LINE      29D    244
     110     259       1       1       0       0       0       001010000D    245
     110       0       0       1       0                    LINE      30D    246
     120     260       1       1       0       0       0       001010000D    247
     120       0       0       1       0                    SREV       7D    248
     508     261       1       1       0       0       0       001010000D    249
     508       0       0       1       1                EDGELOOP      10D    250
     510     262       1       1       0       0       0       000010000D    251
     510       0       0       1       1                    FACE       9D    252
     110     263       1       1       0       0       0       001010000D    253
     110       0       0       1       0                    LINE      31D    254
     124     264       1       1       0       0       0       001000000D    255
     124       0       0       4       0                   XFORM      27D    256
     100     268       1       1       0       0     255       001010000D    257
     100       0       0       1       0                     ARC      27D    258
     120     269       1       1       0       0       0       001010000D    259
     120       0       0       1       0                    SREV       8D    260
     508     270       1       1       0       0       0       001010000D    261
     508       0       0       1       1                EDGELOOP      11D    262
     510     271       1       1       0       0       0       000010000D    263
     510       0       0       1       1                    FACE      10D    264
     128     272       1       1       0       0       0       001010000D    265
     128       0       0       6       0                  SPLSRF       3D    266
     508     278       1       1       0       0       0       001010000D    267
     508       0       0       1       1                EDGELOOP      12D    268
     508     279       1       1       0       0       0       001010000D    269
     508       0       0       2       1                EDGELOOP      13D    270
     510     281       1       1       0       0       0       000010000D    271
     510       0       0       1       1                    FACE      11D    272
     110     282       1       1       0       0       0       001010000D    273
     110       0       0       1       0                    LINE      32D    274
     124     283       1       1       0       0       0       001000000D    275
     124       0       0       4       0                   XFORM      28D    276
     100     287       1       1       0       0     275       001010000D    277
     100       0       0       1       0                     ARC      28D    278
     120     288       1       1       0       0       0       001010000D    279
     120       0       0       1       0                    SREV       9D    280
     508     289       1       1       0       0       0       001010000D    281
     508       0       0       1       1                EDGELOOP      14D    282
     510     290       1       1       0       0       0       000010000D    283
     510       0       0       1       1                    FACE      12D    284
     110     291       1       1       0       0       0       001010000D    285
     110       0       0       1       0                    LINE      33D    286
     110     292       1       1       0       0       0       001010000D    287
     110       0       0       1       0                    LINE      34D    288
     120     293       1       1       0       0       0       001010000D    289
     120       0       0       1       0                    SREV      10D    290
     508     294       1       1       0       0       0       001010000D    291
     508       0       0       1       1                EDGELOOP      15D    292
     510     295       1       1       0       0       0       000010000D    293
     510       0       0       1       1                    FACE      13D    294
     110     296       1       1       0       0       0       001010000D    295
     110       0       0       1       0                    LINE      35D    296
     110     297       1       1       0       0       0       001010000D    297
     110       0       0       2       0                    LINE      36D    298
     120     299       1       1       0       0       0       001010000D    299
     120       0       0       1       0                    SREV      11D    300
     508     300       1       1       0       0       0       001010000D    301
     508       0       0       1       1                EDGELOOP      16D    302
     510     301       1       1       0       0       0       000010000D    303
     510       0       0       1       1                    FACE      14D    304
     110     302       1       1       0       0       0       001010000D    305
     110       0       0       1       0                    LINE      37D    306
     110     303       1       1       0       0       0       001010000D    307
     110       0       0       2       0                    LINE      38D    308
     120     305       1       1       0       0       0       001010000D    309
     120       0       0       1       0                    SREV      12D    310
     508     306       1       1       0       0       0       001010000D    311
     508       0       0       1       1                EDGELOOP      17D    312
     510     307       1       1       0       0       0       000010000D    313
     510       0       0       1       1                    FACE      15D    314
     110     308       1       1       0       0       0       001010000D    315
     110       0       0       1       0                    LINE      39D    316
     110     309       1       1       0       0       0       001010000D    317
     110       0       0       2       0                    LINE      40D    318
     120     311       1       1       0       0       0       001010000D    319
     120       0       0       1       0                    SREV      13D    320
     508     312       1       1       0       0       0       001010000D    321
     508       0       0       1       1                EDGELOOP      18D    322
     510     313       1       1       0       0       0       000010000D    323
     510       0       0       1       1                    FACE      16D    324
     128     314       1       1       0       0       0       001010000D    325
     128       0       0       6       0                  SPLSRF       4D    326
     508     320       1       1       0       0       0       001010000D    327
     508       0       0       1       1                EDGELOOP      19D    328
     510     321       1       1       0       0       0       000010000D    329
     510       0       0       1       1                    FACE      17D    330
     128     322       1       1       0       0       0       001010000D    331
     128       0       0       6       0                  SPLSRF       5D    332
     508     328       1       1       0       0       0       001010000D    333
     508       0       0       1       1                EDGELOOP      20D    334
     510     329       1       1       0       0       0       000010000D    335
     510       0       0       1       1                    FACE      18D    336
     110     330       1       1       0       0       0       001010000D    337
     110       0       0       1       0                    LINE      41D    338
     110     331       1       1       0       0       0       001010000D    339
     110       0       0       2       0                    LINE      42D    340
     120     333       1       1       0       0       0       001010000D    341
     120       0       0       1       0                    SREV      14D    342
     508     334       1       1       0       0       0       001010000D    343
     508       0       0       1       1                EDGELOOP      21D    344
     510     335       1       1       0       0       0       000010000D    345
     510       0       0       1       1                    FACE      19D    346
     110     336       1       1       0       0       0       001010000D    347
     110       0       0       1       0                    LINE      43D    348
     110     337       1       1       0       0       0       001010000D    349
     110       0       0       2       0                    LINE      44D    350
     120     339       1       1       0       0       0       001010000D    351
     120       0       0       1       0                    SREV      15D    352
     508     340       1       1       0       0       0       001010000D    353
     508       0       0       1       1                EDGELOOP      22D    354
     510     341       1       1       0       0       0       000010000D    355
     510       0       0       1       1                    FACE      20D    356
     110     342       1       1       0       0       0       001010000D    357
     110       0       0       1       0                    LINE      45D    358
     110     343       1       1       0       0       0       001010000D    359
     110       0       0       2       0                    LINE      46D    360
     120     345       1       1       0       0       0       001010000D    361
     120       0       0       1       0                    SREV      16D    362
     508     346       1       1       0       0       0       001010000D    363
     508       0       0       1       1                EDGELOOP      23D    364
     510     347       1       1       0       0       0       000010000D    365
     510       0       0       1       1                    FACE      21D    366
     128     348       1       1       0       0       0       001010000D    367
     128       0       0       6       0                  SPLSRF       6D    368
     508     354       1       1       0       0       0       001010000D    369
     508       0       0       1       1                EDGELOOP      24D    370
     510     355       1       1       0       0       0       000010000D    371
     510       0       0       1       1                    FACE      22D    372
     128     356       1       1       0       0       0       001010000D    373
     128       0       0       6       0                  SPLSRF       7D    374
     508     362       1       1       0       0       0       001010000D    375
     508       0       0       1       1                EDGELOOP      25D    376
     510     363       1       1       0       0       0       000010000D    377
     510       0       0       1       1                    FACE      23D    378
     128     364       1       1       0       0       0       001010000D    379
     128       0       0       6       0                  SPLSRF       8D    380
     508     370       1       1       0       0       0       001010000D    381
     508       0       0       1       1                EDGELOOP      26D    382
     510     371       1       1       0       0       0       000010000D    383
     510       0       0       1       1                    FACE      24D    384
     128     372       1       1       0       0       0       001010000D    385
     128       0       0       6       0                  SPLSRF       9D    386
     508     378       1       1       0       0       0       001010000D    387
     508       0       0       2       1                EDGELOOP      27D    388
     510     380       1       1       0       0       0       000010000D    389
     510       0       0       1       1                    FACE      25D    390
     128     381       1       1       0       0       0       001010000D    391
     128       0       0       6       0                  SPLSRF      10D    392
     508     387       1       1       0       0       0       001010000D    393
     508       0       0       1       1                EDGELOOP      28D    394
     510     388       1       1       0       0       0       000010000D    395
     510       0       0       1       1                    FACE      26D    396
     514     389       1       1       0       0       0       000010000D    397
     514       0       0       3       1                   SHELL       1D    398
     124     392       1       1       0       0       0       001000000D    399
     124       0       0       1       0                   XFORM      29D    400
     100     393       1       1       0       0     399       001010000D    401
     100       0       0       1       0                     ARC      29D    402
     110     394       1       1       0       0       0       001010000D    403
     110       0       0       1       0                    LINE      47D    404
     124     395       1       1       0       0       0       001000000D    405
     124       0       0       1       0                   XFORM      30D    406
     100     396       1       1       0       0     405       001010000D    407
     100       0       0       1       0                     ARC      30D    408
     124     397       1       1       0       0       0       001000000D    409
     124       0       0       1       0                   XFORM      31D    410
     100     398       1       1       0       0     409       001010000D    411
     100       0       0       1       0                     ARC      31D    412
     110     399       1       1       0       0       0       001010000D    413
     110       0       0       1       0                    LINE      48D    414
     124     400       1       1       0       0       0       001000000D    415
     124       0       0       1       0                   XFORM      32D    416
     100     401       1       1       0       0     415       001010000D    417
     100       0       0       1       0                     ARC      32D    418
     502     402       1       1       0       0       0       001010000D    419
     502       0       0       2       1                  VERTEX       2D    420
     504     404       1       1       0       0       0       000010001D    421
     504       0       0       2       1                    EDGE       2D    422
     110     406       1       1       0       0       0       001010000D    423
     110       0       0       1       0                    LINE      49D    424
     110     407       1       1       0       0       0       001010000D    425
     110       0       0       1       0                    LINE      50D    426
     120     408       1       1       0       0       0       001010000D    427
     120       0       0       1       0                    SREV      17D    428
     508     409       1       1       0       0       0       001010000D    429
     508       0       0       1       1                EDGELOOP      29D    430
     510     410       1       1       0       0       0       000010000D    431
     510       0       0       1       1                    FACE      27D    432
     110     411       1       1       0       0       0       001010000D    433
     110       0       0       1       0                    LINE      51D    434
     110     412       1       1       0       0       0       001010000D    435
     110       0       0       1       0                    LINE      52D    436
     120     413       1       1       0       0       0       001010000D    437
     120       0       0       1       0                    SREV      18D    438
     508     414       1       1       0       0       0       001010000D    439
     508       0       0       1       1                EDGELOOP      30D    440
     510     415       1       1       0       0       0       000010000D    441
     510       0       0       1       1                    FACE      28D    442
     514     416       1       1       0       0       0       000000000D    443
     514       0       0       1       1                   SHELL       2D    444
     186     417       1       1       0       0       0       000000000D    445
     186       0       0       1       0                    MSBR       1D    446
314,1.1D0,1.2D0,1D2;                                                   1P      1
314,1.1D1,1.1D1,1.1D1;                                                 3P      2
314,3.92D1,1.2D0,1.2D0;                                                5P      3
314,4.1D1,0D0,2.2D1;                                                   7P      4
314,8.784D1,9.49D1,1D2;                                                9P      5
314,9.6D1,9.6D1,9.6D1;                                                11P      6
314,9.8D1,6.27D1,0D0;                                                 13P      7
314,1D2,1D2,9.49D1;                                                   15P      8
124,0D0,-1D0,0D0,0D0,0D0,0D0,1D0,5.399998275067D1,-1D0,0D0,0D0,       17P      9
6.927791673661D-14;                                                   17P     10
100,0D0,0D0,0D0,1.139997596282D1,0D0,-1.139997596282D1,               19P     11
-1.379177065317D-14;                                                  19P     12
124,0D0,1D0,0D0,0D0,0D0,0D0,1D0,5.399998275067D1,1D0,0D0,0D0,         21P     13
-5.329070518201D-14;                                                  21P     14
100,0D0,0D0,0D0,1.139997596282D1,0D0,-1.139997596282D1,               23P     15
-1.379177065317D-14;                                                  23P     16
110,-6.969998007500D-9,5.399998623888D1,-1.139998623677D1,            25P     17
-5.502628871928D-9,5.339998913596D1,-1.199998913429D1;                25P     18
110,6.969995627172D-9,5.399998623888D1,1.139998623677D1,              27P     19
5.502627753490D-9,5.339998913596D1,1.199998913429D1;                  27P     20
124,0D0,1D0,0D0,0D0,0D0,0D0,-1D0,8D-1,-1D0,0D0,0D0,0D0;               29P     21
100,0D0,0D0,0D0,1.2D1,0D0,-1.2D1,0D0;                                 31P     22
110,-1.440784340792D-13,8D-1,1.2D1,5.502627753490D-9,                 33P     23
5.339998913596D1,1.199998913429D1;                                    33P     24
124,0D0,1D0,0D0,0D0,0D0,0D0,1D0,5.339999275656D1,1D0,0D0,0D0,         35P     25
0D0;                                                                  35P     26
100,0D0,0D0,0D0,1.2D1,0D0,-1.2D1,0D0;                                 37P     27
124,2.941657334388D-13,0D0,1D0,-3.765293632441D-12,0D0,-1D0,0D0,      39P     28
8D-1,1D0,0D0,-2.941657334388D-13,-1.28D1;                             39P     29
100,0D0,0D0,0D0,8D-1,0D0,4.623426207856D-14,8D-1;                     41P     30
124,-2.942941029760D-13,0D0,-1D0,3.766931211402D-12,0D0,-1D0,         43P     31
0D0,8D-1,-1D0,0D0,2.942941029760D-13,1.28D1;                          43P     32
100,0D0,0D0,0D0,8D-1,0D0,4.801061891796D-14,8D-1;                     45P     33
124,0D0,-1D0,0D0,0D0,0D0,0D0,-1D0,8D-1,1D0,0D0,0D0,0D0;               47P     34
100,0D0,0D0,0D0,1.2D1,0D0,-1.2D1,0D0;                                 49P     35
110,1.497915162180D-13,8D-1,-1.2D1,-5.502628871928D-9,                51P     36
5.339998913596D1,-1.199998913429D1;                                   51P     37
124,0D0,-1D0,0D0,0D0,0D0,0D0,1D0,5.339999275656D1,-1D0,0D0,0D0,       53P     38
0D0;                                                                  53P     39
100,0D0,0D0,0D0,1.2D1,0D0,-1.2D1,0D0;                                 55P     40
124,0D0,-1D0,0D0,0D0,0D0,0D0,1D0,0D0,-1D0,0D0,0D0,0D0;                57P     41
100,0D0,0D0,0D0,1.8D1,0D0,-1.8D1,0D0;                                 59P     42
124,0D0,1D0,0D0,0D0,0D0,0D0,1D0,0D0,1D0,0D0,0D0,0D0;                  61P     43
100,0D0,0D0,0D0,1.8D1,0D0,-1.8D1,0D0;                                 63P     44
124,0D0,-1D0,0D0,0D0,0D0,0D0,-1D0,3.530509218308D-14,1D0,0D0,         65P     45
0D0,0D0;                                                              65P     46
100,0D0,0D0,0D0,1.279999976227D1,0D0,-1.279999976227D1,0D0;           67P     47
124,0D0,1D0,0D0,0D0,0D0,0D0,-1D0,3.530509218308D-14,-1D0,0D0,         69P     48
0D0,0D0;                                                              69P     49
100,0D0,0D0,0D0,1.279999976227D1,0D0,-1.279999976227D1,0D0;           71P     50
124,0D0,-1D0,0D0,0D0,0D0,0D0,-1D0,-2.2D1,1D0,0D0,0D0,0D0;             73P     51
100,0D0,0D0,0D0,1.8D1,0D0,-1.8D1,0D0;                                 75P     52
110,0D0,0D0,-1.8D1,-1.775845960626D-11,-2.2D1,-1.8D1;                 77P     53
124,0D0,0D0,-1D0,0D0,-1D0,0D0,0D0,-2.2D1,0D0,1D0,0D0,1.6D1;           79P     54
100,0D0,0D0,0D0,2D0,0D0,0D0,2D0;                                      81P     55
124,0D0,1D0,0D0,0D0,0D0,0D0,-1D0,-2.4D1,-1D0,0D0,0D0,0D0;             83P     56
100,0D0,0D0,0D0,1.599999994824D1,0D0,-1.599999994824D1,0D0;           85P     57
124,0D0,-1D0,0D0,0D0,0D0,0D0,-1D0,-2.4D1,1D0,0D0,0D0,0D0;             87P     58
100,0D0,0D0,0D0,1.599999994824D1,0D0,-1.599999994824D1,0D0;           89P     59
124,1D0,0D0,0D0,0D0,0D0,0D0,-1D0,-2.4D1,0D0,1D0,0D0,0D0;              91P     60
100,0D0,0D0,0D0,1.096965511460D1,0D0,5.484827557301D0,9.5D0;          93P     61
124,5D-1,-8.660254037844D-1,0D0,0D0,0D0,0D0,-1D0,-2.4D1,              95P     62
8.660254037844D-1,5D-1,0D0,0D0;                                       95P     63
100,0D0,0D0,0D0,1.096965511460D1,0D0,5.484827557301D0,9.5D0;          97P     64
124,-5D-1,-8.660254037844D-1,0D0,0D0,0D0,0D0,-1D0,-2.4D1,             99P     65
8.660254037844D-1,-5D-1,0D0,0D0;                                      99P     66
100,0D0,0D0,0D0,1.096965511460D1,0D0,5.484827557301D0,9.5D0;         101P     67
124,-1D0,0D0,0D0,0D0,0D0,0D0,-1D0,-2.4D1,0D0,-1D0,0D0,0D0;           103P     68
100,0D0,0D0,0D0,1.096965511460D1,0D0,5.484827557301D0,9.5D0;         105P     69
124,-5D-1,8.660254037844D-1,0D0,0D0,0D0,0D0,-1D0,-2.4D1,             107P     70
-8.660254037844D-1,-5D-1,0D0,0D0;                                    107P     71
100,0D0,0D0,0D0,1.096965511460D1,0D0,5.484827557301D0,9.5D0;         109P     72
124,5D-1,8.660254037844D-1,0D0,0D0,0D0,0D0,-1D0,-2.4D1,              111P     73
-8.660254037844D-1,5D-1,0D0,0D0;                                     111P     74
100,0D0,0D0,0D0,1.096965511460D1,0D0,5.484827557301D0,9.5D0;         113P     75
124,0D0,0D0,1D0,0D0,-1D0,0D0,0D0,-2.2D1,0D0,-1D0,0D0,-1.6D1;         115P     76
100,0D0,0D0,0D0,2D0,0D0,0D0,2D0;                                     117P     77
124,0D0,1D0,0D0,0D0,0D0,0D0,-1D0,-2.2D1,-1D0,0D0,0D0,0D0;            119P     78
100,0D0,0D0,0D0,1.8D1,0D0,-1.8D1,0D0;                                121P     79
110,0D0,0D0,1.8D1,1.775494448729D-11,-2.2D1,1.8D1;                   123P     80
126,9,3,0,0,1,0,0D0,0D0,0D0,0D0,1.428571428571D-1,                   125P     81
2.857142857143D-1,4.285714285714D-1,5.714285714286D-1,               125P     82
7.142857142857D-1,8.571428571429D-1,1D0,1D0,1D0,1D0,1D0,1D0,1D0,     125P     83
1D0,1D0,1D0,1D0,1D0,1D0,1D0,1.096965511460D1,-2.4D1,0D0,             125P     84
1.069396203869D1,-2.384082852841D1,4.775144147839D-1,                125P     85
1.015234103305D1,-2.356469276623D1,1.415629514988D0,                 125P     86
9.380034366403D0,-2.328875199484D1,2.753303900647D0,                 125P     87
8.611117477167D0,-2.314549176411D1,4.085107019602D0,                 125P     88
7.842470274855D0,-2.314556449675D1,5.416443027102D0,                 125P     89
7.073483754176D0,-2.328904037218D1,6.748366751254D0,                 125P     90
6.301920858869D0,-2.356482216752D1,8.084752887160D0,                 125P     91
5.760452698747D0,-2.384086775039D1,9.022603251173D0,                 125P     92
5.484827557301D0,-2.4D1,9.5D0,0D0,1D0,0D0,0D0,1D0;                   125P     93
110,1.096965511460D1,-2.4D1,0D0,1.096965511460D1,-1.1D1,0D0;         127P     94
126,9,3,0,0,1,0,0D0,0D0,0D0,0D0,1.428571428571D-1,                   129P     95
2.857142857143D-1,4.285714285714D-1,5.714285714286D-1,               129P     96
7.142857142857D-1,8.571428571429D-1,1D0,1D0,1D0,1D0,1D0,1D0,1D0,     129P     97
1D0,1D0,1D0,1D0,1D0,1D0,1D0,5.484827557301D0,-2.4D1,-9.5D0,          129P     98
5.760520633219D0,-2.384082852841D1,-9.022485585216D0,                129P     99
6.302141638852D0,-2.356469276623D1,-8.084370485012D0,                129P    100
7.074448305501D0,-2.328875199484D1,-6.746696099353D0,                129P    101
7.843365194737D0,-2.314549176411D1,-5.414892980398D0,                129P    102
8.612012397049D0,-2.314556449675D1,-4.083556972898D0,                129P    103
9.380998917728D0,-2.328904037218D1,-2.751633248746D0,                129P    104
1.015256181304D1,-2.356482216752D1,-1.415247112840D0,                129P    105
1.069402997316D1,-2.384086775039D1,-4.773967488271D-1,               129P    106
1.096965511460D1,-2.4D1,0D0,0D0,1D0,0D0,0D0,1D0;                     129P    107
110,5.484827557301D0,-2.4D1,-9.5D0,5.484827557301D0,-1.1D1,          131P    108
-9.5D0;                                                              131P    109
126,9,3,0,0,1,0,0D0,0D0,0D0,0D0,1.428571428571D-1,                   133P    110
2.857142857143D-1,4.285714285714D-1,5.714285714286D-1,               133P    111
7.142857142857D-1,8.571428571429D-1,1D0,1D0,1D0,1D0,1D0,1D0,1D0,     133P    112
1D0,1D0,1D0,1D0,1D0,1D0,1D0,-1.096965511460D1,-2.4D1,0D0,            133P    113
-1.069396203869D1,-2.384082852841D1,-4.775144147839D-1,              133P    114
-1.015234103305D1,-2.356469276623D1,-1.415629514988D0,               133P    115
-9.380034366403D0,-2.328875199484D1,-2.753303900647D0,               133P    116
-8.611117477167D0,-2.314549176411D1,-4.085107019602D0,               133P    117
-7.842470274855D0,-2.314556449675D1,-5.416443027102D0,               133P    118
-7.073483754176D0,-2.328904037218D1,-6.748366751254D0,               133P    119
-6.301920858869D0,-2.356482216752D1,-8.084752887160D0,               133P    120
-5.760452698747D0,-2.384086775039D1,-9.022603251173D0,               133P    121
-5.484827557301D0,-2.4D1,-9.5D0,0D0,1D0,0D0,0D0,1D0;                 133P    122
110,-1.096965511460D1,-2.4D1,0D0,-1.096965511460D1,-1.1D1,0D0;       135P    123
126,9,3,0,0,1,0,0D0,0D0,0D0,0D0,1.428571428571D-1,                   137P    124
2.857142857143D-1,4.285714285714D-1,5.714285714286D-1,               137P    125
7.142857142857D-1,8.571428571429D-1,1D0,1D0,1D0,1D0,1D0,1D0,1D0,     137P    126
1D0,1D0,1D0,1D0,1D0,1D0,1D0,-5.484827557301D0,-2.4D1,9.5D0,          137P    127
-5.760520633219D0,-2.384082852841D1,9.022485585216D0,                137P    128
-6.302141638852D0,-2.356469276623D1,8.084370485012D0,                137P    129
-7.074448305501D0,-2.328875199484D1,6.746696099353D0,                137P    130
-7.843365194737D0,-2.314549176411D1,5.414892980398D0,                137P    131
-8.612012397049D0,-2.314556449675D1,4.083556972898D0,                137P    132
-9.380998917728D0,-2.328904037218D1,2.751633248746D0,                137P    133
-1.015256181304D1,-2.356482216752D1,1.415247112840D0,                137P    134
-1.069402997316D1,-2.384086775039D1,4.773967488271D-1,               137P    135
-1.096965511460D1,-2.4D1,0D0,0D0,1D0,0D0,0D0,1D0;                    137P    136
110,-5.484827557301D0,-2.4D1,9.5D0,-5.484827557301D0,-1.1D1,         139P    137
9.5D0;                                                               139P    138
126,9,3,0,0,1,0,0D0,0D0,0D0,0D0,1.428571428571D-1,                   141P    139
2.857142857143D-1,4.285714285714D-1,5.714285714286D-1,               141P    140
7.142857142857D-1,8.571428571429D-1,1D0,1D0,1D0,1D0,1D0,1D0,1D0,     141P    141
1D0,1D0,1D0,1D0,1D0,1D0,1D0,5.484827557301D0,-2.4D1,9.5D0,           141P    142
4.933441405467D0,-2.384082852841D1,9.5D0,3.850199394200D0,           141P    143
-2.356469276623D1,9.5D0,2.305586060902D0,-2.328875199484D1,          141P    144
9.5D0,7.677522824306D-1,-2.314549176411D1,9.5D0,                     141P    145
-7.695421221935D-1,-2.314556449675D1,9.5D0,-2.307515163553D0,        141P    146
-2.328904037218D1,9.5D0,-3.850640954166D0,-2.356482216752D1,         141P    147
9.5D0,-4.933577274410D0,-2.384086775039D1,9.5D0,                     141P    148
-5.484827557301D0,-2.4D1,9.5D0,0D0,1D0,0D0,0D0,1D0;                  141P    149
110,5.484827557301D0,-2.4D1,9.5D0,5.484827557301D0,-1.1D1,9.5D0;     143P    150
110,-5.484827557301D0,-1.1D1,9.5D0,-1.096965511460D1,-1.1D1,0D0;     145P    151
110,5.484827557301D0,-1.1D1,9.5D0,-5.484827557301D0,-1.1D1,          147P    152
9.5D0;                                                               147P    153
110,1.096965511460D1,-1.1D1,0D0,5.484827557301D0,-1.1D1,9.5D0;       149P    154
110,5.484827557301D0,-1.1D1,-9.5D0,1.096965511460D1,-1.1D1,0D0;      151P    155
110,-5.484827557301D0,-1.1D1,-9.5D0,5.484827557301D0,-1.1D1,         153P    156
-9.5D0;                                                              153P    157
110,-1.096965511460D1,-1.1D1,0D0,-5.484827557301D0,-1.1D1,           155P    158
-9.5D0;                                                              155P    159
126,9,3,0,0,1,0,0D0,0D0,0D0,0D0,1.428571428571D-1,                   157P    160
2.857142857143D-1,4.285714285714D-1,5.714285714286D-1,               157P    161
7.142857142857D-1,8.571428571429D-1,1D0,1D0,1D0,1D0,1D0,1D0,1D0,     157P    162
1D0,1D0,1D0,1D0,1D0,1D0,1D0,-5.484827557301D0,-2.4D1,-9.5D0,         157P    163
-4.933441405467D0,-2.384082852841D1,-9.5D0,-3.850199394200D0,        157P    164
-2.356469276623D1,-9.5D0,-2.305586060902D0,-2.328875199484D1,        157P    165
-9.5D0,-7.677522824306D-1,-2.314549176411D1,-9.5D0,                  157P    166
7.695421221935D-1,-2.314556449675D1,-9.5D0,2.307515163553D0,         157P    167
-2.328904037218D1,-9.5D0,3.850640954166D0,-2.356482216752D1,         157P    168
-9.5D0,4.933577274410D0,-2.384086775039D1,-9.5D0,                    157P    169
5.484827557301D0,-2.4D1,-9.5D0,0D0,1D0,0D0,0D0,1D0;                  157P    170
110,-5.484827557301D0,-2.4D1,-9.5D0,-5.484827557301D0,-1.1D1,        159P    171
-9.5D0;                                                              159P    172
502,26,0D0,0D0,-1.8D1,0D0,0D0,1.8D1,-5.484827557301D0,-1.1D1,        161P    173
9.5D0,-1.096965511460D1,-1.1D1,0D0,-5.484827557301D0,-1.1D1,         161P    174
-9.5D0,5.484827557301D0,-1.1D1,-9.5D0,1.096965511460D1,-1.1D1,       161P    175
0D0,5.484827557301D0,-1.1D1,9.5D0,0D0,5.399998275067D1,              161P    176
-1.139997596282D1,0D0,5.399998275067D1,1.139997596282D1,0D0,         161P    177
5.339999275656D1,-1.2D1,0D0,5.339999275656D1,1.2D1,0D0,8D-1,         161P    178
1.2D1,0D0,8D-1,-1.2D1,0D0,3.530509218308D-14,1.279999976227D1,       161P    179
0D0,3.530509218308D-14,-1.279999976227D1,0D0,-2.4D1,                 161P    180
-1.599999994824D1,0D0,-2.4D1,1.599999994824D1,0D0,-2.2D1,-1.8D1,     161P    181
0D0,-2.2D1,1.8D1,1.096965511460D1,-2.4D1,0D0,5.484827557301D0,       161P    182
-2.4D1,9.5D0,-5.484827557301D0,-2.4D1,9.5D0,-1.096965511460D1,       161P    183
-2.4D1,0D0,-5.484827557301D0,-2.4D1,-9.5D0,5.484827557301D0,         161P    184
-2.4D1,-9.5D0;                                                       161P    185
504,48,59,161,1,161,2,63,161,2,161,1,145,161,3,161,4,155,161,4,      163P    186
161,5,153,161,5,161,6,151,161,6,161,7,149,161,7,161,8,147,161,8,     163P    187
161,3,19,161,9,161,10,55,161,11,161,12,23,161,10,161,9,37,161,       163P    188
12,161,11,27,161,10,161,12,25,161,9,161,11,49,161,13,161,14,67,      163P    189
161,15,161,16,31,161,14,161,13,71,161,16,161,15,51,161,14,161,       163P    190
11,33,161,13,161,12,41,161,14,161,16,45,161,13,161,15,85,161,17,     163P    191
161,18,121,161,19,161,20,89,161,18,161,17,75,161,20,161,19,77,       163P    192
161,1,161,19,123,161,2,161,20,81,161,18,161,20,117,161,17,161,       163P    193
19,93,161,21,161,22,97,161,22,161,23,101,161,23,161,24,105,161,      163P    194
24,161,25,109,161,25,161,26,113,161,26,161,21,137,161,23,161,24,     163P    195
133,161,24,161,25,157,161,25,161,26,129,161,26,161,21,125,161,       163P    196
21,161,22,141,161,22,161,23,139,161,23,161,3,135,161,24,161,4,       163P    197
159,161,25,161,5,131,161,26,161,6,127,161,21,161,7,143,161,22,       163P    198
161,8;                                                               163P    199
128,1,1,1,1,0,0,1,0,0,-1.1856D1,-1.1856D1,1.1856D1,1.1856D1,         165P    200
-1.185599991292D1,-1.185599991292D1,1.185599991292D1,                165P    201
1.185599991292D1,1D0,1D0,1D0,1D0,1.185599991292D1,5.4D1,             165P    202
1.1856D1,1.185599991292D1,5.4D1,-1.1856D1,-1.185599991292D1,         165P    203
5.4D1,1.1856D1,-1.185599991292D1,5.4D1,-1.1856D1,-1.1856D1,          165P    204
1.1856D1,-1.185599991292D1,1.185599991292D1;                         165P    205
508,2,0,163,9,0,0,0,163,11,0,0;                                      167P    206
510,165,1,0,167;                                                     169P    207
110,0D0,6.54D1,6.927791673661D-14,0D0,6.44D1,6.927791673661D-14;     171P    208
110,0D0,5.407906144077D1,-1.132089755912D1,0D0,5.332089386738D1,     173P    209
-1.207906238672D1;                                                   173P    210
120,171,173,-3.204424520975D0,6.283186555130D-2;                     175P    211
508,4,0,163,9,1,0,0,163,13,1,0,0,163,10,0,0,0,163,14,0,0;            177P    212
510,175,1,0,177;                                                     179P    213
110,0D0,6.54D1,-5.329070518201D-14,0D0,6.44D1,                       181P    214
-5.329070518201D-14;                                                 181P    215
110,0D0,5.407906144077D1,-1.132089755912D1,0D0,5.332089386738D1,     183P    216
-1.207906238672D1;                                                   183P    217
120,181,183,-6.283186738551D-2,3.204424519141D0;                     185P    218
508,4,0,163,11,1,0,0,163,14,1,0,0,163,12,0,0,0,163,13,0,0;           187P    219
510,185,1,0,187;                                                     189P    220
110,0D0,0D0,0D0,0D0,1D0,0D0;                                         191P    221
110,0D0,-2.520003281610D-1,-1.2D1,0D0,5.445201673621D1,-1.2D1;       193P    222
120,191,193,3.078760800518D0,6.346017160251D0;                       195P    223
508,4,0,163,17,1,0,0,163,20,1,0,0,163,12,1,0,0,163,19,0,0;           197P    224
510,195,1,0,197;                                                     199P    225
110,0D0,8D-1,0D0,0D0,1.8D0,0D0;                                      201P    226
124,1.136523665014D-2,1.598536736142D-3,9.999341358691D-1,           203P    227
-1.469069354289D-1,1.392804918494D-1,-9.902529699982D-1,0D0,         203P    228
8D-1,9.901877478469D-1,1.392713182609D-1,-1.147710433038D-2,         203P    229
-1.279915693912D1;                                                   203P    230
100,0D0,0D0,0D0,8D-1,0D0,-2.206768421010D-1,7.689614628577D-1;       205P    231
120,201,205,-3.215901862975D0,5.135449675858D-2;                     207P    232
508,4,0,163,17,0,0,0,163,21,1,0,0,163,18,1,0,0,163,22,0,0;           209P    233
510,207,1,0,209;                                                     211P    234
110,0D0,8D-1,0D0,0D0,1.8D0,0D0;                                      213P    235
124,-1.136523665014D-2,-1.598536736142D-3,-9.999341358691D-1,        215P    236
1.469069354289D-1,1.392804918494D-1,-9.902529699982D-1,0D0,8D-1,     215P    237
-9.901877478469D-1,-1.392713182609D-1,1.147710433038D-2,             215P    238
1.279915693912D1;                                                    215P    239
100,0D0,0D0,0D0,8D-1,0D0,-2.206768421010D-1,7.689614628577D-1;       217P    240
120,213,217,-3.215901862975D0,5.135449675858D-2;                     219P    241
508,4,0,163,15,0,0,0,163,22,1,0,0,163,16,1,0,0,163,21,0,0;           221P    242
510,219,1,0,221;                                                     223P    243
110,0D0,0D0,0D0,0D0,1D0,0D0;                                         225P    244
110,0D0,-2.520003281610D-1,-1.2D1,0D0,5.445201673621D1,-1.2D1;       227P    245
120,225,227,-6.283185307180D-2,3.204424506662D0;                     229P    246
508,4,0,163,15,1,0,0,163,19,1,0,0,163,10,1,0,0,163,20,0,0;           231P    247
510,229,1,0,231;                                                     233P    248
128,1,1,1,1,0,0,1,0,0,-1.872D1,-1.872D1,1.872D1,1.872D1,             235P    249
-1.873541832540D1,-1.873541832540D1,1.873541832540D1,                235P    250
1.873541832540D1,1D0,1D0,1D0,1D0,1.873541832540D1,0D0,1.872D1,       235P    251
1.873541832540D1,0D0,-1.872D1,-1.873541832540D1,0D0,1.872D1,         235P    252
-1.873541832540D1,0D0,-1.872D1,-1.872D1,1.872D1,                     235P    253
-1.873541832540D1,1.873541832540D1;                                  235P    254
508,2,0,163,1,0,0,0,163,2,0,0;                                       237P    255
508,2,0,163,16,0,0,0,163,18,0,0;                                     239P    256
510,235,2,0,237,239;                                                 241P    257
110,0D0,0D0,0D0,0D0,1D0,0D0;                                         243P    258
110,0D0,-2.244D1,-1.8D1,0D0,4.4D-1,-1.8D1;                           245P    259
120,243,245,-6.283185307180D-2,3.204424506662D0;                     247P    260
508,4,0,163,26,1,0,0,163,27,0,0,0,163,1,1,0,0,163,28,1,0;            249P    261
510,247,1,0,249;                                                     251P    262
110,0D0,-2.2D1,0D0,0D0,-2.1D1,0D0;                                   253P    263
124,-6.315115209226D-4,1.128650824847D-2,-9.999361059212D-1,         255P    264
1.808665896799D-1,-9.984383091159D-1,-5.586539975484D-2,0D0,         255P    265
-2.2D1,-5.586183028659D-2,9.983745148199D-1,1.130416185499D-2,       255P    266
1.599897769474D1;                                                    255P    267
100,0D0,0D0,0D0,2D0,0D0,-2.231114593307D-1,1.987516358855D0;         257P    268
120,253,257,-3.215728909328D0,5.152745045699D-2;                     259P    269
508,4,0,163,25,1,0,0,163,30,1,0,0,163,26,0,0,0,163,29,0,0;           261P    270
510,259,1,0,261;                                                     263P    271
128,1,1,1,1,0,0,1,0,0,-1.664D1,-1.664D1,1.664D1,1.664D1,             265P    272
-1.664000000021D1,-1.664000000021D1,1.664000000021D1,                265P    273
1.664000000021D1,1D0,1D0,1D0,1D0,1.664000000021D1,-2.4D1,            265P    274
1.664D1,1.664000000021D1,-2.4D1,-1.664D1,-1.664000000021D1,          265P    275
-2.4D1,1.664D1,-1.664000000021D1,-2.4D1,-1.664D1,-1.664D1,           265P    276
1.664D1,-1.664000000021D1,1.664000000021D1;                          265P    277
508,2,0,163,23,0,0,0,163,25,0,0;                                     267P    278
508,6,0,163,31,1,0,0,163,32,1,0,0,163,33,1,0,0,163,34,1,0,0,163,     269P    279
35,1,0,0,163,36,1,0;                                                 269P    280
510,265,2,0,267,269;                                                 271P    281
110,0D0,-2.2D1,0D0,0D0,-2.1D1,0D0;                                   273P    282
124,6.315115209227D-4,-1.128650824847D-2,9.999361059212D-1,          275P    283
-1.808665896799D-1,-9.984383091159D-1,-5.586539975484D-2,0D0,        275P    284
-2.2D1,5.586183028659D-2,-9.983745148199D-1,-1.130416185499D-2,      275P    285
-1.599897769474D1;                                                   275P    286
100,0D0,0D0,0D0,2D0,0D0,-2.231114593307D-1,1.987516358855D0;         277P    287
120,273,277,-3.215728909328D0,5.152745045699D-2;                     279P    288
508,4,0,163,23,1,0,0,163,29,1,0,0,163,24,0,0,0,163,30,0,0;           281P    289
510,279,1,0,281;                                                     283P    290
110,0D0,0D0,0D0,0D0,1D0,0D0;                                         285P    291
110,0D0,-2.244D1,-1.8D1,0D0,4.4D-1,-1.8D1;                           287P    292
120,285,287,3.078760800518D0,6.346017160251D0;                       289P    293
508,4,0,163,24,1,0,0,163,28,0,0,0,163,2,1,0,0,163,27,1,0;            291P    294
510,289,1,0,291;                                                     293P    295
110,0D0,-1.766666666667D1,0D0,0D0,-1.866666666667D1,0D0;             295P    296
110,-9.394422000972D0,-2.309053873781D1,0D0,-1.106646621506D1,       297P    297
-2.405589391491D1,0D0;                                               297P    298
120,295,297,-3.204424506662D0,6.283185307180D-2;                     299P    299
508,2,0,163,41,1,0,0,163,31,0,0;                                     301P    300
510,299,1,0,301;                                                     303P    301
110,0D0,-1.766666666667D1,0D0,0D0,-1.866666666667D1,0D0;             305P    302
110,-9.394422000972D0,-2.309053873781D1,0D0,-1.106646621506D1,       307P    303
-2.405589391491D1,0D0;                                               307P    304
120,305,307,-3.204424506662D0,6.283185307180D-2;                     309P    305
508,2,0,163,42,1,0,0,163,32,0,0;                                     311P    306
510,309,1,0,311;                                                     313P    307
110,0D0,-1.766666666667D1,0D0,0D0,-1.866666666667D1,0D0;             315P    308
110,-9.394422000972D0,-2.309053873781D1,0D0,-1.106646621506D1,       317P    309
-2.405589391491D1,0D0;                                               317P    310
120,315,317,-3.204424506662D0,6.283185307180D-2;                     319P    311
508,2,0,163,37,1,0,0,163,33,0,0;                                     321P    312
510,319,1,0,321;                                                     323P    313
128,1,1,1,1,0,0,1,0,0,-2.193931022921D-1,-2.193931022921D-1,         325P    314
1.118904821689D1,1.118904821689D1,-1.326D1,-1.326D1,2.6D-1,          325P    315
2.6D-1,1D0,1D0,1D0,1D0,1.107935166575D1,-1.074D1,-1.9D-1,            325P    316
5.375131006155D0,-1.074D1,9.69D0,1.107935166575D1,-2.426D1,          325P    317
-1.9D-1,5.375131006155D0,-2.426D1,9.69D0,-2.193931022921D-1,         325P    318
1.118904821689D1,-1.326D1,2.6D-1;                                    325P    319
508,4,0,163,41,0,0,0,163,47,1,0,0,163,7,1,0,0,163,48,0,0;            327P    320
510,325,1,0,327;                                                     329P    321
128,1,1,1,1,0,0,1,0,0,-2.193931022921D-1,-2.193931022921D-1,         331P    322
1.118904821689D1,1.118904821689D1,-1.326D1,-1.326D1,2.6D-1,          331P    323
2.6D-1,1D0,1D0,1D0,1D0,5.375131006155D0,-1.074D1,-9.69D0,            331P    324
1.107935166575D1,-1.074D1,1.9D-1,5.375131006155D0,-2.426D1,          331P    325
-9.69D0,1.107935166575D1,-2.426D1,1.9D-1,-2.193931022921D-1,         331P    326
1.118904821689D1,-1.326D1,2.6D-1;                                    331P    327
508,4,0,163,40,0,0,0,163,46,1,0,0,163,6,1,0,0,163,47,0,0;            333P    328
510,331,1,0,333;                                                     335P    329
110,0D0,-1.766666666667D1,0D0,0D0,-1.866666666667D1,0D0;             337P    330
110,-9.394422000972D0,-2.309053873781D1,0D0,-1.106646621506D1,       339P    331
-2.405589391491D1,0D0;                                               339P    332
120,337,339,-6.346017160251D0,-3.078760800518D0;                     341P    333
508,2,0,163,38,1,0,0,163,34,0,0;                                     343P    334
510,341,1,0,343;                                                     345P    335
110,0D0,-1.766666666667D1,0D0,0D0,-1.866666666667D1,0D0;             347P    336
110,-9.394422000972D0,-2.309053873781D1,0D0,-1.106646621506D1,       349P    337
-2.405589391491D1,0D0;                                               349P    338
120,347,349,-6.346017160251D0,-3.078760800518D0;                     351P    339
508,2,0,163,39,1,0,0,163,35,0,0;                                     353P    340
510,351,1,0,353;                                                     355P    341
110,0D0,-1.766666666667D1,0D0,0D0,-1.866666666667D1,0D0;             357P    342
110,-9.394422000972D0,-2.309053873781D1,0D0,-1.106646621506D1,       359P    343
-2.405589391491D1,0D0;                                               359P    344
120,357,359,-6.346017160251D0,-3.078760800518D0;                     361P    345
508,2,0,163,40,1,0,0,163,36,0,0;                                     363P    346
510,361,1,0,363;                                                     365P    347
128,1,1,1,1,0,0,1,0,0,-2.193931022921D-1,-2.193931022921D-1,         367P    348
1.118904821689D1,1.118904821689D1,-1.326D1,-1.326D1,2.6D-1,          367P    349
2.6D-1,1D0,1D0,1D0,1D0,-1.107935166575D1,-1.074D1,1.9D-1,            367P    350
-5.375131006155D0,-1.074D1,-9.69D0,-1.107935166575D1,-2.426D1,       367P    351
1.9D-1,-5.375131006155D0,-2.426D1,-9.69D0,-2.193931022921D-1,        367P    352
1.118904821689D1,-1.326D1,2.6D-1;                                    367P    353
508,4,0,163,38,0,0,0,163,44,1,0,0,163,4,1,0,0,163,45,0,0;            369P    354
510,367,1,0,369;                                                     371P    355
128,1,1,1,1,0,0,1,0,0,-2.193931022921D-1,-2.193931022921D-1,         373P    356
1.118904821689D1,1.118904821689D1,-1.326D1,-1.326D1,2.6D-1,          373P    357
2.6D-1,1D0,1D0,1D0,1D0,-5.375131006155D0,-1.074D1,9.69D0,            373P    358
-1.107935166575D1,-1.074D1,-1.9D-1,-5.375131006155D0,-2.426D1,       373P    359
9.69D0,-1.107935166575D1,-2.426D1,-1.9D-1,-2.193931022921D-1,        373P    360
1.118904821689D1,-1.326D1,2.6D-1;                                    373P    361
508,4,0,163,37,0,0,0,163,43,1,0,0,163,3,1,0,0,163,44,0,0;            375P    362
510,373,1,0,375;                                                     377P    363
128,1,1,1,1,0,0,1,0,0,-2.193931022921D-1,-2.193931022921D-1,         379P    364
1.118904821689D1,1.118904821689D1,-1.326D1,-1.326D1,2.6D-1,          379P    365
2.6D-1,1D0,1D0,1D0,1D0,5.704220659594D0,-1.074D1,9.5D0,              379P    366
-5.704220659594D0,-1.074D1,9.5D0,5.704220659594D0,-2.426D1,          379P    367
9.5D0,-5.704220659594D0,-2.426D1,9.5D0,-2.193931022921D-1,           379P    368
1.118904821689D1,-1.326D1,2.6D-1;                                    379P    369
508,4,0,163,42,0,0,0,163,48,1,0,0,163,8,1,0,0,163,43,0,0;            381P    370
510,379,1,0,381;                                                     383P    371
128,1,1,1,1,0,0,1,0,0,-1.140844131919D1,-1.140844131919D1,           385P    372
1.140844131919D1,1.140844131919D1,-9.88D0,-9.88D0,9.88D0,9.88D0,     385P    373
1D0,1D0,1D0,1D0,-1.140844131919D1,-1.1D1,-9.88D0,                    385P    374
1.140844131919D1,-1.1D1,-9.88D0,-1.140844131919D1,-1.1D1,9.88D0,     385P    375
1.140844131919D1,-1.1D1,9.88D0,-1.140844131919D1,                    385P    376
1.140844131919D1,-9.88D0,9.88D0;                                     385P    377
508,6,0,163,3,0,0,0,163,8,0,0,0,163,7,0,0,0,163,6,0,0,0,163,5,0,     387P    378
0,0,163,4,0,0;                                                       387P    379
510,385,1,0,387;                                                     389P    380
128,1,1,1,1,0,0,1,0,0,-2.193931022921D-1,-2.193931022921D-1,         391P    381
1.118904821689D1,1.118904821689D1,-1.326D1,-1.326D1,2.6D-1,          391P    382
2.6D-1,1D0,1D0,1D0,1D0,-5.704220659594D0,-1.074D1,-9.5D0,            391P    383
5.704220659594D0,-1.074D1,-9.5D0,-5.704220659594D0,-2.426D1,         391P    384
-9.5D0,5.704220659594D0,-2.426D1,-9.5D0,-2.193931022921D-1,          391P    385
1.118904821689D1,-1.326D1,2.6D-1;                                    391P    386
508,4,0,163,39,0,0,0,163,45,1,0,0,163,5,1,0,0,163,46,0,0;            393P    387
510,391,1,0,393;                                                     395P    388
514,26,169,1,179,1,189,1,199,1,211,0,223,0,233,1,241,1,251,1,        397P    389
263,1,271,0,283,1,293,1,303,0,313,0,323,0,329,0,335,0,345,0,355,     397P    390
0,365,0,371,0,377,0,383,0,389,1,395,0;                               397P    391
124,-1D0,0D0,0D0,0D0,0D0,0D0,1D0,5.4D1,0D0,1D0,0D0,0D0;              399P    392
100,0D0,0D0,0D0,1.0376D1,0D0,-1.0376D1,0D0;                          401P    393
110,1.0376D1,5.4D1,0D0,1.0376D1,0D0,0D0;                             403P    394
124,1D0,0D0,0D0,0D0,0D0,0D0,-1D0,0D0,0D0,1D0,0D0,0D0;                405P    395
100,0D0,0D0,0D0,1.0376D1,0D0,-1.0376D1,0D0;                          407P    396
124,1D0,0D0,0D0,0D0,0D0,0D0,1D0,5.4D1,0D0,-1D0,0D0,0D0;              409P    397
100,0D0,0D0,0D0,1.0376D1,0D0,-1.0376D1,0D0;                          411P    398
110,-1.0376D1,5.4D1,0D0,-1.0376D1,0D0,0D0;                           413P    399
124,-1D0,0D0,0D0,0D0,0D0,0D0,-1D0,0D0,0D0,-1D0,0D0,0D0;              415P    400
100,0D0,0D0,0D0,1.0376D1,0D0,-1.0376D1,0D0;                          417P    401
502,4,1.0376D1,5.4D1,0D0,-1.0376D1,5.4D1,0D0,1.0376D1,0D0,0D0,       419P    402
-1.0376D1,0D0,0D0;                                                   419P    403
504,6,401,419,1,419,2,411,419,2,419,1,407,419,3,419,4,417,419,4,     421P    404
419,3,403,419,1,419,3,413,419,2,419,4;                               421P    405
110,0D0,5.4D1,0D0,0D0,5.3D1,0D0;                                     423P    406
110,1.0376D1,5.508D1,0D0,1.0376D1,-1.08D0,0D0;                       425P    407
120,423,425,-6.283185307180D-2,3.204424506662D0;                     427P    408
508,4,0,421,1,0,0,0,421,5,1,0,0,421,3,1,0,0,421,6,0,0;               429P    409
510,427,1,0,429;                                                     431P    410
110,0D0,5.4D1,0D0,0D0,5.3D1,0D0;                                     433P    411
110,1.0376D1,5.508D1,0D0,1.0376D1,-1.08D0,0D0;                       435P    412
120,433,435,3.078760800518D0,6.346017160251D0;                       437P    413
508,4,0,421,2,0,0,0,421,6,1,0,0,421,4,1,0,0,421,5,0,0;               439P    414
510,437,1,0,439;                                                     441P    415
514,2,431,1,441,1;                                                   443P    416
186,397,1,0;                                                         445P    417
S      1G      5D    446P    417                                        T      1
