 PTC IGES file: screw-m30x66-csn_02_1143.igs                            S      1
1H,,1H;,24HSCREW-M30X66-CSN_02_1143,28Hscrew-m30x66-csn_02_1143.igs,    G      1
49HPro/ENGINEER by Parametric Technology Corporation,7H2007160,32,38,7, G      2
38,15,24HSCREW-M30X66-CSN_02_1143,1.,2,2HMM,32768,0.5,                  G      3
15H20111214.100907,0.0115188,115.193,13HVladimir Zima,7HUnknown,10,0,   G      4
15H20111214.100907;                                                     G      5
     314       1       1       1       0       0       0       001000200D      1
     314       0       4       1       0                   COLOR       1D      2
     314       2       1       1       0       0       0       001000200D      3
     314       0       1       1       0                   COLOR       2D      4
     314       3       1       1       0       0       0       001000200D      5
     314       0       1       1       0                   COLOR       3D      6
     314       4       1       1       0       0       0       001000200D      7
     314       0       1       1       0                   COLOR       4D      8
     314       5       1       1       0       0       0       001000200D      9
     314       0       8       1       0                   COLOR       5D     10
     314       6       1       1       0       0       0       001000200D     11
     314       0       8       1       0                   COLOR       6D     12
     314       7       1       1       0       0       0       001000200D     13
     314       0       5       1       0                   COLOR       7D     14
     314       8       1       1       0       0       0       001000200D     15
     314       0       8       1       0                   COLOR       8D     16
     124       9       1       1       0       0       0       001000000D     17
     124       0       0       2       0                   XFORM       1D     18
     100      11       1       1       0       0      17       001010000D     19
     100       0       0       1       0                     ARC       1D     20
     124      12       1       1       0       0       0       001000000D     21
     124       0       0       2       0                   XFORM       2D     22
     100      14       1       1       0       0      21       001010000D     23
     100       0       0       2       0                     ARC       2D     24
     110      16       1       1       0       0       0       001010000D     25
     110       0       0       2       0                    LINE       1D     26
     110      18       1       1       0       0       0       001010000D     27
     110       0       0       2       0                    LINE       2D     28
     124      20       1       1       0       0       0       001000000D     29
     124       0       0       1       0                   XFORM       3D     30
     100      21       1       1       0       0      29       001010000D     31
     100       0       0       1       0                     ARC       3D     32
     110      22       1       1       0       0       0       001010000D     33
     110       0       0       2       0                    LINE       3D     34
     124      24       1       1       0       0       0       001000000D     35
     124       0       0       2       0                   XFORM       4D     36
     100      26       1       1       0       0      35       001010000D     37
     100       0       0       1       0                     ARC       4D     38
     124      27       1       1       0       0       0       001000000D     39
     124       0       0       2       0                   XFORM       5D     40
     100      29       1       1       0       0      39       001010000D     41
     100       0       0       1       0                     ARC       5D     42
     124      30       1       1       0       0       0       001000000D     43
     124       0       0       2       0                   XFORM       6D     44
     100      32       1       1       0       0      43       001010000D     45
     100       0       0       1       0                     ARC       6D     46
     124      33       1       1       0       0       0       001000000D     47
     124       0       0       1       0                   XFORM       7D     48
     100      34       1       1       0       0      47       001010000D     49
     100       0       0       1       0                     ARC       7D     50
     110      35       1       1       0       0       0       001010000D     51
     110       0       0       2       0                    LINE       4D     52
     124      37       1       1       0       0       0       001000000D     53
     124       0       0       2       0                   XFORM       8D     54
     100      39       1       1       0       0      53       001010000D     55
     100       0       0       1       0                     ARC       8D     56
     124      40       1       1       0       0       0       001000000D     57
     124       0       0       1       0                   XFORM       9D     58
     100      41       1       1       0       0      57       001010000D     59
     100       0       0       1       0                     ARC       9D     60
     124      42       1       1       0       0       0       001000000D     61
     124       0       0       1       0                   XFORM      10D     62
     100      43       1       1       0       0      61       001010000D     63
     100       0       0       1       0                     ARC      10D     64
     124      44       1       1       0       0       0       001000000D     65
     124       0       0       2       0                   XFORM      11D     66
     100      46       1       1       0       0      65       001010000D     67
     100       0       0       1       0                     ARC      11D     68
     124      47       1       1       0       0       0       001000000D     69
     124       0       0       2       0                   XFORM      12D     70
     100      49       1       1       0       0      69       001010000D     71
     100       0       0       1       0                     ARC      12D     72
     124      50       1       1       0       0       0       001000000D     73
     124       0       0       1       0                   XFORM      13D     74
     100      51       1       1       0       0      73       001010000D     75
     100       0       0       1       0                     ARC      13D     76
     110      52       1       1       0       0       0       001010000D     77
     110       0       0       1       0                    LINE       5D     78
     124      53       1       1       0       0       0       001000000D     79
     124       0       0       1       0                   XFORM      14D     80
     100      54       1       1       0       0      79       001010000D     81
     100       0       0       1       0                     ARC      14D     82
     124      55       1       1       0       0       0       001000000D     83
     124       0       0       1       0                   XFORM      15D     84
     100      56       1       1       0       0      83       001010000D     85
     100       0       0       1       0                     ARC      15D     86
     124      57       1       1       0       0       0       001000000D     87
     124       0       0       1       0                   XFORM      16D     88
     100      58       1       1       0       0      87       001010000D     89
     100       0       0       1       0                     ARC      16D     90
     124      59       1       1       0       0       0       001000000D     91
     124       0       0       1       0                   XFORM      17D     92
     100      60       1       1       0       0      91       001010000D     93
     100       0       0       1       0                     ARC      17D     94
     124      61       1       1       0       0       0       001000000D     95
     124       0       0       2       0                   XFORM      18D     96
     100      63       1       1       0       0      95       001010000D     97
     100       0       0       1       0                     ARC      18D     98
     124      64       1       1       0       0       0       001000000D     99
     124       0       0       2       0                   XFORM      19D    100
     100      66       1       1       0       0      99       001010000D    101
     100       0       0       1       0                     ARC      19D    102
     124      67       1       1       0       0       0       001000000D    103
     124       0       0       1       0                   XFORM      20D    104
     100      68       1       1       0       0     103       001010000D    105
     100       0       0       1       0                     ARC      20D    106
     124      69       1       1       0       0       0       001000000D    107
     124       0       0       2       0                   XFORM      21D    108
     100      71       1       1       0       0     107       001010000D    109
     100       0       0       1       0                     ARC      21D    110
     124      72       1       1       0       0       0       001000000D    111
     124       0       0       2       0                   XFORM      22D    112
     100      74       1       1       0       0     111       001010000D    113
     100       0       0       1       0                     ARC      22D    114
     124      75       1       1       0       0       0       001000000D    115
     124       0       0       1       0                   XFORM      23D    116
     100      76       1       1       0       0     115       001010000D    117
     100       0       0       1       0                     ARC      23D    118
     124      77       1       1       0       0       0       001000000D    119
     124       0       0       1       0                   XFORM      24D    120
     100      78       1       1       0       0     119       001010000D    121
     100       0       0       1       0                     ARC      24D    122
     110      79       1       1       0       0       0       001010000D    123
     110       0       0       1       0                    LINE       6D    124
     126      80       1       1       0       0       0       001010000D    125
     126       0       0      13       0                B_SPLINE       1D    126
     110      93       1       1       0       0       0       001010000D    127
     110       0       0       1       0                    LINE       7D    128
     126      94       1       1       0       0       0       001010000D    129
     126       0       0      13       0                B_SPLINE       2D    130
     110     107       1       1       0       0       0       001010000D    131
     110       0       0       1       0                    LINE       8D    132
     126     108       1       1       0       0       0       001010000D    133
     126       0       0      13       0                B_SPLINE       3D    134
     110     121       1       1       0       0       0       001010000D    135
     110       0       0       1       0                    LINE       9D    136
     126     122       1       1       0       0       0       001010000D    137
     126       0       0      13       0                B_SPLINE       4D    138
     110     135       1       1       0       0       0       001010000D    139
     110       0       0       1       0                    LINE      10D    140
     126     136       1       1       0       0       0       001010000D    141
     126       0       0      11       0                B_SPLINE       5D    142
     110     147       1       1       0       0       0       001010000D    143
     110       0       0       1       0                    LINE      11D    144
     110     148       1       1       0       0       0       001010000D    145
     110       0       0       1       0                    LINE      12D    146
     110     149       1       1       0       0       0       001010000D    147
     110       0       0       2       0                    LINE      13D    148
     110     151       1       1       0       0       0       001010000D    149
     110       0       0       1       0                    LINE      14D    150
     110     152       1       1       0       0       0       001010000D    151
     110       0       0       1       0                    LINE      15D    152
     110     153       1       1       0       0       0       001010000D    153
     110       0       0       2       0                    LINE      16D    154
     110     155       1       1       0       0       0       001010000D    155
     110       0       0       2       0                    LINE      17D    156
     126     157       1       1       0       0       0       001010000D    157
     126       0       0      11       0                B_SPLINE       6D    158
     110     168       1       1       0       0       0       001010000D    159
     110       0       0       2       0                    LINE      18D    160
     502     170       1       1       0       0       0       001010000D    161
     502       0       0      12       1                  VERTEX       1D    162
     504     182       1       1       0       0       0       000010001D    163
     504       0       0      14       1                    EDGE       1D    164
     128     196       1       1       0       0       0       001010000D    165
     128       0       0       6       0                  SPLSRF       1D    166
     508     202       1       1       0       0       0       001010000D    167
     508       0       0       1       1                EDGELOOP       1D    168
     510     203       1       1       0       0       0       000010000D    169
     510       0       0       1       1                    FACE       1D    170
     110     204       1       1       0       0       0       001010000D    171
     110       0       0       1       0                    LINE      19D    172
     110     205       1       1       0       0       0       001010000D    173
     110       0       0       2       0                    LINE      20D    174
     120     207       1       1       0       0       0       001010000D    175
     120       0       0       1       0                    SREV       1D    176
     508     208       1       1       0       0       0       001010000D    177
     508       0       0       1       1                EDGELOOP       2D    178
     510     209       1       1       0       0       0       000010000D    179
     510       0       0       1       1                    FACE       2D    180
     110     210       1       1       0       0       0       001010000D    181
     110       0       0       1       0                    LINE      21D    182
     110     211       1       1       0       0       0       001010000D    183
     110       0       0       2       0                    LINE      22D    184
     120     213       1       1       0       0       0       001010000D    185
     120       0       0       1       0                    SREV       2D    186
     508     214       1       1       0       0       0       001010000D    187
     508       0       0       1       1                EDGELOOP       3D    188
     510     215       1       1       0       0       0       000010000D    189
     510       0       0       1       1                    FACE       3D    190
     110     216       1       1       0       0       0       001010000D    191
     110       0       0       1       0                    LINE      23D    192
     110     217       1       1       0       0       0       001010000D    193
     110       0       0       1       0                    LINE      24D    194
     120     218       1       1       0       0       0       001010000D    195
     120       0       0       1       0                    SREV       3D    196
     508     219       1       1       0       0       0       001010000D    197
     508       0       0       1       1                EDGELOOP       4D    198
     510     220       1       1       0       0       0       000010000D    199
     510       0       0       1       1                    FACE       4D    200
     110     221       1       1       0       0       0       001010000D    201
     110       0       0       1       0                    LINE      25D    202
     124     222       1       1       0       0       0       001000000D    203
     124       0       0       4       0                   XFORM      25D    204
     100     226       1       1       0       0     203       001010000D    205
     100       0       0       1       0                     ARC      25D    206
     120     227       1       1       0       0       0       001010000D    207
     120       0       0       1       0                    SREV       4D    208
     508     228       1       1       0       0       0       001010000D    209
     508       0       0       1       1                EDGELOOP       5D    210
     510     229       1       1       0       0       0       000010000D    211
     510       0       0       1       1                    FACE       5D    212
     110     230       1       1       0       0       0       001010000D    213
     110       0       0       1       0                    LINE      26D    214
     124     231       1       1       0       0       0       001000000D    215
     124       0       0       4       0                   XFORM      26D    216
     100     235       1       1       0       0     215       001010000D    217
     100       0       0       1       0                     ARC      26D    218
     120     236       1       1       0       0       0       001010000D    219
     120       0       0       1       0                    SREV       5D    220
     508     237       1       1       0       0       0       001010000D    221
     508       0       0       1       1                EDGELOOP       6D    222
     510     238       1       1       0       0       0       000010000D    223
     510       0       0       1       1                    FACE       6D    224
     110     239       1       1       0       0       0       001010000D    225
     110       0       0       1       0                    LINE      27D    226
     110     240       1       1       0       0       0       001010000D    227
     110       0       0       1       0                    LINE      28D    228
     120     241       1       1       0       0       0       001010000D    229
     120       0       0       1       0                    SREV       6D    230
     508     242       1       1       0       0       0       001010000D    231
     508       0       0       1       1                EDGELOOP       7D    232
     510     243       1       1       0       0       0       000010000D    233
     510       0       0       1       1                    FACE       7D    234
     128     244       1       1       0       0       0       001010000D    235
     128       0       0       6       0                  SPLSRF       2D    236
     508     250       1       1       0       0       0       001010000D    237
     508       0       0       1       1                EDGELOOP       8D    238
     508     251       1       1       0       0       0       001010000D    239
     508       0       0       1       1                EDGELOOP       9D    240
     510     252       1       1       0       0       0       000010000D    241
     510       0       0       1       1                    FACE       8D    242
     110     253       1       1       0       0       0       001010000D    243
     110       0       0       1       0                    LINE      29D    244
     110     254       1       1       0       0       0       001010000D    245
     110       0       0       1       0                    LINE      30D    246
     120     255       1       1       0       0       0       001010000D    247
     120       0       0       1       0                    SREV       7D    248
     508     256       1       1       0       0       0       001010000D    249
     508       0       0       1       1                EDGELOOP      10D    250
     510     257       1       1       0       0       0       000010000D    251
     510       0       0       1       1                    FACE       9D    252
     110     258       1       1       0       0       0       001010000D    253
     110       0       0       1       0                    LINE      31D    254
     124     259       1       1       0       0       0       001000000D    255
     124       0       0       4       0                   XFORM      27D    256
     100     263       1       1       0       0     255       001010000D    257
     100       0       0       1       0                     ARC      27D    258
     120     264       1       1       0       0       0       001010000D    259
     120       0       0       1       0                    SREV       8D    260
     508     265       1       1       0       0       0       001010000D    261
     508       0       0       1       1                EDGELOOP      11D    262
     510     266       1       1       0       0       0       000010000D    263
     510       0       0       1       1                    FACE      10D    264
     128     267       1       1       0       0       0       001010000D    265
     128       0       0       6       0                  SPLSRF       3D    266
     508     273       1       1       0       0       0       001010000D    267
     508       0       0       1       1                EDGELOOP      12D    268
     508     274       1       1       0       0       0       001010000D    269
     508       0       0       2       1                EDGELOOP      13D    270
     510     276       1       1       0       0       0       000010000D    271
     510       0       0       1       1                    FACE      11D    272
     110     277       1       1       0       0       0       001010000D    273
     110       0       0       1       0                    LINE      32D    274
     124     278       1       1       0       0       0       001000000D    275
     124       0       0       4       0                   XFORM      28D    276
     100     282       1       1       0       0     275       001010000D    277
     100       0       0       1       0                     ARC      28D    278
     120     283       1       1       0       0       0       001010000D    279
     120       0       0       1       0                    SREV       9D    280
     508     284       1       1       0       0       0       001010000D    281
     508       0       0       1       1                EDGELOOP      14D    282
     510     285       1       1       0       0       0       000010000D    283
     510       0       0       1       1                    FACE      12D    284
     110     286       1       1       0       0       0       001010000D    285
     110       0       0       1       0                    LINE      33D    286
     110     287       1       1       0       0       0       001010000D    287
     110       0       0       1       0                    LINE      34D    288
     120     288       1       1       0       0       0       001010000D    289
     120       0       0       1       0                    SREV      10D    290
     508     289       1       1       0       0       0       001010000D    291
     508       0       0       1       1                EDGELOOP      15D    292
     510     290       1       1       0       0       0       000010000D    293
     510       0       0       1       1                    FACE      13D    294
     110     291       1       1       0       0       0       001010000D    295
     110       0       0       1       0                    LINE      35D    296
     110     292       1       1       0       0       0       001010000D    297
     110       0       0       2       0                    LINE      36D    298
     120     294       1       1       0       0       0       001010000D    299
     120       0       0       1       0                    SREV      11D    300
     508     295       1       1       0       0       0       001010000D    301
     508       0       0       1       1                EDGELOOP      16D    302
     510     296       1       1       0       0       0       000010000D    303
     510       0       0       1       1                    FACE      14D    304
     110     297       1       1       0       0       0       001010000D    305
     110       0       0       1       0                    LINE      37D    306
     110     298       1       1       0       0       0       001010000D    307
     110       0       0       2       0                    LINE      38D    308
     120     300       1       1       0       0       0       001010000D    309
     120       0       0       1       0                    SREV      12D    310
     508     301       1       1       0       0       0       001010000D    311
     508       0       0       1       1                EDGELOOP      17D    312
     510     302       1       1       0       0       0       000010000D    313
     510       0       0       1       1                    FACE      15D    314
     110     303       1       1       0       0       0       001010000D    315
     110       0       0       1       0                    LINE      39D    316
     110     304       1       1       0       0       0       001010000D    317
     110       0       0       2       0                    LINE      40D    318
     120     306       1       1       0       0       0       001010000D    319
     120       0       0       1       0                    SREV      13D    320
     508     307       1       1       0       0       0       001010000D    321
     508       0       0       1       1                EDGELOOP      18D    322
     510     308       1       1       0       0       0       000010000D    323
     510       0       0       1       1                    FACE      16D    324
     128     309       1       1       0       0       0       001010000D    325
     128       0       0       6       0                  SPLSRF       4D    326
     508     315       1       1       0       0       0       001010000D    327
     508       0       0       1       1                EDGELOOP      19D    328
     510     316       1       1       0       0       0       000010000D    329
     510       0       0       1       1                    FACE      17D    330
     128     317       1       1       0       0       0       001010000D    331
     128       0       0       6       0                  SPLSRF       5D    332
     508     323       1       1       0       0       0       001010000D    333
     508       0       0       1       1                EDGELOOP      20D    334
     510     324       1       1       0       0       0       000010000D    335
     510       0       0       1       1                    FACE      18D    336
     110     325       1       1       0       0       0       001010000D    337
     110       0       0       1       0                    LINE      41D    338
     110     326       1       1       0       0       0       001010000D    339
     110       0       0       2       0                    LINE      42D    340
     120     328       1       1       0       0       0       001010000D    341
     120       0       0       1       0                    SREV      14D    342
     508     329       1       1       0       0       0       001010000D    343
     508       0       0       1       1                EDGELOOP      21D    344
     510     330       1       1       0       0       0       000010000D    345
     510       0       0       1       1                    FACE      19D    346
     110     331       1       1       0       0       0       001010000D    347
     110       0       0       1       0                    LINE      43D    348
     110     332       1       1       0       0       0       001010000D    349
     110       0       0       2       0                    LINE      44D    350
     120     334       1       1       0       0       0       001010000D    351
     120       0       0       1       0                    SREV      15D    352
     508     335       1       1       0       0       0       001010000D    353
     508       0       0       1       1                EDGELOOP      22D    354
     510     336       1       1       0       0       0       000010000D    355
     510       0       0       1       1                    FACE      20D    356
     110     337       1       1       0       0       0       001010000D    357
     110       0       0       1       0                    LINE      45D    358
     110     338       1       1       0       0       0       001010000D    359
     110       0       0       2       0                    LINE      46D    360
     120     340       1       1       0       0       0       001010000D    361
     120       0       0       1       0                    SREV      16D    362
     508     341       1       1       0       0       0       001010000D    363
     508       0       0       1       1                EDGELOOP      23D    364
     510     342       1       1       0       0       0       000010000D    365
     510       0       0       1       1                    FACE      21D    366
     128     343       1       1       0       0       0       001010000D    367
     128       0       0       6       0                  SPLSRF       6D    368
     508     349       1       1       0       0       0       001010000D    369
     508       0       0       1       1                EDGELOOP      24D    370
     510     350       1       1       0       0       0       000010000D    371
     510       0       0       1       1                    FACE      22D    372
     128     351       1       1       0       0       0       001010000D    373
     128       0       0       6       0                  SPLSRF       7D    374
     508     357       1       1       0       0       0       001010000D    375
     508       0       0       1       1                EDGELOOP      25D    376
     510     358       1       1       0       0       0       000010000D    377
     510       0       0       1       1                    FACE      23D    378
     128     359       1       1       0       0       0       001010000D    379
     128       0       0       6       0                  SPLSRF       8D    380
     508     365       1       1       0       0       0       001010000D    381
     508       0       0       1       1                EDGELOOP      26D    382
     510     366       1       1       0       0       0       000010000D    383
     510       0       0       1       1                    FACE      24D    384
     128     367       1       1       0       0       0       001010000D    385
     128       0       0       6       0                  SPLSRF       9D    386
     508     373       1       1       0       0       0       001010000D    387
     508       0       0       2       1                EDGELOOP      27D    388
     510     375       1       1       0       0       0       000010000D    389
     510       0       0       1       1                    FACE      25D    390
     128     376       1       1       0       0       0       001010000D    391
     128       0       0       6       0                  SPLSRF      10D    392
     508     382       1       1       0       0       0       001010000D    393
     508       0       0       1       1                EDGELOOP      28D    394
     510     383       1       1       0       0       0       000010000D    395
     510       0       0       1       1                    FACE      26D    396
     514     384       1       1       0       0       0       000010000D    397
     514       0       0       3       1                   SHELL       1D    398
     124     387       1       1       0       0       0       001000000D    399
     124       0       0       1       0                   XFORM      29D    400
     100     388       1       1       0       0     399       001010000D    401
     100       0       0       1       0                     ARC      29D    402
     110     389       1       1       0       0       0       001010000D    403
     110       0       0       1       0                    LINE      47D    404
     124     390       1       1       0       0       0       001000000D    405
     124       0       0       1       0                   XFORM      30D    406
     100     391       1       1       0       0     405       001010000D    407
     100       0       0       1       0                     ARC      30D    408
     124     392       1       1       0       0       0       001000000D    409
     124       0       0       1       0                   XFORM      31D    410
     100     393       1       1       0       0     409       001010000D    411
     100       0       0       1       0                     ARC      31D    412
     110     394       1       1       0       0       0       001010000D    413
     110       0       0       1       0                    LINE      48D    414
     124     395       1       1       0       0       0       001000000D    415
     124       0       0       1       0                   XFORM      32D    416
     100     396       1       1       0       0     415       001010000D    417
     100       0       0       1       0                     ARC      32D    418
     502     397       1       1       0       0       0       001010000D    419
     502       0       0       2       1                  VERTEX       2D    420
     504     399       1       1       0       0       0       000010001D    421
     504       0       0       2       1                    EDGE       2D    422
     110     401       1       1       0       0       0       001010000D    423
     110       0       0       1       0                    LINE      49D    424
     110     402       1       1       0       0       0       001010000D    425
     110       0       0       1       0                    LINE      50D    426
     120     403       1       1       0       0       0       001010000D    427
     120       0       0       1       0                    SREV      17D    428
     508     404       1       1       0       0       0       001010000D    429
     508       0       0       1       1                EDGELOOP      29D    430
     510     405       1       1       0       0       0       000010000D    431
     510       0       0       1       1                    FACE      27D    432
     110     406       1       1       0       0       0       001010000D    433
     110       0       0       1       0                    LINE      51D    434
     110     407       1       1       0       0       0       001010000D    435
     110       0       0       1       0                    LINE      52D    436
     120     408       1       1       0       0       0       001010000D    437
     120       0       0       1       0                    SREV      18D    438
     508     409       1       1       0       0       0       001010000D    439
     508       0       0       1       1                EDGELOOP      30D    440
     510     410       1       1       0       0       0       000010000D    441
     510       0       0       1       1                    FACE      28D    442
     514     411       1       1       0       0       0       000000000D    443
     514       0       0       1       1                   SHELL       2D    444
     186     412       1       1       0       0       0       000000000D    445
     186       0       0       1       0                    MSBR       1D    446
314,1.1D0,1.2D0,1D2;                                                   1P      1
314,1.1D1,1.1D1,1.1D1;                                                 3P      2
314,3.92D1,1.2D0,1.2D0;                                                5P      3
314,4.1D1,0D0,2.2D1;                                                   7P      4
314,8.784D1,9.49D1,1D2;                                                9P      5
314,9.6D1,9.6D1,9.6D1;                                                11P      6
314,9.8D1,6.27D1,0D0;                                                 13P      7
314,1D2,1D2,9.49D1;                                                   15P      8
124,0D0,-1D0,0D0,0D0,0D0,0D0,1D0,6.599997948249D1,-1D0,0D0,0D0,       17P      9
1.243449787580D-14;                                                   17P     10
100,0D0,0D0,0D0,1.399997161049D1,0D0,-1.399997161049D1,0D0;           19P     11
124,0D0,1D0,0D0,0D0,0D0,0D0,1D0,6.599997948249D1,1D0,0D0,0D0,         21P     12
-1.065814103640D-14;                                                  21P     13
100,0D0,0D0,0D0,1.399997161049D1,0D0,-1.399997161049D1,               23P     14
-1.072002724210D-14;                                                  23P     15
110,-7.919881295848D-9,6.599998369881D1,-1.399998369650D1,            25P     16
-6.364188190819D-9,6.499998690083D1,-1.499998689897D1;                25P     17
110,7.919883217191D-9,6.599998369881D1,1.399998369650D1,              27P     18
6.364191348289D-9,6.499998690083D1,1.499998689897D1;                  27P     19
124,0D0,1D0,0D0,0D0,0D0,0D0,-1D0,1D0,-1D0,0D0,0D0,0D0;                29P     20
100,0D0,0D0,0D0,1.5D1,0D0,-1.5D1,0D0;                                 31P     21
110,-1.783112774188D-13,1D0,1.5D1,6.364191348289D-9,                  33P     22
6.499998690083D1,1.499998689897D1;                                    33P     23
124,0D0,1D0,0D0,0D0,0D0,0D0,1D0,6.499999144913D1,1D0,0D0,0D0,         35P     24
0D0;                                                                  35P     25
100,0D0,0D0,0D0,1.5D1,0D0,-1.5D1,0D0;                                 37P     26
124,2.902122986370D-13,0D0,1D0,-4.643396778192D-12,0D0,-1D0,0D0,      39P     27
1D0,1D0,0D0,-2.902122986370D-13,-1.6D1;                               39P     28
100,0D0,0D0,0D0,1D0,0D0,6.401007653610D-14,1D0;                       41P     29
124,-2.903285251099D-13,0D0,-1D0,4.645256401759D-12,0D0,-1D0,         43P     30
0D0,1D0,-1D0,0D0,2.903285251099D-13,1.6D1;                            43P     31
100,0D0,0D0,0D0,1D0,0D0,6.401007653610D-14,1D0;                       45P     32
124,0D0,-1D0,0D0,0D0,0D0,0D0,-1D0,1D0,1D0,0D0,0D0,0D0;                47P     33
100,0D0,0D0,0D0,1.5D1,0D0,-1.5D1,0D0;                                 49P     34
110,1.854006810008D-13,1D0,-1.5D1,-6.364188190819D-9,                 51P     35
6.499998690083D1,-1.499998689897D1;                                   51P     36
124,0D0,-1D0,0D0,0D0,0D0,0D0,1D0,6.499999144913D1,-1D0,0D0,0D0,       53P     37
0D0;                                                                  53P     38
100,0D0,0D0,0D0,1.5D1,0D0,-1.5D1,0D0;                                 55P     39
124,0D0,-1D0,0D0,0D0,0D0,0D0,1D0,0D0,-1D0,0D0,0D0,0D0;                57P     40
100,0D0,0D0,0D0,2.25D1,0D0,-2.25D1,0D0;                               59P     41
124,0D0,1D0,0D0,0D0,0D0,0D0,1D0,0D0,1D0,0D0,0D0,0D0;                  61P     42
100,0D0,0D0,0D0,2.25D1,0D0,-2.25D1,0D0;                               63P     43
124,0D0,-1D0,0D0,0D0,0D0,0D0,-1D0,4.241051954068D-14,1D0,0D0,         65P     44
0D0,0D0;                                                              65P     45
100,0D0,0D0,0D0,1.599999970861D1,0D0,-1.599999970861D1,0D0;           67P     46
124,0D0,1D0,0D0,0D0,0D0,0D0,-1D0,4.241051954068D-14,-1D0,0D0,         69P     47
0D0,0D0;                                                              69P     48
100,0D0,0D0,0D0,1.599999970861D1,0D0,-1.599999970861D1,0D0;           71P     49
124,0D0,-1D0,0D0,0D0,0D0,0D0,-1D0,-2.7D1,1D0,0D0,0D0,0D0;             73P     50
100,0D0,0D0,0D0,2.25D1,0D0,-2.25D1,0D0;                               75P     51
110,0D0,0D0,-2.25D1,-2.125812153126D-11,-2.7D1,-2.25D1;               77P     52
124,0D0,0D0,-1D0,0D0,-1D0,0D0,0D0,-2.7D1,0D0,1D0,0D0,1.95D1;          79P     53
100,0D0,0D0,0D0,3D0,0D0,0D0,3D0;                                      81P     54
124,0D0,1D0,0D0,0D0,0D0,0D0,-1D0,-3D1,-1D0,0D0,0D0,0D0;               83P     55
100,0D0,0D0,0D0,1.949999993867D1,0D0,-1.949999993867D1,0D0;           85P     56
124,0D0,-1D0,0D0,0D0,0D0,0D0,-1D0,-3D1,1D0,0D0,0D0,0D0;               87P     57
100,0D0,0D0,0D0,1.949999993867D1,0D0,-1.949999993867D1,0D0;           89P     58
124,1D0,0D0,0D0,0D0,0D0,0D0,-1D0,-3D1,0D0,1D0,0D0,0D0;                91P     59
100,0D0,0D0,0D0,1.270170592217D1,0D0,6.350852961086D0,1.1D1;          93P     60
124,5D-1,-8.660254037844D-1,0D0,0D0,0D0,0D0,-1D0,-3D1,                95P     61
8.660254037844D-1,5D-1,0D0,0D0;                                       95P     62
100,0D0,0D0,0D0,1.270170592217D1,0D0,6.350852961086D0,1.1D1;          97P     63
124,-5D-1,-8.660254037844D-1,0D0,0D0,0D0,0D0,-1D0,-3D1,               99P     64
8.660254037844D-1,-5D-1,0D0,0D0;                                      99P     65
100,0D0,0D0,0D0,1.270170592217D1,0D0,6.350852961086D0,1.1D1;         101P     66
124,-1D0,0D0,0D0,0D0,0D0,0D0,-1D0,-3D1,0D0,-1D0,0D0,0D0;             103P     67
100,0D0,0D0,0D0,1.270170592217D1,0D0,6.350852961086D0,1.1D1;         105P     68
124,-5D-1,8.660254037844D-1,0D0,0D0,0D0,0D0,-1D0,-3D1,               107P     69
-8.660254037844D-1,-5D-1,0D0,0D0;                                    107P     70
100,0D0,0D0,0D0,1.270170592217D1,0D0,6.350852961086D0,1.1D1;         109P     71
124,5D-1,8.660254037844D-1,0D0,0D0,0D0,0D0,-1D0,-3D1,                111P     72
-8.660254037844D-1,5D-1,0D0,0D0;                                     111P     73
100,0D0,0D0,0D0,1.270170592217D1,0D0,6.350852961086D0,1.1D1;         113P     74
124,0D0,0D0,1D0,0D0,-1D0,0D0,0D0,-2.7D1,0D0,-1D0,0D0,-1.95D1;        115P     75
100,0D0,0D0,0D0,3D0,0D0,0D0,3D0;                                     117P     76
124,0D0,1D0,0D0,0D0,0D0,0D0,-1D0,-2.7D1,-1D0,0D0,0D0,0D0;            119P     77
100,0D0,0D0,0D0,2.25D1,0D0,-2.25D1,0D0;                              121P     78
110,0D0,0D0,2.25D1,2.126122510741D-11,-2.7D1,2.25D1;                 123P     79
126,9,3,0,0,1,0,0D0,0D0,0D0,0D0,1.428571428571D-1,                   125P     80
2.857142857143D-1,4.285714285714D-1,5.714285714286D-1,               125P     81
7.142857142857D-1,8.571428571429D-1,1D0,1D0,1D0,1D0,1D0,1D0,1D0,     125P     82
1D0,1D0,1D0,1D0,1D0,1D0,1D0,1.270170592217D1,-3D1,0D0,               125P     83
1.238248236058D1,-2.981569619079D1,5.529114276445D-1,                125P     84
1.175534224880D1,-2.949596004510D1,1.639149964723D0,                 125P     85
1.086109242426D1,-2.917644967824D1,3.188036095486D0,                 125P     86
9.970767605141D0,-2.901056941108D1,4.730123917433D0,                 125P     87
9.080755055096D0,-2.901065362782D1,6.271670873486D0,                 125P     88
8.190349610098D0,-2.917678358884D1,7.813898343558D0,                 125P     89
7.296960994480D0,-2.949610987818D1,9.361292816712D0,                 125P     90
6.669997861707D0,-2.981574160572D1,1.044722481715D1,                 125P     91
6.350852961086D0,-3D1,1.1D1,0D0,1D0,0D0,0D0,1D0;                     125P     92
110,1.270170592217D1,-3D1,0D0,1.270170592217D1,-1.2D1,0D0;           127P     93
126,9,3,0,0,1,0,0D0,0D0,0D0,0D0,1.428571428571D-1,                   129P     94
2.857142857143D-1,4.285714285714D-1,5.714285714286D-1,               129P     95
7.142857142857D-1,8.571428571429D-1,1D0,1D0,1D0,1D0,1D0,1D0,1D0,     129P     96
1D0,1D0,1D0,1D0,1D0,1D0,1D0,6.350852961086D0,-3D1,-1.1D1,            129P     97
6.670076522674D0,-2.981569619079D1,-1.044708857236D1,                129P     98
7.297216634461D0,-2.949596004510D1,-9.360850035277D0,                129P     99
8.191466459001D0,-2.917644967824D1,-7.811963904514D0,                129P    100
9.081791278116D0,-2.901056941108D1,-6.269876082567D0,                129P    101
9.971803828162D0,-2.901065362782D1,-4.728329126514D0,                129P    102
1.086220927316D1,-2.917678358884D1,-3.186101656442D0,                129P    103
1.175559788878D1,-2.949610987818D1,-1.638707183288D0,                129P    104
1.238256102155D1,-2.981574160572D1,-5.527751828524D-1,               129P    105
1.270170592217D1,-3D1,0D0,0D0,1D0,0D0,0D0,1D0;                       129P    106
110,6.350852961086D0,-3D1,-1.1D1,6.350852961086D0,-1.2D1,-1.1D1;     131P    107
126,9,3,0,0,1,0,0D0,0D0,0D0,0D0,1.428571428571D-1,                   133P    108
2.857142857143D-1,4.285714285714D-1,5.714285714286D-1,               133P    109
7.142857142857D-1,8.571428571429D-1,1D0,1D0,1D0,1D0,1D0,1D0,1D0,     133P    110
1D0,1D0,1D0,1D0,1D0,1D0,1D0,-1.270170592217D1,-3D1,0D0,              133P    111
-1.238248236058D1,-2.981569619079D1,-5.529114276445D-1,              133P    112
-1.175534224880D1,-2.949596004510D1,-1.639149964723D0,               133P    113
-1.086109242426D1,-2.917644967824D1,-3.188036095486D0,               133P    114
-9.970767605141D0,-2.901056941108D1,-4.730123917433D0,               133P    115
-9.080755055096D0,-2.901065362782D1,-6.271670873486D0,               133P    116
-8.190349610098D0,-2.917678358884D1,-7.813898343558D0,               133P    117
-7.296960994480D0,-2.949610987818D1,-9.361292816712D0,               133P    118
-6.669997861707D0,-2.981574160572D1,-1.044722481715D1,               133P    119
-6.350852961086D0,-3D1,-1.1D1,0D0,1D0,0D0,0D0,1D0;                   133P    120
110,-1.270170592217D1,-3D1,0D0,-1.270170592217D1,-1.2D1,0D0;         135P    121
126,9,3,0,0,1,0,0D0,0D0,0D0,0D0,1.428571428571D-1,                   137P    122
2.857142857143D-1,4.285714285714D-1,5.714285714286D-1,               137P    123
7.142857142857D-1,8.571428571429D-1,1D0,1D0,1D0,1D0,1D0,1D0,1D0,     137P    124
1D0,1D0,1D0,1D0,1D0,1D0,1D0,-6.350852961086D0,-3D1,1.1D1,            137P    125
-6.670076522674D0,-2.981569619079D1,1.044708857236D1,                137P    126
-7.297216634461D0,-2.949596004510D1,9.360850035277D0,                137P    127
-8.191466459001D0,-2.917644967824D1,7.811963904514D0,                137P    128
-9.081791278116D0,-2.901056941108D1,6.269876082567D0,                137P    129
-9.971803828162D0,-2.901065362782D1,4.728329126514D0,                137P    130
-1.086220927316D1,-2.917678358884D1,3.186101656442D0,                137P    131
-1.175559788878D1,-2.949610987818D1,1.638707183288D0,                137P    132
-1.238256102155D1,-2.981574160572D1,5.527751828524D-1,               137P    133
-1.270170592217D1,-3D1,0D0,0D0,1D0,0D0,0D0,1D0;                      137P    134
110,-6.350852961086D0,-3D1,1.1D1,-6.350852961086D0,-1.2D1,1.1D1;     139P    135
126,9,3,0,0,1,0,0D0,0D0,0D0,0D0,1.428571428571D-1,                   141P    136
2.857142857143D-1,4.285714285714D-1,5.714285714286D-1,               141P    137
7.142857142857D-1,8.571428571429D-1,1D0,1D0,1D0,1D0,1D0,1D0,1D0,     141P    138
1D0,1D0,1D0,1D0,1D0,1D0,1D0,6.350852961086D0,-3D1,1.1D1,             141P    139
5.712405837909D0,-2.981569619079D1,1.1D1,4.458125614336D0,           141P    140
-2.949596004510D1,1.1D1,2.669625965255D0,-2.917644967824D1,          141P    141
1.1D1,8.889763270249D-1,-2.901056941108D1,1.1D1,                     141P    142
-8.910487730662D-1,-2.901065362782D1,1.1D1,-2.671859663061D0,        141P    143
-2.917678358884D1,1.1D1,-4.458636894297D0,-2.949610987818D1,         141P    144
1.1D1,-5.712563159843D0,-2.981574160572D1,1.1D1,                     141P    145
-6.350852961086D0,-3D1,1.1D1,0D0,1D0,0D0,0D0,1D0;                    141P    146
110,6.350852961086D0,-3D1,1.1D1,6.350852961086D0,-1.2D1,1.1D1;       143P    147
110,-6.350852961086D0,-1.2D1,1.1D1,-1.270170592217D1,-1.2D1,0D0;     145P    148
110,6.350852961086D0,-1.2D1,1.1D1,-6.350852961086D0,-1.2D1,          147P    149
1.1D1;                                                               147P    150
110,1.270170592217D1,-1.2D1,0D0,6.350852961086D0,-1.2D1,1.1D1;       149P    151
110,6.350852961086D0,-1.2D1,-1.1D1,1.270170592217D1,-1.2D1,0D0;      151P    152
110,-6.350852961086D0,-1.2D1,-1.1D1,6.350852961086D0,-1.2D1,         153P    153
-1.1D1;                                                              153P    154
110,-1.270170592217D1,-1.2D1,0D0,-6.350852961086D0,-1.2D1,           155P    155
-1.1D1;                                                              155P    156
126,9,3,0,0,1,0,0D0,0D0,0D0,0D0,1.428571428571D-1,                   157P    157
2.857142857143D-1,4.285714285714D-1,5.714285714286D-1,               157P    158
7.142857142857D-1,8.571428571429D-1,1D0,1D0,1D0,1D0,1D0,1D0,1D0,     157P    159
1D0,1D0,1D0,1D0,1D0,1D0,1D0,-6.350852961086D0,-3D1,-1.1D1,           157P    160
-5.712405837909D0,-2.981569619079D1,-1.1D1,-4.458125614336D0,        157P    161
-2.949596004510D1,-1.1D1,-2.669625965255D0,-2.917644967824D1,        157P    162
-1.1D1,-8.889763270249D-1,-2.901056941108D1,-1.1D1,                  157P    163
8.910487730662D-1,-2.901065362782D1,-1.1D1,2.671859663061D0,         157P    164
-2.917678358884D1,-1.1D1,4.458636894297D0,-2.949610987818D1,         157P    165
-1.1D1,5.712563159843D0,-2.981574160572D1,-1.1D1,                    157P    166
6.350852961086D0,-3D1,-1.1D1,0D0,1D0,0D0,0D0,1D0;                    157P    167
110,-6.350852961086D0,-3D1,-1.1D1,-6.350852961086D0,-1.2D1,          159P    168
-1.1D1;                                                              159P    169
502,26,0D0,0D0,-2.25D1,0D0,0D0,2.25D1,-6.350852961086D0,-1.2D1,      161P    170
1.1D1,-1.270170592217D1,-1.2D1,0D0,-6.350852961086D0,-1.2D1,         161P    171
-1.1D1,6.350852961086D0,-1.2D1,-1.1D1,1.270170592217D1,-1.2D1,       161P    172
0D0,6.350852961086D0,-1.2D1,1.1D1,0D0,6.599997948249D1,              161P    173
-1.399997161049D1,0D0,6.599997948249D1,1.399997161049D1,0D0,         161P    174
6.499999144913D1,-1.5D1,0D0,6.499999144913D1,1.5D1,0D0,1D0,          161P    175
1.5D1,0D0,1D0,-1.5D1,0D0,4.241051954068D-14,1.599999970861D1,        161P    176
0D0,4.241051954068D-14,-1.599999970861D1,0D0,-3D1,                   161P    177
-1.949999993867D1,0D0,-3D1,1.949999993867D1,0D0,-2.7D1,-2.25D1,      161P    178
0D0,-2.7D1,2.25D1,1.270170592217D1,-3D1,0D0,6.350852961086D0,        161P    179
-3D1,1.1D1,-6.350852961086D0,-3D1,1.1D1,-1.270170592217D1,-3D1,      161P    180
0D0,-6.350852961086D0,-3D1,-1.1D1,6.350852961086D0,-3D1,-1.1D1;      161P    181
504,48,59,161,1,161,2,63,161,2,161,1,145,161,3,161,4,155,161,4,      163P    182
161,5,153,161,5,161,6,151,161,6,161,7,149,161,7,161,8,147,161,8,     163P    183
161,3,19,161,9,161,10,55,161,11,161,12,23,161,10,161,9,37,161,       163P    184
12,161,11,27,161,10,161,12,25,161,9,161,11,49,161,13,161,14,67,      163P    185
161,15,161,16,31,161,14,161,13,71,161,16,161,15,51,161,14,161,       163P    186
11,33,161,13,161,12,41,161,14,161,16,45,161,13,161,15,85,161,17,     163P    187
161,18,121,161,19,161,20,89,161,18,161,17,75,161,20,161,19,77,       163P    188
161,1,161,19,123,161,2,161,20,81,161,18,161,20,117,161,17,161,       163P    189
19,93,161,21,161,22,97,161,22,161,23,101,161,23,161,24,105,161,      163P    190
24,161,25,109,161,25,161,26,113,161,26,161,21,137,161,23,161,24,     163P    191
133,161,24,161,25,157,161,25,161,26,129,161,26,161,21,125,161,       163P    192
21,161,22,141,161,22,161,23,139,161,23,161,3,135,161,24,161,4,       163P    193
159,161,25,161,5,131,161,26,161,6,127,161,21,161,7,143,161,22,       163P    194
161,8;                                                               163P    195
128,1,1,1,1,0,0,1,0,0,-1.456D1,-1.456D1,1.456D1,1.456D1,             165P    196
-1.455999989296D1,-1.455999989296D1,1.455999989296D1,                165P    197
1.455999989296D1,1D0,1D0,1D0,1D0,1.455999989296D1,6.6D1,1.456D1,     165P    198
1.455999989296D1,6.6D1,-1.456D1,-1.455999989296D1,6.6D1,1.456D1,     165P    199
-1.455999989296D1,6.6D1,-1.456D1,-1.456D1,1.456D1,                   165P    200
-1.455999989296D1,1.455999989296D1;                                  165P    201
508,2,0,163,9,0,0,0,163,11,0,0;                                      167P    202
510,165,1,0,167;                                                     169P    203
110,0D0,8D1,1.243449787580D-14,0D0,7.9D1,1.243449787580D-14;         171P    204
110,0D0,6.609776159110D1,-1.390218984347D1,0D0,6.490218427479D1,     173P    205
-1.509776298320D1;                                                   173P    206
120,171,173,-3.204424519584D0,6.283186429661D-2;                     175P    207
508,4,0,163,9,1,0,0,163,13,1,0,0,163,10,0,0,0,163,14,0,0;            177P    208
510,175,1,0,177;                                                     179P    209
110,0D0,8D1,-1.065814103640D-14,0D0,7.9D1,-1.065814103640D-14;       181P    210
110,0D0,6.609776159110D1,-1.390218984347D1,0D0,6.490218427479D1,     183P    211
-1.509776298320D1;                                                   183P    212
120,181,183,-6.283186599373D-2,3.204424517886D0;                     185P    213
508,4,0,163,11,1,0,0,163,14,1,0,0,163,12,0,0,0,163,13,0,0;           187P    214
510,185,1,0,187;                                                     189P    215
110,0D0,0D0,0D0,0D0,1D0,0D0;                                         191P    216
110,0D0,-2.800003876648D-1,-1.5D1,0D0,6.628001977090D1,-1.5D1;       193P    217
120,191,193,3.078760800518D0,6.346017160251D0;                       195P    218
508,4,0,163,17,1,0,0,163,20,1,0,0,163,12,1,0,0,163,19,0,0;           197P    219
510,195,1,0,197;                                                     199P    220
110,0D0,1D0,0D0,0D0,2D0,0D0;                                         201P    221
124,1.124530943745D-2,1.564429035876D-3,9.999355457115D-1,           203P    222
-1.816577335909D-1,1.377913512363D-1,-9.904612781550D-1,0D0,1D0,     203P    223
9.903974386781D-1,1.377824699928D-1,-1.135360834943D-2,              203P    224
-1.599896873138D1;                                                   203P    225
100,0D0,0D0,0D0,1D0,0D0,-2.729542073007D-1,9.620270270200D-1;        205P    226
120,201,205,-3.215778358947D0,5.147800078679D-2;                     207P    227
508,4,0,163,17,0,0,0,163,21,1,0,0,163,18,1,0,0,163,22,0,0;           209P    228
510,207,1,0,209;                                                     211P    229
110,0D0,1D0,0D0,0D0,2D0,0D0;                                         213P    230
124,-1.124530943745D-2,-1.564429035877D-3,-9.999355457115D-1,        215P    231
1.816577335909D-1,1.377913512363D-1,-9.904612781550D-1,0D0,1D0,      215P    232
-9.903974386781D-1,-1.377824699928D-1,1.135360834943D-2,             215P    233
1.599896873138D1;                                                    215P    234
100,0D0,0D0,0D0,1D0,0D0,-2.729542073007D-1,9.620270270200D-1;        217P    235
120,213,217,-3.215778358947D0,5.147800078679D-2;                     219P    236
508,4,0,163,15,0,0,0,163,22,1,0,0,163,16,1,0,0,163,21,0,0;           221P    237
510,219,1,0,221;                                                     223P    238
110,0D0,0D0,0D0,0D0,1D0,0D0;                                         225P    239
110,0D0,-2.800003876648D-1,-1.5D1,0D0,6.628001977090D1,-1.5D1;       227P    240
120,225,227,-6.283185307180D-2,3.204424506662D0;                     229P    241
508,4,0,163,15,1,0,0,163,19,1,0,0,163,10,1,0,0,163,20,0,0;           231P    242
510,229,1,0,231;                                                     233P    243
128,1,1,1,1,0,0,1,0,0,-2.34D1,-2.34D1,2.34D1,2.34D1,                 235P    244
-2.341927290675D1,-2.341927290675D1,2.341927290675D1,                235P    245
2.341927290675D1,1D0,1D0,1D0,1D0,2.341927290675D1,0D0,2.34D1,        235P    246
2.341927290675D1,0D0,-2.34D1,-2.341927290675D1,0D0,2.34D1,           235P    247
-2.341927290675D1,0D0,-2.34D1,-2.34D1,2.34D1,-2.341927290675D1,      235P    248
2.341927290675D1;                                                    235P    249
508,2,0,163,1,0,0,0,163,2,0,0;                                       237P    250
508,2,0,163,16,0,0,0,163,18,0,0;                                     239P    251
510,235,2,0,237,239;                                                 241P    252
110,0D0,0D0,0D0,0D0,1D0,0D0;                                         243P    253
110,0D0,-2.754D1,-2.25D1,0D0,5.4D-1,-2.25D1;                         245P    254
120,243,245,-6.283185307180D-2,3.204424506662D0;                     247P    255
508,4,0,163,26,1,0,0,163,27,0,0,0,163,1,1,0,0,163,28,1,0;            249P    256
510,247,1,0,249;                                                     251P    257
110,0D0,-2.7D1,0D0,0D0,-2.6D1,0D0;                                   253P    258
124,-5.150808288231D-4,1.117065915035D-2,-9.999374735782D-1,         255P    259
2.180592974322D-1,-9.989386189757D-1,-4.606121490954D-2,0D0,         255P    260
-2.7D1,-4.605833486659D-2,9.988761589182D-1,1.118252807345D-2,       255P    261
1.949878073477D1;                                                    255P    262
100,0D0,0D0,0D0,3D0,0D0,-2.760725579585D-1,2.987270316316D0;         257P    263
120,253,257,-3.215607267869D0,5.164909192752D-2;                     259P    264
508,4,0,163,25,1,0,0,163,30,1,0,0,163,26,0,0,0,163,29,0,0;           261P    265
510,259,1,0,261;                                                     263P    266
128,1,1,1,1,0,0,1,0,0,-2.028D1,-2.028D1,2.028D1,2.028D1,             265P    267
-2.027999999970D1,-2.027999999970D1,2.027999999970D1,                265P    268
2.027999999970D1,1D0,1D0,1D0,1D0,2.027999999970D1,-3D1,2.028D1,      265P    269
2.027999999970D1,-3D1,-2.028D1,-2.027999999970D1,-3D1,2.028D1,       265P    270
-2.027999999970D1,-3D1,-2.028D1,-2.028D1,2.028D1,                    265P    271
-2.027999999970D1,2.027999999970D1;                                  265P    272
508,2,0,163,23,0,0,0,163,25,0,0;                                     267P    273
508,6,0,163,31,1,0,0,163,32,1,0,0,163,33,1,0,0,163,34,1,0,0,163,     269P    274
35,1,0,0,163,36,1,0;                                                 269P    275
510,265,2,0,267,269;                                                 271P    276
110,0D0,-2.7D1,0D0,0D0,-2.6D1,0D0;                                   273P    277
124,5.150808288231D-4,-1.117065915035D-2,9.999374735782D-1,          275P    278
-2.180592974322D-1,-9.989386189757D-1,-4.606121490954D-2,0D0,        275P    279
-2.7D1,4.605833486659D-2,-9.988761589182D-1,-1.118252807345D-2,      275P    280
-1.949878073477D1;                                                   275P    281
100,0D0,0D0,0D0,3D0,0D0,-2.760725579585D-1,2.987270316316D0;         277P    282
120,273,277,-3.215607267869D0,5.164909192752D-2;                     279P    283
508,4,0,163,23,1,0,0,163,29,1,0,0,163,24,0,0,0,163,30,0,0;           281P    284
510,279,1,0,281;                                                     283P    285
110,0D0,0D0,0D0,0D0,1D0,0D0;                                         285P    286
110,0D0,-2.754D1,-2.25D1,0D0,5.4D-1,-2.25D1;                         287P    287
120,285,287,3.078760800518D0,6.346017160251D0;                       289P    288
508,4,0,163,24,1,0,0,163,28,0,0,0,163,2,1,0,0,163,27,1,0;            291P    289
510,289,1,0,291;                                                     293P    290
110,0D0,-2.266666666667D1,0D0,0D0,-2.366666666667D1,0D0;             295P    291
110,-1.087013716893D1,-2.894254328728D1,0D0,-1.282141760752D1,       297P    292
-3.006911557376D1,0D0;                                               297P    293
120,295,297,-3.204424506662D0,6.283185307180D-2;                     299P    294
508,2,0,163,41,1,0,0,163,31,0,0;                                     301P    295
510,299,1,0,301;                                                     303P    296
110,0D0,-2.266666666667D1,0D0,0D0,-2.366666666667D1,0D0;             305P    297
110,-1.087013716893D1,-2.894254328728D1,0D0,-1.282141760752D1,       307P    298
-3.006911557376D1,0D0;                                               307P    299
120,305,307,-3.204424506662D0,6.283185307180D-2;                     309P    300
508,2,0,163,42,1,0,0,163,32,0,0;                                     311P    301
510,309,1,0,311;                                                     313P    302
110,0D0,-2.266666666667D1,0D0,0D0,-2.366666666667D1,0D0;             315P    303
110,-1.087013716893D1,-2.894254328728D1,0D0,-1.282141760752D1,       317P    304
-3.006911557376D1,0D0;                                               317P    305
120,315,317,-3.204424506662D0,6.283185307180D-2;                     319P    306
508,2,0,163,37,1,0,0,163,33,0,0;                                     321P    307
510,319,1,0,321;                                                     323P    308
128,1,1,1,1,0,0,1,0,0,-2.540341184434D-1,-2.540341184434D-1,         325P    309
1.295574004062D1,1.295574004062D1,-1.836D1,-1.836D1,3.6D-1,          325P    310
3.6D-1,1D0,1D0,1D0,1D0,1.282872298139D1,-1.164D1,-2.2D-1,            325P    311
6.223835901864D0,-1.164D1,1.122D1,1.282872298139D1,-3.036D1,         325P    312
-2.2D-1,6.223835901864D0,-3.036D1,1.122D1,-2.540341184434D-1,        325P    313
1.295574004062D1,-1.836D1,3.6D-1;                                    325P    314
508,4,0,163,41,0,0,0,163,47,1,0,0,163,7,1,0,0,163,48,0,0;            327P    315
510,325,1,0,327;                                                     329P    316
128,1,1,1,1,0,0,1,0,0,-2.540341184434D-1,-2.540341184434D-1,         331P    317
1.295574004062D1,1.295574004062D1,-1.836D1,-1.836D1,3.6D-1,          331P    318
3.6D-1,1D0,1D0,1D0,1D0,6.223835901864D0,-1.164D1,-1.122D1,           331P    319
1.282872298139D1,-1.164D1,2.2D-1,6.223835901864D0,-3.036D1,          331P    320
-1.122D1,1.282872298139D1,-3.036D1,2.2D-1,-2.540341184434D-1,        331P    321
1.295574004062D1,-1.836D1,3.6D-1;                                    331P    322
508,4,0,163,40,0,0,0,163,46,1,0,0,163,6,1,0,0,163,47,0,0;            333P    323
510,331,1,0,333;                                                     335P    324
110,0D0,-2.266666666667D1,0D0,0D0,-2.366666666667D1,0D0;             337P    325
110,-1.087013716893D1,-2.894254328728D1,0D0,-1.282141760752D1,       339P    326
-3.006911557376D1,0D0;                                               339P    327
120,337,339,-6.346017160251D0,-3.078760800518D0;                     341P    328
508,2,0,163,38,1,0,0,163,34,0,0;                                     343P    329
510,341,1,0,343;                                                     345P    330
110,0D0,-2.266666666667D1,0D0,0D0,-2.366666666667D1,0D0;             347P    331
110,-1.087013716893D1,-2.894254328728D1,0D0,-1.282141760752D1,       349P    332
-3.006911557376D1,0D0;                                               349P    333
120,347,349,-6.346017160251D0,-3.078760800518D0;                     351P    334
508,2,0,163,39,1,0,0,163,35,0,0;                                     353P    335
510,351,1,0,353;                                                     355P    336
110,0D0,-2.266666666667D1,0D0,0D0,-2.366666666667D1,0D0;             357P    337
110,-1.087013716893D1,-2.894254328728D1,0D0,-1.282141760752D1,       359P    338
-3.006911557376D1,0D0;                                               359P    339
120,357,359,-6.346017160251D0,-3.078760800518D0;                     361P    340
508,2,0,163,40,1,0,0,163,36,0,0;                                     363P    341
510,361,1,0,363;                                                     365P    342
128,1,1,1,1,0,0,1,0,0,-2.540341184434D-1,-2.540341184434D-1,         367P    343
1.295574004062D1,1.295574004062D1,-1.836D1,-1.836D1,3.6D-1,          367P    344
3.6D-1,1D0,1D0,1D0,1D0,-1.282872298139D1,-1.164D1,2.2D-1,            367P    345
-6.223835901864D0,-1.164D1,-1.122D1,-1.282872298139D1,-3.036D1,      367P    346
2.2D-1,-6.223835901864D0,-3.036D1,-1.122D1,-2.540341184434D-1,       367P    347
1.295574004062D1,-1.836D1,3.6D-1;                                    367P    348
508,4,0,163,38,0,0,0,163,44,1,0,0,163,4,1,0,0,163,45,0,0;            369P    349
510,367,1,0,369;                                                     371P    350
128,1,1,1,1,0,0,1,0,0,-2.540341184434D-1,-2.540341184434D-1,         373P    351
1.295574004062D1,1.295574004062D1,-1.836D1,-1.836D1,3.6D-1,          373P    352
3.6D-1,1D0,1D0,1D0,1D0,-6.223835901864D0,-1.164D1,1.122D1,           373P    353
-1.282872298139D1,-1.164D1,-2.2D-1,-6.223835901864D0,-3.036D1,       373P    354
1.122D1,-1.282872298139D1,-3.036D1,-2.2D-1,-2.540341184434D-1,       373P    355
1.295574004062D1,-1.836D1,3.6D-1;                                    373P    356
508,4,0,163,37,0,0,0,163,43,1,0,0,163,3,1,0,0,163,44,0,0;            375P    357
510,373,1,0,375;                                                     377P    358
128,1,1,1,1,0,0,1,0,0,-2.540341184434D-1,-2.540341184434D-1,         379P    359
1.295574004062D1,1.295574004062D1,-1.836D1,-1.836D1,3.6D-1,          379P    360
3.6D-1,1D0,1D0,1D0,1D0,6.604887079529D0,-1.164D1,1.1D1,              379P    361
-6.604887079529D0,-1.164D1,1.1D1,6.604887079529D0,-3.036D1,          379P    362
1.1D1,-6.604887079529D0,-3.036D1,1.1D1,-2.540341184434D-1,           379P    363
1.295574004062D1,-1.836D1,3.6D-1;                                    379P    364
508,4,0,163,42,0,0,0,163,48,1,0,0,163,8,1,0,0,163,43,0,0;            381P    365
510,379,1,0,381;                                                     383P    366
128,1,1,1,1,0,0,1,0,0,-1.320977415906D1,-1.320977415906D1,           385P    367
1.320977415906D1,1.320977415906D1,-1.144D1,-1.144D1,1.144D1,         385P    368
1.144D1,1D0,1D0,1D0,1D0,-1.320977415906D1,-1.2D1,-1.144D1,           385P    369
1.320977415906D1,-1.2D1,-1.144D1,-1.320977415906D1,-1.2D1,           385P    370
1.144D1,1.320977415906D1,-1.2D1,1.144D1,-1.320977415906D1,           385P    371
1.320977415906D1,-1.144D1,1.144D1;                                   385P    372
508,6,0,163,3,0,0,0,163,8,0,0,0,163,7,0,0,0,163,6,0,0,0,163,5,0,     387P    373
0,0,163,4,0,0;                                                       387P    374
510,385,1,0,387;                                                     389P    375
128,1,1,1,1,0,0,1,0,0,-2.540341184434D-1,-2.540341184434D-1,         391P    376
1.295574004062D1,1.295574004062D1,-1.836D1,-1.836D1,3.6D-1,          391P    377
3.6D-1,1D0,1D0,1D0,1D0,-6.604887079529D0,-1.164D1,-1.1D1,            391P    378
6.604887079529D0,-1.164D1,-1.1D1,-6.604887079529D0,-3.036D1,         391P    379
-1.1D1,6.604887079529D0,-3.036D1,-1.1D1,-2.540341184434D-1,          391P    380
1.295574004062D1,-1.836D1,3.6D-1;                                    391P    381
508,4,0,163,39,0,0,0,163,45,1,0,0,163,5,1,0,0,163,46,0,0;            393P    382
510,391,1,0,393;                                                     395P    383
514,26,169,1,179,1,189,1,199,1,211,0,223,0,233,1,241,1,251,1,        397P    384
263,1,271,0,283,1,293,1,303,0,313,0,323,0,329,0,335,0,345,0,355,     397P    385
0,365,0,371,0,377,0,383,0,389,1,395,0;                               397P    386
124,-1D0,0D0,0D0,0D0,0D0,0D0,1D0,6.6D1,0D0,1D0,0D0,0D0;              399P    387
100,0D0,0D0,0D0,1.09175D1,0D0,-1.09175D1,0D0;                        401P    388
110,1.09175D1,6.6D1,0D0,1.09175D1,0D0,0D0;                           403P    389
124,1D0,0D0,0D0,0D0,0D0,0D0,-1D0,0D0,0D0,1D0,0D0,0D0;                405P    390
100,0D0,0D0,0D0,1.09175D1,0D0,-1.09175D1,0D0;                        407P    391
124,1D0,0D0,0D0,0D0,0D0,0D0,1D0,6.6D1,0D0,-1D0,0D0,0D0;              409P    392
100,0D0,0D0,0D0,1.09175D1,0D0,-1.09175D1,0D0;                        411P    393
110,-1.09175D1,6.6D1,0D0,-1.09175D1,0D0,0D0;                         413P    394
124,-1D0,0D0,0D0,0D0,0D0,0D0,-1D0,0D0,0D0,-1D0,0D0,0D0;              415P    395
100,0D0,0D0,0D0,1.09175D1,0D0,-1.09175D1,0D0;                        417P    396
502,4,1.09175D1,6.6D1,0D0,-1.09175D1,6.6D1,0D0,1.09175D1,0D0,        419P    397
0D0,-1.09175D1,0D0,0D0;                                              419P    398
504,6,401,419,1,419,2,411,419,2,419,1,407,419,3,419,4,417,419,4,     421P    399
419,3,403,419,1,419,3,413,419,2,419,4;                               421P    400
110,0D0,6.6D1,0D0,0D0,6.5D1,0D0;                                     423P    401
110,1.09175D1,6.732D1,0D0,1.09175D1,-1.32D0,0D0;                     425P    402
120,423,425,-6.283185307180D-2,3.204424506662D0;                     427P    403
508,4,0,421,1,0,0,0,421,5,1,0,0,421,3,1,0,0,421,6,0,0;               429P    404
510,427,1,0,429;                                                     431P    405
110,0D0,6.6D1,0D0,0D0,6.5D1,0D0;                                     433P    406
110,1.09175D1,6.732D1,0D0,1.09175D1,-1.32D0,0D0;                     435P    407
120,433,435,3.078760800518D0,6.346017160251D0;                       437P    408
508,4,0,421,2,0,0,0,421,6,1,0,0,421,4,1,0,0,421,5,0,0;               439P    409
510,437,1,0,439;                                                     441P    410
514,2,431,1,441,1;                                                   443P    411
186,397,1,0;                                                         445P    412
S      1G      5D    446P    412                                        T      1
