 PTC IGES file: screw-m16x38-csn_02_1143.igs                            S      1
1H,,1H;,24HSCREW-M16X38-CSN_02_1143,28Hscrew-m16x38-csn_02_1143.igs,    G      1
49HPro/ENGINEER by Parametric Technology Corporation,7H2007160,32,38,7, G      2
38,15,24HSCREW-M16X38-CSN_02_1143,1.,2,2HMM,32768,0.5,                  G      3
15H20111214.100746,0.00637858,63.7883,13HVladimir Zima,7HUnknown,10,0,  G      4
15H20111214.100746;                                                     G      5
     314       1       1       1       0       0       0       001000200D      1
     314       0       4       1       0                   COLOR       1D      2
     314       2       1       1       0       0       0       001000200D      3
     314       0       1       1       0                   COLOR       2D      4
     314       3       1       1       0       0       0       001000200D      5
     314       0       1       1       0                   COLOR       3D      6
     314       4       1       1       0       0       0       001000200D      7
     314       0       1       1       0                   COLOR       4D      8
     314       5       1       1       0       0       0       001000200D      9
     314       0       8       1       0                   COLOR       5D     10
     314       6       1       1       0       0       0       001000200D     11
     314       0       8       1       0                   COLOR       6D     12
     314       7       1       1       0       0       0       001000200D     13
     314       0       5       1       0                   COLOR       7D     14
     314       8       1       1       0       0       0       001000200D     15
     314       0       8       1       0                   COLOR       8D     16
     124       9       1       1       0       0       0       001000000D     17
     124       0       0       2       0                   XFORM       1D     18
     100      11       1       1       0       0      17       001010000D     19
     100       0       0       1       0                     ARC       1D     20
     124      12       1       1       0       0       0       001000000D     21
     124       0       0       2       0                   XFORM       2D     22
     100      14       1       1       0       0      21       001010000D     23
     100       0       0       2       0                     ARC       2D     24
     110      16       1       1       0       0       0       001010000D     25
     110       0       0       2       0                    LINE       1D     26
     110      18       1       1       0       0       0       001010000D     27
     110       0       0       2       0                    LINE       2D     28
     124      20       1       1       0       0       0       001000000D     29
     124       0       0       1       0                   XFORM       3D     30
     100      21       1       1       0       0      29       001010000D     31
     100       0       0       1       0                     ARC       3D     32
     110      22       1       1       0       0       0       001010000D     33
     110       0       0       2       0                    LINE       3D     34
     124      24       1       1       0       0       0       001000000D     35
     124       0       0       2       0                   XFORM       4D     36
     100      26       1       1       0       0      35       001010000D     37
     100       0       0       1       0                     ARC       4D     38
     124      27       1       1       0       0       0       001000000D     39
     124       0       0       2       0                   XFORM       5D     40
     100      29       1       1       0       0      39       001010000D     41
     100       0       0       1       0                     ARC       5D     42
     124      30       1       1       0       0       0       001000000D     43
     124       0       0       2       0                   XFORM       6D     44
     100      32       1       1       0       0      43       001010000D     45
     100       0       0       1       0                     ARC       6D     46
     124      33       1       1       0       0       0       001000000D     47
     124       0       0       1       0                   XFORM       7D     48
     100      34       1       1       0       0      47       001010000D     49
     100       0       0       1       0                     ARC       7D     50
     110      35       1       1       0       0       0       001010000D     51
     110       0       0       2       0                    LINE       4D     52
     124      37       1       1       0       0       0       001000000D     53
     124       0       0       2       0                   XFORM       8D     54
     100      39       1       1       0       0      53       001010000D     55
     100       0       0       1       0                     ARC       8D     56
     124      40       1       1       0       0       0       001000000D     57
     124       0       0       1       0                   XFORM       9D     58
     100      41       1       1       0       0      57       001010000D     59
     100       0       0       1       0                     ARC       9D     60
     124      42       1       1       0       0       0       001000000D     61
     124       0       0       1       0                   XFORM      10D     62
     100      43       1       1       0       0      61       001010000D     63
     100       0       0       1       0                     ARC      10D     64
     124      44       1       1       0       0       0       001000000D     65
     124       0       0       2       0                   XFORM      11D     66
     100      46       1       1       0       0      65       001010000D     67
     100       0       0       1       0                     ARC      11D     68
     124      47       1       1       0       0       0       001000000D     69
     124       0       0       2       0                   XFORM      12D     70
     100      49       1       1       0       0      69       001010000D     71
     100       0       0       1       0                     ARC      12D     72
     124      50       1       1       0       0       0       001000000D     73
     124       0       0       1       0                   XFORM      13D     74
     100      51       1       1       0       0      73       001010000D     75
     100       0       0       1       0                     ARC      13D     76
     110      52       1       1       0       0       0       001010000D     77
     110       0       0       1       0                    LINE       5D     78
     124      53       1       1       0       0       0       001000000D     79
     124       0       0       1       0                   XFORM      14D     80
     100      54       1       1       0       0      79       001010000D     81
     100       0       0       1       0                     ARC      14D     82
     124      55       1       1       0       0       0       001000000D     83
     124       0       0       1       0                   XFORM      15D     84
     100      56       1       1       0       0      83       001010000D     85
     100       0       0       1       0                     ARC      15D     86
     124      57       1       1       0       0       0       001000000D     87
     124       0       0       1       0                   XFORM      16D     88
     100      58       1       1       0       0      87       001010000D     89
     100       0       0       1       0                     ARC      16D     90
     124      59       1       1       0       0       0       001000000D     91
     124       0       0       1       0                   XFORM      17D     92
     100      60       1       1       0       0      91       001010000D     93
     100       0       0       1       0                     ARC      17D     94
     124      61       1       1       0       0       0       001000000D     95
     124       0       0       2       0                   XFORM      18D     96
     100      63       1       1       0       0      95       001010000D     97
     100       0       0       1       0                     ARC      18D     98
     124      64       1       1       0       0       0       001000000D     99
     124       0       0       2       0                   XFORM      19D    100
     100      66       1       1       0       0      99       001010000D    101
     100       0       0       1       0                     ARC      19D    102
     124      67       1       1       0       0       0       001000000D    103
     124       0       0       1       0                   XFORM      20D    104
     100      68       1       1       0       0     103       001010000D    105
     100       0       0       1       0                     ARC      20D    106
     124      69       1       1       0       0       0       001000000D    107
     124       0       0       2       0                   XFORM      21D    108
     100      71       1       1       0       0     107       001010000D    109
     100       0       0       1       0                     ARC      21D    110
     124      72       1       1       0       0       0       001000000D    111
     124       0       0       2       0                   XFORM      22D    112
     100      74       1       1       0       0     111       001010000D    113
     100       0       0       1       0                     ARC      22D    114
     124      75       1       1       0       0       0       001000000D    115
     124       0       0       1       0                   XFORM      23D    116
     100      76       1       1       0       0     115       001010000D    117
     100       0       0       1       0                     ARC      23D    118
     124      77       1       1       0       0       0       001000000D    119
     124       0       0       1       0                   XFORM      24D    120
     100      78       1       1       0       0     119       001010000D    121
     100       0       0       1       0                     ARC      24D    122
     110      79       1       1       0       0       0       001010000D    123
     110       0       0       1       0                    LINE       6D    124
     126      80       1       1       0       0       0       001010000D    125
     126       0       0      13       0                B_SPLINE       1D    126
     110      93       1       1       0       0       0       001010000D    127
     110       0       0       1       0                    LINE       7D    128
     126      94       1       1       0       0       0       001010000D    129
     126       0       0      13       0                B_SPLINE       2D    130
     110     107       1       1       0       0       0       001010000D    131
     110       0       0       1       0                    LINE       8D    132
     126     108       1       1       0       0       0       001010000D    133
     126       0       0      13       0                B_SPLINE       3D    134
     110     121       1       1       0       0       0       001010000D    135
     110       0       0       1       0                    LINE       9D    136
     126     122       1       1       0       0       0       001010000D    137
     126       0       0      13       0                B_SPLINE       4D    138
     110     135       1       1       0       0       0       001010000D    139
     110       0       0       1       0                    LINE      10D    140
     126     136       1       1       0       0       0       001010000D    141
     126       0       0      11       0                B_SPLINE       5D    142
     110     147       1       1       0       0       0       001010000D    143
     110       0       0       1       0                    LINE      11D    144
     110     148       1       1       0       0       0       001010000D    145
     110       0       0       1       0                    LINE      12D    146
     110     149       1       1       0       0       0       001010000D    147
     110       0       0       1       0                    LINE      13D    148
     110     150       1       1       0       0       0       001010000D    149
     110       0       0       1       0                    LINE      14D    150
     110     151       1       1       0       0       0       001010000D    151
     110       0       0       1       0                    LINE      15D    152
     110     152       1       1       0       0       0       001010000D    153
     110       0       0       1       0                    LINE      16D    154
     110     153       1       1       0       0       0       001010000D    155
     110       0       0       1       0                    LINE      17D    156
     126     154       1       1       0       0       0       001010000D    157
     126       0       0      11       0                B_SPLINE       6D    158
     110     165       1       1       0       0       0       001010000D    159
     110       0       0       1       0                    LINE      18D    160
     502     166       1       1       0       0       0       001010000D    161
     502       0       0      13       1                  VERTEX       1D    162
     504     179       1       1       0       0       0       000010001D    163
     504       0       0      14       1                    EDGE       1D    164
     128     193       1       1       0       0       0       001010000D    165
     128       0       0       6       0                  SPLSRF       1D    166
     508     199       1       1       0       0       0       001010000D    167
     508       0       0       1       1                EDGELOOP       1D    168
     510     200       1       1       0       0       0       000010000D    169
     510       0       0       1       1                    FACE       1D    170
     110     201       1       1       0       0       0       001010000D    171
     110       0       0       1       0                    LINE      19D    172
     110     202       1       1       0       0       0       001010000D    173
     110       0       0       2       0                    LINE      20D    174
     120     204       1       1       0       0       0       001010000D    175
     120       0       0       1       0                    SREV       1D    176
     508     205       1       1       0       0       0       001010000D    177
     508       0       0       1       1                EDGELOOP       2D    178
     510     206       1       1       0       0       0       000010000D    179
     510       0       0       1       1                    FACE       2D    180
     110     207       1       1       0       0       0       001010000D    181
     110       0       0       2       0                    LINE      21D    182
     110     209       1       1       0       0       0       001010000D    183
     110       0       0       2       0                    LINE      22D    184
     120     211       1       1       0       0       0       001010000D    185
     120       0       0       1       0                    SREV       2D    186
     508     212       1       1       0       0       0       001010000D    187
     508       0       0       1       1                EDGELOOP       3D    188
     510     213       1       1       0       0       0       000010000D    189
     510       0       0       1       1                    FACE       3D    190
     110     214       1       1       0       0       0       001010000D    191
     110       0       0       1       0                    LINE      23D    192
     110     215       1       1       0       0       0       001010000D    193
     110       0       0       1       0                    LINE      24D    194
     120     216       1       1       0       0       0       001010000D    195
     120       0       0       1       0                    SREV       3D    196
     508     217       1       1       0       0       0       001010000D    197
     508       0       0       1       1                EDGELOOP       4D    198
     510     218       1       1       0       0       0       000010000D    199
     510       0       0       1       1                    FACE       4D    200
     110     219       1       1       0       0       0       001010000D    201
     110       0       0       1       0                    LINE      25D    202
     124     220       1       1       0       0       0       001000000D    203
     124       0       0       4       0                   XFORM      25D    204
     100     224       1       1       0       0     203       001010000D    205
     100       0       0       1       0                     ARC      25D    206
     120     225       1       1       0       0       0       001010000D    207
     120       0       0       1       0                    SREV       4D    208
     508     226       1       1       0       0       0       001010000D    209
     508       0       0       1       1                EDGELOOP       5D    210
     510     227       1       1       0       0       0       000010000D    211
     510       0       0       1       1                    FACE       5D    212
     110     228       1       1       0       0       0       001010000D    213
     110       0       0       1       0                    LINE      26D    214
     124     229       1       1       0       0       0       001000000D    215
     124       0       0       4       0                   XFORM      26D    216
     100     233       1       1       0       0     215       001010000D    217
     100       0       0       1       0                     ARC      26D    218
     120     234       1       1       0       0       0       001010000D    219
     120       0       0       1       0                    SREV       5D    220
     508     235       1       1       0       0       0       001010000D    221
     508       0       0       1       1                EDGELOOP       6D    222
     510     236       1       1       0       0       0       000010000D    223
     510       0       0       1       1                    FACE       6D    224
     110     237       1       1       0       0       0       001010000D    225
     110       0       0       1       0                    LINE      27D    226
     110     238       1       1       0       0       0       001010000D    227
     110       0       0       1       0                    LINE      28D    228
     120     239       1       1       0       0       0       001010000D    229
     120       0       0       1       0                    SREV       6D    230
     508     240       1       1       0       0       0       001010000D    231
     508       0       0       1       1                EDGELOOP       7D    232
     510     241       1       1       0       0       0       000010000D    233
     510       0       0       1       1                    FACE       7D    234
     128     242       1       1       0       0       0       001010000D    235
     128       0       0       6       0                  SPLSRF       2D    236
     508     248       1       1       0       0       0       001010000D    237
     508       0       0       1       1                EDGELOOP       8D    238
     508     249       1       1       0       0       0       001010000D    239
     508       0       0       1       1                EDGELOOP       9D    240
     510     250       1       1       0       0       0       000010000D    241
     510       0       0       1       1                    FACE       8D    242
     110     251       1       1       0       0       0       001010000D    243
     110       0       0       1       0                    LINE      29D    244
     110     252       1       1       0       0       0       001010000D    245
     110       0       0       1       0                    LINE      30D    246
     120     253       1       1       0       0       0       001010000D    247
     120       0       0       1       0                    SREV       7D    248
     508     254       1       1       0       0       0       001010000D    249
     508       0       0       1       1                EDGELOOP      10D    250
     510     255       1       1       0       0       0       000010000D    251
     510       0       0       1       1                    FACE       9D    252
     110     256       1       1       0       0       0       001010000D    253
     110       0       0       1       0                    LINE      31D    254
     124     257       1       1       0       0       0       001000000D    255
     124       0       0       4       0                   XFORM      27D    256
     100     261       1       1       0       0     255       001010000D    257
     100       0       0       1       0                     ARC      27D    258
     120     262       1       1       0       0       0       001010000D    259
     120       0       0       1       0                    SREV       8D    260
     508     263       1       1       0       0       0       001010000D    261
     508       0       0       1       1                EDGELOOP      11D    262
     510     264       1       1       0       0       0       000010000D    263
     510       0       0       1       1                    FACE      10D    264
     128     265       1       1       0       0       0       001010000D    265
     128       0       0       6       0                  SPLSRF       3D    266
     508     271       1       1       0       0       0       001010000D    267
     508       0       0       1       1                EDGELOOP      12D    268
     508     272       1       1       0       0       0       001010000D    269
     508       0       0       2       1                EDGELOOP      13D    270
     510     274       1       1       0       0       0       000010000D    271
     510       0       0       1       1                    FACE      11D    272
     110     275       1       1       0       0       0       001010000D    273
     110       0       0       1       0                    LINE      32D    274
     124     276       1       1       0       0       0       001000000D    275
     124       0       0       4       0                   XFORM      28D    276
     100     280       1       1       0       0     275       001010000D    277
     100       0       0       1       0                     ARC      28D    278
     120     281       1       1       0       0       0       001010000D    279
     120       0       0       1       0                    SREV       9D    280
     508     282       1       1       0       0       0       001010000D    281
     508       0       0       1       1                EDGELOOP      14D    282
     510     283       1       1       0       0       0       000010000D    283
     510       0       0       1       1                    FACE      12D    284
     110     284       1       1       0       0       0       001010000D    285
     110       0       0       1       0                    LINE      33D    286
     110     285       1       1       0       0       0       001010000D    287
     110       0       0       1       0                    LINE      34D    288
     120     286       1       1       0       0       0       001010000D    289
     120       0       0       1       0                    SREV      10D    290
     508     287       1       1       0       0       0       001010000D    291
     508       0       0       1       1                EDGELOOP      15D    292
     510     288       1       1       0       0       0       000010000D    293
     510       0       0       1       1                    FACE      13D    294
     110     289       1       1       0       0       0       001010000D    295
     110       0       0       1       0                    LINE      35D    296
     110     290       1       1       0       0       0       001010000D    297
     110       0       0       2       0                    LINE      36D    298
     120     292       1       1       0       0       0       001010000D    299
     120       0       0       1       0                    SREV      11D    300
     508     293       1       1       0       0       0       001010000D    301
     508       0       0       1       1                EDGELOOP      16D    302
     510     294       1       1       0       0       0       000010000D    303
     510       0       0       1       1                    FACE      14D    304
     110     295       1       1       0       0       0       001010000D    305
     110       0       0       1       0                    LINE      37D    306
     110     296       1       1       0       0       0       001010000D    307
     110       0       0       2       0                    LINE      38D    308
     120     298       1       1       0       0       0       001010000D    309
     120       0       0       1       0                    SREV      12D    310
     508     299       1       1       0       0       0       001010000D    311
     508       0       0       1       1                EDGELOOP      17D    312
     510     300       1       1       0       0       0       000010000D    313
     510       0       0       1       1                    FACE      15D    314
     110     301       1       1       0       0       0       001010000D    315
     110       0       0       1       0                    LINE      39D    316
     110     302       1       1       0       0       0       001010000D    317
     110       0       0       2       0                    LINE      40D    318
     120     304       1       1       0       0       0       001010000D    319
     120       0       0       1       0                    SREV      13D    320
     508     305       1       1       0       0       0       001010000D    321
     508       0       0       1       1                EDGELOOP      18D    322
     510     306       1       1       0       0       0       000010000D    323
     510       0       0       1       1                    FACE      16D    324
     128     307       1       1       0       0       0       001010000D    325
     128       0       0       6       0                  SPLSRF       4D    326
     508     313       1       1       0       0       0       001010000D    327
     508       0       0       1       1                EDGELOOP      19D    328
     510     314       1       1       0       0       0       000010000D    329
     510       0       0       1       1                    FACE      17D    330
     128     315       1       1       0       0       0       001010000D    331
     128       0       0       6       0                  SPLSRF       5D    332
     508     321       1       1       0       0       0       001010000D    333
     508       0       0       1       1                EDGELOOP      20D    334
     510     322       1       1       0       0       0       000010000D    335
     510       0       0       1       1                    FACE      18D    336
     110     323       1       1       0       0       0       001010000D    337
     110       0       0       1       0                    LINE      41D    338
     110     324       1       1       0       0       0       001010000D    339
     110       0       0       2       0                    LINE      42D    340
     120     326       1       1       0       0       0       001010000D    341
     120       0       0       1       0                    SREV      14D    342
     508     327       1       1       0       0       0       001010000D    343
     508       0       0       1       1                EDGELOOP      21D    344
     510     328       1       1       0       0       0       000010000D    345
     510       0       0       1       1                    FACE      19D    346
     110     329       1       1       0       0       0       001010000D    347
     110       0       0       1       0                    LINE      43D    348
     110     330       1       1       0       0       0       001010000D    349
     110       0       0       2       0                    LINE      44D    350
     120     332       1       1       0       0       0       001010000D    351
     120       0       0       1       0                    SREV      15D    352
     508     333       1       1       0       0       0       001010000D    353
     508       0       0       1       1                EDGELOOP      22D    354
     510     334       1       1       0       0       0       000010000D    355
     510       0       0       1       1                    FACE      20D    356
     110     335       1       1       0       0       0       001010000D    357
     110       0       0       1       0                    LINE      45D    358
     110     336       1       1       0       0       0       001010000D    359
     110       0       0       2       0                    LINE      46D    360
     120     338       1       1       0       0       0       001010000D    361
     120       0       0       1       0                    SREV      16D    362
     508     339       1       1       0       0       0       001010000D    363
     508       0       0       1       1                EDGELOOP      23D    364
     510     340       1       1       0       0       0       000010000D    365
     510       0       0       1       1                    FACE      21D    366
     128     341       1       1       0       0       0       001010000D    367
     128       0       0       6       0                  SPLSRF       6D    368
     508     347       1       1       0       0       0       001010000D    369
     508       0       0       1       1                EDGELOOP      24D    370
     510     348       1       1       0       0       0       000010000D    371
     510       0       0       1       1                    FACE      22D    372
     128     349       1       1       0       0       0       001010000D    373
     128       0       0       6       0                  SPLSRF       7D    374
     508     355       1       1       0       0       0       001010000D    375
     508       0       0       1       1                EDGELOOP      25D    376
     510     356       1       1       0       0       0       000010000D    377
     510       0       0       1       1                    FACE      23D    378
     128     357       1       1       0       0       0       001010000D    379
     128       0       0       5       0                  SPLSRF       8D    380
     508     362       1       1       0       0       0       001010000D    381
     508       0       0       1       1                EDGELOOP      26D    382
     510     363       1       1       0       0       0       000010000D    383
     510       0       0       1       1                    FACE      24D    384
     128     364       1       1       0       0       0       001010000D    385
     128       0       0       5       0                  SPLSRF       9D    386
     508     369       1       1       0       0       0       001010000D    387
     508       0       0       2       1                EDGELOOP      27D    388
     510     371       1       1       0       0       0       000010000D    389
     510       0       0       1       1                    FACE      25D    390
     128     372       1       1       0       0       0       001010000D    391
     128       0       0       6       0                  SPLSRF      10D    392
     508     378       1       1       0       0       0       001010000D    393
     508       0       0       1       1                EDGELOOP      28D    394
     510     379       1       1       0       0       0       000010000D    395
     510       0       0       1       1                    FACE      26D    396
     514     380       1       1       0       0       0       000010000D    397
     514       0       0       3       1                   SHELL       1D    398
     124     383       1       1       0       0       0       001000000D    399
     124       0       0       1       0                   XFORM      29D    400
     100     384       1       1       0       0     399       001010000D    401
     100       0       0       1       0                     ARC      29D    402
     110     385       1       1       0       0       0       001010000D    403
     110       0       0       1       0                    LINE      47D    404
     124     386       1       1       0       0       0       001000000D    405
     124       0       0       1       0                   XFORM      30D    406
     100     387       1       1       0       0     405       001010000D    407
     100       0       0       1       0                     ARC      30D    408
     124     388       1       1       0       0       0       001000000D    409
     124       0       0       1       0                   XFORM      31D    410
     100     389       1       1       0       0     409       001010000D    411
     100       0       0       1       0                     ARC      31D    412
     110     390       1       1       0       0       0       001010000D    413
     110       0       0       1       0                    LINE      48D    414
     124     391       1       1       0       0       0       001000000D    415
     124       0       0       1       0                   XFORM      32D    416
     100     392       1       1       0       0     415       001010000D    417
     100       0       0       1       0                     ARC      32D    418
     502     393       1       1       0       0       0       001010000D    419
     502       0       0       2       1                  VERTEX       2D    420
     504     395       1       1       0       0       0       000010001D    421
     504       0       0       2       1                    EDGE       2D    422
     110     397       1       1       0       0       0       001010000D    423
     110       0       0       1       0                    LINE      49D    424
     110     398       1       1       0       0       0       001010000D    425
     110       0       0       1       0                    LINE      50D    426
     120     399       1       1       0       0       0       001010000D    427
     120       0       0       1       0                    SREV      17D    428
     508     400       1       1       0       0       0       001010000D    429
     508       0       0       1       1                EDGELOOP      29D    430
     510     401       1       1       0       0       0       000010000D    431
     510       0       0       1       1                    FACE      27D    432
     110     402       1       1       0       0       0       001010000D    433
     110       0       0       1       0                    LINE      51D    434
     110     403       1       1       0       0       0       001010000D    435
     110       0       0       1       0                    LINE      52D    436
     120     404       1       1       0       0       0       001010000D    437
     120       0       0       1       0                    SREV      18D    438
     508     405       1       1       0       0       0       001010000D    439
     508       0       0       1       1                EDGELOOP      30D    440
     510     406       1       1       0       0       0       000010000D    441
     510       0       0       1       1                    FACE      28D    442
     514     407       1       1       0       0       0       000000000D    443
     514       0       0       1       1                   SHELL       2D    444
     186     408       1       1       0       0       0       000000000D    445
     186       0       0       1       0                    MSBR       1D    446
314,1.1D0,1.2D0,1D2;                                                   1P      1
314,1.1D1,1.1D1,1.1D1;                                                 3P      2
314,3.92D1,1.2D0,1.2D0;                                                5P      3
314,4.1D1,0D0,2.2D1;                                                   7P      4
314,8.784D1,9.49D1,1D2;                                                9P      5
314,9.6D1,9.6D1,9.6D1;                                                11P      6
314,9.8D1,6.27D1,0D0;                                                 13P      7
314,1D2,1D2,9.49D1;                                                   15P      8
124,0D0,-1D0,0D0,0D0,0D0,0D0,1D0,3.799998977818D1,-1D0,0D0,0D0,       17P      9
1.021405182655D-14;                                                   17P     10
100,0D0,0D0,0D0,7.399985544597D0,0D0,-7.399985544597D0,0D0;           19P     11
124,0D0,1D0,0D0,1.088018564133D-14,0D0,0D0,1D0,3.799998977818D1,      21P     12
1D0,0D0,0D0,1.865174681370D-14;                                       21P     13
100,0D0,0D0,0D0,7.399985544597D0,0D0,-7.399985544597D0,               23P     14
-2.209756920220D-14;                                                  23P     15
110,-3.802318189855D-9,3.799999177487D1,-7.399991773643D0,            25P     16
-3.082959938065D-9,3.739999333097D1,-7.999993329981D0;                25P     17
110,3.802317130156D-9,3.799999177487D1,7.399991773643D0,              27P     18
3.082957530427D-9,3.739999333097D1,7.999993329981D0;                  27P     19
124,0D0,1D0,0D0,0D0,0D0,0D0,-1D0,6D-1,-1D0,0D0,0D0,0D0;               29P     20
100,0D0,0D0,0D0,8D0,0D0,-8D0,0D0;                                     31P     21
110,-2.614616422675D-13,6D-1,8D0,3.082957530427D-9,                   33P     22
3.739999333097D1,7.999993329981D0;                                    33P     23
124,0D0,1D0,0D0,0D0,0D0,0D0,1D0,3.739999536014D1,1D0,0D0,0D0,         35P     24
0D0;                                                                  35P     25
100,0D0,0D0,0D0,8D0,0D0,-8D0,0D0;                                     37P     26
124,6.395699941875D-13,0D0,1D0,-5.500294664174D-12,0D0,-1D0,0D0,      39P     27
6D-1,1D0,0D0,-6.395699941875D-13,-8.6D0;                              39P     28
100,0D0,0D0,0D0,6D-1,0D0,7.477695220838D-14,6D-1;                     41P     29
124,-6.396896901073D-13,0D0,-1D0,5.501321620471D-12,0D0,-1D0,         43P     30
0D0,6D-1,-1D0,0D0,6.396896901073D-13,8.6D0;                           43P     31
100,0D0,0D0,0D0,6D-1,0D0,7.477695220838D-14,6D-1;                     45P     32
124,0D0,-1D0,0D0,0D0,0D0,0D0,-1D0,6D-1,1D0,0D0,0D0,0D0;               47P     33
100,0D0,0D0,0D0,8D0,0D0,-8D0,0D0;                                     49P     34
110,2.617050587018D-13,6D-1,-8D0,-3.082959938065D-9,                  51P     35
3.739999333097D1,-7.999993329981D0;                                   51P     36
124,0D0,-1D0,0D0,0D0,0D0,0D0,1D0,3.739999536014D1,-1D0,0D0,0D0,       53P     37
0D0;                                                                  53P     38
100,0D0,0D0,0D0,8D0,0D0,-8D0,0D0;                                     55P     39
124,0D0,-1D0,0D0,0D0,0D0,0D0,1D0,0D0,-1D0,0D0,0D0,0D0;                57P     40
100,0D0,0D0,0D0,1.2D1,0D0,-1.2D1,0D0;                                 59P     41
124,0D0,1D0,0D0,0D0,0D0,0D0,1D0,0D0,1D0,0D0,0D0,0D0;                  61P     42
100,0D0,0D0,0D0,1.2D1,0D0,-1.2D1,0D0;                                 63P     43
124,0D0,-1D0,0D0,0D0,0D0,0D0,-1D0,1.720845688169D-14,1D0,0D0,         65P     44
0D0,0D0;                                                              65P     45
100,0D0,0D0,0D0,8.599999856500D0,0D0,-8.599999856500D0,0D0;           67P     46
124,0D0,1D0,0D0,0D0,0D0,0D0,-1D0,1.720845688169D-14,-1D0,0D0,         69P     47
0D0,0D0;                                                              69P     48
100,0D0,0D0,0D0,8.599999856500D0,0D0,-8.599999856500D0,0D0;           71P     49
124,0D0,-1D0,0D0,0D0,0D0,0D0,-1D0,-1.4D1,1D0,0D0,0D0,0D0;             73P     50
100,0D0,0D0,0D0,1.2D1,0D0,-1.2D1,0D0;                                 75P     51
110,0D0,0D0,-1.2D1,-1.215029579770D-11,-1.4D1,-1.2D1;                 77P     52
124,0D0,0D0,-1D0,0D0,-1D0,0D0,0D0,-1.4D1,0D0,1D0,0D0,1D1;             79P     53
100,0D0,0D0,0D0,2D0,0D0,0D0,2D0;                                      81P     54
124,0D0,1D0,0D0,0D0,0D0,0D0,-1D0,-1.6D1,-1D0,0D0,0D0,0D0;             83P     55
100,0D0,0D0,0D0,9.999999921160D0,0D0,-9.999999921160D0,0D0;           85P     56
124,0D0,-1D0,0D0,0D0,0D0,0D0,-1D0,-1.6D1,1D0,0D0,0D0,0D0;             87P     57
100,0D0,0D0,0D0,9.999999921160D0,0D0,-9.999999921160D0,0D0;           89P     58
124,1D0,0D0,0D0,0D0,0D0,0D0,-1D0,-1.6D1,0D0,1D0,0D0,0D0;              91P     59
100,0D0,0D0,0D0,8.082903768655D0,0D0,4.041451884327D0,7D0;            93P     60
124,5D-1,-8.660254037844D-1,0D0,0D0,0D0,0D0,-1D0,-1.6D1,              95P     61
8.660254037844D-1,5D-1,0D0,0D0;                                       95P     62
100,0D0,0D0,0D0,8.082903768655D0,0D0,4.041451884327D0,7D0;            97P     63
124,-5D-1,-8.660254037844D-1,0D0,0D0,0D0,0D0,-1D0,-1.6D1,             99P     64
8.660254037844D-1,-5D-1,0D0,0D0;                                      99P     65
100,0D0,0D0,0D0,8.082903768655D0,0D0,4.041451884327D0,7D0;           101P     66
124,-1D0,0D0,0D0,0D0,0D0,0D0,-1D0,-1.6D1,0D0,-1D0,0D0,0D0;           103P     67
100,0D0,0D0,0D0,8.082903768655D0,0D0,4.041451884327D0,7D0;           105P     68
124,-5D-1,8.660254037844D-1,0D0,0D0,0D0,0D0,-1D0,-1.6D1,             107P     69
-8.660254037844D-1,-5D-1,0D0,0D0;                                    107P     70
100,0D0,0D0,0D0,8.082903768655D0,0D0,4.041451884327D0,7D0;           109P     71
124,5D-1,8.660254037844D-1,0D0,0D0,0D0,0D0,-1D0,-1.6D1,              111P     72
-8.660254037844D-1,5D-1,0D0,0D0;                                     111P     73
100,0D0,0D0,0D0,8.082903768655D0,0D0,4.041451884327D0,7D0;           113P     74
124,0D0,0D0,1D0,0D0,-1D0,0D0,0D0,-1.4D1,0D0,-1D0,0D0,-1D1;           115P     75
100,0D0,0D0,0D0,2D0,0D0,0D0,2D0;                                     117P     76
124,0D0,1D0,0D0,0D0,0D0,0D0,-1D0,-1.4D1,-1D0,0D0,0D0,0D0;            119P     77
100,0D0,0D0,0D0,1.2D1,0D0,-1.2D1,0D0;                                121P     78
110,0D0,0D0,1.2D1,1.215189830272D-11,-1.4D1,1.2D1;                   123P     79
126,9,3,0,0,1,0,0D0,0D0,0D0,0D0,1.428571428571D-1,                   125P     80
2.857142857143D-1,4.285714285714D-1,5.714285714286D-1,               125P     81
7.142857142857D-1,8.571428571429D-1,1D0,1D0,1D0,1D0,1D0,1D0,1D0,     125P     82
1D0,1D0,1D0,1D0,1D0,1D0,1D0,8.082903768655D0,-1.6D1,0D0,             125P     83
7.879761502189D0,-1.588271575777D1,3.518527266829D-1,                125P     84
7.480672340144D0,-1.567924730143D1,1.043095432096D0,                 125P     85
6.911604269981D0,-1.547592252252D1,2.028750242582D0,                 125P     86
6.345033930544D0,-1.537036235250D1,3.010078856549D0,                 125P     87
5.778662307788D0,-1.537041594497D1,3.991063283128D0,                 125P     88
5.212040660972D0,-1.547613501108D1,4.972480764082D0,                 125P     89
4.643520632851D0,-1.567934264975D1,5.957186337908D0,                 125P     90
4.244544093814D0,-1.588274465818D1,6.648233974548D0,                 125P     91
4.041451884327D0,-1.6D1,7D0,0D0,1D0,0D0,0D0,1D0;                     125P     92
110,8.082903768655D0,-1.6D1,0D0,8.082903768655D0,-7D0,0D0;           127P     93
126,9,3,0,0,1,0,0D0,0D0,0D0,0D0,1.428571428571D-1,                   129P     94
2.857142857143D-1,4.285714285714D-1,5.714285714286D-1,               129P     95
7.142857142857D-1,8.571428571429D-1,1D0,1D0,1D0,1D0,1D0,1D0,1D0,     129P     96
1D0,1D0,1D0,1D0,1D0,1D0,1D0,4.041451884327D0,-1.6D1,-7D0,            129P     97
4.244594150793D0,-1.588271575777D1,-6.648147273317D0,                129P     98
4.643683312839D0,-1.567924730143D1,-5.956904567904D0,                129P     99
5.212751383001D0,-1.547592252252D1,-4.971249757418D0,                129P    100
5.779321722438D0,-1.537036235250D1,-3.989921143451D0,                129P    101
6.345693345194D0,-1.537041594497D1,-3.008936716872D0,                129P    102
6.912314992010D0,-1.547613501108D1,-2.027519235918D0,                129P    103
7.480835020131D0,-1.567934264975D1,-1.042813662092D0,                129P    104
7.879811559169D0,-1.588274465818D1,-3.517660254516D-1,               129P    105
8.082903768655D0,-1.6D1,0D0,0D0,1D0,0D0,0D0,1D0;                     129P    106
110,4.041451884327D0,-1.6D1,-7D0,4.041451884327D0,-7D0,-7D0;         131P    107
126,9,3,0,0,1,0,0D0,0D0,0D0,0D0,1.428571428571D-1,                   133P    108
2.857142857143D-1,4.285714285714D-1,5.714285714286D-1,               133P    109
7.142857142857D-1,8.571428571429D-1,1D0,1D0,1D0,1D0,1D0,1D0,1D0,     133P    110
1D0,1D0,1D0,1D0,1D0,1D0,1D0,-8.082903768655D0,-1.6D1,0D0,            133P    111
-7.879761502189D0,-1.588271575777D1,-3.518527266829D-1,              133P    112
-7.480672340144D0,-1.567924730143D1,-1.043095432096D0,               133P    113
-6.911604269981D0,-1.547592252252D1,-2.028750242582D0,               133P    114
-6.345033930544D0,-1.537036235250D1,-3.010078856549D0,               133P    115
-5.778662307788D0,-1.537041594497D1,-3.991063283128D0,               133P    116
-5.212040660972D0,-1.547613501108D1,-4.972480764082D0,               133P    117
-4.643520632851D0,-1.567934264975D1,-5.957186337908D0,               133P    118
-4.244544093814D0,-1.588274465818D1,-6.648233974548D0,               133P    119
-4.041451884327D0,-1.6D1,-7D0,0D0,1D0,0D0,0D0,1D0;                   133P    120
110,-8.082903768655D0,-1.6D1,0D0,-8.082903768655D0,-7D0,0D0;         135P    121
126,9,3,0,0,1,0,0D0,0D0,0D0,0D0,1.428571428571D-1,                   137P    122
2.857142857143D-1,4.285714285714D-1,5.714285714286D-1,               137P    123
7.142857142857D-1,8.571428571429D-1,1D0,1D0,1D0,1D0,1D0,1D0,1D0,     137P    124
1D0,1D0,1D0,1D0,1D0,1D0,1D0,-4.041451884327D0,-1.6D1,7D0,            137P    125
-4.244594150793D0,-1.588271575777D1,6.648147273317D0,                137P    126
-4.643683312839D0,-1.567924730143D1,5.956904567904D0,                137P    127
-5.212751383001D0,-1.547592252252D1,4.971249757418D0,                137P    128
-5.779321722438D0,-1.537036235250D1,3.989921143451D0,                137P    129
-6.345693345194D0,-1.537041594497D1,3.008936716872D0,                137P    130
-6.912314992010D0,-1.547613501108D1,2.027519235918D0,                137P    131
-7.480835020131D0,-1.567934264975D1,1.042813662092D0,                137P    132
-7.879811559169D0,-1.588274465818D1,3.517660254516D-1,               137P    133
-8.082903768655D0,-1.6D1,0D0,0D0,1D0,0D0,0D0,1D0;                    137P    134
110,-4.041451884327D0,-1.6D1,7D0,-4.041451884327D0,-7D0,7D0;         139P    135
126,9,3,0,0,1,0,0D0,0D0,0D0,0D0,1.428571428571D-1,                   141P    136
2.857142857143D-1,4.285714285714D-1,5.714285714286D-1,               141P    137
7.142857142857D-1,8.571428571429D-1,1D0,1D0,1D0,1D0,1D0,1D0,1D0,     141P    138
1D0,1D0,1D0,1D0,1D0,1D0,1D0,4.041451884327D0,-1.6D1,7D0,             141P    139
3.635167351396D0,-1.588271575777D1,7D0,2.836989027305D0,             141P    140
-1.567924730143D1,7D0,1.698852886981D0,-1.547592252252D1,7D0,        141P    141
5.657122081067D-1,-1.537036235250D1,7D0,-5.670310374058D-1,          141P    142
-1.537041594497D1,7D0,-1.700274331039D0,-1.547613501108D1,7D0,       141P    143
-2.837314387280D0,-1.567934264975D1,7D0,-3.635267465355D0,           141P    144
-1.588274465818D1,7D0,-4.041451884327D0,-1.6D1,7D0,0D0,1D0,0D0,      141P    145
0D0,1D0;                                                             141P    146
110,4.041451884327D0,-1.6D1,7D0,4.041451884327D0,-7D0,7D0;           143P    147
110,-4.041451884327D0,-7D0,7D0,-8.082903768655D0,-7D0,0D0;           145P    148
110,4.041451884327D0,-7D0,7D0,-4.041451884327D0,-7D0,7D0;            147P    149
110,8.082903768655D0,-7D0,0D0,4.041451884327D0,-7D0,7D0;             149P    150
110,4.041451884327D0,-7D0,-7D0,8.082903768655D0,-7D0,0D0;            151P    151
110,-4.041451884327D0,-7D0,-7D0,4.041451884327D0,-7D0,-7D0;          153P    152
110,-8.082903768655D0,-7D0,0D0,-4.041451884327D0,-7D0,-7D0;          155P    153
126,9,3,0,0,1,0,0D0,0D0,0D0,0D0,1.428571428571D-1,                   157P    154
2.857142857143D-1,4.285714285714D-1,5.714285714286D-1,               157P    155
7.142857142857D-1,8.571428571429D-1,1D0,1D0,1D0,1D0,1D0,1D0,1D0,     157P    156
1D0,1D0,1D0,1D0,1D0,1D0,1D0,-4.041451884327D0,-1.6D1,-7D0,           157P    157
-3.635167351396D0,-1.588271575777D1,-7D0,-2.836989027305D0,          157P    158
-1.567924730143D1,-7D0,-1.698852886981D0,-1.547592252252D1,-7D0,     157P    159
-5.657122081067D-1,-1.537036235250D1,-7D0,5.670310374058D-1,         157P    160
-1.537041594497D1,-7D0,1.700274331039D0,-1.547613501108D1,-7D0,      157P    161
2.837314387280D0,-1.567934264975D1,-7D0,3.635267465355D0,            157P    162
-1.588274465818D1,-7D0,4.041451884327D0,-1.6D1,-7D0,0D0,1D0,0D0,     157P    163
0D0,1D0;                                                             157P    164
110,-4.041451884327D0,-1.6D1,-7D0,-4.041451884327D0,-7D0,-7D0;       159P    165
502,26,0D0,0D0,-1.2D1,0D0,0D0,1.2D1,-4.041451884327D0,-7D0,7D0,      161P    166
-8.082903768655D0,-7D0,0D0,-4.041451884327D0,-7D0,-7D0,              161P    167
4.041451884327D0,-7D0,-7D0,8.082903768655D0,-7D0,0D0,                161P    168
4.041451884327D0,-7D0,7D0,0D0,3.799998977818D1,                      161P    169
-7.399985544597D0,0D0,3.799998977818D1,7.399985544597D0,0D0,         161P    170
3.739999536014D1,-8D0,0D0,3.739999536014D1,8D0,0D0,6D-1,8D0,0D0,     161P    171
6D-1,-8D0,0D0,1.720845688169D-14,8.599999856500D0,0D0,               161P    172
1.720845688169D-14,-8.599999856500D0,0D0,-1.6D1,                     161P    173
-9.999999921160D0,0D0,-1.6D1,9.999999921160D0,0D0,-1.4D1,-1.2D1,     161P    174
0D0,-1.4D1,1.2D1,8.082903768655D0,-1.6D1,0D0,4.041451884327D0,       161P    175
-1.6D1,7D0,-4.041451884327D0,-1.6D1,7D0,-8.082903768655D0,           161P    176
-1.6D1,0D0,-4.041451884327D0,-1.6D1,-7D0,4.041451884327D0,           161P    177
-1.6D1,-7D0;                                                         161P    178
504,48,59,161,1,161,2,63,161,2,161,1,145,161,3,161,4,155,161,4,      163P    179
161,5,153,161,5,161,6,151,161,6,161,7,149,161,7,161,8,147,161,8,     163P    180
161,3,19,161,9,161,10,55,161,11,161,12,23,161,10,161,9,37,161,       163P    181
12,161,11,27,161,10,161,12,25,161,9,161,11,49,161,13,161,14,67,      163P    182
161,15,161,16,31,161,14,161,13,71,161,16,161,15,51,161,14,161,       163P    183
11,33,161,13,161,12,41,161,14,161,16,45,161,13,161,15,85,161,17,     163P    184
161,18,121,161,19,161,20,89,161,18,161,17,75,161,20,161,19,77,       163P    185
161,1,161,19,123,161,2,161,20,81,161,18,161,20,117,161,17,161,       163P    186
19,93,161,21,161,22,97,161,22,161,23,101,161,23,161,24,105,161,      163P    187
24,161,25,109,161,25,161,26,113,161,26,161,21,137,161,23,161,24,     163P    188
133,161,24,161,25,157,161,25,161,26,129,161,26,161,21,125,161,       163P    189
21,161,22,141,161,22,161,23,139,161,23,161,3,135,161,24,161,4,       163P    190
159,161,25,161,5,131,161,26,161,6,127,161,21,161,7,143,161,22,       163P    191
161,8;                                                               163P    192
128,1,1,1,1,0,0,1,0,0,-7.696D0,-7.696D0,7.696D0,7.696D0,             165P    193
-7.695999938463D0,-7.695999938463D0,7.695999938463D0,                165P    194
7.695999938463D0,1D0,1D0,1D0,1D0,7.695999938463D0,3.8D1,7.696D0,     165P    195
7.695999938463D0,3.8D1,-7.696D0,-7.695999938463D0,3.8D1,7.696D0,     165P    196
-7.695999938463D0,3.8D1,-7.696D0,-7.696D0,7.696D0,                   165P    197
-7.695999938463D0,7.695999938463D0;                                  165P    198
508,2,0,163,9,0,0,0,163,11,0,0;                                      167P    199
510,165,1,0,167;                                                     169P    200
110,0D0,4.54D1,1.021405182655D-14,0D0,4.44D1,1.021405182655D-14;     171P    201
110,0D0,3.805413617365D1,-7.345839329686D0,0D0,3.734583607870D1,     173P    202
-8.054137062635D0;                                                   173P    203
120,171,173,-3.204424519084D0,6.283186395249D-2;                     175P    204
508,4,0,163,9,1,0,0,163,13,1,0,0,163,10,0,0,0,163,14,0,0;            177P    205
510,175,1,0,177;                                                     179P    206
110,1.088018564133D-14,4.54D1,1.865174681370D-14,                    181P    207
1.088018564133D-14,4.44D1,1.865174681370D-14;                        181P    208
110,1.088018564133D-14,3.805413617365D1,-7.345839329686D0,           183P    209
1.088018564133D-14,3.734583607870D1,-8.054137062635D0;               183P    210
120,181,183,-6.283186549397D-2,3.204424517542D0;                     185P    211
508,4,0,163,11,1,0,0,163,14,1,0,0,163,12,0,0,0,163,13,0,0;           187P    212
510,185,1,0,187;                                                     189P    213
110,0D0,0D0,0D0,0D0,1D0,0D0;                                         191P    214
110,0D0,-1.360002052535D-1,-8D0,0D0,3.813601046793D1,-8D0;           193P    215
120,191,193,3.078760800518D0,6.346017160251D0;                       195P    216
508,4,0,163,17,1,0,0,163,20,1,0,0,163,12,1,0,0,163,19,0,0;           197P    217
510,195,1,0,197;                                                     199P    218
110,0D0,6D-1,0D0,0D0,1.6D0,0D0;                                      201P    219
124,1.169249257317D-2,1.499834856796D-3,9.999305156424D-1,           203P    220
-1.013793326827D-1,1.272308608384D-1,-9.918731310255D-1,0D0,         203P    221
6D-1,9.918042113581D-1,1.272220202838D-1,-1.178829449799D-2,         203P    222
-8.599402434524D0;                                                   203P    223
100,0D0,0D0,0D0,6D-1,0D0,-1.514364435202D-1,5.805747183386D-1;       205P    224
120,201,205,-3.216213074202D0,5.104328553286D-2;                     207P    225
508,4,0,163,17,0,0,0,163,21,1,0,0,163,18,1,0,0,163,22,0,0;           209P    226
510,207,1,0,209;                                                     211P    227
110,0D0,6D-1,0D0,0D0,1.6D0,0D0;                                      213P    228
124,-1.169249257317D-2,-1.499834856796D-3,-9.999305156424D-1,        215P    229
1.013793326827D-1,1.272308608384D-1,-9.918731310255D-1,0D0,6D-1,     215P    230
-9.918042113581D-1,-1.272220202838D-1,1.178829449799D-2,             215P    231
8.599402434524D0;                                                    215P    232
100,0D0,0D0,0D0,6D-1,0D0,-1.514364435202D-1,5.805747183386D-1;       217P    233
120,213,217,-3.216213074202D0,5.104328553286D-2;                     219P    234
508,4,0,163,15,0,0,0,163,22,1,0,0,163,16,1,0,0,163,21,0,0;           221P    235
510,219,1,0,221;                                                     223P    236
110,0D0,0D0,0D0,0D0,1D0,0D0;                                         225P    237
110,0D0,-1.360002052535D-1,-8D0,0D0,3.813601046793D1,-8D0;           227P    238
120,225,227,-6.283185307180D-2,3.204424506662D0;                     229P    239
508,4,0,163,15,1,0,0,163,19,1,0,0,163,10,1,0,0,163,20,0,0;           231P    240
510,229,1,0,231;                                                     233P    241
128,1,1,1,1,0,0,1,0,0,-1.248D1,-1.248D1,1.248D1,1.248D1,             235P    242
-1.249027888360D1,-1.249027888360D1,1.249027888360D1,                235P    243
1.249027888360D1,1D0,1D0,1D0,1D0,1.249027888360D1,0D0,1.248D1,       235P    244
1.249027888360D1,0D0,-1.248D1,-1.249027888360D1,0D0,1.248D1,         235P    245
-1.249027888360D1,0D0,-1.248D1,-1.248D1,1.248D1,                     235P    246
-1.249027888360D1,1.249027888360D1;                                  235P    247
508,2,0,163,1,0,0,0,163,2,0,0;                                       237P    248
508,2,0,163,16,0,0,0,163,18,0,0;                                     239P    249
510,235,2,0,237,239;                                                 241P    250
110,0D0,0D0,0D0,0D0,1D0,0D0;                                         243P    251
110,0D0,-1.428D1,-1.2D1,0D0,2.8D-1,-1.2D1;                           245P    252
120,243,245,-6.283185307180D-2,3.204424506662D0;                     247P    253
508,4,0,163,26,1,0,0,163,27,0,0,0,163,1,1,0,0,163,28,1,0;            249P    254
510,247,1,0,249;                                                     251P    255
110,0D0,-1.4D1,0D0,0D0,-1.3D1,0D0;                                   253P    256
124,-4.442706653980D-4,1.160216037546D-2,-9.999325939773D-1,         255P    257
1.161066328002D-1,-9.992676641846D-1,-3.826402115740D-2,0D0,         255P    258
-1.4D1,-3.826144193192D-2,9.992003075257D-1,1.161066328002D-2,       255P    259
9.999325939773D0;                                                    255P    260
100,0D0,0D0,0D0,2D0,0D0,-1.529432579546D-1,1.994143515358D0;         257P    261
120,253,257,-3.216035430906D0,5.122092891189D-2;                     259P    262
508,4,0,163,25,1,0,0,163,30,1,0,0,163,26,0,0,0,163,29,0,0;           261P    263
510,259,1,0,261;                                                     263P    264
128,1,1,1,1,0,0,1,0,0,-1.04D1,-1.04D1,1.04D1,1.04D1,                 265P    265
-1.040000025939D1,-1.040000025939D1,1.040000025939D1,                265P    266
1.040000025939D1,1D0,1D0,1D0,1D0,1.040000025939D1,-1.6D1,1.04D1,     265P    267
1.040000025939D1,-1.6D1,-1.04D1,-1.040000025939D1,-1.6D1,1.04D1,     265P    268
-1.040000025939D1,-1.6D1,-1.04D1,-1.04D1,1.04D1,                     265P    269
-1.040000025939D1,1.040000025939D1;                                  265P    270
508,2,0,163,23,0,0,0,163,25,0,0;                                     267P    271
508,6,0,163,31,1,0,0,163,32,1,0,0,163,33,1,0,0,163,34,1,0,0,163,     269P    272
35,1,0,0,163,36,1,0;                                                 269P    273
510,265,2,0,267,269;                                                 271P    274
110,0D0,-1.4D1,0D0,0D0,-1.3D1,0D0;                                   273P    275
124,4.442706653981D-4,-1.160216037546D-2,9.999325939773D-1,          275P    276
-1.161066328002D-1,-9.992676641846D-1,-3.826402115740D-2,0D0,        275P    277
-1.4D1,3.826144193192D-2,-9.992003075257D-1,-1.161066328002D-2,      275P    278
-9.999325939773D0;                                                   275P    279
100,0D0,0D0,0D0,2D0,0D0,-1.529432579546D-1,1.994143515358D0;         277P    280
120,273,277,-3.216035430906D0,5.122092891189D-2;                     279P    281
508,4,0,163,23,1,0,0,163,29,1,0,0,163,24,0,0,0,163,30,0,0;           281P    282
510,279,1,0,281;                                                     283P    283
110,0D0,0D0,0D0,0D0,1D0,0D0;                                         285P    284
110,0D0,-1.428D1,-1.2D1,0D0,2.8D-1,-1.2D1;                           287P    285
120,285,287,3.078760800518D0,6.346017160251D0;                       289P    286
508,4,0,163,24,1,0,0,163,28,0,0,0,163,2,1,0,0,163,27,1,0;            291P    287
510,289,1,0,291;                                                     293P    288
110,0D0,-1.133333333333D1,0D0,0D0,-1.233333333333D1,0D0;             295P    289
110,-6.927249409132D0,-1.533278264444D1,0D0,-8.149194539520D0,       297P    290
-1.603827299440D1,0D0;                                               297P    291
120,295,297,-3.204424506662D0,6.283185307179D-2;                     299P    292
508,2,0,163,41,1,0,0,163,31,0,0;                                     301P    293
510,299,1,0,301;                                                     303P    294
110,0D0,-1.133333333333D1,0D0,0D0,-1.233333333333D1,0D0;             305P    295
110,-6.927249409132D0,-1.533278264444D1,0D0,-8.149194539520D0,       307P    296
-1.603827299440D1,0D0;                                               307P    297
120,305,307,-3.204424506662D0,6.283185307179D-2;                     309P    298
508,2,0,163,42,1,0,0,163,32,0,0;                                     311P    299
510,309,1,0,311;                                                     313P    300
110,0D0,-1.133333333333D1,0D0,0D0,-1.233333333333D1,0D0;             315P    301
110,-6.927249409132D0,-1.533278264444D1,0D0,-8.149194539520D0,       317P    302
-1.603827299440D1,0D0;                                               317P    303
120,315,317,-3.204424506662D0,6.283185307179D-2;                     319P    304
508,2,0,163,37,1,0,0,163,33,0,0;                                     321P    305
510,319,1,0,321;                                                     323P    306
128,1,1,1,1,0,0,1,0,0,-1.616580753731D-1,-1.616580753731D-1,         325P    307
8.244561844028D0,8.244561844028D0,-9.18D0,-9.18D0,1.8D-1,1.8D-1,     325P    308
1D0,1D0,1D0,1D0,8.163732806341D0,-6.82D0,-1.4D-1,                    325P    309
3.960622846641D0,-6.82D0,7.14D0,8.163732806341D0,-1.618D1,           325P    310
-1.4D-1,3.960622846641D0,-1.618D1,7.14D0,-1.616580753731D-1,         325P    311
8.244561844028D0,-9.18D0,1.8D-1;                                     325P    312
508,4,0,163,41,0,0,0,163,47,1,0,0,163,7,1,0,0,163,48,0,0;            327P    313
510,325,1,0,327;                                                     329P    314
128,1,1,1,1,0,0,1,0,0,-1.616580753731D-1,-1.616580753731D-1,         331P    315
8.244561844028D0,8.244561844028D0,-9.18D0,-9.18D0,1.8D-1,1.8D-1,     331P    316
1D0,1D0,1D0,1D0,3.960622846641D0,-6.82D0,-7.14D0,                    331P    317
8.163732806341D0,-6.82D0,1.4D-1,3.960622846641D0,-1.618D1,           331P    318
-7.14D0,8.163732806341D0,-1.618D1,1.4D-1,-1.616580753731D-1,         331P    319
8.244561844028D0,-9.18D0,1.8D-1;                                     331P    320
508,4,0,163,40,0,0,0,163,46,1,0,0,163,6,1,0,0,163,47,0,0;            333P    321
510,331,1,0,333;                                                     335P    322
110,0D0,-1.133333333333D1,0D0,0D0,-1.233333333333D1,0D0;             337P    323
110,-6.927249409132D0,-1.533278264444D1,0D0,-8.149194539520D0,       339P    324
-1.603827299440D1,0D0;                                               339P    325
120,337,339,-6.346017160251D0,-3.078760800518D0;                     341P    326
508,2,0,163,38,1,0,0,163,34,0,0;                                     343P    327
510,341,1,0,343;                                                     345P    328
110,0D0,-1.133333333333D1,0D0,0D0,-1.233333333333D1,0D0;             347P    329
110,-6.927249409132D0,-1.533278264444D1,0D0,-8.149194539520D0,       349P    330
-1.603827299440D1,0D0;                                               349P    331
120,347,349,-6.346017160251D0,-3.078760800518D0;                     351P    332
508,2,0,163,39,1,0,0,163,35,0,0;                                     353P    333
510,351,1,0,353;                                                     355P    334
110,0D0,-1.133333333333D1,0D0,0D0,-1.233333333333D1,0D0;             357P    335
110,-6.927249409132D0,-1.533278264444D1,0D0,-8.149194539520D0,       359P    336
-1.603827299440D1,0D0;                                               359P    337
120,357,359,-6.346017160251D0,-3.078760800518D0;                     361P    338
508,2,0,163,40,1,0,0,163,36,0,0;                                     363P    339
510,361,1,0,363;                                                     365P    340
128,1,1,1,1,0,0,1,0,0,-1.616580753731D-1,-1.616580753731D-1,         367P    341
8.244561844028D0,8.244561844028D0,-9.18D0,-9.18D0,1.8D-1,1.8D-1,     367P    342
1D0,1D0,1D0,1D0,-8.163732806341D0,-6.82D0,1.4D-1,                    367P    343
-3.960622846641D0,-6.82D0,-7.14D0,-8.163732806341D0,-1.618D1,        367P    344
1.4D-1,-3.960622846641D0,-1.618D1,-7.14D0,-1.616580753731D-1,        367P    345
8.244561844028D0,-9.18D0,1.8D-1;                                     367P    346
508,4,0,163,38,0,0,0,163,44,1,0,0,163,4,1,0,0,163,45,0,0;            369P    347
510,367,1,0,369;                                                     371P    348
128,1,1,1,1,0,0,1,0,0,-1.616580753731D-1,-1.616580753731D-1,         373P    349
8.244561844028D0,8.244561844028D0,-9.18D0,-9.18D0,1.8D-1,1.8D-1,     373P    350
1D0,1D0,1D0,1D0,-3.960622846641D0,-6.82D0,7.14D0,                    373P    351
-8.163732806341D0,-6.82D0,-1.4D-1,-3.960622846641D0,-1.618D1,        373P    352
7.14D0,-8.163732806341D0,-1.618D1,-1.4D-1,-1.616580753731D-1,        373P    353
8.244561844028D0,-9.18D0,1.8D-1;                                     373P    354
508,4,0,163,37,0,0,0,163,43,1,0,0,163,3,1,0,0,163,44,0,0;            375P    355
510,373,1,0,375;                                                     377P    356
128,1,1,1,1,0,0,1,0,0,-1.616580753731D-1,-1.616580753731D-1,         379P    357
8.244561844028D0,8.244561844028D0,-9.18D0,-9.18D0,1.8D-1,1.8D-1,     379P    358
1D0,1D0,1D0,1D0,4.203109959700D0,-6.82D0,7D0,-4.203109959700D0,      379P    359
-6.82D0,7D0,4.203109959700D0,-1.618D1,7D0,-4.203109959700D0,         379P    360
-1.618D1,7D0,-1.616580753731D-1,8.244561844028D0,-9.18D0,1.8D-1;     379P    361
508,4,0,163,42,0,0,0,163,48,1,0,0,163,8,1,0,0,163,43,0,0;            381P    362
510,379,1,0,381;                                                     383P    363
128,1,1,1,1,0,0,1,0,0,-8.406219919401D0,-8.406219919401D0,           385P    364
8.406219919401D0,8.406219919401D0,-7.28D0,-7.28D0,7.28D0,7.28D0,     385P    365
1D0,1D0,1D0,1D0,-8.406219919401D0,-7D0,-7.28D0,8.406219919401D0,     385P    366
-7D0,-7.28D0,-8.406219919401D0,-7D0,7.28D0,8.406219919401D0,         385P    367
-7D0,7.28D0,-8.406219919401D0,8.406219919401D0,-7.28D0,7.28D0;       385P    368
508,6,0,163,3,0,0,0,163,8,0,0,0,163,7,0,0,0,163,6,0,0,0,163,5,0,     387P    369
0,0,163,4,0,0;                                                       387P    370
510,385,1,0,387;                                                     389P    371
128,1,1,1,1,0,0,1,0,0,-1.616580753731D-1,-1.616580753731D-1,         391P    372
8.244561844028D0,8.244561844028D0,-9.18D0,-9.18D0,1.8D-1,1.8D-1,     391P    373
1D0,1D0,1D0,1D0,-4.203109959700D0,-6.82D0,-7D0,4.203109959700D0,     391P    374
-6.82D0,-7D0,-4.203109959700D0,-1.618D1,-7D0,4.203109959700D0,       391P    375
-1.618D1,-7D0,-1.616580753731D-1,8.244561844028D0,-9.18D0,           391P    376
1.8D-1;                                                              391P    377
508,4,0,163,39,0,0,0,163,45,1,0,0,163,5,1,0,0,163,46,0,0;            393P    378
510,391,1,0,393;                                                     395P    379
514,26,169,1,179,1,189,1,199,1,211,0,223,0,233,1,241,1,251,1,        397P    380
263,1,271,0,283,1,293,1,303,0,313,0,323,0,329,0,335,0,345,0,355,     397P    381
0,365,0,371,0,377,0,383,0,389,1,395,0;                               397P    382
124,-1D0,0D0,0D0,0D0,0D0,0D0,1D0,3.8D1,0D0,1D0,0D0,0D0;              399P    383
100,0D0,0D0,0D0,6.9175D0,0D0,-6.9175D0,0D0;                          401P    384
110,6.9175D0,3.8D1,0D0,6.9175D0,0D0,0D0;                             403P    385
124,1D0,0D0,0D0,0D0,0D0,0D0,-1D0,0D0,0D0,1D0,0D0,0D0;                405P    386
100,0D0,0D0,0D0,6.9175D0,0D0,-6.9175D0,0D0;                          407P    387
124,1D0,0D0,0D0,0D0,0D0,0D0,1D0,3.8D1,0D0,-1D0,0D0,0D0;              409P    388
100,0D0,0D0,0D0,6.9175D0,0D0,-6.9175D0,0D0;                          411P    389
110,-6.9175D0,3.8D1,0D0,-6.9175D0,0D0,0D0;                           413P    390
124,-1D0,0D0,0D0,0D0,0D0,0D0,-1D0,0D0,0D0,-1D0,0D0,0D0;              415P    391
100,0D0,0D0,0D0,6.9175D0,0D0,-6.9175D0,0D0;                          417P    392
502,4,6.9175D0,3.8D1,0D0,-6.9175D0,3.8D1,0D0,6.9175D0,0D0,0D0,       419P    393
-6.9175D0,0D0,0D0;                                                   419P    394
504,6,401,419,1,419,2,411,419,2,419,1,407,419,3,419,4,417,419,4,     421P    395
419,3,403,419,1,419,3,413,419,2,419,4;                               421P    396
110,0D0,3.8D1,0D0,0D0,3.7D1,0D0;                                     423P    397
110,6.9175D0,3.876D1,0D0,6.9175D0,-7.6D-1,0D0;                       425P    398
120,423,425,-6.283185307180D-2,3.204424506662D0;                     427P    399
508,4,0,421,1,0,0,0,421,5,1,0,0,421,3,1,0,0,421,6,0,0;               429P    400
510,427,1,0,429;                                                     431P    401
110,0D0,3.8D1,0D0,0D0,3.7D1,0D0;                                     433P    402
110,6.9175D0,3.876D1,0D0,6.9175D0,-7.6D-1,0D0;                       435P    403
120,433,435,3.078760800518D0,6.346017160251D0;                       437P    404
508,4,0,421,2,0,0,0,421,6,1,0,0,421,4,1,0,0,421,5,0,0;               439P    405
510,437,1,0,439;                                                     441P    406
514,2,431,1,441,1;                                                   443P    407
186,397,1,0;                                                         445P    408
S      1G      5D    446P    408                                        T      1
