 PTC IGES file: screw-m36x3x78-csn_02_1143.igs                          S      1
1H,,1H;,26HSCREW-M36X3X78-CSN_02_1143,                                  G      1
30Hscrew-m36x3x78-csn_02_1143.igs,                                      G      2
49HPro/ENGINEER by Parametric Technology Corporation,7H2007160,32,38,7, G      3
38,15,26HSCREW-M36X3X78-CSN_02_1143,1.,2,2HMM,32768,0.5,                G      4
15H20111214.100905,0.0137227,137.233,13HVladimir Zima,7HUnknown,10,0,   G      5
15H20111214.100905;                                                     G      6
     314       1       1       1       0       0       0       001000200D      1
     314       0       4       1       0                   COLOR       1D      2
     314       2       1       1       0       0       0       001000200D      3
     314       0       1       1       0                   COLOR       2D      4
     314       3       1       1       0       0       0       001000200D      5
     314       0       1       1       0                   COLOR       3D      6
     314       4       1       1       0       0       0       001000200D      7
     314       0       1       1       0                   COLOR       4D      8
     314       5       1       1       0       0       0       001000200D      9
     314       0       8       1       0                   COLOR       5D     10
     314       6       1       1       0       0       0       001000200D     11
     314       0       8       1       0                   COLOR       6D     12
     314       7       1       1       0       0       0       001000200D     13
     314       0       5       1       0                   COLOR       7D     14
     314       8       1       1       0       0       0       001000200D     15
     314       0       8       1       0                   COLOR       8D     16
     124       9       1       1       0       0       0       001000000D     17
     124       0       0       2       0                   XFORM       1D     18
     100      11       1       1       0       0      17       001010000D     19
     100       0       0       2       0                     ARC       1D     20
     124      13       1       1       0       0       0       001000000D     21
     124       0       0       2       0                   XFORM       2D     22
     100      15       1       1       0       0      21       001010000D     23
     100       0       0       2       0                     ARC       2D     24
     110      17       1       1       0       0       0       001010000D     25
     110       0       0       2       0                    LINE       1D     26
     110      19       1       1       0       0       0       001010000D     27
     110       0       0       2       0                    LINE       2D     28
     124      21       1       1       0       0       0       001000000D     29
     124       0       0       1       0                   XFORM       3D     30
     100      22       1       1       0       0      29       001010000D     31
     100       0       0       1       0                     ARC       3D     32
     110      23       1       1       0       0       0       001010000D     33
     110       0       0       2       0                    LINE       3D     34
     124      25       1       1       0       0       0       001000000D     35
     124       0       0       2       0                   XFORM       4D     36
     100      27       1       1       0       0      35       001010000D     37
     100       0       0       1       0                     ARC       4D     38
     124      28       1       1       0       0       0       001000000D     39
     124       0       0       2       0                   XFORM       5D     40
     100      30       1       1       0       0      39       001010000D     41
     100       0       0       1       0                     ARC       5D     42
     124      31       1       1       0       0       0       001000000D     43
     124       0       0       2       0                   XFORM       6D     44
     100      33       1       1       0       0      43       001010000D     45
     100       0       0       1       0                     ARC       6D     46
     124      34       1       1       0       0       0       001000000D     47
     124       0       0       1       0                   XFORM       7D     48
     100      35       1       1       0       0      47       001010000D     49
     100       0       0       1       0                     ARC       7D     50
     110      36       1       1       0       0       0       001010000D     51
     110       0       0       2       0                    LINE       4D     52
     124      38       1       1       0       0       0       001000000D     53
     124       0       0       2       0                   XFORM       8D     54
     100      40       1       1       0       0      53       001010000D     55
     100       0       0       1       0                     ARC       8D     56
     124      41       1       1       0       0       0       001000000D     57
     124       0       0       1       0                   XFORM       9D     58
     100      42       1       1       0       0      57       001010000D     59
     100       0       0       1       0                     ARC       9D     60
     124      43       1       1       0       0       0       001000000D     61
     124       0       0       1       0                   XFORM      10D     62
     100      44       1       1       0       0      61       001010000D     63
     100       0       0       1       0                     ARC      10D     64
     124      45       1       1       0       0       0       001000000D     65
     124       0       0       2       0                   XFORM      11D     66
     100      47       1       1       0       0      65       001010000D     67
     100       0       0       1       0                     ARC      11D     68
     124      48       1       1       0       0       0       001000000D     69
     124       0       0       2       0                   XFORM      12D     70
     100      50       1       1       0       0      69       001010000D     71
     100       0       0       1       0                     ARC      12D     72
     124      51       1       1       0       0       0       001000000D     73
     124       0       0       1       0                   XFORM      13D     74
     100      52       1       1       0       0      73       001010000D     75
     100       0       0       1       0                     ARC      13D     76
     110      53       1       1       0       0       0       001010000D     77
     110       0       0       1       0                    LINE       5D     78
     124      54       1       1       0       0       0       001000000D     79
     124       0       0       1       0                   XFORM      14D     80
     100      55       1       1       0       0      79       001010000D     81
     100       0       0       1       0                     ARC      14D     82
     124      56       1       1       0       0       0       001000000D     83
     124       0       0       1       0                   XFORM      15D     84
     100      57       1       1       0       0      83       001010000D     85
     100       0       0       1       0                     ARC      15D     86
     124      58       1       1       0       0       0       001000000D     87
     124       0       0       1       0                   XFORM      16D     88
     100      59       1       1       0       0      87       001010000D     89
     100       0       0       1       0                     ARC      16D     90
     124      60       1       1       0       0       0       001000000D     91
     124       0       0       1       0                   XFORM      17D     92
     100      61       1       1       0       0      91       001010000D     93
     100       0       0       1       0                     ARC      17D     94
     124      62       1       1       0       0       0       001000000D     95
     124       0       0       2       0                   XFORM      18D     96
     100      64       1       1       0       0      95       001010000D     97
     100       0       0       1       0                     ARC      18D     98
     124      65       1       1       0       0       0       001000000D     99
     124       0       0       2       0                   XFORM      19D    100
     100      67       1       1       0       0      99       001010000D    101
     100       0       0       1       0                     ARC      19D    102
     124      68       1       1       0       0       0       001000000D    103
     124       0       0       1       0                   XFORM      20D    104
     100      69       1       1       0       0     103       001010000D    105
     100       0       0       1       0                     ARC      20D    106
     124      70       1       1       0       0       0       001000000D    107
     124       0       0       2       0                   XFORM      21D    108
     100      72       1       1       0       0     107       001010000D    109
     100       0       0       1       0                     ARC      21D    110
     124      73       1       1       0       0       0       001000000D    111
     124       0       0       2       0                   XFORM      22D    112
     100      75       1       1       0       0     111       001010000D    113
     100       0       0       1       0                     ARC      22D    114
     124      76       1       1       0       0       0       001000000D    115
     124       0       0       1       0                   XFORM      23D    116
     100      77       1       1       0       0     115       001010000D    117
     100       0       0       1       0                     ARC      23D    118
     124      78       1       1       0       0       0       001000000D    119
     124       0       0       1       0                   XFORM      24D    120
     100      79       1       1       0       0     119       001010000D    121
     100       0       0       1       0                     ARC      24D    122
     110      80       1       1       0       0       0       001010000D    123
     110       0       0       1       0                    LINE       6D    124
     126      81       1       1       0       0       0       001010000D    125
     126       0       0      13       0                B_SPLINE       1D    126
     110      94       1       1       0       0       0       001010000D    127
     110       0       0       1       0                    LINE       7D    128
     126      95       1       1       0       0       0       001010000D    129
     126       0       0      13       0                B_SPLINE       2D    130
     110     108       1       1       0       0       0       001010000D    131
     110       0       0       2       0                    LINE       8D    132
     126     110       1       1       0       0       0       001010000D    133
     126       0       0      13       0                B_SPLINE       3D    134
     110     123       1       1       0       0       0       001010000D    135
     110       0       0       1       0                    LINE       9D    136
     126     124       1       1       0       0       0       001010000D    137
     126       0       0      13       0                B_SPLINE       4D    138
     110     137       1       1       0       0       0       001010000D    139
     110       0       0       2       0                    LINE      10D    140
     126     139       1       1       0       0       0       001010000D    141
     126       0       0      11       0                B_SPLINE       5D    142
     110     150       1       1       0       0       0       001010000D    143
     110       0       0       2       0                    LINE      11D    144
     110     152       1       1       0       0       0       001010000D    145
     110       0       0       2       0                    LINE      12D    146
     110     154       1       1       0       0       0       001010000D    147
     110       0       0       2       0                    LINE      13D    148
     110     156       1       1       0       0       0       001010000D    149
     110       0       0       1       0                    LINE      14D    150
     110     157       1       1       0       0       0       001010000D    151
     110       0       0       1       0                    LINE      15D    152
     110     158       1       1       0       0       0       001010000D    153
     110       0       0       2       0                    LINE      16D    154
     110     160       1       1       0       0       0       001010000D    155
     110       0       0       2       0                    LINE      17D    156
     126     162       1       1       0       0       0       001010000D    157
     126       0       0      11       0                B_SPLINE       6D    158
     110     173       1       1       0       0       0       001010000D    159
     110       0       0       2       0                    LINE      18D    160
     502     175       1       1       0       0       0       001010000D    161
     502       0       0      13       1                  VERTEX       1D    162
     504     188       1       1       0       0       0       000010001D    163
     504       0       0      14       1                    EDGE       1D    164
     128     202       1       1       0       0       0       001010000D    165
     128       0       0       6       0                  SPLSRF       1D    166
     508     208       1       1       0       0       0       001010000D    167
     508       0       0       1       1                EDGELOOP       1D    168
     510     209       1       1       0       0       0       000010000D    169
     510       0       0       1       1                    FACE       1D    170
     110     210       1       1       0       0       0       001010000D    171
     110       0       0       2       0                    LINE      19D    172
     110     212       1       1       0       0       0       001010000D    173
     110       0       0       2       0                    LINE      20D    174
     120     214       1       1       0       0       0       001010000D    175
     120       0       0       1       0                    SREV       1D    176
     508     215       1       1       0       0       0       001010000D    177
     508       0       0       1       1                EDGELOOP       2D    178
     510     216       1       1       0       0       0       000010000D    179
     510       0       0       1       1                    FACE       2D    180
     110     217       1       1       0       0       0       001010000D    181
     110       0       0       2       0                    LINE      21D    182
     110     219       1       1       0       0       0       001010000D    183
     110       0       0       2       0                    LINE      22D    184
     120     221       1       1       0       0       0       001010000D    185
     120       0       0       1       0                    SREV       2D    186
     508     222       1       1       0       0       0       001010000D    187
     508       0       0       1       1                EDGELOOP       3D    188
     510     223       1       1       0       0       0       000010000D    189
     510       0       0       1       1                    FACE       3D    190
     110     224       1       1       0       0       0       001010000D    191
     110       0       0       1       0                    LINE      23D    192
     110     225       1       1       0       0       0       001010000D    193
     110       0       0       1       0                    LINE      24D    194
     120     226       1       1       0       0       0       001010000D    195
     120       0       0       1       0                    SREV       3D    196
     508     227       1       1       0       0       0       001010000D    197
     508       0       0       1       1                EDGELOOP       4D    198
     510     228       1       1       0       0       0       000010000D    199
     510       0       0       1       1                    FACE       4D    200
     110     229       1       1       0       0       0       001010000D    201
     110       0       0       1       0                    LINE      25D    202
     124     230       1       1       0       0       0       001000000D    203
     124       0       0       4       0                   XFORM      25D    204
     100     234       1       1       0       0     203       001010000D    205
     100       0       0       1       0                     ARC      25D    206
     120     235       1       1       0       0       0       001010000D    207
     120       0       0       1       0                    SREV       4D    208
     508     236       1       1       0       0       0       001010000D    209
     508       0       0       1       1                EDGELOOP       5D    210
     510     237       1       1       0       0       0       000010000D    211
     510       0       0       1       1                    FACE       5D    212
     110     238       1       1       0       0       0       001010000D    213
     110       0       0       1       0                    LINE      26D    214
     124     239       1       1       0       0       0       001000000D    215
     124       0       0       4       0                   XFORM      26D    216
     100     243       1       1       0       0     215       001010000D    217
     100       0       0       1       0                     ARC      26D    218
     120     244       1       1       0       0       0       001010000D    219
     120       0       0       1       0                    SREV       5D    220
     508     245       1       1       0       0       0       001010000D    221
     508       0       0       1       1                EDGELOOP       6D    222
     510     246       1       1       0       0       0       000010000D    223
     510       0       0       1       1                    FACE       6D    224
     110     247       1       1       0       0       0       001010000D    225
     110       0       0       1       0                    LINE      27D    226
     110     248       1       1       0       0       0       001010000D    227
     110       0       0       1       0                    LINE      28D    228
     120     249       1       1       0       0       0       001010000D    229
     120       0       0       1       0                    SREV       6D    230
     508     250       1       1       0       0       0       001010000D    231
     508       0       0       1       1                EDGELOOP       7D    232
     510     251       1       1       0       0       0       000010000D    233
     510       0       0       1       1                    FACE       7D    234
     128     252       1       1       0       0       0       001010000D    235
     128       0       0       6       0                  SPLSRF       2D    236
     508     258       1       1       0       0       0       001010000D    237
     508       0       0       1       1                EDGELOOP       8D    238
     508     259       1       1       0       0       0       001010000D    239
     508       0       0       1       1                EDGELOOP       9D    240
     510     260       1       1       0       0       0       000010000D    241
     510       0       0       1       1                    FACE       8D    242
     110     261       1       1       0       0       0       001010000D    243
     110       0       0       1       0                    LINE      29D    244
     110     262       1       1       0       0       0       001010000D    245
     110       0       0       1       0                    LINE      30D    246
     120     263       1       1       0       0       0       001010000D    247
     120       0       0       1       0                    SREV       7D    248
     508     264       1       1       0       0       0       001010000D    249
     508       0       0       1       1                EDGELOOP      10D    250
     510     265       1       1       0       0       0       000010000D    251
     510       0       0       1       1                    FACE       9D    252
     110     266       1       1       0       0       0       001010000D    253
     110       0       0       1       0                    LINE      31D    254
     124     267       1       1       0       0       0       001000000D    255
     124       0       0       4       0                   XFORM      27D    256
     100     271       1       1       0       0     255       001010000D    257
     100       0       0       1       0                     ARC      27D    258
     120     272       1       1       0       0       0       001010000D    259
     120       0       0       1       0                    SREV       8D    260
     508     273       1       1       0       0       0       001010000D    261
     508       0       0       1       1                EDGELOOP      11D    262
     510     274       1       1       0       0       0       000010000D    263
     510       0       0       1       1                    FACE      10D    264
     128     275       1       1       0       0       0       001010000D    265
     128       0       0       6       0                  SPLSRF       3D    266
     508     281       1       1       0       0       0       001010000D    267
     508       0       0       1       1                EDGELOOP      12D    268
     508     282       1       1       0       0       0       001010000D    269
     508       0       0       2       1                EDGELOOP      13D    270
     510     284       1       1       0       0       0       000010000D    271
     510       0       0       1       1                    FACE      11D    272
     110     285       1       1       0       0       0       001010000D    273
     110       0       0       1       0                    LINE      32D    274
     124     286       1       1       0       0       0       001000000D    275
     124       0       0       4       0                   XFORM      28D    276
     100     290       1       1       0       0     275       001010000D    277
     100       0       0       1       0                     ARC      28D    278
     120     291       1       1       0       0       0       001010000D    279
     120       0       0       1       0                    SREV       9D    280
     508     292       1       1       0       0       0       001010000D    281
     508       0       0       1       1                EDGELOOP      14D    282
     510     293       1       1       0       0       0       000010000D    283
     510       0       0       1       1                    FACE      12D    284
     110     294       1       1       0       0       0       001010000D    285
     110       0       0       1       0                    LINE      33D    286
     110     295       1       1       0       0       0       001010000D    287
     110       0       0       1       0                    LINE      34D    288
     120     296       1       1       0       0       0       001010000D    289
     120       0       0       1       0                    SREV      10D    290
     508     297       1       1       0       0       0       001010000D    291
     508       0       0       1       1                EDGELOOP      15D    292
     510     298       1       1       0       0       0       000010000D    293
     510       0       0       1       1                    FACE      13D    294
     110     299       1       1       0       0       0       001010000D    295
     110       0       0       1       0                    LINE      35D    296
     110     300       1       1       0       0       0       001010000D    297
     110       0       0       2       0                    LINE      36D    298
     120     302       1       1       0       0       0       001010000D    299
     120       0       0       1       0                    SREV      11D    300
     508     303       1       1       0       0       0       001010000D    301
     508       0       0       1       1                EDGELOOP      16D    302
     510     304       1       1       0       0       0       000010000D    303
     510       0       0       1       1                    FACE      14D    304
     110     305       1       1       0       0       0       001010000D    305
     110       0       0       1       0                    LINE      37D    306
     110     306       1       1       0       0       0       001010000D    307
     110       0       0       2       0                    LINE      38D    308
     120     308       1       1       0       0       0       001010000D    309
     120       0       0       1       0                    SREV      12D    310
     508     309       1       1       0       0       0       001010000D    311
     508       0       0       1       1                EDGELOOP      17D    312
     510     310       1       1       0       0       0       000010000D    313
     510       0       0       1       1                    FACE      15D    314
     110     311       1       1       0       0       0       001010000D    315
     110       0       0       1       0                    LINE      39D    316
     110     312       1       1       0       0       0       001010000D    317
     110       0       0       2       0                    LINE      40D    318
     120     314       1       1       0       0       0       001010000D    319
     120       0       0       1       0                    SREV      13D    320
     508     315       1       1       0       0       0       001010000D    321
     508       0       0       1       1                EDGELOOP      18D    322
     510     316       1       1       0       0       0       000010000D    323
     510       0       0       1       1                    FACE      16D    324
     128     317       1       1       0       0       0       001010000D    325
     128       0       0       6       0                  SPLSRF       4D    326
     508     323       1       1       0       0       0       001010000D    327
     508       0       0       1       1                EDGELOOP      19D    328
     510     324       1       1       0       0       0       000010000D    329
     510       0       0       1       1                    FACE      17D    330
     128     325       1       1       0       0       0       001010000D    331
     128       0       0       6       0                  SPLSRF       5D    332
     508     331       1       1       0       0       0       001010000D    333
     508       0       0       1       1                EDGELOOP      20D    334
     510     332       1       1       0       0       0       000010000D    335
     510       0       0       1       1                    FACE      18D    336
     110     333       1       1       0       0       0       001010000D    337
     110       0       0       1       0                    LINE      41D    338
     110     334       1       1       0       0       0       001010000D    339
     110       0       0       2       0                    LINE      42D    340
     120     336       1       1       0       0       0       001010000D    341
     120       0       0       1       0                    SREV      14D    342
     508     337       1       1       0       0       0       001010000D    343
     508       0       0       1       1                EDGELOOP      21D    344
     510     338       1       1       0       0       0       000010000D    345
     510       0       0       1       1                    FACE      19D    346
     110     339       1       1       0       0       0       001010000D    347
     110       0       0       1       0                    LINE      43D    348
     110     340       1       1       0       0       0       001010000D    349
     110       0       0       2       0                    LINE      44D    350
     120     342       1       1       0       0       0       001010000D    351
     120       0       0       1       0                    SREV      15D    352
     508     343       1       1       0       0       0       001010000D    353
     508       0       0       1       1                EDGELOOP      22D    354
     510     344       1       1       0       0       0       000010000D    355
     510       0       0       1       1                    FACE      20D    356
     110     345       1       1       0       0       0       001010000D    357
     110       0       0       1       0                    LINE      45D    358
     110     346       1       1       0       0       0       001010000D    359
     110       0       0       2       0                    LINE      46D    360
     120     348       1       1       0       0       0       001010000D    361
     120       0       0       1       0                    SREV      16D    362
     508     349       1       1       0       0       0       001010000D    363
     508       0       0       1       1                EDGELOOP      23D    364
     510     350       1       1       0       0       0       000010000D    365
     510       0       0       1       1                    FACE      21D    366
     128     351       1       1       0       0       0       001010000D    367
     128       0       0       6       0                  SPLSRF       6D    368
     508     357       1       1       0       0       0       001010000D    369
     508       0       0       1       1                EDGELOOP      24D    370
     510     358       1       1       0       0       0       000010000D    371
     510       0       0       1       1                    FACE      22D    372
     128     359       1       1       0       0       0       001010000D    373
     128       0       0       6       0                  SPLSRF       7D    374
     508     365       1       1       0       0       0       001010000D    375
     508       0       0       1       1                EDGELOOP      25D    376
     510     366       1       1       0       0       0       000010000D    377
     510       0       0       1       1                    FACE      23D    378
     128     367       1       1       0       0       0       001010000D    379
     128       0       0       6       0                  SPLSRF       8D    380
     508     373       1       1       0       0       0       001010000D    381
     508       0       0       1       1                EDGELOOP      26D    382
     510     374       1       1       0       0       0       000010000D    383
     510       0       0       1       1                    FACE      24D    384
     128     375       1       1       0       0       0       001010000D    385
     128       0       0       6       0                  SPLSRF       9D    386
     508     381       1       1       0       0       0       001010000D    387
     508       0       0       2       1                EDGELOOP      27D    388
     510     383       1       1       0       0       0       000010000D    389
     510       0       0       1       1                    FACE      25D    390
     128     384       1       1       0       0       0       001010000D    391
     128       0       0       6       0                  SPLSRF      10D    392
     508     390       1       1       0       0       0       001010000D    393
     508       0       0       1       1                EDGELOOP      28D    394
     510     391       1       1       0       0       0       000010000D    395
     510       0       0       1       1                    FACE      26D    396
     514     392       1       1       0       0       0       000010000D    397
     514       0       0       3       1                   SHELL       1D    398
     124     395       1       1       0       0       0       001000000D    399
     124       0       0       1       0                   XFORM      29D    400
     100     396       1       1       0       0     399       001010000D    401
     100       0       0       1       0                     ARC      29D    402
     110     397       1       1       0       0       0       001010000D    403
     110       0       0       1       0                    LINE      47D    404
     124     398       1       1       0       0       0       001000000D    405
     124       0       0       1       0                   XFORM      30D    406
     100     399       1       1       0       0     405       001010000D    407
     100       0       0       1       0                     ARC      30D    408
     124     400       1       1       0       0       0       001000000D    409
     124       0       0       1       0                   XFORM      31D    410
     100     401       1       1       0       0     409       001010000D    411
     100       0       0       1       0                     ARC      31D    412
     110     402       1       1       0       0       0       001010000D    413
     110       0       0       1       0                    LINE      48D    414
     124     403       1       1       0       0       0       001000000D    415
     124       0       0       1       0                   XFORM      32D    416
     100     404       1       1       0       0     415       001010000D    417
     100       0       0       1       0                     ARC      32D    418
     502     405       1       1       0       0       0       001010000D    419
     502       0       0       2       1                  VERTEX       2D    420
     504     407       1       1       0       0       0       000010001D    421
     504       0       0       2       1                    EDGE       2D    422
     110     409       1       1       0       0       0       001010000D    423
     110       0       0       1       0                    LINE      49D    424
     110     410       1       1       0       0       0       001010000D    425
     110       0       0       1       0                    LINE      50D    426
     120     411       1       1       0       0       0       001010000D    427
     120       0       0       1       0                    SREV      17D    428
     508     412       1       1       0       0       0       001010000D    429
     508       0       0       1       1                EDGELOOP      29D    430
     510     413       1       1       0       0       0       000010000D    431
     510       0       0       1       1                    FACE      27D    432
     110     414       1       1       0       0       0       001010000D    433
     110       0       0       1       0                    LINE      51D    434
     110     415       1       1       0       0       0       001010000D    435
     110       0       0       1       0                    LINE      52D    436
     120     416       1       1       0       0       0       001010000D    437
     120       0       0       1       0                    SREV      18D    438
     508     417       1       1       0       0       0       001010000D    439
     508       0       0       1       1                EDGELOOP      30D    440
     510     418       1       1       0       0       0       000010000D    441
     510       0       0       1       1                    FACE      28D    442
     514     419       1       1       0       0       0       000000000D    443
     514       0       0       1       1                   SHELL       2D    444
     186     420       1       1       0       0       0       000000000D    445
     186       0       0       1       0                    MSBR       1D    446
314,1.1D0,1.2D0,1D2;                                                   1P      1
314,1.1D1,1.1D1,1.1D1;                                                 3P      2
314,3.92D1,1.2D0,1.2D0;                                                5P      3
314,4.1D1,0D0,2.2D1;                                                   7P      4
314,8.784D1,9.49D1,1D2;                                                9P      5
314,9.6D1,9.6D1,9.6D1;                                                11P      6
314,9.8D1,6.27D1,0D0;                                                 13P      7
314,1D2,1D2,9.49D1;                                                   15P      8
124,0D0,-1D0,0D0,1.154631945610D-14,0D0,0D0,1D0,                      17P      9
7.799999997406D1,-1D0,0D0,0D0,3.375077994860D-14;                     17P     10
100,0D0,0D0,0D0,1.699999198353D1,0D0,-1.699999198353D1,               19P     11
2.473036884207D-14;                                                   19P     12
124,0D0,1D0,0D0,2.398081733190D-14,0D0,0D0,1D0,7.799999997406D1,      21P     13
1D0,0D0,0D0,1.065814103640D-14;                                       21P     14
100,0D0,0D0,0D0,1.699999198353D1,0D0,-1.699999198353D1,               23P     15
-4.321524822476D-14;                                                  23P     16
110,-6.436243739688D-9,7.799999732008D1,-1.699999731831D1,            25P     17
-5.111132070202D-9,7.699999787183D1,-1.799999787042D1;                25P     18
110,6.436246796286D-9,7.799999732008D1,1.699999731831D1,              27P     19
5.111136088226D-9,7.699999787183D1,1.799999787042D1;                  27P     20
124,0D0,1D0,0D0,0D0,0D0,0D0,-1D0,1D0,-1D0,0D0,0D0,0D0;                29P     21
100,0D0,0D0,0D0,1.8D1,0D0,-1.8D1,0D0;                                 31P     22
110,-3.611580435756D-14,1D0,1.8D1,5.111136088226D-9,                  33P     23
7.699999787183D1,1.799999787042D1;                                    33P     24
124,0D0,1D0,0D0,0D0,0D0,0D0,1D0,7.699999143465D1,1D0,0D0,0D0,         35P     25
0D0;                                                                  35P     26
100,0D0,0D0,0D0,1.8D1,0D0,-1.8D1,0D0;                                 37P     27
124,1.077003070060D-13,0D0,1D0,-2.046307567838D-12,0D0,-1D0,0D0,      39P     28
1D0,1D0,0D0,-1.077003070060D-13,-1.9D1;                               39P     29
100,0D0,0D0,0D0,1D0,0D0,2.137751239049D-14,1D0;                       41P     30
124,-1.078043904146D-13,0D0,-1D0,2.048278213707D-12,0D0,-1D0,         43P     31
0D0,1D0,-1D0,0D0,1.078043904146D-13,1.9D1;                            43P     32
100,0D0,0D0,0D0,1D0,0D0,2.493022606929D-14,1D0;                       45P     33
124,0D0,-1D0,0D0,0D0,0D0,0D0,-1D0,1D0,1D0,0D0,0D0,0D0;                47P     34
100,0D0,0D0,0D0,1.8D1,0D0,-1.8D1,0D0;                                 49P     35
110,3.660106667332D-14,1D0,-1.8D1,-5.111132070202D-9,                 51P     36
7.699999787183D1,-1.799999787042D1;                                   51P     37
124,0D0,-1D0,0D0,0D0,0D0,0D0,1D0,7.699999143465D1,-1D0,0D0,0D0,       53P     38
0D0;                                                                  53P     39
100,0D0,0D0,0D0,1.8D1,0D0,-1.8D1,0D0;                                 55P     40
124,0D0,-1D0,0D0,0D0,0D0,0D0,1D0,0D0,-1D0,0D0,0D0,0D0;                57P     41
100,0D0,0D0,0D0,2.7D1,0D0,-2.7D1,0D0;                                 59P     42
124,0D0,1D0,0D0,0D0,0D0,0D0,1D0,0D0,1D0,0D0,0D0,0D0;                  61P     43
100,0D0,0D0,0D0,2.7D1,0D0,-2.7D1,0D0;                                 63P     44
124,0D0,-1D0,0D0,0D0,0D0,0D0,-1D0,8.693046282815D-14,1D0,0D0,         65P     45
0D0,0D0;                                                              65P     46
100,0D0,0D0,0D0,1.899999958292D1,0D0,-1.899999958292D1,0D0;           67P     47
124,0D0,1D0,0D0,0D0,0D0,0D0,-1D0,8.693046282815D-14,-1D0,0D0,         69P     48
0D0,0D0;                                                              69P     49
100,0D0,0D0,0D0,1.899999958292D1,0D0,-1.899999958292D1,0D0;           71P     50
124,0D0,-1D0,0D0,0D0,0D0,0D0,-1D0,-3.3D1,1D0,0D0,0D0,0D0;             73P     51
100,0D0,0D0,0D0,2.7D1,0D0,-2.7D1,0D0;                                 75P     52
110,0D0,0D0,-2.7D1,-2.579793753025D-11,-3.3D1,-2.7D1;                 77P     53
124,0D0,0D0,-1D0,0D0,-1D0,0D0,0D0,-3.3D1,0D0,1D0,0D0,2.4D1;           79P     54
100,0D0,0D0,0D0,3D0,0D0,0D0,3D0;                                      81P     55
124,0D0,1D0,0D0,0D0,0D0,0D0,-1D0,-3.6D1,-1D0,0D0,0D0,0D0;             83P     56
100,0D0,0D0,0D0,2.399999992636D1,0D0,-2.399999992636D1,0D0;           85P     57
124,0D0,-1D0,0D0,0D0,0D0,0D0,-1D0,-3.6D1,1D0,0D0,0D0,0D0;             87P     58
100,0D0,0D0,0D0,2.399999992636D1,0D0,-2.399999992636D1,0D0;           89P     59
124,1D0,0D0,0D0,0D0,0D0,0D0,-1D0,-3.6D1,0D0,1D0,0D0,0D0;              91P     60
100,0D0,0D0,0D0,1.558845726812D1,0D0,7.794228634060D0,1.35D1;         93P     61
124,5D-1,-8.660254037844D-1,0D0,0D0,0D0,0D0,-1D0,-3.6D1,              95P     62
8.660254037844D-1,5D-1,0D0,0D0;                                       95P     63
100,0D0,0D0,0D0,1.558845726812D1,0D0,7.794228634060D0,1.35D1;         97P     64
124,-5D-1,-8.660254037844D-1,0D0,0D0,0D0,0D0,-1D0,-3.6D1,             99P     65
8.660254037844D-1,-5D-1,0D0,0D0;                                      99P     66
100,0D0,0D0,0D0,1.558845726812D1,0D0,7.794228634060D0,1.35D1;        101P     67
124,-1D0,0D0,0D0,0D0,0D0,0D0,-1D0,-3.6D1,0D0,-1D0,0D0,0D0;           103P     68
100,0D0,0D0,0D0,1.558845726812D1,0D0,7.794228634060D0,1.35D1;        105P     69
124,-5D-1,8.660254037844D-1,0D0,0D0,0D0,0D0,-1D0,-3.6D1,             107P     70
-8.660254037844D-1,-5D-1,0D0,0D0;                                    107P     71
100,0D0,0D0,0D0,1.558845726812D1,0D0,7.794228634060D0,1.35D1;        109P     72
124,5D-1,8.660254037844D-1,0D0,0D0,0D0,0D0,-1D0,-3.6D1,              111P     73
-8.660254037844D-1,5D-1,0D0,0D0;                                     111P     74
100,0D0,0D0,0D0,1.558845726812D1,0D0,7.794228634060D0,1.35D1;        113P     75
124,0D0,0D0,1D0,0D0,-1D0,0D0,0D0,-3.3D1,0D0,-1D0,0D0,-2.4D1;         115P     76
100,0D0,0D0,0D0,3D0,0D0,0D0,3D0;                                     117P     77
124,0D0,1D0,0D0,0D0,0D0,0D0,-1D0,-3.3D1,-1D0,0D0,0D0,0D0;            119P     78
100,0D0,0D0,0D0,2.7D1,0D0,-2.7D1,0D0;                                121P     79
110,0D0,0D0,2.7D1,2.579290771308D-11,-3.3D1,2.7D1;                   123P     80
126,9,3,0,0,1,0,0D0,0D0,0D0,0D0,1.428571428571D-1,                   125P     81
2.857142857143D-1,4.285714285714D-1,5.714285714286D-1,               125P     82
7.142857142857D-1,8.571428571429D-1,1D0,1D0,1D0,1D0,1D0,1D0,1D0,     125P     83
1D0,1D0,1D0,1D0,1D0,1D0,1D0,1.558845726812D1,-3.6D1,0D0,             125P     84
1.519668289708D1,-3.577380896142D1,6.785731157455D-1,                125P     85
1.442701094171D1,-3.538140550990D1,2.011684047614D0,                 125P     86
1.332952252068D1,-3.498927915057D1,3.912589753551D0,                 125P     87
1.223685115176D1,-3.478569882269D1,5.805152080487D0,                 125P     88
1.114456302216D1,-3.478580217959D1,7.697050617460D0,                 125P     89
1.005179270330D1,-3.498968894994D1,9.589784330730D0,                 125P     90
8.955361220498D0,-3.538158939595D1,1.148885936596D1,                 125P     91
8.185906466641D0,-3.577386469792D1,1.282159409377D1,                 125P     92
7.794228634060D0,-3.6D1,1.35D1,0D0,1D0,0D0,0D0,1D0;                  125P     93
110,1.558845726812D1,-3.6D1,0D0,1.558845726812D1,-1.5D1,0D0;         127P     94
126,9,3,0,0,1,0,0D0,0D0,0D0,0D0,1.428571428571D-1,                   129P     95
2.857142857143D-1,4.285714285714D-1,5.714285714286D-1,               129P     96
7.142857142857D-1,8.571428571429D-1,1D0,1D0,1D0,1D0,1D0,1D0,1D0,     129P     97
1D0,1D0,1D0,1D0,1D0,1D0,1D0,7.794228634060D0,-3.6D1,-1.35D1,         129P     98
8.186003005100D0,-3.577380896142D1,-1.282142688425D1,                129P     99
8.955674960474D0,-3.538140550990D1,-1.148831595239D1,                129P    100
1.005316338150D1,-3.498927915057D1,-9.587410246449D0,                129P    101
1.114583475042D1,-3.478569882269D1,-7.694847919513D0,                129P    102
1.223812288002D1,-3.478580217959D1,-5.802949382540D0,                129P    103
1.333089319888D1,-3.498968894994D1,-3.910215669270D0,                129P    104
1.442732468168D1,-3.538158939595D1,-2.011140634035D0,                129P    105
1.519677943554D1,-3.577386469792D1,-6.784059062280D-1,               129P    106
1.558845726812D1,-3.6D1,0D0,0D0,1D0,0D0,0D0,1D0;                     129P    107
110,7.794228634060D0,-3.6D1,-1.35D1,7.794228634060D0,-1.5D1,         131P    108
-1.35D1;                                                             131P    109
126,9,3,0,0,1,0,0D0,0D0,0D0,0D0,1.428571428571D-1,                   133P    110
2.857142857143D-1,4.285714285714D-1,5.714285714286D-1,               133P    111
7.142857142857D-1,8.571428571429D-1,1D0,1D0,1D0,1D0,1D0,1D0,1D0,     133P    112
1D0,1D0,1D0,1D0,1D0,1D0,1D0,-1.558845726812D1,-3.6D1,0D0,            133P    113
-1.519668289708D1,-3.577380896142D1,-6.785731157455D-1,              133P    114
-1.442701094171D1,-3.538140550990D1,-2.011684047614D0,               133P    115
-1.332952252068D1,-3.498927915057D1,-3.912589753551D0,               133P    116
-1.223685115176D1,-3.478569882269D1,-5.805152080487D0,               133P    117
-1.114456302216D1,-3.478580217959D1,-7.697050617460D0,               133P    118
-1.005179270330D1,-3.498968894994D1,-9.589784330730D0,               133P    119
-8.955361220498D0,-3.538158939595D1,-1.148885936596D1,               133P    120
-8.185906466641D0,-3.577386469792D1,-1.282159409377D1,               133P    121
-7.794228634060D0,-3.6D1,-1.35D1,0D0,1D0,0D0,0D0,1D0;                133P    122
110,-1.558845726812D1,-3.6D1,0D0,-1.558845726812D1,-1.5D1,0D0;       135P    123
126,9,3,0,0,1,0,0D0,0D0,0D0,0D0,1.428571428571D-1,                   137P    124
2.857142857143D-1,4.285714285714D-1,5.714285714286D-1,               137P    125
7.142857142857D-1,8.571428571429D-1,1D0,1D0,1D0,1D0,1D0,1D0,1D0,     137P    126
1D0,1D0,1D0,1D0,1D0,1D0,1D0,-7.794228634060D0,-3.6D1,1.35D1,         137P    127
-8.186003005100D0,-3.577380896142D1,1.282142688425D1,                137P    128
-8.955674960474D0,-3.538140550990D1,1.148831595239D1,                137P    129
-1.005316338150D1,-3.498927915057D1,9.587410246449D0,                137P    130
-1.114583475042D1,-3.478569882269D1,7.694847919513D0,                137P    131
-1.223812288002D1,-3.478580217959D1,5.802949382540D0,                137P    132
-1.333089319888D1,-3.498968894994D1,3.910215669270D0,                137P    133
-1.442732468168D1,-3.538158939595D1,2.011140634035D0,                137P    134
-1.519677943554D1,-3.577386469792D1,6.784059062280D-1,               137P    135
-1.558845726812D1,-3.6D1,0D0,0D0,1D0,0D0,0D0,1D0;                    137P    136
110,-7.794228634060D0,-3.6D1,1.35D1,-7.794228634060D0,-1.5D1,        139P    137
1.35D1;                                                              139P    138
126,9,3,0,0,1,0,0D0,0D0,0D0,0D0,1.428571428571D-1,                   141P    139
2.857142857143D-1,4.285714285714D-1,5.714285714286D-1,               141P    140
7.142857142857D-1,8.571428571429D-1,1D0,1D0,1D0,1D0,1D0,1D0,1D0,     141P    141
1D0,1D0,1D0,1D0,1D0,1D0,1D0,7.794228634060D0,-3.6D1,1.35D1,          141P    142
7.010679891979D0,-3.577380896142D1,1.35D1,5.471335981231D0,          141P    143
-3.538140550990D1,1.35D1,3.276359139177D0,-3.498927915057D1,         141P    144
1.35D1,1.091016401349D0,-3.478569882269D1,1.35D1,                    141P    145
-1.093559857854D0,-3.478580217959D1,1.35D1,-3.279100495575D0,        141P    146
-3.498968894994D1,1.35D1,-5.471963461183D0,-3.538158939595D1,        141P    147
1.35D1,-7.010872968899D0,-3.577386469792D1,1.35D1,                   141P    148
-7.794228634060D0,-3.6D1,1.35D1,0D0,1D0,0D0,0D0,1D0;                 141P    149
110,7.794228634060D0,-3.6D1,1.35D1,7.794228634060D0,-1.5D1,          143P    150
1.35D1;                                                              143P    151
110,-7.794228634060D0,-1.5D1,1.35D1,-1.558845726812D1,-1.5D1,        145P    152
0D0;                                                                 145P    153
110,7.794228634060D0,-1.5D1,1.35D1,-7.794228634060D0,-1.5D1,         147P    154
1.35D1;                                                              147P    155
110,1.558845726812D1,-1.5D1,0D0,7.794228634060D0,-1.5D1,1.35D1;      149P    156
110,7.794228634060D0,-1.5D1,-1.35D1,1.558845726812D1,-1.5D1,0D0;     151P    157
110,-7.794228634060D0,-1.5D1,-1.35D1,7.794228634060D0,-1.5D1,        153P    158
-1.35D1;                                                             153P    159
110,-1.558845726812D1,-1.5D1,0D0,-7.794228634060D0,-1.5D1,           155P    160
-1.35D1;                                                             155P    161
126,9,3,0,0,1,0,0D0,0D0,0D0,0D0,1.428571428571D-1,                   157P    162
2.857142857143D-1,4.285714285714D-1,5.714285714286D-1,               157P    163
7.142857142857D-1,8.571428571429D-1,1D0,1D0,1D0,1D0,1D0,1D0,1D0,     157P    164
1D0,1D0,1D0,1D0,1D0,1D0,1D0,-7.794228634060D0,-3.6D1,-1.35D1,        157P    165
-7.010679891979D0,-3.577380896142D1,-1.35D1,-5.471335981231D0,       157P    166
-3.538140550990D1,-1.35D1,-3.276359139177D0,-3.498927915057D1,       157P    167
-1.35D1,-1.091016401349D0,-3.478569882269D1,-1.35D1,                 157P    168
1.093559857854D0,-3.478580217959D1,-1.35D1,3.279100495575D0,         157P    169
-3.498968894994D1,-1.35D1,5.471963461183D0,-3.538158939595D1,        157P    170
-1.35D1,7.010872968899D0,-3.577386469792D1,-1.35D1,                  157P    171
7.794228634060D0,-3.6D1,-1.35D1,0D0,1D0,0D0,0D0,1D0;                 157P    172
110,-7.794228634060D0,-3.6D1,-1.35D1,-7.794228634060D0,-1.5D1,       159P    173
-1.35D1;                                                             159P    174
502,26,0D0,0D0,-2.7D1,0D0,0D0,2.7D1,-7.794228634060D0,-1.5D1,        161P    175
1.35D1,-1.558845726812D1,-1.5D1,0D0,-7.794228634060D0,-1.5D1,        161P    176
-1.35D1,7.794228634060D0,-1.5D1,-1.35D1,1.558845726812D1,-1.5D1,     161P    177
0D0,7.794228634060D0,-1.5D1,1.35D1,0D0,7.799999997406D1,             161P    178
-1.699999198353D1,0D0,7.799999997406D1,1.699999198353D1,0D0,         161P    179
7.699999143465D1,-1.8D1,0D0,7.699999143465D1,1.8D1,0D0,1D0,          161P    180
1.8D1,0D0,1D0,-1.8D1,0D0,8.693046282815D-14,1.899999958292D1,        161P    181
0D0,8.693046282815D-14,-1.899999958292D1,0D0,-3.6D1,                 161P    182
-2.399999992636D1,0D0,-3.6D1,2.399999992636D1,0D0,-3.3D1,-2.7D1,     161P    183
0D0,-3.3D1,2.7D1,1.558845726812D1,-3.6D1,0D0,7.794228634060D0,       161P    184
-3.6D1,1.35D1,-7.794228634060D0,-3.6D1,1.35D1,-1.558845726812D1,     161P    185
-3.6D1,0D0,-7.794228634060D0,-3.6D1,-1.35D1,7.794228634060D0,        161P    186
-3.6D1,-1.35D1;                                                      161P    187
504,48,59,161,1,161,2,63,161,2,161,1,145,161,3,161,4,155,161,4,      163P    188
161,5,153,161,5,161,6,151,161,6,161,7,149,161,7,161,8,147,161,8,     163P    189
161,3,19,161,9,161,10,55,161,11,161,12,23,161,10,161,9,37,161,       163P    190
12,161,11,27,161,10,161,12,25,161,9,161,11,49,161,13,161,14,67,      163P    191
161,15,161,16,31,161,14,161,13,71,161,16,161,15,51,161,14,161,       163P    192
11,33,161,13,161,12,41,161,14,161,16,45,161,13,161,15,85,161,17,     163P    193
161,18,121,161,19,161,20,89,161,18,161,17,75,161,20,161,19,77,       163P    194
161,1,161,19,123,161,2,161,20,81,161,18,161,20,117,161,17,161,       163P    195
19,93,161,21,161,22,97,161,22,161,23,101,161,23,161,24,105,161,      163P    196
24,161,25,109,161,25,161,26,113,161,26,161,21,137,161,23,161,24,     163P    197
133,161,24,161,25,157,161,25,161,26,129,161,26,161,21,125,161,       163P    198
21,161,22,141,161,22,161,23,139,161,23,161,3,135,161,24,161,4,       163P    199
159,161,25,161,5,131,161,26,161,6,127,161,21,161,7,143,161,22,       163P    200
161,8;                                                               163P    201
128,1,1,1,1,0,0,1,0,0,-1.768D1,-1.768D1,1.768D1,1.768D1,             165P    202
-1.769785396128D1,-1.769785396128D1,1.769785396128D1,                165P    203
1.769785396128D1,1D0,1D0,1D0,1D0,1.769785396128D1,7.8D1,1.768D1,     165P    204
1.769785396128D1,7.8D1,-1.768D1,-1.769785396128D1,7.8D1,1.768D1,     165P    205
-1.769785396128D1,7.8D1,-1.768D1,-1.768D1,1.768D1,                   165P    206
-1.769785396128D1,1.769785396128D1;                                  165P    207
508,2,0,163,9,0,0,0,163,11,0,0;                                      167P    208
510,165,1,0,167;                                                     169P    209
110,1.154631945610D-14,9.5D1,3.375077994860D-14,                     171P    210
1.154631945610D-14,9.4D1,3.375077994860D-14;                         171P    211
110,1.154631945610D-14,7.811648573358D1,-1.688350627912D1,           173P    212
1.154631945610D-14,7.688350294522D1,-1.811648848417D1;               173P    213
120,171,173,-3.204424516062D0,6.283186133667D-2;                     175P    214
508,4,0,163,9,1,0,0,163,13,1,0,0,163,10,0,0,0,163,14,0,0;            177P    215
510,175,1,0,177;                                                     179P    216
110,2.398081733190D-14,9.5D1,1.065814103640D-14,                     181P    217
2.398081733190D-14,9.4D1,1.065814103640D-14;                         181P    218
110,2.398081733190D-14,7.811648573358D1,-1.688350627912D1,           183P    219
2.398081733190D-14,7.688350294522D1,-1.811648848417D1;               183P    220
120,181,183,-6.283186247248D-2,3.204424514926D0;                     185P    221
508,4,0,163,11,1,0,0,163,14,1,0,0,163,12,0,0,0,163,13,0,0;           187P    222
510,185,1,0,187;                                                     189P    223
110,0D0,0D0,0D0,0D0,1D0,0D0;                                         191P    224
110,0D0,-5.200004258470D-1,-1.8D1,0D0,7.852002171819D1,-1.8D1;       193P    225
120,191,193,3.078760800518D0,6.346017160251D0;                       195P    226
508,4,0,163,17,1,0,0,163,20,1,0,0,163,12,1,0,0,163,19,0,0;           197P    227
510,195,1,0,197;                                                     199P    228
110,0D0,1D0,0D0,0D0,2D0,0D0;                                         201P    229
124,1.111911090275D-2,1.847820876996D-3,9.999364734476D-1,           203P    230
-2.141604865592D-1,1.639359212663D-1,-9.864709898008D-1,0D0,1D0,     203P    231
9.864083226997D-1,1.639255069824D-1,-1.127160455575D-2,              203P    232
-1.899879299550D1;                                                   203P    233
100,0D0,0D0,0D0,1D0,0D0,-3.234361945958D-1,9.462499817836D-1;        205P    234
120,201,205,-3.215696349906D0,5.156000982804D-2;                     207P    235
508,4,0,163,17,0,0,0,163,21,1,0,0,163,18,1,0,0,163,22,0,0;           209P    236
510,207,1,0,209;                                                     211P    237
110,0D0,1D0,0D0,0D0,2D0,0D0;                                         213P    238
124,-1.111911090275D-2,-1.847820876996D-3,-9.999364734476D-1,        215P    239
2.141604865592D-1,1.639359212663D-1,-9.864709898008D-1,0D0,1D0,      215P    240
-9.864083226997D-1,-1.639255069824D-1,1.127160455575D-2,             215P    241
1.899879299550D1;                                                    215P    242
100,0D0,0D0,0D0,1D0,0D0,-3.234361945958D-1,9.462499817836D-1;        217P    243
120,213,217,-3.215696349906D0,5.156000982804D-2;                     219P    244
508,4,0,163,15,0,0,0,163,22,1,0,0,163,16,1,0,0,163,21,0,0;           221P    245
510,219,1,0,221;                                                     223P    246
110,0D0,0D0,0D0,0D0,1D0,0D0;                                         225P    247
110,0D0,-5.200004258470D-1,-1.8D1,0D0,7.852002171819D1,-1.8D1;       227P    248
120,225,227,-6.283185307180D-2,3.204424506662D0;                     229P    249
508,4,0,163,15,1,0,0,163,19,1,0,0,163,10,1,0,0,163,20,0,0;           231P    250
510,229,1,0,231;                                                     233P    251
128,1,1,1,1,0,0,1,0,0,-2.808D1,-2.808D1,2.808D1,2.808D1,             235P    252
-2.810312748810D1,-2.810312748810D1,2.810312748810D1,                235P    253
2.810312748810D1,1D0,1D0,1D0,1D0,2.810312748810D1,0D0,2.808D1,       235P    254
2.810312748810D1,0D0,-2.808D1,-2.810312748810D1,0D0,2.808D1,         235P    255
-2.810312748810D1,0D0,-2.808D1,-2.808D1,2.808D1,                     235P    256
-2.810312748810D1,2.810312748810D1;                                  235P    257
508,2,0,163,1,0,0,0,163,2,0,0;                                       237P    258
508,2,0,163,16,0,0,0,163,18,0,0;                                     239P    259
510,235,2,0,237,239;                                                 241P    260
110,0D0,0D0,0D0,0D0,1D0,0D0;                                         243P    261
110,0D0,-3.366D1,-2.7D1,0D0,6.6D-1,-2.7D1;                           245P    262
120,243,245,-6.283185307180D-2,3.204424506662D0;                     247P    263
508,4,0,163,26,1,0,0,163,27,0,0,0,163,1,1,0,0,163,28,1,0;            249P    264
510,247,1,0,249;                                                     251P    265
110,0D0,-3.3D1,0D0,0D0,-3.2D1,0D0;                                   253P    266
124,-6.091100609395D-4,1.108503605253D-2,-9.999383735814D-1,         255P    267
2.664422013625D-1,-9.984937217164D-1,-5.486608873443D-2,0D0,         255P    268
-3.3D1,-5.486270753388D-2,9.984321881243D-1,1.110175839010D-2,       255P    269
2.399852096595D1;                                                    255P    270
100,0D0,0D0,0D0,3D0,0D0,-3.286989638338D-1,2.981938462003D0;         257P    271
120,253,257,-3.215526493160D0,5.172986662482D-2;                     259P    272
508,4,0,163,25,1,0,0,163,30,1,0,0,163,26,0,0,0,163,29,0,0;           261P    273
510,259,1,0,261;                                                     263P    274
128,1,1,1,1,0,0,1,0,0,-2.496D1,-2.496D1,2.496D1,2.496D1,             265P    275
-2.495999999996D1,-2.495999999996D1,2.495999999996D1,                265P    276
2.495999999996D1,1D0,1D0,1D0,1D0,2.495999999996D1,-3.6D1,            265P    277
2.496D1,2.495999999996D1,-3.6D1,-2.496D1,-2.495999999996D1,          265P    278
-3.6D1,2.496D1,-2.495999999996D1,-3.6D1,-2.496D1,-2.496D1,           265P    279
2.496D1,-2.495999999996D1,2.495999999996D1;                          265P    280
508,2,0,163,23,0,0,0,163,25,0,0;                                     267P    281
508,6,0,163,31,1,0,0,163,32,1,0,0,163,33,1,0,0,163,34,1,0,0,163,     269P    282
35,1,0,0,163,36,1,0;                                                 269P    283
510,265,2,0,267,269;                                                 271P    284
110,0D0,-3.3D1,0D0,0D0,-3.2D1,0D0;                                   273P    285
124,6.091100609395D-4,-1.108503605253D-2,9.999383735814D-1,          275P    286
-2.664422013624D-1,-9.984937217164D-1,-5.486608873443D-2,0D0,        275P    287
-3.3D1,5.486270753388D-2,-9.984321881243D-1,-1.110175839010D-2,      275P    288
-2.399852096595D1;                                                   275P    289
100,0D0,0D0,0D0,3D0,0D0,-3.286989638338D-1,2.981938462003D0;         277P    290
120,273,277,-3.215526493160D0,5.172986662482D-2;                     279P    291
508,4,0,163,23,1,0,0,163,29,1,0,0,163,24,0,0,0,163,30,0,0;           281P    292
510,279,1,0,281;                                                     283P    293
110,0D0,0D0,0D0,0D0,1D0,0D0;                                         285P    294
110,0D0,-3.366D1,-2.7D1,0D0,6.6D-1,-2.7D1;                           287P    295
120,285,287,3.078760800518D0,6.346017160251D0;                       289P    296
508,4,0,163,24,1,0,0,163,28,0,0,0,163,2,1,0,0,163,27,1,0;            291P    297
510,289,1,0,291;                                                     293P    298
110,0D0,-2.7D1,0D0,0D0,-2.8D1,0D0;                                   295P    299
110,-1.334492536840D1,-3.470469625376D1,0D0,-1.573107367543D1,       297P    300
-3.608233962115D1,0D0;                                               297P    301
120,295,297,-3.204424506662D0,6.283185307180D-2;                     299P    302
508,2,0,163,41,1,0,0,163,31,0,0;                                     301P    303
510,299,1,0,301;                                                     303P    304
110,0D0,-2.7D1,0D0,0D0,-2.8D1,0D0;                                   305P    305
110,-1.334492536840D1,-3.470469625376D1,0D0,-1.573107367543D1,       307P    306
-3.608233962115D1,0D0;                                               307P    307
120,305,307,-3.204424506662D0,6.283185307180D-2;                     309P    308
508,2,0,163,42,1,0,0,163,32,0,0;                                     311P    309
510,309,1,0,311;                                                     313P    310
110,0D0,-2.7D1,0D0,0D0,-2.8D1,0D0;                                   315P    311
110,-1.334492536840D1,-3.470469625376D1,0D0,-1.573107367543D1,       317P    312
-3.608233962115D1,0D0;                                               317P    313
120,315,317,-3.204424506662D0,6.283185307180D-2;                     319P    314
508,2,0,163,37,1,0,0,163,33,0,0;                                     321P    315
510,319,1,0,321;                                                     323P    316
128,1,1,1,1,0,0,1,0,0,-3.117691453624D-1,-3.117691453624D-1,         325P    317
1.590022641348D1,1.590022641348D1,-2.142D1,-2.142D1,4.2D-1,          325P    318
4.2D-1,1D0,1D0,1D0,1D0,1.574434184080D1,-1.458D1,-2.7D-1,            325P    319
7.638344061379D0,-1.458D1,1.377D1,1.574434184080D1,-3.642D1,         325P    320
-2.7D-1,7.638344061379D0,-3.642D1,1.377D1,-3.117691453624D-1,        325P    321
1.590022641348D1,-2.142D1,4.2D-1;                                    325P    322
508,4,0,163,41,0,0,0,163,47,1,0,0,163,7,1,0,0,163,48,0,0;            327P    323
510,325,1,0,327;                                                     329P    324
128,1,1,1,1,0,0,1,0,0,-3.117691453624D-1,-3.117691453624D-1,         331P    325
1.590022641348D1,1.590022641348D1,-2.142D1,-2.142D1,4.2D-1,          331P    326
4.2D-1,1D0,1D0,1D0,1D0,7.638344061379D0,-1.458D1,-1.377D1,           331P    327
1.574434184080D1,-1.458D1,2.7D-1,7.638344061379D0,-3.642D1,          331P    328
-1.377D1,1.574434184080D1,-3.642D1,2.7D-1,-3.117691453624D-1,        331P    329
1.590022641348D1,-2.142D1,4.2D-1;                                    331P    330
508,4,0,163,40,0,0,0,163,46,1,0,0,163,6,1,0,0,163,47,0,0;            333P    331
510,331,1,0,333;                                                     335P    332
110,0D0,-2.7D1,0D0,0D0,-2.8D1,0D0;                                   337P    333
110,-1.334492536840D1,-3.470469625376D1,0D0,-1.573107367543D1,       339P    334
-3.608233962115D1,0D0;                                               339P    335
120,337,339,-6.346017160251D0,-3.078760800518D0;                     341P    336
508,2,0,163,38,1,0,0,163,34,0,0;                                     343P    337
510,341,1,0,343;                                                     345P    338
110,0D0,-2.7D1,0D0,0D0,-2.8D1,0D0;                                   347P    339
110,-1.334492536840D1,-3.470469625376D1,0D0,-1.573107367543D1,       349P    340
-3.608233962115D1,0D0;                                               349P    341
120,347,349,-6.346017160251D0,-3.078760800518D0;                     351P    342
508,2,0,163,39,1,0,0,163,35,0,0;                                     353P    343
510,351,1,0,353;                                                     355P    344
110,0D0,-2.7D1,0D0,0D0,-2.8D1,0D0;                                   357P    345
110,-1.334492536840D1,-3.470469625376D1,0D0,-1.573107367543D1,       359P    346
-3.608233962115D1,0D0;                                               359P    347
120,357,359,-6.346017160251D0,-3.078760800518D0;                     361P    348
508,2,0,163,40,1,0,0,163,36,0,0;                                     363P    349
510,361,1,0,363;                                                     365P    350
128,1,1,1,1,0,0,1,0,0,-3.117691453624D-1,-3.117691453624D-1,         367P    351
1.590022641348D1,1.590022641348D1,-2.142D1,-2.142D1,4.2D-1,          367P    352
4.2D-1,1D0,1D0,1D0,1D0,-1.574434184080D1,-1.458D1,2.7D-1,            367P    353
-7.638344061379D0,-1.458D1,-1.377D1,-1.574434184080D1,-3.642D1,      367P    354
2.7D-1,-7.638344061379D0,-3.642D1,-1.377D1,-3.117691453624D-1,       367P    355
1.590022641348D1,-2.142D1,4.2D-1;                                    367P    356
508,4,0,163,38,0,0,0,163,44,1,0,0,163,4,1,0,0,163,45,0,0;            369P    357
510,367,1,0,369;                                                     371P    358
128,1,1,1,1,0,0,1,0,0,-3.117691453624D-1,-3.117691453624D-1,         373P    359
1.590022641348D1,1.590022641348D1,-2.142D1,-2.142D1,4.2D-1,          373P    360
4.2D-1,1D0,1D0,1D0,1D0,-7.638344061379D0,-1.458D1,1.377D1,           373P    361
-1.574434184080D1,-1.458D1,-2.7D-1,-7.638344061379D0,-3.642D1,       373P    362
1.377D1,-1.574434184080D1,-3.642D1,-2.7D-1,-3.117691453624D-1,       373P    363
1.590022641348D1,-2.142D1,4.2D-1;                                    373P    364
508,4,0,163,37,0,0,0,163,43,1,0,0,163,3,1,0,0,163,44,0,0;            375P    365
510,373,1,0,375;                                                     377P    366
128,1,1,1,1,0,0,1,0,0,-3.117691453624D-1,-3.117691453624D-1,         379P    367
1.590022641348D1,1.590022641348D1,-2.142D1,-2.142D1,4.2D-1,          379P    368
4.2D-1,1D0,1D0,1D0,1D0,8.105997779422D0,-1.458D1,1.35D1,             379P    369
-8.105997779422D0,-1.458D1,1.35D1,8.105997779422D0,-3.642D1,         379P    370
1.35D1,-8.105997779422D0,-3.642D1,1.35D1,-3.117691453624D-1,         379P    371
1.590022641348D1,-2.142D1,4.2D-1;                                    379P    372
508,4,0,163,42,0,0,0,163,48,1,0,0,163,8,1,0,0,163,43,0,0;            381P    373
510,379,1,0,381;                                                     383P    374
128,1,1,1,1,0,0,1,0,0,-1.621199555884D1,-1.621199555884D1,           385P    375
1.621199555884D1,1.621199555884D1,-1.404D1,-1.404D1,1.404D1,         385P    376
1.404D1,1D0,1D0,1D0,1D0,-1.621199555884D1,-1.5D1,-1.404D1,           385P    377
1.621199555884D1,-1.5D1,-1.404D1,-1.621199555884D1,-1.5D1,           385P    378
1.404D1,1.621199555884D1,-1.5D1,1.404D1,-1.621199555884D1,           385P    379
1.621199555884D1,-1.404D1,1.404D1;                                   385P    380
508,6,0,163,3,0,0,0,163,8,0,0,0,163,7,0,0,0,163,6,0,0,0,163,5,0,     387P    381
0,0,163,4,0,0;                                                       387P    382
510,385,1,0,387;                                                     389P    383
128,1,1,1,1,0,0,1,0,0,-3.117691453624D-1,-3.117691453624D-1,         391P    384
1.590022641348D1,1.590022641348D1,-2.142D1,-2.142D1,4.2D-1,          391P    385
4.2D-1,1D0,1D0,1D0,1D0,-8.105997779422D0,-1.458D1,-1.35D1,           391P    386
8.105997779422D0,-1.458D1,-1.35D1,-8.105997779422D0,-3.642D1,        391P    387
-1.35D1,8.105997779422D0,-3.642D1,-1.35D1,-3.117691453624D-1,        391P    388
1.590022641348D1,-2.142D1,4.2D-1;                                    391P    389
508,4,0,163,39,0,0,0,163,45,1,0,0,163,5,1,0,0,163,46,0,0;            393P    390
510,391,1,0,393;                                                     395P    391
514,26,169,1,179,1,189,1,199,1,211,0,223,0,233,1,241,1,251,1,        397P    392
263,1,271,0,283,1,293,1,303,0,313,0,323,0,329,0,335,0,345,0,355,     397P    393
0,365,0,371,0,377,0,383,0,389,1,395,0;                               397P    394
124,-1D0,0D0,0D0,0D0,0D0,0D0,1D0,7.8D1,0D0,1D0,0D0,0D0;              399P    395
100,0D0,0D0,0D0,1.6376D1,0D0,-1.6376D1,0D0;                          401P    396
110,1.6376D1,7.8D1,0D0,1.6376D1,0D0,0D0;                             403P    397
124,1D0,0D0,0D0,0D0,0D0,0D0,-1D0,0D0,0D0,1D0,0D0,0D0;                405P    398
100,0D0,0D0,0D0,1.6376D1,0D0,-1.6376D1,0D0;                          407P    399
124,1D0,0D0,0D0,0D0,0D0,0D0,1D0,7.8D1,0D0,-1D0,0D0,0D0;              409P    400
100,0D0,0D0,0D0,1.6376D1,0D0,-1.6376D1,0D0;                          411P    401
110,-1.6376D1,7.8D1,0D0,-1.6376D1,0D0,0D0;                           413P    402
124,-1D0,0D0,0D0,0D0,0D0,0D0,-1D0,0D0,0D0,-1D0,0D0,0D0;              415P    403
100,0D0,0D0,0D0,1.6376D1,0D0,-1.6376D1,0D0;                          417P    404
502,4,1.6376D1,7.8D1,0D0,-1.6376D1,7.8D1,0D0,1.6376D1,0D0,0D0,       419P    405
-1.6376D1,0D0,0D0;                                                   419P    406
504,6,401,419,1,419,2,411,419,2,419,1,407,419,3,419,4,417,419,4,     421P    407
419,3,403,419,1,419,3,413,419,2,419,4;                               421P    408
110,0D0,7.8D1,0D0,0D0,7.7D1,0D0;                                     423P    409
110,1.6376D1,7.956D1,0D0,1.6376D1,-1.56D0,0D0;                       425P    410
120,423,425,-6.283185307180D-2,3.204424506662D0;                     427P    411
508,4,0,421,1,0,0,0,421,5,1,0,0,421,3,1,0,0,421,6,0,0;               429P    412
510,427,1,0,429;                                                     431P    413
110,0D0,7.8D1,0D0,0D0,7.7D1,0D0;                                     433P    414
110,1.6376D1,7.956D1,0D0,1.6376D1,-1.56D0,0D0;                       435P    415
120,433,435,3.078760800518D0,6.346017160251D0;                       437P    416
508,4,0,421,2,0,0,0,421,6,1,0,0,421,4,1,0,0,421,5,0,0;               439P    417
510,437,1,0,439;                                                     441P    418
514,2,431,1,441,1;                                                   443P    419
186,397,1,0;                                                         445P    420
S      1G      6D    446P    420                                        T      1
