 PTC IGES file: screw-m14x1dot5x34-csn_02_1143.igs                      S      1
1H,,1H;,30HSCREW-M14X1DOT5X34-CSN_02_1143,                              G      1
34Hscrew-m14x1dot5x34-csn_02_1143.igs,                                  G      2
49HPro/ENGINEER by Parametric Technology Corporation,7H2007160,32,38,7, G      3
38,15,30HSCREW-M14X1DOT5X34-CSN_02_1143,1.,2,2HMM,32768,0.5,            G      4
15H20111214.100757,0.00564488,56.4511,13HVladimir Zima,7HUnknown,10,0,  G      5
15H20111214.100757;                                                     G      6
     314       1       1       1       0       0       0       001000200D      1
     314       0       4       1       0                   COLOR       1D      2
     314       2       1       1       0       0       0       001000200D      3
     314       0       1       1       0                   COLOR       2D      4
     314       3       1       1       0       0       0       001000200D      5
     314       0       1       1       0                   COLOR       3D      6
     314       4       1       1       0       0       0       001000200D      7
     314       0       1       1       0                   COLOR       4D      8
     314       5       1       1       0       0       0       001000200D      9
     314       0       8       1       0                   COLOR       5D     10
     314       6       1       1       0       0       0       001000200D     11
     314       0       8       1       0                   COLOR       6D     12
     314       7       1       1       0       0       0       001000200D     13
     314       0       5       1       0                   COLOR       7D     14
     314       8       1       1       0       0       0       001000200D     15
     314       0       8       1       0                   COLOR       8D     16
     124       9       1       1       0       0       0       001000000D     17
     124       0       0       2       0                   XFORM       1D     18
     100      11       1       1       0       0      17       001010000D     19
     100       0       0       1       0                     ARC       1D     20
     124      12       1       1       0       0       0       001000000D     21
     124       0       0       2       0                   XFORM       2D     22
     100      14       1       1       0       0      21       001010000D     23
     100       0       0       1       0                     ARC       2D     24
     110      15       1       1       0       0       0       001010000D     25
     110       0       0       2       0                    LINE       1D     26
     110      17       1       1       0       0       0       001010000D     27
     110       0       0       2       0                    LINE       2D     28
     124      19       1       1       0       0       0       001000000D     29
     124       0       0       1       0                   XFORM       3D     30
     100      20       1       1       0       0      29       001010000D     31
     100       0       0       1       0                     ARC       3D     32
     110      21       1       1       0       0       0       001010000D     33
     110       0       0       2       0                    LINE       3D     34
     124      23       1       1       0       0       0       001000000D     35
     124       0       0       2       0                   XFORM       4D     36
     100      25       1       1       0       0      35       001010000D     37
     100       0       0       1       0                     ARC       4D     38
     124      26       1       1       0       0       0       001000000D     39
     124       0       0       2       0                   XFORM       5D     40
     100      28       1       1       0       0      39       001010000D     41
     100       0       0       1       0                     ARC       5D     42
     124      29       1       1       0       0       0       001000000D     43
     124       0       0       2       0                   XFORM       6D     44
     100      31       1       1       0       0      43       001010000D     45
     100       0       0       1       0                     ARC       6D     46
     124      32       1       1       0       0       0       001000000D     47
     124       0       0       1       0                   XFORM       7D     48
     100      33       1       1       0       0      47       001010000D     49
     100       0       0       1       0                     ARC       7D     50
     110      34       1       1       0       0       0       001010000D     51
     110       0       0       2       0                    LINE       4D     52
     124      36       1       1       0       0       0       001000000D     53
     124       0       0       2       0                   XFORM       8D     54
     100      38       1       1       0       0      53       001010000D     55
     100       0       0       1       0                     ARC       8D     56
     124      39       1       1       0       0       0       001000000D     57
     124       0       0       1       0                   XFORM       9D     58
     100      40       1       1       0       0      57       001010000D     59
     100       0       0       1       0                     ARC       9D     60
     124      41       1       1       0       0       0       001000000D     61
     124       0       0       1       0                   XFORM      10D     62
     100      42       1       1       0       0      61       001010000D     63
     100       0       0       1       0                     ARC      10D     64
     124      43       1       1       0       0       0       001000000D     65
     124       0       0       1       0                   XFORM      11D     66
     100      44       1       1       0       0      65       001010000D     67
     100       0       0       1       0                     ARC      11D     68
     124      45       1       1       0       0       0       001000000D     69
     124       0       0       1       0                   XFORM      12D     70
     100      46       1       1       0       0      69       001010000D     71
     100       0       0       1       0                     ARC      12D     72
     124      47       1       1       0       0       0       001000000D     73
     124       0       0       1       0                   XFORM      13D     74
     100      48       1       1       0       0      73       001010000D     75
     100       0       0       1       0                     ARC      13D     76
     110      49       1       1       0       0       0       001010000D     77
     110       0       0       1       0                    LINE       5D     78
     124      50       1       1       0       0       0       001000000D     79
     124       0       0       1       0                   XFORM      14D     80
     100      51       1       1       0       0      79       001010000D     81
     100       0       0       1       0                     ARC      14D     82
     124      52       1       1       0       0       0       001000000D     83
     124       0       0       1       0                   XFORM      15D     84
     100      53       1       1       0       0      83       001010000D     85
     100       0       0       1       0                     ARC      15D     86
     124      54       1       1       0       0       0       001000000D     87
     124       0       0       1       0                   XFORM      16D     88
     100      55       1       1       0       0      87       001010000D     89
     100       0       0       1       0                     ARC      16D     90
     124      56       1       1       0       0       0       001000000D     91
     124       0       0       1       0                   XFORM      17D     92
     100      57       1       1       0       0      91       001010000D     93
     100       0       0       1       0                     ARC      17D     94
     124      58       1       1       0       0       0       001000000D     95
     124       0       0       2       0                   XFORM      18D     96
     100      60       1       1       0       0      95       001010000D     97
     100       0       0       1       0                     ARC      18D     98
     124      61       1       1       0       0       0       001000000D     99
     124       0       0       2       0                   XFORM      19D    100
     100      63       1       1       0       0      99       001010000D    101
     100       0       0       1       0                     ARC      19D    102
     124      64       1       1       0       0       0       001000000D    103
     124       0       0       1       0                   XFORM      20D    104
     100      65       1       1       0       0     103       001010000D    105
     100       0       0       1       0                     ARC      20D    106
     124      66       1       1       0       0       0       001000000D    107
     124       0       0       2       0                   XFORM      21D    108
     100      68       1       1       0       0     107       001010000D    109
     100       0       0       1       0                     ARC      21D    110
     124      69       1       1       0       0       0       001000000D    111
     124       0       0       2       0                   XFORM      22D    112
     100      71       1       1       0       0     111       001010000D    113
     100       0       0       1       0                     ARC      22D    114
     124      72       1       1       0       0       0       001000000D    115
     124       0       0       1       0                   XFORM      23D    116
     100      73       1       1       0       0     115       001010000D    117
     100       0       0       1       0                     ARC      23D    118
     124      74       1       1       0       0       0       001000000D    119
     124       0       0       1       0                   XFORM      24D    120
     100      75       1       1       0       0     119       001010000D    121
     100       0       0       1       0                     ARC      24D    122
     110      76       1       1       0       0       0       001010000D    123
     110       0       0       1       0                    LINE       6D    124
     126      77       1       1       0       0       0       001010000D    125
     126       0       0      13       0                B_SPLINE       1D    126
     110      90       1       1       0       0       0       001010000D    127
     110       0       0       1       0                    LINE       7D    128
     126      91       1       1       0       0       0       001010000D    129
     126       0       0      13       0                B_SPLINE       2D    130
     110     104       1       1       0       0       0       001010000D    131
     110       0       0       1       0                    LINE       8D    132
     126     105       1       1       0       0       0       001010000D    133
     126       0       0      13       0                B_SPLINE       3D    134
     110     118       1       1       0       0       0       001010000D    135
     110       0       0       1       0                    LINE       9D    136
     126     119       1       1       0       0       0       001010000D    137
     126       0       0      13       0                B_SPLINE       4D    138
     110     132       1       1       0       0       0       001010000D    139
     110       0       0       1       0                    LINE      10D    140
     126     133       1       1       0       0       0       001010000D    141
     126       0       0      11       0                B_SPLINE       5D    142
     110     144       1       1       0       0       0       001010000D    143
     110       0       0       1       0                    LINE      11D    144
     110     145       1       1       0       0       0       001010000D    145
     110       0       0       1       0                    LINE      12D    146
     110     146       1       1       0       0       0       001010000D    147
     110       0       0       1       0                    LINE      13D    148
     110     147       1       1       0       0       0       001010000D    149
     110       0       0       1       0                    LINE      14D    150
     110     148       1       1       0       0       0       001010000D    151
     110       0       0       1       0                    LINE      15D    152
     110     149       1       1       0       0       0       001010000D    153
     110       0       0       1       0                    LINE      16D    154
     110     150       1       1       0       0       0       001010000D    155
     110       0       0       1       0                    LINE      17D    156
     126     151       1       1       0       0       0       001010000D    157
     126       0       0      11       0                B_SPLINE       6D    158
     110     162       1       1       0       0       0       001010000D    159
     110       0       0       1       0                    LINE      18D    160
     502     163       1       1       0       0       0       001010000D    161
     502       0       0      12       1                  VERTEX       1D    162
     504     175       1       1       0       0       0       000010001D    163
     504       0       0      14       1                    EDGE       1D    164
     128     189       1       1       0       0       0       001010000D    165
     128       0       0       6       0                  SPLSRF       1D    166
     508     195       1       1       0       0       0       001010000D    167
     508       0       0       1       1                EDGELOOP       1D    168
     510     196       1       1       0       0       0       000010000D    169
     510       0       0       1       1                    FACE       1D    170
     110     197       1       1       0       0       0       001010000D    171
     110       0       0       1       0                    LINE      19D    172
     110     198       1       1       0       0       0       001010000D    173
     110       0       0       2       0                    LINE      20D    174
     120     200       1       1       0       0       0       001010000D    175
     120       0       0       1       0                    SREV       1D    176
     508     201       1       1       0       0       0       001010000D    177
     508       0       0       1       1                EDGELOOP       2D    178
     510     202       1       1       0       0       0       000010000D    179
     510       0       0       1       1                    FACE       2D    180
     110     203       1       1       0       0       0       001010000D    181
     110       0       0       1       0                    LINE      21D    182
     110     204       1       1       0       0       0       001010000D    183
     110       0       0       2       0                    LINE      22D    184
     120     206       1       1       0       0       0       001010000D    185
     120       0       0       1       0                    SREV       2D    186
     508     207       1       1       0       0       0       001010000D    187
     508       0       0       1       1                EDGELOOP       3D    188
     510     208       1       1       0       0       0       000010000D    189
     510       0       0       1       1                    FACE       3D    190
     110     209       1       1       0       0       0       001010000D    191
     110       0       0       1       0                    LINE      23D    192
     110     210       1       1       0       0       0       001010000D    193
     110       0       0       1       0                    LINE      24D    194
     120     211       1       1       0       0       0       001010000D    195
     120       0       0       1       0                    SREV       3D    196
     508     212       1       1       0       0       0       001010000D    197
     508       0       0       1       1                EDGELOOP       4D    198
     510     213       1       1       0       0       0       000010000D    199
     510       0       0       1       1                    FACE       4D    200
     110     214       1       1       0       0       0       001010000D    201
     110       0       0       1       0                    LINE      25D    202
     124     215       1       1       0       0       0       001000000D    203
     124       0       0       4       0                   XFORM      25D    204
     100     219       1       1       0       0     203       001010000D    205
     100       0       0       1       0                     ARC      25D    206
     120     220       1       1       0       0       0       001010000D    207
     120       0       0       1       0                    SREV       4D    208
     508     221       1       1       0       0       0       001010000D    209
     508       0       0       1       1                EDGELOOP       5D    210
     510     222       1       1       0       0       0       000010000D    211
     510       0       0       1       1                    FACE       5D    212
     110     223       1       1       0       0       0       001010000D    213
     110       0       0       1       0                    LINE      26D    214
     124     224       1       1       0       0       0       001000000D    215
     124       0       0       4       0                   XFORM      26D    216
     100     228       1       1       0       0     215       001010000D    217
     100       0       0       1       0                     ARC      26D    218
     120     229       1       1       0       0       0       001010000D    219
     120       0       0       1       0                    SREV       5D    220
     508     230       1       1       0       0       0       001010000D    221
     508       0       0       1       1                EDGELOOP       6D    222
     510     231       1       1       0       0       0       000010000D    223
     510       0       0       1       1                    FACE       6D    224
     110     232       1       1       0       0       0       001010000D    225
     110       0       0       1       0                    LINE      27D    226
     110     233       1       1       0       0       0       001010000D    227
     110       0       0       1       0                    LINE      28D    228
     120     234       1       1       0       0       0       001010000D    229
     120       0       0       1       0                    SREV       6D    230
     508     235       1       1       0       0       0       001010000D    231
     508       0       0       1       1                EDGELOOP       7D    232
     510     236       1       1       0       0       0       000010000D    233
     510       0       0       1       1                    FACE       7D    234
     128     237       1       1       0       0       0       001010000D    235
     128       0       0       6       0                  SPLSRF       2D    236
     508     243       1       1       0       0       0       001010000D    237
     508       0       0       1       1                EDGELOOP       8D    238
     508     244       1       1       0       0       0       001010000D    239
     508       0       0       1       1                EDGELOOP       9D    240
     510     245       1       1       0       0       0       000010000D    241
     510       0       0       1       1                    FACE       8D    242
     110     246       1       1       0       0       0       001010000D    243
     110       0       0       1       0                    LINE      29D    244
     110     247       1       1       0       0       0       001010000D    245
     110       0       0       1       0                    LINE      30D    246
     120     248       1       1       0       0       0       001010000D    247
     120       0       0       1       0                    SREV       7D    248
     508     249       1       1       0       0       0       001010000D    249
     508       0       0       1       1                EDGELOOP      10D    250
     510     250       1       1       0       0       0       000010000D    251
     510       0       0       1       1                    FACE       9D    252
     110     251       1       1       0       0       0       001010000D    253
     110       0       0       1       0                    LINE      31D    254
     124     252       1       1       0       0       0       001000000D    255
     124       0       0       4       0                   XFORM      27D    256
     100     256       1       1       0       0     255       001010000D    257
     100       0       0       1       0                     ARC      27D    258
     120     257       1       1       0       0       0       001010000D    259
     120       0       0       1       0                    SREV       8D    260
     508     258       1       1       0       0       0       001010000D    261
     508       0       0       1       1                EDGELOOP      11D    262
     510     259       1       1       0       0       0       000010000D    263
     510       0       0       1       1                    FACE      10D    264
     128     260       1       1       0       0       0       001010000D    265
     128       0       0       6       0                  SPLSRF       3D    266
     508     266       1       1       0       0       0       001010000D    267
     508       0       0       1       1                EDGELOOP      12D    268
     508     267       1       1       0       0       0       001010000D    269
     508       0       0       2       1                EDGELOOP      13D    270
     510     269       1       1       0       0       0       000010000D    271
     510       0       0       1       1                    FACE      11D    272
     110     270       1       1       0       0       0       001010000D    273
     110       0       0       1       0                    LINE      32D    274
     124     271       1       1       0       0       0       001000000D    275
     124       0       0       4       0                   XFORM      28D    276
     100     275       1       1       0       0     275       001010000D    277
     100       0       0       1       0                     ARC      28D    278
     120     276       1       1       0       0       0       001010000D    279
     120       0       0       1       0                    SREV       9D    280
     508     277       1       1       0       0       0       001010000D    281
     508       0       0       1       1                EDGELOOP      14D    282
     510     278       1       1       0       0       0       000010000D    283
     510       0       0       1       1                    FACE      12D    284
     110     279       1       1       0       0       0       001010000D    285
     110       0       0       1       0                    LINE      33D    286
     110     280       1       1       0       0       0       001010000D    287
     110       0       0       1       0                    LINE      34D    288
     120     281       1       1       0       0       0       001010000D    289
     120       0       0       1       0                    SREV      10D    290
     508     282       1       1       0       0       0       001010000D    291
     508       0       0       1       1                EDGELOOP      15D    292
     510     283       1       1       0       0       0       000010000D    293
     510       0       0       1       1                    FACE      13D    294
     110     284       1       1       0       0       0       001010000D    295
     110       0       0       1       0                    LINE      35D    296
     110     285       1       1       0       0       0       001010000D    297
     110       0       0       2       0                    LINE      36D    298
     120     287       1       1       0       0       0       001010000D    299
     120       0       0       1       0                    SREV      11D    300
     508     288       1       1       0       0       0       001010000D    301
     508       0       0       1       1                EDGELOOP      16D    302
     510     289       1       1       0       0       0       000010000D    303
     510       0       0       1       1                    FACE      14D    304
     110     290       1       1       0       0       0       001010000D    305
     110       0       0       1       0                    LINE      37D    306
     110     291       1       1       0       0       0       001010000D    307
     110       0       0       2       0                    LINE      38D    308
     120     293       1       1       0       0       0       001010000D    309
     120       0       0       1       0                    SREV      12D    310
     508     294       1       1       0       0       0       001010000D    311
     508       0       0       1       1                EDGELOOP      17D    312
     510     295       1       1       0       0       0       000010000D    313
     510       0       0       1       1                    FACE      15D    314
     110     296       1       1       0       0       0       001010000D    315
     110       0       0       1       0                    LINE      39D    316
     110     297       1       1       0       0       0       001010000D    317
     110       0       0       2       0                    LINE      40D    318
     120     299       1       1       0       0       0       001010000D    319
     120       0       0       1       0                    SREV      13D    320
     508     300       1       1       0       0       0       001010000D    321
     508       0       0       1       1                EDGELOOP      18D    322
     510     301       1       1       0       0       0       000010000D    323
     510       0       0       1       1                    FACE      16D    324
     128     302       1       1       0       0       0       001010000D    325
     128       0       0       6       0                  SPLSRF       4D    326
     508     308       1       1       0       0       0       001010000D    327
     508       0       0       1       1                EDGELOOP      19D    328
     510     309       1       1       0       0       0       000010000D    329
     510       0       0       1       1                    FACE      17D    330
     128     310       1       1       0       0       0       001010000D    331
     128       0       0       6       0                  SPLSRF       5D    332
     508     316       1       1       0       0       0       001010000D    333
     508       0       0       1       1                EDGELOOP      20D    334
     510     317       1       1       0       0       0       000010000D    335
     510       0       0       1       1                    FACE      18D    336
     110     318       1       1       0       0       0       001010000D    337
     110       0       0       1       0                    LINE      41D    338
     110     319       1       1       0       0       0       001010000D    339
     110       0       0       2       0                    LINE      42D    340
     120     321       1       1       0       0       0       001010000D    341
     120       0       0       1       0                    SREV      14D    342
     508     322       1       1       0       0       0       001010000D    343
     508       0       0       1       1                EDGELOOP      21D    344
     510     323       1       1       0       0       0       000010000D    345
     510       0       0       1       1                    FACE      19D    346
     110     324       1       1       0       0       0       001010000D    347
     110       0       0       1       0                    LINE      43D    348
     110     325       1       1       0       0       0       001010000D    349
     110       0       0       2       0                    LINE      44D    350
     120     327       1       1       0       0       0       001010000D    351
     120       0       0       1       0                    SREV      15D    352
     508     328       1       1       0       0       0       001010000D    353
     508       0       0       1       1                EDGELOOP      22D    354
     510     329       1       1       0       0       0       000010000D    355
     510       0       0       1       1                    FACE      20D    356
     110     330       1       1       0       0       0       001010000D    357
     110       0       0       1       0                    LINE      45D    358
     110     331       1       1       0       0       0       001010000D    359
     110       0       0       2       0                    LINE      46D    360
     120     333       1       1       0       0       0       001010000D    361
     120       0       0       1       0                    SREV      16D    362
     508     334       1       1       0       0       0       001010000D    363
     508       0       0       1       1                EDGELOOP      23D    364
     510     335       1       1       0       0       0       000010000D    365
     510       0       0       1       1                    FACE      21D    366
     128     336       1       1       0       0       0       001010000D    367
     128       0       0       6       0                  SPLSRF       6D    368
     508     342       1       1       0       0       0       001010000D    369
     508       0       0       1       1                EDGELOOP      24D    370
     510     343       1       1       0       0       0       000010000D    371
     510       0       0       1       1                    FACE      22D    372
     128     344       1       1       0       0       0       001010000D    373
     128       0       0       6       0                  SPLSRF       7D    374
     508     350       1       1       0       0       0       001010000D    375
     508       0       0       1       1                EDGELOOP      25D    376
     510     351       1       1       0       0       0       000010000D    377
     510       0       0       1       1                    FACE      23D    378
     128     352       1       1       0       0       0       001010000D    379
     128       0       0       5       0                  SPLSRF       8D    380
     508     357       1       1       0       0       0       001010000D    381
     508       0       0       1       1                EDGELOOP      26D    382
     510     358       1       1       0       0       0       000010000D    383
     510       0       0       1       1                    FACE      24D    384
     128     359       1       1       0       0       0       001010000D    385
     128       0       0       5       0                  SPLSRF       9D    386
     508     364       1       1       0       0       0       001010000D    387
     508       0       0       2       1                EDGELOOP      27D    388
     510     366       1       1       0       0       0       000010000D    389
     510       0       0       1       1                    FACE      25D    390
     128     367       1       1       0       0       0       001010000D    391
     128       0       0       6       0                  SPLSRF      10D    392
     508     373       1       1       0       0       0       001010000D    393
     508       0       0       1       1                EDGELOOP      28D    394
     510     374       1       1       0       0       0       000010000D    395
     510       0       0       1       1                    FACE      26D    396
     514     375       1       1       0       0       0       000010000D    397
     514       0       0       3       1                   SHELL       1D    398
     124     378       1       1       0       0       0       001000000D    399
     124       0       0       1       0                   XFORM      29D    400
     100     379       1       1       0       0     399       001010000D    401
     100       0       0       1       0                     ARC      29D    402
     110     380       1       1       0       0       0       001010000D    403
     110       0       0       1       0                    LINE      47D    404
     124     381       1       1       0       0       0       001000000D    405
     124       0       0       1       0                   XFORM      30D    406
     100     382       1       1       0       0     405       001010000D    407
     100       0       0       1       0                     ARC      30D    408
     124     383       1       1       0       0       0       001000000D    409
     124       0       0       1       0                   XFORM      31D    410
     100     384       1       1       0       0     409       001010000D    411
     100       0       0       1       0                     ARC      31D    412
     110     385       1       1       0       0       0       001010000D    413
     110       0       0       1       0                    LINE      48D    414
     124     386       1       1       0       0       0       001000000D    415
     124       0       0       1       0                   XFORM      32D    416
     100     387       1       1       0       0     415       001010000D    417
     100       0       0       1       0                     ARC      32D    418
     502     388       1       1       0       0       0       001010000D    419
     502       0       0       2       1                  VERTEX       2D    420
     504     390       1       1       0       0       0       000010001D    421
     504       0       0       2       1                    EDGE       2D    422
     110     392       1       1       0       0       0       001010000D    423
     110       0       0       1       0                    LINE      49D    424
     110     393       1       1       0       0       0       001010000D    425
     110       0       0       1       0                    LINE      50D    426
     120     394       1       1       0       0       0       001010000D    427
     120       0       0       1       0                    SREV      17D    428
     508     395       1       1       0       0       0       001010000D    429
     508       0       0       1       1                EDGELOOP      29D    430
     510     396       1       1       0       0       0       000010000D    431
     510       0       0       1       1                    FACE      27D    432
     110     397       1       1       0       0       0       001010000D    433
     110       0       0       1       0                    LINE      51D    434
     110     398       1       1       0       0       0       001010000D    435
     110       0       0       1       0                    LINE      52D    436
     120     399       1       1       0       0       0       001010000D    437
     120       0       0       1       0                    SREV      18D    438
     508     400       1       1       0       0       0       001010000D    439
     508       0       0       1       1                EDGELOOP      30D    440
     510     401       1       1       0       0       0       000010000D    441
     510       0       0       1       1                    FACE      28D    442
     514     402       1       1       0       0       0       000000000D    443
     514       0       0       1       1                   SHELL       2D    444
     186     403       1       1       0       0       0       000000000D    445
     186       0       0       1       0                    MSBR       1D    446
314,1.1D0,1.2D0,1D2;                                                   1P      1
314,1.1D1,1.1D1,1.1D1;                                                 3P      2
314,3.92D1,1.2D0,1.2D0;                                                5P      3
314,4.1D1,0D0,2.2D1;                                                   7P      4
314,8.784D1,9.49D1,1D2;                                                9P      5
314,9.6D1,9.6D1,9.6D1;                                                11P      6
314,9.8D1,6.27D1,0D0;                                                 13P      7
314,1D2,1D2,9.49D1;                                                   15P      8
124,0D0,-1D0,0D0,0D0,0D0,0D0,1D0,3.399999152199D1,-1D0,0D0,0D0,       17P      9
0D0;                                                                  17P     10
100,0D0,0D0,0D0,6.399987930917D0,0D0,-6.399987930917D0,0D0;           19P     11
124,0D0,1D0,0D0,0D0,0D0,0D0,1D0,3.399999152199D1,1D0,0D0,0D0,         21P     12
0D0;                                                                  21P     13
100,0D0,0D0,0D0,6.399987930917D0,0D0,-6.399987930917D0,0D0;           23P     14
110,-3.034436268340D-9,3.399999315147D1,-6.399993150464D0,            25P     15
-2.489184971375D-9,3.339999438206D1,-6.999994381240D0;                25P     16
110,3.034437163477D-9,3.399999315147D1,6.399993150464D0,              27P     17
2.489186427683D-9,3.339999438206D1,6.999994381240D0;                  27P     18
124,0D0,1D0,0D0,0D0,0D0,0D0,-1D0,6D-1,-1D0,0D0,0D0,0D0;               29P     19
100,0D0,0D0,0D0,7D0,0D0,-7D0,0D0;                                     31P     20
110,-5.601406111947D-13,6D-1,7D0,2.489186427683D-9,                   33P     21
3.339999438206D1,6.999994381240D0;                                    33P     22
124,0D0,1D0,0D0,0D0,0D0,0D0,1D0,3.339999601817D1,1D0,0D0,0D0,         35P     23
0D0;                                                                  35P     24
100,0D0,0D0,0D0,7D0,0D0,-7D0,0D0;                                     37P     25
124,1.493829365762D-12,0D0,1D0,-1.135311289424D-11,0D0,-1D0,0D0,      39P     26
6D-1,1D0,0D0,-1.493829365762D-12,-7.6D0;                              39P     27
100,0D0,0D0,0D0,6D-1,0D0,1.467194042041D-13,6D-1;                     41P     28
124,-1.493949061682D-12,0D0,-1D0,1.135401495045D-11,0D0,-1D0,         43P     29
0D0,6D-1,-1D0,0D0,1.493949061682D-12,7.6D0;                           43P     30
100,0D0,0D0,0D0,6D-1,0D0,1.475187647818D-13,6D-1;                     45P     31
124,0D0,-1D0,0D0,0D0,0D0,0D0,-1D0,6D-1,1D0,0D0,0D0,0D0;               47P     32
100,0D0,0D0,0D0,7D0,0D0,-7D0,0D0;                                     49P     33
110,5.634585277882D-13,6D-1,-7D0,-2.489184971375D-9,                  51P     34
3.339999438206D1,-6.999994381240D0;                                   51P     35
124,0D0,-1D0,0D0,0D0,0D0,0D0,1D0,3.339999601817D1,-1D0,0D0,0D0,       53P     36
0D0;                                                                  53P     37
100,0D0,0D0,0D0,7D0,0D0,-7D0,0D0;                                     55P     38
124,0D0,-1D0,0D0,0D0,0D0,0D0,1D0,0D0,-1D0,0D0,0D0,0D0;                57P     39
100,0D0,0D0,0D0,1.05D1,0D0,-1.05D1,0D0;                               59P     40
124,0D0,1D0,0D0,0D0,0D0,0D0,1D0,0D0,1D0,0D0,0D0,0D0;                  61P     41
100,0D0,0D0,0D0,1.05D1,0D0,-1.05D1,0D0;                               63P     42
124,0D0,-1D0,0D0,0D0,0D0,0D0,-1D0,0D0,1D0,0D0,0D0,0D0;                65P     43
100,0D0,0D0,0D0,7.599999901571D0,0D0,-7.599999901571D0,0D0;           67P     44
124,0D0,1D0,0D0,0D0,0D0,0D0,-1D0,0D0,-1D0,0D0,0D0,0D0;                69P     45
100,0D0,0D0,0D0,7.599999901571D0,0D0,-7.599999901571D0,0D0;           71P     46
124,0D0,-1D0,0D0,0D0,0D0,0D0,-1D0,-1.2D1,1D0,0D0,0D0,0D0;             73P     47
100,0D0,0D0,0D0,1.05D1,0D0,-1.05D1,0D0;                               75P     48
110,0D0,0D0,-1.05D1,-1.059186432003D-11,-1.2D1,-1.05D1;               77P     49
124,0D0,0D0,-1D0,0D0,-1D0,0D0,0D0,-1.2D1,0D0,1D0,0D0,8.5D0;           79P     50
100,0D0,0D0,0D0,2D0,0D0,0D0,2D0;                                      81P     51
124,0D0,1D0,0D0,0D0,0D0,0D0,-1D0,-1.4D1,-1D0,0D0,0D0,0D0;             83P     52
100,0D0,0D0,0D0,8.499999931265D0,0D0,-8.499999931265D0,0D0;           85P     53
124,0D0,-1D0,0D0,0D0,0D0,0D0,-1D0,-1.4D1,1D0,0D0,0D0,0D0;             87P     54
100,0D0,0D0,0D0,8.499999931265D0,0D0,-8.499999931265D0,0D0;           89P     55
124,1D0,0D0,0D0,0D0,0D0,0D0,-1D0,-1.4D1,0D0,1D0,0D0,0D0;              91P     56
100,0D0,0D0,0D0,6.928203230276D0,0D0,3.464101615138D0,6D0;            93P     57
124,5D-1,-8.660254037844D-1,0D0,0D0,0D0,0D0,-1D0,-1.4D1,              95P     58
8.660254037844D-1,5D-1,0D0,0D0;                                       95P     59
100,0D0,0D0,0D0,6.928203230276D0,0D0,3.464101615138D0,6D0;            97P     60
124,-5D-1,-8.660254037844D-1,0D0,0D0,0D0,0D0,-1D0,-1.4D1,             99P     61
8.660254037844D-1,-5D-1,0D0,0D0;                                      99P     62
100,0D0,0D0,0D0,6.928203230276D0,0D0,3.464101615138D0,6D0;           101P     63
124,-1D0,0D0,0D0,0D0,0D0,0D0,-1D0,-1.4D1,0D0,-1D0,0D0,0D0;           103P     64
100,0D0,0D0,0D0,6.928203230276D0,0D0,3.464101615138D0,6D0;           105P     65
124,-5D-1,8.660254037844D-1,0D0,0D0,0D0,0D0,-1D0,-1.4D1,             107P     66
-8.660254037844D-1,-5D-1,0D0,0D0;                                    107P     67
100,0D0,0D0,0D0,6.928203230276D0,0D0,3.464101615138D0,6D0;           109P     68
124,5D-1,8.660254037844D-1,0D0,0D0,0D0,0D0,-1D0,-1.4D1,              111P     69
-8.660254037844D-1,5D-1,0D0,0D0;                                     111P     70
100,0D0,0D0,0D0,6.928203230276D0,0D0,3.464101615138D0,6D0;           113P     71
124,0D0,0D0,1D0,0D0,-1D0,0D0,0D0,-1.2D1,0D0,-1D0,0D0,-8.5D0;         115P     72
100,0D0,0D0,0D0,2D0,0D0,0D0,2D0;                                     117P     73
124,0D0,1D0,0D0,0D0,0D0,0D0,-1D0,-1.2D1,-1D0,0D0,0D0,0D0;            119P     74
100,0D0,0D0,0D0,1.05D1,0D0,-1.05D1,0D0;                              121P     75
110,0D0,0D0,1.05D1,1.059207475689D-11,-1.2D1,1.05D1;                 123P     76
126,9,3,0,0,1,0,0D0,0D0,0D0,0D0,1.428571428571D-1,                   125P     77
2.857142857143D-1,4.285714285714D-1,5.714285714286D-1,               125P     78
7.142857142857D-1,8.571428571429D-1,1D0,1D0,1D0,1D0,1D0,1D0,1D0,     125P     79
1D0,1D0,1D0,1D0,1D0,1D0,1D0,6.928203230276D0,-1.4D1,0D0,             125P     80
6.754081287591D0,-1.389947064952D1,3.015880514425D-1,                125P     81
6.412004862980D0,-1.372506911551D1,8.940817989396D-1,                125P     82
5.924232231413D0,-1.355079073359D1,1.738928779356D0,                 125P     83
5.438600511895D0,-1.346031058786D1,2.580067591327D0,                 125P     84
4.953139120961D0,-1.346035652426D1,3.420911385538D0,                 125P     85
4.467463423690D0,-1.355097286664D1,4.262126369213D0,                 125P     86
3.980160542444D0,-1.372515084264D1,5.106159718207D0,                 125P     87
3.638180651840D0,-1.389949542130D1,5.698486263899D0,                 125P     88
3.464101615138D0,-1.4D1,6D0,0D0,1D0,0D0,0D0,1D0;                     125P     89
110,6.928203230276D0,-1.4D1,0D0,6.928203230276D0,-6D0,0D0;           127P     90
126,9,3,0,0,1,0,0D0,0D0,0D0,0D0,1.428571428571D-1,                   129P     91
2.857142857143D-1,4.285714285714D-1,5.714285714286D-1,               129P     92
7.142857142857D-1,8.571428571429D-1,1D0,1D0,1D0,1D0,1D0,1D0,1D0,     129P     93
1D0,1D0,1D0,1D0,1D0,1D0,1D0,3.464101615138D0,-1.4D1,-6D0,            129P     94
3.638223557822D0,-1.389947064952D1,-5.698411948558D0,                129P     95
3.980299982433D0,-1.372506911551D1,-5.105918201060D0,                129P     96
4.468072614001D0,-1.355079073359D1,-4.261071220644D0,                129P     97
4.953704333518D0,-1.346031058786D1,-3.419932408673D0,                129P     98
5.439165724452D0,-1.346035652426D1,-2.579088614462D0,                129P     99
5.924841421723D0,-1.355097286664D1,-1.737873630787D0,                129P    100
6.412144302970D0,-1.372515084264D1,-8.938402817935D-1,               129P    101
6.754124193573D0,-1.389949542130D1,-3.015137361013D-1,               129P    102
6.928203230276D0,-1.4D1,0D0,0D0,1D0,0D0,0D0,1D0;                     129P    103
110,3.464101615138D0,-1.4D1,-6D0,3.464101615138D0,-6D0,-6D0;         131P    104
126,9,3,0,0,1,0,0D0,0D0,0D0,0D0,1.428571428571D-1,                   133P    105
2.857142857143D-1,4.285714285714D-1,5.714285714286D-1,               133P    106
7.142857142857D-1,8.571428571429D-1,1D0,1D0,1D0,1D0,1D0,1D0,1D0,     133P    107
1D0,1D0,1D0,1D0,1D0,1D0,1D0,-6.928203230276D0,-1.4D1,0D0,            133P    108
-6.754081287591D0,-1.389947064952D1,-3.015880514425D-1,              133P    109
-6.412004862980D0,-1.372506911551D1,-8.940817989396D-1,              133P    110
-5.924232231413D0,-1.355079073359D1,-1.738928779356D0,               133P    111
-5.438600511895D0,-1.346031058786D1,-2.580067591327D0,               133P    112
-4.953139120961D0,-1.346035652426D1,-3.420911385538D0,               133P    113
-4.467463423690D0,-1.355097286664D1,-4.262126369213D0,               133P    114
-3.980160542444D0,-1.372515084264D1,-5.106159718207D0,               133P    115
-3.638180651840D0,-1.389949542130D1,-5.698486263899D0,               133P    116
-3.464101615138D0,-1.4D1,-6D0,0D0,1D0,0D0,0D0,1D0;                   133P    117
110,-6.928203230276D0,-1.4D1,0D0,-6.928203230276D0,-6D0,0D0;         135P    118
126,9,3,0,0,1,0,0D0,0D0,0D0,0D0,1.428571428571D-1,                   137P    119
2.857142857143D-1,4.285714285714D-1,5.714285714286D-1,               137P    120
7.142857142857D-1,8.571428571429D-1,1D0,1D0,1D0,1D0,1D0,1D0,1D0,     137P    121
1D0,1D0,1D0,1D0,1D0,1D0,1D0,-3.464101615138D0,-1.4D1,6D0,            137P    122
-3.638223557822D0,-1.389947064952D1,5.698411948558D0,                137P    123
-3.980299982433D0,-1.372506911551D1,5.105918201060D0,                137P    124
-4.468072614001D0,-1.355079073359D1,4.261071220644D0,                137P    125
-4.953704333518D0,-1.346031058786D1,3.419932408673D0,                137P    126
-5.439165724452D0,-1.346035652426D1,2.579088614462D0,                137P    127
-5.924841421723D0,-1.355097286664D1,1.737873630787D0,                137P    128
-6.412144302970D0,-1.372515084264D1,8.938402817935D-1,               137P    129
-6.754124193573D0,-1.389949542130D1,3.015137361013D-1,               137P    130
-6.928203230276D0,-1.4D1,0D0,0D0,1D0,0D0,0D0,1D0;                    137P    131
110,-3.464101615138D0,-1.4D1,6D0,-3.464101615138D0,-6D0,6D0;         139P    132
126,9,3,0,0,1,0,0D0,0D0,0D0,0D0,1.428571428571D-1,                   141P    133
2.857142857143D-1,4.285714285714D-1,5.714285714286D-1,               141P    134
7.142857142857D-1,8.571428571429D-1,1D0,1D0,1D0,1D0,1D0,1D0,1D0,     141P    135
1D0,1D0,1D0,1D0,1D0,1D0,1D0,3.464101615138D0,-1.4D1,6D0,             141P    136
3.115857729768D0,-1.389947064952D1,6D0,2.431704880547D0,             141P    137
-1.372506911551D1,6D0,1.456159617412D0,-1.355079073359D1,6D0,        141P    138
4.848961783772D-1,-1.346031058786D1,6D0,-4.860266034907D-1,          141P    139
-1.346035652426D1,6D0,-1.457377998033D0,-1.355097286664D1,6D0,       141P    140
-2.431983760526D0,-1.372515084264D1,6D0,-3.115943541733D0,           141P    141
-1.389949542130D1,6D0,-3.464101615138D0,-1.4D1,6D0,0D0,1D0,0D0,      141P    142
0D0,1D0;                                                             141P    143
110,3.464101615138D0,-1.4D1,6D0,3.464101615138D0,-6D0,6D0;           143P    144
110,-3.464101615138D0,-6D0,6D0,-6.928203230276D0,-6D0,0D0;           145P    145
110,3.464101615138D0,-6D0,6D0,-3.464101615138D0,-6D0,6D0;            147P    146
110,6.928203230276D0,-6D0,0D0,3.464101615138D0,-6D0,6D0;             149P    147
110,3.464101615138D0,-6D0,-6D0,6.928203230276D0,-6D0,0D0;            151P    148
110,-3.464101615138D0,-6D0,-6D0,3.464101615138D0,-6D0,-6D0;          153P    149
110,-6.928203230276D0,-6D0,0D0,-3.464101615138D0,-6D0,-6D0;          155P    150
126,9,3,0,0,1,0,0D0,0D0,0D0,0D0,1.428571428571D-1,                   157P    151
2.857142857143D-1,4.285714285714D-1,5.714285714286D-1,               157P    152
7.142857142857D-1,8.571428571429D-1,1D0,1D0,1D0,1D0,1D0,1D0,1D0,     157P    153
1D0,1D0,1D0,1D0,1D0,1D0,1D0,-3.464101615138D0,-1.4D1,-6D0,           157P    154
-3.115857729768D0,-1.389947064952D1,-6D0,-2.431704880547D0,          157P    155
-1.372506911551D1,-6D0,-1.456159617412D0,-1.355079073359D1,-6D0,     157P    156
-4.848961783772D-1,-1.346031058786D1,-6D0,4.860266034907D-1,         157P    157
-1.346035652426D1,-6D0,1.457377998033D0,-1.355097286664D1,-6D0,      157P    158
2.431983760526D0,-1.372515084264D1,-6D0,3.115943541733D0,            157P    159
-1.389949542130D1,-6D0,3.464101615138D0,-1.4D1,-6D0,0D0,1D0,0D0,     157P    160
0D0,1D0;                                                             157P    161
110,-3.464101615138D0,-1.4D1,-6D0,-3.464101615138D0,-6D0,-6D0;       159P    162
502,26,0D0,0D0,-1.05D1,0D0,0D0,1.05D1,-3.464101615138D0,-6D0,        161P    163
6D0,-6.928203230276D0,-6D0,0D0,-3.464101615138D0,-6D0,-6D0,          161P    164
3.464101615138D0,-6D0,-6D0,6.928203230276D0,-6D0,0D0,                161P    165
3.464101615138D0,-6D0,6D0,0D0,3.399999152199D1,                      161P    166
-6.399987930917D0,0D0,3.399999152199D1,6.399987930917D0,0D0,         161P    167
3.339999601817D1,-7D0,0D0,3.339999601817D1,7D0,0D0,6D-1,7D0,0D0,     161P    168
6D-1,-7D0,0D0,0D0,7.599999901571D0,0D0,0D0,-7.599999901571D0,        161P    169
0D0,-1.4D1,-8.499999931265D0,0D0,-1.4D1,8.499999931265D0,0D0,        161P    170
-1.2D1,-1.05D1,0D0,-1.2D1,1.05D1,6.928203230276D0,-1.4D1,0D0,        161P    171
3.464101615138D0,-1.4D1,6D0,-3.464101615138D0,-1.4D1,6D0,            161P    172
-6.928203230276D0,-1.4D1,0D0,-3.464101615138D0,-1.4D1,-6D0,          161P    173
3.464101615138D0,-1.4D1,-6D0;                                        161P    174
504,48,59,161,1,161,2,63,161,2,161,1,145,161,3,161,4,155,161,4,      163P    175
161,5,153,161,5,161,6,151,161,6,161,7,149,161,7,161,8,147,161,8,     163P    176
161,3,19,161,9,161,10,55,161,11,161,12,23,161,10,161,9,37,161,       163P    177
12,161,11,27,161,10,161,12,25,161,9,161,11,49,161,13,161,14,67,      163P    178
161,15,161,16,31,161,14,161,13,71,161,16,161,15,51,161,14,161,       163P    179
11,33,161,13,161,12,41,161,14,161,16,45,161,13,161,15,85,161,17,     163P    180
161,18,121,161,19,161,20,89,161,18,161,17,75,161,20,161,19,77,       163P    181
161,1,161,19,123,161,2,161,20,81,161,18,161,20,117,161,17,161,       163P    182
19,93,161,21,161,22,97,161,22,161,23,101,161,23,161,24,105,161,      163P    183
24,161,25,109,161,25,161,26,113,161,26,161,21,137,161,23,161,24,     163P    184
133,161,24,161,25,157,161,25,161,26,129,161,26,161,21,125,161,       163P    185
21,161,22,141,161,22,161,23,139,161,23,161,3,135,161,24,161,4,       163P    186
159,161,25,161,5,131,161,26,161,6,127,161,21,161,7,143,161,22,       163P    187
161,8;                                                               163P    188
128,1,1,1,1,0,0,1,0,0,-6.656D0,-6.656D0,6.656D0,6.656D0,             165P    189
-6.655999944980D0,-6.655999944980D0,6.655999944980D0,                165P    190
6.655999944980D0,1D0,1D0,1D0,1D0,6.655999944980D0,3.4D1,6.656D0,     165P    191
6.655999944980D0,3.4D1,-6.656D0,-6.655999944980D0,3.4D1,6.656D0,     165P    192
-6.655999944980D0,3.4D1,-6.656D0,-6.656D0,6.656D0,                   165P    193
-6.655999944980D0,6.655999944980D0;                                  165P    194
508,2,0,163,9,0,0,0,163,11,0,0;                                      167P    195
510,165,1,0,167;                                                     169P    196
110,0D0,4.04D1,0D0,0D0,3.94D1,0D0;                                   171P    197
110,0D0,3.404790892716D1,-6.352070679583D0,0D0,3.335206757515D1,     173P    198
-7.047909797609D0;                                                   173P    199
120,171,173,-3.204424518286D0,6.283186327333D-2;                     175P    200
508,4,0,163,9,1,0,0,163,13,1,0,0,163,10,0,0,0,163,14,0,0;            177P    201
510,175,1,0,177;                                                     179P    202
110,0D0,4.04D1,0D0,0D0,3.94D1,0D0;                                   181P    203
110,0D0,3.404790892716D1,-6.352070679583D0,0D0,3.335206757515D1,     183P    204
-7.047909797609D0;                                                   183P    205
120,181,183,-6.283186469572D-2,3.204424516863D0;                     185P    206
508,4,0,163,11,1,0,0,163,14,1,0,0,163,12,0,0,0,163,13,0,0;           187P    207
510,185,1,0,187;                                                     189P    208
110,0D0,0D0,0D0,0D0,1D0,0D0;                                         191P    209
110,0D0,-5.600017418609D-2,-7D0,0D0,3.405600888349D1,-7D0;           193P    210
120,191,193,3.078760800518D0,6.346017160251D0;                       195P    211
508,4,0,163,17,1,0,0,163,20,1,0,0,163,12,1,0,0,163,19,0,0;           197P    212
510,195,1,0,197;                                                     199P    213
110,0D0,6D-1,0D0,0D0,1.6D0,0D0;                                      201P    214
124,1.184677424889D-2,1.343239296488D-3,9.999289222980D-1,           203P    215
-9.061238506088D-2,1.126625090649D-1,-9.936333121686D-1,0D0,         203P    216
6D-1,9.935626869962D-1,1.126545012726D-1,-1.192268224485D-2,         203P    217
-7.599459809465D0;                                                   203P    218
100,0D0,0D0,0D0,6D-1,0D0,-1.343346095140D-1,5.847685120513D-1;       205P    219
120,201,205,-3.216347471395D0,5.090888834152D-2;                     207P    220
508,4,0,163,17,0,0,0,163,21,1,0,0,163,18,1,0,0,163,22,0,0;           209P    221
510,207,1,0,209;                                                     211P    222
110,0D0,6D-1,0D0,0D0,1.6D0,0D0;                                      213P    223
124,-1.184677424889D-2,-1.343239296488D-3,-9.999289222980D-1,        215P    224
9.061238506088D-2,1.126625090649D-1,-9.936333121686D-1,0D0,6D-1,     215P    225
-9.935626869962D-1,-1.126545012726D-1,1.192268224485D-2,             215P    226
7.599459809465D0;                                                    215P    227
100,0D0,0D0,0D0,6D-1,0D0,-1.343346095140D-1,5.847685120513D-1;       217P    228
120,213,217,-3.216347471395D0,5.090888834152D-2;                     219P    229
508,4,0,163,15,0,0,0,163,22,1,0,0,163,16,1,0,0,163,21,0,0;           221P    230
510,219,1,0,221;                                                     223P    231
110,0D0,0D0,0D0,0D0,1D0,0D0;                                         225P    232
110,0D0,-5.600017418609D-2,-7D0,0D0,3.405600888349D1,-7D0;           227P    233
120,225,227,-6.283185307180D-2,3.204424506662D0;                     229P    234
508,4,0,163,15,1,0,0,163,19,1,0,0,163,10,1,0,0,163,20,0,0;           231P    235
510,229,1,0,231;                                                     233P    236
128,1,1,1,1,0,0,1,0,0,-1.092D1,-1.092D1,1.092D1,1.092D1,             235P    237
-1.092899402315D1,-1.092899402315D1,1.092899402315D1,                235P    238
1.092899402315D1,1D0,1D0,1D0,1D0,1.092899402315D1,0D0,1.092D1,       235P    239
1.092899402315D1,0D0,-1.092D1,-1.092899402315D1,0D0,1.092D1,         235P    240
-1.092899402315D1,0D0,-1.092D1,-1.092D1,1.092D1,                     235P    241
-1.092899402315D1,1.092899402315D1;                                  235P    242
508,2,0,163,1,0,0,0,163,2,0,0;                                       237P    243
508,2,0,163,16,0,0,0,163,18,0,0;                                     239P    244
510,235,2,0,237,239;                                                 241P    245
110,0D0,0D0,0D0,0D0,1D0,0D0;                                         243P    246
110,0D0,-1.224D1,-1.05D1,0D0,2.4D-1,-1.05D1;                         245P    247
120,243,245,-6.283185307180D-2,3.204424506662D0;                     247P    248
508,4,0,163,26,1,0,0,163,27,0,0,0,163,1,1,0,0,163,28,1,0;            249P    249
510,247,1,0,249;                                                     251P    250
110,0D0,-1.2D1,0D0,0D0,-1.1D1,0D0;                                   253P    251
124,-3.976717965972D-4,1.173629078830D-2,-9.999310482907D-1,         255P    252
9.981572269688D-2,-9.994264330828D-1,-3.386450731155D-2,0D0,         255P    253
-1.2D1,-3.386217229589D-2,9.993575209219D-1,1.174302619963D-2,       255P    254
8.499413910471D0;                                                    255P    255
100,0D0,0D0,0D0,2D0,0D0,-1.353796990117D-1,1.995412823727D0;         257P    256
120,253,257,-3.216167802865D0,5.108855696777D-2;                     259P    257
508,4,0,163,25,1,0,0,163,30,1,0,0,163,26,0,0,0,163,29,0,0;           261P    258
510,259,1,0,261;                                                     263P    259
128,1,1,1,1,0,0,1,0,0,-8.84D0,-8.84D0,8.84D0,8.84D0,                 265P    260
-8.840000217888D0,-8.840000217888D0,8.840000217888D0,                265P    261
8.840000217888D0,1D0,1D0,1D0,1D0,8.840000217888D0,-1.4D1,8.84D0,     265P    262
8.840000217888D0,-1.4D1,-8.84D0,-8.840000217888D0,-1.4D1,8.84D0,     265P    263
-8.840000217888D0,-1.4D1,-8.84D0,-8.84D0,8.84D0,                     265P    264
-8.840000217888D0,8.840000217888D0;                                  265P    265
508,2,0,163,23,0,0,0,163,25,0,0;                                     267P    266
508,6,0,163,31,1,0,0,163,32,1,0,0,163,33,1,0,0,163,34,1,0,0,163,     269P    267
35,1,0,0,163,36,1,0;                                                 269P    268
510,265,2,0,267,269;                                                 271P    269
110,0D0,-1.2D1,0D0,0D0,-1.1D1,0D0;                                   273P    270
124,3.976717965972D-4,-1.173629078830D-2,9.999310482907D-1,          275P    271
-9.981572269688D-2,-9.994264330828D-1,-3.386450731155D-2,0D0,        275P    272
-1.2D1,3.386217229589D-2,-9.993575209219D-1,-1.174302619963D-2,      275P    273
-8.499413910471D0;                                                   275P    274
100,0D0,0D0,0D0,2D0,0D0,-1.353796990117D-1,1.995412823727D0;         277P    275
120,273,277,-3.216167802865D0,5.108855696777D-2;                     279P    276
508,4,0,163,23,1,0,0,163,29,1,0,0,163,24,0,0,0,163,30,0,0;           281P    277
510,279,1,0,281;                                                     283P    278
110,0D0,0D0,0D0,0D0,1D0,0D0;                                         285P    279
110,0D0,-1.224D1,-1.05D1,0D0,2.4D-1,-1.05D1;                         287P    280
120,285,287,3.078760800518D0,6.346017160251D0;                       289P    281
508,4,0,163,24,1,0,0,163,28,0,0,0,163,2,1,0,0,163,27,1,0;            291P    282
510,289,1,0,291;                                                     293P    283
110,0D0,-1D1,0D0,0D0,-1.1D1,0D0;                                     295P    284
110,-5.935797299467D0,-1.342703416870D1,0D0,-6.986868942234D0,       297P    285
-1.403387066459D1,0D0;                                               297P    286
120,295,297,-3.204424506662D0,6.283185307180D-2;                     299P    287
508,2,0,163,41,1,0,0,163,31,0,0;                                     301P    288
510,299,1,0,301;                                                     303P    289
110,0D0,-1D1,0D0,0D0,-1.1D1,0D0;                                     305P    290
110,-5.935797299467D0,-1.342703416870D1,0D0,-6.986868942234D0,       307P    291
-1.403387066459D1,0D0;                                               307P    292
120,305,307,-3.204424506662D0,6.283185307180D-2;                     309P    293
508,2,0,163,42,1,0,0,163,32,0,0;                                     311P    294
510,309,1,0,311;                                                     313P    295
110,0D0,-1D1,0D0,0D0,-1.1D1,0D0;                                     315P    296
110,-5.935797299467D0,-1.342703416870D1,0D0,-6.986868942234D0,       317P    297
-1.403387066459D1,0D0;                                               317P    298
120,315,317,-3.204424506662D0,6.283185307180D-2;                     319P    299
508,2,0,163,37,1,0,0,163,33,0,0;                                     321P    300
510,319,1,0,321;                                                     323P    301
128,1,1,1,1,0,0,1,0,0,-1.385640646055D-1,-1.385640646055D-1,         325P    302
7.066767294881D0,7.066767294881D0,-8.16D0,-8.16D0,1.6D-1,1.6D-1,     325P    303
1D0,1D0,1D0,1D0,6.997485262578D0,-5.84D0,-1.2D-1,                    325P    304
3.394819582835D0,-5.84D0,6.12D0,6.997485262578D0,-1.416D1,           325P    305
-1.2D-1,3.394819582835D0,-1.416D1,6.12D0,-1.385640646055D-1,         325P    306
7.066767294881D0,-8.16D0,1.6D-1;                                     325P    307
508,4,0,163,41,0,0,0,163,47,1,0,0,163,7,1,0,0,163,48,0,0;            327P    308
510,325,1,0,327;                                                     329P    309
128,1,1,1,1,0,0,1,0,0,-1.385640646055D-1,-1.385640646055D-1,         331P    310
7.066767294881D0,7.066767294881D0,-8.16D0,-8.16D0,1.6D-1,1.6D-1,     331P    311
1D0,1D0,1D0,1D0,3.394819582835D0,-5.84D0,-6.12D0,                    331P    312
6.997485262578D0,-5.84D0,1.2D-1,3.394819582835D0,-1.416D1,           331P    313
-6.12D0,6.997485262578D0,-1.416D1,1.2D-1,-1.385640646055D-1,         331P    314
7.066767294881D0,-8.16D0,1.6D-1;                                     331P    315
508,4,0,163,40,0,0,0,163,46,1,0,0,163,6,1,0,0,163,47,0,0;            333P    316
510,331,1,0,333;                                                     335P    317
110,0D0,-1D1,0D0,0D0,-1.1D1,0D0;                                     337P    318
110,-5.935797299467D0,-1.342703416870D1,0D0,-6.986868942234D0,       339P    319
-1.403387066459D1,0D0;                                               339P    320
120,337,339,-6.346017160251D0,-3.078760800518D0;                     341P    321
508,2,0,163,38,1,0,0,163,34,0,0;                                     343P    322
510,341,1,0,343;                                                     345P    323
110,0D0,-1D1,0D0,0D0,-1.1D1,0D0;                                     347P    324
110,-5.935797299467D0,-1.342703416870D1,0D0,-6.986868942234D0,       349P    325
-1.403387066459D1,0D0;                                               349P    326
120,347,349,-6.346017160251D0,-3.078760800518D0;                     351P    327
508,2,0,163,39,1,0,0,163,35,0,0;                                     353P    328
510,351,1,0,353;                                                     355P    329
110,0D0,-1D1,0D0,0D0,-1.1D1,0D0;                                     357P    330
110,-5.935797299467D0,-1.342703416870D1,0D0,-6.986868942234D0,       359P    331
-1.403387066459D1,0D0;                                               359P    332
120,357,359,-6.346017160251D0,-3.078760800518D0;                     361P    333
508,2,0,163,40,1,0,0,163,36,0,0;                                     363P    334
510,361,1,0,363;                                                     365P    335
128,1,1,1,1,0,0,1,0,0,-1.385640646055D-1,-1.385640646055D-1,         367P    336
7.066767294881D0,7.066767294881D0,-8.16D0,-8.16D0,1.6D-1,1.6D-1,     367P    337
1D0,1D0,1D0,1D0,-6.997485262578D0,-5.84D0,1.2D-1,                    367P    338
-3.394819582835D0,-5.84D0,-6.12D0,-6.997485262578D0,-1.416D1,        367P    339
1.2D-1,-3.394819582835D0,-1.416D1,-6.12D0,-1.385640646055D-1,        367P    340
7.066767294881D0,-8.16D0,1.6D-1;                                     367P    341
508,4,0,163,38,0,0,0,163,44,1,0,0,163,4,1,0,0,163,45,0,0;            369P    342
510,367,1,0,369;                                                     371P    343
128,1,1,1,1,0,0,1,0,0,-1.385640646055D-1,-1.385640646055D-1,         373P    344
7.066767294881D0,7.066767294881D0,-8.16D0,-8.16D0,1.6D-1,1.6D-1,     373P    345
1D0,1D0,1D0,1D0,-3.394819582835D0,-5.84D0,6.12D0,                    373P    346
-6.997485262578D0,-5.84D0,-1.2D-1,-3.394819582835D0,-1.416D1,        373P    347
6.12D0,-6.997485262578D0,-1.416D1,-1.2D-1,-1.385640646055D-1,        373P    348
7.066767294881D0,-8.16D0,1.6D-1;                                     373P    349
508,4,0,163,37,0,0,0,163,43,1,0,0,163,3,1,0,0,163,44,0,0;            375P    350
510,373,1,0,375;                                                     377P    351
128,1,1,1,1,0,0,1,0,0,-1.385640646055D-1,-1.385640646055D-1,         379P    352
7.066767294881D0,7.066767294881D0,-8.16D0,-8.16D0,1.6D-1,1.6D-1,     379P    353
1D0,1D0,1D0,1D0,3.602665679743D0,-5.84D0,6D0,-3.602665679743D0,      379P    354
-5.84D0,6D0,3.602665679743D0,-1.416D1,6D0,-3.602665679743D0,         379P    355
-1.416D1,6D0,-1.385640646055D-1,7.066767294881D0,-8.16D0,1.6D-1;     379P    356
508,4,0,163,42,0,0,0,163,48,1,0,0,163,8,1,0,0,163,43,0,0;            381P    357
510,379,1,0,381;                                                     383P    358
128,1,1,1,1,0,0,1,0,0,-7.205331359487D0,-7.205331359487D0,           385P    359
7.205331359487D0,7.205331359487D0,-6.24D0,-6.24D0,6.24D0,6.24D0,     385P    360
1D0,1D0,1D0,1D0,-7.205331359487D0,-6D0,-6.24D0,7.205331359487D0,     385P    361
-6D0,-6.24D0,-7.205331359487D0,-6D0,6.24D0,7.205331359487D0,         385P    362
-6D0,6.24D0,-7.205331359487D0,7.205331359487D0,-6.24D0,6.24D0;       385P    363
508,6,0,163,3,0,0,0,163,8,0,0,0,163,7,0,0,0,163,6,0,0,0,163,5,0,     387P    364
0,0,163,4,0,0;                                                       387P    365
510,385,1,0,387;                                                     389P    366
128,1,1,1,1,0,0,1,0,0,-1.385640646055D-1,-1.385640646055D-1,         391P    367
7.066767294881D0,7.066767294881D0,-8.16D0,-8.16D0,1.6D-1,1.6D-1,     391P    368
1D0,1D0,1D0,1D0,-3.602665679743D0,-5.84D0,-6D0,3.602665679743D0,     391P    369
-5.84D0,-6D0,-3.602665679743D0,-1.416D1,-6D0,3.602665679743D0,       391P    370
-1.416D1,-6D0,-1.385640646055D-1,7.066767294881D0,-8.16D0,           391P    371
1.6D-1;                                                              391P    372
508,4,0,163,39,0,0,0,163,45,1,0,0,163,5,1,0,0,163,46,0,0;            393P    373
510,391,1,0,393;                                                     395P    374
514,26,169,1,179,1,189,1,199,1,211,0,223,0,233,1,241,1,251,1,        397P    375
263,1,271,0,283,1,293,1,303,0,313,0,323,0,329,0,335,0,345,0,355,     397P    376
0,365,0,371,0,377,0,383,0,389,1,395,0;                               397P    377
124,-1D0,0D0,0D0,0D0,0D0,0D0,1D0,3.4D1,0D0,1D0,0D0,0D0;              399P    378
100,0D0,0D0,0D0,6.188D0,0D0,-6.188D0,0D0;                            401P    379
110,6.188D0,3.4D1,0D0,6.188D0,0D0,0D0;                               403P    380
124,1D0,0D0,0D0,0D0,0D0,0D0,-1D0,0D0,0D0,1D0,0D0,0D0;                405P    381
100,0D0,0D0,0D0,6.188D0,0D0,-6.188D0,0D0;                            407P    382
124,1D0,0D0,0D0,0D0,0D0,0D0,1D0,3.4D1,0D0,-1D0,0D0,0D0;              409P    383
100,0D0,0D0,0D0,6.188D0,0D0,-6.188D0,0D0;                            411P    384
110,-6.188D0,3.4D1,0D0,-6.188D0,0D0,0D0;                             413P    385
124,-1D0,0D0,0D0,0D0,0D0,0D0,-1D0,0D0,0D0,-1D0,0D0,0D0;              415P    386
100,0D0,0D0,0D0,6.188D0,0D0,-6.188D0,0D0;                            417P    387
502,4,6.188D0,3.4D1,0D0,-6.188D0,3.4D1,0D0,6.188D0,0D0,0D0,          419P    388
-6.188D0,0D0,0D0;                                                    419P    389
504,6,401,419,1,419,2,411,419,2,419,1,407,419,3,419,4,417,419,4,     421P    390
419,3,403,419,1,419,3,413,419,2,419,4;                               421P    391
110,0D0,3.4D1,0D0,0D0,3.3D1,0D0;                                     423P    392
110,6.188D0,3.468D1,0D0,6.188D0,-6.8D-1,0D0;                         425P    393
120,423,425,-6.283185307180D-2,3.204424506662D0;                     427P    394
508,4,0,421,1,0,0,0,421,5,1,0,0,421,3,1,0,0,421,6,0,0;               429P    395
510,427,1,0,429;                                                     431P    396
110,0D0,3.4D1,0D0,0D0,3.3D1,0D0;                                     433P    397
110,6.188D0,3.468D1,0D0,6.188D0,-6.8D-1,0D0;                         435P    398
120,433,435,3.078760800518D0,6.346017160251D0;                       437P    399
508,4,0,421,2,0,0,0,421,6,1,0,0,421,4,1,0,0,421,5,0,0;               439P    400
510,437,1,0,439;                                                     441P    401
514,2,431,1,441,1;                                                   443P    402
186,397,1,0;                                                         445P    403
S      1G      6D    446P    403                                        T      1
