 PTC IGES file: sroub-m30x75-csn_02_1101.igs                            S      1
1H,,1H;,24HSROUB-M30X75-CSN_02_1101,28Hsroub-m30x75-csn_02_1101.igs,    G      1
49HPro/ENGINEER by Parametric Technology Corporation,7H2007160,32,38,7, G      2
38,15,24HSROUB-M30X75-CSN_02_1101,1.,2,2HMM,32768,0.5,                  G      3
15H20110917.003017,0.0120323,120.327,13HVladimir Zima,7HUnknown,10,0,   G      4
15H20110917.003017;                                                     G      5
     314       1       1       1       0       0       0       001000200D      1
     314       0       4       1       0                   COLOR       1D      2
     314       2       1       1       0       0       0       001000200D      3
     314       0       1       1       0                   COLOR       2D      4
     314       3       1       1       0       0       0       001000200D      5
     314       0       1       1       0                   COLOR       3D      6
     314       4       1       1       0       0       0       001000200D      7
     314       0       1       1       0                   COLOR       4D      8
     314       5       1       1       0       0       0       001000200D      9
     314       0       8       1       0                   COLOR       5D     10
     314       6       1       1       0       0       0       001000200D     11
     314       0       8       1       0                   COLOR       6D     12
     314       7       1       1       0       0       0       001000200D     13
     314       0       5       1       0                   COLOR       7D     14
     314       8       1       1       0       0       0       001000200D     15
     314       0       8       1       0                   COLOR       8D     16
     124       9       1       1       0       0       0       001000000D     17
     124       0       0       2       0                   XFORM       1D     18
     100      11       1       1       0       0      17       001010000D     19
     100       0       0       1       0                     ARC       1D     20
     124      12       1       1       0       0       0       001000000D     21
     124       0       0       2       0                   XFORM       2D     22
     100      14       1       1       0       0      21       001010000D     23
     100       0       0       2       0                     ARC       2D     24
     110      16       1       1       0       0       0       001010000D     25
     110       0       0       2       0                    LINE       1D     26
     110      18       1       1       0       0       0       001010000D     27
     110       0       0       2       0                    LINE       2D     28
     124      20       1       1       0       0       0       001000000D     29
     124       0       0       2       0                   XFORM       3D     30
     100      22       1       1       0       0      29       001010000D     31
     100       0       0       1       0                     ARC       3D     32
     110      23       1       1       0       0       0       001010000D     33
     110       0       0       2       0                    LINE       3D     34
     124      25       1       1       0       0       0       001000000D     35
     124       0       0       1       0                   XFORM       4D     36
     100      26       1       1       0       0      35       001010000D     37
     100       0       0       1       0                     ARC       4D     38
     124      27       1       1       0       0       0       001000000D     39
     124       0       0       2       0                   XFORM       5D     40
     100      29       1       1       0       0      39       001010000D     41
     100       0       0       1       0                     ARC       5D     42
     110      30       1       1       0       0       0       001010000D     43
     110       0       0       2       0                    LINE       4D     44
     124      32       1       1       0       0       0       001000000D     45
     124       0       0       1       0                   XFORM       6D     46
     100      33       1       1       0       0      45       001010000D     47
     100       0       0       1       0                     ARC       6D     48
     124      34       1       1       0       0       0       001000000D     49
     124       0       0       2       0                   XFORM       7D     50
     100      36       1       1       0       0      49       001010000D     51
     100       0       0       1       0                     ARC       7D     52
     124      37       1       1       0       0       0       001000000D     53
     124       0       0       2       0                   XFORM       8D     54
     100      39       1       1       0       0      53       001010000D     55
     100       0       0       1       0                     ARC       8D     56
     110      40       1       1       0       0       0       001010000D     57
     110       0       0       1       0                    LINE       5D     58
     110      41       1       1       0       0       0       001010000D     59
     110       0       0       1       0                    LINE       6D     60
     110      42       1       1       0       0       0       001010000D     61
     110       0       0       1       0                    LINE       7D     62
     110      43       1       1       0       0       0       001010000D     63
     110       0       0       1       0                    LINE       8D     64
     110      44       1       1       0       0       0       001010000D     65
     110       0       0       1       0                    LINE       9D     66
     110      45       1       1       0       0       0       001010000D     67
     110       0       0       1       0                    LINE      10D     68
     124      46       1       1       0       0       0       001000000D     69
     124       0       0       2       0                   XFORM       9D     70
     100      48       1       1       0       0      69       001010000D     71
     100       0       0       1       0                     ARC       9D     72
     124      49       1       1       0       0       0       001000000D     73
     124       0       0       2       0                   XFORM      10D     74
     100      51       1       1       0       0      73       001010000D     75
     100       0       0       1       0                     ARC      10D     76
     126      52       1       1       0       0       0       001010000D     77
     126       0       0      10       0                B_SPLINE       1D     78
     126      62       1       1       0       0       0       001010000D     79
     126       0       0      10       0                B_SPLINE       2D     80
     110      72       1       1       0       0       0       001010000D     81
     110       0       0       2       0                    LINE      11D     82
     126      74       1       1       0       0       0       001010000D     83
     126       0       0       9       0                B_SPLINE       3D     84
     126      83       1       1       0       0       0       001010000D     85
     126       0       0       9       0                B_SPLINE       4D     86
     110      92       1       1       0       0       0       001010000D     87
     110       0       0       2       0                    LINE      12D     88
     126      94       1       1       0       0       0       001010000D     89
     126       0       0      10       0                B_SPLINE       5D     90
     126     104       1       1       0       0       0       001010000D     91
     126       0       0      10       0                B_SPLINE       6D     92
     110     114       1       1       0       0       0       001010000D     93
     110       0       0       2       0                    LINE      13D     94
     126     116       1       1       0       0       0       001010000D     95
     126       0       0      10       0                B_SPLINE       7D     96
     126     126       1       1       0       0       0       001010000D     97
     126       0       0      10       0                B_SPLINE       8D     98
     110     136       1       1       0       0       0       001010000D     99
     110       0       0       2       0                    LINE      14D    100
     126     138       1       1       0       0       0       001010000D    101
     126       0       0       8       0                B_SPLINE       9D    102
     110     146       1       1       0       0       0       001010000D    103
     110       0       0       2       0                    LINE      15D    104
     126     148       1       1       0       0       0       001010000D    105
     126       0       0       8       0                B_SPLINE      10D    106
     126     156       1       1       0       0       0       001010000D    107
     126       0       0      10       0                B_SPLINE      11D    108
     126     166       1       1       0       0       0       001010000D    109
     126       0       0      10       0                B_SPLINE      12D    110
     110     176       1       1       0       0       0       001010000D    111
     110       0       0       2       0                    LINE      16D    112
     124     178       1       1       0       0       0       001000000D    113
     124       0       0       1       0                   XFORM      11D    114
     100     179       1       1       0       0     113       001010000D    115
     100       0       0       1       0                     ARC      11D    116
     124     180       1       1       0       0       0       001000000D    117
     124       0       0       2       0                   XFORM      12D    118
     100     182       1       1       0       0     117       001010000D    119
     100       0       0       1       0                     ARC      12D    120
     124     183       1       1       0       0       0       001000000D    121
     124       0       0       2       0                   XFORM      13D    122
     100     185       1       1       0       0     121       001010000D    123
     100       0       0       1       0                     ARC      13D    124
     124     186       1       1       0       0       0       001000000D    125
     124       0       0       1       0                   XFORM      14D    126
     100     187       1       1       0       0     125       001010000D    127
     100       0       0       1       0                     ARC      14D    128
     124     188       1       1       0       0       0       001000000D    129
     124       0       0       2       0                   XFORM      15D    130
     100     190       1       1       0       0     129       001010000D    131
     100       0       0       1       0                     ARC      15D    132
     124     191       1       1       0       0       0       001000000D    133
     124       0       0       2       0                   XFORM      16D    134
     100     193       1       1       0       0     133       001010000D    135
     100       0       0       1       0                     ARC      16D    136
     502     194       1       1       0       0       0       001010000D    137
     502       0       0      15       1                  VERTEX       1D    138
     504     209       1       1       0       0       0       000010001D    139
     504       0       0      12       1                    EDGE       1D    140
     128     221       1       1       0       0       0       001010000D    141
     128       0       0       6       0                  SPLSRF       1D    142
     508     227       1       1       0       0       0       001010000D    143
     508       0       0       1       1                EDGELOOP       1D    144
     510     228       1       1       0       0       0       000010000D    145
     510       0       0       1       1                    FACE       1D    146
     110     229       1       1       0       0       0       001010000D    147
     110       0       0       1       0                    LINE      17D    148
     110     230       1       1       0       0       0       001010000D    149
     110       0       0       2       0                    LINE      18D    150
     120     232       1       1       0       0       0       001010000D    151
     120       0       0       1       0                    SREV       1D    152
     508     233       1       1       0       0       0       001010000D    153
     508       0       0       1       1                EDGELOOP       2D    154
     510     234       1       1       0       0       0       000010000D    155
     510       0       0       1       1                    FACE       2D    156
     110     235       1       1       0       0       0       001010000D    157
     110       0       0       2       0                    LINE      19D    158
     110     237       1       1       0       0       0       001010000D    159
     110       0       0       2       0                    LINE      20D    160
     120     239       1       1       0       0       0       001010000D    161
     120       0       0       1       0                    SREV       2D    162
     508     240       1       1       0       0       0       001010000D    163
     508       0       0       1       1                EDGELOOP       3D    164
     510     241       1       1       0       0       0       000010000D    165
     510       0       0       1       1                    FACE       3D    166
     110     242       1       1       0       0       0       001010000D    167
     110       0       0       1       0                    LINE      21D    168
     110     243       1       1       0       0       0       001010000D    169
     110       0       0       1       0                    LINE      22D    170
     120     244       1       1       0       0       0       001010000D    171
     120       0       0       1       0                    SREV       3D    172
     508     245       1       1       0       0       0       001010000D    173
     508       0       0       1       1                EDGELOOP       4D    174
     510     246       1       1       0       0       0       000010000D    175
     510       0       0       1       1                    FACE       4D    176
     110     247       1       1       0       0       0       001010000D    177
     110       0       0       1       0                    LINE      23D    178
     110     248       1       1       0       0       0       001010000D    179
     110       0       0       1       0                    LINE      24D    180
     120     249       1       1       0       0       0       001010000D    181
     120       0       0       1       0                    SREV       4D    182
     508     250       1       1       0       0       0       001010000D    183
     508       0       0       1       1                EDGELOOP       5D    184
     510     251       1       1       0       0       0       000010000D    185
     510       0       0       1       1                    FACE       5D    186
     110     252       1       1       0       0       0       001010000D    187
     110       0       0       1       0                    LINE      25D    188
     124     253       1       1       0       0       0       001000000D    189
     124       0       0       4       0                   XFORM      17D    190
     100     257       1       1       0       0     189       001010000D    191
     100       0       0       1       0                     ARC      17D    192
     120     258       1       1       0       0       0       001010000D    193
     120       0       0       1       0                    SREV       5D    194
     508     259       1       1       0       0       0       001010000D    195
     508       0       0       1       1                EDGELOOP       6D    196
     510     260       1       1       0       0       0       000010000D    197
     510       0       0       1       1                    FACE       6D    198
     110     261       1       1       0       0       0       001010000D    199
     110       0       0       1       0                    LINE      26D    200
     124     262       1       1       0       0       0       001000000D    201
     124       0       0       4       0                   XFORM      18D    202
     100     266       1       1       0       0     201       001010000D    203
     100       0       0       1       0                     ARC      18D    204
     120     267       1       1       0       0       0       001010000D    205
     120       0       0       1       0                    SREV       6D    206
     508     268       1       1       0       0       0       001010000D    207
     508       0       0       1       1                EDGELOOP       7D    208
     510     269       1       1       0       0       0       000010000D    209
     510       0       0       1       1                    FACE       7D    210
     128     270       1       1       0       0       0       001010000D    211
     128       0       0       6       0                  SPLSRF       2D    212
     508     276       1       1       0       0       0       001010000D    213
     508       0       0       2       1                EDGELOOP       8D    214
     508     278       1       1       0       0       0       001010000D    215
     508       0       0       1       1                EDGELOOP       9D    216
     510     279       1       1       0       0       0       000010000D    217
     510       0       0       1       1                    FACE       8D    218
     128     280       1       1       0       0       0       001010000D    219
     128       0       0       8       0                  SPLSRF       3D    220
     508     288       1       1       0       0       0       001010000D    221
     508       0       0       2       1                EDGELOOP      10D    222
     510     290       1       1       0       0       0       000010000D    223
     510       0       0       1       1                    FACE       9D    224
     110     291       1       1       0       0       0       001010000D    225
     110       0       0       1       0                    LINE      27D    226
     110     292       1       1       0       0       0       001010000D    227
     110       0       0       2       0                    LINE      28D    228
     120     294       1       1       0       0       0       001010000D    229
     120       0       0       1       0                    SREV       7D    230
     508     295       1       1       0       0       0       001010000D    231
     508       0       0       1       1                EDGELOOP      11D    232
     510     296       1       1       0       0       0       000010000D    233
     510       0       0       1       1                    FACE      10D    234
     110     297       1       1       0       0       0       001010000D    235
     110       0       0       1       0                    LINE      29D    236
     110     298       1       1       0       0       0       001010000D    237
     110       0       0       2       0                    LINE      30D    238
     120     300       1       1       0       0       0       001010000D    239
     120       0       0       1       0                    SREV       8D    240
     508     301       1       1       0       0       0       001010000D    241
     508       0       0       1       1                EDGELOOP      12D    242
     510     302       1       1       0       0       0       000010000D    243
     510       0       0       1       1                    FACE      11D    244
     110     303       1       1       0       0       0       001010000D    245
     110       0       0       1       0                    LINE      31D    246
     110     304       1       1       0       0       0       001010000D    247
     110       0       0       2       0                    LINE      32D    248
     120     306       1       1       0       0       0       001010000D    249
     120       0       0       1       0                    SREV       9D    250
     508     307       1       1       0       0       0       001010000D    251
     508       0       0       1       1                EDGELOOP      13D    252
     510     308       1       1       0       0       0       000010000D    253
     510       0       0       1       1                    FACE      12D    254
     128     309       1       1       0       0       0       001010000D    255
     128       0       0       8       0                  SPLSRF       4D    256
     508     317       1       1       0       0       0       001010000D    257
     508       0       0       2       1                EDGELOOP      14D    258
     510     319       1       1       0       0       0       000010000D    259
     510       0       0       1       1                    FACE      13D    260
     110     320       1       1       0       0       0       001010000D    261
     110       0       0       1       0                    LINE      33D    262
     110     321       1       1       0       0       0       001010000D    263
     110       0       0       2       0                    LINE      34D    264
     120     323       1       1       0       0       0       001010000D    265
     120       0       0       1       0                    SREV      10D    266
     508     324       1       1       0       0       0       001010000D    267
     508       0       0       1       1                EDGELOOP      15D    268
     510     325       1       1       0       0       0       000010000D    269
     510       0       0       1       1                    FACE      14D    270
     110     326       1       1       0       0       0       001010000D    271
     110       0       0       1       0                    LINE      35D    272
     110     327       1       1       0       0       0       001010000D    273
     110       0       0       2       0                    LINE      36D    274
     120     329       1       1       0       0       0       001010000D    275
     120       0       0       1       0                    SREV      11D    276
     508     330       1       1       0       0       0       001010000D    277
     508       0       0       1       1                EDGELOOP      16D    278
     510     331       1       1       0       0       0       000010000D    279
     510       0       0       1       1                    FACE      15D    280
     110     332       1       1       0       0       0       001010000D    281
     110       0       0       1       0                    LINE      37D    282
     110     333       1       1       0       0       0       001010000D    283
     110       0       0       2       0                    LINE      38D    284
     120     335       1       1       0       0       0       001010000D    285
     120       0       0       1       0                    SREV      12D    286
     508     336       1       1       0       0       0       001010000D    287
     508       0       0       1       1                EDGELOOP      17D    288
     510     337       1       1       0       0       0       000010000D    289
     510       0       0       1       1                    FACE      16D    290
     128     338       1       1       0       0       0       001010000D    291
     128       0       0       8       0                  SPLSRF       5D    292
     508     346       1       1       0       0       0       001010000D    293
     508       0       0       2       1                EDGELOOP      18D    294
     510     348       1       1       0       0       0       000010000D    295
     510       0       0       1       1                    FACE      17D    296
     128     349       1       1       0       0       0       001010000D    297
     128       0       0       8       0                  SPLSRF       6D    298
     508     357       1       1       0       0       0       001010000D    299
     508       0       0       2       1                EDGELOOP      19D    300
     510     359       1       1       0       0       0       000010000D    301
     510       0       0       1       1                    FACE      18D    302
     128     360       1       1       0       0       0       001010000D    303
     128       0       0       8       0                  SPLSRF       7D    304
     508     368       1       1       0       0       0       001010000D    305
     508       0       0       2       1                EDGELOOP      20D    306
     510     370       1       1       0       0       0       000010000D    307
     510       0       0       1       1                    FACE      19D    308
     128     371       1       1       0       0       0       001010000D    309
     128       0       0       8       0                  SPLSRF       8D    310
     508     379       1       1       0       0       0       001010000D    311
     508       0       0       2       1                EDGELOOP      21D    312
     510     381       1       1       0       0       0       000010000D    313
     510       0       0       1       1                    FACE      20D    314
     128     382       1       1       0       0       0       001010000D    315
     128       0       0       8       0                  SPLSRF       9D    316
     508     390       1       1       0       0       0       001010000D    317
     508       0       0       2       1                EDGELOOP      22D    318
     510     392       1       1       0       0       0       000010000D    319
     510       0       0       1       1                    FACE      21D    320
     514     393       1       1       0       0       0       000010000D    321
     514       0       0       3       1                   SHELL       1D    322
     124     396       1       1       0       0       0       001000000D    323
     124       0       0       1       0                   XFORM      19D    324
     100     397       1       1       0       0     323       001010000D    325
     100       0       0       1       0                     ARC      19D    326
     110     398       1       1       0       0       0       001010000D    327
     110       0       0       1       0                    LINE      39D    328
     124     399       1       1       0       0       0       001000000D    329
     124       0       0       1       0                   XFORM      20D    330
     100     400       1       1       0       0     329       001010000D    331
     100       0       0       1       0                     ARC      20D    332
     110     401       1       1       0       0       0       001010000D    333
     110       0       0       1       0                    LINE      40D    334
     124     402       1       1       0       0       0       001000000D    335
     124       0       0       1       0                   XFORM      21D    336
     100     403       1       1       0       0     335       001010000D    337
     100       0       0       1       0                     ARC      21D    338
     124     404       1       1       0       0       0       001000000D    339
     124       0       0       1       0                   XFORM      22D    340
     100     405       1       1       0       0     339       001010000D    341
     100       0       0       1       0                     ARC      22D    342
     124     406       1       1       0       0       0       001000000D    343
     124       0       0       1       0                   XFORM      23D    344
     100     407       1       1       0       0     343       001010000D    345
     100       0       0       1       0                     ARC      23D    346
     124     408       1       1       0       0       0       001000000D    347
     124       0       0       1       0                   XFORM      24D    348
     100     409       1       1       0       0     347       001010000D    349
     100       0       0       1       0                     ARC      24D    350
     502     410       1       1       0       0       0       001010000D    351
     502       0       0       2       1                  VERTEX       2D    352
     504     412       1       1       0       0       0       000010001D    353
     504       0       0       3       1                    EDGE       2D    354
     110     415       1       1       0       0       0       001010000D    355
     110       0       0       1       0                    LINE      41D    356
     110     416       1       1       0       0       0       001010000D    357
     110       0       0       1       0                    LINE      42D    358
     120     417       1       1       0       0       0       001010000D    359
     120       0       0       1       0                    SREV      13D    360
     508     418       1       1       0       0       0       001010000D    361
     508       0       0       1       1                EDGELOOP      23D    362
     510     419       1       1       0       0       0       000010000D    363
     510       0       0       1       1                    FACE      22D    364
     110     420       1       1       0       0       0       001010000D    365
     110       0       0       1       0                    LINE      43D    366
     110     421       1       1       0       0       0       001010000D    367
     110       0       0       1       0                    LINE      44D    368
     120     422       1       1       0       0       0       001010000D    369
     120       0       0       1       0                    SREV      14D    370
     508     423       1       1       0       0       0       001010000D    371
     508       0       0       1       1                EDGELOOP      24D    372
     510     424       1       1       0       0       0       000010000D    373
     510       0       0       1       1                    FACE      23D    374
     128     425       1       1       0       0       0       001010000D    375
     128       0       0       6       0                  SPLSRF      10D    376
     508     431       1       1       0       0       0       001010000D    377
     508       0       0       1       1                EDGELOOP      25D    378
     508     432       1       1       0       0       0       001010000D    379
     508       0       0       1       1                EDGELOOP      26D    380
     510     433       1       1       0       0       0       000010000D    381
     510       0       0       1       1                    FACE      24D    382
     514     434       1       1       0       0       0       000000000D    383
     514       0       0       1       1                   SHELL       2D    384
     186     435       1       1       0       0       0       000000000D    385
     186       0       0       1       0                    MSBR       1D    386
314,1.1D0,1.2D0,1D2;                                                   1P      1
314,1.1D1,1.1D1,1.1D1;                                                 3P      2
314,3.92D1,1.2D0,1.2D0;                                                5P      3
314,4.1D1,0D0,2.2D1;                                                   7P      4
314,8.784D1,9.49D1,1D2;                                                9P      5
314,9.6D1,9.6D1,9.6D1;                                                11P      6
314,9.8D1,6.27D1,0D0;                                                 13P      7
314,1D2,1D2,9.49D1;                                                   15P      8
124,0D0,1D0,0D0,0D0,0D0,0D0,-1D0,-7.499998327126D1,-1D0,0D0,0D0,      17P      9
0D0;                                                                  17P     10
100,0D0,0D0,0D0,1.339997627869D1,0D0,-1.339997627869D1,0D0;           19P     11
124,0D0,-1D0,0D0,0D0,0D0,0D0,-1D0,-7.499998327126D1,1D0,0D0,0D0,      21P     12
7.727152251391D-14;                                                   21P     13
100,0D0,0D0,0D0,1.339997627869D1,0D0,-1.339997627869D1,               23P     14
1.949332424204D-14;                                                   23P     15
110,-5.582118946610D-9,-7.499998651754D1,-1.339998651575D1,           25P     16
-4.686479696914D-9,-7.339998868077D1,-1.499998867927D1;               25P     17
110,5.582120272837D-9,-7.499998651754D1,1.339998651575D1,             27P     18
4.686480980554D-9,-7.339998868077D1,1.499998867927D1;                 27P     19
124,0D0,-1D0,0D0,0D0,0D0,0D0,-1D0,-7.339999206414D1,1D0,0D0,0D0,      29P     20
0D0;                                                                  29P     21
100,0D0,0D0,0D0,1.5D1,0D0,-1.5D1,0D0;                                 31P     22
110,8.145397198530D-13,-1.6D0,-1.5D1,-4.686479696914D-9,              33P     23
-7.339998868077D1,-1.499998867927D1;                                  33P     24
124,0D0,-1D0,0D0,0D0,0D0,0D0,1D0,-1.6D0,-1D0,0D0,0D0,0D0;             35P     25
100,0D0,0D0,0D0,1.5D1,0D0,-1.5D1,0D0;                                 37P     26
124,0D0,1D0,0D0,0D0,0D0,0D0,-1D0,-7.339999206414D1,-1D0,0D0,0D0,      39P     27
0D0;                                                                  39P     28
100,0D0,0D0,0D0,1.5D1,0D0,-1.5D1,0D0;                                 41P     29
110,-8.167797221990D-13,-1.6D0,1.5D1,4.686480980554D-9,               43P     30
-7.339998868077D1,1.499998867927D1;                                   43P     31
124,0D0,1D0,0D0,0D0,0D0,0D0,1D0,-1.6D0,1D0,0D0,0D0,0D0;               45P     32
100,0D0,0D0,0D0,1.5D1,0D0,-1.5D1,0D0;                                 47P     33
124,1.798576912404D-12,0D0,1D0,-2.985639513398D-11,0D0,1D0,0D0,       49P     34
-1.6D0,-1D0,0D0,1.798576912404D-12,1.66D1;                            49P     35
100,0D0,0D0,0D0,1.6D0,0D0,4.193181826068D-13,1.6D0;                   51P     36
124,-1.798441603973D-12,0D0,-1D0,2.985417468793D-11,0D0,1D0,0D0,      53P     37
-1.6D0,1D0,0D0,-1.798441603973D-12,-1.66D1;                           53P     38
100,0D0,0D0,0D0,1.6D0,0D0,4.299763236432D-13,1.6D0;                   55P     39
110,-2.3D1,0D0,1.327905619136D1,0D0,0D0,2.655811238272D1;             57P     40
110,0D0,0D0,2.655811238272D1,2.3D1,0D0,1.327905619136D1;              59P     41
110,2.3D1,0D0,1.327905619136D1,2.3D1,0D0,-1.327905619136D1;           61P     42
110,2.3D1,0D0,-1.327905619136D1,0D0,0D0,-2.655811238272D1;            63P     43
110,0D0,0D0,-2.655811238272D1,-2.3D1,0D0,-1.327905619136D1;           65P     44
110,-2.3D1,0D0,-1.327905619136D1,-2.3D1,0D0,1.327905619136D1;         67P     45
124,0D0,-1D0,0D0,0D0,0D0,0D0,1D0,-1.354472090043D-14,-1D0,0D0,        69P     46
0D0,0D0;                                                              69P     47
100,0D0,0D0,0D0,1.659999979250D1,0D0,-1.659999979250D1,0D0;           71P     48
124,0D0,1D0,0D0,0D0,0D0,0D0,1D0,-1.354472090043D-14,1D0,0D0,0D0,      73P     49
0D0;                                                                  73P     50
100,0D0,0D0,0D0,1.659999979250D1,0D0,-1.659999979250D1,0D0;           75P     51
126,7,3,0,0,1,0,0D0,0D0,0D0,0D0,2D-1,4D-1,6D-1,8D-1,1D0,1D0,1D0,      77P     52
1D0,1D0,1D0,1D0,1D0,1D0,1D0,1D0,1D0,-2.3D1,1.694572285803D1,          77P     53
1.327905619136D1,-2.218113864827D1,1.721867664194D1,                  77P     54
1.375182601321D1,-2.057288756807D1,1.771049642962D1,                  77P     55
1.468035020729D1,-1.827787434807D1,1.827669931384D1,                  77P     56
1.600537670765D1,-1.601113889662D1,1.869021003236D1,                  77P     57
1.731407703073D1,-1.375517980982D1,1.894306899287D1,                  77P     58
1.861655561677D1,-1.225131557021D1,1.899999999994D1,                  77P     59
1.948481204034D1,-1.150000000130D1,1.900000000002D1,                  77P     60
1.991858428629D1,0D0,1D0,0D0,0D0,1D0;                                 77P     61
126,7,3,0,0,1,0,0D0,0D0,0D0,0D0,2D-1,4D-1,6D-1,8D-1,1D0,1D0,1D0,      79P     62
1D0,1D0,1D0,1D0,1D0,1D0,1D0,1D0,1D0,-1.150000000130D1,                79P     63
1.900000000002D1,1.991858428629D1,-1.074843989763D1,                  79P     64
1.900000000002D1,2.035249771446D1,-9.244152727611D0,                  79P     65
1.894302739258D1,2.122099831700D1,-6.987901030469D0,                  79P     66
1.869008086630D1,2.252364584171D1,-4.720784518070D0,                  79P     67
1.827639587654D1,2.383256617043D1,-2.427185682134D0,                  79P     68
1.771049587661D1,2.515677607577D1,-8.189211272791D-1,                 79P     69
1.721869656712D1,2.608530804944D1,0D0,1.694572285803D1,               79P     70
2.655811238272D1,0D0,1D0,0D0,0D0,1D0;                                 79P     71
110,-2.3D1,0D0,1.327905619136D1,-2.3D1,1.694572285803D1,              81P     72
1.327905619136D1;                                                     81P     73
126,7,3,0,0,1,0,0D0,0D0,0D0,0D0,2D-1,4D-1,6D-1,8D-1,1D0,1D0,1D0,      83P     74
1D0,1D0,1D0,1D0,1D0,1D0,1D0,1D0,1D0,-2.3D1,1.694572285803D1,          83P     75
-1.327905619136D1,-2.3D1,1.721630806146D1,-1.234172155110D1,          83P     76
-2.3D1,1.770538858127D1,-1.049704174716D1,-2.3D1,                     83P     77
1.827259926627D1,-7.848512706341D0,-2.3D1,1.868782399748D1,           83P     78
-5.228285533709D0,-2.3D1,1.894245861974D1,-2.616420167358D0,          83P     79
-2.300000000001D1,1.899999999994D1,-8.721652087601D-1,                83P     80
-2.300000000001D1,1.900000000004D1,-3.049186458892D-10,0D0,1D0,       83P     81
0D0,0D0,1D0;                                                          83P     82
126,7,3,0,0,1,0,0D0,0D0,0D0,0D0,2D-1,4D-1,6D-1,8D-1,1D0,1D0,1D0,      85P     83
1D0,1D0,1D0,1D0,1D0,1D0,1D0,1D0,1D0,-2.300000000001D1,                85P     84
1.900000000004D1,-3.049186458892D-10,-2.300000000001D1,               85P     85
1.899999999996D1,8.776334558372D-1,-2.3D1,1.894175889702D1,           85P     86
2.631345278944D0,-2.3D1,1.868460353352D1,5.254513213332D0,            85P     87
-2.3D1,1.826695936390D1,7.878494126615D0,-2.3D1,                      85P     88
1.769938633569D1,1.052097509879D1,-2.3D1,1.721358566003D1,            85P     89
1.235115222631D1,-2.3D1,1.694572285803D1,1.327905619136D1,0D0,        85P     90
1D0,0D0,0D0,1D0;                                                      85P     91
110,-2.3D1,0D0,-1.327905619136D1,-2.3D1,1.694572285803D1,             87P     92
-1.327905619136D1;                                                    87P     93
126,7,3,0,0,1,0,0D0,0D0,0D0,0D0,2D-1,4D-1,6D-1,8D-1,1D0,1D0,1D0,      89P     94
1D0,1D0,1D0,1D0,1D0,1D0,1D0,1D0,1D0,2.3D1,1.694572285803D1,           89P     95
-1.327905619136D1,2.218113864827D1,1.721867664194D1,                  89P     96
-1.375182601321D1,2.057288756807D1,1.771049642962D1,                  89P     97
-1.468035020729D1,1.827787434807D1,1.827669931384D1,                  89P     98
-1.600537670765D1,1.601113889662D1,1.869021003236D1,                  89P     99
-1.731407703073D1,1.375517980982D1,1.894306899287D1,                  89P    100
-1.861655561677D1,1.225131557021D1,1.899999999994D1,                  89P    101
-1.948481204034D1,1.150000000130D1,1.900000000002D1,                  89P    102
-1.991858428629D1,0D0,1D0,0D0,0D0,1D0;                                89P    103
126,7,3,0,0,1,0,0D0,0D0,0D0,0D0,2D-1,4D-1,6D-1,8D-1,1D0,1D0,1D0,      91P    104
1D0,1D0,1D0,1D0,1D0,1D0,1D0,1D0,1D0,1.150000000130D1,                 91P    105
1.900000000002D1,-1.991858428629D1,1.074843989763D1,                  91P    106
1.900000000002D1,-2.035249771446D1,9.244152727611D0,                  91P    107
1.894302739258D1,-2.122099831700D1,6.987901030469D0,                  91P    108
1.869008086630D1,-2.252364584171D1,4.720784518070D0,                  91P    109
1.827639587654D1,-2.383256617043D1,2.427185682134D0,                  91P    110
1.771049587661D1,-2.515677607577D1,8.189211272791D-1,                 91P    111
1.721869656712D1,-2.608530804944D1,0D0,1.694572285803D1,              91P    112
-2.655811238272D1,0D0,1D0,0D0,0D0,1D0;                                91P    113
110,2.3D1,0D0,-1.327905619136D1,2.3D1,1.694572285803D1,               93P    114
-1.327905619136D1;                                                    93P    115
126,7,3,0,0,1,0,0D0,0D0,0D0,0D0,2D-1,4D-1,6D-1,8D-1,1D0,1D0,1D0,      95P    116
1D0,1D0,1D0,1D0,1D0,1D0,1D0,1D0,1D0,0D0,1.694572285803D1,             95P    117
-2.655811238272D1,-8.188613517530D-1,1.721867664195D1,                95P    118
-2.608534256086D1,-2.427112432001D0,1.771049642964D1,                 95P    119
-2.515681836675D1,-4.722125652067D0,1.827669931387D1,                 95P    120
-2.383179186635D1,-6.988861103588D0,1.869021003239D1,                 95P    121
-2.252309154324D1,-9.244820190445D0,1.894306899289D1,                 95P    122
-2.122061295716D1,-1.074868443012D1,1.899999999996D1,                 95P    123
-2.035235653357D1,-1.149999999887D1,1.900000000002D1,                 95P    124
-1.991858428770D1,0D0,1D0,0D0,0D0,1D0;                                95P    125
126,7,3,0,0,1,0,0D0,0D0,0D0,0D0,2D-1,4D-1,6D-1,8D-1,1D0,1D0,1D0,      97P    126
1D0,1D0,1D0,1D0,1D0,1D0,1D0,1D0,1D0,-1.149999999887D1,                97P    127
1.900000000002D1,-1.991858428770D1,-1.225156010255D1,                 97P    128
1.900000000002D1,-1.948467085953D1,-1.375584727231D1,                 97P    129
1.894302739258D1,-1.861617025712D1,-1.601209896955D1,                 97P    130
1.869008086630D1,-1.731352273236D1,-1.827921548192D1,                 97P    131
1.827639587654D1,-1.600460240366D1,-2.057281431787D1,                 97P    132
1.771049587661D1,-1.468039249831D1,-2.218107887272D1,                 97P    133
1.721869656712D1,-1.375186052464D1,-2.3D1,1.694572285803D1,           97P    134
-1.327905619136D1,0D0,1D0,0D0,0D0,1D0;                                97P    135
110,0D0,0D0,-2.655811238272D1,0D0,1.694572285803D1,                   99P    136
-2.655811238272D1;                                                    99P    137
126,7,3,0,0,1,0,0D0,0D0,0D0,0D0,2D-1,4D-1,6D-1,8D-1,1D0,1D0,1D0,     101P    138
1D0,1D0,1D0,1D0,1D0,1D0,1D0,1D0,1D0,2.300000000001D1,                101P    139
1.900000000004D1,3.049315855357D-10,2.300000000001D1,                101P    140
1.899999999996D1,-8.776334558372D-1,2.3D1,1.894175889702D1,          101P    141
-2.631345278944D0,2.3D1,1.868460353352D1,-5.254513213332D0,          101P    142
2.3D1,1.826695936390D1,-7.878494126615D0,2.3D1,1.769938633569D1,     101P    143
-1.052097509879D1,2.3D1,1.721358566003D1,-1.235115222631D1,          101P    144
2.3D1,1.694572285803D1,-1.327905619136D1,0D0,1D0,0D0,0D0,1D0;        101P    145
110,2.3D1,0D0,1.327905619136D1,2.3D1,1.694572285803D1,               103P    146
1.327905619136D1;                                                    103P    147
126,7,3,0,0,1,0,0D0,0D0,0D0,0D0,2D-1,4D-1,6D-1,8D-1,1D0,1D0,1D0,     105P    148
1D0,1D0,1D0,1D0,1D0,1D0,1D0,1D0,1D0,2.3D1,1.694572285803D1,          105P    149
1.327905619136D1,2.3D1,1.721630806146D1,1.234172155110D1,2.3D1,      105P    150
1.770538858127D1,1.049704174716D1,2.3D1,1.827259926627D1,            105P    151
7.848512706341D0,2.3D1,1.868782399748D1,5.228285533709D0,2.3D1,      105P    152
1.894245861974D1,2.616420167358D0,2.300000000001D1,                  105P    153
1.899999999994D1,8.721652087601D-1,2.300000000001D1,                 105P    154
1.900000000004D1,3.049315855357D-10,0D0,1D0,0D0,0D0,1D0;             105P    155
126,7,3,0,0,1,0,0D0,0D0,0D0,0D0,2D-1,4D-1,6D-1,8D-1,1D0,1D0,1D0,     107P    156
1D0,1D0,1D0,1D0,1D0,1D0,1D0,1D0,1D0,0D0,1.694572285803D1,            107P    157
2.655811238272D1,8.188613517531D-1,1.721867664195D1,                 107P    158
2.608534256086D1,2.427112432001D0,1.771049642964D1,                  107P    159
2.515681836675D1,4.722125652067D0,1.827669931387D1,                  107P    160
2.383179186635D1,6.988861103588D0,1.869021003239D1,                  107P    161
2.252309154324D1,9.244820190445D0,1.894306899289D1,                  107P    162
2.122061295716D1,1.074868443011D1,1.899999999996D1,                  107P    163
2.035235653357D1,1.149999999887D1,1.900000000002D1,                  107P    164
1.991858428770D1,0D0,1D0,0D0,0D0,1D0;                                107P    165
126,7,3,0,0,1,0,0D0,0D0,0D0,0D0,2D-1,4D-1,6D-1,8D-1,1D0,1D0,1D0,     109P    166
1D0,1D0,1D0,1D0,1D0,1D0,1D0,1D0,1D0,1.149999999887D1,                109P    167
1.900000000002D1,1.991858428770D1,1.225156010255D1,                  109P    168
1.900000000002D1,1.948467085953D1,1.375584727231D1,                  109P    169
1.894302739258D1,1.861617025712D1,1.601209896955D1,                  109P    170
1.869008086630D1,1.731352273236D1,1.827921548192D1,                  109P    171
1.827639587654D1,1.600460240366D1,2.057281431787D1,                  109P    172
1.771049587661D1,1.468039249831D1,2.218107887272D1,                  109P    173
1.721869656712D1,1.375186052464D1,2.3D1,1.694572285803D1,            109P    174
1.327905619136D1,0D0,1D0,0D0,0D0,1D0;                                109P    175
110,0D0,0D0,2.655811238272D1,0D0,1.694572285803D1,                   111P    176
2.655811238272D1;                                                    111P    177
124,1D0,0D0,0D0,0D0,0D0,0D0,1D0,1.9D1,0D0,-1D0,0D0,0D0;              113P    178
100,0D0,0D0,0D0,2.3D1,0D0,1.150000000020D1,1.991858428693D1;         115P    179
124,4.999999999916D-1,8.660254037893D-1,0D0,0D0,0D0,0D0,1D0,         117P    180
1.9D1,8.660254037893D-1,-4.999999999916D-1,0D0,0D0;                  117P    181
100,0D0,0D0,0D0,2.3D1,0D0,1.149999999981D1,1.991858428715D1;         119P    182
124,-5.000000000087D-1,8.660254037794D-1,0D0,0D0,0D0,0D0,1D0,        121P    183
1.9D1,8.660254037794D-1,5.000000000087D-1,0D0,0D0;                   121P    184
100,0D0,0D0,0D0,2.3D1,0D0,1.149999999999D1,1.991858428705D1;         123P    185
124,-1D0,0D0,0D0,0D0,0D0,0D0,1D0,1.9D1,0D0,1D0,0D0,0D0;              125P    186
100,0D0,0D0,0D0,2.3D1,0D0,1.150000000020D1,1.991858428693D1;         127P    187
124,-4.999999999916D-1,-8.660254037893D-1,0D0,0D0,0D0,0D0,1D0,       129P    188
1.9D1,-8.660254037893D-1,4.999999999916D-1,0D0,0D0;                  129P    189
100,0D0,0D0,0D0,2.3D1,0D0,1.149999999981D1,1.991858428715D1;         131P    190
124,5.000000000087D-1,-8.660254037794D-1,0D0,0D0,0D0,0D0,1D0,        133P    191
1.9D1,-8.660254037794D-1,-5.000000000087D-1,0D0,0D0;                 133P    192
100,0D0,0D0,0D0,2.3D1,0D0,1.149999999999D1,1.991858428705D1;         135P    193
502,26,-2.3D1,0D0,1.327905619136D1,0D0,0D0,2.655811238272D1,         137P    194
2.3D1,0D0,1.327905619136D1,2.3D1,0D0,-1.327905619136D1,0D0,0D0,      137P    195
-2.655811238272D1,-2.3D1,0D0,-1.327905619136D1,2.3D1,1.9D1,0D0,      137P    196
1.150000000020D1,1.9D1,-1.991858428693D1,-1.149999999981D1,          137P    197
1.9D1,-1.991858428715D1,-2.3D1,1.9D1,0D0,-1.150000000020D1,          137P    198
1.9D1,1.991858428693D1,1.149999999981D1,1.9D1,1.991858428715D1,      137P    199
-2.3D1,1.694572285803D1,1.327905619136D1,0D0,1.694572285803D1,       137P    200
2.655811238272D1,2.3D1,1.694572285803D1,1.327905619136D1,2.3D1,      137P    201
1.694572285803D1,-1.327905619136D1,0D0,1.694572285803D1,             137P    202
-2.655811238272D1,-2.3D1,1.694572285803D1,-1.327905619136D1,0D0,     137P    203
-1.6D0,-1.5D1,0D0,-1.6D0,1.5D1,0D0,-1.354472090043D-14,              137P    204
-1.659999979250D1,0D0,-1.354472090043D-14,1.659999979250D1,0D0,      137P    205
-7.499998327126D1,-1.339997627869D1,0D0,-7.499998327126D1,           137P    206
1.339997627869D1,0D0,-7.339999206414D1,-1.5D1,0D0,                   137P    207
-7.339999206414D1,1.5D1;                                             137P    208
504,44,57,137,1,137,2,59,137,2,137,3,61,137,3,137,4,63,137,4,        139P    209
137,5,65,137,5,137,6,67,137,6,137,1,115,137,7,137,8,135,137,8,       139P    210
137,9,131,137,9,137,10,127,137,10,137,11,123,137,11,137,12,119,      139P    211
137,12,137,7,77,137,13,137,11,79,137,11,137,14,107,137,14,137,       139P    212
12,109,137,12,137,15,101,137,7,137,16,105,137,15,137,7,89,137,       139P    213
16,137,8,91,137,8,137,17,95,137,17,137,9,97,137,9,137,18,83,137,     139P    214
18,137,10,85,137,10,137,13,81,137,1,137,13,111,137,2,137,14,103,     139P    215
137,3,137,15,93,137,4,137,16,99,137,5,137,17,87,137,6,137,18,37,     139P    216
137,19,137,20,71,137,21,137,22,47,137,20,137,19,75,137,22,137,       139P    217
21,51,137,20,137,22,55,137,19,137,21,19,137,23,137,24,41,137,25,     139P    218
137,26,23,137,24,137,23,31,137,26,137,25,33,137,19,137,25,43,        139P    219
137,20,137,26,27,137,24,137,26,25,137,23,137,25;                     139P    220
128,1,1,1,1,0,0,1,0,0,-1.3936D1,-1.3936D1,1.3936D1,1.3936D1,         141P    221
-1.393599988415D1,-1.393599988415D1,1.393599988415D1,                141P    222
1.393599988415D1,1D0,1D0,1D0,1D0,1.393599988415D1,-7.5D1,            141P    223
1.3936D1,1.393599988415D1,-7.5D1,-1.3936D1,-1.393599988415D1,        141P    224
-7.5D1,1.3936D1,-1.393599988415D1,-7.5D1,-1.3936D1,-1.3936D1,        141P    225
1.3936D1,-1.393599988415D1,1.393599988415D1;                         141P    226
508,2,0,139,37,0,0,0,139,39,0,0;                                     143P    227
510,141,1,0,143;                                                     145P    228
110,0D0,-8.84D1,0D0,0D0,-8.74D1,0D0;                                 147P    229
110,0D0,-7.510211742120D1,-1.329784243705D1,0D0,                     149P    230
-7.329783491915D1,-1.510211949259D1;                                 149P    231
120,147,149,-3.204424515416D0,6.283186307555D-2;                     151P    232
508,4,0,139,37,1,0,0,139,43,1,0,0,139,38,0,0,0,139,44,0,0;           153P    233
510,151,1,0,153;                                                     155P    234
110,0D0,-8.84D1,7.727152251391D-14,0D0,-8.74D1,                      157P    235
7.727152251391D-14;                                                  157P    236
110,0D0,-7.510211742120D1,-1.329784243705D1,0D0,                     159P    237
-7.329783491915D1,-1.510211949259D1;                                 159P    238
120,157,159,-6.283186182582D-2,3.204424516665D0;                     161P    239
508,4,0,139,39,1,0,0,139,44,1,0,0,139,40,0,0,0,139,43,0,0;           163P    240
510,161,1,0,163;                                                     165P    241
110,0D0,0D0,0D0,0D0,1D0,0D0;                                         167P    242
110,0D0,-7.483601757184D1,-1.5D1,0D0,-1.639996554540D-1,-1.5D1;      169P    243
120,167,169,-6.283185307180D-2,3.204424506662D0;                     171P    244
508,4,0,139,40,1,0,0,139,41,0,0,0,139,31,1,0,0,139,42,1,0;           173P    245
510,171,1,0,173;                                                     175P    246
110,0D0,0D0,0D0,0D0,1D0,0D0;                                         177P    247
110,0D0,-7.483601757184D1,-1.5D1,0D0,-1.639996554540D-1,-1.5D1;      179P    248
120,177,179,3.078760800518D0,6.346017160251D0;                       181P    249
508,4,0,139,38,1,0,0,139,42,0,0,0,139,33,1,0,0,139,41,1,0;           183P    250
510,181,1,0,183;                                                     185P    251
110,0D0,-1.6D0,0D0,0D0,-6D-1,0D0;                                    187P    252
124,-1.165209009233D-3,1.287640284572D-2,-9.999164167758D-1,         189P    253
-2.146216704482D-1,9.959305916896D-1,9.012356260610D-2,0D0,          189P    254
-1.6D0,9.011602978816D-2,-9.958473485996D-1,-1.292901629206D-2,      189P    255
1.659861251848D1;                                                    189P    256
100,0D0,0D0,0D0,1.6D0,0D0,-2.872210086326D-1,1.574008923799D0;       191P    257
120,187,191,-4.990247655327D-2,3.217353883184D0;                     193P    258
508,4,0,139,33,0,0,0,139,35,1,0,0,139,34,1,0,0,139,36,0,0;           195P    259
510,193,1,0,195;                                                     197P    260
110,0D0,-1.6D0,0D0,0D0,-6D-1,0D0;                                    199P    261
124,1.165209009233D-3,-1.287640284572D-2,9.999164167758D-1,          201P    262
2.146216704482D-1,9.959305916896D-1,9.012356260610D-2,0D0,           201P    263
-1.6D0,-9.011602978816D-2,9.958473485996D-1,1.292901629206D-2,       201P    264
-1.659861251848D1;                                                   201P    265
100,0D0,0D0,0D0,1.6D0,0D0,-2.872210086326D-1,1.574008923799D0;       203P    266
120,199,203,-4.990247655327D-2,3.217353883184D0;                     205P    267
508,4,0,139,31,0,0,0,139,36,1,0,0,139,32,1,0,0,139,35,0,0;           207P    268
510,205,1,0,207;                                                     209P    269
128,1,1,1,1,0,0,1,0,0,-2.762043687803D1,-2.762043687803D1,           211P    270
2.762043687803D1,2.762043687803D1,-2.392D1,-2.392D1,2.392D1,         211P    271
2.392D1,1D0,1D0,1D0,1D0,2.392D1,0D0,2.762043687803D1,2.392D1,        211P    272
0D0,-2.762043687803D1,-2.392D1,0D0,2.762043687803D1,-2.392D1,        211P    273
0D0,-2.762043687803D1,-2.762043687803D1,2.762043687803D1,            211P    274
-2.392D1,2.392D1;                                                    211P    275
508,6,0,139,1,1,0,0,139,2,1,0,0,139,3,1,0,0,139,4,1,0,0,139,5,1,     213P    276
0,0,139,6,1,0;                                                       213P    277
508,2,0,139,32,0,0,0,139,34,0,0;                                     215P    278
510,211,2,0,213,215;                                                 217P    279
128,1,1,1,1,0,0,1,0,0,-5.311622476545D-1,-5.311622476545D-1,         219P    280
2.708927463038D1,2.708927463038D1,-3.800000000014D-1,                219P    281
-3.800000000014D-1,1.938000000007D1,1.938000000007D1,1D0,1D0,        219P    282
1D0,1D0,-2.346D1,-3.800000000014D-1,1.301347506753D1,4.6D-1,         219P    283
-3.800000000014D-1,2.682369350655D1,-2.346D1,1.938000000007D1,       219P    284
1.301347506753D1,4.6D-1,1.938000000007D1,2.682369350655D1,           219P    285
-5.311622476545D-1,2.708927463038D1,-3.800000000014D-1,              219P    286
1.938000000007D1;                                                    219P    287
508,5,0,139,13,1,0,0,139,14,1,0,0,139,26,0,0,0,139,1,0,0,0,139,      221P    288
25,1,0;                                                              221P    289
510,219,1,0,221;                                                     223P    290
110,0D0,3.227905619136D1,0D0,0D0,3.327905619136D1,0D0;               225P    291
110,2.668316022667D1,1.687352645167D1,0D0,2.287495215606D1,          227P    292
1.907219640636D1,0D0;                                                227P    293
120,225,227,-3.204424506504D0,6.283185286041D-2;                     229P    294
508,3,0,139,13,0,0,0,139,24,0,0,0,139,10,1,0;                        231P    295
510,229,1,0,231;                                                     233P    296
110,0D0,3.227905619136D1,0D0,0D0,3.327905619136D1,0D0;               235P    297
110,2.668316022667D1,1.687352645167D1,0D0,2.287495215606D1,          237P    298
1.907219640636D1,0D0;                                                237P    299
120,235,237,-3.204424506504D0,6.283185286041D-2;                     239P    300
508,3,0,139,15,0,0,0,139,14,0,0,0,139,11,1,0;                        241P    301
510,239,1,0,241;                                                     243P    302
110,0D0,3.227905619136D1,0D0,0D0,3.327905619136D1,0D0;               245P    303
110,2.668316022667D1,1.687352645167D1,0D0,2.287495215606D1,          247P    304
1.907219640636D1,0D0;                                                247P    305
120,245,247,-3.204424506504D0,6.283185286041D-2;                     249P    306
508,3,0,139,18,0,0,0,139,16,0,0,0,139,12,1,0;                        251P    307
510,249,1,0,251;                                                     253P    308
128,1,1,1,1,0,0,1,0,0,-5.311622476545D-1,-5.311622476545D-1,         255P    309
2.708927463038D1,2.708927463038D1,-3.800000000031D-1,                255P    310
-3.800000000031D-1,1.938000000016D1,1.938000000016D1,1D0,1D0,        255P    311
1D0,1D0,-2.3D1,-3.800000000031D-1,-1.381021843902D1,-2.3D1,          255P    312
-3.800000000031D-1,1.381021843902D1,-2.3D1,1.938000000016D1,         255P    313
-1.381021843902D1,-2.3D1,1.938000000016D1,1.381021843902D1,          255P    314
-5.311622476545D-1,2.708927463038D1,-3.800000000031D-1,              255P    315
1.938000000016D1;                                                    255P    316
508,5,0,139,23,1,0,0,139,24,1,0,0,139,25,0,0,0,139,6,0,0,0,139,      257P    317
30,1,0;                                                              257P    318
510,255,1,0,257;                                                     259P    319
110,0D0,3.227905619136D1,0D0,0D0,3.327905619136D1,0D0;               261P    320
110,2.668316022667D1,1.687352645167D1,0D0,2.287495215606D1,          263P    321
1.907219640636D1,0D0;                                                263P    322
120,261,263,-6.283185291417D-2,3.204424506450D0;                     265P    323
508,3,0,139,19,0,0,0,139,17,0,0,0,139,7,1,0;                         267P    324
510,265,1,0,267;                                                     269P    325
110,0D0,3.227905619136D1,0D0,0D0,3.327905619136D1,0D0;               271P    326
110,2.668316022667D1,1.687352645167D1,0D0,2.287495215606D1,          273P    327
1.907219640636D1,0D0;                                                273P    328
120,271,273,-6.283185291417D-2,3.204424506450D0;                     275P    329
508,3,0,139,21,0,0,0,139,20,0,0,0,139,8,1,0;                         277P    330
510,275,1,0,277;                                                     279P    331
110,0D0,3.227905619136D1,0D0,0D0,3.327905619136D1,0D0;               281P    332
110,2.668316022667D1,1.687352645167D1,0D0,2.287495215606D1,          283P    333
1.907219640636D1,0D0;                                                283P    334
120,281,283,-6.283185291417D-2,3.204424506450D0;                     285P    335
508,3,0,139,23,0,0,0,139,22,0,0,0,139,9,1,0;                         287P    336
510,285,1,0,287;                                                     289P    337
128,1,1,1,1,0,0,1,0,0,-5.311622476545D-1,-5.311622476545D-1,         291P    338
2.708927463038D1,2.708927463038D1,-3.800000000014D-1,                291P    339
-3.800000000014D-1,1.938000000007D1,1.938000000007D1,1D0,1D0,        291P    340
1D0,1D0,2.346D1,-3.800000000014D-1,-1.301347506753D1,-4.6D-1,        291P    341
-3.800000000014D-1,-2.682369350655D1,2.346D1,1.938000000007D1,       291P    342
-1.301347506753D1,-4.6D-1,1.938000000007D1,-2.682369350655D1,        291P    343
-5.311622476545D-1,2.708927463038D1,-3.800000000014D-1,              291P    344
1.938000000007D1;                                                    291P    345
508,5,0,139,19,1,0,0,139,20,1,0,0,139,29,0,0,0,139,4,0,0,0,139,      293P    346
28,1,0;                                                              293P    347
510,291,1,0,293;                                                     295P    348
128,1,1,1,1,0,0,1,0,0,-5.311622476545D-1,-5.311622476545D-1,         297P    349
2.708927463038D1,2.708927463038D1,-3.800000000014D-1,                297P    350
-3.800000000014D-1,1.938000000007D1,1.938000000007D1,1D0,1D0,        297P    351
1D0,1D0,4.6D-1,-3.800000000014D-1,-2.682369350655D1,-2.346D1,        297P    352
-3.800000000014D-1,-1.301347506753D1,4.6D-1,1.938000000007D1,        297P    353
-2.682369350655D1,-2.346D1,1.938000000007D1,-1.301347506753D1,       297P    354
-5.311622476545D-1,2.708927463038D1,-3.800000000014D-1,              297P    355
1.938000000007D1;                                                    297P    356
508,5,0,139,21,1,0,0,139,22,1,0,0,139,30,0,0,0,139,5,0,0,0,139,      299P    357
29,1,0;                                                              299P    358
510,297,1,0,299;                                                     301P    359
128,1,1,1,1,0,0,1,0,0,-5.311622476545D-1,-5.311622476545D-1,         303P    360
2.708927463038D1,2.708927463038D1,-3.800000000031D-1,                303P    361
-3.800000000031D-1,1.938000000016D1,1.938000000016D1,1D0,1D0,        303P    362
1D0,1D0,2.3D1,-3.800000000031D-1,1.381021843902D1,2.3D1,             303P    363
-3.800000000031D-1,-1.381021843902D1,2.3D1,1.938000000016D1,         303P    364
1.381021843902D1,2.3D1,1.938000000016D1,-1.381021843902D1,           303P    365
-5.311622476545D-1,2.708927463038D1,-3.800000000031D-1,              303P    366
1.938000000016D1;                                                    303P    367
508,5,0,139,17,1,0,0,139,28,0,0,0,139,3,0,0,0,139,27,1,0,0,139,      305P    368
18,1,0;                                                              305P    369
510,303,1,0,305;                                                     307P    370
128,1,1,1,1,0,0,1,0,0,-5.311622476545D-1,-5.311622476545D-1,         309P    371
2.708927463038D1,2.708927463038D1,-3.800000000014D-1,                309P    372
-3.800000000014D-1,1.938000000007D1,1.938000000007D1,1D0,1D0,        309P    373
1D0,1D0,-4.6D-1,-3.800000000014D-1,2.682369350655D1,2.346D1,         309P    374
-3.800000000014D-1,1.301347506753D1,-4.6D-1,1.938000000007D1,        309P    375
2.682369350655D1,2.346D1,1.938000000007D1,1.301347506753D1,          309P    376
-5.311622476545D-1,2.708927463038D1,-3.800000000014D-1,              309P    377
1.938000000007D1;                                                    309P    378
508,5,0,139,15,1,0,0,139,16,1,0,0,139,27,0,0,0,139,2,0,0,0,139,      311P    379
26,1,0;                                                              311P    380
510,309,1,0,311;                                                     313P    381
128,1,1,1,1,0,0,1,0,0,-2.393970112291D1,-2.393970112291D1,           315P    382
2.393970112291D1,2.393970112291D1,-2.392000000004D1,                 315P    383
-2.392000000004D1,2.392000000004D1,2.392000000004D1,1D0,1D0,1D0,     315P    384
1D0,2.392000000004D1,1.9D1,2.393970112291D1,2.392000000004D1,        315P    385
1.9D1,-2.393970112291D1,-2.392000000004D1,1.9D1,                     315P    386
2.393970112291D1,-2.392000000004D1,1.9D1,-2.393970112291D1,          315P    387
-2.393970112291D1,2.393970112291D1,-2.392000000004D1,                315P    388
2.392000000004D1;                                                    315P    389
508,6,0,139,7,0,0,0,139,12,0,0,0,139,11,0,0,0,139,10,0,0,0,139,      317P    390
9,0,0,0,139,8,0,0;                                                   317P    391
510,315,1,0,317;                                                     319P    392
514,21,145,0,155,1,165,1,175,1,185,1,197,0,209,0,217,0,223,1,        321P    393
233,1,243,1,253,1,259,1,269,1,279,1,289,1,295,1,301,1,307,1,313,     321P    394
1,319,1;                                                             321P    395
124,-1D0,0D0,0D0,0D0,0D0,0D0,-1D0,-7.5D1,0D0,-1D0,0D0,0D0;           323P    396
100,0D0,0D0,0D0,1.1876D1,0D0,-1.1876D1,0D0;                          325P    397
110,1.1876D1,-7.5D1,0D0,1.1876D1,-9D0,0D0;                           327P    398
124,1D0,0D0,0D0,0D0,0D0,0D0,-1D0,-7.5D1,0D0,1D0,0D0,0D0;             329P    399
100,0D0,0D0,0D0,1.1876D1,0D0,-1.1876D1,0D0;                          331P    400
110,-1.1876D1,-7.5D1,0D0,-1.1876D1,-9D0,0D0;                         333P    401
124,-1D0,0D0,0D0,0D0,0D0,0D0,1D0,-9D0,0D0,1D0,0D0,0D0;               335P    402
100,0D0,0D0,0D0,1.1876D1,0D0,-1.1876D1,0D0;                          337P    403
124,1D0,0D0,0D0,0D0,0D0,0D0,1D0,-9D0,0D0,-1D0,0D0,0D0;               339P    404
100,0D0,0D0,0D0,1.1876D1,0D0,-1.1876D1,0D0;                          341P    405
124,-1D0,0D0,0D0,0D0,0D0,0D0,1D0,-9D0,0D0,1D0,0D0,0D0;               343P    406
100,0D0,0D0,0D0,1.5D1,0D0,-1.5D1,0D0;                                345P    407
124,1D0,0D0,0D0,0D0,0D0,0D0,1D0,-9D0,0D0,-1D0,0D0,0D0;               347P    408
100,0D0,0D0,0D0,1.5D1,0D0,-1.5D1,0D0;                                349P    409
502,6,-1.1876D1,-7.5D1,0D0,1.1876D1,-7.5D1,0D0,-1.1876D1,-9D0,       351P    410
0D0,1.1876D1,-9D0,0D0,1.5D1,-9D0,0D0,-1.5D1,-9D0,0D0;                351P    411
504,8,331,351,1,351,2,325,351,2,351,1,337,351,3,351,4,341,351,4,     353P    412
351,3,333,351,1,351,3,327,351,2,351,4,345,351,5,351,6,349,351,6,     353P    413
351,5;                                                               353P    414
110,0D0,-7.5D1,0D0,0D0,-7.4D1,0D0;                                   355P    415
110,-1.1876D1,-7.632D1,0D0,-1.1876D1,-7.68D0,0D0;                    357P    416
120,355,357,3.078760800518D0,6.346017160251D0;                       359P    417
508,4,0,353,2,0,0,0,353,6,1,0,0,353,4,1,0,0,353,5,0,0;               361P    418
510,359,1,0,361;                                                     363P    419
110,0D0,-7.5D1,0D0,0D0,-7.4D1,0D0;                                   365P    420
110,-1.1876D1,-7.632D1,0D0,-1.1876D1,-7.68D0,0D0;                    367P    421
120,365,367,-6.283185307180D-2,3.204424506662D0;                     369P    422
508,4,0,353,1,0,0,0,353,5,1,0,0,353,3,1,0,0,353,6,0,0;               371P    423
510,369,1,0,371;                                                     373P    424
128,1,1,1,1,0,0,1,0,0,-1.561941128167D1,-1.561941128167D1,           375P    425
1.561941128167D1,1.561941128167D1,-1.56D1,-1.56D1,1.56D1,1.56D1,     375P    426
1D0,1D0,1D0,1D0,1.56D1,-9D0,-1.561941128167D1,1.56D1,-9D0,           375P    427
1.561941128167D1,-1.56D1,-9D0,-1.561941128167D1,-1.56D1,-9D0,        375P    428
1.561941128167D1,-1.561941128167D1,1.561941128167D1,-1.56D1,         375P    429
1.56D1;                                                              375P    430
508,2,0,353,7,0,0,0,353,8,0,0;                                       377P    431
508,2,0,353,3,0,0,0,353,4,0,0;                                       379P    432
510,375,2,0,377,379;                                                 381P    433
514,3,363,1,373,1,381,1;                                             383P    434
186,321,1,0;                                                         385P    435
S      1G      5D    386P    435                                        T      1
