 PTC IGES file: sroub-m24x65-csn_02_1101.igs                            S      1
1H,,1H;,24HSROUB-M24X65-CSN_02_1101,28Hsroub-m24x65-csn_02_1101.igs,    G      1
49HPro/ENGINEER by Parametric Technology Corporation,7H2007160,32,38,7, G      2
38,15,24HSROUB-M24X65-CSN_02_1101,1.,2,2HMM,32768,0.5,                  G      3
15H20110917.003021,0.00992734,99.2774,13HVladimir Zima,7HUnknown,10,0,  G      4
15H20110917.003021;                                                     G      5
     314       1       1       1       0       0       0       001000200D      1
     314       0       4       1       0                   COLOR       1D      2
     314       2       1       1       0       0       0       001000200D      3
     314       0       1       1       0                   COLOR       2D      4
     314       3       1       1       0       0       0       001000200D      5
     314       0       1       1       0                   COLOR       3D      6
     314       4       1       1       0       0       0       001000200D      7
     314       0       1       1       0                   COLOR       4D      8
     314       5       1       1       0       0       0       001000200D      9
     314       0       8       1       0                   COLOR       5D     10
     314       6       1       1       0       0       0       001000200D     11
     314       0       8       1       0                   COLOR       6D     12
     314       7       1       1       0       0       0       001000200D     13
     314       0       5       1       0                   COLOR       7D     14
     314       8       1       1       0       0       0       001000200D     15
     314       0       8       1       0                   COLOR       8D     16
     124       9       1       1       0       0       0       001000000D     17
     124       0       0       2       0                   XFORM       1D     18
     100      11       1       1       0       0      17       001010000D     19
     100       0       0       1       0                     ARC       1D     20
     124      12       1       1       0       0       0       001000000D     21
     124       0       0       2       0                   XFORM       2D     22
     100      14       1       1       0       0      21       001010000D     23
     100       0       0       2       0                     ARC       2D     24
     110      16       1       1       0       0       0       001010000D     25
     110       0       0       2       0                    LINE       1D     26
     110      18       1       1       0       0       0       001010000D     27
     110       0       0       2       0                    LINE       2D     28
     124      20       1       1       0       0       0       001000000D     29
     124       0       0       2       0                   XFORM       3D     30
     100      22       1       1       0       0      29       001010000D     31
     100       0       0       1       0                     ARC       3D     32
     110      23       1       1       0       0       0       001010000D     33
     110       0       0       2       0                    LINE       3D     34
     124      25       1       1       0       0       0       001000000D     35
     124       0       0       1       0                   XFORM       4D     36
     100      26       1       1       0       0      35       001010000D     37
     100       0       0       1       0                     ARC       4D     38
     124      27       1       1       0       0       0       001000000D     39
     124       0       0       2       0                   XFORM       5D     40
     100      29       1       1       0       0      39       001010000D     41
     100       0       0       1       0                     ARC       5D     42
     110      30       1       1       0       0       0       001010000D     43
     110       0       0       2       0                    LINE       4D     44
     124      32       1       1       0       0       0       001000000D     45
     124       0       0       1       0                   XFORM       6D     46
     100      33       1       1       0       0      45       001010000D     47
     100       0       0       1       0                     ARC       6D     48
     124      34       1       1       0       0       0       001000000D     49
     124       0       0       2       0                   XFORM       7D     50
     100      36       1       1       0       0      49       001010000D     51
     100       0       0       1       0                     ARC       7D     52
     124      37       1       1       0       0       0       001000000D     53
     124       0       0       2       0                   XFORM       8D     54
     100      39       1       1       0       0      53       001010000D     55
     100       0       0       1       0                     ARC       8D     56
     110      40       1       1       0       0       0       001010000D     57
     110       0       0       1       0                    LINE       5D     58
     110      41       1       1       0       0       0       001010000D     59
     110       0       0       1       0                    LINE       6D     60
     110      42       1       1       0       0       0       001010000D     61
     110       0       0       1       0                    LINE       7D     62
     110      43       1       1       0       0       0       001010000D     63
     110       0       0       1       0                    LINE       8D     64
     110      44       1       1       0       0       0       001010000D     65
     110       0       0       1       0                    LINE       9D     66
     110      45       1       1       0       0       0       001010000D     67
     110       0       0       1       0                    LINE      10D     68
     124      46       1       1       0       0       0       001000000D     69
     124       0       0       1       0                   XFORM       9D     70
     100      47       1       1       0       0      69       001010000D     71
     100       0       0       1       0                     ARC       9D     72
     124      48       1       1       0       0       0       001000000D     73
     124       0       0       1       0                   XFORM      10D     74
     100      49       1       1       0       0      73       001010000D     75
     100       0       0       1       0                     ARC      10D     76
     126      50       1       1       0       0       0       001010000D     77
     126       0       0      10       0                B_SPLINE       1D     78
     126      60       1       1       0       0       0       001010000D     79
     126       0       0      10       0                B_SPLINE       2D     80
     110      70       1       1       0       0       0       001010000D     81
     110       0       0       2       0                    LINE      11D     82
     126      72       1       1       0       0       0       001010000D     83
     126       0       0       9       0                B_SPLINE       3D     84
     126      81       1       1       0       0       0       001010000D     85
     126       0       0       9       0                B_SPLINE       4D     86
     110      90       1       1       0       0       0       001010000D     87
     110       0       0       2       0                    LINE      12D     88
     126      92       1       1       0       0       0       001010000D     89
     126       0       0      10       0                B_SPLINE       5D     90
     126     102       1       1       0       0       0       001010000D     91
     126       0       0      10       0                B_SPLINE       6D     92
     110     112       1       1       0       0       0       001010000D     93
     110       0       0       2       0                    LINE      13D     94
     126     114       1       1       0       0       0       001010000D     95
     126       0       0      10       0                B_SPLINE       7D     96
     126     124       1       1       0       0       0       001010000D     97
     126       0       0      10       0                B_SPLINE       8D     98
     110     134       1       1       0       0       0       001010000D     99
     110       0       0       2       0                    LINE      14D    100
     126     136       1       1       0       0       0       001010000D    101
     126       0       0       8       0                B_SPLINE       9D    102
     110     144       1       1       0       0       0       001010000D    103
     110       0       0       2       0                    LINE      15D    104
     126     146       1       1       0       0       0       001010000D    105
     126       0       0       8       0                B_SPLINE      10D    106
     126     154       1       1       0       0       0       001010000D    107
     126       0       0      10       0                B_SPLINE      11D    108
     126     164       1       1       0       0       0       001010000D    109
     126       0       0      10       0                B_SPLINE      12D    110
     110     174       1       1       0       0       0       001010000D    111
     110       0       0       2       0                    LINE      16D    112
     124     176       1       1       0       0       0       001000000D    113
     124       0       0       1       0                   XFORM      11D    114
     100     177       1       1       0       0     113       001010000D    115
     100       0       0       1       0                     ARC      11D    116
     124     178       1       1       0       0       0       001000000D    117
     124       0       0       2       0                   XFORM      12D    118
     100     180       1       1       0       0     117       001010000D    119
     100       0       0       1       0                     ARC      12D    120
     124     181       1       1       0       0       0       001000000D    121
     124       0       0       2       0                   XFORM      13D    122
     100     183       1       1       0       0     121       001010000D    123
     100       0       0       1       0                     ARC      13D    124
     124     184       1       1       0       0       0       001000000D    125
     124       0       0       1       0                   XFORM      14D    126
     100     185       1       1       0       0     125       001010000D    127
     100       0       0       1       0                     ARC      14D    128
     124     186       1       1       0       0       0       001000000D    129
     124       0       0       2       0                   XFORM      15D    130
     100     188       1       1       0       0     129       001010000D    131
     100       0       0       1       0                     ARC      15D    132
     124     189       1       1       0       0       0       001000000D    133
     124       0       0       2       0                   XFORM      16D    134
     100     191       1       1       0       0     133       001010000D    135
     100       0       0       1       0                     ARC      16D    136
     502     192       1       1       0       0       0       001010000D    137
     502       0       0      14       1                  VERTEX       1D    138
     504     206       1       1       0       0       0       000010001D    139
     504       0       0      12       1                    EDGE       1D    140
     128     218       1       1       0       0       0       001010000D    141
     128       0       0       6       0                  SPLSRF       1D    142
     508     224       1       1       0       0       0       001010000D    143
     508       0       0       1       1                EDGELOOP       1D    144
     510     225       1       1       0       0       0       000010000D    145
     510       0       0       1       1                    FACE       1D    146
     110     226       1       1       0       0       0       001010000D    147
     110       0       0       1       0                    LINE      17D    148
     110     227       1       1       0       0       0       001010000D    149
     110       0       0       2       0                    LINE      18D    150
     120     229       1       1       0       0       0       001010000D    151
     120       0       0       1       0                    SREV       1D    152
     508     230       1       1       0       0       0       001010000D    153
     508       0       0       1       1                EDGELOOP       2D    154
     510     231       1       1       0       0       0       000010000D    155
     510       0       0       1       1                    FACE       2D    156
     110     232       1       1       0       0       0       001010000D    157
     110       0       0       1       0                    LINE      19D    158
     110     233       1       1       0       0       0       001010000D    159
     110       0       0       2       0                    LINE      20D    160
     120     235       1       1       0       0       0       001010000D    161
     120       0       0       1       0                    SREV       2D    162
     508     236       1       1       0       0       0       001010000D    163
     508       0       0       1       1                EDGELOOP       3D    164
     510     237       1       1       0       0       0       000010000D    165
     510       0       0       1       1                    FACE       3D    166
     110     238       1       1       0       0       0       001010000D    167
     110       0       0       1       0                    LINE      21D    168
     110     239       1       1       0       0       0       001010000D    169
     110       0       0       1       0                    LINE      22D    170
     120     240       1       1       0       0       0       001010000D    171
     120       0       0       1       0                    SREV       3D    172
     508     241       1       1       0       0       0       001010000D    173
     508       0       0       1       1                EDGELOOP       4D    174
     510     242       1       1       0       0       0       000010000D    175
     510       0       0       1       1                    FACE       4D    176
     110     243       1       1       0       0       0       001010000D    177
     110       0       0       1       0                    LINE      23D    178
     110     244       1       1       0       0       0       001010000D    179
     110       0       0       1       0                    LINE      24D    180
     120     245       1       1       0       0       0       001010000D    181
     120       0       0       1       0                    SREV       4D    182
     508     246       1       1       0       0       0       001010000D    183
     508       0       0       1       1                EDGELOOP       5D    184
     510     247       1       1       0       0       0       000010000D    185
     510       0       0       1       1                    FACE       5D    186
     110     248       1       1       0       0       0       001010000D    187
     110       0       0       1       0                    LINE      25D    188
     124     249       1       1       0       0       0       001000000D    189
     124       0       0       4       0                   XFORM      17D    190
     100     253       1       1       0       0     189       001010000D    191
     100       0       0       1       0                     ARC      17D    192
     120     254       1       1       0       0       0       001010000D    193
     120       0       0       1       0                    SREV       5D    194
     508     255       1       1       0       0       0       001010000D    195
     508       0       0       1       1                EDGELOOP       6D    196
     510     256       1       1       0       0       0       000010000D    197
     510       0       0       1       1                    FACE       6D    198
     110     257       1       1       0       0       0       001010000D    199
     110       0       0       1       0                    LINE      26D    200
     124     258       1       1       0       0       0       001000000D    201
     124       0       0       4       0                   XFORM      18D    202
     100     262       1       1       0       0     201       001010000D    203
     100       0       0       1       0                     ARC      18D    204
     120     263       1       1       0       0       0       001010000D    205
     120       0       0       1       0                    SREV       6D    206
     508     264       1       1       0       0       0       001010000D    207
     508       0       0       1       1                EDGELOOP       7D    208
     510     265       1       1       0       0       0       000010000D    209
     510       0       0       1       1                    FACE       7D    210
     128     266       1       1       0       0       0       001010000D    211
     128       0       0       6       0                  SPLSRF       2D    212
     508     272       1       1       0       0       0       001010000D    213
     508       0       0       2       1                EDGELOOP       8D    214
     508     274       1       1       0       0       0       001010000D    215
     508       0       0       1       1                EDGELOOP       9D    216
     510     275       1       1       0       0       0       000010000D    217
     510       0       0       1       1                    FACE       8D    218
     128     276       1       1       0       0       0       001010000D    219
     128       0       0       8       0                  SPLSRF       3D    220
     508     284       1       1       0       0       0       001010000D    221
     508       0       0       2       1                EDGELOOP      10D    222
     510     286       1       1       0       0       0       000010000D    223
     510       0       0       1       1                    FACE       9D    224
     110     287       1       1       0       0       0       001010000D    225
     110       0       0       1       0                    LINE      27D    226
     110     288       1       1       0       0       0       001010000D    227
     110       0       0       2       0                    LINE      28D    228
     120     290       1       1       0       0       0       001010000D    229
     120       0       0       1       0                    SREV       7D    230
     508     291       1       1       0       0       0       001010000D    231
     508       0       0       1       1                EDGELOOP      11D    232
     510     292       1       1       0       0       0       000010000D    233
     510       0       0       1       1                    FACE      10D    234
     110     293       1       1       0       0       0       001010000D    235
     110       0       0       1       0                    LINE      29D    236
     110     294       1       1       0       0       0       001010000D    237
     110       0       0       2       0                    LINE      30D    238
     120     296       1       1       0       0       0       001010000D    239
     120       0       0       1       0                    SREV       8D    240
     508     297       1       1       0       0       0       001010000D    241
     508       0       0       1       1                EDGELOOP      12D    242
     510     298       1       1       0       0       0       000010000D    243
     510       0       0       1       1                    FACE      11D    244
     110     299       1       1       0       0       0       001010000D    245
     110       0       0       1       0                    LINE      31D    246
     110     300       1       1       0       0       0       001010000D    247
     110       0       0       2       0                    LINE      32D    248
     120     302       1       1       0       0       0       001010000D    249
     120       0       0       1       0                    SREV       9D    250
     508     303       1       1       0       0       0       001010000D    251
     508       0       0       1       1                EDGELOOP      13D    252
     510     304       1       1       0       0       0       000010000D    253
     510       0       0       1       1                    FACE      12D    254
     128     305       1       1       0       0       0       001010000D    255
     128       0       0       8       0                  SPLSRF       4D    256
     508     313       1       1       0       0       0       001010000D    257
     508       0       0       2       1                EDGELOOP      14D    258
     510     315       1       1       0       0       0       000010000D    259
     510       0       0       1       1                    FACE      13D    260
     110     316       1       1       0       0       0       001010000D    261
     110       0       0       1       0                    LINE      33D    262
     110     317       1       1       0       0       0       001010000D    263
     110       0       0       2       0                    LINE      34D    264
     120     319       1       1       0       0       0       001010000D    265
     120       0       0       1       0                    SREV      10D    266
     508     320       1       1       0       0       0       001010000D    267
     508       0       0       1       1                EDGELOOP      15D    268
     510     321       1       1       0       0       0       000010000D    269
     510       0       0       1       1                    FACE      14D    270
     110     322       1       1       0       0       0       001010000D    271
     110       0       0       1       0                    LINE      35D    272
     110     323       1       1       0       0       0       001010000D    273
     110       0       0       2       0                    LINE      36D    274
     120     325       1       1       0       0       0       001010000D    275
     120       0       0       1       0                    SREV      11D    276
     508     326       1       1       0       0       0       001010000D    277
     508       0       0       1       1                EDGELOOP      16D    278
     510     327       1       1       0       0       0       000010000D    279
     510       0       0       1       1                    FACE      15D    280
     110     328       1       1       0       0       0       001010000D    281
     110       0       0       1       0                    LINE      37D    282
     110     329       1       1       0       0       0       001010000D    283
     110       0       0       2       0                    LINE      38D    284
     120     331       1       1       0       0       0       001010000D    285
     120       0       0       1       0                    SREV      12D    286
     508     332       1       1       0       0       0       001010000D    287
     508       0       0       1       1                EDGELOOP      17D    288
     510     333       1       1       0       0       0       000010000D    289
     510       0       0       1       1                    FACE      16D    290
     128     334       1       1       0       0       0       001010000D    291
     128       0       0       8       0                  SPLSRF       5D    292
     508     342       1       1       0       0       0       001010000D    293
     508       0       0       2       1                EDGELOOP      18D    294
     510     344       1       1       0       0       0       000010000D    295
     510       0       0       1       1                    FACE      17D    296
     128     345       1       1       0       0       0       001010000D    297
     128       0       0       8       0                  SPLSRF       6D    298
     508     353       1       1       0       0       0       001010000D    299
     508       0       0       2       1                EDGELOOP      19D    300
     510     355       1       1       0       0       0       000010000D    301
     510       0       0       1       1                    FACE      18D    302
     128     356       1       1       0       0       0       001010000D    303
     128       0       0       8       0                  SPLSRF       7D    304
     508     364       1       1       0       0       0       001010000D    305
     508       0       0       2       1                EDGELOOP      20D    306
     510     366       1       1       0       0       0       000010000D    307
     510       0       0       1       1                    FACE      19D    308
     128     367       1       1       0       0       0       001010000D    309
     128       0       0       8       0                  SPLSRF       8D    310
     508     375       1       1       0       0       0       001010000D    311
     508       0       0       2       1                EDGELOOP      21D    312
     510     377       1       1       0       0       0       000010000D    313
     510       0       0       1       1                    FACE      20D    314
     128     378       1       1       0       0       0       001010000D    315
     128       0       0       8       0                  SPLSRF       9D    316
     508     386       1       1       0       0       0       001010000D    317
     508       0       0       2       1                EDGELOOP      22D    318
     510     388       1       1       0       0       0       000010000D    319
     510       0       0       1       1                    FACE      21D    320
     514     389       1       1       0       0       0       000010000D    321
     514       0       0       3       1                   SHELL       1D    322
     124     392       1       1       0       0       0       001000000D    323
     124       0       0       1       0                   XFORM      19D    324
     100     393       1       1       0       0     323       001010000D    325
     100       0       0       1       0                     ARC      19D    326
     110     394       1       1       0       0       0       001010000D    327
     110       0       0       1       0                    LINE      39D    328
     124     395       1       1       0       0       0       001000000D    329
     124       0       0       1       0                   XFORM      20D    330
     100     396       1       1       0       0     329       001010000D    331
     100       0       0       1       0                     ARC      20D    332
     110     397       1       1       0       0       0       001010000D    333
     110       0       0       1       0                    LINE      40D    334
     124     398       1       1       0       0       0       001000000D    335
     124       0       0       1       0                   XFORM      21D    336
     100     399       1       1       0       0     335       001010000D    337
     100       0       0       1       0                     ARC      21D    338
     124     400       1       1       0       0       0       001000000D    339
     124       0       0       1       0                   XFORM      22D    340
     100     401       1       1       0       0     339       001010000D    341
     100       0       0       1       0                     ARC      22D    342
     124     402       1       1       0       0       0       001000000D    343
     124       0       0       1       0                   XFORM      23D    344
     100     403       1       1       0       0     343       001010000D    345
     100       0       0       1       0                     ARC      23D    346
     124     404       1       1       0       0       0       001000000D    347
     124       0       0       1       0                   XFORM      24D    348
     100     405       1       1       0       0     347       001010000D    349
     100       0       0       1       0                     ARC      24D    350
     502     406       1       1       0       0       0       001010000D    351
     502       0       0       2       1                  VERTEX       2D    352
     504     408       1       1       0       0       0       000010001D    353
     504       0       0       3       1                    EDGE       2D    354
     110     411       1       1       0       0       0       001010000D    355
     110       0       0       1       0                    LINE      41D    356
     110     412       1       1       0       0       0       001010000D    357
     110       0       0       1       0                    LINE      42D    358
     120     413       1       1       0       0       0       001010000D    359
     120       0       0       1       0                    SREV      13D    360
     508     414       1       1       0       0       0       001010000D    361
     508       0       0       1       1                EDGELOOP      23D    362
     510     415       1       1       0       0       0       000010000D    363
     510       0       0       1       1                    FACE      22D    364
     110     416       1       1       0       0       0       001010000D    365
     110       0       0       1       0                    LINE      43D    366
     110     417       1       1       0       0       0       001010000D    367
     110       0       0       1       0                    LINE      44D    368
     120     418       1       1       0       0       0       001010000D    369
     120       0       0       1       0                    SREV      14D    370
     508     419       1       1       0       0       0       001010000D    371
     508       0       0       1       1                EDGELOOP      24D    372
     510     420       1       1       0       0       0       000010000D    373
     510       0       0       1       1                    FACE      23D    374
     128     421       1       1       0       0       0       001010000D    375
     128       0       0       6       0                  SPLSRF      10D    376
     508     427       1       1       0       0       0       001010000D    377
     508       0       0       1       1                EDGELOOP      25D    378
     508     428       1       1       0       0       0       001010000D    379
     508       0       0       1       1                EDGELOOP      26D    380
     510     429       1       1       0       0       0       000010000D    381
     510       0       0       1       1                    FACE      24D    382
     514     430       1       1       0       0       0       000000000D    383
     514       0       0       1       1                   SHELL       2D    384
     186     431       1       1       0       0       0       000000000D    385
     186       0       0       1       0                    MSBR       1D    386
314,1.1D0,1.2D0,1D2;                                                   1P      1
314,1.1D1,1.1D1,1.1D1;                                                 3P      2
314,3.92D1,1.2D0,1.2D0;                                                5P      3
314,4.1D1,0D0,2.2D1;                                                   7P      4
314,8.784D1,9.49D1,1D2;                                                9P      5
314,9.6D1,9.6D1,9.6D1;                                                11P      6
314,9.8D1,6.27D1,0D0;                                                 13P      7
314,1D2,1D2,9.49D1;                                                   15P      8
124,0D0,1D0,0D0,0D0,0D0,0D0,-1D0,-6.499998856126D1,-1D0,0D0,0D0,      17P      9
0D0;                                                                  17P     10
100,0D0,0D0,0D0,1.039998345342D1,0D0,-1.039998345342D1,0D0;           19P     11
124,0D0,-1D0,0D0,0D0,0D0,0D0,-1D0,-6.499998856126D1,1D0,0D0,0D0,      21P     12
0D0;                                                                  21P     13
100,0D0,0D0,0D0,1.039998345342D1,0D0,-1.039998345342D1,               23P     14
1.051062945024D-14;                                                   23P     15
110,-3.398356416410D-9,-6.499999067215D1,-1.039999067097D1,           25P     16
-2.940884587826D-9,-6.339999192782D1,-1.199999192680D1;               25P     17
110,3.398354743529D-9,-6.499999067215D1,1.039999067097D1,             27P     18
2.940883451346D-9,-6.339999192782D1,1.199999192680D1;                 27P     19
124,0D0,-1D0,0D0,0D0,0D0,0D0,-1D0,-6.339999402460D1,1D0,0D0,0D0,      29P     20
0D0;                                                                  29P     21
100,0D0,0D0,0D0,1.2D1,0D0,-1.2D1,0D0;                                 31P     22
110,1.902789286811D-12,-1.6D0,-1.2D1,-2.940884587826D-9,              33P     23
-6.339999192782D1,-1.199999192680D1;                                  33P     24
124,0D0,-1D0,0D0,0D0,0D0,0D0,1D0,-1.6D0,-1D0,0D0,0D0,0D0;             35P     25
100,0D0,0D0,0D0,1.2D1,0D0,-1.2D1,0D0;                                 37P     26
124,0D0,1D0,0D0,0D0,0D0,0D0,-1D0,-6.339999402460D1,-1D0,0D0,0D0,      39P     27
0D0;                                                                  39P     28
100,0D0,0D0,0D0,1.2D1,0D0,-1.2D1,0D0;                                 41P     29
110,-1.903858255943D-12,-1.6D0,1.2D1,2.940883451346D-9,               43P     30
-6.339999192782D1,1.199999192680D1;                                   43P     31
124,0D0,1D0,0D0,0D0,0D0,0D0,1D0,-1.6D0,1D0,0D0,0D0,0D0;               45P     32
100,0D0,0D0,0D0,1.2D1,0D0,-1.2D1,0D0;                                 47P     33
124,4.138078768534D-12,0D0,1D0,-5.627787125206D-11,0D0,1D0,0D0,       49P     34
-1.6D0,-1D0,0D0,4.138078768534D-12,1.36D1;                            49P     35
100,0D0,0D0,0D0,1.6D0,0D0,7.994585462384D-13,1.6D0;                   51P     36
124,-4.137959072614D-12,0D0,-1D0,5.627623367310D-11,0D0,1D0,0D0,      53P     37
-1.6D0,1D0,0D0,-4.137959072614D-12,-1.36D1;                           53P     38
100,0D0,0D0,0D0,1.6D0,0D0,8.012349030778D-13,1.6D0;                   55P     39
110,-1.8D1,0D0,1.039230484541D1,0D0,0D0,2.078460969083D1;             57P     40
110,0D0,0D0,2.078460969083D1,1.8D1,0D0,1.039230484541D1;              59P     41
110,1.8D1,0D0,1.039230484541D1,1.8D1,0D0,-1.039230484541D1;           61P     42
110,1.8D1,0D0,-1.039230484541D1,0D0,0D0,-2.078460969083D1;            63P     43
110,0D0,0D0,-2.078460969083D1,-1.8D1,0D0,-1.039230484541D1;           65P     44
110,-1.8D1,0D0,-1.039230484541D1,-1.8D1,0D0,1.039230484541D1;         67P     45
124,0D0,-1D0,0D0,0D0,0D0,0D0,1D0,0D0,-1D0,0D0,0D0,0D0;                69P     46
100,0D0,0D0,0D0,1.359999991190D1,0D0,-1.359999991190D1,0D0;           71P     47
124,0D0,1D0,0D0,0D0,0D0,0D0,1D0,0D0,1D0,0D0,0D0,0D0;                  73P     48
100,0D0,0D0,0D0,1.359999991190D1,0D0,-1.359999991190D1,0D0;           75P     49
126,7,3,0,0,1,0,0D0,0D0,0D0,0D0,2D-1,4D-1,6D-1,8D-1,1D0,1D0,1D0,      77P     50
1D0,1D0,1D0,1D0,1D0,1D0,1D0,1D0,1D0,-1.8D1,1.339230484541D1,          77P     51
1.039230484541D1,-1.735907207610D1,1.360594748671D1,                  77P     52
1.076234475481D1,-1.610033311895D1,1.399087799378D1,                  77P     53
1.148907803058D1,-1.430420093170D1,1.443398371551D1,                  77P     54
1.252607543231D1,-1.253043732450D1,1.475755615264D1,                  77P     55
1.355015832868D1,-1.076487240984D1,1.495544986507D1,                  77P     56
1.456950770640D1,-9.587971428440D0,1.499999999995D1,                  77P     57
1.524899180740D1,-8.999999984096D0,1.500000000001D1,                  77P     58
1.558845727907D1,0D0,1D0,0D0,0D0,1D0;                                 77P     59
126,7,3,0,0,1,0,0D0,0D0,0D0,0D0,2D-1,4D-1,6D-1,8D-1,1D0,1D0,1D0,      79P     60
1D0,1D0,1D0,1D0,1D0,1D0,1D0,1D0,1D0,-8.999999984096D0,                79P     61
1.500000000001D1,1.558845727907D1,-8.411832700818D0,                  79P     62
1.500000000001D1,1.592803581839D1,-7.234592554898D0,                  79P     63
1.495541650199D1,1.660771573096D1,-5.468793948841D0,                  79P     64
1.475745275620D1,1.762720003254D1,-3.694718444720D0,                  79P     65
1.443373962436D1,1.865146300213D1,-1.899704334614D0,                  79P     66
1.399087168971D1,1.968781488187D1,-6.409667207287D-1,                 79P     67
1.360596041899D1,2.041454738207D1,0D0,1.339230484541D1,               79P     68
2.078460969083D1,0D0,1D0,0D0,0D0,1D0;                                 79P     69
110,-1.8D1,0D0,1.039230484541D1,-1.8D1,1.339230484541D1,              81P     70
1.039230484541D1;                                                     81P     71
126,7,3,0,0,1,0,0D0,0D0,0D0,0D0,2D-1,4D-1,6D-1,8D-1,1D0,1D0,1D0,      83P     72
1D0,1D0,1D0,1D0,1D0,1D0,1D0,1D0,1D0,-1.8D1,1.339230484541D1,          83P     73
-1.039230484541D1,-1.8D1,1.360405393427D1,-9.658784484706D0,          83P     74
-1.8D1,1.398679846014D1,-8.215188586564D0,-1.8D1,                     83P     75
1.443071603708D1,-6.142391502758D0,-1.8D1,1.475567924031D1,           83P     76
-4.091772433609D0,-1.8D1,1.495496469622D1,-2.047688435488D0,          83P     77
-1.800000000001D1,1.499999999995D1,-6.825854495317D-1,                83P     78
-1.800000000001D1,1.500000000003D1,-1.003213068174D-10,0D0,1D0,       83P     79
0D0,0D0,1D0;                                                          83P     80
126,7,3,0,0,1,0,0D0,0D0,0D0,0D0,2D-1,4D-1,6D-1,8D-1,1D0,1D0,1D0,      85P     81
1D0,1D0,1D0,1D0,1D0,1D0,1D0,1D0,1D0,-1.800000000001D1,                85P     82
1.500000000003D1,-1.003213068174D-10,-1.800000000001D1,               85P     83
1.499999999996D1,6.869073112891D-1,-1.8D1,1.495441154037D1,           85P     84
2.059483724056D0,-1.8D1,1.475313503376D1,4.112491043258D0,            85P     85
-1.8D1,1.442626062277D1,6.166076300904D0,-1.8D1,                      85P     86
1.398205482057D1,8.234103505755D0,-1.8D1,1.360190228980D1,            85P     87
9.666237999774D0,-1.8D1,1.339230484541D1,1.039230484541D1,0D0,        85P     88
1D0,0D0,0D0,1D0;                                                      85P     89
110,-1.8D1,0D0,-1.039230484541D1,-1.8D1,1.339230484541D1,             87P     90
-1.039230484541D1;                                                    87P     91
126,7,3,0,0,1,0,0D0,0D0,0D0,0D0,2D-1,4D-1,6D-1,8D-1,1D0,1D0,1D0,      89P     92
1D0,1D0,1D0,1D0,1D0,1D0,1D0,1D0,1D0,1.8D1,1.339230484541D1,           89P     93
-1.039230484541D1,1.735907208838D1,1.360594748262D1,                  89P     94
-1.076234474772D1,1.610033315418D1,1.399087798307D1,                  89P     95
-1.148907801022D1,1.430420100588D1,1.443398369939D1,                  89P     96
-1.252607538954D1,1.253043741429D1,1.475755613721D1,                  89P     97
-1.355015827662D1,1.076487260040D1,1.495544985101D1,                  89P     98
-1.456950759719D1,9.587971476988D0,1.500000000158D1,                  89P     99
-1.524899177761D1,9.000000044250D0,1.500000000164D1,                  89P    100
-1.558845724258D1,0D0,1D0,0D0,0D0,1D0;                                89P    101
126,7,3,0,0,1,0,0D0,0D0,0D0,0D0,2D-1,4D-1,6D-1,8D-1,1D0,1D0,1D0,      91P    102
1D0,1D0,1D0,1D0,1D0,1D0,1D0,1D0,1D0,9.000000044250D0,                 91P    103
1.500000000164D1,-1.558845724258D1,8.411832674516D0,                  91P    104
1.500000000164D1,-1.592803583182D1,7.234592567105D0,                  91P    105
1.495541650123D1,-1.660771572473D1,5.468793945569D0,                  91P    106
1.475745275640D1,-1.762720003421D1,3.694718445601D0,                  91P    107
1.443373962431D1,-1.865146300168D1,1.899704334362D0,                  91P    108
1.399087168972D1,-1.968781488200D1,6.409667207287D-1,                 91P    109
1.360596041899D1,-2.041454738207D1,0D0,1.339230484541D1,              91P    110
-2.078460969083D1,0D0,1D0,0D0,0D0,1D0;                                91P    111
110,1.8D1,0D0,-1.039230484541D1,1.8D1,1.339230484541D1,               93P    112
-1.039230484541D1;                                                    93P    113
126,7,3,0,0,1,0,0D0,0D0,0D0,0D0,2D-1,4D-1,6D-1,8D-1,1D0,1D0,1D0,      95P    114
1D0,1D0,1D0,1D0,1D0,1D0,1D0,1D0,1D0,0D0,1.339230484541D1,             95P    115
-2.078460969083D1,-6.409279239225D-1,1.360594748672D1,                95P    116
-2.041456978142D1,-1.899666880946D0,1.399087799380D1,                 95P    117
-1.968783650574D1,-3.695799068976D0,1.443398371554D1,                 95P    118
-1.865083910348D1,-5.469562673554D0,1.475755615266D1,                 95P    119
-1.762675620890D1,-7.235127598223D0,1.495544986509D1,                 95P    120
-1.660740682437D1,-8.412028554881D0,1.499999999997D1,                 95P    121
-1.592792274024D1,-8.999999999112D0,1.500000000001D1,                 95P    122
-1.558845726864D1,0D0,1D0,0D0,0D0,1D0;                                95P    123
126,7,3,0,0,1,0,0D0,0D0,0D0,0D0,2D-1,4D-1,6D-1,8D-1,1D0,1D0,1D0,      97P    124
1D0,1D0,1D0,1D0,1D0,1D0,1D0,1D0,1D0,-8.999999999112D0,                97P    125
1.500000000001D1,-1.558845726864D1,-9.588167282390D0,                 97P    126
1.500000000001D1,-1.524887872931D1,-1.076540745289D1,                 97P    127
1.495541650199D1,-1.456919879996D1,-1.253120604907D1,                 97P    128
1.475745275620D1,-1.354971450513D1,-1.430528155584D1,                 97P    129
1.443373962436D1,-1.252545153373D1,-1.610029566523D1,                 97P    130
1.399087168971D1,-1.148909965448D1,-1.735903327927D1,                 97P    131
1.360596041899D1,-1.076236715417D1,-1.8D1,1.339230484541D1,           97P    132
-1.039230484541D1,0D0,1D0,0D0,0D0,1D0;                                97P    133
110,0D0,0D0,-2.078460969083D1,0D0,1.339230484541D1,                   99P    134
-2.078460969083D1;                                                    99P    135
126,7,3,0,0,1,0,0D0,0D0,0D0,0D0,2D-1,4D-1,6D-1,8D-1,1D0,1D0,1D0,     101P    136
1D0,1D0,1D0,1D0,1D0,1D0,1D0,1D0,1D0,1.800000000001D1,                101P    137
1.500000000003D1,1.003208567264D-10,1.800000000001D1,                101P    138
1.499999999996D1,-6.869073112891D-1,1.8D1,1.495441154037D1,          101P    139
-2.059483724056D0,1.8D1,1.475313503376D1,-4.112491043258D0,          101P    140
1.8D1,1.442626062277D1,-6.166076300904D0,1.8D1,1.398205482057D1,     101P    141
-8.234103505755D0,1.8D1,1.360190228980D1,-9.666237999774D0,          101P    142
1.8D1,1.339230484541D1,-1.039230484541D1,0D0,1D0,0D0,0D0,1D0;        101P    143
110,1.8D1,0D0,1.039230484541D1,1.8D1,1.339230484541D1,               103P    144
1.039230484541D1;                                                    103P    145
126,7,3,0,0,1,0,0D0,0D0,0D0,0D0,2D-1,4D-1,6D-1,8D-1,1D0,1D0,1D0,     105P    146
1D0,1D0,1D0,1D0,1D0,1D0,1D0,1D0,1D0,1.8D1,1.339230484541D1,          105P    147
1.039230484541D1,1.8D1,1.360405393427D1,9.658784484706D0,1.8D1,      105P    148
1.398679846014D1,8.215188586564D0,1.8D1,1.443071603708D1,            105P    149
6.142391502758D0,1.8D1,1.475567924031D1,4.091772433609D0,1.8D1,      105P    150
1.495496469622D1,2.047688435488D0,1.800000000001D1,                  105P    151
1.499999999995D1,6.825854495317D-1,1.800000000001D1,                 105P    152
1.500000000003D1,1.003208567264D-10,0D0,1D0,0D0,0D0,1D0;             105P    153
126,7,3,0,0,1,0,0D0,0D0,0D0,0D0,2D-1,4D-1,6D-1,8D-1,1D0,1D0,1D0,     107P    154
1D0,1D0,1D0,1D0,1D0,1D0,1D0,1D0,1D0,0D0,1.339230484541D1,            107P    155
2.078460969083D1,6.409279108114D-1,1.360594748235D1,                 107P    156
2.041456978899D1,1.899666843512D0,1.399087798236D1,                  107P    157
1.968783652735D1,3.695798989183D0,1.443398369833D1,                  107P    158
1.865083914955D1,5.469562579946D0,1.475755613619D1,                  107P    159
1.762675626295D1,7.235127386417D0,1.495544985007D1,                  107P    160
1.660740694666D1,8.412028521126D0,1.500000000170D1,                  107P    161
1.592792275973D1,8.999999952968D0,1.500000000175D1,                  107P    162
1.558845729528D1,0D0,1D0,0D0,0D0,1D0;                                107P    163
126,7,3,0,0,1,0,0D0,0D0,0D0,0D0,2D-1,4D-1,6D-1,8D-1,1D0,1D0,1D0,     109P    164
1D0,1D0,1D0,1D0,1D0,1D0,1D0,1D0,1D0,8.999999952968D0,                109P    165
1.500000000175D1,1.558845729528D1,9.588167328535D0,                  109P    166
1.500000000175D1,1.524887870267D1,1.076540743148D1,                  109P    167
1.495541650118D1,1.456919881232D1,1.253120605481D1,                  109P    168
1.475745275642D1,1.354971450181D1,1.430528155430D1,                  109P    169
1.443373962430D1,1.252545153462D1,1.610029566567D1,                  109P    170
1.399087168972D1,1.148909965422D1,1.735903327927D1,                  109P    171
1.360596041899D1,1.076236715417D1,1.8D1,1.339230484541D1,            109P    172
1.039230484541D1,0D0,1D0,0D0,0D0,1D0;                                109P    173
110,0D0,0D0,2.078460969083D1,0D0,1.339230484541D1,                   111P    174
2.078460969083D1;                                                    111P    175
124,1D0,0D0,0D0,0D0,0D0,0D0,1D0,1.5D1,0D0,-1D0,0D0,0D0;              113P    176
100,0D0,0D0,0D0,1.8D1,0D0,9.000000000156D0,1.558845726803D1;         115P    177
124,4.999999999916D-1,8.660254037893D-1,0D0,0D0,0D0,0D0,1D0,         117P    178
1.5D1,8.660254037893D-1,-4.999999999916D-1,0D0,0D0;                  117P    179
100,0D0,0D0,0D0,1.8D1,0D0,8.999999999848D0,1.558845726821D1;         119P    180
124,-4.999999960779D-1,8.660254060489D-1,0D0,0D0,0D0,0D0,1D0,        121P    181
1.5D1,8.660254060489D-1,4.999999960779D-1,0D0,0D0;                   121P    182
100,0D0,0D0,0D0,1.8D1,0D0,9.000000070750D0,1.558845722727D1;         123P    183
124,-1D0,0D0,0D0,0D0,0D0,0D0,1D0,1.5D1,0D0,1D0,0D0,0D0;              125P    184
100,0D0,0D0,0D0,1.8D1,0D0,8.999999929402D0,1.558845730888D1;         127P    185
124,-4.999999999916D-1,-8.660254037893D-1,0D0,0D0,0D0,0D0,1D0,       129P    186
1.5D1,-8.660254037893D-1,4.999999999916D-1,0D0,0D0;                  129P    187
100,0D0,0D0,0D0,1.8D1,0D0,8.999999999848D0,1.558845726821D1;         131P    188
124,5.000000000087D-1,-8.660254037794D-1,0D0,0D0,0D0,0D0,1D0,        133P    189
1.5D1,-8.660254037794D-1,-5.000000000087D-1,0D0,0D0;                 133P    190
100,0D0,0D0,0D0,1.8D1,0D0,8.999999999995D0,1.558845726812D1;         135P    191
502,26,-1.8D1,0D0,1.039230484541D1,0D0,0D0,2.078460969083D1,         137P    192
1.8D1,0D0,1.039230484541D1,1.8D1,0D0,-1.039230484541D1,0D0,0D0,      137P    193
-2.078460969083D1,-1.8D1,0D0,-1.039230484541D1,1.8D1,1.5D1,0D0,      137P    194
9.000000000156D0,1.5D1,-1.558845726803D1,-8.999999999848D0,          137P    195
1.5D1,-1.558845726821D1,-1.8D1,1.5D1,0D0,-8.999999929402D0,          137P    196
1.5D1,1.558845730888D1,8.999999999848D0,1.5D1,1.558845726821D1,      137P    197
-1.8D1,1.339230484541D1,1.039230484541D1,0D0,1.339230484541D1,       137P    198
2.078460969083D1,1.8D1,1.339230484541D1,1.039230484541D1,1.8D1,      137P    199
1.339230484541D1,-1.039230484541D1,0D0,1.339230484541D1,             137P    200
-2.078460969083D1,-1.8D1,1.339230484541D1,-1.039230484541D1,0D0,     137P    201
-1.6D0,-1.2D1,0D0,-1.6D0,1.2D1,0D0,0D0,-1.359999991190D1,0D0,        137P    202
0D0,1.359999991190D1,0D0,-6.499998856126D1,-1.039998345342D1,        137P    203
0D0,-6.499998856126D1,1.039998345342D1,0D0,-6.339999402460D1,        137P    204
-1.2D1,0D0,-6.339999402460D1,1.2D1;                                  137P    205
504,44,57,137,1,137,2,59,137,2,137,3,61,137,3,137,4,63,137,4,        139P    206
137,5,65,137,5,137,6,67,137,6,137,1,115,137,7,137,8,135,137,8,       139P    207
137,9,131,137,9,137,10,127,137,10,137,11,123,137,11,137,12,119,      139P    208
137,12,137,7,77,137,13,137,11,79,137,11,137,14,107,137,14,137,       139P    209
12,109,137,12,137,15,101,137,7,137,16,105,137,15,137,7,89,137,       139P    210
16,137,8,91,137,8,137,17,95,137,17,137,9,97,137,9,137,18,83,137,     139P    211
18,137,10,85,137,10,137,13,81,137,1,137,13,111,137,2,137,14,103,     139P    212
137,3,137,15,93,137,4,137,16,99,137,5,137,17,87,137,6,137,18,37,     139P    213
137,19,137,20,71,137,21,137,22,47,137,20,137,19,75,137,22,137,       139P    214
21,51,137,20,137,22,55,137,19,137,21,19,137,23,137,24,41,137,25,     139P    215
137,26,23,137,24,137,23,31,137,26,137,25,33,137,19,137,25,43,        139P    216
137,20,137,26,27,137,24,137,26,25,137,23,137,25;                     139P    217
128,1,1,1,1,0,0,1,0,0,-1.0816D1,-1.0816D1,1.0816D1,1.0816D1,         141P    218
-1.081599990332D1,-1.081599990332D1,1.081599990332D1,                141P    219
1.081599990332D1,1D0,1D0,1D0,1D0,1.081599990332D1,-6.5D1,            141P    220
1.0816D1,1.081599990332D1,-6.5D1,-1.0816D1,-1.081599990332D1,        141P    221
-6.5D1,1.0816D1,-1.081599990332D1,-6.5D1,-1.0816D1,-1.0816D1,        141P    222
1.0816D1,-1.081599990332D1,1.081599990332D1;                         141P    223
508,2,0,139,37,0,0,0,139,39,0,0;                                     143P    224
510,141,1,0,143;                                                     145P    225
110,0D0,-7.54D1,0D0,0D0,-7.44D1,0D0;                                 147P    226
110,0D0,-6.508425192603D1,-1.031572031540D1,0D0,                     149P    227
-6.331571358042D1,-1.208425390207D1;                                 149P    228
120,147,149,-3.204424513834D0,6.283186122416D-2;                     151P    229
508,4,0,139,37,1,0,0,139,43,1,0,0,139,38,0,0,0,139,44,0,0;           153P    230
510,151,1,0,153;                                                     155P    231
110,0D0,-7.54D1,0D0,0D0,-7.44D1,0D0;                                 157P    232
110,0D0,-6.508425192603D1,-1.031572031540D1,0D0,                     159P    233
-6.331571358042D1,-1.208425390207D1;                                 159P    234
120,157,159,-6.283186024386D-2,3.204424514814D0;                     161P    235
508,4,0,139,39,1,0,0,139,44,1,0,0,139,40,0,0,0,139,43,0,0;           163P    236
510,161,1,0,163;                                                     165P    237
110,0D0,0D0,0D0,0D0,1D0,0D0;                                         167P    238
110,0D0,-6.463601275211D1,-1.2D1,0D0,-3.639997499587D-1,-1.2D1;      169P    239
120,167,169,-6.283185307180D-2,3.204424506662D0;                     171P    240
508,4,0,139,40,1,0,0,139,41,0,0,0,139,31,1,0,0,139,42,1,0;           173P    241
510,171,1,0,173;                                                     175P    242
110,0D0,0D0,0D0,0D0,1D0,0D0;                                         177P    243
110,0D0,-6.463601275211D1,-1.2D1,0D0,-3.639997499587D-1,-1.2D1;      179P    244
120,177,179,3.078760800518D0,6.346017160251D0;                       181P    245
508,4,0,139,38,1,0,0,139,42,0,0,0,139,33,1,0,0,139,41,1,0;           183P    246
510,181,1,0,183;                                                     185P    247
110,0D0,-1.6D0,0D0,0D0,-6D-1,0D0;                                    187P    248
124,-9.919185523708D-4,1.329706471061D-2,-9.999110981321D-1,         189P    249
-1.813425409225D-1,9.972292168417D-1,7.439011411010D-2,0D0,          189P    250
-1.6D0,7.438350069D-2,-9.971405613015D-1,-1.333401036195D-2,         189P    251
1.359879093460D1;                                                    189P    252
100,0D0,0D0,0D0,1.6D0,0D0,-2.373874438864D-1,1.582291756120D0;       191P    253
120,187,191,-4.949744756061D-2,3.217758912181D0;                     193P    254
508,4,0,139,33,0,0,0,139,35,1,0,0,139,34,1,0,0,139,36,0,0;           195P    255
510,193,1,0,195;                                                     197P    256
110,0D0,-1.6D0,0D0,0D0,-6D-1,0D0;                                    199P    257
124,9.919185523708D-4,-1.329706471061D-2,9.999110981321D-1,          201P    258
1.813425409225D-1,9.972292168417D-1,7.439011411010D-2,0D0,           201P    259
-1.6D0,-7.438350069D-2,9.971405613015D-1,1.333401036195D-2,          201P    260
-1.359879093460D1;                                                   201P    261
100,0D0,0D0,0D0,1.6D0,0D0,-2.373874438864D-1,1.582291756120D0;       203P    262
120,199,203,-4.949744756061D-2,3.217758912181D0;                     205P    263
508,4,0,139,31,0,0,0,139,36,1,0,0,139,32,1,0,0,139,35,0,0;           207P    264
510,205,1,0,207;                                                     209P    265
128,1,1,1,1,0,0,1,0,0,-2.161599407846D1,-2.161599407846D1,           211P    266
2.161599407846D1,2.161599407846D1,-1.872D1,-1.872D1,1.872D1,         211P    267
1.872D1,1D0,1D0,1D0,1D0,1.872D1,0D0,2.161599407846D1,1.872D1,        211P    268
0D0,-2.161599407846D1,-1.872D1,0D0,2.161599407846D1,-1.872D1,        211P    269
0D0,-2.161599407846D1,-2.161599407846D1,2.161599407846D1,            211P    270
-1.872D1,1.872D1;                                                    211P    271
508,6,0,139,1,1,0,0,139,2,1,0,0,139,3,1,0,0,139,4,1,0,0,139,5,1,     213P    272
0,0,139,6,1,0;                                                       213P    273
508,2,0,139,32,0,0,0,139,34,0,0;                                     215P    274
510,211,2,0,213,215;                                                 217P    275
128,1,1,1,1,0,0,1,0,0,-4.156921938165D-1,-4.156921938165D-1,         219P    276
2.120030188464D1,2.120030188464D1,-3.000000000011D-1,                219P    277
-3.000000000011D-1,1.530000000006D1,1.530000000006D1,1D0,1D0,        219P    278
1D0,1D0,-1.836D1,-3.000000000011D-1,1.018445874850D1,3.6D-1,         219P    279
-3.000000000011D-1,2.099245578773D1,-1.836D1,1.530000000006D1,       219P    280
1.018445874850D1,3.6D-1,1.530000000006D1,2.099245578773D1,           219P    281
-4.156921938165D-1,2.120030188464D1,-3.000000000011D-1,              219P    282
1.530000000006D1;                                                    219P    283
508,5,0,139,13,1,0,0,139,14,1,0,0,139,26,0,0,0,139,1,0,0,0,139,      221P    284
25,1,0;                                                              221P    285
510,219,1,0,221;                                                     223P    286
110,0D0,2.539230484541D1,0D0,0D0,2.639230484541D1,0D0;               225P    287
110,2.088778179025D1,1.333273840604D1,0D0,1.789682790057D1,          227P    288
1.505956643938D1,0D0;                                                227P    289
120,225,227,-3.204424506469D0,6.283185285642D-2;                     229P    290
508,3,0,139,13,0,0,0,139,24,0,0,0,139,10,1,0;                        231P    291
510,229,1,0,231;                                                     233P    292
110,0D0,2.539230484541D1,0D0,0D0,2.639230484541D1,0D0;               235P    293
110,2.088778179025D1,1.333273840604D1,0D0,1.789682790057D1,          237P    294
1.505956643938D1,0D0;                                                237P    295
120,235,237,-3.204424506469D0,6.283185285642D-2;                     239P    296
508,3,0,139,15,0,0,0,139,14,0,0,0,139,11,1,0;                        241P    297
510,239,1,0,241;                                                     243P    298
110,0D0,2.539230484541D1,0D0,0D0,2.639230484541D1,0D0;               245P    299
110,2.088778179025D1,1.333273840604D1,0D0,1.789682790057D1,          247P    300
1.505956643938D1,0D0;                                                247P    301
120,245,247,-3.204424506469D0,6.283185285642D-2;                     249P    302
508,3,0,139,18,0,0,0,139,16,0,0,0,139,12,1,0;                        251P    303
510,249,1,0,251;                                                     253P    304
128,1,1,1,1,0,0,1,0,0,-4.156921938165D-1,-4.156921938165D-1,         255P    305
2.120030188464D1,2.120030188464D1,-3.000000000025D-1,                255P    306
-3.000000000025D-1,1.530000000013D1,1.530000000013D1,1D0,1D0,        255P    307
1D0,1D0,-1.8D1,-3.000000000025D-1,-1.080799703923D1,-1.8D1,          255P    308
-3.000000000025D-1,1.080799703923D1,-1.8D1,1.530000000013D1,         255P    309
-1.080799703923D1,-1.8D1,1.530000000013D1,1.080799703923D1,          255P    310
-4.156921938165D-1,2.120030188464D1,-3.000000000025D-1,              255P    311
1.530000000013D1;                                                    255P    312
508,5,0,139,23,1,0,0,139,24,1,0,0,139,25,0,0,0,139,6,0,0,0,139,      257P    313
30,1,0;                                                              257P    314
510,255,1,0,257;                                                     259P    315
110,0D0,2.539230484541D1,0D0,0D0,2.639230484541D1,0D0;               261P    316
110,2.088778179025D1,1.333273840604D1,0D0,1.789682790057D1,          263P    317
1.505956643938D1,0D0;                                                263P    318
120,261,263,-6.283185287946D-2,3.204424506446D0;                     265P    319
508,3,0,139,19,0,0,0,139,17,0,0,0,139,7,1,0;                         267P    320
510,265,1,0,267;                                                     269P    321
110,0D0,2.539230484541D1,0D0,0D0,2.639230484541D1,0D0;               271P    322
110,2.088778179025D1,1.333273840604D1,0D0,1.789682790057D1,          273P    323
1.505956643938D1,0D0;                                                273P    324
120,271,273,-6.283185287946D-2,3.204424506446D0;                     275P    325
508,3,0,139,21,0,0,0,139,20,0,0,0,139,8,1,0;                         277P    326
510,275,1,0,277;                                                     279P    327
110,0D0,2.539230484541D1,0D0,0D0,2.639230484541D1,0D0;               281P    328
110,2.088778179025D1,1.333273840604D1,0D0,1.789682790057D1,          283P    329
1.505956643938D1,0D0;                                                283P    330
120,281,283,-6.283185287946D-2,3.204424506446D0;                     285P    331
508,3,0,139,23,0,0,0,139,22,0,0,0,139,9,1,0;                         287P    332
510,285,1,0,287;                                                     289P    333
128,1,1,1,1,0,0,1,0,0,-4.156921938165D-1,-4.156921938165D-1,         291P    334
2.120030188464D1,2.120030188464D1,-3.000000001313D-1,                291P    335
-3.000000001313D-1,1.530000000669D1,1.530000000669D1,1D0,1D0,        291P    336
1D0,1D0,1.836D1,-3.000000001313D-1,-1.018445874850D1,-3.6D-1,        291P    337
-3.000000001313D-1,-2.099245578773D1,1.836D1,1.530000000669D1,       291P    338
-1.018445874850D1,-3.6D-1,1.530000000669D1,-2.099245578773D1,        291P    339
-4.156921938165D-1,2.120030188464D1,-3.000000001313D-1,              291P    340
1.530000000669D1;                                                    291P    341
508,5,0,139,19,1,0,0,139,20,1,0,0,139,29,0,0,0,139,4,0,0,0,139,      293P    342
28,1,0;                                                              293P    343
510,291,1,0,293;                                                     295P    344
128,1,1,1,1,0,0,1,0,0,-4.156921938165D-1,-4.156921938165D-1,         297P    345
2.120030188464D1,2.120030188464D1,-3.000000000011D-1,                297P    346
-3.000000000011D-1,1.530000000006D1,1.530000000006D1,1D0,1D0,        297P    347
1D0,1D0,3.6D-1,-3.000000000011D-1,-2.099245578773D1,-1.836D1,        297P    348
-3.000000000011D-1,-1.018445874850D1,3.6D-1,1.530000000006D1,        297P    349
-2.099245578773D1,-1.836D1,1.530000000006D1,-1.018445874850D1,       297P    350
-4.156921938165D-1,2.120030188464D1,-3.000000000011D-1,              297P    351
1.530000000006D1;                                                    297P    352
508,5,0,139,21,1,0,0,139,22,1,0,0,139,30,0,0,0,139,5,0,0,0,139,      299P    353
29,1,0;                                                              299P    354
510,297,1,0,299;                                                     301P    355
128,1,1,1,1,0,0,1,0,0,-4.156921938165D-1,-4.156921938165D-1,         303P    356
2.120030188464D1,2.120030188464D1,-3.000000000025D-1,                303P    357
-3.000000000025D-1,1.530000000013D1,1.530000000013D1,1D0,1D0,        303P    358
1D0,1D0,1.8D1,-3.000000000025D-1,1.080799703923D1,1.8D1,             303P    359
-3.000000000025D-1,-1.080799703923D1,1.8D1,1.530000000013D1,         303P    360
1.080799703923D1,1.8D1,1.530000000013D1,-1.080799703923D1,           303P    361
-4.156921938165D-1,2.120030188464D1,-3.000000000025D-1,              303P    362
1.530000000013D1;                                                    303P    363
508,5,0,139,17,1,0,0,139,28,0,0,0,139,3,0,0,0,139,27,1,0,0,139,      305P    364
18,1,0;                                                              305P    365
510,303,1,0,305;                                                     307P    366
128,1,1,1,1,0,0,1,0,0,-4.156921938165D-1,-4.156921938165D-1,         309P    367
2.120030188464D1,2.120030188464D1,-3.000000001400D-1,                309P    368
-3.000000001400D-1,1.530000000714D1,1.530000000714D1,1D0,1D0,        309P    369
1D0,1D0,-3.6D-1,-3.000000001400D-1,2.099245578773D1,1.836D1,         309P    370
-3.000000001400D-1,1.018445874850D1,-3.6D-1,1.530000000714D1,        309P    371
2.099245578773D1,1.836D1,1.530000000714D1,1.018445874850D1,          309P    372
-4.156921938165D-1,2.120030188464D1,-3.000000001400D-1,              309P    373
1.530000000714D1;                                                    309P    374
508,5,0,139,15,1,0,0,139,16,1,0,0,139,27,0,0,0,139,2,0,0,0,139,      311P    375
26,1,0;                                                              311P    376
510,309,1,0,311;                                                     313P    377
128,1,1,1,1,0,0,1,0,0,-1.873541826798D1,-1.873541826798D1,           315P    378
1.873541827006D1,1.873541827006D1,-1.872000000003D1,                 315P    379
-1.872000000003D1,1.872000000003D1,1.872000000003D1,1D0,1D0,1D0,     315P    380
1D0,1.872000000003D1,1.5D1,1.873541826798D1,1.872000000003D1,        315P    381
1.5D1,-1.873541827006D1,-1.872000000003D1,1.5D1,                     315P    382
1.873541826798D1,-1.872000000003D1,1.5D1,-1.873541827006D1,          315P    383
-1.873541826798D1,1.873541827006D1,-1.872000000003D1,                315P    384
1.872000000003D1;                                                    315P    385
508,6,0,139,7,0,0,0,139,12,0,0,0,139,11,0,0,0,139,10,0,0,0,139,      317P    386
9,0,0,0,139,8,0,0;                                                   317P    387
510,315,1,0,317;                                                     319P    388
514,21,145,0,155,1,165,1,175,1,185,1,197,0,209,0,217,0,223,1,        321P    389
233,1,243,1,253,1,259,1,269,1,279,1,289,1,295,1,301,1,307,1,313,     321P    390
1,319,1;                                                             321P    391
124,-1D0,0D0,0D0,0D0,0D0,0D0,-1D0,-6.5D1,0D0,-1D0,0D0,0D0;           323P    392
100,0D0,0D0,0D0,8.647D0,0D0,-8.647D0,0D0;                            325P    393
110,8.647D0,-6.5D1,0D0,8.647D0,-1.1D1,0D0;                           327P    394
124,1D0,0D0,0D0,0D0,0D0,0D0,-1D0,-6.5D1,0D0,1D0,0D0,0D0;             329P    395
100,0D0,0D0,0D0,8.647D0,0D0,-8.647D0,0D0;                            331P    396
110,-8.647D0,-6.5D1,0D0,-8.647D0,-1.1D1,0D0;                         333P    397
124,-1D0,0D0,0D0,0D0,0D0,0D0,1D0,-1.1D1,0D0,1D0,0D0,0D0;             335P    398
100,0D0,0D0,0D0,8.647D0,0D0,-8.647D0,0D0;                            337P    399
124,1D0,0D0,0D0,0D0,0D0,0D0,1D0,-1.1D1,0D0,-1D0,0D0,0D0;             339P    400
100,0D0,0D0,0D0,8.647D0,0D0,-8.647D0,0D0;                            341P    401
124,-1D0,0D0,0D0,0D0,0D0,0D0,1D0,-1.1D1,0D0,1D0,0D0,0D0;             343P    402
100,0D0,0D0,0D0,1.2D1,0D0,-1.2D1,0D0;                                345P    403
124,1D0,0D0,0D0,0D0,0D0,0D0,1D0,-1.1D1,0D0,-1D0,0D0,0D0;             347P    404
100,0D0,0D0,0D0,1.2D1,0D0,-1.2D1,0D0;                                349P    405
502,6,-8.647D0,-6.5D1,0D0,8.647D0,-6.5D1,0D0,-8.647D0,-1.1D1,        351P    406
0D0,8.647D0,-1.1D1,0D0,1.2D1,-1.1D1,0D0,-1.2D1,-1.1D1,0D0;           351P    407
504,8,331,351,1,351,2,325,351,2,351,1,337,351,3,351,4,341,351,4,     353P    408
351,3,333,351,1,351,3,327,351,2,351,4,345,351,5,351,6,349,351,6,     353P    409
351,5;                                                               353P    410
110,0D0,-6.5D1,0D0,0D0,-6.4D1,0D0;                                   355P    411
110,-8.647D0,-6.608D1,0D0,-8.647D0,-9.92D0,0D0;                      357P    412
120,355,357,3.078760800518D0,6.346017160251D0;                       359P    413
508,4,0,353,2,0,0,0,353,6,1,0,0,353,4,1,0,0,353,5,0,0;               361P    414
510,359,1,0,361;                                                     363P    415
110,0D0,-6.5D1,0D0,0D0,-6.4D1,0D0;                                   365P    416
110,-8.647D0,-6.608D1,0D0,-8.647D0,-9.92D0,0D0;                      367P    417
120,365,367,-6.283185307180D-2,3.204424506662D0;                     369P    418
508,4,0,353,1,0,0,0,353,5,1,0,0,353,3,1,0,0,353,6,0,0;               371P    419
510,369,1,0,371;                                                     373P    420
128,1,1,1,1,0,0,1,0,0,-1.249552902533D1,-1.249552902533D1,           375P    421
1.249552902533D1,1.249552902533D1,-1.248D1,-1.248D1,1.248D1,         375P    422
1.248D1,1D0,1D0,1D0,1D0,1.248D1,-1.1D1,-1.249552902533D1,            375P    423
1.248D1,-1.1D1,1.249552902533D1,-1.248D1,-1.1D1,                     375P    424
-1.249552902533D1,-1.248D1,-1.1D1,1.249552902533D1,                  375P    425
-1.249552902533D1,1.249552902533D1,-1.248D1,1.248D1;                 375P    426
508,2,0,353,7,0,0,0,353,8,0,0;                                       377P    427
508,2,0,353,3,0,0,0,353,4,0,0;                                       379P    428
510,375,2,0,377,379;                                                 381P    429
514,3,363,1,373,1,381,1;                                             383P    430
186,321,1,0;                                                         385P    431
S      1G      5D    386P    431                                        T      1
