ISO-10303-21;
HEADER;
FILE_DESCRIPTION((''),'2;1');
FILE_NAME('SROUB-M30X75-CSN_02_1101',
 '2011-09-17T',
 ('Vladimir Zima'),
 ('ZIMA-Engineering'),
 'ZIMA-CAD-3D',
 'ZIMA-CAD-3D',
 '');
FILE_SCHEMA(('CONFIG_CONTROL_DESIGN'));
ENDSEC;
DATA;
#1=CARTESIAN_POINT('',(0.E0,-7.499998327126E1,0.E0));
#2=DIRECTION('',(0.E0,-1.E0,0.E0));
#3=DIRECTION('',(0.E0,0.E0,-1.E0));
#4=AXIS2_PLACEMENT_3D('',#1,#2,#3);
#6=CARTESIAN_POINT('',(0.E0,-7.499998327126E1,7.727152251391E-14));
#7=DIRECTION('',(0.E0,-1.E0,0.E0));
#8=DIRECTION('',(0.E0,0.E0,1.E0));
#9=AXIS2_PLACEMENT_3D('',#6,#7,#8);
#11=DIRECTION('',(3.958203668118E-10,7.071058251006E-1,-7.071077372712E-1));
#12=VECTOR('',#11,2.262741700003E0);
#13=CARTESIAN_POINT('',(-5.582118946610E-9,-7.499998651754E1,
-1.339998651575E1));
#14=LINE('',#13,#12);
#15=DIRECTION('',(-3.958203856334E-10,7.071058251006E-1,7.071077372712E-1));
#16=VECTOR('',#15,2.262741700003E0);
#17=CARTESIAN_POINT('',(5.582120272837E-9,-7.499998651754E1,1.339998651575E1));
#18=LINE('',#17,#16);
#19=CARTESIAN_POINT('',(0.E0,-7.339999206414E1,0.E0));
#20=DIRECTION('',(0.E0,-1.E0,0.E0));
#21=DIRECTION('',(0.E0,0.E0,1.E0));
#22=AXIS2_PLACEMENT_3D('',#19,#20,#21);
#24=DIRECTION('',(-6.528265982707E-11,-1.E0,1.576704266053E-7));
#25=VECTOR('',#24,7.179998868077E1);
#26=CARTESIAN_POINT('',(8.145397198530E-13,-1.6E0,-1.5E1));
#27=LINE('',#26,#25);
#28=CARTESIAN_POINT('',(0.E0,-1.6E0,0.E0));
#29=DIRECTION('',(0.E0,1.E0,0.E0));
#30=DIRECTION('',(0.E0,0.E0,-1.E0));
#31=AXIS2_PLACEMENT_3D('',#28,#29,#30);
#33=CARTESIAN_POINT('',(0.E0,-7.339999206414E1,0.E0));
#34=DIRECTION('',(0.E0,-1.E0,0.E0));
#35=DIRECTION('',(0.E0,0.E0,-1.E0));
#36=AXIS2_PLACEMENT_3D('',#33,#34,#35);
#38=DIRECTION('',(6.528270890286E-11,-1.E0,-1.576704263579E-7));
#39=VECTOR('',#38,7.179998868077E1);
#40=CARTESIAN_POINT('',(-8.167797221990E-13,-1.6E0,1.5E1));
#41=LINE('',#40,#39);
#42=CARTESIAN_POINT('',(0.E0,-1.6E0,0.E0));
#43=DIRECTION('',(0.E0,1.E0,0.E0));
#44=DIRECTION('',(0.E0,0.E0,1.E0));
#45=AXIS2_PLACEMENT_3D('',#42,#43,#44);
#47=CARTESIAN_POINT('',(-2.985639513398E-11,-1.6E0,1.66E1));
#48=DIRECTION('',(1.E0,0.E0,1.798576912404E-12));
#49=DIRECTION('',(1.798576912404E-12,0.E0,-1.E0));
#50=AXIS2_PLACEMENT_3D('',#47,#48,#49);
#52=CARTESIAN_POINT('',(2.985417468793E-11,-1.6E0,-1.66E1));
#53=DIRECTION('',(-1.E0,0.E0,-1.798441603973E-12));
#54=DIRECTION('',(-1.798441603973E-12,0.E0,1.E0));
#55=AXIS2_PLACEMENT_3D('',#52,#53,#54);
#57=DIRECTION('',(8.660254037844E-1,0.E0,5.E-1));
#58=VECTOR('',#57,2.655811238272E1);
#59=CARTESIAN_POINT('',(-2.3E1,0.E0,1.327905619136E1));
#60=LINE('',#59,#58);
#61=DIRECTION('',(8.660254037844E-1,0.E0,-5.E-1));
#62=VECTOR('',#61,2.655811238272E1);
#63=CARTESIAN_POINT('',(0.E0,0.E0,2.655811238272E1));
#64=LINE('',#63,#62);
#65=DIRECTION('',(0.E0,0.E0,-1.E0));
#66=VECTOR('',#65,2.655811238272E1);
#67=CARTESIAN_POINT('',(2.3E1,0.E0,1.327905619136E1));
#68=LINE('',#67,#66);
#69=DIRECTION('',(-8.660254037844E-1,0.E0,-5.E-1));
#70=VECTOR('',#69,2.655811238272E1);
#71=CARTESIAN_POINT('',(2.3E1,0.E0,-1.327905619136E1));
#72=LINE('',#71,#70);
#73=DIRECTION('',(-8.660254037844E-1,0.E0,5.E-1));
#74=VECTOR('',#73,2.655811238272E1);
#75=CARTESIAN_POINT('',(0.E0,0.E0,-2.655811238272E1));
#76=LINE('',#75,#74);
#77=DIRECTION('',(0.E0,0.E0,1.E0));
#78=VECTOR('',#77,2.655811238272E1);
#79=CARTESIAN_POINT('',(-2.3E1,0.E0,-1.327905619136E1));
#80=LINE('',#79,#78);
#81=CARTESIAN_POINT('',(0.E0,-1.354472090043E-14,0.E0));
#82=DIRECTION('',(0.E0,1.E0,0.E0));
#83=DIRECTION('',(0.E0,0.E0,-1.E0));
#84=AXIS2_PLACEMENT_3D('',#81,#82,#83);
#86=CARTESIAN_POINT('',(0.E0,-1.354472090043E-14,0.E0));
#87=DIRECTION('',(0.E0,1.E0,0.E0));
#88=DIRECTION('',(0.E0,0.E0,1.E0));
#89=AXIS2_PLACEMENT_3D('',#86,#87,#88);
#91=CARTESIAN_POINT('',(-2.3E1,1.694572285803E1,1.327905619136E1));
#92=CARTESIAN_POINT('',(-2.218113864827E1,1.721867664194E1,1.375182601321E1));
#93=CARTESIAN_POINT('',(-2.057288756807E1,1.771049642962E1,1.468035020729E1));
#94=CARTESIAN_POINT('',(-1.827787434807E1,1.827669931384E1,1.600537670765E1));
#95=CARTESIAN_POINT('',(-1.601113889662E1,1.869021003236E1,1.731407703073E1));
#96=CARTESIAN_POINT('',(-1.375517980982E1,1.894306899287E1,1.861655561677E1));
#97=CARTESIAN_POINT('',(-1.225131557021E1,1.899999999994E1,1.948481204034E1));
#98=CARTESIAN_POINT('',(-1.150000000130E1,1.900000000002E1,1.991858428629E1));
#100=CARTESIAN_POINT('',(-1.150000000130E1,1.900000000002E1,1.991858428629E1));
#101=CARTESIAN_POINT('',(-1.074843989763E1,1.900000000002E1,2.035249771446E1));
#102=CARTESIAN_POINT('',(-9.244152727611E0,1.894302739258E1,2.122099831700E1));
#103=CARTESIAN_POINT('',(-6.987901030469E0,1.869008086630E1,2.252364584171E1));
#104=CARTESIAN_POINT('',(-4.720784518070E0,1.827639587654E1,2.383256617043E1));
#105=CARTESIAN_POINT('',(-2.427185682134E0,1.771049587661E1,2.515677607577E1));
#106=CARTESIAN_POINT('',(-8.189211272791E-1,1.721869656712E1,2.608530804944E1));
#107=CARTESIAN_POINT('',(0.E0,1.694572285803E1,2.655811238272E1));
#109=DIRECTION('',(0.E0,1.E0,0.E0));
#110=VECTOR('',#109,1.694572285803E1);
#111=CARTESIAN_POINT('',(-2.3E1,0.E0,1.327905619136E1));
#112=LINE('',#111,#110);
#113=CARTESIAN_POINT('',(-2.3E1,1.694572285803E1,-1.327905619136E1));
#114=CARTESIAN_POINT('',(-2.3E1,1.721630806146E1,-1.234172155110E1));
#115=CARTESIAN_POINT('',(-2.3E1,1.770538858127E1,-1.049704174716E1));
#116=CARTESIAN_POINT('',(-2.3E1,1.827259926627E1,-7.848512706341E0));
#117=CARTESIAN_POINT('',(-2.3E1,1.868782399748E1,-5.228285533709E0));
#118=CARTESIAN_POINT('',(-2.3E1,1.894245861974E1,-2.616420167358E0));
#119=CARTESIAN_POINT('',(-2.300000000001E1,1.899999999994E1,
-8.721652087601E-1));
#120=CARTESIAN_POINT('',(-2.300000000001E1,1.900000000004E1,
-3.049186458892E-10));
#122=CARTESIAN_POINT('',(-2.300000000001E1,1.900000000004E1,
-3.049186458892E-10));
#123=CARTESIAN_POINT('',(-2.300000000001E1,1.899999999996E1,8.776334558372E-1));
#124=CARTESIAN_POINT('',(-2.3E1,1.894175889702E1,2.631345278944E0));
#125=CARTESIAN_POINT('',(-2.3E1,1.868460353352E1,5.254513213332E0));
#126=CARTESIAN_POINT('',(-2.3E1,1.826695936390E1,7.878494126615E0));
#127=CARTESIAN_POINT('',(-2.3E1,1.769938633569E1,1.052097509879E1));
#128=CARTESIAN_POINT('',(-2.3E1,1.721358566003E1,1.235115222631E1));
#129=CARTESIAN_POINT('',(-2.3E1,1.694572285803E1,1.327905619136E1));
#131=DIRECTION('',(0.E0,1.E0,0.E0));
#132=VECTOR('',#131,1.694572285803E1);
#133=CARTESIAN_POINT('',(-2.3E1,0.E0,-1.327905619136E1));
#134=LINE('',#133,#132);
#135=CARTESIAN_POINT('',(2.3E1,1.694572285803E1,-1.327905619136E1));
#136=CARTESIAN_POINT('',(2.218113864827E1,1.721867664194E1,-1.375182601321E1));
#137=CARTESIAN_POINT('',(2.057288756807E1,1.771049642962E1,-1.468035020729E1));
#138=CARTESIAN_POINT('',(1.827787434807E1,1.827669931384E1,-1.600537670765E1));
#139=CARTESIAN_POINT('',(1.601113889662E1,1.869021003236E1,-1.731407703073E1));
#140=CARTESIAN_POINT('',(1.375517980982E1,1.894306899287E1,-1.861655561677E1));
#141=CARTESIAN_POINT('',(1.225131557021E1,1.899999999994E1,-1.948481204034E1));
#142=CARTESIAN_POINT('',(1.150000000130E1,1.900000000002E1,-1.991858428629E1));
#144=CARTESIAN_POINT('',(1.150000000130E1,1.900000000002E1,-1.991858428629E1));
#145=CARTESIAN_POINT('',(1.074843989763E1,1.900000000002E1,-2.035249771446E1));
#146=CARTESIAN_POINT('',(9.244152727611E0,1.894302739258E1,-2.122099831700E1));
#147=CARTESIAN_POINT('',(6.987901030469E0,1.869008086630E1,-2.252364584171E1));
#148=CARTESIAN_POINT('',(4.720784518070E0,1.827639587654E1,-2.383256617043E1));
#149=CARTESIAN_POINT('',(2.427185682134E0,1.771049587661E1,-2.515677607577E1));
#150=CARTESIAN_POINT('',(8.189211272791E-1,1.721869656712E1,-2.608530804944E1));
#151=CARTESIAN_POINT('',(0.E0,1.694572285803E1,-2.655811238272E1));
#153=DIRECTION('',(0.E0,1.E0,0.E0));
#154=VECTOR('',#153,1.694572285803E1);
#155=CARTESIAN_POINT('',(2.3E1,0.E0,-1.327905619136E1));
#156=LINE('',#155,#154);
#157=CARTESIAN_POINT('',(0.E0,1.694572285803E1,-2.655811238272E1));
#158=CARTESIAN_POINT('',(-8.188613517530E-1,1.721867664195E1,
-2.608534256086E1));
#159=CARTESIAN_POINT('',(-2.427112432001E0,1.771049642964E1,-2.515681836675E1));
#160=CARTESIAN_POINT('',(-4.722125652067E0,1.827669931387E1,-2.383179186635E1));
#161=CARTESIAN_POINT('',(-6.988861103588E0,1.869021003239E1,-2.252309154324E1));
#162=CARTESIAN_POINT('',(-9.244820190445E0,1.894306899289E1,-2.122061295716E1));
#163=CARTESIAN_POINT('',(-1.074868443012E1,1.899999999996E1,-2.035235653357E1));
#164=CARTESIAN_POINT('',(-1.149999999887E1,1.900000000002E1,-1.991858428770E1));
#166=CARTESIAN_POINT('',(-1.149999999887E1,1.900000000002E1,-1.991858428770E1));
#167=CARTESIAN_POINT('',(-1.225156010255E1,1.900000000002E1,-1.948467085953E1));
#168=CARTESIAN_POINT('',(-1.375584727231E1,1.894302739258E1,-1.861617025712E1));
#169=CARTESIAN_POINT('',(-1.601209896955E1,1.869008086630E1,-1.731352273236E1));
#170=CARTESIAN_POINT('',(-1.827921548192E1,1.827639587654E1,-1.600460240366E1));
#171=CARTESIAN_POINT('',(-2.057281431787E1,1.771049587661E1,-1.468039249831E1));
#172=CARTESIAN_POINT('',(-2.218107887272E1,1.721869656712E1,-1.375186052464E1));
#173=CARTESIAN_POINT('',(-2.3E1,1.694572285803E1,-1.327905619136E1));
#175=DIRECTION('',(0.E0,1.E0,0.E0));
#176=VECTOR('',#175,1.694572285803E1);
#177=CARTESIAN_POINT('',(0.E0,0.E0,-2.655811238272E1));
#178=LINE('',#177,#176);
#179=CARTESIAN_POINT('',(2.300000000001E1,1.900000000004E1,3.049315855357E-10));
#180=CARTESIAN_POINT('',(2.300000000001E1,1.899999999996E1,-8.776334558372E-1));
#181=CARTESIAN_POINT('',(2.3E1,1.894175889702E1,-2.631345278944E0));
#182=CARTESIAN_POINT('',(2.3E1,1.868460353352E1,-5.254513213332E0));
#183=CARTESIAN_POINT('',(2.3E1,1.826695936390E1,-7.878494126615E0));
#184=CARTESIAN_POINT('',(2.3E1,1.769938633569E1,-1.052097509879E1));
#185=CARTESIAN_POINT('',(2.3E1,1.721358566003E1,-1.235115222631E1));
#186=CARTESIAN_POINT('',(2.3E1,1.694572285803E1,-1.327905619136E1));
#188=DIRECTION('',(0.E0,1.E0,0.E0));
#189=VECTOR('',#188,1.694572285803E1);
#190=CARTESIAN_POINT('',(2.3E1,0.E0,1.327905619136E1));
#191=LINE('',#190,#189);
#192=CARTESIAN_POINT('',(2.3E1,1.694572285803E1,1.327905619136E1));
#193=CARTESIAN_POINT('',(2.3E1,1.721630806146E1,1.234172155110E1));
#194=CARTESIAN_POINT('',(2.3E1,1.770538858127E1,1.049704174716E1));
#195=CARTESIAN_POINT('',(2.3E1,1.827259926627E1,7.848512706341E0));
#196=CARTESIAN_POINT('',(2.3E1,1.868782399748E1,5.228285533709E0));
#197=CARTESIAN_POINT('',(2.3E1,1.894245861974E1,2.616420167358E0));
#198=CARTESIAN_POINT('',(2.300000000001E1,1.899999999994E1,8.721652087601E-1));
#199=CARTESIAN_POINT('',(2.300000000001E1,1.900000000004E1,3.049315855357E-10));
#201=CARTESIAN_POINT('',(0.E0,1.694572285803E1,2.655811238272E1));
#202=CARTESIAN_POINT('',(8.188613517531E-1,1.721867664195E1,2.608534256086E1));
#203=CARTESIAN_POINT('',(2.427112432001E0,1.771049642964E1,2.515681836675E1));
#204=CARTESIAN_POINT('',(4.722125652067E0,1.827669931387E1,2.383179186635E1));
#205=CARTESIAN_POINT('',(6.988861103588E0,1.869021003239E1,2.252309154324E1));
#206=CARTESIAN_POINT('',(9.244820190445E0,1.894306899289E1,2.122061295716E1));
#207=CARTESIAN_POINT('',(1.074868443011E1,1.899999999996E1,2.035235653357E1));
#208=CARTESIAN_POINT('',(1.149999999887E1,1.900000000002E1,1.991858428770E1));
#210=CARTESIAN_POINT('',(1.149999999887E1,1.900000000002E1,1.991858428770E1));
#211=CARTESIAN_POINT('',(1.225156010255E1,1.900000000002E1,1.948467085953E1));
#212=CARTESIAN_POINT('',(1.375584727231E1,1.894302739258E1,1.861617025712E1));
#213=CARTESIAN_POINT('',(1.601209896955E1,1.869008086630E1,1.731352273236E1));
#214=CARTESIAN_POINT('',(1.827921548192E1,1.827639587654E1,1.600460240366E1));
#215=CARTESIAN_POINT('',(2.057281431787E1,1.771049587661E1,1.468039249831E1));
#216=CARTESIAN_POINT('',(2.218107887272E1,1.721869656712E1,1.375186052464E1));
#217=CARTESIAN_POINT('',(2.3E1,1.694572285803E1,1.327905619136E1));
#219=DIRECTION('',(0.E0,1.E0,0.E0));
#220=VECTOR('',#219,1.694572285803E1);
#221=CARTESIAN_POINT('',(0.E0,0.E0,2.655811238272E1));
#222=LINE('',#221,#220);
#223=CARTESIAN_POINT('',(0.E0,1.9E1,0.E0));
#224=DIRECTION('',(0.E0,1.E0,0.E0));
#225=DIRECTION('',(1.E0,0.E0,0.E0));
#226=AXIS2_PLACEMENT_3D('',#223,#224,#225);
#228=CARTESIAN_POINT('',(0.E0,1.9E1,0.E0));
#229=DIRECTION('',(0.E0,1.E0,0.E0));
#230=DIRECTION('',(4.999999999916E-1,0.E0,8.660254037893E-1));
#231=AXIS2_PLACEMENT_3D('',#228,#229,#230);
#233=CARTESIAN_POINT('',(0.E0,1.9E1,0.E0));
#234=DIRECTION('',(0.E0,1.E0,0.E0));
#235=DIRECTION('',(-5.000000000087E-1,0.E0,8.660254037794E-1));
#236=AXIS2_PLACEMENT_3D('',#233,#234,#235);
#238=CARTESIAN_POINT('',(0.E0,1.9E1,0.E0));
#239=DIRECTION('',(0.E0,1.E0,0.E0));
#240=DIRECTION('',(-1.E0,0.E0,0.E0));
#241=AXIS2_PLACEMENT_3D('',#238,#239,#240);
#243=CARTESIAN_POINT('',(0.E0,1.9E1,0.E0));
#244=DIRECTION('',(0.E0,1.E0,0.E0));
#245=DIRECTION('',(-4.999999999916E-1,0.E0,-8.660254037893E-1));
#246=AXIS2_PLACEMENT_3D('',#243,#244,#245);
#248=CARTESIAN_POINT('',(0.E0,1.9E1,0.E0));
#249=DIRECTION('',(0.E0,1.E0,0.E0));
#250=DIRECTION('',(5.000000000087E-1,0.E0,-8.660254037794E-1));
#251=AXIS2_PLACEMENT_3D('',#248,#249,#250);
#253=CARTESIAN_POINT('',(-2.3E1,0.E0,1.327905619136E1));
#254=CARTESIAN_POINT('',(0.E0,0.E0,2.655811238272E1));
#255=VERTEX_POINT('',#253);
#256=VERTEX_POINT('',#254);
#257=CARTESIAN_POINT('',(2.3E1,0.E0,1.327905619136E1));
#258=VERTEX_POINT('',#257);
#259=CARTESIAN_POINT('',(2.3E1,0.E0,-1.327905619136E1));
#260=VERTEX_POINT('',#259);
#261=CARTESIAN_POINT('',(0.E0,0.E0,-2.655811238272E1));
#262=VERTEX_POINT('',#261);
#263=CARTESIAN_POINT('',(-2.3E1,0.E0,-1.327905619136E1));
#264=VERTEX_POINT('',#263);
#265=CARTESIAN_POINT('',(2.3E1,1.9E1,0.E0));
#266=CARTESIAN_POINT('',(1.150000000020E1,1.9E1,-1.991858428693E1));
#267=VERTEX_POINT('',#265);
#268=VERTEX_POINT('',#266);
#269=CARTESIAN_POINT('',(-1.149999999981E1,1.9E1,-1.991858428715E1));
#270=VERTEX_POINT('',#269);
#271=CARTESIAN_POINT('',(-2.3E1,1.9E1,0.E0));
#272=VERTEX_POINT('',#271);
#273=CARTESIAN_POINT('',(-1.150000000020E1,1.9E1,1.991858428693E1));
#274=VERTEX_POINT('',#273);
#275=CARTESIAN_POINT('',(1.149999999981E1,1.9E1,1.991858428715E1));
#276=VERTEX_POINT('',#275);
#277=VERTEX_POINT('',#91);
#278=VERTEX_POINT('',#107);
#279=VERTEX_POINT('',#217);
#280=VERTEX_POINT('',#186);
#281=VERTEX_POINT('',#151);
#282=VERTEX_POINT('',#173);
#283=CARTESIAN_POINT('',(0.E0,-1.6E0,-1.5E1));
#284=CARTESIAN_POINT('',(0.E0,-1.6E0,1.5E1));
#285=VERTEX_POINT('',#283);
#286=VERTEX_POINT('',#284);
#287=CARTESIAN_POINT('',(0.E0,-1.354472090043E-14,-1.659999979250E1));
#288=CARTESIAN_POINT('',(0.E0,-1.354472090043E-14,1.659999979250E1));
#289=VERTEX_POINT('',#287);
#290=VERTEX_POINT('',#288);
#291=CARTESIAN_POINT('',(0.E0,-7.499998327126E1,-1.339997627869E1));
#292=CARTESIAN_POINT('',(0.E0,-7.499998327126E1,1.339997627869E1));
#293=VERTEX_POINT('',#291);
#294=VERTEX_POINT('',#292);
#295=CARTESIAN_POINT('',(0.E0,-7.339999206414E1,-1.5E1));
#296=CARTESIAN_POINT('',(0.E0,-7.339999206414E1,1.5E1));
#297=VERTEX_POINT('',#295);
#298=VERTEX_POINT('',#296);
#299=CARTESIAN_POINT('',(0.E0,-7.5E1,0.E0));
#300=DIRECTION('',(0.E0,1.E0,0.E0));
#301=DIRECTION('',(0.E0,0.E0,-1.E0));
#302=AXIS2_PLACEMENT_3D('',#299,#300,#301);
#303=PLANE('',#302);
#305=ORIENTED_EDGE('',*,*,#304,.F.);
#307=ORIENTED_EDGE('',*,*,#306,.F.);
#308=EDGE_LOOP('',(#305,#307));
#309=FACE_OUTER_BOUND('',#308,.F.);
#310=ADVANCED_FACE('',(#309),#303,.F.);
#311=CARTESIAN_POINT('',(0.E0,-7.419997617018E1,0.E0));
#312=DIRECTION('',(0.E0,1.E0,0.E0));
#313=DIRECTION('',(0.E0,0.E0,-1.E0));
#314=AXIS2_PLACEMENT_3D('',#311,#312,#313);
#315=CONICAL_SURFACE('',#314,1.419998096482E1,4.499991352172E1);
#316=ORIENTED_EDGE('',*,*,#304,.T.);
#318=ORIENTED_EDGE('',*,*,#317,.T.);
#320=ORIENTED_EDGE('',*,*,#319,.F.);
#322=ORIENTED_EDGE('',*,*,#321,.F.);
#323=EDGE_LOOP('',(#316,#318,#320,#322));
#324=FACE_OUTER_BOUND('',#323,.F.);
#325=ADVANCED_FACE('',(#324),#315,.T.);
#326=CARTESIAN_POINT('',(0.E0,-7.419997617018E1,7.727152251391E-14));
#327=DIRECTION('',(0.E0,1.E0,0.E0));
#328=DIRECTION('',(0.E0,0.E0,-1.E0));
#329=AXIS2_PLACEMENT_3D('',#326,#327,#328);
#330=CONICAL_SURFACE('',#329,1.419998096482E1,4.499991352172E1);
#331=ORIENTED_EDGE('',*,*,#306,.T.);
#332=ORIENTED_EDGE('',*,*,#321,.T.);
#334=ORIENTED_EDGE('',*,*,#333,.F.);
#335=ORIENTED_EDGE('',*,*,#317,.F.);
#336=EDGE_LOOP('',(#331,#332,#334,#335));
#337=FACE_OUTER_BOUND('',#336,.F.);
#338=ADVANCED_FACE('',(#337),#330,.T.);
#339=CARTESIAN_POINT('',(0.E0,0.E0,0.E0));
#340=DIRECTION('',(0.E0,1.E0,0.E0));
#341=DIRECTION('',(0.E0,0.E0,-1.E0));
#342=AXIS2_PLACEMENT_3D('',#339,#340,#341);
#343=CYLINDRICAL_SURFACE('',#342,1.5E1);
#344=ORIENTED_EDGE('',*,*,#333,.T.);
#346=ORIENTED_EDGE('',*,*,#345,.F.);
#348=ORIENTED_EDGE('',*,*,#347,.T.);
#350=ORIENTED_EDGE('',*,*,#349,.T.);
#351=EDGE_LOOP('',(#344,#346,#348,#350));
#352=FACE_OUTER_BOUND('',#351,.F.);
#353=ADVANCED_FACE('',(#352),#343,.T.);
#354=CARTESIAN_POINT('',(0.E0,0.E0,0.E0));
#355=DIRECTION('',(0.E0,1.E0,0.E0));
#356=DIRECTION('',(0.E0,0.E0,-1.E0));
#357=AXIS2_PLACEMENT_3D('',#354,#355,#356);
#358=CYLINDRICAL_SURFACE('',#357,1.5E1);
#359=ORIENTED_EDGE('',*,*,#319,.T.);
#360=ORIENTED_EDGE('',*,*,#349,.F.);
#362=ORIENTED_EDGE('',*,*,#361,.T.);
#363=ORIENTED_EDGE('',*,*,#345,.T.);
#364=EDGE_LOOP('',(#359,#360,#362,#363));
#365=FACE_OUTER_BOUND('',#364,.F.);
#366=ADVANCED_FACE('',(#365),#358,.T.);
#367=CARTESIAN_POINT('',(0.E0,-1.6E0,0.E0));
#368=DIRECTION('',(0.E0,1.E0,0.E0));
#369=DIRECTION('',(-1.292901629206E-2,0.E0,9.999164167758E-1));
#370=AXIS2_PLACEMENT_3D('',#367,#368,#369);
#371=TOROIDAL_SURFACE('',#370,1.66E1,1.6E0);
#372=ORIENTED_EDGE('',*,*,#361,.F.);
#374=ORIENTED_EDGE('',*,*,#373,.T.);
#376=ORIENTED_EDGE('',*,*,#375,.T.);
#378=ORIENTED_EDGE('',*,*,#377,.F.);
#379=EDGE_LOOP('',(#372,#374,#376,#378));
#380=FACE_OUTER_BOUND('',#379,.F.);
#381=ADVANCED_FACE('',(#380),#371,.F.);
#382=CARTESIAN_POINT('',(0.E0,-1.6E0,0.E0));
#383=DIRECTION('',(0.E0,1.E0,0.E0));
#384=DIRECTION('',(1.292901629206E-2,0.E0,-9.999164167758E-1));
#385=AXIS2_PLACEMENT_3D('',#382,#383,#384);
#386=TOROIDAL_SURFACE('',#385,1.66E1,1.6E0);
#387=ORIENTED_EDGE('',*,*,#347,.F.);
#388=ORIENTED_EDGE('',*,*,#377,.T.);
#390=ORIENTED_EDGE('',*,*,#389,.T.);
#391=ORIENTED_EDGE('',*,*,#373,.F.);
#392=EDGE_LOOP('',(#387,#388,#390,#391));
#393=FACE_OUTER_BOUND('',#392,.F.);
#394=ADVANCED_FACE('',(#393),#386,.F.);
#395=CARTESIAN_POINT('',(0.E0,0.E0,0.E0));
#396=DIRECTION('',(0.E0,1.E0,0.E0));
#397=DIRECTION('',(0.E0,0.E0,-1.E0));
#398=AXIS2_PLACEMENT_3D('',#395,#396,#397);
#399=PLANE('',#398);
#401=ORIENTED_EDGE('',*,*,#400,.T.);
#403=ORIENTED_EDGE('',*,*,#402,.T.);
#405=ORIENTED_EDGE('',*,*,#404,.T.);
#407=ORIENTED_EDGE('',*,*,#406,.T.);
#409=ORIENTED_EDGE('',*,*,#408,.T.);
#411=ORIENTED_EDGE('',*,*,#410,.T.);
#412=EDGE_LOOP('',(#401,#403,#405,#407,#409,#411));
#413=FACE_OUTER_BOUND('',#412,.F.);
#414=ORIENTED_EDGE('',*,*,#389,.F.);
#415=ORIENTED_EDGE('',*,*,#375,.F.);
#416=EDGE_LOOP('',(#414,#415));
#417=FACE_BOUND('',#416,.F.);
#418=ADVANCED_FACE('',(#413,#417),#399,.F.);
#419=CARTESIAN_POINT('',(-2.3E1,0.E0,1.327905619136E1));
#420=DIRECTION('',(-5.E-1,0.E0,8.660254037844E-1));
#421=DIRECTION('',(8.660254037844E-1,0.E0,5.E-1));
#422=AXIS2_PLACEMENT_3D('',#419,#420,#421);
#423=PLANE('',#422);
#425=ORIENTED_EDGE('',*,*,#424,.T.);
#427=ORIENTED_EDGE('',*,*,#426,.T.);
#429=ORIENTED_EDGE('',*,*,#428,.F.);
#430=ORIENTED_EDGE('',*,*,#400,.F.);
#432=ORIENTED_EDGE('',*,*,#431,.T.);
#433=EDGE_LOOP('',(#425,#427,#429,#430,#432));
#434=FACE_OUTER_BOUND('',#433,.F.);
#435=ADVANCED_FACE('',(#434),#423,.T.);
#436=CARTESIAN_POINT('',(0.E0,1.797286142901E1,0.E0));
#437=DIRECTION('',(0.E0,-1.E0,0.E0));
#438=DIRECTION('',(-1.E0,0.E0,0.E0));
#439=AXIS2_PLACEMENT_3D('',#436,#437,#438);
#440=CONICAL_SURFACE('',#439,2.477905619136E1,6.E1);
#441=ORIENTED_EDGE('',*,*,#424,.F.);
#443=ORIENTED_EDGE('',*,*,#442,.F.);
#445=ORIENTED_EDGE('',*,*,#444,.T.);
#446=EDGE_LOOP('',(#441,#443,#445));
#447=FACE_OUTER_BOUND('',#446,.F.);
#448=ADVANCED_FACE('',(#447),#440,.T.);
#449=CARTESIAN_POINT('',(0.E0,1.797286142901E1,0.E0));
#450=DIRECTION('',(0.E0,-1.E0,0.E0));
#451=DIRECTION('',(-1.E0,0.E0,0.E0));
#452=AXIS2_PLACEMENT_3D('',#449,#450,#451);
#453=CONICAL_SURFACE('',#452,2.477905619136E1,6.E1);
#455=ORIENTED_EDGE('',*,*,#454,.F.);
#456=ORIENTED_EDGE('',*,*,#426,.F.);
#458=ORIENTED_EDGE('',*,*,#457,.T.);
#459=EDGE_LOOP('',(#455,#456,#458));
#460=FACE_OUTER_BOUND('',#459,.F.);
#461=ADVANCED_FACE('',(#460),#453,.T.);
#462=CARTESIAN_POINT('',(0.E0,1.797286142901E1,0.E0));
#463=DIRECTION('',(0.E0,-1.E0,0.E0));
#464=DIRECTION('',(-1.E0,0.E0,0.E0));
#465=AXIS2_PLACEMENT_3D('',#462,#463,#464);
#466=CONICAL_SURFACE('',#465,2.477905619136E1,6.E1);
#468=ORIENTED_EDGE('',*,*,#467,.F.);
#470=ORIENTED_EDGE('',*,*,#469,.F.);
#472=ORIENTED_EDGE('',*,*,#471,.T.);
#473=EDGE_LOOP('',(#468,#470,#472));
#474=FACE_OUTER_BOUND('',#473,.F.);
#475=ADVANCED_FACE('',(#474),#466,.T.);
#476=CARTESIAN_POINT('',(-2.3E1,0.E0,-1.327905619136E1));
#477=DIRECTION('',(-1.E0,0.E0,0.E0));
#478=DIRECTION('',(0.E0,0.E0,1.E0));
#479=AXIS2_PLACEMENT_3D('',#476,#477,#478);
#480=PLANE('',#479);
#482=ORIENTED_EDGE('',*,*,#481,.T.);
#483=ORIENTED_EDGE('',*,*,#442,.T.);
#484=ORIENTED_EDGE('',*,*,#431,.F.);
#485=ORIENTED_EDGE('',*,*,#410,.F.);
#487=ORIENTED_EDGE('',*,*,#486,.T.);
#488=EDGE_LOOP('',(#482,#483,#484,#485,#487));
#489=FACE_OUTER_BOUND('',#488,.F.);
#490=ADVANCED_FACE('',(#489),#480,.T.);
#491=CARTESIAN_POINT('',(0.E0,1.797286142901E1,0.E0));
#492=DIRECTION('',(0.E0,-1.E0,0.E0));
#493=DIRECTION('',(-1.E0,0.E0,0.E0));
#494=AXIS2_PLACEMENT_3D('',#491,#492,#493);
#495=CONICAL_SURFACE('',#494,2.477905619136E1,6.E1);
#497=ORIENTED_EDGE('',*,*,#496,.F.);
#499=ORIENTED_EDGE('',*,*,#498,.F.);
#501=ORIENTED_EDGE('',*,*,#500,.T.);
#502=EDGE_LOOP('',(#497,#499,#501));
#503=FACE_OUTER_BOUND('',#502,.F.);
#504=ADVANCED_FACE('',(#503),#495,.T.);
#505=CARTESIAN_POINT('',(0.E0,1.797286142901E1,0.E0));
#506=DIRECTION('',(0.E0,-1.E0,0.E0));
#507=DIRECTION('',(-1.E0,0.E0,0.E0));
#508=AXIS2_PLACEMENT_3D('',#505,#506,#507);
#509=CONICAL_SURFACE('',#508,2.477905619136E1,6.E1);
#511=ORIENTED_EDGE('',*,*,#510,.F.);
#513=ORIENTED_EDGE('',*,*,#512,.F.);
#515=ORIENTED_EDGE('',*,*,#514,.T.);
#516=EDGE_LOOP('',(#511,#513,#515));
#517=FACE_OUTER_BOUND('',#516,.F.);
#518=ADVANCED_FACE('',(#517),#509,.T.);
#519=CARTESIAN_POINT('',(0.E0,1.797286142901E1,0.E0));
#520=DIRECTION('',(0.E0,-1.E0,0.E0));
#521=DIRECTION('',(-1.E0,0.E0,0.E0));
#522=AXIS2_PLACEMENT_3D('',#519,#520,#521);
#523=CONICAL_SURFACE('',#522,2.477905619136E1,6.E1);
#524=ORIENTED_EDGE('',*,*,#481,.F.);
#526=ORIENTED_EDGE('',*,*,#525,.F.);
#528=ORIENTED_EDGE('',*,*,#527,.T.);
#529=EDGE_LOOP('',(#524,#526,#528));
#530=FACE_OUTER_BOUND('',#529,.F.);
#531=ADVANCED_FACE('',(#530),#523,.T.);
#532=CARTESIAN_POINT('',(2.3E1,0.E0,-1.327905619136E1));
#533=DIRECTION('',(5.E-1,0.E0,-8.660254037844E-1));
#534=DIRECTION('',(-8.660254037844E-1,0.E0,-5.E-1));
#535=AXIS2_PLACEMENT_3D('',#532,#533,#534);
#536=PLANE('',#535);
#537=ORIENTED_EDGE('',*,*,#496,.T.);
#538=ORIENTED_EDGE('',*,*,#512,.T.);
#540=ORIENTED_EDGE('',*,*,#539,.F.);
#541=ORIENTED_EDGE('',*,*,#406,.F.);
#543=ORIENTED_EDGE('',*,*,#542,.T.);
#544=EDGE_LOOP('',(#537,#538,#540,#541,#543));
#545=FACE_OUTER_BOUND('',#544,.F.);
#546=ADVANCED_FACE('',(#545),#536,.T.);
#547=CARTESIAN_POINT('',(0.E0,0.E0,-2.655811238272E1));
#548=DIRECTION('',(-5.E-1,0.E0,-8.660254037844E-1));
#549=DIRECTION('',(-8.660254037844E-1,0.E0,5.E-1));
#550=AXIS2_PLACEMENT_3D('',#547,#548,#549);
#551=PLANE('',#550);
#552=ORIENTED_EDGE('',*,*,#510,.T.);
#553=ORIENTED_EDGE('',*,*,#525,.T.);
#554=ORIENTED_EDGE('',*,*,#486,.F.);
#555=ORIENTED_EDGE('',*,*,#408,.F.);
#556=ORIENTED_EDGE('',*,*,#539,.T.);
#557=EDGE_LOOP('',(#552,#553,#554,#555,#556));
#558=FACE_OUTER_BOUND('',#557,.F.);
#559=ADVANCED_FACE('',(#558),#551,.T.);
#560=CARTESIAN_POINT('',(2.3E1,0.E0,1.327905619136E1));
#561=DIRECTION('',(1.E0,0.E0,0.E0));
#562=DIRECTION('',(0.E0,0.E0,-1.E0));
#563=AXIS2_PLACEMENT_3D('',#560,#561,#562);
#564=PLANE('',#563);
#565=ORIENTED_EDGE('',*,*,#498,.T.);
#566=ORIENTED_EDGE('',*,*,#542,.F.);
#567=ORIENTED_EDGE('',*,*,#404,.F.);
#569=ORIENTED_EDGE('',*,*,#568,.T.);
#570=ORIENTED_EDGE('',*,*,#467,.T.);
#571=EDGE_LOOP('',(#565,#566,#567,#569,#570));
#572=FACE_OUTER_BOUND('',#571,.F.);
#573=ADVANCED_FACE('',(#572),#564,.T.);
#574=CARTESIAN_POINT('',(0.E0,0.E0,2.655811238272E1));
#575=DIRECTION('',(5.E-1,0.E0,8.660254037844E-1));
#576=DIRECTION('',(8.660254037844E-1,0.E0,-5.E-1));
#577=AXIS2_PLACEMENT_3D('',#574,#575,#576);
#578=PLANE('',#577);
#579=ORIENTED_EDGE('',*,*,#454,.T.);
#580=ORIENTED_EDGE('',*,*,#469,.T.);
#581=ORIENTED_EDGE('',*,*,#568,.F.);
#582=ORIENTED_EDGE('',*,*,#402,.F.);
#583=ORIENTED_EDGE('',*,*,#428,.T.);
#584=EDGE_LOOP('',(#579,#580,#581,#582,#583));
#585=FACE_OUTER_BOUND('',#584,.F.);
#586=ADVANCED_FACE('',(#585),#578,.T.);
#587=CARTESIAN_POINT('',(0.E0,1.9E1,0.E0));
#588=DIRECTION('',(0.E0,1.E0,0.E0));
#589=DIRECTION('',(0.E0,0.E0,-1.E0));
#590=AXIS2_PLACEMENT_3D('',#587,#588,#589);
#591=PLANE('',#590);
#592=ORIENTED_EDGE('',*,*,#500,.F.);
#593=ORIENTED_EDGE('',*,*,#471,.F.);
#594=ORIENTED_EDGE('',*,*,#457,.F.);
#595=ORIENTED_EDGE('',*,*,#444,.F.);
#596=ORIENTED_EDGE('',*,*,#527,.F.);
#597=ORIENTED_EDGE('',*,*,#514,.F.);
#598=EDGE_LOOP('',(#592,#593,#594,#595,#596,#597));
#599=FACE_OUTER_BOUND('',#598,.F.);
#600=ADVANCED_FACE('',(#599),#591,.T.);
#601=CLOSED_SHELL('',(#310,#325,#338,#353,#366,#381,#394,#418,#435,#448,#461,
#475,#490,#504,#518,#531,#546,#559,#573,#586,#600));
#602=CARTESIAN_POINT('',(0.E0,-7.5E1,0.E0));
#603=DIRECTION('',(0.E0,-1.E0,0.E0));
#604=DIRECTION('',(-1.E0,0.E0,0.E0));
#605=AXIS2_PLACEMENT_3D('',#602,#603,#604);
#607=DIRECTION('',(0.E0,1.E0,0.E0));
#608=VECTOR('',#607,6.6E1);
#609=CARTESIAN_POINT('',(1.1876E1,-7.5E1,0.E0));
#610=LINE('',#609,#608);
#611=CARTESIAN_POINT('',(0.E0,-7.5E1,0.E0));
#612=DIRECTION('',(0.E0,-1.E0,0.E0));
#613=DIRECTION('',(1.E0,0.E0,0.E0));
#614=AXIS2_PLACEMENT_3D('',#611,#612,#613);
#616=DIRECTION('',(0.E0,1.E0,0.E0));
#617=VECTOR('',#616,6.6E1);
#618=CARTESIAN_POINT('',(-1.1876E1,-7.5E1,0.E0));
#619=LINE('',#618,#617);
#620=CARTESIAN_POINT('',(0.E0,-9.E0,0.E0));
#621=DIRECTION('',(0.E0,1.E0,0.E0));
#622=DIRECTION('',(-1.E0,0.E0,0.E0));
#623=AXIS2_PLACEMENT_3D('',#620,#621,#622);
#625=CARTESIAN_POINT('',(0.E0,-9.E0,0.E0));
#626=DIRECTION('',(0.E0,1.E0,0.E0));
#627=DIRECTION('',(1.E0,0.E0,0.E0));
#628=AXIS2_PLACEMENT_3D('',#625,#626,#627);
#630=CARTESIAN_POINT('',(0.E0,-9.E0,0.E0));
#631=DIRECTION('',(0.E0,1.E0,0.E0));
#632=DIRECTION('',(-1.E0,0.E0,0.E0));
#633=AXIS2_PLACEMENT_3D('',#630,#631,#632);
#635=CARTESIAN_POINT('',(0.E0,-9.E0,0.E0));
#636=DIRECTION('',(0.E0,1.E0,0.E0));
#637=DIRECTION('',(1.E0,0.E0,0.E0));
#638=AXIS2_PLACEMENT_3D('',#635,#636,#637);
#640=CARTESIAN_POINT('',(-1.1876E1,-7.5E1,0.E0));
#641=CARTESIAN_POINT('',(1.1876E1,-7.5E1,0.E0));
#642=VERTEX_POINT('',#640);
#643=VERTEX_POINT('',#641);
#644=CARTESIAN_POINT('',(-1.1876E1,-9.E0,0.E0));
#645=CARTESIAN_POINT('',(1.1876E1,-9.E0,0.E0));
#646=VERTEX_POINT('',#644);
#647=VERTEX_POINT('',#645);
#648=CARTESIAN_POINT('',(1.5E1,-9.E0,0.E0));
#649=CARTESIAN_POINT('',(-1.5E1,-9.E0,0.E0));
#650=VERTEX_POINT('',#648);
#651=VERTEX_POINT('',#649);
#652=CARTESIAN_POINT('',(0.E0,-7.5E1,0.E0));
#653=DIRECTION('',(0.E0,1.E0,0.E0));
#654=DIRECTION('',(-1.E0,0.E0,0.E0));
#655=AXIS2_PLACEMENT_3D('',#652,#653,#654);
#656=CYLINDRICAL_SURFACE('',#655,1.1876E1);
#658=ORIENTED_EDGE('',*,*,#657,.T.);
#660=ORIENTED_EDGE('',*,*,#659,.T.);
#662=ORIENTED_EDGE('',*,*,#661,.T.);
#664=ORIENTED_EDGE('',*,*,#663,.F.);
#665=EDGE_LOOP('',(#658,#660,#662,#664));
#666=FACE_OUTER_BOUND('',#665,.F.);
#667=ADVANCED_FACE('',(#666),#656,.T.);
#668=CARTESIAN_POINT('',(0.E0,-7.5E1,0.E0));
#669=DIRECTION('',(0.E0,1.E0,0.E0));
#670=DIRECTION('',(-1.E0,0.E0,0.E0));
#671=AXIS2_PLACEMENT_3D('',#668,#669,#670);
#672=CYLINDRICAL_SURFACE('',#671,1.1876E1);
#674=ORIENTED_EDGE('',*,*,#673,.T.);
#675=ORIENTED_EDGE('',*,*,#663,.T.);
#677=ORIENTED_EDGE('',*,*,#676,.T.);
#678=ORIENTED_EDGE('',*,*,#659,.F.);
#679=EDGE_LOOP('',(#674,#675,#677,#678));
#680=FACE_OUTER_BOUND('',#679,.F.);
#681=ADVANCED_FACE('',(#680),#672,.T.);
#682=CARTESIAN_POINT('',(0.E0,-9.E0,0.E0));
#683=DIRECTION('',(0.E0,-1.E0,0.E0));
#684=DIRECTION('',(0.E0,0.E0,1.E0));
#685=AXIS2_PLACEMENT_3D('',#682,#683,#684);
#686=PLANE('',#685);
#688=ORIENTED_EDGE('',*,*,#687,.T.);
#690=ORIENTED_EDGE('',*,*,#689,.T.);
#691=EDGE_LOOP('',(#688,#690));
#692=FACE_OUTER_BOUND('',#691,.F.);
#693=ORIENTED_EDGE('',*,*,#676,.F.);
#694=ORIENTED_EDGE('',*,*,#661,.F.);
#695=EDGE_LOOP('',(#693,#694));
#696=FACE_BOUND('',#695,.F.);
#697=ADVANCED_FACE('',(#692,#696),#686,.T.);
#698=OPEN_SHELL('',(#667,#681,#697));
#699=MANIFOLD_SOLID_BREP('',#601);
#700=SHELL_BASED_SURFACE_MODEL('',(#698));
#701=(LENGTH_UNIT()NAMED_UNIT(*)SI_UNIT(.MILLI.,.METRE.));
#702=DIMENSIONAL_EXPONENTS(0.E0,0.E0,0.E0,0.E0,0.E0,0.E0,0.E0);
#703=(NAMED_UNIT(*)PLANE_ANGLE_UNIT()SI_UNIT($,.RADIAN.));
#704=PLANE_ANGLE_MEASURE_WITH_UNIT(PLANE_ANGLE_MEASURE(1.745329251994E-2),#703);
#705=(CONVERSION_BASED_UNIT('DEGREE',#704)NAMED_UNIT(#702)PLANE_ANGLE_UNIT());
#706=(NAMED_UNIT(*)SI_UNIT($,.STERADIAN.)SOLID_ANGLE_UNIT());
#707=UNCERTAINTY_MEASURE_WITH_UNIT(LENGTH_MEASURE(1.203225308441E-2),#701,
'closure',
'Maximum model space distance between geometric entities at asserted connectivities');
#708=(GEOMETRIC_REPRESENTATION_CONTEXT(3)GLOBAL_UNCERTAINTY_ASSIGNED_CONTEXT((
#707))GLOBAL_UNIT_ASSIGNED_CONTEXT((#701,#705,#706))REPRESENTATION_CONTEXT
('ID1','3'));
#711=CARTESIAN_POINT('',(0.E0,0.E0,0.E0));
#712=DIRECTION('',(0.E0,0.E0,1.E0));
#713=DIRECTION('',(1.E0,0.E0,0.E0));
#716=SHAPE_REPRESENTATION_RELATIONSHIP('','',#715,#709);
#717=SHAPE_REPRESENTATION_RELATIONSHIP('','',#715,#710);
#718=APPLICATION_CONTEXT(
'CONFIGURATION CONTROLLED 3D DESIGNS OF MECHANICAL PARTS AND ASSEMBLIES');
#719=APPLICATION_PROTOCOL_DEFINITION('international standard',
'config_control_design',1994,#718);
#720=DESIGN_CONTEXT('',#718,'design');
#721=MECHANICAL_CONTEXT('',#718,'mechanical');
#722=PRODUCT('SROUB-M30X75-CSN_02_1101','SROUB-M30X75-CSN_02_1101',
'NOT SPECIFIED',(#721));
#723=PRODUCT_DEFINITION_FORMATION_WITH_SPECIFIED_SOURCE('6','LAST_VERSION',#722,
.MADE.);
#727=PRODUCT_CATEGORY('part','');
#728=PRODUCT_RELATED_PRODUCT_CATEGORY('detail','',(#722));
#729=PRODUCT_CATEGORY_RELATIONSHIP('','',#727,#728);
#730=SECURITY_CLASSIFICATION_LEVEL('unclassified');
#731=SECURITY_CLASSIFICATION('','',#730);
#732=CC_DESIGN_SECURITY_CLASSIFICATION(#731,(#723));
#733=APPROVAL_STATUS('approved');
#734=APPROVAL(#733,'');
#735=CC_DESIGN_APPROVAL(#734,(#731,#723,#724));
#736=CALENDAR_DATE(111,17,9);
#737=COORDINATED_UNIVERSAL_TIME_OFFSET(3,0,.AHEAD.);
#738=LOCAL_TIME(0,32,3.6E1,#737);
#739=DATE_AND_TIME(#736,#738);
#740=APPROVAL_DATE_TIME(#739,#734);
#741=DATE_TIME_ROLE('creation_date');
#742=CC_DESIGN_DATE_AND_TIME_ASSIGNMENT(#739,#741,(#724));
#743=DATE_TIME_ROLE('classification_date');
#744=CC_DESIGN_DATE_AND_TIME_ASSIGNMENT(#739,#743,(#731));
#745=PERSON('UNSPECIFIED','UNSPECIFIED',$,$,$,$);
#746=ORGANIZATION('UNSPECIFIED','UNSPECIFIED','UNSPECIFIED');
#747=PERSON_AND_ORGANIZATION(#745,#746);
#748=APPROVAL_ROLE('approver');
#749=APPROVAL_PERSON_ORGANIZATION(#747,#734,#748);
#750=PERSON_AND_ORGANIZATION_ROLE('creator');
#751=CC_DESIGN_PERSON_AND_ORGANIZATION_ASSIGNMENT(#747,#750,(#723,#724));
#752=PERSON_AND_ORGANIZATION_ROLE('design_supplier');
#753=CC_DESIGN_PERSON_AND_ORGANIZATION_ASSIGNMENT(#747,#752,(#723));
#754=PERSON_AND_ORGANIZATION_ROLE('classification_officer');
#755=CC_DESIGN_PERSON_AND_ORGANIZATION_ASSIGNMENT(#747,#754,(#731));
#756=PERSON_AND_ORGANIZATION_ROLE('design_owner');
#757=CC_DESIGN_PERSON_AND_ORGANIZATION_ASSIGNMENT(#747,#756,(#722));
#5=CIRCLE('',#4,1.339997627869E1);
#10=CIRCLE('',#9,1.339997627869E1);
#23=CIRCLE('',#22,1.5E1);
#32=CIRCLE('',#31,1.5E1);
#37=CIRCLE('',#36,1.5E1);
#46=CIRCLE('',#45,1.5E1);
#51=CIRCLE('',#50,1.6E0);
#56=CIRCLE('',#55,1.6E0);
#85=CIRCLE('',#84,1.659999979250E1);
#90=CIRCLE('',#89,1.659999979250E1);
#99=B_SPLINE_CURVE_WITH_KNOTS('',3,(#91,#92,#93,#94,#95,#96,#97,#98),
.UNSPECIFIED.,.F.,.F.,(4,1,1,1,1,4),(0.E0,2.E-1,4.E-1,6.E-1,8.E-1,1.E0),
.UNSPECIFIED.);
#108=B_SPLINE_CURVE_WITH_KNOTS('',3,(#100,#101,#102,#103,#104,#105,#106,#107),
.UNSPECIFIED.,.F.,.F.,(4,1,1,1,1,4),(0.E0,2.E-1,4.E-1,6.E-1,8.E-1,1.E0),
.UNSPECIFIED.);
#121=B_SPLINE_CURVE_WITH_KNOTS('',3,(#113,#114,#115,#116,#117,#118,#119,#120),
.UNSPECIFIED.,.F.,.F.,(4,1,1,1,1,4),(0.E0,2.E-1,4.E-1,6.E-1,8.E-1,1.E0),
.UNSPECIFIED.);
#130=B_SPLINE_CURVE_WITH_KNOTS('',3,(#122,#123,#124,#125,#126,#127,#128,#129),
.UNSPECIFIED.,.F.,.F.,(4,1,1,1,1,4),(0.E0,2.E-1,4.E-1,6.E-1,8.E-1,1.E0),
.UNSPECIFIED.);
#143=B_SPLINE_CURVE_WITH_KNOTS('',3,(#135,#136,#137,#138,#139,#140,#141,#142),
.UNSPECIFIED.,.F.,.F.,(4,1,1,1,1,4),(0.E0,2.E-1,4.E-1,6.E-1,8.E-1,1.E0),
.UNSPECIFIED.);
#152=B_SPLINE_CURVE_WITH_KNOTS('',3,(#144,#145,#146,#147,#148,#149,#150,#151),
.UNSPECIFIED.,.F.,.F.,(4,1,1,1,1,4),(0.E0,2.E-1,4.E-1,6.E-1,8.E-1,1.E0),
.UNSPECIFIED.);
#165=B_SPLINE_CURVE_WITH_KNOTS('',3,(#157,#158,#159,#160,#161,#162,#163,#164),
.UNSPECIFIED.,.F.,.F.,(4,1,1,1,1,4),(0.E0,2.E-1,4.E-1,6.E-1,8.E-1,1.E0),
.UNSPECIFIED.);
#174=B_SPLINE_CURVE_WITH_KNOTS('',3,(#166,#167,#168,#169,#170,#171,#172,#173),
.UNSPECIFIED.,.F.,.F.,(4,1,1,1,1,4),(0.E0,2.E-1,4.E-1,6.E-1,8.E-1,1.E0),
.UNSPECIFIED.);
#187=B_SPLINE_CURVE_WITH_KNOTS('',3,(#179,#180,#181,#182,#183,#184,#185,#186),
.UNSPECIFIED.,.F.,.F.,(4,1,1,1,1,4),(0.E0,2.E-1,4.E-1,6.E-1,8.E-1,1.E0),
.UNSPECIFIED.);
#200=B_SPLINE_CURVE_WITH_KNOTS('',3,(#192,#193,#194,#195,#196,#197,#198,#199),
.UNSPECIFIED.,.F.,.F.,(4,1,1,1,1,4),(0.E0,2.E-1,4.E-1,6.E-1,8.E-1,1.E0),
.UNSPECIFIED.);
#209=B_SPLINE_CURVE_WITH_KNOTS('',3,(#201,#202,#203,#204,#205,#206,#207,#208),
.UNSPECIFIED.,.F.,.F.,(4,1,1,1,1,4),(0.E0,2.E-1,4.E-1,6.E-1,8.E-1,1.E0),
.UNSPECIFIED.);
#218=B_SPLINE_CURVE_WITH_KNOTS('',3,(#210,#211,#212,#213,#214,#215,#216,#217),
.UNSPECIFIED.,.F.,.F.,(4,1,1,1,1,4),(0.E0,2.E-1,4.E-1,6.E-1,8.E-1,1.E0),
.UNSPECIFIED.);
#227=CIRCLE('',#226,2.3E1);
#232=CIRCLE('',#231,2.3E1);
#237=CIRCLE('',#236,2.3E1);
#242=CIRCLE('',#241,2.3E1);
#247=CIRCLE('',#246,2.3E1);
#252=CIRCLE('',#251,2.3E1);
#304=EDGE_CURVE('',#293,#294,#5,.T.);
#306=EDGE_CURVE('',#294,#293,#10,.T.);
#317=EDGE_CURVE('',#294,#298,#18,.T.);
#319=EDGE_CURVE('',#297,#298,#37,.T.);
#321=EDGE_CURVE('',#293,#297,#14,.T.);
#333=EDGE_CURVE('',#298,#297,#23,.T.);
#345=EDGE_CURVE('',#285,#297,#27,.T.);
#347=EDGE_CURVE('',#285,#286,#32,.T.);
#349=EDGE_CURVE('',#286,#298,#41,.T.);
#361=EDGE_CURVE('',#286,#285,#46,.T.);
#373=EDGE_CURVE('',#286,#290,#51,.T.);
#375=EDGE_CURVE('',#290,#289,#90,.T.);
#377=EDGE_CURVE('',#285,#289,#56,.T.);
#389=EDGE_CURVE('',#289,#290,#85,.T.);
#400=EDGE_CURVE('',#255,#256,#60,.T.);
#402=EDGE_CURVE('',#256,#258,#64,.T.);
#404=EDGE_CURVE('',#258,#260,#68,.T.);
#406=EDGE_CURVE('',#260,#262,#72,.T.);
#408=EDGE_CURVE('',#262,#264,#76,.T.);
#410=EDGE_CURVE('',#264,#255,#80,.T.);
#424=EDGE_CURVE('',#277,#274,#99,.T.);
#426=EDGE_CURVE('',#274,#278,#108,.T.);
#428=EDGE_CURVE('',#256,#278,#222,.T.);
#431=EDGE_CURVE('',#255,#277,#112,.T.);
#442=EDGE_CURVE('',#272,#277,#130,.T.);
#444=EDGE_CURVE('',#272,#274,#242,.T.);
#454=EDGE_CURVE('',#278,#276,#209,.T.);
#457=EDGE_CURVE('',#274,#276,#237,.T.);
#467=EDGE_CURVE('',#279,#267,#200,.T.);
#469=EDGE_CURVE('',#276,#279,#218,.T.);
#471=EDGE_CURVE('',#276,#267,#232,.T.);
#481=EDGE_CURVE('',#282,#272,#121,.T.);
#486=EDGE_CURVE('',#264,#282,#134,.T.);
#496=EDGE_CURVE('',#280,#268,#143,.T.);
#498=EDGE_CURVE('',#267,#280,#187,.T.);
#500=EDGE_CURVE('',#267,#268,#227,.T.);
#510=EDGE_CURVE('',#281,#270,#165,.T.);
#512=EDGE_CURVE('',#268,#281,#152,.T.);
#514=EDGE_CURVE('',#268,#270,#252,.T.);
#525=EDGE_CURVE('',#270,#282,#174,.T.);
#527=EDGE_CURVE('',#270,#272,#247,.T.);
#539=EDGE_CURVE('',#262,#281,#178,.T.);
#542=EDGE_CURVE('',#260,#280,#156,.T.);
#568=EDGE_CURVE('',#258,#279,#191,.T.);
#606=CIRCLE('',#605,1.1876E1);
#615=CIRCLE('',#614,1.1876E1);
#624=CIRCLE('',#623,1.1876E1);
#629=CIRCLE('',#628,1.1876E1);
#634=CIRCLE('',#633,1.5E1);
#639=CIRCLE('',#638,1.5E1);
#657=EDGE_CURVE('',#642,#643,#606,.T.);
#659=EDGE_CURVE('',#643,#647,#610,.T.);
#661=EDGE_CURVE('',#647,#646,#629,.T.);
#663=EDGE_CURVE('',#642,#646,#619,.T.);
#673=EDGE_CURVE('',#643,#642,#615,.T.);
#676=EDGE_CURVE('',#646,#647,#624,.T.);
#687=EDGE_CURVE('',#651,#650,#634,.T.);
#689=EDGE_CURVE('',#650,#651,#639,.T.);
#709=ADVANCED_BREP_SHAPE_REPRESENTATION('',(#699),#708);
#710=MANIFOLD_SURFACE_SHAPE_REPRESENTATION('',(#700),#708);
#714=AXIS2_PLACEMENT_3D('',#711,#712,#713);
#715=SHAPE_REPRESENTATION('',(#714),#708);
#724=PRODUCT_DEFINITION('design','',#723,#720);
#725=PRODUCT_DEFINITION_SHAPE('','SHAPE FOR SROUB-M30X75-CSN_02_1101.',#724);
#726=SHAPE_DEFINITION_REPRESENTATION(#725,#715);
ENDSEC;
END-ISO-10303-21;
