 PTC IGES file: sroub-m22x60-csn_02_1101.igs                            S      1
1H,,1H;,24HSROUB-M22X60-CSN_02_1101,28Hsroub-m22x60-csn_02_1101.igs,    G      1
49HPro/ENGINEER by Parametric Technology Corporation,7H2007160,32,38,7, G      2
38,15,24HSROUB-M22X60-CSN_02_1101,1.,2,2HMM,32768,0.5,                  G      3
15H20110917.003023,0.00925094,92.5131,13HVladimir Zima,7HUnknown,10,0,  G      4
15H20110917.003023;                                                     G      5
     314       1       1       1       0       0       0       001000200D      1
     314       0       4       1       0                   COLOR       1D      2
     314       2       1       1       0       0       0       001000200D      3
     314       0       1       1       0                   COLOR       2D      4
     314       3       1       1       0       0       0       001000200D      5
     314       0       1       1       0                   COLOR       3D      6
     314       4       1       1       0       0       0       001000200D      7
     314       0       1       1       0                   COLOR       4D      8
     314       5       1       1       0       0       0       001000200D      9
     314       0       8       1       0                   COLOR       5D     10
     314       6       1       1       0       0       0       001000200D     11
     314       0       8       1       0                   COLOR       6D     12
     314       7       1       1       0       0       0       001000200D     13
     314       0       5       1       0                   COLOR       7D     14
     314       8       1       1       0       0       0       001000200D     15
     314       0       8       1       0                   COLOR       8D     16
     124       9       1       1       0       0       0       001000000D     17
     124       0       0       2       0                   XFORM       1D     18
     100      11       1       1       0       0      17       001010000D     19
     100       0       0       2       0                     ARC       1D     20
     124      13       1       1       0       0       0       001000000D     21
     124       0       0       2       0                   XFORM       2D     22
     100      15       1       1       0       0      21       001010000D     23
     100       0       0       1       0                     ARC       2D     24
     110      16       1       1       0       0       0       001010000D     25
     110       0       0       2       0                    LINE       1D     26
     110      18       1       1       0       0       0       001010000D     27
     110       0       0       2       0                    LINE       2D     28
     124      20       1       1       0       0       0       001000000D     29
     124       0       0       2       0                   XFORM       3D     30
     100      22       1       1       0       0      29       001010000D     31
     100       0       0       1       0                     ARC       3D     32
     110      23       1       1       0       0       0       001010000D     33
     110       0       0       2       0                    LINE       3D     34
     124      25       1       1       0       0       0       001000000D     35
     124       0       0       1       0                   XFORM       4D     36
     100      26       1       1       0       0      35       001010000D     37
     100       0       0       1       0                     ARC       4D     38
     124      27       1       1       0       0       0       001000000D     39
     124       0       0       2       0                   XFORM       5D     40
     100      29       1       1       0       0      39       001010000D     41
     100       0       0       1       0                     ARC       5D     42
     110      30       1       1       0       0       0       001010000D     43
     110       0       0       2       0                    LINE       4D     44
     124      32       1       1       0       0       0       001000000D     45
     124       0       0       1       0                   XFORM       6D     46
     100      33       1       1       0       0      45       001010000D     47
     100       0       0       1       0                     ARC       6D     48
     124      34       1       1       0       0       0       001000000D     49
     124       0       0       2       0                   XFORM       7D     50
     100      36       1       1       0       0      49       001010000D     51
     100       0       0       1       0                     ARC       7D     52
     124      37       1       1       0       0       0       001000000D     53
     124       0       0       2       0                   XFORM       8D     54
     100      39       1       1       0       0      53       001010000D     55
     100       0       0       1       0                     ARC       8D     56
     110      40       1       1       0       0       0       001010000D     57
     110       0       0       1       0                    LINE       5D     58
     110      41       1       1       0       0       0       001010000D     59
     110       0       0       1       0                    LINE       6D     60
     110      42       1       1       0       0       0       001010000D     61
     110       0       0       1       0                    LINE       7D     62
     110      43       1       1       0       0       0       001010000D     63
     110       0       0       1       0                    LINE       8D     64
     110      44       1       1       0       0       0       001010000D     65
     110       0       0       1       0                    LINE       9D     66
     110      45       1       1       0       0       0       001010000D     67
     110       0       0       1       0                    LINE      10D     68
     124      46       1       1       0       0       0       001000000D     69
     124       0       0       2       0                   XFORM       9D     70
     100      48       1       1       0       0      69       001010000D     71
     100       0       0       1       0                     ARC       9D     72
     124      49       1       1       0       0       0       001000000D     73
     124       0       0       2       0                   XFORM      10D     74
     100      51       1       1       0       0      73       001010000D     75
     100       0       0       1       0                     ARC      10D     76
     126      52       1       1       0       0       0       001010000D     77
     126       0       0      10       0                B_SPLINE       1D     78
     126      62       1       1       0       0       0       001010000D     79
     126       0       0      10       0                B_SPLINE       2D     80
     110      72       1       1       0       0       0       001010000D     81
     110       0       0       2       0                    LINE      11D     82
     126      74       1       1       0       0       0       001010000D     83
     126       0       0       9       0                B_SPLINE       3D     84
     126      83       1       1       0       0       0       001010000D     85
     126       0       0       9       0                B_SPLINE       4D     86
     110      92       1       1       0       0       0       001010000D     87
     110       0       0       2       0                    LINE      12D     88
     126      94       1       1       0       0       0       001010000D     89
     126       0       0      10       0                B_SPLINE       5D     90
     126     104       1       1       0       0       0       001010000D     91
     126       0       0      10       0                B_SPLINE       6D     92
     110     114       1       1       0       0       0       001010000D     93
     110       0       0       2       0                    LINE      13D     94
     126     116       1       1       0       0       0       001010000D     95
     126       0       0      10       0                B_SPLINE       7D     96
     126     126       1       1       0       0       0       001010000D     97
     126       0       0      10       0                B_SPLINE       8D     98
     110     136       1       1       0       0       0       001010000D     99
     110       0       0       2       0                    LINE      14D    100
     126     138       1       1       0       0       0       001010000D    101
     126       0       0       8       0                B_SPLINE       9D    102
     110     146       1       1       0       0       0       001010000D    103
     110       0       0       2       0                    LINE      15D    104
     126     148       1       1       0       0       0       001010000D    105
     126       0       0       8       0                B_SPLINE      10D    106
     126     156       1       1       0       0       0       001010000D    107
     126       0       0      10       0                B_SPLINE      11D    108
     126     166       1       1       0       0       0       001010000D    109
     126       0       0      10       0                B_SPLINE      12D    110
     110     176       1       1       0       0       0       001010000D    111
     110       0       0       2       0                    LINE      16D    112
     124     178       1       1       0       0       0       001000000D    113
     124       0       0       1       0                   XFORM      11D    114
     100     179       1       1       0       0     113       001010000D    115
     100       0       0       1       0                     ARC      11D    116
     124     180       1       1       0       0       0       001000000D    117
     124       0       0       2       0                   XFORM      12D    118
     100     182       1       1       0       0     117       001010000D    119
     100       0       0       1       0                     ARC      12D    120
     124     183       1       1       0       0       0       001000000D    121
     124       0       0       2       0                   XFORM      13D    122
     100     185       1       1       0       0     121       001010000D    123
     100       0       0       1       0                     ARC      13D    124
     124     186       1       1       0       0       0       001000000D    125
     124       0       0       1       0                   XFORM      14D    126
     100     187       1       1       0       0     125       001010000D    127
     100       0       0       1       0                     ARC      14D    128
     124     188       1       1       0       0       0       001000000D    129
     124       0       0       2       0                   XFORM      15D    130
     100     190       1       1       0       0     129       001010000D    131
     100       0       0       1       0                     ARC      15D    132
     124     191       1       1       0       0       0       001000000D    133
     124       0       0       2       0                   XFORM      16D    134
     100     193       1       1       0       0     133       001010000D    135
     100       0       0       1       0                     ARC      16D    136
     502     194       1       1       0       0       0       001010000D    137
     502       0       0      15       1                  VERTEX       1D    138
     504     209       1       1       0       0       0       000010001D    139
     504       0       0      12       1                    EDGE       1D    140
     128     221       1       1       0       0       0       001010000D    141
     128       0       0       6       0                  SPLSRF       1D    142
     508     227       1       1       0       0       0       001010000D    143
     508       0       0       1       1                EDGELOOP       1D    144
     510     228       1       1       0       0       0       000010000D    145
     510       0       0       1       1                    FACE       1D    146
     110     229       1       1       0       0       0       001010000D    147
     110       0       0       1       0                    LINE      17D    148
     110     230       1       1       0       0       0       001010000D    149
     110       0       0       2       0                    LINE      18D    150
     120     232       1       1       0       0       0       001010000D    151
     120       0       0       1       0                    SREV       1D    152
     508     233       1       1       0       0       0       001010000D    153
     508       0       0       1       1                EDGELOOP       2D    154
     510     234       1       1       0       0       0       000010000D    155
     510       0       0       1       1                    FACE       2D    156
     110     235       1       1       0       0       0       001010000D    157
     110       0       0       2       0                    LINE      19D    158
     110     237       1       1       0       0       0       001010000D    159
     110       0       0       2       0                    LINE      20D    160
     120     239       1       1       0       0       0       001010000D    161
     120       0       0       1       0                    SREV       2D    162
     508     240       1       1       0       0       0       001010000D    163
     508       0       0       1       1                EDGELOOP       3D    164
     510     241       1       1       0       0       0       000010000D    165
     510       0       0       1       1                    FACE       3D    166
     110     242       1       1       0       0       0       001010000D    167
     110       0       0       1       0                    LINE      21D    168
     110     243       1       1       0       0       0       001010000D    169
     110       0       0       1       0                    LINE      22D    170
     120     244       1       1       0       0       0       001010000D    171
     120       0       0       1       0                    SREV       3D    172
     508     245       1       1       0       0       0       001010000D    173
     508       0       0       1       1                EDGELOOP       4D    174
     510     246       1       1       0       0       0       000010000D    175
     510       0       0       1       1                    FACE       4D    176
     110     247       1       1       0       0       0       001010000D    177
     110       0       0       1       0                    LINE      23D    178
     110     248       1       1       0       0       0       001010000D    179
     110       0       0       1       0                    LINE      24D    180
     120     249       1       1       0       0       0       001010000D    181
     120       0       0       1       0                    SREV       4D    182
     508     250       1       1       0       0       0       001010000D    183
     508       0       0       1       1                EDGELOOP       5D    184
     510     251       1       1       0       0       0       000010000D    185
     510       0       0       1       1                    FACE       5D    186
     110     252       1       1       0       0       0       001010000D    187
     110       0       0       1       0                    LINE      25D    188
     124     253       1       1       0       0       0       001000000D    189
     124       0       0       4       0                   XFORM      17D    190
     100     257       1       1       0       0     189       001010000D    191
     100       0       0       1       0                     ARC      17D    192
     120     258       1       1       0       0       0       001010000D    193
     120       0       0       1       0                    SREV       5D    194
     508     259       1       1       0       0       0       001010000D    195
     508       0       0       1       1                EDGELOOP       6D    196
     510     260       1       1       0       0       0       000010000D    197
     510       0       0       1       1                    FACE       6D    198
     110     261       1       1       0       0       0       001010000D    199
     110       0       0       1       0                    LINE      26D    200
     124     262       1       1       0       0       0       001000000D    201
     124       0       0       4       0                   XFORM      18D    202
     100     266       1       1       0       0     201       001010000D    203
     100       0       0       1       0                     ARC      18D    204
     120     267       1       1       0       0       0       001010000D    205
     120       0       0       1       0                    SREV       6D    206
     508     268       1       1       0       0       0       001010000D    207
     508       0       0       1       1                EDGELOOP       7D    208
     510     269       1       1       0       0       0       000010000D    209
     510       0       0       1       1                    FACE       7D    210
     128     270       1       1       0       0       0       001010000D    211
     128       0       0       6       0                  SPLSRF       2D    212
     508     276       1       1       0       0       0       001010000D    213
     508       0       0       2       1                EDGELOOP       8D    214
     508     278       1       1       0       0       0       001010000D    215
     508       0       0       1       1                EDGELOOP       9D    216
     510     279       1       1       0       0       0       000010000D    217
     510       0       0       1       1                    FACE       8D    218
     128     280       1       1       0       0       0       001010000D    219
     128       0       0       8       0                  SPLSRF       3D    220
     508     288       1       1       0       0       0       001010000D    221
     508       0       0       2       1                EDGELOOP      10D    222
     510     290       1       1       0       0       0       000010000D    223
     510       0       0       1       1                    FACE       9D    224
     110     291       1       1       0       0       0       001010000D    225
     110       0       0       1       0                    LINE      27D    226
     110     292       1       1       0       0       0       001010000D    227
     110       0       0       2       0                    LINE      28D    228
     120     294       1       1       0       0       0       001010000D    229
     120       0       0       1       0                    SREV       7D    230
     508     295       1       1       0       0       0       001010000D    231
     508       0       0       1       1                EDGELOOP      11D    232
     510     296       1       1       0       0       0       000010000D    233
     510       0       0       1       1                    FACE      10D    234
     110     297       1       1       0       0       0       001010000D    235
     110       0       0       1       0                    LINE      29D    236
     110     298       1       1       0       0       0       001010000D    237
     110       0       0       2       0                    LINE      30D    238
     120     300       1       1       0       0       0       001010000D    239
     120       0       0       1       0                    SREV       8D    240
     508     301       1       1       0       0       0       001010000D    241
     508       0       0       1       1                EDGELOOP      12D    242
     510     302       1       1       0       0       0       000010000D    243
     510       0       0       1       1                    FACE      11D    244
     110     303       1       1       0       0       0       001010000D    245
     110       0       0       1       0                    LINE      31D    246
     110     304       1       1       0       0       0       001010000D    247
     110       0       0       2       0                    LINE      32D    248
     120     306       1       1       0       0       0       001010000D    249
     120       0       0       1       0                    SREV       9D    250
     508     307       1       1       0       0       0       001010000D    251
     508       0       0       1       1                EDGELOOP      13D    252
     510     308       1       1       0       0       0       000010000D    253
     510       0       0       1       1                    FACE      12D    254
     128     309       1       1       0       0       0       001010000D    255
     128       0       0       8       0                  SPLSRF       4D    256
     508     317       1       1       0       0       0       001010000D    257
     508       0       0       2       1                EDGELOOP      14D    258
     510     319       1       1       0       0       0       000010000D    259
     510       0       0       1       1                    FACE      13D    260
     110     320       1       1       0       0       0       001010000D    261
     110       0       0       1       0                    LINE      33D    262
     110     321       1       1       0       0       0       001010000D    263
     110       0       0       2       0                    LINE      34D    264
     120     323       1       1       0       0       0       001010000D    265
     120       0       0       1       0                    SREV      10D    266
     508     324       1       1       0       0       0       001010000D    267
     508       0       0       1       1                EDGELOOP      15D    268
     510     325       1       1       0       0       0       000010000D    269
     510       0       0       1       1                    FACE      14D    270
     110     326       1       1       0       0       0       001010000D    271
     110       0       0       1       0                    LINE      35D    272
     110     327       1       1       0       0       0       001010000D    273
     110       0       0       2       0                    LINE      36D    274
     120     329       1       1       0       0       0       001010000D    275
     120       0       0       1       0                    SREV      11D    276
     508     330       1       1       0       0       0       001010000D    277
     508       0       0       1       1                EDGELOOP      16D    278
     510     331       1       1       0       0       0       000010000D    279
     510       0       0       1       1                    FACE      15D    280
     110     332       1       1       0       0       0       001010000D    281
     110       0       0       1       0                    LINE      37D    282
     110     333       1       1       0       0       0       001010000D    283
     110       0       0       2       0                    LINE      38D    284
     120     335       1       1       0       0       0       001010000D    285
     120       0       0       1       0                    SREV      12D    286
     508     336       1       1       0       0       0       001010000D    287
     508       0       0       1       1                EDGELOOP      17D    288
     510     337       1       1       0       0       0       000010000D    289
     510       0       0       1       1                    FACE      16D    290
     128     338       1       1       0       0       0       001010000D    291
     128       0       0       8       0                  SPLSRF       5D    292
     508     346       1       1       0       0       0       001010000D    293
     508       0       0       2       1                EDGELOOP      18D    294
     510     348       1       1       0       0       0       000010000D    295
     510       0       0       1       1                    FACE      17D    296
     128     349       1       1       0       0       0       001010000D    297
     128       0       0       8       0                  SPLSRF       6D    298
     508     357       1       1       0       0       0       001010000D    299
     508       0       0       2       1                EDGELOOP      19D    300
     510     359       1       1       0       0       0       000010000D    301
     510       0       0       1       1                    FACE      18D    302
     128     360       1       1       0       0       0       001010000D    303
     128       0       0       8       0                  SPLSRF       7D    304
     508     368       1       1       0       0       0       001010000D    305
     508       0       0       2       1                EDGELOOP      20D    306
     510     370       1       1       0       0       0       000010000D    307
     510       0       0       1       1                    FACE      19D    308
     128     371       1       1       0       0       0       001010000D    309
     128       0       0       8       0                  SPLSRF       8D    310
     508     379       1       1       0       0       0       001010000D    311
     508       0       0       2       1                EDGELOOP      21D    312
     510     381       1       1       0       0       0       000010000D    313
     510       0       0       1       1                    FACE      20D    314
     128     382       1       1       0       0       0       001010000D    315
     128       0       0       8       0                  SPLSRF       9D    316
     508     390       1       1       0       0       0       001010000D    317
     508       0       0       2       1                EDGELOOP      22D    318
     510     392       1       1       0       0       0       000010000D    319
     510       0       0       1       1                    FACE      21D    320
     514     393       1       1       0       0       0       000010000D    321
     514       0       0       3       1                   SHELL       1D    322
     124     396       1       1       0       0       0       001000000D    323
     124       0       0       1       0                   XFORM      19D    324
     100     397       1       1       0       0     323       001010000D    325
     100       0       0       1       0                     ARC      19D    326
     110     398       1       1       0       0       0       001010000D    327
     110       0       0       1       0                    LINE      39D    328
     124     399       1       1       0       0       0       001000000D    329
     124       0       0       1       0                   XFORM      20D    330
     100     400       1       1       0       0     329       001010000D    331
     100       0       0       1       0                     ARC      20D    332
     110     401       1       1       0       0       0       001010000D    333
     110       0       0       1       0                    LINE      40D    334
     124     402       1       1       0       0       0       001000000D    335
     124       0       0       1       0                   XFORM      21D    336
     100     403       1       1       0       0     335       001010000D    337
     100       0       0       1       0                     ARC      21D    338
     124     404       1       1       0       0       0       001000000D    339
     124       0       0       1       0                   XFORM      22D    340
     100     405       1       1       0       0     339       001010000D    341
     100       0       0       1       0                     ARC      22D    342
     124     406       1       1       0       0       0       001000000D    343
     124       0       0       1       0                   XFORM      23D    344
     100     407       1       1       0       0     343       001010000D    345
     100       0       0       1       0                     ARC      23D    346
     124     408       1       1       0       0       0       001000000D    347
     124       0       0       1       0                   XFORM      24D    348
     100     409       1       1       0       0     347       001010000D    349
     100       0       0       1       0                     ARC      24D    350
     502     410       1       1       0       0       0       001010000D    351
     502       0       0       2       1                  VERTEX       2D    352
     504     412       1       1       0       0       0       000010001D    353
     504       0       0       3       1                    EDGE       2D    354
     110     415       1       1       0       0       0       001010000D    355
     110       0       0       1       0                    LINE      41D    356
     110     416       1       1       0       0       0       001010000D    357
     110       0       0       1       0                    LINE      42D    358
     120     417       1       1       0       0       0       001010000D    359
     120       0       0       1       0                    SREV      13D    360
     508     418       1       1       0       0       0       001010000D    361
     508       0       0       1       1                EDGELOOP      23D    362
     510     419       1       1       0       0       0       000010000D    363
     510       0       0       1       1                    FACE      22D    364
     110     420       1       1       0       0       0       001010000D    365
     110       0       0       1       0                    LINE      43D    366
     110     421       1       1       0       0       0       001010000D    367
     110       0       0       1       0                    LINE      44D    368
     120     422       1       1       0       0       0       001010000D    369
     120       0       0       1       0                    SREV      14D    370
     508     423       1       1       0       0       0       001010000D    371
     508       0       0       1       1                EDGELOOP      24D    372
     510     424       1       1       0       0       0       000010000D    373
     510       0       0       1       1                    FACE      23D    374
     128     425       1       1       0       0       0       001010000D    375
     128       0       0       6       0                  SPLSRF      10D    376
     508     431       1       1       0       0       0       001010000D    377
     508       0       0       1       1                EDGELOOP      25D    378
     508     432       1       1       0       0       0       001010000D    379
     508       0       0       1       1                EDGELOOP      26D    380
     510     433       1       1       0       0       0       000010000D    381
     510       0       0       1       1                    FACE      24D    382
     514     434       1       1       0       0       0       000000000D    383
     514       0       0       1       1                   SHELL       2D    384
     186     435       1       1       0       0       0       000000000D    385
     186       0       0       1       0                    MSBR       1D    386
314,1.1D0,1.2D0,1D2;                                                   1P      1
314,1.1D1,1.1D1,1.1D1;                                                 3P      2
314,3.92D1,1.2D0,1.2D0;                                                5P      3
314,4.1D1,0D0,2.2D1;                                                   7P      4
314,8.784D1,9.49D1,1D2;                                                9P      5
314,9.6D1,9.6D1,9.6D1;                                                11P      6
314,9.8D1,6.27D1,0D0;                                                 13P      7
314,1D2,1D2,9.49D1;                                                   15P      8
124,0D0,1D0,0D0,0D0,0D0,0D0,-1D0,-5.999998845513D1,-1D0,0D0,0D0,      17P      9
0D0;                                                                  17P     10
100,0D0,0D0,0D0,9.799983110653D0,0D0,-9.799983110653D0,               19P     11
1.425631242693D-14;                                                   19P     12
124,0D0,-1D0,0D0,0D0,0D0,0D0,-1D0,-5.999998845513D1,1D0,0D0,0D0,      21P     13
-3.730349362741D-14;                                                  21P     14
100,0D0,0D0,0D0,9.799983110653D0,0D0,-9.799983110653D0,0D0;           23P     15
110,-3.735816437702D-9,-5.999999052262D1,-9.799990521236D0,           25P     16
-3.144946853268D-9,-5.879999202159D1,-1.099999202043D1;               25P     17
110,3.735817310653D-9,-5.999999052262D1,9.799990521236D0,             27P     18
3.144948337676D-9,-5.879999202159D1,1.099999202043D1;                 27P     19
124,0D0,-1D0,0D0,0D0,0D0,0D0,-1D0,-5.879999391860D1,1D0,0D0,0D0,      29P     20
0D0;                                                                  29P     21
100,0D0,0D0,0D0,1.1D1,0D0,-1.1D1,0D0;                                 31P     22
110,7.147726827734D-13,-1.2D0,-1.1D1,-3.144946853268D-9,              33P     23
-5.879999202159D1,-1.099999202043D1;                                  33P     24
124,0D0,-1D0,0D0,0D0,0D0,0D0,1D0,-1.2D0,-1D0,0D0,0D0,0D0;             35P     25
100,0D0,0D0,0D0,1.1D1,0D0,-1.1D1,0D0;                                 37P     26
124,0D0,1D0,0D0,0D0,0D0,0D0,-1D0,-5.879999391860D1,-1D0,0D0,0D0,      39P     27
0D0;                                                                  39P     28
100,0D0,0D0,0D0,1.1D1,0D0,-1.1D1,0D0;                                 41P     29
110,-7.143457104054D-13,-1.2D0,1.1D1,3.144948337676D-9,               43P     30
-5.879999202159D1,1.099999202043D1;                                   43P     31
124,0D0,1D0,0D0,0D0,0D0,0D0,1D0,-1.2D0,1D0,0D0,0D0,0D0;               45P     32
100,0D0,0D0,0D0,1.1D1,0D0,-1.1D1,0D0;                                 47P     33
124,2.111696234541D-12,0D0,1D0,-2.576266977528D-11,0D0,1D0,0D0,       49P     34
-1.2D0,-1D0,0D0,2.111696234541D-12,1.22D1;                            49P     35
100,0D0,0D0,0D0,1.2D0,0D0,3.909607988913D-13,1.2D0;                   51P     36
124,-2.111600824750D-12,0D0,-1D0,2.576153179668D-11,0D0,1D0,0D0,      53P     37
-1.2D0,1D0,0D0,-2.111600824750D-12,-1.22D1;                           53P     38
100,0D0,0D0,0D0,1.2D0,0D0,3.946911482540D-13,1.2D0;                   55P     39
110,-1.7D1,0D0,9.814954576224D0,0D0,0D0,1.962990915245D1;             57P     40
110,0D0,0D0,1.962990915245D1,1.7D1,0D0,9.814954576224D0;              59P     41
110,1.7D1,0D0,9.814954576224D0,1.7D1,0D0,-9.814954576224D0;           61P     42
110,1.7D1,0D0,-9.814954576224D0,0D0,0D0,-1.962990915245D1;            63P     43
110,0D0,0D0,-1.962990915245D1,-1.7D1,0D0,-9.814954576224D0;           65P     44
110,-1.7D1,0D0,-9.814954576224D0,-1.7D1,0D0,9.814954576224D0;         67P     45
124,0D0,-1D0,0D0,0D0,0D0,0D0,1D0,-1.043609643148D-14,-1D0,0D0,        69P     46
0D0,0D0;                                                              69P     47
100,0D0,0D0,0D0,1.219999984123D1,0D0,-1.219999984123D1,0D0;           71P     48
124,0D0,1D0,0D0,0D0,0D0,0D0,1D0,-1.043609643148D-14,1D0,0D0,0D0,      73P     49
0D0;                                                                  73P     50
100,0D0,0D0,0D0,1.219999984123D1,0D0,-1.219999984123D1,0D0;           75P     51
126,7,3,0,0,1,0,0D0,0D0,0D0,0D0,2D-1,4D-1,6D-1,8D-1,1D0,1D0,1D0,      77P     52
1D0,1D0,1D0,1D0,1D0,1D0,1D0,1D0,1D0,-1.7D1,1.248162124289D1,          77P     53
9.814954576224D0,-1.639469738577D1,1.268338878097D1,                  77P     54
1.016442620349D1,-1.520591287496D1,1.304692782532D1,                  77P     55
1.085077126081D1,-1.350957644167D1,1.346541821841D1,                  77P     56
1.183015155721D1,-1.183430613493D1,1.377102521089D1,                  77P     57
1.279736931977D1,-1.016683597452D1,1.395792378142D1,                  77P     58
1.376008366575D1,-9.055309804152D0,1.399999999996D1,                  77P     59
1.440182359943D1,-8.500000000966D0,1.400000000001D1,                  77P     60
1.472243186378D1,0D0,1D0,0D0,0D0,1D0;                                 77P     61
126,7,3,0,0,1,0,0D0,0D0,0D0,0D0,2D-1,4D-1,6D-1,8D-1,1D0,1D0,1D0,      79P     62
1D0,1D0,1D0,1D0,1D0,1D0,1D0,1D0,1D0,-8.500000000966D0,                79P     63
1.400000000001D1,1.472243186378D1,-7.944506334162D0,                  79P     64
1.400000000001D1,1.504314628184D1,-6.832661810722D0,                  79P     65
1.395789246911D1,1.568507001674D1,-5.164972116610D0,                  79P     66
1.377092812751D1,1.664791111057D1,-3.489410552545D0,                  79P     67
1.346518930360D1,1.761529703062D1,-1.794127470365D0,                  79P     68
1.304692333752D1,1.859406917447D1,-6.053412554761D-1,                 79P     69
1.268340166138D1,1.928041521565D1,0D0,1.248162124289D1,               79P     70
1.962990915245D1,0D0,1D0,0D0,0D0,1D0;                                 79P     71
110,-1.7D1,0D0,9.814954576224D0,-1.7D1,1.248162124289D1,              81P     72
9.814954576224D0;                                                     81P     73
126,7,3,0,0,1,0,0D0,0D0,0D0,0D0,2D-1,4D-1,6D-1,8D-1,1D0,1D0,1D0,      83P     74
1D0,1D0,1D0,1D0,1D0,1D0,1D0,1D0,1D0,-1.7D1,1.248162124289D1,          83P     75
-9.814954576224D0,-1.7D1,1.268161009043D1,-9.122172886459D0,          83P     76
-1.7D1,1.304309484165D1,-7.758758769679D0,-1.7D1,                     83P     77
1.346234649702D1,-5.801127463777D0,-1.7D1,1.376925493474D1,           83P     78
-3.864433716631D0,-1.7D1,1.395746738260D1,-1.933914102490D0,          83P     79
-1.700000000001D1,1.400000000146D1,-6.446587518078D-1,                83P     80
-1.700000000001D1,1.400000000154D1,4.596294034265D-8,0D0,1D0,         83P     81
0D0,0D0,1D0;                                                          83P     82
126,7,3,0,0,1,0,0D0,0D0,0D0,0D0,2D-1,4D-1,6D-1,8D-1,1D0,1D0,1D0,      85P     83
1D0,1D0,1D0,1D0,1D0,1D0,1D0,1D0,1D0,-1.700000000001D1,                85P     84
1.400000000154D1,4.596294034265D-8,-1.700000000001D1,                 85P     85
1.400000000147D1,6.487301373429D-1,-1.7D1,1.395694630255D1,           85P     86
1.945026269093D0,-1.7D1,1.376685788186D1,3.883954347783D0,            85P     87
-1.7D1,1.345814874563D1,5.823442535442D0,-1.7D1,                      85P     88
1.303862600151D1,7.776577921660D0,-1.7D1,1.267958311427D1,            85P     89
9.129194537825D0,-1.7D1,1.248162124289D1,9.814954576224D0,0D0,        85P     90
1D0,0D0,0D0,1D0;                                                      85P     91
110,-1.7D1,0D0,-9.814954576224D0,-1.7D1,1.248162124289D1,             87P     92
-9.814954576224D0;                                                    87P     93
126,7,3,0,0,1,0,0D0,0D0,0D0,0D0,2D-1,4D-1,6D-1,8D-1,1D0,1D0,1D0,      89P     94
1D0,1D0,1D0,1D0,1D0,1D0,1D0,1D0,1D0,1.7D1,1.248162124289D1,           89P     95
-9.814954576224D0,1.639469738577D1,1.268338878097D1,                  89P     96
-1.016442620349D1,1.520591287508D1,1.304692782532D1,                  89P     97
-1.085077126076D1,1.350957644125D1,1.346541821841D1,                  89P     98
-1.183015155741D1,1.183430613648D1,1.377102521089D1,                  89P     99
-1.279736931903D1,1.016683596872D1,1.395792378142D1,                  89P    100
-1.376008366854D1,9.055309816641D0,1.399999999996D1,                  89P    101
-1.440182359341D1,8.500000013454D0,1.400000000001D1,                  89P    102
-1.472243185777D1,0D0,1D0,0D0,0D0,1D0;                                89P    103
126,7,3,0,0,1,0,0D0,0D0,0D0,0D0,2D-1,4D-1,6D-1,8D-1,1D0,1D0,1D0,      91P    104
1D0,1D0,1D0,1D0,1D0,1D0,1D0,1D0,1D0,8.500000013454D0,                 91P    105
1.400000000001D1,-1.472243185777D1,7.944506346650D0,                  91P    106
1.400000000001D1,-1.504314627583D1,6.832661804926D0,                  91P    107
1.395789246911D1,-1.568507001953D1,5.164972118164D0,                  91P    108
1.377092812751D1,-1.664791110982D1,3.489410552127D0,                  91P    109
1.346518930360D1,-1.761529703082D1,1.794127470485D0,                  91P    110
1.304692333752D1,-1.859406917441D1,6.053412554761D-1,                 91P    111
1.268340166138D1,-1.928041521565D1,0D0,1.248162124289D1,              91P    112
-1.962990915245D1,0D0,1D0,0D0,0D0,1D0;                                91P    113
110,1.7D1,0D0,-9.814954576224D0,1.7D1,1.248162124289D1,               93P    114
-9.814954576224D0;                                                    93P    115
126,7,3,0,0,1,0,0D0,0D0,0D0,0D0,2D-1,4D-1,6D-1,8D-1,1D0,1D0,1D0,      95P    116
1D0,1D0,1D0,1D0,1D0,1D0,1D0,1D0,1D0,0D0,1.248162124289D1,             95P    117
-1.962990915245D1,-6.053026142502D-1,1.268338878097D1,                95P    118
-1.928043752517D1,-1.794087125090D0,1.304692782534D1,                 95P    119
-1.859409246783D1,-3.490423558427D0,1.346541821843D1,                 95P    120
-1.761471217140D1,-5.165693865221D0,1.377102521091D1,                 95P    121
-1.664749440881D1,-6.833164025681D0,1.395792378144D1,                 95P    122
-1.568478006280D1,-7.944690196083D0,1.399999999997D1,                 95P    123
-1.504304012911D1,-8.499999999162D0,1.400000000001D1,                 95P    124
-1.472243186482D1,0D0,1D0,0D0,0D0,1D0;                                95P    125
126,7,3,0,0,1,0,0D0,0D0,0D0,0D0,2D-1,4D-1,6D-1,8D-1,1D0,1D0,1D0,      97P    126
1D0,1D0,1D0,1D0,1D0,1D0,1D0,1D0,1D0,-8.499999999162D0,                97P    127
1.400000000001D1,-1.472243186482D1,-9.055493665966D0,                 97P    128
1.400000000001D1,-1.440171744676D1,-1.016733818922D1,                 97P    129
1.395789246911D1,-1.375979371196D1,-1.183502788341D1,                 97P    130
1.377092812751D1,-1.279695261810D1,-1.351058944745D1,                 97P    131
1.346518930360D1,-1.182956669805D1,-1.520587252964D1,                 97P    132
1.304692333752D1,-1.085079455420D1,-1.639465874452D1,                 97P    133
1.268340166138D1,-1.016444851302D1,-1.7D1,1.248162124289D1,           97P    134
-9.814954576224D0,0D0,1D0,0D0,0D0,1D0;                                97P    135
110,0D0,0D0,-1.962990915245D1,0D0,1.248162124289D1,                   99P    136
-1.962990915245D1;                                                    99P    137
126,7,3,0,0,1,0,0D0,0D0,0D0,0D0,2D-1,4D-1,6D-1,8D-1,1D0,1D0,1D0,     101P    138
1D0,1D0,1D0,1D0,1D0,1D0,1D0,1D0,1D0,1.700000000001D1,                101P    139
1.400000000003D1,9.342897561242D-11,1.700000000001D1,                101P    140
1.399999999996D1,-6.487301039122D-1,1.7D1,1.395694631562D1,          101P    141
-1.945026058412D0,1.7D1,1.376685789613D1,-3.883954255093D0,          101P    142
1.7D1,1.345814876031D1,-5.823442457349D0,1.7D1,1.303862601118D1,     101P    143
-7.776577885252D0,1.7D1,1.267958311794D1,-9.129194525124D0,          101P    144
1.7D1,1.248162124289D1,-9.814954576224D0,0D0,1D0,0D0,0D0,1D0;        101P    145
110,1.7D1,0D0,9.814954576224D0,1.7D1,1.248162124289D1,               103P    146
9.814954576224D0;                                                    103P    147
126,7,3,0,0,1,0,0D0,0D0,0D0,0D0,2D-1,4D-1,6D-1,8D-1,1D0,1D0,1D0,     105P    148
1D0,1D0,1D0,1D0,1D0,1D0,1D0,1D0,1D0,1.7D1,1.248162124289D1,          105P    149
9.814954576224D0,1.7D1,1.268161009043D1,9.122172886459D0,1.7D1,      105P    150
1.304309484164D1,7.758758769239D0,1.7D1,1.346234649707D1,            105P    151
5.801127465319D0,1.7D1,1.376925493455D1,3.864433710901D0,1.7D1,      105P    152
1.395746738330D1,1.933914123866D0,1.700000000001D1,                  105P    153
1.399999999995D1,6.446587057494D-1,1.700000000001D1,                 105P    154
1.400000000003D1,9.342897561242D-11,0D0,1D0,0D0,0D0,1D0;             105P    155
126,7,3,0,0,1,0,0D0,0D0,0D0,0D0,2D-1,4D-1,6D-1,8D-1,1D0,1D0,1D0,     107P    156
1D0,1D0,1D0,1D0,1D0,1D0,1D0,1D0,1D0,0D0,1.248162124289D1,            107P    157
1.962990915245D1,6.053026142502D-1,1.268338878097D1,                 107P    158
1.928043752517D1,1.794087125090D0,1.304692782534D1,                  107P    159
1.859409246783D1,3.490423558427D0,1.346541821843D1,                  107P    160
1.761471217140D1,5.165693865221D0,1.377102521091D1,                  107P    161
1.664749440881D1,6.833164025681D0,1.395792378144D1,                  107P    162
1.568478006280D1,7.944690196083D0,1.399999999997D1,                  107P    163
1.504304012911D1,8.499999999162D0,1.400000000001D1,                  107P    164
1.472243186482D1,0D0,1D0,0D0,0D0,1D0;                                107P    165
126,7,3,0,0,1,0,0D0,0D0,0D0,0D0,2D-1,4D-1,6D-1,8D-1,1D0,1D0,1D0,     109P    166
1D0,1D0,1D0,1D0,1D0,1D0,1D0,1D0,1D0,8.499999999162D0,                109P    167
1.400000000001D1,1.472243186482D1,9.055493665966D0,                  109P    168
1.400000000001D1,1.440171744676D1,1.016733818922D1,                  109P    169
1.395789246911D1,1.375979371196D1,1.183502788341D1,                  109P    170
1.377092812751D1,1.279695261810D1,1.351058944745D1,                  109P    171
1.346518930360D1,1.182956669805D1,1.520587252964D1,                  109P    172
1.304692333752D1,1.085079455420D1,1.639465874452D1,                  109P    173
1.268340166138D1,1.016444851302D1,1.7D1,1.248162124289D1,            109P    174
9.814954576224D0,0D0,1D0,0D0,0D0,1D0;                                109P    175
110,0D0,0D0,1.962990915245D1,0D0,1.248162124289D1,                   111P    176
1.962990915245D1;                                                    111P    177
124,1D0,0D0,0D0,0D0,0D0,0D0,1D0,1.4D1,0D0,-1D0,0D0,0D0;              113P    178
100,0D0,0D0,0D0,1.7D1,0D0,8.500000048030D0,1.472243183661D1;         115P    179
124,4.999999999916D-1,8.660254037893D-1,0D0,0D0,0D0,0D0,1D0,         117P    180
1.4D1,8.660254037893D-1,-4.999999999916D-1,0D0,0D0;                  117P    181
100,0D0,0D0,0D0,1.7D1,0D0,8.499999999857D0,1.472243186442D1;         119P    182
124,-5.000000000087D-1,8.660254037794D-1,0D0,0D0,0D0,0D0,1D0,        121P    183
1.4D1,8.660254037794D-1,5.000000000087D-1,0D0,0D0;                   121P    184
100,0D0,0D0,0D0,1.7D1,0D0,8.499999999996D0,1.472243186434D1;         123P    185
124,-1D0,0D0,0D0,0D0,0D0,0D0,1D0,1.4D1,0D0,1D0,0D0,0D0;              125P    186
100,0D0,0D0,0D0,1.7D1,0D0,8.500000000148D0,1.472243186425D1;         127P    187
124,-4.999999999916D-1,-8.660254037893D-1,0D0,0D0,0D0,0D0,1D0,       129P    188
1.4D1,-8.660254037893D-1,4.999999999916D-1,0D0,0D0;                  129P    189
100,0D0,0D0,0D0,1.7D1,0D0,8.499999999857D0,1.472243186442D1;         131P    190
124,5.000000028253D-1,-8.660254021533D-1,0D0,0D0,0D0,0D0,1D0,        133P    191
1.4D1,-8.660254021533D-1,-5.000000028253D-1,0D0,0D0;                 133P    192
100,0D0,0D0,0D0,1.7D1,0D0,8.499999952114D0,1.472243189198D1;         135P    193
502,26,-1.7D1,0D0,9.814954576224D0,0D0,0D0,1.962990915245D1,         137P    194
1.7D1,0D0,9.814954576224D0,1.7D1,0D0,-9.814954576224D0,0D0,0D0,      137P    195
-1.962990915245D1,-1.7D1,0D0,-9.814954576224D0,1.7D1,1.4D1,0D0,      137P    196
8.500000048030D0,1.4D1,-1.472243183661D1,-8.499999999857D0,          137P    197
1.4D1,-1.472243186442D1,-1.7D1,1.4D1,0D0,-8.500000000148D0,          137P    198
1.4D1,1.472243186425D1,8.499999999857D0,1.4D1,1.472243186442D1,      137P    199
-1.7D1,1.248162124289D1,9.814954576224D0,0D0,1.248162124289D1,       137P    200
1.962990915245D1,1.7D1,1.248162124289D1,9.814954576224D0,1.7D1,      137P    201
1.248162124289D1,-9.814954576224D0,0D0,1.248162124289D1,             137P    202
-1.962990915245D1,-1.7D1,1.248162124289D1,-9.814954576224D0,0D0,     137P    203
-1.2D0,-1.1D1,0D0,-1.2D0,1.1D1,0D0,-1.043609643148D-14,              137P    204
-1.219999984123D1,0D0,-1.043609643148D-14,1.219999984123D1,0D0,      137P    205
-5.999998845513D1,-9.799983110653D0,0D0,-5.999998845513D1,           137P    206
9.799983110653D0,0D0,-5.879999391860D1,-1.1D1,0D0,                   137P    207
-5.879999391860D1,1.1D1;                                             137P    208
504,44,57,137,1,137,2,59,137,2,137,3,61,137,3,137,4,63,137,4,        139P    209
137,5,65,137,5,137,6,67,137,6,137,1,115,137,7,137,8,135,137,8,       139P    210
137,9,131,137,9,137,10,127,137,10,137,11,123,137,11,137,12,119,      139P    211
137,12,137,7,77,137,13,137,11,79,137,11,137,14,107,137,14,137,       139P    212
12,109,137,12,137,15,101,137,7,137,16,105,137,15,137,7,89,137,       139P    213
16,137,8,91,137,8,137,17,95,137,17,137,9,97,137,9,137,18,83,137,     139P    214
18,137,10,85,137,10,137,13,81,137,1,137,13,111,137,2,137,14,103,     139P    215
137,3,137,15,93,137,4,137,16,99,137,5,137,17,87,137,6,137,18,37,     139P    216
137,19,137,20,71,137,21,137,22,47,137,20,137,19,75,137,22,137,       139P    217
21,51,137,20,137,22,55,137,19,137,21,19,137,23,137,24,41,137,25,     139P    218
137,26,23,137,24,137,23,31,137,26,137,25,33,137,19,137,25,43,        139P    219
137,20,137,26,27,137,24,137,26,25,137,23,137,25;                     139P    220
128,1,1,1,1,0,0,1,0,0,-1.0192D1,-1.0192D1,1.0192D1,1.0192D1,         141P    221
-1.019199990680D1,-1.019199990680D1,1.019199990680D1,                141P    222
1.019199990680D1,1D0,1D0,1D0,1D0,1.019199990680D1,-6D1,1.0192D1,     141P    223
1.019199990680D1,-6D1,-1.0192D1,-1.019199990680D1,-6D1,1.0192D1,     141P    224
-1.019199990680D1,-6D1,-1.0192D1,-1.0192D1,1.0192D1,                 141P    225
-1.019199990680D1,1.019199990680D1;                                  141P    226
508,2,0,139,37,0,0,0,139,39,0,0;                                     143P    227
510,141,1,0,143;                                                     145P    228
110,0D0,-6.98D1,0D0,0D0,-6.88D1,0D0;                                 147P    229
110,0D0,-6.007851336933D1,-9.721458424287D0,0D0,                     149P    230
-5.872145274606D1,-1.107851511012D1;                                 149P    231
120,147,149,-3.204424515488D0,6.283186304174D-2;                     151P    232
508,4,0,139,37,1,0,0,139,43,1,0,0,139,38,0,0,0,139,44,0,0;           153P    233
510,151,1,0,153;                                                     155P    234
110,0D0,-6.98D1,-3.730349362741D-14,0D0,-6.88D1,                     157P    235
-3.730349362741D-14;                                                 157P    236
110,0D0,-6.007851336933D1,-9.721458424287D0,0D0,                     159P    237
-5.872145274606D1,-1.107851511012D1;                                 159P    238
120,157,159,-6.283186189813D-2,3.204424516632D0;                     161P    239
508,4,0,139,39,1,0,0,139,44,1,0,0,139,40,0,0,0,139,43,0,0;           163P    240
510,161,1,0,163;                                                     165P    241
110,0D0,0D0,0D0,0D0,1D0,0D0;                                         167P    242
110,0D0,-5.995201306512D1,-1.1D1,0D0,-4.799974382114D-2,-1.1D1;      169P    243
120,167,169,-6.283185307180D-2,3.204424506662D0;                     171P    244
508,4,0,139,40,1,0,0,139,41,0,0,0,139,31,1,0,0,139,42,1,0;           173P    245
510,171,1,0,173;                                                     175P    246
110,0D0,0D0,0D0,0D0,1D0,0D0;                                         177P    247
110,0D0,-5.995201306512D1,-1.1D1,0D0,-4.799974382114D-2,-1.1D1;      179P    248
120,177,179,3.078760800518D0,6.346017160251D0;                       181P    249
508,4,0,139,38,1,0,0,139,42,0,0,0,139,33,1,0,0,139,41,1,0;           183P    250
510,181,1,0,183;                                                     185P    251
110,0D0,-1.2D0,0D0,0D0,-2D-1,0D0;                                    187P    252
124,-1.252240093881D-3,1.349709974326D-2,-9.999081258762D-1,         189P    253
-1.653718018104D-1,9.957236667019D-1,9.238170581740D-2,0D0,          189P    254
-1.2D0,9.237321832913D-2,-9.956321854625D-1,-1.355506572217D-2,      189P    255
1.219887913569D1;                                                    189P    256
100,0D0,0D0,0D0,1.2D0,0D0,-2.207673207623D-1,1.179517609060D0;       191P    257
120,187,191,-4.927637221664D-2,3.217979987521D0;                     193P    258
508,4,0,139,33,0,0,0,139,35,1,0,0,139,34,1,0,0,139,36,0,0;           195P    259
510,193,1,0,195;                                                     197P    260
110,0D0,-1.2D0,0D0,0D0,-2D-1,0D0;                                    199P    261
124,1.252240093881D-3,-1.349709974326D-2,9.999081258762D-1,          201P    262
1.653718018104D-1,9.957236667019D-1,9.238170581740D-2,0D0,           201P    263
-1.2D0,-9.237321832912D-2,9.956321854625D-1,1.355506572217D-2,       201P    264
-1.219887913569D1;                                                   201P    265
100,0D0,0D0,0D0,1.2D0,0D0,-2.207673207623D-1,1.179517609060D0;       203P    266
120,199,203,-4.927637221664D-2,3.217979987521D0;                     205P    267
508,4,0,139,31,0,0,0,139,36,1,0,0,139,32,1,0,0,139,35,0,0;           207P    268
510,205,1,0,207;                                                     209P    269
128,1,1,1,1,0,0,1,0,0,-2.041510551855D1,-2.041510551855D1,           211P    270
2.041510551855D1,2.041510551855D1,-1.768D1,-1.768D1,1.768D1,         211P    271
1.768D1,1D0,1D0,1D0,1D0,1.768D1,0D0,2.041510551855D1,1.768D1,        211P    272
0D0,-2.041510551855D1,-1.768D1,0D0,2.041510551855D1,-1.768D1,        211P    273
0D0,-2.041510551855D1,-2.041510551855D1,2.041510551855D1,            211P    274
-1.768D1,1.768D1;                                                    211P    275
508,6,0,139,1,1,0,0,139,2,1,0,0,139,3,1,0,0,139,4,1,0,0,139,5,1,     213P    276
0,0,139,6,1,0;                                                       213P    277
508,2,0,139,32,0,0,0,139,34,0,0;                                     215P    278
510,211,2,0,213,215;                                                 217P    279
128,1,1,1,1,0,0,1,0,0,-3.925981830489D-1,-3.925981830489D-1,         219P    280
2.002250733550D1,2.002250733550D1,-2.800000000011D-1,                219P    281
-2.800000000011D-1,1.428000000005D1,1.428000000005D1,1D0,1D0,        219P    282
1D0,1D0,-1.734D1,-2.800000000011D-1,9.618655484699D0,3.4D-1,         219P    283
-2.800000000011D-1,1.982620824397D1,-1.734D1,1.428000000005D1,       219P    284
9.618655484699D0,3.4D-1,1.428000000005D1,1.982620824397D1,           219P    285
-3.925981830489D-1,2.002250733550D1,-2.800000000011D-1,              219P    286
1.428000000005D1;                                                    219P    287
508,5,0,139,13,1,0,0,139,14,1,0,0,139,26,0,0,0,139,1,0,0,0,139,      221P    288
25,1,0;                                                              221P    289
510,219,1,0,221;                                                     223P    290
110,0D0,2.381495457622D1,0D0,0D0,2.481495457622D1,0D0;               225P    291
110,1.972605155791D1,1.242611339922D1,0D0,1.690385759454D1,          227P    292
1.405550784367D1,0D0;                                                227P    293
120,225,227,-3.204424506470D0,6.283185285728D-2;                     229P    294
508,3,0,139,13,0,0,0,139,24,0,0,0,139,10,1,0;                        231P    295
510,229,1,0,231;                                                     233P    296
110,0D0,2.381495457622D1,0D0,0D0,2.481495457622D1,0D0;               235P    297
110,1.972605155791D1,1.242611339922D1,0D0,1.690385759454D1,          237P    298
1.405550784367D1,0D0;                                                237P    299
120,235,237,-3.204424506470D0,6.283185285728D-2;                     239P    300
508,3,0,139,15,0,0,0,139,14,0,0,0,139,11,1,0;                        241P    301
510,239,1,0,241;                                                     243P    302
110,0D0,2.381495457622D1,0D0,0D0,2.481495457622D1,0D0;               245P    303
110,1.972605155791D1,1.242611339922D1,0D0,1.690385759454D1,          247P    304
1.405550784367D1,0D0;                                                247P    305
120,245,247,-3.204424506470D0,6.283185285728D-2;                     249P    306
508,3,0,139,18,0,0,0,139,16,0,0,0,139,12,1,0;                        251P    307
510,249,1,0,251;                                                     253P    308
128,1,1,1,1,0,0,1,0,0,-3.925981830489D-1,-3.925981830489D-1,         255P    309
2.002250733550D1,2.002250733550D1,-2.800000001229D-1,                255P    310
-2.800000001229D-1,1.428000000627D1,1.428000000627D1,1D0,1D0,        255P    311
1D0,1D0,-1.7D1,-2.800000001229D-1,-1.020755275927D1,-1.7D1,          255P    312
-2.800000001229D-1,1.020755275927D1,-1.7D1,1.428000000627D1,         255P    313
-1.020755275927D1,-1.7D1,1.428000000627D1,1.020755275927D1,          255P    314
-3.925981830489D-1,2.002250733550D1,-2.800000001229D-1,              255P    315
1.428000000627D1;                                                    255P    316
508,5,0,139,23,1,0,0,139,24,1,0,0,139,25,0,0,0,139,6,0,0,0,139,      257P    317
30,1,0;                                                              257P    318
510,255,1,0,257;                                                     259P    319
110,0D0,2.381495457622D1,0D0,0D0,2.481495457622D1,0D0;               261P    320
110,1.972605155791D1,1.242611339922D1,0D0,1.690385759454D1,          263P    321
1.405550784367D1,0D0;                                                263P    322
120,261,263,-6.283185288001D-2,3.204424506447D0;                     265P    323
508,3,0,139,19,0,0,0,139,17,0,0,0,139,7,1,0;                         267P    324
510,265,1,0,267;                                                     269P    325
110,0D0,2.381495457622D1,0D0,0D0,2.481495457622D1,0D0;               271P    326
110,1.972605155791D1,1.242611339922D1,0D0,1.690385759454D1,          273P    327
1.405550784367D1,0D0;                                                273P    328
120,271,273,-6.283185288001D-2,3.204424506447D0;                     275P    329
508,3,0,139,21,0,0,0,139,20,0,0,0,139,8,1,0;                         277P    330
510,275,1,0,277;                                                     279P    331
110,0D0,2.381495457622D1,0D0,0D0,2.481495457622D1,0D0;               281P    332
110,1.972605155791D1,1.242611339922D1,0D0,1.690385759454D1,          283P    333
1.405550784367D1,0D0;                                                283P    334
120,281,283,-6.283185288001D-2,3.204424506447D0;                     285P    335
508,3,0,139,23,0,0,0,139,22,0,0,0,139,9,1,0;                         287P    336
510,285,1,0,287;                                                     289P    337
128,1,1,1,1,0,0,1,0,0,-3.925981830489D-1,-3.925981830489D-1,         291P    338
2.002250733550D1,2.002250733550D1,-2.800000000011D-1,                291P    339
-2.800000000011D-1,1.428000000005D1,1.428000000005D1,1D0,1D0,        291P    340
1D0,1D0,1.734D1,-2.800000000011D-1,-9.618655484699D0,-3.4D-1,        291P    341
-2.800000000011D-1,-1.982620824397D1,1.734D1,1.428000000005D1,       291P    342
-9.618655484699D0,-3.4D-1,1.428000000005D1,-1.982620824397D1,        291P    343
-3.925981830489D-1,2.002250733550D1,-2.800000000011D-1,              291P    344
1.428000000005D1;                                                    291P    345
508,5,0,139,19,1,0,0,139,20,1,0,0,139,29,0,0,0,139,4,0,0,0,139,      293P    346
28,1,0;                                                              293P    347
510,291,1,0,293;                                                     295P    348
128,1,1,1,1,0,0,1,0,0,-3.925981830489D-1,-3.925981830489D-1,         297P    349
2.002250733550D1,2.002250733550D1,-2.800000000011D-1,                297P    350
-2.800000000011D-1,1.428000000005D1,1.428000000005D1,1D0,1D0,        297P    351
1D0,1D0,3.4D-1,-2.800000000011D-1,-1.982620824397D1,-1.734D1,        297P    352
-2.800000000011D-1,-9.618655484699D0,3.4D-1,1.428000000005D1,        297P    353
-1.982620824397D1,-1.734D1,1.428000000005D1,-9.618655484699D0,       297P    354
-3.925981830489D-1,2.002250733550D1,-2.800000000011D-1,              297P    355
1.428000000005D1;                                                    297P    356
508,5,0,139,21,1,0,0,139,22,1,0,0,139,30,0,0,0,139,5,0,0,0,139,      299P    357
29,1,0;                                                              299P    358
510,297,1,0,299;                                                     301P    359
128,1,1,1,1,0,0,1,0,0,-3.925981830489D-1,-3.925981830489D-1,         303P    360
2.002250733550D1,2.002250733550D1,-2.800000000023D-1,                303P    361
-2.800000000023D-1,1.428000000012D1,1.428000000012D1,1D0,1D0,        303P    362
1D0,1D0,1.7D1,-2.800000000023D-1,1.020755275927D1,1.7D1,             303P    363
-2.800000000023D-1,-1.020755275927D1,1.7D1,1.428000000012D1,         303P    364
1.020755275927D1,1.7D1,1.428000000012D1,-1.020755275927D1,           303P    365
-3.925981830489D-1,2.002250733550D1,-2.800000000023D-1,              303P    366
1.428000000012D1;                                                    303P    367
508,5,0,139,17,1,0,0,139,28,0,0,0,139,3,0,0,0,139,27,1,0,0,139,      305P    368
18,1,0;                                                              305P    369
510,303,1,0,305;                                                     307P    370
128,1,1,1,1,0,0,1,0,0,-3.925981830489D-1,-3.925981830489D-1,         309P    371
2.002250733550D1,2.002250733550D1,-2.800000000011D-1,                309P    372
-2.800000000011D-1,1.428000000005D1,1.428000000005D1,1D0,1D0,        309P    373
1D0,1D0,-3.4D-1,-2.800000000011D-1,1.982620824397D1,1.734D1,         309P    374
-2.800000000011D-1,9.618655484699D0,-3.4D-1,1.428000000005D1,        309P    375
1.982620824397D1,1.734D1,1.428000000005D1,9.618655484699D0,          309P    376
-3.925981830489D-1,2.002250733550D1,-2.800000000011D-1,              309P    377
1.428000000005D1;                                                    309P    378
508,5,0,139,15,1,0,0,139,16,1,0,0,139,27,0,0,0,139,2,0,0,0,139,      311P    379
26,1,0;                                                              311P    380
510,309,1,0,311;                                                     313P    381
128,1,1,1,1,0,0,1,0,0,-1.769456169954D1,-1.769456169954D1,           315P    382
1.769456169954D1,1.769456169954D1,-1.768000000003D1,                 315P    383
-1.768000000003D1,1.768000000003D1,1.768000000003D1,1D0,1D0,1D0,     315P    384
1D0,1.768000000003D1,1.4D1,1.769456169954D1,1.768000000003D1,        315P    385
1.4D1,-1.769456169954D1,-1.768000000003D1,1.4D1,                     315P    386
1.769456169954D1,-1.768000000003D1,1.4D1,-1.769456169954D1,          315P    387
-1.769456169954D1,1.769456169954D1,-1.768000000003D1,                315P    388
1.768000000003D1;                                                    315P    389
508,6,0,139,7,0,0,0,139,12,0,0,0,139,11,0,0,0,139,10,0,0,0,139,      317P    390
9,0,0,0,139,8,0,0;                                                   317P    391
510,315,1,0,317;                                                     319P    392
514,21,145,0,155,1,165,1,175,1,185,1,197,0,209,0,217,0,223,1,        321P    393
233,1,243,1,253,1,259,1,269,1,279,1,289,1,295,1,301,1,307,1,313,     321P    394
1,319,1;                                                             321P    395
124,-1D0,0D0,0D0,0D0,0D0,0D0,-1D0,-6D1,0D0,-1D0,0D0,0D0;             323P    396
100,0D0,0D0,0D0,8.647D0,0D0,-8.647D0,0D0;                            325P    397
110,8.647D0,-6D1,0D0,8.647D0,-1D1,0D0;                               327P    398
124,1D0,0D0,0D0,0D0,0D0,0D0,-1D0,-6D1,0D0,1D0,0D0,0D0;               329P    399
100,0D0,0D0,0D0,8.647D0,0D0,-8.647D0,0D0;                            331P    400
110,-8.647D0,-6D1,0D0,-8.647D0,-1D1,0D0;                             333P    401
124,-1D0,0D0,0D0,0D0,0D0,0D0,1D0,-1D1,0D0,1D0,0D0,0D0;               335P    402
100,0D0,0D0,0D0,8.647D0,0D0,-8.647D0,0D0;                            337P    403
124,1D0,0D0,0D0,0D0,0D0,0D0,1D0,-1D1,0D0,-1D0,0D0,0D0;               339P    404
100,0D0,0D0,0D0,8.647D0,0D0,-8.647D0,0D0;                            341P    405
124,-1D0,0D0,0D0,0D0,0D0,0D0,1D0,-1D1,0D0,1D0,0D0,0D0;               343P    406
100,0D0,0D0,0D0,1.1D1,0D0,-1.1D1,0D0;                                345P    407
124,1D0,0D0,0D0,0D0,0D0,0D0,1D0,-1D1,0D0,-1D0,0D0,0D0;               347P    408
100,0D0,0D0,0D0,1.1D1,0D0,-1.1D1,0D0;                                349P    409
502,6,-8.647D0,-6D1,0D0,8.647D0,-6D1,0D0,-8.647D0,-1D1,0D0,          351P    410
8.647D0,-1D1,0D0,1.1D1,-1D1,0D0,-1.1D1,-1D1,0D0;                     351P    411
504,8,331,351,1,351,2,325,351,2,351,1,337,351,3,351,4,341,351,4,     353P    412
351,3,333,351,1,351,3,327,351,2,351,4,345,351,5,351,6,349,351,6,     353P    413
351,5;                                                               353P    414
110,0D0,-6D1,0D0,0D0,-5.9D1,0D0;                                     355P    415
110,-8.647D0,-6.1D1,0D0,-8.647D0,-9D0,0D0;                           357P    416
120,355,357,3.078760800518D0,6.346017160251D0;                       359P    417
508,4,0,353,2,0,0,0,353,6,1,0,0,353,4,1,0,0,353,5,0,0;               361P    418
510,359,1,0,361;                                                     363P    419
110,0D0,-6D1,0D0,0D0,-5.9D1,0D0;                                     365P    420
110,-8.647D0,-6.1D1,0D0,-8.647D0,-9D0,0D0;                           367P    421
120,365,367,-6.283185307180D-2,3.204424506662D0;                     369P    422
508,4,0,353,1,0,0,0,353,5,1,0,0,353,3,1,0,0,353,6,0,0;               371P    423
510,369,1,0,371;                                                     373P    424
128,1,1,1,1,0,0,1,0,0,-1.145423493989D1,-1.145423493989D1,           375P    425
1.145423493989D1,1.145423493989D1,-1.144D1,-1.144D1,1.144D1,         375P    426
1.144D1,1D0,1D0,1D0,1D0,1.144D1,-1D1,-1.145423493989D1,1.144D1,      375P    427
-1D1,1.145423493989D1,-1.144D1,-1D1,-1.145423493989D1,-1.144D1,      375P    428
-1D1,1.145423493989D1,-1.145423493989D1,1.145423493989D1,            375P    429
-1.144D1,1.144D1;                                                    375P    430
508,2,0,353,7,0,0,0,353,8,0,0;                                       377P    431
508,2,0,353,3,0,0,0,353,4,0,0;                                       379P    432
510,375,2,0,377,379;                                                 381P    433
514,3,363,1,373,1,381,1;                                             383P    434
186,321,1,0;                                                         385P    435
S      1G      5D    386P    435                                        T      1
