 PTC IGES file: sroub-m27x70-csn_02_1101.igs                            S      1
1H,,1H;,24HSROUB-M27X70-CSN_02_1101,28Hsroub-m27x70-csn_02_1101.igs,    G      1
49HPro/ENGINEER by Parametric Technology Corporation,7H2007160,32,38,7, G      2
38,15,24HSROUB-M27X70-CSN_02_1101,1.,2,2HMM,32768,0.5,                  G      3
15H20110917.003019,0.0109776, 109.78,13HVladimir Zima,7HUnknown,10,0,   G      4
15H20110917.003019;                                                     G      5
     314       1       1       1       0       0       0       001000200D      1
     314       0       4       1       0                   COLOR       1D      2
     314       2       1       1       0       0       0       001000200D      3
     314       0       1       1       0                   COLOR       2D      4
     314       3       1       1       0       0       0       001000200D      5
     314       0       1       1       0                   COLOR       3D      6
     314       4       1       1       0       0       0       001000200D      7
     314       0       1       1       0                   COLOR       4D      8
     314       5       1       1       0       0       0       001000200D      9
     314       0       8       1       0                   COLOR       5D     10
     314       6       1       1       0       0       0       001000200D     11
     314       0       8       1       0                   COLOR       6D     12
     314       7       1       1       0       0       0       001000200D     13
     314       0       5       1       0                   COLOR       7D     14
     314       8       1       1       0       0       0       001000200D     15
     314       0       8       1       0                   COLOR       8D     16
     124       9       1       1       0       0       0       001000000D     17
     124       0       0       2       0                   XFORM       1D     18
     100      11       1       1       0       0      17       001010000D     19
     100       0       0       2       0                     ARC       1D     20
     124      13       1       1       0       0       0       001000000D     21
     124       0       0       2       0                   XFORM       2D     22
     100      15       1       1       0       0      21       001010000D     23
     100       0       0       1       0                     ARC       2D     24
     110      16       1       1       0       0       0       001010000D     25
     110       0       0       2       0                    LINE       1D     26
     110      18       1       1       0       0       0       001010000D     27
     110       0       0       2       0                    LINE       2D     28
     124      20       1       1       0       0       0       001000000D     29
     124       0       0       2       0                   XFORM       3D     30
     100      22       1       1       0       0      29       001010000D     31
     100       0       0       1       0                     ARC       3D     32
     110      23       1       1       0       0       0       001010000D     33
     110       0       0       2       0                    LINE       3D     34
     124      25       1       1       0       0       0       001000000D     35
     124       0       0       1       0                   XFORM       4D     36
     100      26       1       1       0       0      35       001010000D     37
     100       0       0       1       0                     ARC       4D     38
     124      27       1       1       0       0       0       001000000D     39
     124       0       0       2       0                   XFORM       5D     40
     100      29       1       1       0       0      39       001010000D     41
     100       0       0       1       0                     ARC       5D     42
     110      30       1       1       0       0       0       001010000D     43
     110       0       0       2       0                    LINE       4D     44
     124      32       1       1       0       0       0       001000000D     45
     124       0       0       1       0                   XFORM       6D     46
     100      33       1       1       0       0      45       001010000D     47
     100       0       0       1       0                     ARC       6D     48
     124      34       1       1       0       0       0       001000000D     49
     124       0       0       2       0                   XFORM       7D     50
     100      36       1       1       0       0      49       001010000D     51
     100       0       0       1       0                     ARC       7D     52
     124      37       1       1       0       0       0       001000000D     53
     124       0       0       2       0                   XFORM       8D     54
     100      39       1       1       0       0      53       001010000D     55
     100       0       0       1       0                     ARC       8D     56
     110      40       1       1       0       0       0       001010000D     57
     110       0       0       1       0                    LINE       5D     58
     110      41       1       1       0       0       0       001010000D     59
     110       0       0       1       0                    LINE       6D     60
     110      42       1       1       0       0       0       001010000D     61
     110       0       0       1       0                    LINE       7D     62
     110      43       1       1       0       0       0       001010000D     63
     110       0       0       1       0                    LINE       8D     64
     110      44       1       1       0       0       0       001010000D     65
     110       0       0       1       0                    LINE       9D     66
     110      45       1       1       0       0       0       001010000D     67
     110       0       0       1       0                    LINE      10D     68
     124      46       1       1       0       0       0       001000000D     69
     124       0       0       1       0                   XFORM       9D     70
     100      47       1       1       0       0      69       001010000D     71
     100       0       0       1       0                     ARC       9D     72
     124      48       1       1       0       0       0       001000000D     73
     124       0       0       1       0                   XFORM      10D     74
     100      49       1       1       0       0      73       001010000D     75
     100       0       0       1       0                     ARC      10D     76
     126      50       1       1       0       0       0       001010000D     77
     126       0       0      10       0                B_SPLINE       1D     78
     126      60       1       1       0       0       0       001010000D     79
     126       0       0      10       0                B_SPLINE       2D     80
     110      70       1       1       0       0       0       001010000D     81
     110       0       0       2       0                    LINE      11D     82
     126      72       1       1       0       0       0       001010000D     83
     126       0       0      10       0                B_SPLINE       3D     84
     126      82       1       1       0       0       0       001010000D     85
     126       0       0      10       0                B_SPLINE       4D     86
     110      92       1       1       0       0       0       001010000D     87
     110       0       0       2       0                    LINE      12D     88
     126      94       1       1       0       0       0       001010000D     89
     126       0       0      10       0                B_SPLINE       5D     90
     126     104       1       1       0       0       0       001010000D     91
     126       0       0       9       0                B_SPLINE       6D     92
     110     113       1       1       0       0       0       001010000D     93
     110       0       0       2       0                    LINE      13D     94
     126     115       1       1       0       0       0       001010000D     95
     126       0       0      10       0                B_SPLINE       7D     96
     126     125       1       1       0       0       0       001010000D     97
     126       0       0      10       0                B_SPLINE       8D     98
     110     135       1       1       0       0       0       001010000D     99
     110       0       0       2       0                    LINE      14D    100
     126     137       1       1       0       0       0       001010000D    101
     126       0       0      10       0                B_SPLINE       9D    102
     110     147       1       1       0       0       0       001010000D    103
     110       0       0       2       0                    LINE      15D    104
     126     149       1       1       0       0       0       001010000D    105
     126       0       0      10       0                B_SPLINE      10D    106
     126     159       1       1       0       0       0       001010000D    107
     126       0       0      10       0                B_SPLINE      11D    108
     126     169       1       1       0       0       0       001010000D    109
     126       0       0      10       0                B_SPLINE      12D    110
     110     179       1       1       0       0       0       001010000D    111
     110       0       0       2       0                    LINE      16D    112
     124     181       1       1       0       0       0       001000000D    113
     124       0       0       1       0                   XFORM      11D    114
     100     182       1       1       0       0     113       001010000D    115
     100       0       0       1       0                     ARC      11D    116
     124     183       1       1       0       0       0       001000000D    117
     124       0       0       2       0                   XFORM      12D    118
     100     185       1       1       0       0     117       001010000D    119
     100       0       0       1       0                     ARC      12D    120
     124     186       1       1       0       0       0       001000000D    121
     124       0       0       2       0                   XFORM      13D    122
     100     188       1       1       0       0     121       001010000D    123
     100       0       0       1       0                     ARC      13D    124
     124     189       1       1       0       0       0       001000000D    125
     124       0       0       2       0                   XFORM      14D    126
     100     191       1       1       0       0     125       001010000D    127
     100       0       0       1       0                     ARC      14D    128
     124     192       1       1       0       0       0       001000000D    129
     124       0       0       2       0                   XFORM      15D    130
     100     194       1       1       0       0     129       001010000D    131
     100       0       0       1       0                     ARC      15D    132
     124     195       1       1       0       0       0       001000000D    133
     124       0       0       2       0                   XFORM      16D    134
     100     197       1       1       0       0     133       001010000D    135
     100       0       0       1       0                     ARC      16D    136
     502     198       1       1       0       0       0       001010000D    137
     502       0       0      15       1                  VERTEX       1D    138
     504     213       1       1       0       0       0       000010001D    139
     504       0       0      12       1                    EDGE       1D    140
     128     225       1       1       0       0       0       001010000D    141
     128       0       0       6       0                  SPLSRF       1D    142
     508     231       1       1       0       0       0       001010000D    143
     508       0       0       1       1                EDGELOOP       1D    144
     510     232       1       1       0       0       0       000010000D    145
     510       0       0       1       1                    FACE       1D    146
     110     233       1       1       0       0       0       001010000D    147
     110       0       0       2       0                    LINE      17D    148
     110     235       1       1       0       0       0       001010000D    149
     110       0       0       2       0                    LINE      18D    150
     120     237       1       1       0       0       0       001010000D    151
     120       0       0       1       0                    SREV       1D    152
     508     238       1       1       0       0       0       001010000D    153
     508       0       0       1       1                EDGELOOP       2D    154
     510     239       1       1       0       0       0       000010000D    155
     510       0       0       1       1                    FACE       2D    156
     110     240       1       1       0       0       0       001010000D    157
     110       0       0       2       0                    LINE      19D    158
     110     242       1       1       0       0       0       001010000D    159
     110       0       0       2       0                    LINE      20D    160
     120     244       1       1       0       0       0       001010000D    161
     120       0       0       1       0                    SREV       2D    162
     508     245       1       1       0       0       0       001010000D    163
     508       0       0       1       1                EDGELOOP       3D    164
     510     246       1       1       0       0       0       000010000D    165
     510       0       0       1       1                    FACE       3D    166
     110     247       1       1       0       0       0       001010000D    167
     110       0       0       1       0                    LINE      21D    168
     110     248       1       1       0       0       0       001010000D    169
     110       0       0       2       0                    LINE      22D    170
     120     250       1       1       0       0       0       001010000D    171
     120       0       0       1       0                    SREV       3D    172
     508     251       1       1       0       0       0       001010000D    173
     508       0       0       1       1                EDGELOOP       4D    174
     510     252       1       1       0       0       0       000010000D    175
     510       0       0       1       1                    FACE       4D    176
     110     253       1       1       0       0       0       001010000D    177
     110       0       0       1       0                    LINE      23D    178
     110     254       1       1       0       0       0       001010000D    179
     110       0       0       2       0                    LINE      24D    180
     120     256       1       1       0       0       0       001010000D    181
     120       0       0       1       0                    SREV       4D    182
     508     257       1       1       0       0       0       001010000D    183
     508       0       0       1       1                EDGELOOP       5D    184
     510     258       1       1       0       0       0       000010000D    185
     510       0       0       1       1                    FACE       5D    186
     110     259       1       1       0       0       0       001010000D    187
     110       0       0       1       0                    LINE      25D    188
     124     260       1       1       0       0       0       001000000D    189
     124       0       0       4       0                   XFORM      17D    190
     100     264       1       1       0       0     189       001010000D    191
     100       0       0       1       0                     ARC      17D    192
     120     265       1       1       0       0       0       001010000D    193
     120       0       0       1       0                    SREV       5D    194
     508     266       1       1       0       0       0       001010000D    195
     508       0       0       1       1                EDGELOOP       6D    196
     510     267       1       1       0       0       0       000010000D    197
     510       0       0       1       1                    FACE       6D    198
     110     268       1       1       0       0       0       001010000D    199
     110       0       0       1       0                    LINE      26D    200
     124     269       1       1       0       0       0       001000000D    201
     124       0       0       4       0                   XFORM      18D    202
     100     273       1       1       0       0     201       001010000D    203
     100       0       0       1       0                     ARC      18D    204
     120     274       1       1       0       0       0       001010000D    205
     120       0       0       1       0                    SREV       6D    206
     508     275       1       1       0       0       0       001010000D    207
     508       0       0       1       1                EDGELOOP       7D    208
     510     276       1       1       0       0       0       000010000D    209
     510       0       0       1       1                    FACE       7D    210
     128     277       1       1       0       0       0       001010000D    211
     128       0       0       6       0                  SPLSRF       2D    212
     508     283       1       1       0       0       0       001010000D    213
     508       0       0       2       1                EDGELOOP       8D    214
     508     285       1       1       0       0       0       001010000D    215
     508       0       0       1       1                EDGELOOP       9D    216
     510     286       1       1       0       0       0       000010000D    217
     510       0       0       1       1                    FACE       8D    218
     128     287       1       1       0       0       0       001010000D    219
     128       0       0       8       0                  SPLSRF       3D    220
     508     295       1       1       0       0       0       001010000D    221
     508       0       0       2       1                EDGELOOP      10D    222
     510     297       1       1       0       0       0       000010000D    223
     510       0       0       1       1                    FACE       9D    224
     110     298       1       1       0       0       0       001010000D    225
     110       0       0       1       0                    LINE      27D    226
     110     299       1       1       0       0       0       001010000D    227
     110       0       0       2       0                    LINE      28D    228
     120     301       1       1       0       0       0       001010000D    229
     120       0       0       1       0                    SREV       7D    230
     508     302       1       1       0       0       0       001010000D    231
     508       0       0       1       1                EDGELOOP      11D    232
     510     303       1       1       0       0       0       000010000D    233
     510       0       0       1       1                    FACE      10D    234
     110     304       1       1       0       0       0       001010000D    235
     110       0       0       1       0                    LINE      29D    236
     110     305       1       1       0       0       0       001010000D    237
     110       0       0       2       0                    LINE      30D    238
     120     307       1       1       0       0       0       001010000D    239
     120       0       0       1       0                    SREV       8D    240
     508     308       1       1       0       0       0       001010000D    241
     508       0       0       1       1                EDGELOOP      12D    242
     510     309       1       1       0       0       0       000010000D    243
     510       0       0       1       1                    FACE      11D    244
     110     310       1       1       0       0       0       001010000D    245
     110       0       0       1       0                    LINE      31D    246
     110     311       1       1       0       0       0       001010000D    247
     110       0       0       2       0                    LINE      32D    248
     120     313       1       1       0       0       0       001010000D    249
     120       0       0       1       0                    SREV       9D    250
     508     314       1       1       0       0       0       001010000D    251
     508       0       0       1       1                EDGELOOP      13D    252
     510     315       1       1       0       0       0       000010000D    253
     510       0       0       1       1                    FACE      12D    254
     128     316       1       1       0       0       0       001010000D    255
     128       0       0       8       0                  SPLSRF       4D    256
     508     324       1       1       0       0       0       001010000D    257
     508       0       0       2       1                EDGELOOP      14D    258
     510     326       1       1       0       0       0       000010000D    259
     510       0       0       1       1                    FACE      13D    260
     110     327       1       1       0       0       0       001010000D    261
     110       0       0       1       0                    LINE      33D    262
     110     328       1       1       0       0       0       001010000D    263
     110       0       0       2       0                    LINE      34D    264
     120     330       1       1       0       0       0       001010000D    265
     120       0       0       1       0                    SREV      10D    266
     508     331       1       1       0       0       0       001010000D    267
     508       0       0       1       1                EDGELOOP      15D    268
     510     332       1       1       0       0       0       000010000D    269
     510       0       0       1       1                    FACE      14D    270
     110     333       1       1       0       0       0       001010000D    271
     110       0       0       1       0                    LINE      35D    272
     110     334       1       1       0       0       0       001010000D    273
     110       0       0       2       0                    LINE      36D    274
     120     336       1       1       0       0       0       001010000D    275
     120       0       0       1       0                    SREV      11D    276
     508     337       1       1       0       0       0       001010000D    277
     508       0       0       1       1                EDGELOOP      16D    278
     510     338       1       1       0       0       0       000010000D    279
     510       0       0       1       1                    FACE      15D    280
     110     339       1       1       0       0       0       001010000D    281
     110       0       0       1       0                    LINE      37D    282
     110     340       1       1       0       0       0       001010000D    283
     110       0       0       2       0                    LINE      38D    284
     120     342       1       1       0       0       0       001010000D    285
     120       0       0       1       0                    SREV      12D    286
     508     343       1       1       0       0       0       001010000D    287
     508       0       0       1       1                EDGELOOP      17D    288
     510     344       1       1       0       0       0       000010000D    289
     510       0       0       1       1                    FACE      16D    290
     128     345       1       1       0       0       0       001010000D    291
     128       0       0       8       0                  SPLSRF       5D    292
     508     353       1       1       0       0       0       001010000D    293
     508       0       0       2       1                EDGELOOP      18D    294
     510     355       1       1       0       0       0       000010000D    295
     510       0       0       1       1                    FACE      17D    296
     128     356       1       1       0       0       0       001010000D    297
     128       0       0       8       0                  SPLSRF       6D    298
     508     364       1       1       0       0       0       001010000D    299
     508       0       0       2       1                EDGELOOP      19D    300
     510     366       1       1       0       0       0       000010000D    301
     510       0       0       1       1                    FACE      18D    302
     128     367       1       1       0       0       0       001010000D    303
     128       0       0       8       0                  SPLSRF       7D    304
     508     375       1       1       0       0       0       001010000D    305
     508       0       0       2       1                EDGELOOP      20D    306
     510     377       1       1       0       0       0       000010000D    307
     510       0       0       1       1                    FACE      19D    308
     128     378       1       1       0       0       0       001010000D    309
     128       0       0       8       0                  SPLSRF       8D    310
     508     386       1       1       0       0       0       001010000D    311
     508       0       0       2       1                EDGELOOP      21D    312
     510     388       1       1       0       0       0       000010000D    313
     510       0       0       1       1                    FACE      20D    314
     128     389       1       1       0       0       0       001010000D    315
     128       0       0       8       0                  SPLSRF       9D    316
     508     397       1       1       0       0       0       001010000D    317
     508       0       0       2       1                EDGELOOP      22D    318
     510     399       1       1       0       0       0       000010000D    319
     510       0       0       1       1                    FACE      21D    320
     514     400       1       1       0       0       0       000010000D    321
     514       0       0       3       1                   SHELL       1D    322
     124     403       1       1       0       0       0       001000000D    323
     124       0       0       1       0                   XFORM      19D    324
     100     404       1       1       0       0     323       001010000D    325
     100       0       0       1       0                     ARC      19D    326
     110     405       1       1       0       0       0       001010000D    327
     110       0       0       1       0                    LINE      39D    328
     124     406       1       1       0       0       0       001000000D    329
     124       0       0       1       0                   XFORM      20D    330
     100     407       1       1       0       0     329       001010000D    331
     100       0       0       1       0                     ARC      20D    332
     110     408       1       1       0       0       0       001010000D    333
     110       0       0       1       0                    LINE      40D    334
     124     409       1       1       0       0       0       001000000D    335
     124       0       0       1       0                   XFORM      21D    336
     100     410       1       1       0       0     335       001010000D    337
     100       0       0       1       0                     ARC      21D    338
     124     411       1       1       0       0       0       001000000D    339
     124       0       0       1       0                   XFORM      22D    340
     100     412       1       1       0       0     339       001010000D    341
     100       0       0       1       0                     ARC      22D    342
     124     413       1       1       0       0       0       001000000D    343
     124       0       0       1       0                   XFORM      23D    344
     100     414       1       1       0       0     343       001010000D    345
     100       0       0       1       0                     ARC      23D    346
     124     415       1       1       0       0       0       001000000D    347
     124       0       0       1       0                   XFORM      24D    348
     100     416       1       1       0       0     347       001010000D    349
     100       0       0       1       0                     ARC      24D    350
     502     417       1       1       0       0       0       001010000D    351
     502       0       0       2       1                  VERTEX       2D    352
     504     419       1       1       0       0       0       000010001D    353
     504       0       0       3       1                    EDGE       2D    354
     110     422       1       1       0       0       0       001010000D    355
     110       0       0       1       0                    LINE      41D    356
     110     423       1       1       0       0       0       001010000D    357
     110       0       0       1       0                    LINE      42D    358
     120     424       1       1       0       0       0       001010000D    359
     120       0       0       1       0                    SREV      13D    360
     508     425       1       1       0       0       0       001010000D    361
     508       0       0       1       1                EDGELOOP      23D    362
     510     426       1       1       0       0       0       000010000D    363
     510       0       0       1       1                    FACE      22D    364
     110     427       1       1       0       0       0       001010000D    365
     110       0       0       1       0                    LINE      43D    366
     110     428       1       1       0       0       0       001010000D    367
     110       0       0       1       0                    LINE      44D    368
     120     429       1       1       0       0       0       001010000D    369
     120       0       0       1       0                    SREV      14D    370
     508     430       1       1       0       0       0       001010000D    371
     508       0       0       1       1                EDGELOOP      24D    372
     510     431       1       1       0       0       0       000010000D    373
     510       0       0       1       1                    FACE      23D    374
     128     432       1       1       0       0       0       001010000D    375
     128       0       0       6       0                  SPLSRF      10D    376
     508     438       1       1       0       0       0       001010000D    377
     508       0       0       1       1                EDGELOOP      25D    378
     508     439       1       1       0       0       0       001010000D    379
     508       0       0       1       1                EDGELOOP      26D    380
     510     440       1       1       0       0       0       000010000D    381
     510       0       0       1       1                    FACE      24D    382
     514     441       1       1       0       0       0       000000000D    383
     514       0       0       1       1                   SHELL       2D    384
     186     442       1       1       0       0       0       000000000D    385
     186       0       0       1       0                    MSBR       1D    386
314,1.1D0,1.2D0,1D2;                                                   1P      1
314,1.1D1,1.1D1,1.1D1;                                                 3P      2
314,3.92D1,1.2D0,1.2D0;                                                5P      3
314,4.1D1,0D0,2.2D1;                                                   7P      4
314,8.784D1,9.49D1,1D2;                                                9P      5
314,9.6D1,9.6D1,9.6D1;                                                11P      6
314,9.8D1,6.27D1,0D0;                                                 13P      7
314,1D2,1D2,9.49D1;                                                   15P      8
124,0D0,1D0,0D0,1.132427485118D-14,0D0,0D0,-1D0,                      17P      9
-6.999998592675D1,-1D0,0D0,0D0,0D0;                                   17P     10
100,0D0,0D0,0D0,1.189997987385D1,0D0,-1.189997987385D1,               19P     11
-1.968133154125D-14;                                                  19P     12
124,0D0,-1D0,0D0,0D0,0D0,0D0,-1D0,-6.999998592675D1,1D0,0D0,0D0,      21P     13
-5.151434834261D-14;                                                  21P     14
100,0D0,0D0,0D0,1.189997987385D1,0D0,-1.189997987385D1,0D0;           23P     15
110,-4.469249391724D-9,-6.999998860094D1,-1.189998859946D1,           25P     16
-3.802614599788D-9,-6.839999030122D1,-1.349999029996D1;               25P     17
110,4.469247493767D-9,-6.999998860094D1,1.189998859946D1,             27P     18
3.802613926241D-9,-6.839999030122D1,1.349999029996D1;                 27P     19
124,0D0,-1D0,0D0,0D0,0D0,0D0,-1D0,-6.839999303813D1,1D0,0D0,0D0,      29P     20
0D0;                                                                  29P     21
100,0D0,0D0,0D0,1.35D1,0D0,-1.35D1,0D0;                               31P     22
110,1.275900846293D-12,-1.6D0,-1.35D1,-3.802614599788D-9,             33P     23
-6.839999030122D1,-1.349999029996D1;                                  33P     24
124,0D0,-1D0,0D0,0D0,0D0,0D0,1D0,-1.6D0,-1D0,0D0,0D0,0D0;             35P     25
100,0D0,0D0,0D0,1.35D1,0D0,-1.35D1,0D0;                               37P     26
124,0D0,1D0,0D0,0D0,0D0,0D0,-1D0,-6.839999303813D1,-1D0,0D0,0D0,      39P     27
0D0;                                                                  39P     28
100,0D0,0D0,0D0,1.35D1,0D0,-1.35D1,0D0;                               41P     29
110,-1.274932430136D-12,-1.6D0,1.35D1,3.802613926241D-9,              43P     30
-6.839999030122D1,1.349999029996D1;                                   43P     31
124,0D0,1D0,0D0,0D0,0D0,0D0,1D0,-1.6D0,1D0,0D0,0D0,0D0;               45P     32
100,0D0,0D0,0D0,1.35D1,0D0,-1.35D1,0D0;                               47P     33
124,2.742776492037D-12,0D0,1D0,-4.141592624407D-11,0D0,1D0,0D0,       49P     34
-1.6D0,-1D0,0D0,2.742776492037D-12,1.51D1;                            49P     35
100,0D0,0D0,0D0,1.6D0,0D0,5.916247960286D-13,1.6D0;                   51P     36
124,-2.742653326671D-12,0D0,-1D0,4.141406662050D-11,0D0,1D0,0D0,      53P     37
-1.6D0,1D0,0D0,-2.742653326671D-12,-1.51D1;                           53P     38
100,0D0,0D0,0D0,1.6D0,0D0,5.916247960286D-13,1.6D0;                   55P     39
110,-2.05D1,0D0,1.183568051839D1,0D0,0D0,2.367136103677D1;            57P     40
110,0D0,0D0,2.367136103677D1,2.05D1,0D0,1.183568051839D1;             59P     41
110,2.05D1,0D0,1.183568051839D1,2.05D1,0D0,-1.183568051839D1;         61P     42
110,2.05D1,0D0,-1.183568051839D1,0D0,0D0,-2.367136103677D1;           63P     43
110,0D0,0D0,-2.367136103677D1,-2.05D1,0D0,-1.183568051839D1;          65P     44
110,-2.05D1,0D0,-1.183568051839D1,-2.05D1,0D0,1.183568051839D1;       67P     45
124,0D0,-1D0,0D0,0D0,0D0,0D0,1D0,0D0,-1D0,0D0,0D0,0D0;                69P     46
100,0D0,0D0,0D0,1.509999985675D1,0D0,-1.509999985675D1,0D0;           71P     47
124,0D0,1D0,0D0,0D0,0D0,0D0,1D0,0D0,1D0,0D0,0D0,0D0;                  73P     48
100,0D0,0D0,0D0,1.509999985675D1,0D0,-1.509999985675D1,0D0;           75P     49
126,7,3,0,0,1,0,0D0,0D0,0D0,0D0,2D-1,4D-1,6D-1,8D-1,1D0,1D0,1D0,      77P     50
1D0,1D0,1D0,1D0,1D0,1D0,1D0,1D0,1D0,-2.05D1,1.516901385172D1,         77P     51
1.183568051839D1,-1.977010364330D1,1.541231263729D1,                  77P     52
1.225708637641D1,-1.833660627136D1,1.585068832383D1,                  77P     53
1.308471646998D1,-1.629103698180D1,1.635534160516D1,                  77P     54
1.426572644995D1,-1.427078745009D1,1.672388320210D1,                  77P     55
1.543211806092D1,-1.226002569064D1,1.694925944807D1,                  77P     56
1.659303190401D1,-1.091964334976D1,1.699999999995D1,                  77P     57
1.736690200934D1,-1.025000000116D1,1.700000000002D1,                  77P     58
1.775352077691D1,0D0,1D0,0D0,0D0,1D0;                                 77P     59
126,7,3,0,0,1,0,0D0,0D0,0D0,0D0,2D-1,4D-1,6D-1,8D-1,1D0,1D0,1D0,      79P     60
1D0,1D0,1D0,1D0,1D0,1D0,1D0,1D0,1D0,-1.025000000116D1,                79P     61
1.700000000002D1,1.775352077691D1,-9.580136491314D0,                  79P     62
1.700000000002D1,1.814026665465D1,-8.239373121455D0,                  79P     63
1.694922197008D1,1.891435674715D1,-6.228348262679D0,                  79P     64
1.672376693717D1,2.007542249071D1,-4.207752266061D0,                  79P     65
1.635506786599D1,2.124201413328D1,-2.163449342778D0,                  79P     66
1.585068496809D1,2.242229297634D1,-7.299457514821D-1,                 79P     67
1.541232910221D1,2.324992666066D1,0D0,1.516901385172D1,               79P     68
2.367136103677D1,0D0,1D0,0D0,0D0,1D0;                                 79P     69
110,-2.05D1,0D0,1.183568051839D1,-2.05D1,1.516901385172D1,            81P     70
1.183568051839D1;                                                     81P     71
126,7,3,0,0,1,0,0D0,0D0,0D0,0D0,2D-1,4D-1,6D-1,8D-1,1D0,1D0,1D0,      83P     72
1D0,1D0,1D0,1D0,1D0,1D0,1D0,1D0,1D0,-2.05D1,1.516901385172D1,         83P     73
-1.183568051839D1,-2.05D1,1.541018160835D1,-1.100025090311D1,         83P     74
-2.050000000012D1,1.584609473327D1,-9.356110123207D0,                 83P     75
-2.049999999959D1,1.635165799606D1,-6.995450004890D0,                 83P     76
-2.050000000151D1,1.672175178625D1,-4.660027646206D0,                 83P     77
-2.049999999437D1,1.694871167936D1,-2.332053665081D0,                 83P     78
-2.050000001212D1,1.699999999411D1,-7.773753208285D-1,                83P     79
-2.050000001212D1,1.700000000255D1,-9.270725186500D-9,0D0,1D0,        83P     80
0D0,0D0,1D0;                                                          83P     81
126,7,3,0,0,1,0,0D0,0D0,0D0,0D0,2D-1,4D-1,6D-1,8D-1,1D0,1D0,1D0,      85P     82
1D0,1D0,1D0,1D0,1D0,1D0,1D0,1D0,1D0,-2.050000001212D1,                85P     83
1.700000000255D1,-9.270725186500D-9,-2.050000001212D1,                85P     84
1.700000000246D1,7.822699093167D-1,-2.049999999437D1,                 85P     85
1.694808525402D1,2.345413639849D0,-2.050000000151D1,                  85P     86
1.671886953683D1,4.683500063723D0,-2.049999999959D1,                  85P     87
1.634661049216D1,7.022282316754D0,-2.050000000012D1,                  85P     88
1.584072194060D1,9.377533672310D0,-2.05D1,1.540774465142D1,           85P     89
1.100869276957D1,-2.05D1,1.516901385172D1,1.183568051839D1,0D0,       85P     90
1D0,0D0,0D0,1D0;                                                      85P     91
110,-2.05D1,0D0,-1.183568051839D1,-2.05D1,1.516901385172D1,           87P     92
-1.183568051839D1;                                                    87P     93
126,7,3,0,0,1,0,0D0,0D0,0D0,0D0,2D-1,4D-1,6D-1,8D-1,1D0,1D0,1D0,      89P     94
1D0,1D0,1D0,1D0,1D0,1D0,1D0,1D0,1D0,2.05D1,1.516901385172D1,          89P     95
-1.183568051839D1,1.977010364320D1,1.541231263732D1,                  89P     96
-1.225708637647D1,1.833660627108D1,1.585068832391D1,                  89P     97
-1.308471647014D1,1.629103698121D1,1.635534160529D1,                  89P     98
-1.426572645030D1,1.427078744939D1,1.672388320222D1,                  89P     99
-1.543211806132D1,1.226002568906D1,1.694925944818D1,                  89P    100
-1.659303190492D1,1.091964334951D1,1.699999999993D1,                  89P    101
-1.736690200948D1,1.025000000082D1,1.7D1,-1.775352077711D1,0D0,       89P    102
1D0,0D0,0D0,1D0;                                                      89P    103
126,7,3,0,0,1,0,0D0,0D0,0D0,0D0,2D-1,4D-1,6D-1,8D-1,1D0,1D0,1D0,      91P    104
1D0,1D0,1D0,1D0,1D0,1D0,1D0,1D0,1D0,1.025000000082D1,1.7D1,           91P    105
-1.775352077711D1,9.580136491659D0,1.7D1,-1.814026665445D1,           91P    106
8.239373121295D0,1.694922197009D1,-1.891435674724D1,                  91P    107
6.228348262722D0,1.672376693717D1,-2.007542249069D1,                  91P    108
4.207752266049D0,1.635506786599D1,-2.124201413329D1,                  91P    109
2.163449342782D0,1.585068496809D1,-2.242229297634D1,                  91P    110
7.299457514821D-1,1.541232910221D1,-2.324992666066D1,0D0,             91P    111
1.516901385172D1,-2.367136103677D1,0D0,1D0,0D0,0D0,1D0;               91P    112
110,2.05D1,0D0,-1.183568051839D1,2.05D1,1.516901385172D1,             93P    113
-1.183568051839D1;                                                    93P    114
126,7,3,0,0,1,0,0D0,0D0,0D0,0D0,2D-1,4D-1,6D-1,8D-1,1D0,1D0,1D0,      95P    115
1D0,1D0,1D0,1D0,1D0,1D0,1D0,1D0,1D0,0D0,1.516901385172D1,             95P    116
-2.367136103677D1,-7.298963567227D-1,1.541231263729D1,                95P    117
-2.324995517874D1,-2.163393728706D0,1.585068832384D1,                 95P    118
-2.242232508514D1,-4.208963018319D0,1.635534160519D1,                 95P    119
-2.124131510514D1,-6.229212550087D0,1.672388320213D1,                 95P    120
-2.007492349414D1,-8.239974309597D0,1.694925944809D1,                 95P    121
-1.891400965101D1,-9.580356650521D0,1.699999999996D1,                 95P    122
-1.814013954567D1,-1.024999999899D1,1.700000000002D1,                 95P    123
-1.775352077817D1,0D0,1D0,0D0,0D0,1D0;                                95P    124
126,7,3,0,0,1,0,0D0,0D0,0D0,0D0,2D-1,4D-1,6D-1,8D-1,1D0,1D0,1D0,      97P    125
1D0,1D0,1D0,1D0,1D0,1D0,1D0,1D0,1D0,-1.024999999899D1,                97P    126
1.700000000002D1,-1.775352077817D1,-1.091986350884D1,                 97P    127
1.700000000002D1,-1.736677490044D1,-1.226062687847D1,                 97P    128
1.694922197008D1,-1.659268480805D1,-1.427165173734D1,                 97P    129
1.672376693717D1,-1.543161906444D1,-1.629224773393D1,                 97P    130
1.635506786599D1,-1.426502742188D1,-1.833655065722D1,                 97P    131
1.585068496809D1,-1.308474857882D1,-1.977005424852D1,                 97P    132
1.541232910221D1,-1.225711489450D1,-2.05D1,1.516901385172D1,          97P    133
-1.183568051839D1,0D0,1D0,0D0,0D0,1D0;                                97P    134
110,0D0,0D0,-2.367136103677D1,0D0,1.516901385172D1,                   99P    135
-2.367136103677D1;                                                    99P    136
126,7,3,0,0,1,0,0D0,0D0,0D0,0D0,2D-1,4D-1,6D-1,8D-1,1D0,1D0,1D0,     101P    137
1D0,1D0,1D0,1D0,1D0,1D0,1D0,1D0,1D0,2.050000000393D1,                101P    138
1.700000000132D1,-4.100261609869D-8,2.050000000393D1,                101P    139
1.700000000124D1,-7.822699699216D-1,2.049999999817D1,                101P    140
1.694808526465D1,-2.345413427775D0,2.050000000049D1,                 101P    141
1.671886954843D1,-4.683499999265D0,2.049999999987D1,                 101P    142
1.634661050409D1,-7.022282250302D0,2.050000000004D1,                 101P    143
1.584072194846D1,-9.377533643538D0,2.05D1,1.540774465440D1,          101P    144
-1.100869275924D1,2.05D1,1.516901385172D1,-1.183568051839D1,0D0,     101P    145
1D0,0D0,0D0,1D0;                                                     101P    146
110,2.05D1,0D0,1.183568051839D1,2.05D1,1.516901385172D1,             103P    147
1.183568051839D1;                                                    103P    148
126,7,3,0,0,1,0,0D0,0D0,0D0,0D0,2D-1,4D-1,6D-1,8D-1,1D0,1D0,1D0,     105P    149
1D0,1D0,1D0,1D0,1D0,1D0,1D0,1D0,1D0,2.05D1,1.516901385172D1,         105P    150
1.183568051839D1,2.05D1,1.541018161222D1,1.100025088973D1,           105P    151
2.050000000004D1,1.584609474350D1,9.356110083254D0,                  105P    152
2.049999999987D1,1.635165801105D1,6.995449929077D0,                  105P    153
2.050000000049D1,1.672175180213D1,4.660027528087D0,                  105P    154
2.049999999817D1,1.694871168879D1,2.332053526477D0,                  105P    155
2.050000000393D1,1.700000000131D1,7.773751129949D-1,                 105P    156
2.050000000393D1,1.700000000132D1,-4.100261609869D-8,0D0,1D0,        105P    157
0D0,0D0,1D0;                                                         105P    158
126,7,3,0,0,1,0,0D0,0D0,0D0,0D0,2D-1,4D-1,6D-1,8D-1,1D0,1D0,1D0,     107P    159
1D0,1D0,1D0,1D0,1D0,1D0,1D0,1D0,1D0,0D0,1.516901385172D1,            107P    160
2.367136103677D1,7.298963567227D-1,1.541231263729D1,                 107P    161
2.324995517874D1,2.163393728706D0,1.585068832384D1,                  107P    162
2.242232508514D1,4.208963018319D0,1.635534160519D1,                  107P    163
2.124131510514D1,6.229212550087D0,1.672388320213D1,                  107P    164
2.007492349414D1,8.239974309597D0,1.694925944809D1,                  107P    165
1.891400965101D1,9.580356650521D0,1.699999999996D1,                  107P    166
1.814013954567D1,1.024999999899D1,1.700000000002D1,                  107P    167
1.775352077817D1,0D0,1D0,0D0,0D0,1D0;                                107P    168
126,7,3,0,0,1,0,0D0,0D0,0D0,0D0,2D-1,4D-1,6D-1,8D-1,1D0,1D0,1D0,     109P    169
1D0,1D0,1D0,1D0,1D0,1D0,1D0,1D0,1D0,1.024999999899D1,                109P    170
1.700000000002D1,1.775352077817D1,1.091986350884D1,                  109P    171
1.700000000002D1,1.736677490044D1,1.226062687847D1,                  109P    172
1.694922197008D1,1.659268480805D1,1.427165173734D1,                  109P    173
1.672376693717D1,1.543161906444D1,1.629224773393D1,                  109P    174
1.635506786599D1,1.426502742188D1,1.833655065722D1,                  109P    175
1.585068496809D1,1.308474857882D1,1.977005424852D1,                  109P    176
1.541232910221D1,1.225711489450D1,2.05D1,1.516901385172D1,           109P    177
1.183568051839D1,0D0,1D0,0D0,0D0,1D0;                                109P    178
110,0D0,0D0,2.367136103677D1,0D0,1.516901385172D1,                   111P    179
2.367136103677D1;                                                    111P    180
124,1D0,0D0,0D0,0D0,0D0,0D0,1D0,1.7D1,0D0,-1D0,0D0,0D0;              113P    181
100,0D0,0D0,0D0,2.05D1,0D0,1.025000000018D1,1.775352077748D1;        115P    182
124,4.999999999916D-1,8.660254037893D-1,0D0,0D0,0D0,0D0,1D0,         117P    183
1.7D1,8.660254037893D-1,-4.999999999916D-1,0D0,0D0;                  117P    184
100,0D0,0D0,0D0,2.05D1,0D0,1.024999999983D1,1.775352077768D1;        119P    185
124,-5.000000000087D-1,8.660254037794D-1,0D0,0D0,0D0,0D0,1D0,        121P    186
1.7D1,8.660254037794D-1,5.000000000087D-1,0D0,0D0;                   121P    187
100,0D0,0D0,0D0,2.05D1,0D0,1.024999999999D1,1.775352077758D1;        123P    188
124,-1D0,1.637311442643D-9,0D0,0D0,0D0,0D0,1D0,1.7D1,                125P    189
1.637311442643D-9,1D0,0D0,0D0;                                       125P    190
100,0D0,0D0,0D0,2.05D1,0D0,1.025000002925D1,1.775352076070D1;        127P    191
124,-4.999999999916D-1,-8.660254037893D-1,0D0,0D0,0D0,0D0,1D0,       129P    192
1.7D1,-8.660254037893D-1,4.999999999916D-1,0D0,0D0;                  129P    193
100,0D0,0D0,0D0,2.05D1,0D0,1.024999997076D1,1.775352079446D1;        131P    194
124,5.000000000087D-1,-8.660254037794D-1,0D0,0D0,0D0,0D0,1D0,        133P    195
1.7D1,-8.660254037794D-1,-5.000000000087D-1,0D0,0D0;                 133P    196
100,0D0,0D0,0D0,2.05D1,0D0,1.024999999999D1,1.775352077758D1;        135P    197
502,26,-2.05D1,0D0,1.183568051839D1,0D0,0D0,2.367136103677D1,        137P    198
2.05D1,0D0,1.183568051839D1,2.05D1,0D0,-1.183568051839D1,0D0,        137P    199
0D0,-2.367136103677D1,-2.05D1,0D0,-1.183568051839D1,2.05D1,          137P    200
1.7D1,0D0,1.025000000018D1,1.7D1,-1.775352077748D1,                  137P    201
-1.024999999983D1,1.7D1,-1.775352077768D1,-2.05D1,1.7D1,             137P    202
3.356488420536D-8,-1.025000000018D1,1.7D1,1.775352077748D1,          137P    203
1.024999999983D1,1.7D1,1.775352077768D1,-2.05D1,                     137P    204
1.516901385172D1,1.183568051839D1,0D0,1.516901385172D1,              137P    205
2.367136103677D1,2.05D1,1.516901385172D1,1.183568051839D1,           137P    206
2.05D1,1.516901385172D1,-1.183568051839D1,0D0,1.516901385172D1,      137P    207
-2.367136103677D1,-2.05D1,1.516901385172D1,-1.183568051839D1,        137P    208
0D0,-1.6D0,-1.35D1,0D0,-1.6D0,1.35D1,0D0,0D0,-1.509999985675D1,      137P    209
0D0,0D0,1.509999985675D1,0D0,-6.999998592675D1,                      137P    210
-1.189997987385D1,0D0,-6.999998592675D1,1.189997987385D1,0D0,        137P    211
-6.839999303813D1,-1.35D1,0D0,-6.839999303813D1,1.35D1;              137P    212
504,44,57,137,1,137,2,59,137,2,137,3,61,137,3,137,4,63,137,4,        139P    213
137,5,65,137,5,137,6,67,137,6,137,1,115,137,7,137,8,135,137,8,       139P    214
137,9,131,137,9,137,10,127,137,10,137,11,123,137,11,137,12,119,      139P    215
137,12,137,7,77,137,13,137,11,79,137,11,137,14,107,137,14,137,       139P    216
12,109,137,12,137,15,101,137,7,137,16,105,137,15,137,7,89,137,       139P    217
16,137,8,91,137,8,137,17,95,137,17,137,9,97,137,9,137,18,83,137,     139P    218
18,137,10,85,137,10,137,13,81,137,1,137,13,111,137,2,137,14,103,     139P    219
137,3,137,15,93,137,4,137,16,99,137,5,137,17,87,137,6,137,18,37,     139P    220
137,19,137,20,71,137,21,137,22,47,137,20,137,19,75,137,22,137,       139P    221
21,51,137,20,137,22,55,137,19,137,21,19,137,23,137,24,41,137,25,     139P    222
137,26,23,137,24,137,23,31,137,26,137,25,33,137,19,137,25,43,        139P    223
137,20,137,26,27,137,24,137,26,25,137,23,137,25;                     139P    224
128,1,1,1,1,0,0,1,0,0,-1.2376D1,-1.2376D1,1.2376D1,1.2376D1,         141P    225
-1.237599989363D1,-1.237599989363D1,1.237599989363D1,                141P    226
1.237599989363D1,1D0,1D0,1D0,1D0,1.237599989363D1,-7D1,1.2376D1,     141P    227
1.237599989363D1,-7D1,-1.2376D1,-1.237599989363D1,-7D1,1.2376D1,     141P    228
-1.237599989363D1,-7D1,-1.2376D1,-1.2376D1,1.2376D1,                 141P    229
-1.237599989363D1,1.237599989363D1;                                  141P    230
508,2,0,139,37,0,0,0,139,39,0,0;                                     143P    231
510,141,1,0,143;                                                     145P    232
110,1.132427485118D-14,-8.19D1,0D0,1.132427485118D-14,-8.09D1,       147P    233
0D0;                                                                 147P    234
110,1.132427485118D-14,-7.009316579472D1,-1.180680027367D1,          149P    235
1.132427485118D-14,-6.830679310921D1,-1.359316782533D1;              149P    236
120,147,149,-3.204424514705D0,6.283186224198D-2;                     151P    237
508,4,0,139,37,1,0,0,139,43,1,0,0,139,38,0,0,0,139,44,0,0;           153P    238
510,151,1,0,153;                                                     155P    239
110,0D0,-8.19D1,-5.151434834261D-14,0D0,-8.09D1,                     157P    240
-5.151434834261D-14;                                                 157P    241
110,0D0,-7.009316579472D1,-1.180680027367D1,0D0,                     159P    242
-6.830679310921D1,-1.359316782533D1;                                 159P    243
120,157,159,-6.283186111527D-2,3.204424515832D0;                     161P    244
508,4,0,139,39,1,0,0,139,44,1,0,0,139,40,0,0,0,139,43,0,0;           163P    245
510,161,1,0,163;                                                     165P    246
110,0D0,0D0,0D0,0D0,1D0,0D0;                                         167P    247
110,0D0,-6.973601517835D1,-1.35D1,0D0,-2.639997023853D-1,            169P    248
-1.35D1;                                                             169P    249
120,167,169,-6.283185307180D-2,3.204424506662D0;                     171P    250
508,4,0,139,40,1,0,0,139,41,0,0,0,139,31,1,0,0,139,42,1,0;           173P    251
510,171,1,0,173;                                                     175P    252
110,0D0,0D0,0D0,0D0,1D0,0D0;                                         177P    253
110,0D0,-6.973601517835D1,-1.35D1,0D0,-2.639997023853D-1,            179P    254
-1.35D1;                                                             179P    255
120,177,179,3.078760800518D0,6.346017160251D0;                       181P    256
508,4,0,139,38,1,0,0,139,42,0,0,0,139,33,1,0,0,139,41,1,0;           183P    257
510,181,1,0,183;                                                     185P    258
110,0D0,-1.6D0,0D0,0D0,-6D-1,0D0;                                    187P    259
124,-1.077902564083D-3,1.306195443664D-2,-9.999141080475D-1,         189P    260
-1.979059525829D-1,9.966123273153D-1,8.224274462305D-2,0D0,          189P    261
-1.6D0,8.223568063314D-2,-9.965267263366D-1,-1.310635447569D-2,      189P    262
1.509870303152D1;                                                    189P    263
100,0D0,0D0,0D0,1.6D0,0D0,-2.622841679749D-1,1.578355794880D0;       191P    264
120,187,191,-4.972512334260D-2,3.217531236396D0;                     193P    265
508,4,0,139,33,0,0,0,139,35,1,0,0,139,34,1,0,0,139,36,0,0;           195P    266
510,193,1,0,195;                                                     197P    267
110,0D0,-1.6D0,0D0,0D0,-6D-1,0D0;                                    199P    268
124,1.077902564083D-3,-1.306195443664D-2,9.999141080475D-1,          201P    269
1.979059525829D-1,9.966123273153D-1,8.224274462305D-2,0D0,           201P    270
-1.6D0,-8.223568063314D-2,9.965267263366D-1,1.310635447569D-2,       201P    271
-1.509870303152D1;                                                   201P    272
100,0D0,0D0,0D0,1.6D0,0D0,-2.622841679749D-1,1.578355794880D0;       203P    273
120,199,203,-4.972512334260D-2,3.217531236396D0;                     205P    274
508,4,0,139,31,0,0,0,139,36,1,0,0,139,32,1,0,0,139,35,0,0;           207P    275
510,205,1,0,207;                                                     209P    276
128,1,1,1,1,0,0,1,0,0,-2.461821547825D1,-2.461821547825D1,           211P    277
2.461821547825D1,2.461821547825D1,-2.132D1,-2.132D1,2.132D1,         211P    278
2.132D1,1D0,1D0,1D0,1D0,2.132D1,0D0,2.461821547825D1,2.132D1,        211P    279
0D0,-2.461821547825D1,-2.132D1,0D0,2.461821547825D1,-2.132D1,        211P    280
0D0,-2.461821547825D1,-2.461821547825D1,2.461821547825D1,            211P    281
-2.132D1,2.132D1;                                                    211P    282
508,6,0,139,1,1,0,0,139,2,1,0,0,139,3,1,0,0,139,4,1,0,0,139,5,1,     213P    283
0,0,139,6,1,0;                                                       213P    284
508,2,0,139,32,0,0,0,139,34,0,0;                                     215P    285
510,211,2,0,213,215;                                                 217P    286
128,1,1,1,1,0,0,1,0,0,-4.734272207355D-1,-4.734272207355D-1,         219P    287
2.414478825751D1,2.414478825751D1,-3.400000000013D-1,                219P    288
-3.400000000013D-1,1.734000000007D1,1.734000000007D1,1D0,1D0,        219P    289
1D0,1D0,-2.091D1,-3.400000000013D-1,1.159896690802D1,4.1D-1,         219P    290
-3.400000000013D-1,2.390807464714D1,-2.091D1,1.734000000007D1,       219P    291
1.159896690802D1,4.1D-1,1.734000000007D1,2.390807464714D1,           219P    292
-4.734272207355D-1,2.414478825751D1,-3.400000000013D-1,              219P    293
1.734000000007D1;                                                    219P    294
508,5,0,139,13,1,0,0,139,14,1,0,0,139,26,0,0,0,139,1,0,0,0,139,      221P    295
25,1,0;                                                              221P    296
510,219,1,0,221;                                                     223P    297
110,0D0,2.883568051839D1,0D0,0D0,2.983568051839D1,0D0;               225P    298
110,2.378544785750D1,1.510314579506D1,0D0,2.038591317927D1,          227P    299
1.706586805666D1,0D0;                                                227P    300
120,225,227,-3.204424506474D0,6.283185303111D-2;                     229P    301
508,3,0,139,13,0,0,0,139,24,0,0,0,139,10,1,0;                        231P    302
510,229,1,0,231;                                                     233P    303
110,0D0,2.883568051839D1,0D0,0D0,2.983568051839D1,0D0;               235P    304
110,2.378544785750D1,1.510314579506D1,0D0,2.038591317927D1,          237P    305
1.706586805666D1,0D0;                                                237P    306
120,235,237,-3.204424506474D0,6.283185303111D-2;                     239P    307
508,3,0,139,15,0,0,0,139,14,0,0,0,139,11,1,0;                        241P    308
510,239,1,0,241;                                                     243P    309
110,0D0,2.883568051839D1,0D0,0D0,2.983568051839D1,0D0;               245P    310
110,2.378544785750D1,1.510314579506D1,0D0,2.038591317927D1,          247P    311
1.706586805666D1,0D0;                                                247P    312
120,245,247,-3.204424506474D0,6.283185303111D-2;                     249P    313
508,3,0,139,18,0,0,0,139,16,0,0,0,139,12,1,0;                        251P    314
510,249,1,0,251;                                                     253P    315
128,1,1,1,1,0,0,1,0,0,-4.734272207355D-1,-4.734272207355D-1,         255P    316
2.414478825751D1,2.414478825751D1,-3.400000002038D-1,                255P    317
-3.400000002038D-1,1.734000001039D1,1.734000001039D1,1D0,1D0,        255P    318
1D0,1D0,-2.05D1,-3.400000002038D-1,-1.230910773912D1,-2.05D1,        255P    319
-3.400000002038D-1,1.230910773912D1,-2.05D1,1.734000001039D1,        255P    320
-1.230910773912D1,-2.05D1,1.734000001039D1,1.230910773912D1,         255P    321
-4.734272207355D-1,2.414478825751D1,-3.400000002038D-1,              255P    322
1.734000001039D1;                                                    255P    323
508,5,0,139,23,1,0,0,139,24,1,0,0,139,25,0,0,0,139,6,0,0,0,139,      257P    324
30,1,0;                                                              257P    325
510,255,1,0,257;                                                     259P    326
110,0D0,2.883568051839D1,0D0,0D0,2.983568051839D1,0D0;               261P    327
110,2.378544785750D1,1.510314579506D1,0D0,2.038591317927D1,          263P    328
1.706586805666D1,0D0;                                                263P    329
120,261,263,-6.283185250883D-2,3.204424487485D0;                     265P    330
508,3,0,139,19,0,0,0,139,17,0,0,0,139,7,1,0;                         267P    331
510,265,1,0,267;                                                     269P    332
110,0D0,2.883568051839D1,0D0,0D0,2.983568051839D1,0D0;               271P    333
110,2.378544785750D1,1.510314579506D1,0D0,2.038591317927D1,          273P    334
1.706586805666D1,0D0;                                                273P    335
120,271,273,-6.283185250883D-2,3.204424487485D0;                     275P    336
508,3,0,139,21,0,0,0,139,20,0,0,0,139,8,1,0;                         277P    337
510,275,1,0,277;                                                     279P    338
110,0D0,2.883568051839D1,0D0,0D0,2.983568051839D1,0D0;               281P    339
110,2.378544785750D1,1.510314579506D1,0D0,2.038591317927D1,          283P    340
1.706586805666D1,0D0;                                                283P    341
120,281,283,-6.283185250883D-2,3.204424487485D0;                     285P    342
508,3,0,139,23,0,0,0,139,22,0,0,0,139,9,1,0;                         287P    343
510,285,1,0,287;                                                     289P    344
128,1,1,1,1,0,0,1,0,0,-4.734272207355D-1,-4.734272207355D-1,         291P    345
2.414478825751D1,2.414478825751D1,-3.400000000003D-1,                291P    346
-3.400000000003D-1,1.734000000001D1,1.734000000001D1,1D0,1D0,        291P    347
1D0,1D0,2.091D1,-3.400000000003D-1,-1.159896690802D1,-4.1D-1,        291P    348
-3.400000000003D-1,-2.390807464714D1,2.091D1,1.734000000001D1,       291P    349
-1.159896690802D1,-4.1D-1,1.734000000001D1,-2.390807464714D1,        291P    350
-4.734272207355D-1,2.414478825751D1,-3.400000000003D-1,              291P    351
1.734000000001D1;                                                    291P    352
508,5,0,139,19,1,0,0,139,20,1,0,0,139,29,0,0,0,139,4,0,0,0,139,      293P    353
28,1,0;                                                              293P    354
510,291,1,0,293;                                                     295P    355
128,1,1,1,1,0,0,1,0,0,-4.734272207355D-1,-4.734272207355D-1,         297P    356
2.414478825751D1,2.414478825751D1,-3.400000000013D-1,                297P    357
-3.400000000013D-1,1.734000000007D1,1.734000000007D1,1D0,1D0,        297P    358
1D0,1D0,4.1D-1,-3.400000000013D-1,-2.390807464714D1,-2.091D1,        297P    359
-3.400000000013D-1,-1.159896690802D1,4.1D-1,1.734000000007D1,        297P    360
-2.390807464714D1,-2.091D1,1.734000000007D1,-1.159896690802D1,       297P    361
-4.734272207355D-1,2.414478825751D1,-3.400000000013D-1,              297P    362
1.734000000007D1;                                                    297P    363
508,5,0,139,21,1,0,0,139,22,1,0,0,139,30,0,0,0,139,5,0,0,0,139,      299P    364
29,1,0;                                                              299P    365
510,297,1,0,299;                                                     301P    366
128,1,1,1,1,0,0,1,0,0,-4.734272207355D-1,-4.734272207355D-1,         303P    367
2.414478825751D1,2.414478825751D1,-3.400000001059D-1,                303P    368
-3.400000001059D-1,1.734000000540D1,1.734000000540D1,1D0,1D0,        303P    369
1D0,1D0,2.05D1,-3.400000001059D-1,1.230910773912D1,2.05D1,           303P    370
-3.400000001059D-1,-1.230910773912D1,2.05D1,1.734000000540D1,        303P    371
1.230910773912D1,2.05D1,1.734000000540D1,-1.230910773912D1,          303P    372
-4.734272207355D-1,2.414478825751D1,-3.400000001059D-1,              303P    373
1.734000000540D1;                                                    303P    374
508,5,0,139,17,1,0,0,139,28,0,0,0,139,3,0,0,0,139,27,1,0,0,139,      305P    375
18,1,0;                                                              305P    376
510,303,1,0,305;                                                     307P    377
128,1,1,1,1,0,0,1,0,0,-4.734272207355D-1,-4.734272207355D-1,         309P    378
2.414478825751D1,2.414478825751D1,-3.400000000013D-1,                309P    379
-3.400000000013D-1,1.734000000007D1,1.734000000007D1,1D0,1D0,        309P    380
1D0,1D0,-4.1D-1,-3.400000000013D-1,2.390807464714D1,2.091D1,         309P    381
-3.400000000013D-1,1.159896690802D1,-4.1D-1,1.734000000007D1,        309P    382
2.390807464714D1,2.091D1,1.734000000007D1,1.159896690802D1,          309P    383
-4.734272207355D-1,2.414478825751D1,-3.400000000013D-1,              309P    384
1.734000000007D1;                                                    309P    385
508,5,0,139,15,1,0,0,139,16,1,0,0,139,27,0,0,0,139,2,0,0,0,139,      311P    386
26,1,0;                                                              311P    387
510,309,1,0,311;                                                     313P    388
128,1,1,1,1,0,0,1,0,0,-2.133755969651D1,-2.133755969651D1,           315P    389
2.133755969651D1,2.133755969651D1,-2.132000001702D1,                 315P    390
-2.132000001702D1,2.132000004977D1,2.132000004977D1,1D0,1D0,1D0,     315P    391
1D0,2.132000001702D1,1.7D1,2.133755969651D1,2.132000001702D1,        315P    392
1.7D1,-2.133755969651D1,-2.132000004977D1,1.7D1,                     315P    393
2.133755969651D1,-2.132000004977D1,1.7D1,-2.133755969651D1,          315P    394
-2.133755969651D1,2.133755969651D1,-2.132000001702D1,                315P    395
2.132000004977D1;                                                    315P    396
508,6,0,139,7,0,0,0,139,12,0,0,0,139,11,0,0,0,139,10,0,0,0,139,      317P    397
9,0,0,0,139,8,0,0;                                                   317P    398
510,315,1,0,317;                                                     319P    399
514,21,145,0,155,1,165,1,175,1,185,1,197,0,209,0,217,0,223,1,        321P    400
233,1,243,1,253,1,259,1,269,1,279,1,289,1,295,1,301,1,307,1,313,     321P    401
1,319,1;                                                             321P    402
124,-1D0,0D0,0D0,0D0,0D0,0D0,-1D0,-7D1,0D0,-1D0,0D0,0D0;             323P    403
100,0D0,0D0,0D0,1.1876D1,0D0,-1.1876D1,0D0;                          325P    404
110,1.1876D1,-7D1,0D0,1.1876D1,-1D1,0D0;                             327P    405
124,1D0,0D0,0D0,0D0,0D0,0D0,-1D0,-7D1,0D0,1D0,0D0,0D0;               329P    406
100,0D0,0D0,0D0,1.1876D1,0D0,-1.1876D1,0D0;                          331P    407
110,-1.1876D1,-7D1,0D0,-1.1876D1,-1D1,0D0;                           333P    408
124,-1D0,0D0,0D0,0D0,0D0,0D0,1D0,-1D1,0D0,1D0,0D0,0D0;               335P    409
100,0D0,0D0,0D0,1.1876D1,0D0,-1.1876D1,0D0;                          337P    410
124,1D0,0D0,0D0,0D0,0D0,0D0,1D0,-1D1,0D0,-1D0,0D0,0D0;               339P    411
100,0D0,0D0,0D0,1.1876D1,0D0,-1.1876D1,0D0;                          341P    412
124,-1D0,0D0,0D0,0D0,0D0,0D0,1D0,-1D1,0D0,1D0,0D0,0D0;               343P    413
100,0D0,0D0,0D0,1.35D1,0D0,-1.35D1,0D0;                              345P    414
124,1D0,0D0,0D0,0D0,0D0,0D0,1D0,-1D1,0D0,-1D0,0D0,0D0;               347P    415
100,0D0,0D0,0D0,1.35D1,0D0,-1.35D1,0D0;                              349P    416
502,6,-1.1876D1,-7D1,0D0,1.1876D1,-7D1,0D0,-1.1876D1,-1D1,0D0,       351P    417
1.1876D1,-1D1,0D0,1.35D1,-1D1,0D0,-1.35D1,-1D1,0D0;                  351P    418
504,8,331,351,1,351,2,325,351,2,351,1,337,351,3,351,4,341,351,4,     353P    419
351,3,333,351,1,351,3,327,351,2,351,4,345,351,5,351,6,349,351,6,     353P    420
351,5;                                                               353P    421
110,0D0,-7D1,0D0,0D0,-6.9D1,0D0;                                     355P    422
110,-1.1876D1,-7.12D1,0D0,-1.1876D1,-8.8D0,0D0;                      357P    423
120,355,357,3.078760800518D0,6.346017160251D0;                       359P    424
508,4,0,353,2,0,0,0,353,6,1,0,0,353,4,1,0,0,353,5,0,0;               361P    425
510,359,1,0,361;                                                     363P    426
110,0D0,-7D1,0D0,0D0,-6.9D1,0D0;                                     365P    427
110,-1.1876D1,-7.12D1,0D0,-1.1876D1,-8.8D0,0D0;                      367P    428
120,365,367,-6.283185307180D-2,3.204424506662D0;                     369P    429
508,4,0,353,1,0,0,0,353,5,1,0,0,353,3,1,0,0,353,6,0,0;               371P    430
510,369,1,0,371;                                                     373P    431
128,1,1,1,1,0,0,1,0,0,-1.405747015350D1,-1.405747015350D1,           375P    432
1.405747015350D1,1.405747015350D1,-1.404D1,-1.404D1,1.404D1,         375P    433
1.404D1,1D0,1D0,1D0,1D0,1.404D1,-1D1,-1.405747015350D1,1.404D1,      375P    434
-1D1,1.405747015350D1,-1.404D1,-1D1,-1.405747015350D1,-1.404D1,      375P    435
-1D1,1.405747015350D1,-1.405747015350D1,1.405747015350D1,            375P    436
-1.404D1,1.404D1;                                                    375P    437
508,2,0,353,7,0,0,0,353,8,0,0;                                       377P    438
508,2,0,353,3,0,0,0,353,4,0,0;                                       379P    439
510,375,2,0,377,379;                                                 381P    440
514,3,363,1,373,1,381,1;                                             383P    441
186,321,1,0;                                                         385P    442
S      1G      5D    386P    442                                        T      1
