 PTC IGES file: sroub-m33x80-csn_02_1101.igs                            S      1
1H,,1H;,24HSROUB-M33X80-CSN_02_1101,28Hsroub-m33x80-csn_02_1101.igs,    G      1
49HPro/ENGINEER by Parametric Technology Corporation,7H2007160,32,38,7, G      2
38,15,24HSROUB-M33X80-CSN_02_1101,1.,2,2HMM,32768,0.5,                  G      3
15H20110917.003015,0.012987,129.876,13HVladimir Zima,7HUnknown,10,0,    G      4
15H20110917.003015;                                                     G      5
     314       1       1       1       0       0       0       001000200D      1
     314       0       4       1       0                   COLOR       1D      2
     314       2       1       1       0       0       0       001000200D      3
     314       0       1       1       0                   COLOR       2D      4
     314       3       1       1       0       0       0       001000200D      5
     314       0       1       1       0                   COLOR       3D      6
     314       4       1       1       0       0       0       001000200D      7
     314       0       1       1       0                   COLOR       4D      8
     314       5       1       1       0       0       0       001000200D      9
     314       0       8       1       0                   COLOR       5D     10
     314       6       1       1       0       0       0       001000200D     11
     314       0       8       1       0                   COLOR       6D     12
     314       7       1       1       0       0       0       001000200D     13
     314       0       5       1       0                   COLOR       7D     14
     314       8       1       1       0       0       0       001000200D     15
     314       0       8       1       0                   COLOR       8D     16
     124       9       1       1       0       0       0       001000000D     17
     124       0       0       2       0                   XFORM       1D     18
     100      11       1       1       0       0      17       001010000D     19
     100       0       0       2       0                     ARC       1D     20
     124      13       1       1       0       0       0       001000000D     21
     124       0       0       2       0                   XFORM       2D     22
     100      15       1       1       0       0      21       001010000D     23
     100       0       0       2       0                     ARC       2D     24
     110      17       1       1       0       0       0       001010000D     25
     110       0       0       2       0                    LINE       1D     26
     110      19       1       1       0       0       0       001010000D     27
     110       0       0       2       0                    LINE       2D     28
     124      21       1       1       0       0       0       001000000D     29
     124       0       0       2       0                   XFORM       3D     30
     100      23       1       1       0       0      29       001010000D     31
     100       0       0       1       0                     ARC       3D     32
     110      24       1       1       0       0       0       001010000D     33
     110       0       0       2       0                    LINE       3D     34
     124      26       1       1       0       0       0       001000000D     35
     124       0       0       1       0                   XFORM       4D     36
     100      27       1       1       0       0      35       001010000D     37
     100       0       0       1       0                     ARC       4D     38
     124      28       1       1       0       0       0       001000000D     39
     124       0       0       2       0                   XFORM       5D     40
     100      30       1       1       0       0      39       001010000D     41
     100       0       0       1       0                     ARC       5D     42
     110      31       1       1       0       0       0       001010000D     43
     110       0       0       2       0                    LINE       4D     44
     124      33       1       1       0       0       0       001000000D     45
     124       0       0       1       0                   XFORM       6D     46
     100      34       1       1       0       0      45       001010000D     47
     100       0       0       1       0                     ARC       6D     48
     124      35       1       1       0       0       0       001000000D     49
     124       0       0       2       0                   XFORM       7D     50
     100      37       1       1       0       0      49       001010000D     51
     100       0       0       1       0                     ARC       7D     52
     124      38       1       1       0       0       0       001000000D     53
     124       0       0       2       0                   XFORM       8D     54
     100      40       1       1       0       0      53       001010000D     55
     100       0       0       1       0                     ARC       8D     56
     110      41       1       1       0       0       0       001010000D     57
     110       0       0       1       0                    LINE       5D     58
     110      42       1       1       0       0       0       001010000D     59
     110       0       0       1       0                    LINE       6D     60
     110      43       1       1       0       0       0       001010000D     61
     110       0       0       1       0                    LINE       7D     62
     110      44       1       1       0       0       0       001010000D     63
     110       0       0       1       0                    LINE       8D     64
     110      45       1       1       0       0       0       001010000D     65
     110       0       0       1       0                    LINE       9D     66
     110      46       1       1       0       0       0       001010000D     67
     110       0       0       1       0                    LINE      10D     68
     124      47       1       1       0       0       0       001000000D     69
     124       0       0       2       0                   XFORM       9D     70
     100      49       1       1       0       0      69       001010000D     71
     100       0       0       1       0                     ARC       9D     72
     124      50       1       1       0       0       0       001000000D     73
     124       0       0       2       0                   XFORM      10D     74
     100      52       1       1       0       0      73       001010000D     75
     100       0       0       1       0                     ARC      10D     76
     126      53       1       1       0       0       0       001010000D     77
     126       0       0      10       0                B_SPLINE       1D     78
     126      63       1       1       0       0       0       001010000D     79
     126       0       0      10       0                B_SPLINE       2D     80
     110      73       1       1       0       0       0       001010000D     81
     110       0       0       2       0                    LINE      11D     82
     126      75       1       1       0       0       0       001010000D     83
     126       0       0       9       0                B_SPLINE       3D     84
     126      84       1       1       0       0       0       001010000D     85
     126       0       0       9       0                B_SPLINE       4D     86
     110      93       1       1       0       0       0       001010000D     87
     110       0       0       2       0                    LINE      12D     88
     126      95       1       1       0       0       0       001010000D     89
     126       0       0      10       0                B_SPLINE       5D     90
     126     105       1       1       0       0       0       001010000D     91
     126       0       0       9       0                B_SPLINE       6D     92
     110     114       1       1       0       0       0       001010000D     93
     110       0       0       2       0                    LINE      13D     94
     126     116       1       1       0       0       0       001010000D     95
     126       0       0      10       0                B_SPLINE       7D     96
     126     126       1       1       0       0       0       001010000D     97
     126       0       0      10       0                B_SPLINE       8D     98
     110     136       1       1       0       0       0       001010000D     99
     110       0       0       2       0                    LINE      14D    100
     126     138       1       1       0       0       0       001010000D    101
     126       0       0       8       0                B_SPLINE       9D    102
     110     146       1       1       0       0       0       001010000D    103
     110       0       0       2       0                    LINE      15D    104
     126     148       1       1       0       0       0       001010000D    105
     126       0       0       8       0                B_SPLINE      10D    106
     126     156       1       1       0       0       0       001010000D    107
     126       0       0      10       0                B_SPLINE      11D    108
     126     166       1       1       0       0       0       001010000D    109
     126       0       0       9       0                B_SPLINE      12D    110
     110     175       1       1       0       0       0       001010000D    111
     110       0       0       2       0                    LINE      16D    112
     124     177       1       1       0       0       0       001000000D    113
     124       0       0       1       0                   XFORM      11D    114
     100     178       1       1       0       0     113       001010000D    115
     100       0       0       1       0                     ARC      11D    116
     124     179       1       1       0       0       0       001000000D    117
     124       0       0       2       0                   XFORM      12D    118
     100     181       1       1       0       0     117       001010000D    119
     100       0       0       1       0                     ARC      12D    120
     124     182       1       1       0       0       0       001000000D    121
     124       0       0       2       0                   XFORM      13D    122
     100     184       1       1       0       0     121       001010000D    123
     100       0       0       1       0                     ARC      13D    124
     124     185       1       1       0       0       0       001000000D    125
     124       0       0       1       0                   XFORM      14D    126
     100     186       1       1       0       0     125       001010000D    127
     100       0       0       1       0                     ARC      14D    128
     124     187       1       1       0       0       0       001000000D    129
     124       0       0       2       0                   XFORM      15D    130
     100     189       1       1       0       0     129       001010000D    131
     100       0       0       1       0                     ARC      15D    132
     124     190       1       1       0       0       0       001000000D    133
     124       0       0       2       0                   XFORM      16D    134
     100     192       1       1       0       0     133       001010000D    135
     100       0       0       1       0                     ARC      16D    136
     502     193       1       1       0       0       0       001010000D    137
     502       0       0      15       1                  VERTEX       1D    138
     504     208       1       1       0       0       0       000010001D    139
     504       0       0      12       1                    EDGE       1D    140
     128     220       1       1       0       0       0       001010000D    141
     128       0       0       6       0                  SPLSRF       1D    142
     508     226       1       1       0       0       0       001010000D    143
     508       0       0       1       1                EDGELOOP       1D    144
     510     227       1       1       0       0       0       000010000D    145
     510       0       0       1       1                    FACE       1D    146
     110     228       1       1       0       0       0       001010000D    147
     110       0       0       2       0                    LINE      17D    148
     110     230       1       1       0       0       0       001010000D    149
     110       0       0       2       0                    LINE      18D    150
     120     232       1       1       0       0       0       001010000D    151
     120       0       0       1       0                    SREV       1D    152
     508     233       1       1       0       0       0       001010000D    153
     508       0       0       1       1                EDGELOOP       2D    154
     510     234       1       1       0       0       0       000010000D    155
     510       0       0       1       1                    FACE       2D    156
     110     235       1       1       0       0       0       001010000D    157
     110       0       0       2       0                    LINE      19D    158
     110     237       1       1       0       0       0       001010000D    159
     110       0       0       2       0                    LINE      20D    160
     120     239       1       1       0       0       0       001010000D    161
     120       0       0       1       0                    SREV       2D    162
     508     240       1       1       0       0       0       001010000D    163
     508       0       0       1       1                EDGELOOP       3D    164
     510     241       1       1       0       0       0       000010000D    165
     510       0       0       1       1                    FACE       3D    166
     110     242       1       1       0       0       0       001010000D    167
     110       0       0       1       0                    LINE      21D    168
     110     243       1       1       0       0       0       001010000D    169
     110       0       0       2       0                    LINE      22D    170
     120     245       1       1       0       0       0       001010000D    171
     120       0       0       1       0                    SREV       3D    172
     508     246       1       1       0       0       0       001010000D    173
     508       0       0       1       1                EDGELOOP       4D    174
     510     247       1       1       0       0       0       000010000D    175
     510       0       0       1       1                    FACE       4D    176
     110     248       1       1       0       0       0       001010000D    177
     110       0       0       1       0                    LINE      23D    178
     110     249       1       1       0       0       0       001010000D    179
     110       0       0       2       0                    LINE      24D    180
     120     251       1       1       0       0       0       001010000D    181
     120       0       0       1       0                    SREV       4D    182
     508     252       1       1       0       0       0       001010000D    183
     508       0       0       1       1                EDGELOOP       5D    184
     510     253       1       1       0       0       0       000010000D    185
     510       0       0       1       1                    FACE       5D    186
     110     254       1       1       0       0       0       001010000D    187
     110       0       0       1       0                    LINE      25D    188
     124     255       1       1       0       0       0       001000000D    189
     124       0       0       4       0                   XFORM      17D    190
     100     259       1       1       0       0     189       001010000D    191
     100       0       0       1       0                     ARC      17D    192
     120     260       1       1       0       0       0       001010000D    193
     120       0       0       1       0                    SREV       5D    194
     508     261       1       1       0       0       0       001010000D    195
     508       0       0       1       1                EDGELOOP       6D    196
     510     262       1       1       0       0       0       000010000D    197
     510       0       0       1       1                    FACE       6D    198
     110     263       1       1       0       0       0       001010000D    199
     110       0       0       1       0                    LINE      26D    200
     124     264       1       1       0       0       0       001000000D    201
     124       0       0       4       0                   XFORM      18D    202
     100     268       1       1       0       0     201       001010000D    203
     100       0       0       1       0                     ARC      18D    204
     120     269       1       1       0       0       0       001010000D    205
     120       0       0       1       0                    SREV       6D    206
     508     270       1       1       0       0       0       001010000D    207
     508       0       0       1       1                EDGELOOP       7D    208
     510     271       1       1       0       0       0       000010000D    209
     510       0       0       1       1                    FACE       7D    210
     128     272       1       1       0       0       0       001010000D    211
     128       0       0       6       0                  SPLSRF       2D    212
     508     278       1       1       0       0       0       001010000D    213
     508       0       0       2       1                EDGELOOP       8D    214
     508     280       1       1       0       0       0       001010000D    215
     508       0       0       1       1                EDGELOOP       9D    216
     510     281       1       1       0       0       0       000010000D    217
     510       0       0       1       1                    FACE       8D    218
     128     282       1       1       0       0       0       001010000D    219
     128       0       0       8       0                  SPLSRF       3D    220
     508     290       1       1       0       0       0       001010000D    221
     508       0       0       2       1                EDGELOOP      10D    222
     510     292       1       1       0       0       0       000010000D    223
     510       0       0       1       1                    FACE       9D    224
     110     293       1       1       0       0       0       001010000D    225
     110       0       0       1       0                    LINE      27D    226
     110     294       1       1       0       0       0       001010000D    227
     110       0       0       2       0                    LINE      28D    228
     120     296       1       1       0       0       0       001010000D    229
     120       0       0       1       0                    SREV       7D    230
     508     297       1       1       0       0       0       001010000D    231
     508       0       0       1       1                EDGELOOP      11D    232
     510     298       1       1       0       0       0       000010000D    233
     510       0       0       1       1                    FACE      10D    234
     110     299       1       1       0       0       0       001010000D    235
     110       0       0       1       0                    LINE      29D    236
     110     300       1       1       0       0       0       001010000D    237
     110       0       0       2       0                    LINE      30D    238
     120     302       1       1       0       0       0       001010000D    239
     120       0       0       1       0                    SREV       8D    240
     508     303       1       1       0       0       0       001010000D    241
     508       0       0       1       1                EDGELOOP      12D    242
     510     304       1       1       0       0       0       000010000D    243
     510       0       0       1       1                    FACE      11D    244
     110     305       1       1       0       0       0       001010000D    245
     110       0       0       1       0                    LINE      31D    246
     110     306       1       1       0       0       0       001010000D    247
     110       0       0       2       0                    LINE      32D    248
     120     308       1       1       0       0       0       001010000D    249
     120       0       0       1       0                    SREV       9D    250
     508     309       1       1       0       0       0       001010000D    251
     508       0       0       1       1                EDGELOOP      13D    252
     510     310       1       1       0       0       0       000010000D    253
     510       0       0       1       1                    FACE      12D    254
     128     311       1       1       0       0       0       001010000D    255
     128       0       0       8       0                  SPLSRF       4D    256
     508     319       1       1       0       0       0       001010000D    257
     508       0       0       2       1                EDGELOOP      14D    258
     510     321       1       1       0       0       0       000010000D    259
     510       0       0       1       1                    FACE      13D    260
     110     322       1       1       0       0       0       001010000D    261
     110       0       0       1       0                    LINE      33D    262
     110     323       1       1       0       0       0       001010000D    263
     110       0       0       2       0                    LINE      34D    264
     120     325       1       1       0       0       0       001010000D    265
     120       0       0       1       0                    SREV      10D    266
     508     326       1       1       0       0       0       001010000D    267
     508       0       0       1       1                EDGELOOP      15D    268
     510     327       1       1       0       0       0       000010000D    269
     510       0       0       1       1                    FACE      14D    270
     110     328       1       1       0       0       0       001010000D    271
     110       0       0       1       0                    LINE      35D    272
     110     329       1       1       0       0       0       001010000D    273
     110       0       0       2       0                    LINE      36D    274
     120     331       1       1       0       0       0       001010000D    275
     120       0       0       1       0                    SREV      11D    276
     508     332       1       1       0       0       0       001010000D    277
     508       0       0       1       1                EDGELOOP      16D    278
     510     333       1       1       0       0       0       000010000D    279
     510       0       0       1       1                    FACE      15D    280
     110     334       1       1       0       0       0       001010000D    281
     110       0       0       1       0                    LINE      37D    282
     110     335       1       1       0       0       0       001010000D    283
     110       0       0       2       0                    LINE      38D    284
     120     337       1       1       0       0       0       001010000D    285
     120       0       0       1       0                    SREV      12D    286
     508     338       1       1       0       0       0       001010000D    287
     508       0       0       1       1                EDGELOOP      17D    288
     510     339       1       1       0       0       0       000010000D    289
     510       0       0       1       1                    FACE      16D    290
     128     340       1       1       0       0       0       001010000D    291
     128       0       0       8       0                  SPLSRF       5D    292
     508     348       1       1       0       0       0       001010000D    293
     508       0       0       2       1                EDGELOOP      18D    294
     510     350       1       1       0       0       0       000010000D    295
     510       0       0       1       1                    FACE      17D    296
     128     351       1       1       0       0       0       001010000D    297
     128       0       0       8       0                  SPLSRF       6D    298
     508     359       1       1       0       0       0       001010000D    299
     508       0       0       2       1                EDGELOOP      19D    300
     510     361       1       1       0       0       0       000010000D    301
     510       0       0       1       1                    FACE      18D    302
     128     362       1       1       0       0       0       001010000D    303
     128       0       0       8       0                  SPLSRF       7D    304
     508     370       1       1       0       0       0       001010000D    305
     508       0       0       2       1                EDGELOOP      20D    306
     510     372       1       1       0       0       0       000010000D    307
     510       0       0       1       1                    FACE      19D    308
     128     373       1       1       0       0       0       001010000D    309
     128       0       0       8       0                  SPLSRF       8D    310
     508     381       1       1       0       0       0       001010000D    311
     508       0       0       2       1                EDGELOOP      21D    312
     510     383       1       1       0       0       0       000010000D    313
     510       0       0       1       1                    FACE      20D    314
     128     384       1       1       0       0       0       001010000D    315
     128       0       0       8       0                  SPLSRF       9D    316
     508     392       1       1       0       0       0       001010000D    317
     508       0       0       2       1                EDGELOOP      22D    318
     510     394       1       1       0       0       0       000010000D    319
     510       0       0       1       1                    FACE      21D    320
     514     395       1       1       0       0       0       000010000D    321
     514       0       0       3       1                   SHELL       1D    322
     124     398       1       1       0       0       0       001000000D    323
     124       0       0       1       0                   XFORM      19D    324
     100     399       1       1       0       0     323       001010000D    325
     100       0       0       1       0                     ARC      19D    326
     110     400       1       1       0       0       0       001010000D    327
     110       0       0       1       0                    LINE      39D    328
     124     401       1       1       0       0       0       001000000D    329
     124       0       0       1       0                   XFORM      20D    330
     100     402       1       1       0       0     329       001010000D    331
     100       0       0       1       0                     ARC      20D    332
     110     403       1       1       0       0       0       001010000D    333
     110       0       0       1       0                    LINE      40D    334
     124     404       1       1       0       0       0       001000000D    335
     124       0       0       1       0                   XFORM      21D    336
     100     405       1       1       0       0     335       001010000D    337
     100       0       0       1       0                     ARC      21D    338
     124     406       1       1       0       0       0       001000000D    339
     124       0       0       1       0                   XFORM      22D    340
     100     407       1       1       0       0     339       001010000D    341
     100       0       0       1       0                     ARC      22D    342
     124     408       1       1       0       0       0       001000000D    343
     124       0       0       1       0                   XFORM      23D    344
     100     409       1       1       0       0     343       001010000D    345
     100       0       0       1       0                     ARC      23D    346
     124     410       1       1       0       0       0       001000000D    347
     124       0       0       1       0                   XFORM      24D    348
     100     411       1       1       0       0     347       001010000D    349
     100       0       0       1       0                     ARC      24D    350
     502     412       1       1       0       0       0       001010000D    351
     502       0       0       2       1                  VERTEX       2D    352
     504     414       1       1       0       0       0       000010001D    353
     504       0       0       3       1                    EDGE       2D    354
     110     417       1       1       0       0       0       001010000D    355
     110       0       0       1       0                    LINE      41D    356
     110     418       1       1       0       0       0       001010000D    357
     110       0       0       1       0                    LINE      42D    358
     120     419       1       1       0       0       0       001010000D    359
     120       0       0       1       0                    SREV      13D    360
     508     420       1       1       0       0       0       001010000D    361
     508       0       0       1       1                EDGELOOP      23D    362
     510     421       1       1       0       0       0       000010000D    363
     510       0       0       1       1                    FACE      22D    364
     110     422       1       1       0       0       0       001010000D    365
     110       0       0       1       0                    LINE      43D    366
     110     423       1       1       0       0       0       001010000D    367
     110       0       0       1       0                    LINE      44D    368
     120     424       1       1       0       0       0       001010000D    369
     120       0       0       1       0                    SREV      14D    370
     508     425       1       1       0       0       0       001010000D    371
     508       0       0       1       1                EDGELOOP      24D    372
     510     426       1       1       0       0       0       000010000D    373
     510       0       0       1       1                    FACE      23D    374
     128     427       1       1       0       0       0       001010000D    375
     128       0       0       6       0                  SPLSRF      10D    376
     508     433       1       1       0       0       0       001010000D    377
     508       0       0       1       1                EDGELOOP      25D    378
     508     434       1       1       0       0       0       001010000D    379
     508       0       0       1       1                EDGELOOP      26D    380
     510     435       1       1       0       0       0       000010000D    381
     510       0       0       1       1                    FACE      24D    382
     514     436       1       1       0       0       0       000000000D    383
     514       0       0       1       1                   SHELL       2D    384
     186     437       1       1       0       0       0       000000000D    385
     186       0       0       1       0                    MSBR       1D    386
314,1.1D0,1.2D0,1D2;                                                   1P      1
314,1.1D1,1.1D1,1.1D1;                                                 3P      2
314,3.92D1,1.2D0,1.2D0;                                                5P      3
314,4.1D1,0D0,2.2D1;                                                   7P      4
314,8.784D1,9.49D1,1D2;                                                9P      5
314,9.6D1,9.6D1,9.6D1;                                                11P      6
314,9.8D1,6.27D1,0D0;                                                 13P      7
314,1D2,1D2,9.49D1;                                                   15P      8
124,0D0,1D0,0D0,1.065814103640D-14,0D0,0D0,-1D0,                      17P      9
-7.999998144949D1,-1D0,0D0,0D0,0D0;                                   17P     10
100,0D0,0D0,0D0,1.469997399804D1,0D0,-1.469997399804D1,               19P     11
-1.778413135692D-14;                                                  19P     12
124,0D0,-1D0,0D0,-1.021405182655D-14,0D0,0D0,-1D0,                    21P     13
-7.999998144949D1,1D0,0D0,0D0,1.065814103640D-14;                     21P     14
100,0D0,0D0,0D0,1.469997399804D1,0D0,-1.469997399804D1,               23P     15
-1.778413135692D-14;                                                  23P     16
110,-6.170625927971D-9,-7.999998515012D1,-1.469998514823D1,           25P     17
-5.194659975662D-9,-7.819998749882D1,-1.649998749724D1;               25P     18
110,6.170622199721D-9,-7.999998515012D1,1.469998514823D1,             27P     19
5.194655924898D-9,-7.819998749882D1,1.649998749724D1;                 27P     20
124,0D0,-1D0,0D0,0D0,0D0,0D0,-1D0,-7.819999151997D1,1D0,0D0,0D0,      29P     21
0D0;                                                                  29P     22
100,0D0,0D0,0D0,1.65D1,0D0,-1.65D1,0D0;                               31P     23
110,9.913000934979D-13,-1.8D0,-1.65D1,-5.194659975662D-9,             33P     24
-7.819998749882D1,-1.649998749724D1;                                  33P     25
124,0D0,-1D0,0D0,0D0,0D0,0D0,1D0,-1.8D0,-1D0,0D0,0D0,0D0;             35P     26
100,0D0,0D0,0D0,1.65D1,0D0,-1.65D1,0D0;                               37P     27
124,0D0,1D0,0D0,0D0,0D0,0D0,-1D0,-7.819999151997D1,-1D0,0D0,0D0,      39P     28
0D0;                                                                  39P     29
100,0D0,0D0,0D0,1.65D1,0D0,-1.65D1,0D0;                               41P     30
110,-9.927517114578D-13,-1.8D0,1.65D1,5.194655924898D-9,              43P     31
-7.819998749882D1,1.649998749724D1;                                   43P     32
124,0D0,1D0,0D0,0D0,0D0,0D0,1D0,-1.8D0,1D0,0D0,0D0,0D0;               45P     33
100,0D0,0D0,0D0,1.65D1,0D0,-1.65D1,0D0;                               47P     34
124,1.914499808686D-12,0D0,1D0,-3.503536349925D-11,0D0,1D0,0D0,       49P     35
-1.8D0,-1D0,0D0,1.914499808686D-12,1.83D1;                            49P     36
100,0D0,0D0,0D0,1.8D0,0D0,4.833236838097D-13,1.8D0;                   51P     37
124,-1.914366234979D-12,0D0,-1D0,3.503289325302D-11,0D0,1D0,0D0,      53P     38
-1.8D0,1D0,0D0,-1.914366234979D-12,-1.83D1;                           53P     39
100,0D0,0D0,0D0,1.8D0,0D0,4.869208064095D-13,1.8D0;                   55P     40
110,-2.5D1,0D0,1.443375672974D1,0D0,0D0,2.886751345948D1;             57P     41
110,0D0,0D0,2.886751345948D1,2.5D1,0D0,1.443375672974D1;              59P     42
110,2.5D1,0D0,1.443375672974D1,2.5D1,0D0,-1.443375672974D1;           61P     43
110,2.5D1,0D0,-1.443375672974D1,0D0,0D0,-2.886751345948D1;            63P     44
110,0D0,0D0,-2.886751345948D1,-2.5D1,0D0,-1.443375672974D1;           65P     45
110,-2.5D1,0D0,-1.443375672974D1,-2.5D1,0D0,1.443375672974D1;         67P     46
124,0D0,-1D0,0D0,0D0,0D0,0D0,1D0,-1.176836406103D-14,-1D0,0D0,        69P     47
0D0,0D0;                                                              69P     48
100,0D0,0D0,0D0,1.829999979360D1,0D0,-1.829999979360D1,0D0;           71P     49
124,0D0,1D0,0D0,0D0,0D0,0D0,1D0,-1.176836406103D-14,1D0,0D0,0D0,      73P     50
0D0;                                                                  73P     51
100,0D0,0D0,0D0,1.829999979360D1,0D0,-1.829999979360D1,0D0;           75P     52
126,7,3,0,0,1,0,0D0,0D0,0D0,0D0,2D-1,4D-1,6D-1,8D-1,1D0,1D0,1D0,      77P     53
1D0,1D0,1D0,1D0,1D0,1D0,1D0,1D0,1D0,-2.5D1,1.876709006307D1,          77P     54
1.443375672974D1,-2.410994912785D1,1.906377368712D1,                  77P     55
1.494762784037D1,-2.236187146509D1,1.959835490562D1,                  77P     56
1.595688094953D1,-1.986729575185D1,2.021379531190D1,                  77P     57
1.739712490908D1,-1.740341583285D1,2.066327160788D1,                  77P     58
1.881964664356D1,-1.495129196304D1,2.093811762388D1,                  77P     59
2.023538101989D1,-1.331665018743D1,2.100000000155D1,                  77P     60
2.117914188907D1,-1.249999995736D1,2.100000000164D1,                  77P     61
2.165063511923D1,0D0,1D0,0D0,0D0,1D0;                                 77P     62
126,7,3,0,0,1,0,0D0,0D0,0D0,0D0,2D-1,4D-1,6D-1,8D-1,1D0,1D0,1D0,      79P     63
1D0,1D0,1D0,1D0,1D0,1D0,1D0,1D0,1D0,-1.249999995736D1,                79P     64
2.100000000164D1,2.165063511923D1,-1.168308482377D1,                  79P     65
2.100000000164D1,2.212228129152D1,-1.004798457476D1,                  79P     66
2.093807253691D1,2.306630686043D1,-7.595543610558D0,                  79P     67
2.066313160333D1,2.448222431128D1,-5.131251982703D0,                  79P     68
2.021346666070D1,2.590498374599D1,-2.638211552281D0,                  79P     69
1.959835531118D1,2.734434130959D1,-8.901172098946D-1,                 79P     70
1.906379579971D1,2.835360404874D1,0D0,1.876709006307D1,               79P     71
2.886751345948D1,0D0,1D0,0D0,0D0,1D0;                                 79P     72
110,-2.5D1,0D0,1.443375672974D1,-2.5D1,1.876709006307D1,              81P     73
1.443375672974D1;                                                     81P     74
126,7,3,0,0,1,0,0D0,0D0,0D0,0D0,2D-1,4D-1,6D-1,8D-1,1D0,1D0,1D0,      83P     75
1D0,1D0,1D0,1D0,1D0,1D0,1D0,1D0,1D0,-2.5D1,1.876709006307D1,          83P     76
-1.443375672974D1,-2.5D1,1.906120637788D1,-1.341490792857D1,          83P     77
-2.5D1,1.959281776727D1,-1.140981123084D1,-2.5D1,                     83P     78
2.020934927247D1,-8.530979651309D0,-2.5D1,2.066067976883D1,           83P     79
-5.682907353177D0,-2.5D1,2.093745551937D1,-2.843925581031D0,          83P     80
-2.500000000001D1,2.099999999573D1,-9.480021782483D-1,                83P     81
-2.500000000001D1,2.100000000464D1,-6.077640279934D-8,0D0,1D0,        83P     82
0D0,0D0,1D0;                                                          83P     83
126,7,3,0,0,1,0,0D0,0D0,0D0,0D0,2D-1,4D-1,6D-1,8D-1,1D0,1D0,1D0,      85P     84
1D0,1D0,1D0,1D0,1D0,1D0,1D0,1D0,1D0,-2.500000000001D1,                85P     85
2.100000000464D1,-6.077640279934D-8,-2.500000000001D1,                85P     86
2.100000000456D1,9.539381263580D-1,-2.5D1,2.093669592871D1,           85P     87
2.860128264266D0,-2.5D1,2.065718353127D1,5.711381184570D0,            85P     88
-2.5D1,2.020322639121D1,8.563528547508D0,-2.5D1,                      85P     89
1.958630189331D1,1.143579258476D1,-2.5D1,1.905825103399D1,            85P     90
1.342514554012D1,-2.5D1,1.876709006307D1,1.443375672974D1,0D0,        85P     91
1D0,0D0,0D0,1D0;                                                      85P     92
110,-2.5D1,0D0,-1.443375672974D1,-2.5D1,1.876709006307D1,             87P     93
-1.443375672974D1;                                                    87P     94
126,7,3,0,0,1,0,0D0,0D0,0D0,0D0,2D-1,4D-1,6D-1,8D-1,1D0,1D0,1D0,      89P     95
1D0,1D0,1D0,1D0,1D0,1D0,1D0,1D0,1D0,2.5D1,1.876709006307D1,           89P     96
-1.443375672974D1,2.410994913422D1,1.906377368500D1,                  89P     97
-1.494762783669D1,2.236187148349D1,1.95983549D1,                      89P     98
-1.595688093890D1,1.986729578981D1,2.021379530378D1,                  89P     99
-1.739712488717D1,1.740341588120D1,2.066327159902D1,                  89P    100
-1.881964661565D1,1.495129205496D1,2.093811761982D1,                  89P    101
-2.023538096681D1,1.331665022727D1,2.099999999543D1,                  89P    102
-2.117914186607D1,1.250000004563D1,2.1D1,-2.165063506827D1,0D0,       89P    103
1D0,0D0,0D0,1D0;                                                      89P    104
126,7,3,0,0,1,0,0D0,0D0,0D0,0D0,2D-1,4D-1,6D-1,8D-1,1D0,1D0,1D0,      91P    105
1D0,1D0,1D0,1D0,1D0,1D0,1D0,1D0,1D0,1.250000004563D1,2.1D1,           91P    106
-2.165063506827D1,1.168308490019D1,2.1D1,-2.212228124740D1,           91P    107
1.004798475382D1,2.093807255107D1,-2.306630675705D1,                  91P    108
7.595543704349D0,2.066313161887D1,-2.448222425713D1,                  91P    109
5.131252056445D0,2.021346667693D1,-2.590498370341D1,                  91P    110
2.638211587999D0,1.959835532196D1,-2.734434128897D1,                  91P    111
8.901172222552D-1,1.906379580383D1,-2.835360404160D1,0D0,             91P    112
1.876709006307D1,-2.886751345948D1,0D0,1D0,0D0,0D0,1D0;               91P    113
110,2.5D1,0D0,-1.443375672974D1,2.5D1,1.876709006307D1,               93P    114
-1.443375672974D1;                                                    93P    115
126,7,3,0,0,1,0,0D0,0D0,0D0,0D0,2D-1,4D-1,6D-1,8D-1,1D0,1D0,1D0,      95P    116
1D0,1D0,1D0,1D0,1D0,1D0,1D0,1D0,1D0,0D0,1.876709006307D1,             95P    117
-2.886751345948D1,-8.900508557187D-1,1.906377368165D1,                95P    118
-2.835364235834D1,-2.638128488429D0,1.959835489127D1,                 95P    119
-2.734438926653D1,-5.132704146727D0,2.021379529040D1,                 95P    120
-2.590414533870D1,-7.596584055399D0,2.066327158706D1,                 95P    121
-2.448162361018D1,-1.004870775136D1,2.093811760582D1,                 95P    122
-2.306588933422D1,-1.168334981411D1,2.100000000211D1,                 95P    123
-2.212212829927D1,-1.249999994142D1,2.100000000218D1,                 95P    124
-2.165063512844D1,0D0,1D0,0D0,0D0,1D0;                                95P    125
126,7,3,0,0,1,0,0D0,0D0,0D0,0D0,2D-1,4D-1,6D-1,8D-1,1D0,1D0,1D0,      97P    126
1D0,1D0,1D0,1D0,1D0,1D0,1D0,1D0,1D0,-1.249999994142D1,                97P    127
2.100000000218D1,-2.165063512844D1,-1.331691520248D1,                 97P    128
2.100000000218D1,-2.117898888256D1,-1.495201519853D1,                 97P    129
2.093807255006D1,-2.023496345968D1,-1.740445630842D1,                 97P    130
2.066313161914D1,-1.881904592472D1,-1.986874794012D1,                 97P    131
2.021346667685D1,-1.739628648779D1,-2.236178841298D1,                 97P    132
1.959835532199D1,-1.595692889968D1,-2.410988277774D1,                 97P    133
1.906379580383D1,-1.494766614762D1,-2.5D1,1.876709006307D1,           97P    134
-1.443375672974D1,0D0,1D0,0D0,0D0,1D0;                                97P    135
110,0D0,0D0,-2.886751345948D1,0D0,1.876709006307D1,                   99P    136
-2.886751345948D1;                                                    99P    137
126,7,3,0,0,1,0,0D0,0D0,0D0,0D0,2D-1,4D-1,6D-1,8D-1,1D0,1D0,1D0,     101P    138
1D0,1D0,1D0,1D0,1D0,1D0,1D0,1D0,1D0,2.500000000001D1,                101P    139
2.100000000464D1,6.333293923207D-8,2.500000000001D1,                 101P    140
2.100000000461D1,-9.539381233149D-1,2.5D1,2.093669592876D1,          101P    141
-2.860128264294D0,2.5D1,2.065718353136D1,-5.711381183649D0,          101P    142
2.5D1,2.020322639130D1,-8.563528547125D0,2.5D1,1.958630189337D1,     101P    143
-1.143579258451D1,2.5D1,1.905825103402D1,-1.342514554004D1,          101P    144
2.5D1,1.876709006307D1,-1.443375672974D1,0D0,1D0,0D0,0D0,1D0;        101P    145
110,2.5D1,0D0,1.443375672974D1,2.5D1,1.876709006307D1,               103P    146
1.443375672974D1;                                                    103P    147
126,7,3,0,0,1,0,0D0,0D0,0D0,0D0,2D-1,4D-1,6D-1,8D-1,1D0,1D0,1D0,     105P    148
1D0,1D0,1D0,1D0,1D0,1D0,1D0,1D0,1D0,2.5D1,1.876709006307D1,          105P    149
1.443375672974D1,2.5D1,1.906120637371D1,1.341490794302D1,2.5D1,      105P    150
1.959281775630D1,1.140981127269D1,2.5D1,2.020934925604D1,            105P    151
8.530979737576D0,2.5D1,2.066067975264D1,5.682907464156D0,2.5D1,      105P    152
2.093745550566D1,2.843925792154D0,2.500000000001D1,                  105P    153
2.099999999555D1,9.480022699311D-1,2.500000000001D1,                 105P    154
2.100000000464D1,6.333293923207D-8,0D0,1D0,0D0,0D0,1D0;              105P    155
126,7,3,0,0,1,0,0D0,0D0,0D0,0D0,2D-1,4D-1,6D-1,8D-1,1D0,1D0,1D0,     107P    156
1D0,1D0,1D0,1D0,1D0,1D0,1D0,1D0,1D0,0D0,1.876709006307D1,            107P    157
2.886751345948D1,8.900508642274D-1,1.906377368448D1,                 107P    158
2.835364235343D1,2.638128511341D0,1.959835489863D1,                  107P    159
2.734438925336D1,5.132704203323D0,2.021379530179D1,                  107P    160
2.590414530581D1,7.596584098180D0,2.066327159691D1,                  107P    161
2.448162358626D1,1.004870795562D1,2.093811761865D1,                  107P    162
2.306588921336D1,1.168334969195D1,2.099999999433D1,                  107P    163
2.212212837612D1,1.249999988301D1,2.1D1,2.165063516847D1,0D0,        107P    164
1D0,0D0,0D0,1D0;                                                     107P    165
126,7,3,0,0,1,0,0D0,0D0,0D0,0D0,2D-1,4D-1,6D-1,8D-1,1D0,1D0,1D0,     109P    166
1D0,1D0,1D0,1D0,1D0,1D0,1D0,1D0,1D0,1.249999988301D1,2.1D1,          109P    167
2.165063516847D1,1.331691502849D1,2.1D1,2.117898898933D1,            109P    168
1.495201527929D1,2.093807255107D1,2.023496341012D1,                  109P    169
1.740445628678D1,2.066313161887D1,1.881904593800D1,                  109P    170
1.986874794594D1,2.021346667693D1,1.739628648422D1,                  109P    171
2.236178841132D1,1.959835532196D1,1.595692890071D1,                  109P    172
2.410988277774D1,1.906379580383D1,1.494766614762D1,2.5D1,            109P    173
1.876709006307D1,1.443375672974D1,0D0,1D0,0D0,0D0,1D0;               109P    174
110,0D0,0D0,2.886751345948D1,0D0,1.876709006307D1,                   111P    175
2.886751345948D1;                                                    111P    176
124,1D0,0D0,0D0,0D0,0D0,0D0,1D0,2.1D1,0D0,-1D0,0D0,0D0;              113P    177
100,0D0,0D0,0D0,2.5D1,0D0,1.250000000022D1,2.165063509449D1;         115P    178
124,4.999999898806D-1,8.660254096269D-1,0D0,0D0,0D0,0D0,1D0,         117P    179
2.1D1,8.660254096269D-1,-4.999999898806D-1,0D0,0D0;                  117P    180
100,0D0,0D0,0D0,2.5D1,0D0,1.249999974701D1,2.165063524067D1;         119P    181
124,-5.000000000087D-1,8.660254037794D-1,0D0,0D0,0D0,0D0,1D0,        121P    182
2.1D1,8.660254037794D-1,5.000000000087D-1,0D0,0D0;                   121P    183
100,0D0,0D0,0D0,2.5D1,0D0,1.250000025277D1,2.165063494868D1;         123P    184
124,-1D0,0D0,0D0,0D0,0D0,0D0,1D0,2.1D1,0D0,1D0,0D0,0D0;              125P    185
100,0D0,0D0,0D0,2.5D1,0D0,1.250000000022D1,2.165063509449D1;         127P    186
124,-4.999999999916D-1,-8.660254037893D-1,0D0,0D0,0D0,0D0,1D0,       129P    187
2.1D1,-8.660254037893D-1,4.999999999916D-1,0D0,0D0;                  129P    188
100,0D0,0D0,0D0,2.5D1,0D0,1.249999999979D1,2.165063509473D1;         131P    189
124,5.000000000087D-1,-8.660254037794D-1,0D0,0D0,0D0,0D0,1D0,        133P    190
2.1D1,-8.660254037794D-1,-5.000000000087D-1,0D0,0D0;                 133P    191
100,0D0,0D0,0D0,2.5D1,0D0,1.249999999999D1,2.165063509461D1;         135P    192
502,26,-2.5D1,0D0,1.443375672974D1,0D0,0D0,2.886751345948D1,         137P    193
2.5D1,0D0,1.443375672974D1,2.5D1,0D0,-1.443375672974D1,0D0,0D0,      137P    194
-2.886751345948D1,-2.5D1,0D0,-1.443375672974D1,2.5D1,2.1D1,0D0,      137P    195
1.250000000022D1,2.1D1,-2.165063509449D1,-1.249999999979D1,          137P    196
2.1D1,-2.165063509473D1,-2.5D1,2.1D1,0D0,-1.250000000022D1,          137P    197
2.1D1,2.165063509449D1,1.249999974701D1,2.1D1,2.165063524067D1,      137P    198
-2.5D1,1.876709006307D1,1.443375672974D1,0D0,1.876709006307D1,       137P    199
2.886751345948D1,2.5D1,1.876709006307D1,1.443375672974D1,2.5D1,      137P    200
1.876709006307D1,-1.443375672974D1,0D0,1.876709006307D1,             137P    201
-2.886751345948D1,-2.5D1,1.876709006307D1,-1.443375672974D1,0D0,     137P    202
-1.8D0,-1.65D1,0D0,-1.8D0,1.65D1,0D0,-1.176836406103D-14,            137P    203
-1.829999979360D1,0D0,-1.176836406103D-14,1.829999979360D1,0D0,      137P    204
-7.999998144949D1,-1.469997399804D1,0D0,-7.999998144949D1,           137P    205
1.469997399804D1,0D0,-7.819999151997D1,-1.65D1,0D0,                  137P    206
-7.819999151997D1,1.65D1;                                            137P    207
504,44,57,137,1,137,2,59,137,2,137,3,61,137,3,137,4,63,137,4,        139P    208
137,5,65,137,5,137,6,67,137,6,137,1,115,137,7,137,8,135,137,8,       139P    209
137,9,131,137,9,137,10,127,137,10,137,11,123,137,11,137,12,119,      139P    210
137,12,137,7,77,137,13,137,11,79,137,11,137,14,107,137,14,137,       139P    211
12,109,137,12,137,15,101,137,7,137,16,105,137,15,137,7,89,137,       139P    212
16,137,8,91,137,8,137,17,95,137,17,137,9,97,137,9,137,18,83,137,     139P    213
18,137,10,85,137,10,137,13,81,137,1,137,13,111,137,2,137,14,103,     139P    214
137,3,137,15,93,137,4,137,16,99,137,5,137,17,87,137,6,137,18,37,     139P    215
137,19,137,20,71,137,21,137,22,47,137,20,137,19,75,137,22,137,       139P    216
21,51,137,20,137,22,55,137,19,137,21,19,137,23,137,24,41,137,25,     139P    217
137,26,23,137,24,137,23,31,137,26,137,25,33,137,19,137,25,43,        139P    218
137,20,137,26,27,137,24,137,26,25,137,23,137,25;                     139P    219
128,1,1,1,1,0,0,1,0,0,-1.5288D1,-1.5288D1,1.5288D1,1.5288D1,         141P    220
-1.528799987742D1,-1.528799987742D1,1.528799987742D1,                141P    221
1.528799987742D1,1D0,1D0,1D0,1D0,1.528799987742D1,-8D1,1.5288D1,     141P    222
1.528799987742D1,-8D1,-1.5288D1,-1.528799987742D1,-8D1,1.5288D1,     141P    223
-1.528799987742D1,-8D1,-1.5288D1,-1.5288D1,1.5288D1,                 141P    224
-1.528799987742D1,1.528799987742D1;                                  141P    225
508,2,0,139,37,0,0,0,139,39,0,0;                                     143P    226
510,141,1,0,143;                                                     145P    227
110,1.065814103640D-14,-9.47D1,0D0,1.065814103640D-14,-9.37D1,       147P    228
0D0;                                                                 147P    229
110,1.065814103640D-14,-8.011021982567D1,-1.458973595597D1,          149P    230
1.065814103640D-14,-7.808972764895D1,-1.661022200903D1;              149P    231
120,147,149,-3.204424515162D0,6.283186283122D-2;                     151P    232
508,4,0,139,37,1,0,0,139,43,1,0,0,139,38,0,0,0,139,44,0,0;           153P    233
510,151,1,0,153;                                                     155P    234
110,-1.021405182655D-14,-9.47D1,1.065814103640D-14,                  157P    235
-1.021405182655D-14,-9.37D1,1.065814103640D-14;                      157P    236
110,-1.021405182655D-14,-8.011021982567D1,-1.458973595597D1,         159P    237
-1.021405182655D-14,-7.808972764895D1,-1.661022200903D1;             159P    238
120,157,159,-6.283186157191D-2,3.204424516421D0;                     161P    239
508,4,0,139,39,1,0,0,139,44,1,0,0,139,40,0,0,0,139,43,0,0;           163P    240
510,161,1,0,163;                                                     165P    241
110,0D0,0D0,0D0,0D0,1D0,0D0;                                         167P    242
110,0D0,-7.972801895982D1,-1.65D1,0D0,-2.719996282388D-1,            169P    243
-1.65D1;                                                             169P    244
120,167,169,-6.283185307180D-2,3.204424506662D0;                     171P    245
508,4,0,139,40,1,0,0,139,41,0,0,0,139,31,1,0,0,139,42,1,0;           173P    246
510,171,1,0,173;                                                     175P    247
110,0D0,0D0,0D0,0D0,1D0,0D0;                                         177P    248
110,0D0,-7.972801895982D1,-1.65D1,0D0,-2.719996282388D-1,            179P    249
-1.65D1;                                                             179P    250
120,177,179,3.078760800518D0,6.346017160251D0;                       181P    251
508,4,0,139,38,1,0,0,139,42,0,0,0,139,33,1,0,0,139,41,1,0;           183P    252
510,181,1,0,183;                                                     185P    253
110,0D0,-1.8D0,0D0,0D0,-8D-1,0D0;                                    187P    254
124,-1.097065800586D-3,1.263881952735D-2,-9.999195251057D-1,         189P    255
-2.321600867827D-1,9.962539235570D-1,8.647612270025D-2,0D0,          189P    256
-1.8D0,8.646916354341D-2,-9.961737501278D-1,-1.268634354004D-2,      189P    257
1.829852730943D1;                                                    189P    258
100,0D0,0D0,0D0,1.8D0,0D0,-3.101468829689D-1,1.773078935351D0;       191P    259
120,187,191,-5.014516921207D-2,3.217111190525D0;                     193P    260
508,4,0,139,33,0,0,0,139,35,1,0,0,139,34,1,0,0,139,36,0,0;           195P    261
510,193,1,0,195;                                                     197P    262
110,0D0,-1.8D0,0D0,0D0,-8D-1,0D0;                                    199P    263
124,1.097065800586D-3,-1.263881952735D-2,9.999195251057D-1,          201P    264
2.321600867827D-1,9.962539235570D-1,8.647612270025D-2,0D0,           201P    265
-1.8D0,-8.646916354341D-2,9.961737501278D-1,1.268634354004D-2,       201P    266
-1.829852730943D1;                                                   201P    267
100,0D0,0D0,0D0,1.8D0,0D0,-3.101468829689D-1,1.773078935351D0;       203P    268
120,199,203,-5.014516921207D-2,3.217111190525D0;                     205P    269
508,4,0,139,31,0,0,0,139,36,1,0,0,139,32,1,0,0,139,35,0,0;           207P    270
510,205,1,0,207;                                                     209P    271
128,1,1,1,1,0,0,1,0,0,-3.002221399786D1,-3.002221399786D1,           211P    272
3.002221399786D1,3.002221399786D1,-2.6D1,-2.6D1,2.6D1,2.6D1,1D0,     211P    273
1D0,1D0,1D0,2.6D1,0D0,3.002221399786D1,2.6D1,0D0,                    211P    274
-3.002221399786D1,-2.6D1,0D0,3.002221399786D1,-2.6D1,0D0,            211P    275
-3.002221399786D1,-3.002221399786D1,3.002221399786D1,-2.6D1,         211P    276
2.6D1;                                                               211P    277
508,6,0,139,1,1,0,0,139,2,1,0,0,139,3,1,0,0,139,4,1,0,0,139,5,1,     213P    278
0,0,139,6,1,0;                                                       213P    279
508,2,0,139,32,0,0,0,139,34,0,0;                                     215P    280
510,211,2,0,213,215;                                                 217P    281
128,1,1,1,1,0,0,1,0,0,-5.773502691896D-1,-5.773502691896D-1,         219P    282
2.944486372867D1,2.944486372867D1,-4.200000001310D-1,                219P    283
-4.200000001310D-1,2.142000000668D1,2.142000000668D1,1D0,1D0,        219P    284
1D0,1D0,-2.55D1,-4.200000001310D-1,1.414508159515D1,5D-1,            219P    285
-4.200000001310D-1,2.915618859408D1,-2.55D1,2.142000000668D1,        219P    286
1.414508159515D1,5D-1,2.142000000668D1,2.915618859408D1,             219P    287
-5.773502691896D-1,2.944486372867D1,-4.200000001310D-1,              219P    288
2.142000000668D1;                                                    219P    289
508,5,0,139,13,1,0,0,139,14,1,0,0,139,26,0,0,0,139,1,0,0,0,139,      221P    290
25,1,0;                                                              221P    291
510,219,1,0,221;                                                     223P    292
110,0D0,3.543375672974D1,0D0,0D0,3.643375672974D1,0D0;               225P    293
110,2.900248413636D1,1.868916470644D1,0D0,2.486502932312D1,          227P    294
2.107792535663D1,0D0;                                                227P    295
120,225,227,-3.204424506176D0,6.283183612526D-2;                     229P    296
508,3,0,139,13,0,0,0,139,24,0,0,0,139,10,1,0;                        231P    297
510,229,1,0,231;                                                     233P    298
110,0D0,3.543375672974D1,0D0,0D0,3.643375672974D1,0D0;               235P    299
110,2.900248413636D1,1.868916470644D1,0D0,2.486502932312D1,          237P    300
2.107792535663D1,0D0;                                                237P    301
120,235,237,-3.204424506176D0,6.283183612526D-2;                     239P    302
508,3,0,139,15,0,0,0,139,14,0,0,0,139,11,1,0;                        241P    303
510,239,1,0,241;                                                     243P    304
110,0D0,3.543375672974D1,0D0,0D0,3.643375672974D1,0D0;               245P    305
110,2.900248413636D1,1.868916470644D1,0D0,2.486502932312D1,          247P    306
2.107792535663D1,0D0;                                                247P    307
120,245,247,-3.204424506176D0,6.283183612526D-2;                     249P    308
508,3,0,139,18,0,0,0,139,16,0,0,0,139,12,1,0;                        251P    309
510,249,1,0,251;                                                     253P    310
128,1,1,1,1,0,0,1,0,0,-5.773502691896D-1,-5.773502691896D-1,         255P    311
2.944486372867D1,2.944486372867D1,-4.200000003716D-1,                255P    312
-4.200000003716D-1,2.142000001895D1,2.142000001895D1,1D0,1D0,        255P    313
1D0,1D0,-2.5D1,-4.200000003716D-1,-1.501110699893D1,-2.5D1,          255P    314
-4.200000003716D-1,1.501110699893D1,-2.5D1,2.142000001895D1,         255P    315
-1.501110699893D1,-2.5D1,2.142000001895D1,1.501110699893D1,          255P    316
-5.773502691896D-1,2.944486372867D1,-4.200000003716D-1,              255P    317
2.142000001895D1;                                                    255P    318
508,5,0,139,23,1,0,0,139,24,1,0,0,139,25,0,0,0,139,6,0,0,0,139,      257P    319
30,1,0;                                                              257P    320
510,255,1,0,257;                                                     259P    321
110,0D0,3.543375672974D1,0D0,0D0,3.643375672974D1,0D0;               261P    322
110,2.900248413636D1,1.868916470644D1,0D0,2.486502932312D1,          263P    323
2.107792535663D1,0D0;                                                263P    324
120,261,263,-6.283185268441D-2,3.204424490042D0;                     265P    325
508,3,0,139,19,0,0,0,139,17,0,0,0,139,7,1,0;                         267P    326
510,265,1,0,267;                                                     269P    327
110,0D0,3.543375672974D1,0D0,0D0,3.643375672974D1,0D0;               271P    328
110,2.900248413636D1,1.868916470644D1,0D0,2.486502932312D1,          273P    329
2.107792535663D1,0D0;                                                273P    330
120,271,273,-6.283185268441D-2,3.204424490042D0;                     275P    331
508,3,0,139,21,0,0,0,139,20,0,0,0,139,8,1,0;                         277P    332
510,275,1,0,277;                                                     279P    333
110,0D0,3.543375672974D1,0D0,0D0,3.643375672974D1,0D0;               281P    334
110,2.900248413636D1,1.868916470644D1,0D0,2.486502932312D1,          283P    335
2.107792535663D1,0D0;                                                283P    336
120,281,283,-6.283185268441D-2,3.204424490042D0;                     285P    337
508,3,0,139,23,0,0,0,139,22,0,0,0,139,9,1,0;                         287P    338
510,285,1,0,287;                                                     289P    339
128,1,1,1,1,0,0,1,0,0,-5.773502691896D-1,-5.773502691896D-1,         291P    340
2.944486372867D1,2.944486372867D1,-4.200000000002D-1,                291P    341
-4.200000000002D-1,2.142000000001D1,2.142000000001D1,1D0,1D0,        291P    342
1D0,1D0,2.55D1,-4.200000000002D-1,-1.414508159515D1,-5D-1,           291P    343
-4.200000000002D-1,-2.915618859408D1,2.55D1,2.142000000001D1,        291P    344
-1.414508159515D1,-5D-1,2.142000000001D1,-2.915618859408D1,          291P    345
-5.773502691896D-1,2.944486372867D1,-4.200000000002D-1,              291P    346
2.142000000001D1;                                                    291P    347
508,5,0,139,19,1,0,0,139,20,1,0,0,139,29,0,0,0,139,4,0,0,0,139,      293P    348
28,1,0;                                                              293P    349
510,291,1,0,293;                                                     295P    350
128,1,1,1,1,0,0,1,0,0,-5.773502691896D-1,-5.773502691896D-1,         297P    351
2.944486372867D1,2.944486372867D1,-4.200000001742D-1,                297P    352
-4.200000001742D-1,2.142000000889D1,2.142000000889D1,1D0,1D0,        297P    353
1D0,1D0,5D-1,-4.200000001742D-1,-2.915618859408D1,-2.55D1,           297P    354
-4.200000001742D-1,-1.414508159515D1,5D-1,2.142000000889D1,          297P    355
-2.915618859408D1,-2.55D1,2.142000000889D1,-1.414508159515D1,        297P    356
-5.773502691896D-1,2.944486372867D1,-4.200000001742D-1,              297P    357
2.142000000889D1;                                                    297P    358
508,5,0,139,21,1,0,0,139,22,1,0,0,139,30,0,0,0,139,5,0,0,0,139,      299P    359
29,1,0;                                                              299P    360
510,297,1,0,299;                                                     301P    361
128,1,1,1,1,0,0,1,0,0,-5.773502691896D-1,-5.773502691896D-1,         303P    362
2.944486372867D1,2.944486372867D1,-4.200000003716D-1,                303P    363
-4.200000003716D-1,2.142000001895D1,2.142000001895D1,1D0,1D0,        303P    364
1D0,1D0,2.5D1,-4.200000003716D-1,1.501110699893D1,2.5D1,             303P    365
-4.200000003716D-1,-1.501110699893D1,2.5D1,2.142000001895D1,         303P    366
1.501110699893D1,2.5D1,2.142000001895D1,-1.501110699893D1,           303P    367
-5.773502691896D-1,2.944486372867D1,-4.200000003716D-1,              303P    368
2.142000001895D1;                                                    303P    369
508,5,0,139,17,1,0,0,139,28,0,0,0,139,3,0,0,0,139,27,1,0,0,139,      305P    370
18,1,0;                                                              305P    371
510,303,1,0,305;                                                     307P    372
128,1,1,1,1,0,0,1,0,0,-5.773502691896D-1,-5.773502691896D-1,         309P    373
2.944486372867D1,2.944486372867D1,-4.200000000003D-1,                309P    374
-4.200000000003D-1,2.142000000001D1,2.142000000001D1,1D0,1D0,        309P    375
1D0,1D0,-5D-1,-4.200000000003D-1,2.915618859408D1,2.55D1,            309P    376
-4.200000000003D-1,1.414508159515D1,-5D-1,2.142000000001D1,          309P    377
2.915618859408D1,2.55D1,2.142000000001D1,1.414508159515D1,           309P    378
-5.773502691896D-1,2.944486372867D1,-4.200000000003D-1,              309P    379
2.142000000001D1;                                                    309P    380
508,5,0,139,15,1,0,0,139,16,1,0,0,139,27,0,0,0,139,2,0,0,0,139,      311P    381
26,1,0;                                                              311P    382
510,309,1,0,311;                                                     313P    383
128,1,1,1,1,0,0,1,0,0,-2.602141425642D1,-2.602141425642D1,           315P    384
2.602141426388D1,2.602141426388D1,-2.600000000004D1,                 315P    385
-2.600000000004D1,2.600000000004D1,2.600000000004D1,1D0,1D0,1D0,     315P    386
1D0,2.600000000004D1,2.1D1,2.602141425642D1,2.600000000004D1,        315P    387
2.1D1,-2.602141426388D1,-2.600000000004D1,2.1D1,                     315P    388
2.602141425642D1,-2.600000000004D1,2.1D1,-2.602141426388D1,          315P    389
-2.602141425642D1,2.602141426388D1,-2.600000000004D1,                315P    390
2.600000000004D1;                                                    315P    391
508,6,0,139,7,0,0,0,139,12,0,0,0,139,11,0,0,0,139,10,0,0,0,139,      317P    392
9,0,0,0,139,8,0,0;                                                   317P    393
510,315,1,0,317;                                                     319P    394
514,21,145,0,155,1,165,1,175,1,185,1,197,0,209,0,217,0,223,1,        321P    395
233,1,243,1,253,1,259,1,269,1,279,1,289,1,295,1,301,1,307,1,313,     321P    396
1,319,1;                                                             321P    397
124,-1D0,0D0,0D0,0D0,0D0,0D0,-1D0,-8D1,0D0,-1D0,0D0,0D0;             323P    398
100,0D0,0D0,0D0,1.1876D1,0D0,-1.1876D1,0D0;                          325P    399
110,1.1876D1,-8D1,0D0,1.1876D1,-8D0,0D0;                             327P    400
124,1D0,0D0,0D0,0D0,0D0,0D0,-1D0,-8D1,0D0,1D0,0D0,0D0;               329P    401
100,0D0,0D0,0D0,1.1876D1,0D0,-1.1876D1,0D0;                          331P    402
110,-1.1876D1,-8D1,0D0,-1.1876D1,-8D0,0D0;                           333P    403
124,-1D0,0D0,0D0,0D0,0D0,0D0,1D0,-8D0,0D0,1D0,0D0,0D0;               335P    404
100,0D0,0D0,0D0,1.1876D1,0D0,-1.1876D1,0D0;                          337P    405
124,1D0,0D0,0D0,0D0,0D0,0D0,1D0,-8D0,0D0,-1D0,0D0,0D0;               339P    406
100,0D0,0D0,0D0,1.1876D1,0D0,-1.1876D1,0D0;                          341P    407
124,-1D0,0D0,0D0,0D0,0D0,0D0,1D0,-8D0,0D0,1D0,0D0,0D0;               343P    408
100,0D0,0D0,0D0,1.65D1,0D0,-1.65D1,0D0;                              345P    409
124,1D0,0D0,0D0,0D0,0D0,0D0,1D0,-8D0,0D0,-1D0,0D0,0D0;               347P    410
100,0D0,0D0,0D0,1.65D1,0D0,-1.65D1,0D0;                              349P    411
502,6,-1.1876D1,-8D1,0D0,1.1876D1,-8D1,0D0,-1.1876D1,-8D0,0D0,       351P    412
1.1876D1,-8D0,0D0,1.65D1,-8D0,0D0,-1.65D1,-8D0,0D0;                  351P    413
504,8,331,351,1,351,2,325,351,2,351,1,337,351,3,351,4,341,351,4,     353P    414
351,3,333,351,1,351,3,327,351,2,351,4,345,351,5,351,6,349,351,6,     353P    415
351,5;                                                               353P    416
110,0D0,-8D1,0D0,0D0,-7.9D1,0D0;                                     355P    417
110,-1.1876D1,-8.144D1,0D0,-1.1876D1,-6.56D0,0D0;                    357P    418
120,355,357,3.078760800518D0,6.346017160251D0;                       359P    419
508,4,0,353,2,0,0,0,353,6,1,0,0,353,4,1,0,0,353,5,0,0;               361P    420
510,359,1,0,361;                                                     363P    421
110,0D0,-8D1,0D0,0D0,-7.9D1,0D0;                                     365P    422
110,-1.1876D1,-8.144D1,0D0,-1.1876D1,-6.56D0,0D0;                    367P    423
120,365,367,-6.283185307180D-2,3.204424506662D0;                     369P    424
508,4,0,353,1,0,0,0,353,5,1,0,0,353,3,1,0,0,353,6,0,0;               371P    425
510,369,1,0,371;                                                     373P    426
128,1,1,1,1,0,0,1,0,0,-1.718135240983D1,-1.718135240983D1,           375P    427
1.718135240983D1,1.718135240983D1,-1.716D1,-1.716D1,1.716D1,         375P    428
1.716D1,1D0,1D0,1D0,1D0,1.716D1,-8D0,-1.718135240983D1,1.716D1,      375P    429
-8D0,1.718135240983D1,-1.716D1,-8D0,-1.718135240983D1,-1.716D1,      375P    430
-8D0,1.718135240983D1,-1.718135240983D1,1.718135240983D1,            375P    431
-1.716D1,1.716D1;                                                    375P    432
508,2,0,353,7,0,0,0,353,8,0,0;                                       377P    433
508,2,0,353,3,0,0,0,353,4,0,0;                                       379P    434
510,375,2,0,377,379;                                                 381P    435
514,3,363,1,373,1,381,1;                                             383P    436
186,321,1,0;                                                         385P    437
S      1G      5D    386P    437                                        T      1
