 PTC IGES file: sroub-m18x50-csn_02_1101.igs                            S      1
1H,,1H;,24HSROUB-M18X50-CSN_02_1101,28Hsroub-m18x50-csn_02_1101.igs,    G      1
49HPro/ENGINEER by Parametric Technology Corporation,7H2007160,32,38,7, G      2
38,15,24HSROUB-M18X50-CSN_02_1101,1.,2,2HMM,32768,0.5,                  G      3
15H20110917.003026,0.00760759,76.0789,13HVladimir Zima,7HUnknown,10,0,  G      4
15H20110917.003026;                                                     G      5
     314       1       1       1       0       0       0       001000200D      1
     314       0       4       1       0                   COLOR       1D      2
     314       2       1       1       0       0       0       001000200D      3
     314       0       1       1       0                   COLOR       2D      4
     314       3       1       1       0       0       0       001000200D      5
     314       0       1       1       0                   COLOR       3D      6
     314       4       1       1       0       0       0       001000200D      7
     314       0       1       1       0                   COLOR       4D      8
     314       5       1       1       0       0       0       001000200D      9
     314       0       8       1       0                   COLOR       5D     10
     314       6       1       1       0       0       0       001000200D     11
     314       0       8       1       0                   COLOR       6D     12
     314       7       1       1       0       0       0       001000200D     13
     314       0       5       1       0                   COLOR       7D     14
     314       8       1       1       0       0       0       001000200D     15
     314       0       8       1       0                   COLOR       8D     16
     124       9       1       1       0       0       0       001000000D     17
     124       0       0       2       0                   XFORM       1D     18
     100      11       1       1       0       0      17       001010000D     19
     100       0       0       2       0                     ARC       1D     20
     124      13       1       1       0       0       0       001000000D     21
     124       0       0       2       0                   XFORM       2D     22
     100      15       1       1       0       0      21       001010000D     23
     100       0       0       1       0                     ARC       2D     24
     110      16       1       1       0       0       0       001010000D     25
     110       0       0       2       0                    LINE       1D     26
     110      18       1       1       0       0       0       001010000D     27
     110       0       0       2       0                    LINE       2D     28
     124      20       1       1       0       0       0       001000000D     29
     124       0       0       2       0                   XFORM       3D     30
     100      22       1       1       0       0      29       001010000D     31
     100       0       0       1       0                     ARC       3D     32
     110      23       1       1       0       0       0       001010000D     33
     110       0       0       2       0                    LINE       3D     34
     124      25       1       1       0       0       0       001000000D     35
     124       0       0       1       0                   XFORM       4D     36
     100      26       1       1       0       0      35       001010000D     37
     100       0       0       1       0                     ARC       4D     38
     124      27       1       1       0       0       0       001000000D     39
     124       0       0       2       0                   XFORM       5D     40
     100      29       1       1       0       0      39       001010000D     41
     100       0       0       1       0                     ARC       5D     42
     110      30       1       1       0       0       0       001010000D     43
     110       0       0       2       0                    LINE       4D     44
     124      32       1       1       0       0       0       001000000D     45
     124       0       0       1       0                   XFORM       6D     46
     100      33       1       1       0       0      45       001010000D     47
     100       0       0       1       0                     ARC       6D     48
     124      34       1       1       0       0       0       001000000D     49
     124       0       0       2       0                   XFORM       7D     50
     100      36       1       1       0       0      49       001010000D     51
     100       0       0       1       0                     ARC       7D     52
     124      37       1       1       0       0       0       001000000D     53
     124       0       0       2       0                   XFORM       8D     54
     100      39       1       1       0       0      53       001010000D     55
     100       0       0       1       0                     ARC       8D     56
     110      40       1       1       0       0       0       001010000D     57
     110       0       0       1       0                    LINE       5D     58
     110      41       1       1       0       0       0       001010000D     59
     110       0       0       1       0                    LINE       6D     60
     110      42       1       1       0       0       0       001010000D     61
     110       0       0       1       0                    LINE       7D     62
     110      43       1       1       0       0       0       001010000D     63
     110       0       0       1       0                    LINE       8D     64
     110      44       1       1       0       0       0       001010000D     65
     110       0       0       1       0                    LINE       9D     66
     110      45       1       1       0       0       0       001010000D     67
     110       0       0       1       0                    LINE      10D     68
     124      46       1       1       0       0       0       001000000D     69
     124       0       0       1       0                   XFORM       9D     70
     100      47       1       1       0       0      69       001010000D     71
     100       0       0       1       0                     ARC       9D     72
     124      48       1       1       0       0       0       001000000D     73
     124       0       0       1       0                   XFORM      10D     74
     100      49       1       1       0       0      73       001010000D     75
     100       0       0       1       0                     ARC      10D     76
     126      50       1       1       0       0       0       001010000D     77
     126       0       0      10       0                B_SPLINE       1D     78
     126      60       1       1       0       0       0       001010000D     79
     126       0       0      10       0                B_SPLINE       2D     80
     110      70       1       1       0       0       0       001010000D     81
     110       0       0       2       0                    LINE      11D     82
     126      72       1       1       0       0       0       001010000D     83
     126       0       0       9       0                B_SPLINE       3D     84
     126      81       1       1       0       0       0       001010000D     85
     126       0       0       9       0                B_SPLINE       4D     86
     110      90       1       1       0       0       0       001010000D     87
     110       0       0       2       0                    LINE      12D     88
     126      92       1       1       0       0       0       001010000D     89
     126       0       0      10       0                B_SPLINE       5D     90
     126     102       1       1       0       0       0       001010000D     91
     126       0       0      10       0                B_SPLINE       6D     92
     110     112       1       1       0       0       0       001010000D     93
     110       0       0       2       0                    LINE      13D     94
     126     114       1       1       0       0       0       001010000D     95
     126       0       0      10       0                B_SPLINE       7D     96
     126     124       1       1       0       0       0       001010000D     97
     126       0       0      10       0                B_SPLINE       8D     98
     110     134       1       1       0       0       0       001010000D     99
     110       0       0       2       0                    LINE      14D    100
     126     136       1       1       0       0       0       001010000D    101
     126       0       0       9       0                B_SPLINE       9D    102
     110     145       1       1       0       0       0       001010000D    103
     110       0       0       2       0                    LINE      15D    104
     126     147       1       1       0       0       0       001010000D    105
     126       0       0       9       0                B_SPLINE      10D    106
     126     156       1       1       0       0       0       001010000D    107
     126       0       0      10       0                B_SPLINE      11D    108
     126     166       1       1       0       0       0       001010000D    109
     126       0       0      10       0                B_SPLINE      12D    110
     110     176       1       1       0       0       0       001010000D    111
     110       0       0       2       0                    LINE      16D    112
     124     178       1       1       0       0       0       001000000D    113
     124       0       0       1       0                   XFORM      11D    114
     100     179       1       1       0       0     113       001010000D    115
     100       0       0       1       0                     ARC      11D    116
     124     180       1       1       0       0       0       001000000D    117
     124       0       0       2       0                   XFORM      12D    118
     100     182       1       1       0       0     117       001010000D    119
     100       0       0       1       0                     ARC      12D    120
     124     183       1       1       0       0       0       001000000D    121
     124       0       0       2       0                   XFORM      13D    122
     100     185       1       1       0       0     121       001010000D    123
     100       0       0       1       0                     ARC      13D    124
     124     186       1       1       0       0       0       001000000D    125
     124       0       0       1       0                   XFORM      14D    126
     100     187       1       1       0       0     125       001010000D    127
     100       0       0       1       0                     ARC      14D    128
     124     188       1       1       0       0       0       001000000D    129
     124       0       0       2       0                   XFORM      15D    130
     100     190       1       1       0       0     129       001010000D    131
     100       0       0       1       0                     ARC      15D    132
     124     191       1       1       0       0       0       001000000D    133
     124       0       0       2       0                   XFORM      16D    134
     100     193       1       1       0       0     133       001010000D    135
     100       0       0       1       0                     ARC      16D    136
     502     194       1       1       0       0       0       001010000D    137
     502       0       0      15       1                  VERTEX       1D    138
     504     209       1       1       0       0       0       000010001D    139
     504       0       0      12       1                    EDGE       1D    140
     128     221       1       1       0       0       0       001010000D    141
     128       0       0       6       0                  SPLSRF       1D    142
     508     227       1       1       0       0       0       001010000D    143
     508       0       0       1       1                EDGELOOP       1D    144
     510     228       1       1       0       0       0       000010000D    145
     510       0       0       1       1                    FACE       1D    146
     110     229       1       1       0       0       0       001010000D    147
     110       0       0       2       0                    LINE      17D    148
     110     231       1       1       0       0       0       001010000D    149
     110       0       0       2       0                    LINE      18D    150
     120     233       1       1       0       0       0       001010000D    151
     120       0       0       1       0                    SREV       1D    152
     508     234       1       1       0       0       0       001010000D    153
     508       0       0       1       1                EDGELOOP       2D    154
     510     235       1       1       0       0       0       000010000D    155
     510       0       0       1       1                    FACE       2D    156
     110     236       1       1       0       0       0       001010000D    157
     110       0       0       1       0                    LINE      19D    158
     110     237       1       1       0       0       0       001010000D    159
     110       0       0       2       0                    LINE      20D    160
     120     239       1       1       0       0       0       001010000D    161
     120       0       0       1       0                    SREV       2D    162
     508     240       1       1       0       0       0       001010000D    163
     508       0       0       1       1                EDGELOOP       3D    164
     510     241       1       1       0       0       0       000010000D    165
     510       0       0       1       1                    FACE       3D    166
     110     242       1       1       0       0       0       001010000D    167
     110       0       0       1       0                    LINE      21D    168
     110     243       1       1       0       0       0       001010000D    169
     110       0       0       1       0                    LINE      22D    170
     120     244       1       1       0       0       0       001010000D    171
     120       0       0       1       0                    SREV       3D    172
     508     245       1       1       0       0       0       001010000D    173
     508       0       0       1       1                EDGELOOP       4D    174
     510     246       1       1       0       0       0       000010000D    175
     510       0       0       1       1                    FACE       4D    176
     110     247       1       1       0       0       0       001010000D    177
     110       0       0       1       0                    LINE      23D    178
     110     248       1       1       0       0       0       001010000D    179
     110       0       0       1       0                    LINE      24D    180
     120     249       1       1       0       0       0       001010000D    181
     120       0       0       1       0                    SREV       4D    182
     508     250       1       1       0       0       0       001010000D    183
     508       0       0       1       1                EDGELOOP       5D    184
     510     251       1       1       0       0       0       000010000D    185
     510       0       0       1       1                    FACE       5D    186
     110     252       1       1       0       0       0       001010000D    187
     110       0       0       1       0                    LINE      25D    188
     124     253       1       1       0       0       0       001000000D    189
     124       0       0       4       0                   XFORM      17D    190
     100     257       1       1       0       0     189       001010000D    191
     100       0       0       1       0                     ARC      17D    192
     120     258       1       1       0       0       0       001010000D    193
     120       0       0       1       0                    SREV       5D    194
     508     259       1       1       0       0       0       001010000D    195
     508       0       0       1       1                EDGELOOP       6D    196
     510     260       1       1       0       0       0       000010000D    197
     510       0       0       1       1                    FACE       6D    198
     110     261       1       1       0       0       0       001010000D    199
     110       0       0       1       0                    LINE      26D    200
     124     262       1       1       0       0       0       001000000D    201
     124       0       0       4       0                   XFORM      18D    202
     100     266       1       1       0       0     201       001010000D    203
     100       0       0       1       0                     ARC      18D    204
     120     267       1       1       0       0       0       001010000D    205
     120       0       0       1       0                    SREV       6D    206
     508     268       1       1       0       0       0       001010000D    207
     508       0       0       1       1                EDGELOOP       7D    208
     510     269       1       1       0       0       0       000010000D    209
     510       0       0       1       1                    FACE       7D    210
     128     270       1       1       0       0       0       001010000D    211
     128       0       0       6       0                  SPLSRF       2D    212
     508     276       1       1       0       0       0       001010000D    213
     508       0       0       2       1                EDGELOOP       8D    214
     508     278       1       1       0       0       0       001010000D    215
     508       0       0       1       1                EDGELOOP       9D    216
     510     279       1       1       0       0       0       000010000D    217
     510       0       0       1       1                    FACE       8D    218
     128     280       1       1       0       0       0       001010000D    219
     128       0       0       8       0                  SPLSRF       3D    220
     508     288       1       1       0       0       0       001010000D    221
     508       0       0       2       1                EDGELOOP      10D    222
     510     290       1       1       0       0       0       000010000D    223
     510       0       0       1       1                    FACE       9D    224
     110     291       1       1       0       0       0       001010000D    225
     110       0       0       1       0                    LINE      27D    226
     110     292       1       1       0       0       0       001010000D    227
     110       0       0       2       0                    LINE      28D    228
     120     294       1       1       0       0       0       001010000D    229
     120       0       0       1       0                    SREV       7D    230
     508     295       1       1       0       0       0       001010000D    231
     508       0       0       1       1                EDGELOOP      11D    232
     510     296       1       1       0       0       0       000010000D    233
     510       0       0       1       1                    FACE      10D    234
     110     297       1       1       0       0       0       001010000D    235
     110       0       0       1       0                    LINE      29D    236
     110     298       1       1       0       0       0       001010000D    237
     110       0       0       2       0                    LINE      30D    238
     120     300       1       1       0       0       0       001010000D    239
     120       0       0       1       0                    SREV       8D    240
     508     301       1       1       0       0       0       001010000D    241
     508       0       0       1       1                EDGELOOP      12D    242
     510     302       1       1       0       0       0       000010000D    243
     510       0       0       1       1                    FACE      11D    244
     110     303       1       1       0       0       0       001010000D    245
     110       0       0       1       0                    LINE      31D    246
     110     304       1       1       0       0       0       001010000D    247
     110       0       0       2       0                    LINE      32D    248
     120     306       1       1       0       0       0       001010000D    249
     120       0       0       1       0                    SREV       9D    250
     508     307       1       1       0       0       0       001010000D    251
     508       0       0       1       1                EDGELOOP      13D    252
     510     308       1       1       0       0       0       000010000D    253
     510       0       0       1       1                    FACE      12D    254
     128     309       1       1       0       0       0       001010000D    255
     128       0       0       8       0                  SPLSRF       4D    256
     508     317       1       1       0       0       0       001010000D    257
     508       0       0       2       1                EDGELOOP      14D    258
     510     319       1       1       0       0       0       000010000D    259
     510       0       0       1       1                    FACE      13D    260
     110     320       1       1       0       0       0       001010000D    261
     110       0       0       1       0                    LINE      33D    262
     110     321       1       1       0       0       0       001010000D    263
     110       0       0       2       0                    LINE      34D    264
     120     323       1       1       0       0       0       001010000D    265
     120       0       0       1       0                    SREV      10D    266
     508     324       1       1       0       0       0       001010000D    267
     508       0       0       1       1                EDGELOOP      15D    268
     510     325       1       1       0       0       0       000010000D    269
     510       0       0       1       1                    FACE      14D    270
     110     326       1       1       0       0       0       001010000D    271
     110       0       0       1       0                    LINE      35D    272
     110     327       1       1       0       0       0       001010000D    273
     110       0       0       2       0                    LINE      36D    274
     120     329       1       1       0       0       0       001010000D    275
     120       0       0       1       0                    SREV      11D    276
     508     330       1       1       0       0       0       001010000D    277
     508       0       0       1       1                EDGELOOP      16D    278
     510     331       1       1       0       0       0       000010000D    279
     510       0       0       1       1                    FACE      15D    280
     110     332       1       1       0       0       0       001010000D    281
     110       0       0       1       0                    LINE      37D    282
     110     333       1       1       0       0       0       001010000D    283
     110       0       0       2       0                    LINE      38D    284
     120     335       1       1       0       0       0       001010000D    285
     120       0       0       1       0                    SREV      12D    286
     508     336       1       1       0       0       0       001010000D    287
     508       0       0       1       1                EDGELOOP      17D    288
     510     337       1       1       0       0       0       000010000D    289
     510       0       0       1       1                    FACE      16D    290
     128     338       1       1       0       0       0       001010000D    291
     128       0       0       8       0                  SPLSRF       5D    292
     508     346       1       1       0       0       0       001010000D    293
     508       0       0       2       1                EDGELOOP      18D    294
     510     348       1       1       0       0       0       000010000D    295
     510       0       0       1       1                    FACE      17D    296
     128     349       1       1       0       0       0       001010000D    297
     128       0       0       8       0                  SPLSRF       6D    298
     508     357       1       1       0       0       0       001010000D    299
     508       0       0       2       1                EDGELOOP      19D    300
     510     359       1       1       0       0       0       000010000D    301
     510       0       0       1       1                    FACE      18D    302
     128     360       1       1       0       0       0       001010000D    303
     128       0       0       8       0                  SPLSRF       7D    304
     508     368       1       1       0       0       0       001010000D    305
     508       0       0       2       1                EDGELOOP      20D    306
     510     370       1       1       0       0       0       000010000D    307
     510       0       0       1       1                    FACE      19D    308
     128     371       1       1       0       0       0       001010000D    309
     128       0       0       8       0                  SPLSRF       8D    310
     508     379       1       1       0       0       0       001010000D    311
     508       0       0       2       1                EDGELOOP      21D    312
     510     381       1       1       0       0       0       000010000D    313
     510       0       0       1       1                    FACE      20D    314
     128     382       1       1       0       0       0       001010000D    315
     128       0       0       8       0                  SPLSRF       9D    316
     508     390       1       1       0       0       0       001010000D    317
     508       0       0       2       1                EDGELOOP      22D    318
     510     392       1       1       0       0       0       000010000D    319
     510       0       0       1       1                    FACE      21D    320
     514     393       1       1       0       0       0       000010000D    321
     514       0       0       3       1                   SHELL       1D    322
     124     396       1       1       0       0       0       001000000D    323
     124       0       0       1       0                   XFORM      19D    324
     100     397       1       1       0       0     323       001010000D    325
     100       0       0       1       0                     ARC      19D    326
     110     398       1       1       0       0       0       001010000D    327
     110       0       0       1       0                    LINE      39D    328
     124     399       1       1       0       0       0       001000000D    329
     124       0       0       1       0                   XFORM      20D    330
     100     400       1       1       0       0     329       001010000D    331
     100       0       0       1       0                     ARC      20D    332
     110     401       1       1       0       0       0       001010000D    333
     110       0       0       1       0                    LINE      40D    334
     124     402       1       1       0       0       0       001000000D    335
     124       0       0       1       0                   XFORM      21D    336
     100     403       1       1       0       0     335       001010000D    337
     100       0       0       1       0                     ARC      21D    338
     124     404       1       1       0       0       0       001000000D    339
     124       0       0       1       0                   XFORM      22D    340
     100     405       1       1       0       0     339       001010000D    341
     100       0       0       1       0                     ARC      22D    342
     124     406       1       1       0       0       0       001000000D    343
     124       0       0       1       0                   XFORM      23D    344
     100     407       1       1       0       0     343       001010000D    345
     100       0       0       1       0                     ARC      23D    346
     124     408       1       1       0       0       0       001000000D    347
     124       0       0       1       0                   XFORM      24D    348
     100     409       1       1       0       0     347       001010000D    349
     100       0       0       1       0                     ARC      24D    350
     502     410       1       1       0       0       0       001010000D    351
     502       0       0       2       1                  VERTEX       2D    352
     504     412       1       1       0       0       0       000010001D    353
     504       0       0       3       1                    EDGE       2D    354
     110     415       1       1       0       0       0       001010000D    355
     110       0       0       1       0                    LINE      41D    356
     110     416       1       1       0       0       0       001010000D    357
     110       0       0       1       0                    LINE      42D    358
     120     417       1       1       0       0       0       001010000D    359
     120       0       0       1       0                    SREV      13D    360
     508     418       1       1       0       0       0       001010000D    361
     508       0       0       1       1                EDGELOOP      23D    362
     510     419       1       1       0       0       0       000010000D    363
     510       0       0       1       1                    FACE      22D    364
     110     420       1       1       0       0       0       001010000D    365
     110       0       0       1       0                    LINE      43D    366
     110     421       1       1       0       0       0       001010000D    367
     110       0       0       1       0                    LINE      44D    368
     120     422       1       1       0       0       0       001010000D    369
     120       0       0       1       0                    SREV      14D    370
     508     423       1       1       0       0       0       001010000D    371
     508       0       0       1       1                EDGELOOP      24D    372
     510     424       1       1       0       0       0       000010000D    373
     510       0       0       1       1                    FACE      23D    374
     128     425       1       1       0       0       0       001010000D    375
     128       0       0       5       0                  SPLSRF      10D    376
     508     430       1       1       0       0       0       001010000D    377
     508       0       0       1       1                EDGELOOP      25D    378
     508     431       1       1       0       0       0       001010000D    379
     508       0       0       1       1                EDGELOOP      26D    380
     510     432       1       1       0       0       0       000010000D    381
     510       0       0       1       1                    FACE      24D    382
     514     433       1       1       0       0       0       000000000D    383
     514       0       0       1       1                   SHELL       2D    384
     186     434       1       1       0       0       0       000000000D    385
     186       0       0       1       0                    MSBR       1D    386
314,1.1D0,1.2D0,1D2;                                                   1P      1
314,1.1D1,1.1D1,1.1D1;                                                 3P      2
314,3.92D1,1.2D0,1.2D0;                                                5P      3
314,4.1D1,0D0,2.2D1;                                                   7P      4
314,8.784D1,9.49D1,1D2;                                                9P      5
314,9.6D1,9.6D1,9.6D1;                                                11P      6
314,9.8D1,6.27D1,0D0;                                                 13P      7
314,1D2,1D2,9.49D1;                                                   15P      8
124,0D0,1D0,0D0,0D0,0D0,0D0,-1D0,-4.999999161937D1,-1D0,0D0,0D0,      17P      9
-2.708944180085D-14;                                                  17P     10
100,0D0,0D0,0D0,7.799987695742D0,0D0,-7.799987695742D0,               19P     11
1.481075293976D-14;                                                   19P     12
124,0D0,-1D0,0D0,0D0,0D0,0D0,-1D0,-4.999999161937D1,1D0,0D0,0D0,      21P     13
0D0;                                                                  21P     14
100,0D0,0D0,0D0,7.799987695742D0,0D0,-7.799987695742D0,0D0;           23P     15
110,-2.463273848216D-9,-4.999999310549D1,-7.799993104581D0,           25P     16
-2.131678471626D-9,-4.879999403360D1,-8.999994032810D0;               25P     17
110,2.463274632770D-9,-4.999999310549D1,7.799993104581D0,             27P     18
2.131676065560D-9,-4.879999403360D1,8.999994032810D0;                 27P     19
124,0D0,-1D0,0D0,0D0,0D0,0D0,-1D0,-4.879999541016D1,1D0,0D0,0D0,      29P     20
0D0;                                                                  29P     21
100,0D0,0D0,0D0,9D0,0D0,-9D0,0D0;                                     31P     22
110,1.465915076501D-12,-1.2D0,-9D0,-2.131678471626D-9,                33P     23
-4.879999403360D1,-8.999994032810D0;                                  33P     24
124,0D0,-1D0,0D0,0D0,0D0,0D0,1D0,-1.2D0,-1D0,0D0,0D0,0D0;             35P     25
100,0D0,0D0,0D0,9D0,0D0,-9D0,0D0;                                     37P     26
124,0D0,1D0,0D0,0D0,0D0,0D0,-1D0,-4.879999541016D1,-1D0,0D0,0D0,      39P     27
0D0;                                                                  39P     28
100,0D0,0D0,0D0,9D0,0D0,-9D0,0D0;                                     41P     29
110,-1.466496493468D-12,-1.2D0,9D0,2.131676065560D-9,                 43P     30
-4.879999403360D1,8.999994032810D0;                                   43P     31
124,0D0,1D0,0D0,0D0,0D0,0D0,1D0,-1.2D0,1D0,0D0,0D0,0D0;               45P     32
100,0D0,0D0,0D0,9D0,0D0,-9D0,0D0;                                     47P     33
124,4.282813687029D-12,0D0,1D0,-4.368469475047D-11,0D0,1D0,0D0,       49P     34
-1.2D0,-1D0,0D0,4.282813687029D-12,1.02D1;                            49P     35
100,0D0,0D0,0D0,1.2D0,0D0,6.432922879281D-13,1.2D0;                   51P     36
124,-4.282664500810D-12,0D0,-1D0,4.368319594938D-11,0D0,1D0,0D0,      53P     37
-1.2D0,1D0,0D0,-4.282664500810D-12,-1.02D1;                           53P     38
100,0D0,0D0,0D0,1.2D0,0D0,6.414271132467D-13,1.2D0;                   55P     39
110,-1.35D1,0D0,7.794228634060D0,0D0,0D0,1.558845726812D1;            57P     40
110,0D0,0D0,1.558845726812D1,1.35D1,0D0,7.794228634060D0;             59P     41
110,1.35D1,0D0,7.794228634060D0,1.35D1,0D0,-7.794228634060D0;         61P     42
110,1.35D1,0D0,-7.794228634060D0,0D0,0D0,-1.558845726812D1;           63P     43
110,0D0,0D0,-1.558845726812D1,-1.35D1,0D0,-7.794228634060D0;          65P     44
110,-1.35D1,0D0,-7.794228634060D0,-1.35D1,0D0,7.794228634060D0;       67P     45
124,0D0,-1D0,0D0,0D0,0D0,0D0,1D0,0D0,-1D0,0D0,0D0,0D0;                69P     46
100,0D0,0D0,0D0,1.019999992968D1,0D0,-1.019999992968D1,0D0;           71P     47
124,0D0,1D0,0D0,0D0,0D0,0D0,1D0,0D0,1D0,0D0,0D0,0D0;                  73P     48
100,0D0,0D0,0D0,1.019999992968D1,0D0,-1.019999992968D1,0D0;           75P     49
126,7,3,0,0,1,0,0D0,0D0,0D0,0D0,2D-1,4D-1,6D-1,8D-1,1D0,1D0,1D0,      77P     50
1D0,1D0,1D0,1D0,1D0,1D0,1D0,1D0,1D0,-1.35D1,1.079422863406D1,         77P     51
7.794228634060D0,-1.301928200733D1,1.095446796495D1,                  77P     52
8.071771296530D0,-1.207519813615D1,1.124317369240D1,                  77P     53
8.616838373694D0,-1.072808272559D1,1.157550164173D1,                  77P     54
9.394595818611D0,-9.397823078941D0,1.181816708909D1,                  77P     55
1.016262158370D1,-8.073639166647D0,1.196658878449D1,                  77P     56
1.092713952191D1,-7.190974291288D0,1.199999999997D1,                  77P     57
1.143674632531D1,-6.750000000768D0,1.200000000001D1,                  77P     58
1.169134295065D1,0D0,1D0,0D0,0D0,1D0;                                 77P     59
126,7,3,0,0,1,0,0D0,0D0,0D0,0D0,2D-1,4D-1,6D-1,8D-1,1D0,1D0,1D0,      79P     60
1D0,1D0,1D0,1D0,1D0,1D0,1D0,1D0,1D0,-6.750000000768D0,                79P     61
1.200000000001D1,1.169134295065D1,-6.308877404640D0,                  79P     62
1.200000000001D1,1.194602520027D1,-5.425955496778D0,                  79P     63
1.196656350601D1,1.245578040144D1,-4.101594814141D0,                  79P     64
1.181808879869D1,1.322040039807D1,-2.771096968981D0,                  79P     65
1.157531647934D1,1.398856368713D1,-1.424823365685D0,                  79P     66
1.124316702521D1,1.476583511439D1,-4.807444379145D-1,                 79P     67
1.095447678003D1,1.531089933748D1,0D0,1.079422863406D1,               79P     68
1.558845726812D1,0D0,1D0,0D0,0D0,1D0;                                 79P     69
110,-1.35D1,0D0,7.794228634060D0,-1.35D1,1.079422863406D1,            81P     70
7.794228634060D0;                                                     81P     71
126,7,3,0,0,1,0,0D0,0D0,0D0,0D0,2D-1,4D-1,6D-1,8D-1,1D0,1D0,1D0,      83P     72
1D0,1D0,1D0,1D0,1D0,1D0,1D0,1D0,1D0,-1.35D1,1.079422863406D1,         83P     73
-7.794228634060D0,-1.35D1,1.095303536198D1,-7.244105991373D0,         83P     74
-1.35D1,1.124008839803D1,-6.161434431487D0,-1.35D1,                   83P     75
1.157303216023D1,-4.606821078365D0,-1.35D1,1.181675631197D1,          83P     76
-3.068853605618D0,-1.35D1,1.196622256594D1,-1.535784685067D0,         83P     77
-1.350000000001D1,1.199999999996D1,-5.119461276008D-1,                83P     78
-1.350000000001D1,1.200000000002D1,-7.694306303272D-11,0D0,1D0,       83P     79
0D0,0D0,1D0;                                                          83P     80
126,7,3,0,0,1,0,0D0,0D0,0D0,0D0,2D-1,4D-1,6D-1,8D-1,1D0,1D0,1D0,      85P     81
1D0,1D0,1D0,1D0,1D0,1D0,1D0,1D0,1D0,-1.350000000001D1,                85P     82
1.200000000002D1,-7.694306303272D-11,-1.350000000001D1,               85P     83
1.199999999997D1,5.152009732094D-1,-1.35D1,1.196580593611D1,          85P     84
1.544667571108D0,-1.35D1,1.181484060652D1,3.084453535507D0,           85P     85
-1.35D1,1.156967743304D1,4.624654661225D0,-1.35D1,                    85P     86
1.123651607154D1,6.175678840462D0,-1.35D1,1.095141498055D1,           85P     87
7.249719157307D0,-1.35D1,1.079422863406D1,7.794228634060D0,0D0,       85P     88
1D0,0D0,0D0,1D0;                                                      85P     89
110,-1.35D1,0D0,-7.794228634060D0,-1.35D1,1.079422863406D1,           87P     90
-7.794228634060D0;                                                    87P     91
126,7,3,0,0,1,0,0D0,0D0,0D0,0D0,2D-1,4D-1,6D-1,8D-1,1D0,1D0,1D0,      89P     92
1D0,1D0,1D0,1D0,1D0,1D0,1D0,1D0,1D0,1.35D1,1.079422863406D1,          89P     93
-7.794228634060D0,1.301928200733D1,1.095446796495D1,                  89P     94
-8.071771296530D0,1.207519813615D1,1.124317369240D1,                  89P     95
-8.616838373694D0,1.072808272559D1,1.157550164173D1,                  89P     96
-9.394595818611D0,9.397823078941D0,1.181816708909D1,                  89P     97
-1.016262158370D1,8.073639166647D0,1.196658878449D1,                  89P     98
-1.092713952191D1,7.190974291288D0,1.199999999997D1,                  89P     99
-1.143674632531D1,6.750000000768D0,1.200000000001D1,                  89P    100
-1.169134295065D1,0D0,1D0,0D0,0D0,1D0;                                89P    101
126,7,3,0,0,1,0,0D0,0D0,0D0,0D0,2D-1,4D-1,6D-1,8D-1,1D0,1D0,1D0,      91P    102
1D0,1D0,1D0,1D0,1D0,1D0,1D0,1D0,1D0,6.750000000768D0,                 91P    103
1.200000000001D1,-1.169134295065D1,6.308877404640D0,                  91P    104
1.200000000001D1,-1.194602520027D1,5.425955496778D0,                  91P    105
1.196656350601D1,-1.245578040144D1,4.101594814141D0,                  91P    106
1.181808879869D1,-1.322040039807D1,2.771096968981D0,                  91P    107
1.157531647934D1,-1.398856368713D1,1.424823365685D0,                  91P    108
1.124316702521D1,-1.476583511439D1,4.807444379145D-1,                 91P    109
1.095447678003D1,-1.531089933748D1,0D0,1.079422863406D1,              91P    110
-1.558845726812D1,0D0,1D0,0D0,0D0,1D0;                                91P    111
110,1.35D1,0D0,-7.794228634060D0,1.35D1,1.079422863406D1,             93P    112
-7.794228634060D0;                                                    93P    113
126,7,3,0,0,1,0,0D0,0D0,0D0,0D0,2D-1,4D-1,6D-1,8D-1,1D0,1D0,1D0,      95P    114
1D0,1D0,1D0,1D0,1D0,1D0,1D0,1D0,1D0,0D0,1.079422863406D1,             95P    115
-1.558845726812D1,-4.807179926806D-1,1.095446796495D1,                95P    116
-1.531091460564D1,-1.424801863888D0,1.124317369242D1,                 95P    117
-1.476584752846D1,-2.771917274488D0,1.157550164175D1,                 95P    118
-1.398809008352D1,-4.102176921176D0,1.181816708911D1,                 95P    119
-1.322006431842D1,-5.426360833506D0,1.196658878450D1,                 95P    120
-1.245554638017D1,-6.309025708896D0,1.199999999997D1,                 95P    121
-1.194593957677D1,-6.749999999333D0,1.200000000001D1,                 95P    122
-1.169134295148D1,0D0,1D0,0D0,0D0,1D0;                                95P    123
126,7,3,0,0,1,0,0D0,0D0,0D0,0D0,2D-1,4D-1,6D-1,8D-1,1D0,1D0,1D0,      97P    124
1D0,1D0,1D0,1D0,1D0,1D0,1D0,1D0,1D0,-6.749999999333D0,                97P    125
1.200000000001D1,-1.169134295148D1,-7.191122595461D0,                 97P    126
1.200000000001D1,-1.143666070186D1,-8.074044503175D0,                 97P    127
1.196656350601D1,-1.092690550076D1,-9.398405185871D0,                 97P    128
1.181808879869D1,-1.016228550410D1,-1.072890303102D1,                 97P    129
1.157531647934D1,-9.394122215054D0,-1.207517663432D1,                 97P    130
1.124316702521D1,-8.616850787785D0,-1.301925556209D1,                 97P    131
1.095447678003D1,-8.071786564701D0,-1.35D1,1.079422863406D1,          97P    132
-7.794228634060D0,0D0,1D0,0D0,0D0,1D0;                                97P    133
110,0D0,0D0,-1.558845726812D1,0D0,1.079422863406D1,                   99P    134
-1.558845726812D1;                                                    99P    135
126,7,3,0,0,1,0,0D0,0D0,0D0,0D0,2D-1,4D-1,6D-1,8D-1,1D0,1D0,1D0,     101P    136
1D0,1D0,1D0,1D0,1D0,1D0,1D0,1D0,1D0,1.350000000001D1,                101P    137
1.200000000002D1,7.695019249994D-11,1.350000000001D1,                101P    138
1.199999999997D1,-5.152009732094D-1,1.35D1,1.196580593611D1,         101P    139
-1.544667571108D0,1.35D1,1.181484060652D1,-3.084453535507D0,         101P    140
1.35D1,1.156967743304D1,-4.624654661225D0,1.35D1,                    101P    141
1.123651607154D1,-6.175678840462D0,1.35D1,1.095141498055D1,          101P    142
-7.249719157307D0,1.35D1,1.079422863406D1,-7.794228634060D0,0D0,     101P    143
1D0,0D0,0D0,1D0;                                                     101P    144
110,1.35D1,0D0,7.794228634060D0,1.35D1,1.079422863406D1,             103P    145
7.794228634060D0;                                                    103P    146
126,7,3,0,0,1,0,0D0,0D0,0D0,0D0,2D-1,4D-1,6D-1,8D-1,1D0,1D0,1D0,     105P    147
1D0,1D0,1D0,1D0,1D0,1D0,1D0,1D0,1D0,1.35D1,1.079422863406D1,         105P    148
7.794228634060D0,1.35D1,1.095303536198D1,7.244105991373D0,           105P    149
1.35D1,1.124008839803D1,6.161434431487D0,1.35D1,                     105P    150
1.157303216023D1,4.606821078365D0,1.35D1,1.181675631197D1,           105P    151
3.068853605618D0,1.35D1,1.196622256594D1,1.535784685067D0,           105P    152
1.350000000001D1,1.199999999996D1,5.119461276008D-1,                 105P    153
1.350000000001D1,1.200000000002D1,7.695019249994D-11,0D0,1D0,        105P    154
0D0,0D0,1D0;                                                         105P    155
126,7,3,0,0,1,0,0D0,0D0,0D0,0D0,2D-1,4D-1,6D-1,8D-1,1D0,1D0,1D0,     107P    156
1D0,1D0,1D0,1D0,1D0,1D0,1D0,1D0,1D0,0D0,1.079422863406D1,            107P    157
1.558845726812D1,4.807179926806D-1,1.095446796495D1,                 107P    158
1.531091460564D1,1.424801863888D0,1.124317369242D1,                  107P    159
1.476584752846D1,2.771917274488D0,1.157550164175D1,                  107P    160
1.398809008352D1,4.102176921176D0,1.181816708911D1,                  107P    161
1.322006431842D1,5.426360833506D0,1.196658878450D1,                  107P    162
1.245554638017D1,6.309025708896D0,1.199999999997D1,                  107P    163
1.194593957677D1,6.749999999333D0,1.200000000001D1,                  107P    164
1.169134295148D1,0D0,1D0,0D0,0D0,1D0;                                107P    165
126,7,3,0,0,1,0,0D0,0D0,0D0,0D0,2D-1,4D-1,6D-1,8D-1,1D0,1D0,1D0,     109P    166
1D0,1D0,1D0,1D0,1D0,1D0,1D0,1D0,1D0,6.749999999333D0,                109P    167
1.200000000001D1,1.169134295148D1,7.191122595461D0,                  109P    168
1.200000000001D1,1.143666070186D1,8.074044503175D0,                  109P    169
1.196656350601D1,1.092690550076D1,9.398405185871D0,                  109P    170
1.181808879869D1,1.016228550410D1,1.072890303102D1,                  109P    171
1.157531647934D1,9.394122215054D0,1.207517663432D1,                  109P    172
1.124316702521D1,8.616850787785D0,1.301925556209D1,                  109P    173
1.095447678003D1,8.071786564701D0,1.35D1,1.079422863406D1,           109P    174
7.794228634060D0,0D0,1D0,0D0,0D0,1D0;                                109P    175
110,0D0,0D0,1.558845726812D1,0D0,1.079422863406D1,                   111P    176
1.558845726812D1;                                                    111P    177
124,1D0,0D0,0D0,0D0,0D0,0D0,1D0,1.2D1,0D0,-1D0,0D0,0D0;              113P    178
100,0D0,0D0,0D0,1.35D1,0D0,6.750000000117D0,1.169134295102D1;        115P    179
124,4.999999999916D-1,8.660254037893D-1,0D0,0D0,0D0,0D0,1D0,         117P    180
1.2D1,8.660254037893D-1,-4.999999999916D-1,0D0,0D0;                  117P    181
100,0D0,0D0,0D0,1.35D1,0D0,6.749999999886D0,1.169134295116D1;        119P    182
124,-5.000000000087D-1,8.660254037794D-1,0D0,0D0,0D0,0D0,1D0,        121P    183
1.2D1,8.660254037794D-1,5.000000000087D-1,0D0,0D0;                   121P    184
100,0D0,0D0,0D0,1.35D1,0D0,6.749999999997D0,1.169134295109D1;        123P    185
124,-1D0,0D0,0D0,0D0,0D0,0D0,1D0,1.2D1,0D0,1D0,0D0,0D0;              125P    186
100,0D0,0D0,0D0,1.35D1,0D0,6.750000000117D0,1.169134295102D1;        127P    187
124,-4.999999999916D-1,-8.660254037893D-1,0D0,0D0,0D0,0D0,1D0,       129P    188
1.2D1,-8.660254037893D-1,4.999999999916D-1,0D0,0D0;                  129P    189
100,0D0,0D0,0D0,1.35D1,0D0,6.749999999886D0,1.169134295116D1;        131P    190
124,5.000000000087D-1,-8.660254037794D-1,0D0,0D0,0D0,0D0,1D0,        133P    191
1.2D1,-8.660254037794D-1,-5.000000000087D-1,0D0,0D0;                 133P    192
100,0D0,0D0,0D0,1.35D1,0D0,6.749999999997D0,1.169134295109D1;        135P    193
502,26,-1.35D1,0D0,7.794228634060D0,0D0,0D0,1.558845726812D1,        137P    194
1.35D1,0D0,7.794228634060D0,1.35D1,0D0,-7.794228634060D0,0D0,        137P    195
0D0,-1.558845726812D1,-1.35D1,0D0,-7.794228634060D0,1.35D1,          137P    196
1.2D1,0D0,6.750000000117D0,1.2D1,-1.169134295102D1,                  137P    197
-6.749999999886D0,1.2D1,-1.169134295116D1,-1.35D1,1.2D1,0D0,         137P    198
-6.750000000117D0,1.2D1,1.169134295102D1,6.749999999886D0,1.2D1,     137P    199
1.169134295116D1,-1.35D1,1.079422863406D1,7.794228634060D0,0D0,      137P    200
1.079422863406D1,1.558845726812D1,1.35D1,1.079422863406D1,           137P    201
7.794228634060D0,1.35D1,1.079422863406D1,-7.794228634060D0,0D0,      137P    202
1.079422863406D1,-1.558845726812D1,-1.35D1,1.079422863406D1,         137P    203
-7.794228634060D0,0D0,-1.2D0,-9D0,0D0,-1.2D0,9D0,0D0,0D0,            137P    204
-1.019999992968D1,0D0,0D0,1.019999992968D1,0D0,                      137P    205
-4.999999161937D1,-7.799987695742D0,0D0,-4.999999161937D1,           137P    206
7.799987695742D0,0D0,-4.879999541016D1,-9D0,0D0,                     137P    207
-4.879999541016D1,9D0;                                               137P    208
504,44,57,137,1,137,2,59,137,2,137,3,61,137,3,137,4,63,137,4,        139P    209
137,5,65,137,5,137,6,67,137,6,137,1,115,137,7,137,8,135,137,8,       139P    210
137,9,131,137,9,137,10,127,137,10,137,11,123,137,11,137,12,119,      139P    211
137,12,137,7,77,137,13,137,11,79,137,11,137,14,107,137,14,137,       139P    212
12,109,137,12,137,15,101,137,7,137,16,105,137,15,137,7,89,137,       139P    213
16,137,8,91,137,8,137,17,95,137,17,137,9,97,137,9,137,18,83,137,     139P    214
18,137,10,85,137,10,137,13,81,137,1,137,13,111,137,2,137,14,103,     139P    215
137,3,137,15,93,137,4,137,16,99,137,5,137,17,87,137,6,137,18,37,     139P    216
137,19,137,20,71,137,21,137,22,47,137,20,137,19,75,137,22,137,       139P    217
21,51,137,20,137,22,55,137,19,137,21,19,137,23,137,24,41,137,25,     139P    218
137,26,23,137,24,137,23,31,137,26,137,25,33,137,19,137,25,43,        139P    219
137,20,137,26,27,137,24,137,26,25,137,23,137,25;                     139P    220
128,1,1,1,1,0,0,1,0,0,-8.112D0,-8.112D0,8.112D0,8.112D0,             141P    221
-8.111999924316D0,-8.111999924316D0,8.111999924316D0,                141P    222
8.111999924316D0,1D0,1D0,1D0,1D0,8.111999924316D0,-5D1,8.112D0,      141P    223
8.111999924316D0,-5D1,-8.112D0,-8.111999924316D0,-5D1,8.112D0,       141P    224
-8.111999924316D0,-5D1,-8.112D0,-8.112D0,8.112D0,                    141P    225
-8.111999924316D0,8.111999924316D0;                                  141P    226
508,2,0,139,37,0,0,0,139,39,0,0;                                     143P    227
510,141,1,0,143;                                                     145P    228
110,0D0,-5.78D1,-2.708944180085D-14,0D0,-5.68D1,                     147P    229
-2.708944180085D-14;                                                 147P    230
110,0D0,-5.006456484132D1,-7.735414645028D0,0D0,                     149P    231
-4.873540955225D1,-9.064566409311D0;                                 149P    232
120,147,149,-3.204424513921D0,6.283186127908D-2;                     151P    233
508,4,0,139,37,1,0,0,139,43,1,0,0,139,38,0,0,0,139,44,0,0;           153P    234
510,151,1,0,153;                                                     155P    235
110,0D0,-5.78D1,0D0,0D0,-5.68D1,0D0;                                 157P    236
110,0D0,-5.006456484132D1,-7.735414645028D0,0D0,                     159P    237
-4.873540955225D1,-9.064566409311D0;                                 159P    238
120,157,159,-6.283186033166D-2,3.204424514869D0;                     161P    239
508,4,0,139,39,1,0,0,139,44,1,0,0,139,40,0,0,0,139,43,0,0;           163P    240
510,161,1,0,163;                                                     165P    241
110,0D0,0D0,0D0,0D0,1D0,0D0;                                         167P    242
110,0D0,-4.975200966357D1,-9D0,0D0,-2.479998105183D-1,-9D0;          169P    243
120,167,169,-6.283185307180D-2,3.204424506662D0;                     171P    244
508,4,0,139,40,1,0,0,139,41,0,0,0,139,31,1,0,0,139,42,1,0;           173P    245
510,171,1,0,173;                                                     175P    246
110,0D0,0D0,0D0,0D0,1D0,0D0;                                         177P    247
110,0D0,-4.975200966357D1,-9D0,0D0,-2.479998105183D-1,-9D0;          179P    248
120,177,179,3.078760800518D0,6.346017160251D0;                       181P    249
508,4,0,139,38,1,0,0,139,42,0,0,0,139,33,1,0,0,139,41,1,0;           183P    250
510,181,1,0,183;                                                     185P    251
110,0D0,-1.2D0,0D0,0D0,-2D-1,0D0;                                    187P    252
124,-1.035530797694D-3,1.358484792701D-2,-9.999071854841D-1,         189P    253
-1.389674357860D-1,9.971073300147D-1,7.600639730264D-2,0D0,          189P    254
-1.2D0,7.599934280567D-2,-9.970147839806D-1,-1.362425841039D-2,      189P    255
1.019905329194D1;                                                    189P    256
100,0D0,0D0,0D0,1.2D0,0D0,-1.818866718776D-1,1.186135421692D0;       191P    257
120,187,191,-4.920717314055D-2,3.218049186601D0;                     193P    258
508,4,0,139,33,0,0,0,139,35,1,0,0,139,34,1,0,0,139,36,0,0;           195P    259
510,193,1,0,195;                                                     197P    260
110,0D0,-1.2D0,0D0,0D0,-2D-1,0D0;                                    199P    261
124,1.035530797694D-3,-1.358484792701D-2,9.999071854841D-1,          201P    262
1.389674357860D-1,9.971073300147D-1,7.600639730264D-2,0D0,           201P    263
-1.2D0,-7.599934280567D-2,9.970147839806D-1,1.362425841039D-2,       201P    264
-1.019905329194D1;                                                   201P    265
100,0D0,0D0,0D0,1.2D0,0D0,-1.818866718776D-1,1.186135421692D0;       203P    266
120,199,203,-4.920717314055D-2,3.218049186601D0;                     205P    267
508,4,0,139,31,0,0,0,139,36,1,0,0,139,32,1,0,0,139,35,0,0;           207P    268
510,205,1,0,207;                                                     209P    269
128,1,1,1,1,0,0,1,0,0,-1.621199555884D1,-1.621199555884D1,           211P    270
1.621199555884D1,1.621199555884D1,-1.404D1,-1.404D1,1.404D1,         211P    271
1.404D1,1D0,1D0,1D0,1D0,1.404D1,0D0,1.621199555884D1,1.404D1,        211P    272
0D0,-1.621199555884D1,-1.404D1,0D0,1.621199555884D1,-1.404D1,        211P    273
0D0,-1.621199555884D1,-1.621199555884D1,1.621199555884D1,            211P    274
-1.404D1,1.404D1;                                                    211P    275
508,6,0,139,1,1,0,0,139,2,1,0,0,139,3,1,0,0,139,4,1,0,0,139,5,1,     213P    276
0,0,139,6,1,0;                                                       213P    277
508,2,0,139,32,0,0,0,139,34,0,0;                                     215P    278
510,211,2,0,213,215;                                                 217P    279
128,1,1,1,1,0,0,1,0,0,-3.117691453624D-1,-3.117691453624D-1,         219P    280
1.590022641348D1,1.590022641348D1,-2.400000000009D-1,                219P    281
-2.400000000009D-1,1.224000000004D1,1.224000000004D1,1D0,1D0,        219P    282
1D0,1D0,-1.377D1,-2.400000000009D-1,7.638344061379D0,2.7D-1,         219P    283
-2.400000000009D-1,1.574434184080D1,-1.377D1,1.224000000004D1,       219P    284
7.638344061379D0,2.7D-1,1.224000000004D1,1.574434184080D1,           219P    285
-3.117691453624D-1,1.590022641348D1,-2.400000000009D-1,              219P    286
1.224000000004D1;                                                    219P    287
508,5,0,139,13,1,0,0,139,14,1,0,0,139,26,0,0,0,139,1,0,0,0,139,      221P    288
25,1,0;                                                              221P    289
510,219,1,0,221;                                                     223P    290
110,0D0,1.979422863406D1,0D0,0D0,2.079422863406D1,0D0;               225P    291
110,1.566752079507D1,1.074858128549D1,0D0,1.342093647305D1,          227P    292
1.204564734857D1,0D0;                                                227P    293
120,225,227,-3.204424506468D0,6.283185285501D-2;                     229P    294
508,3,0,139,13,0,0,0,139,24,0,0,0,139,10,1,0;                        231P    295
510,229,1,0,231;                                                     233P    296
110,0D0,1.979422863406D1,0D0,0D0,2.079422863406D1,0D0;               235P    297
110,1.566752079507D1,1.074858128549D1,0D0,1.342093647305D1,          237P    298
1.204564734857D1,0D0;                                                237P    299
120,235,237,-3.204424506468D0,6.283185285501D-2;                     239P    300
508,3,0,139,15,0,0,0,139,14,0,0,0,139,11,1,0;                        241P    301
510,239,1,0,241;                                                     243P    302
110,0D0,1.979422863406D1,0D0,0D0,2.079422863406D1,0D0;               245P    303
110,1.566752079507D1,1.074858128549D1,0D0,1.342093647305D1,          247P    304
1.204564734857D1,0D0;                                                247P    305
120,245,247,-3.204424506468D0,6.283185285501D-2;                     249P    306
508,3,0,139,18,0,0,0,139,16,0,0,0,139,12,1,0;                        251P    307
510,249,1,0,251;                                                     253P    308
128,1,1,1,1,0,0,1,0,0,-3.117691453624D-1,-3.117691453624D-1,         255P    309
1.590022641348D1,1.590022641348D1,-2.400000000019D-1,                255P    310
-2.400000000019D-1,1.224000000009D1,1.224000000009D1,1D0,1D0,        255P    311
1D0,1D0,-1.35D1,-2.400000000019D-1,-8.105997779422D0,-1.35D1,        255P    312
-2.400000000019D-1,8.105997779422D0,-1.35D1,1.224000000009D1,        255P    313
-8.105997779422D0,-1.35D1,1.224000000009D1,8.105997779422D0,         255P    314
-3.117691453624D-1,1.590022641348D1,-2.400000000019D-1,              255P    315
1.224000000009D1;                                                    255P    316
508,5,0,139,23,1,0,0,139,24,1,0,0,139,25,0,0,0,139,6,0,0,0,139,      257P    317
30,1,0;                                                              257P    318
510,255,1,0,257;                                                     259P    319
110,0D0,1.979422863406D1,0D0,0D0,2.079422863406D1,0D0;               261P    320
110,1.566752079507D1,1.074858128549D1,0D0,1.342093647305D1,          263P    321
1.204564734857D1,0D0;                                                263P    322
120,261,263,-6.283185287856D-2,3.204424506445D0;                     265P    323
508,3,0,139,19,0,0,0,139,17,0,0,0,139,7,1,0;                         267P    324
510,265,1,0,267;                                                     269P    325
110,0D0,1.979422863406D1,0D0,0D0,2.079422863406D1,0D0;               271P    326
110,1.566752079507D1,1.074858128549D1,0D0,1.342093647305D1,          273P    327
1.204564734857D1,0D0;                                                273P    328
120,271,273,-6.283185287856D-2,3.204424506445D0;                     275P    329
508,3,0,139,21,0,0,0,139,20,0,0,0,139,8,1,0;                         277P    330
510,275,1,0,277;                                                     279P    331
110,0D0,1.979422863406D1,0D0,0D0,2.079422863406D1,0D0;               281P    332
110,1.566752079507D1,1.074858128549D1,0D0,1.342093647305D1,          283P    333
1.204564734857D1,0D0;                                                283P    334
120,281,283,-6.283185287856D-2,3.204424506445D0;                     285P    335
508,3,0,139,23,0,0,0,139,22,0,0,0,139,9,1,0;                         287P    336
510,285,1,0,287;                                                     289P    337
128,1,1,1,1,0,0,1,0,0,-3.117691453624D-1,-3.117691453624D-1,         291P    338
1.590022641348D1,1.590022641348D1,-2.400000000009D-1,                291P    339
-2.400000000009D-1,1.224000000004D1,1.224000000004D1,1D0,1D0,        291P    340
1D0,1D0,1.377D1,-2.400000000009D-1,-7.638344061379D0,-2.7D-1,        291P    341
-2.400000000009D-1,-1.574434184080D1,1.377D1,1.224000000004D1,       291P    342
-7.638344061379D0,-2.7D-1,1.224000000004D1,-1.574434184080D1,        291P    343
-3.117691453624D-1,1.590022641348D1,-2.400000000009D-1,              291P    344
1.224000000004D1;                                                    291P    345
508,5,0,139,19,1,0,0,139,20,1,0,0,139,29,0,0,0,139,4,0,0,0,139,      293P    346
28,1,0;                                                              293P    347
510,291,1,0,293;                                                     295P    348
128,1,1,1,1,0,0,1,0,0,-3.117691453624D-1,-3.117691453624D-1,         297P    349
1.590022641348D1,1.590022641348D1,-2.400000000009D-1,                297P    350
-2.400000000009D-1,1.224000000004D1,1.224000000004D1,1D0,1D0,        297P    351
1D0,1D0,2.7D-1,-2.400000000009D-1,-1.574434184080D1,-1.377D1,        297P    352
-2.400000000009D-1,-7.638344061379D0,2.7D-1,1.224000000004D1,        297P    353
-1.574434184080D1,-1.377D1,1.224000000004D1,-7.638344061379D0,       297P    354
-3.117691453624D-1,1.590022641348D1,-2.400000000009D-1,              297P    355
1.224000000004D1;                                                    297P    356
508,5,0,139,21,1,0,0,139,22,1,0,0,139,30,0,0,0,139,5,0,0,0,139,      299P    357
29,1,0;                                                              299P    358
510,297,1,0,299;                                                     301P    359
128,1,1,1,1,0,0,1,0,0,-3.117691453624D-1,-3.117691453624D-1,         303P    360
1.590022641348D1,1.590022641348D1,-2.400000000019D-1,                303P    361
-2.400000000019D-1,1.224000000009D1,1.224000000009D1,1D0,1D0,        303P    362
1D0,1D0,1.35D1,-2.400000000019D-1,8.105997779422D0,1.35D1,           303P    363
-2.400000000019D-1,-8.105997779422D0,1.35D1,1.224000000009D1,        303P    364
8.105997779422D0,1.35D1,1.224000000009D1,-8.105997779422D0,          303P    365
-3.117691453624D-1,1.590022641348D1,-2.400000000019D-1,              303P    366
1.224000000009D1;                                                    303P    367
508,5,0,139,17,1,0,0,139,28,0,0,0,139,3,0,0,0,139,27,1,0,0,139,      305P    368
18,1,0;                                                              305P    369
510,303,1,0,305;                                                     307P    370
128,1,1,1,1,0,0,1,0,0,-3.117691453624D-1,-3.117691453624D-1,         309P    371
1.590022641348D1,1.590022641348D1,-2.400000000009D-1,                309P    372
-2.400000000009D-1,1.224000000004D1,1.224000000004D1,1D0,1D0,        309P    373
1D0,1D0,-2.7D-1,-2.400000000009D-1,1.574434184080D1,1.377D1,         309P    374
-2.400000000009D-1,7.638344061379D0,-2.7D-1,1.224000000004D1,        309P    375
1.574434184080D1,1.377D1,1.224000000004D1,7.638344061379D0,          309P    376
-3.117691453624D-1,1.590022641348D1,-2.400000000009D-1,              309P    377
1.224000000004D1;                                                    309P    378
508,5,0,139,15,1,0,0,139,16,1,0,0,139,27,0,0,0,139,2,0,0,0,139,      311P    379
26,1,0;                                                              311P    380
510,309,1,0,311;                                                     313P    381
128,1,1,1,1,0,0,1,0,0,-1.405156370258D1,-1.405156370258D1,           315P    382
1.405156370258D1,1.405156370258D1,-1.404000000002D1,                 315P    383
-1.404000000002D1,1.404000000002D1,1.404000000002D1,1D0,1D0,1D0,     315P    384
1D0,1.404000000002D1,1.2D1,1.405156370258D1,1.404000000002D1,        315P    385
1.2D1,-1.405156370258D1,-1.404000000002D1,1.2D1,                     315P    386
1.405156370258D1,-1.404000000002D1,1.2D1,-1.405156370258D1,          315P    387
-1.405156370258D1,1.405156370258D1,-1.404000000002D1,                315P    388
1.404000000002D1;                                                    315P    389
508,6,0,139,7,0,0,0,139,12,0,0,0,139,11,0,0,0,139,10,0,0,0,139,      317P    390
9,0,0,0,139,8,0,0;                                                   317P    391
510,315,1,0,317;                                                     319P    392
514,21,145,0,155,1,165,1,175,1,185,1,197,0,209,0,217,0,223,1,        321P    393
233,1,243,1,253,1,259,1,269,1,279,1,289,1,295,1,301,1,307,1,313,     321P    394
1,319,1;                                                             321P    395
124,-1D0,0D0,0D0,0D0,0D0,0D0,-1D0,-5D1,0D0,-1D0,0D0,0D0;             323P    396
100,0D0,0D0,0D0,6.9175D0,0D0,-6.9175D0,0D0;                          325P    397
110,6.9175D0,-5D1,0D0,6.9175D0,-8D0,0D0;                             327P    398
124,1D0,0D0,0D0,0D0,0D0,0D0,-1D0,-5D1,0D0,1D0,0D0,0D0;               329P    399
100,0D0,0D0,0D0,6.9175D0,0D0,-6.9175D0,0D0;                          331P    400
110,-6.9175D0,-5D1,0D0,-6.9175D0,-8D0,0D0;                           333P    401
124,-1D0,0D0,0D0,0D0,0D0,0D0,1D0,-8D0,0D0,1D0,0D0,0D0;               335P    402
100,0D0,0D0,0D0,6.9175D0,0D0,-6.9175D0,0D0;                          337P    403
124,1D0,0D0,0D0,0D0,0D0,0D0,1D0,-8D0,0D0,-1D0,0D0,0D0;               339P    404
100,0D0,0D0,0D0,6.9175D0,0D0,-6.9175D0,0D0;                          341P    405
124,-1D0,0D0,0D0,0D0,0D0,0D0,1D0,-8D0,0D0,1D0,0D0,0D0;               343P    406
100,0D0,0D0,0D0,9D0,0D0,-9D0,0D0;                                    345P    407
124,1D0,0D0,0D0,0D0,0D0,0D0,1D0,-8D0,0D0,-1D0,0D0,0D0;               347P    408
100,0D0,0D0,0D0,9D0,0D0,-9D0,0D0;                                    349P    409
502,6,-6.9175D0,-5D1,0D0,6.9175D0,-5D1,0D0,-6.9175D0,-8D0,0D0,       351P    410
6.9175D0,-8D0,0D0,9D0,-8D0,0D0,-9D0,-8D0,0D0;                        351P    411
504,8,331,351,1,351,2,325,351,2,351,1,337,351,3,351,4,341,351,4,     353P    412
351,3,333,351,1,351,3,327,351,2,351,4,345,351,5,351,6,349,351,6,     353P    413
351,5;                                                               353P    414
110,0D0,-5D1,0D0,0D0,-4.9D1,0D0;                                     355P    415
110,-6.9175D0,-5.084D1,0D0,-6.9175D0,-7.16D0,0D0;                    357P    416
120,355,357,3.078760800518D0,6.346017160251D0;                       359P    417
508,4,0,353,2,0,0,0,353,6,1,0,0,353,4,1,0,0,353,5,0,0;               361P    418
510,359,1,0,361;                                                     363P    419
110,0D0,-5D1,0D0,0D0,-4.9D1,0D0;                                     365P    420
110,-6.9175D0,-5.084D1,0D0,-6.9175D0,-7.16D0,0D0;                    367P    421
120,365,367,-6.283185307180D-2,3.204424506662D0;                     369P    422
508,4,0,353,1,0,0,0,353,5,1,0,0,353,3,1,0,0,353,6,0,0;               371P    423
510,369,1,0,371;                                                     373P    424
128,1,1,1,1,0,0,1,0,0,-9.371646769D0,-9.371646769D0,                 375P    425
9.371646769D0,9.371646769D0,-9.36D0,-9.36D0,9.36D0,9.36D0,1D0,       375P    426
1D0,1D0,1D0,9.36D0,-8D0,-9.371646769D0,9.36D0,-8D0,                  375P    427
9.371646769D0,-9.36D0,-8D0,-9.371646769D0,-9.36D0,-8D0,              375P    428
9.371646769D0,-9.371646769D0,9.371646769D0,-9.36D0,9.36D0;           375P    429
508,2,0,353,7,0,0,0,353,8,0,0;                                       377P    430
508,2,0,353,3,0,0,0,353,4,0,0;                                       379P    431
510,375,2,0,377,379;                                                 381P    432
514,3,363,1,373,1,381,1;                                             383P    433
186,321,1,0;                                                         385P    434
S      1G      5D    386P    434                                        T      1
