 PTC IGES file: sroub-m16x45-csn_02_1101.igs                            S      1
1H,,1H;,24HSROUB-M16X45-CSN_02_1101,28Hsroub-m16x45-csn_02_1101.igs,    G      1
49HPro/ENGINEER by Parametric Technology Corporation,7H2007160,32,38,7, G      2
38,15,24HSROUB-M16X45-CSN_02_1101,1.,2,2HMM,32768,0.5,                  G      3
15H20110917.003027,0.00675325,67.5352,13HVladimir Zima,7HUnknown,10,0,  G      4
15H20110917.003027;                                                     G      5
     314       1       1       1       0       0       0       001000200D      1
     314       0       4       1       0                   COLOR       1D      2
     314       2       1       1       0       0       0       001000200D      3
     314       0       1       1       0                   COLOR       2D      4
     314       3       1       1       0       0       0       001000200D      5
     314       0       1       1       0                   COLOR       3D      6
     314       4       1       1       0       0       0       001000200D      7
     314       0       1       1       0                   COLOR       4D      8
     314       5       1       1       0       0       0       001000200D      9
     314       0       8       1       0                   COLOR       5D     10
     314       6       1       1       0       0       0       001000200D     11
     314       0       8       1       0                   COLOR       6D     12
     314       7       1       1       0       0       0       001000200D     13
     314       0       5       1       0                   COLOR       7D     14
     314       8       1       1       0       0       0       001000200D     15
     314       0       8       1       0                   COLOR       8D     16
     124       9       1       1       0       0       0       001000000D     17
     124       0       0       2       0                   XFORM       1D     18
     100      11       1       1       0       0      17       001010000D     19
     100       0       0       1       0                     ARC       1D     20
     124      12       1       1       0       0       0       001000000D     21
     124       0       0       2       0                   XFORM       2D     22
     100      14       1       1       0       0      21       001010000D     23
     100       0       0       1       0                     ARC       2D     24
     110      15       1       1       0       0       0       001010000D     25
     110       0       0       2       0                    LINE       1D     26
     110      17       1       1       0       0       0       001010000D     27
     110       0       0       2       0                    LINE       2D     28
     124      19       1       1       0       0       0       001000000D     29
     124       0       0       2       0                   XFORM       3D     30
     100      21       1       1       0       0      29       001010000D     31
     100       0       0       1       0                     ARC       3D     32
     110      22       1       1       0       0       0       001010000D     33
     110       0       0       2       0                    LINE       3D     34
     124      24       1       1       0       0       0       001000000D     35
     124       0       0       1       0                   XFORM       4D     36
     100      25       1       1       0       0      35       001010000D     37
     100       0       0       1       0                     ARC       4D     38
     124      26       1       1       0       0       0       001000000D     39
     124       0       0       2       0                   XFORM       5D     40
     100      28       1       1       0       0      39       001010000D     41
     100       0       0       1       0                     ARC       5D     42
     110      29       1       1       0       0       0       001010000D     43
     110       0       0       2       0                    LINE       4D     44
     124      31       1       1       0       0       0       001000000D     45
     124       0       0       1       0                   XFORM       6D     46
     100      32       1       1       0       0      45       001010000D     47
     100       0       0       1       0                     ARC       6D     48
     124      33       1       1       0       0       0       001000000D     49
     124       0       0       2       0                   XFORM       7D     50
     100      35       1       1       0       0      49       001010000D     51
     100       0       0       1       0                     ARC       7D     52
     124      36       1       1       0       0       0       001000000D     53
     124       0       0       2       0                   XFORM       8D     54
     100      38       1       1       0       0      53       001010000D     55
     100       0       0       1       0                     ARC       8D     56
     110      39       1       1       0       0       0       001010000D     57
     110       0       0       1       0                    LINE       5D     58
     110      40       1       1       0       0       0       001010000D     59
     110       0       0       1       0                    LINE       6D     60
     110      41       1       1       0       0       0       001010000D     61
     110       0       0       1       0                    LINE       7D     62
     110      42       1       1       0       0       0       001010000D     63
     110       0       0       1       0                    LINE       8D     64
     110      43       1       1       0       0       0       001010000D     65
     110       0       0       1       0                    LINE       9D     66
     110      44       1       1       0       0       0       001010000D     67
     110       0       0       1       0                    LINE      10D     68
     124      45       1       1       0       0       0       001000000D     69
     124       0       0       1       0                   XFORM       9D     70
     100      46       1       1       0       0      69       001010000D     71
     100       0       0       1       0                     ARC       9D     72
     124      47       1       1       0       0       0       001000000D     73
     124       0       0       1       0                   XFORM      10D     74
     100      48       1       1       0       0      73       001010000D     75
     100       0       0       1       0                     ARC      10D     76
     126      49       1       1       0       0       0       001010000D     77
     126       0       0      10       0                B_SPLINE       1D     78
     126      59       1       1       0       0       0       001010000D     79
     126       0       0      10       0                B_SPLINE       2D     80
     110      69       1       1       0       0       0       001010000D     81
     110       0       0       2       0                    LINE      11D     82
     126      71       1       1       0       0       0       001010000D     83
     126       0       0       8       0                B_SPLINE       3D     84
     126      79       1       1       0       0       0       001010000D     85
     126       0       0       8       0                B_SPLINE       4D     86
     110      87       1       1       0       0       0       001010000D     87
     110       0       0       2       0                    LINE      12D     88
     126      89       1       1       0       0       0       001010000D     89
     126       0       0      10       0                B_SPLINE       5D     90
     126      99       1       1       0       0       0       001010000D     91
     126       0       0      10       0                B_SPLINE       6D     92
     110     109       1       1       0       0       0       001010000D     93
     110       0       0       2       0                    LINE      13D     94
     126     111       1       1       0       0       0       001010000D     95
     126       0       0      10       0                B_SPLINE       7D     96
     126     121       1       1       0       0       0       001010000D     97
     126       0       0      10       0                B_SPLINE       8D     98
     110     131       1       1       0       0       0       001010000D     99
     110       0       0       2       0                    LINE      14D    100
     126     133       1       1       0       0       0       001010000D    101
     126       0       0       8       0                B_SPLINE       9D    102
     110     141       1       1       0       0       0       001010000D    103
     110       0       0       2       0                    LINE      15D    104
     126     143       1       1       0       0       0       001010000D    105
     126       0       0       8       0                B_SPLINE      10D    106
     126     151       1       1       0       0       0       001010000D    107
     126       0       0      10       0                B_SPLINE      11D    108
     126     161       1       1       0       0       0       001010000D    109
     126       0       0      10       0                B_SPLINE      12D    110
     110     171       1       1       0       0       0       001010000D    111
     110       0       0       2       0                    LINE      16D    112
     124     173       1       1       0       0       0       001000000D    113
     124       0       0       1       0                   XFORM      11D    114
     100     174       1       1       0       0     113       001010000D    115
     100       0       0       1       0                     ARC      11D    116
     124     175       1       1       0       0       0       001000000D    117
     124       0       0       2       0                   XFORM      12D    118
     100     177       1       1       0       0     117       001010000D    119
     100       0       0       1       0                     ARC      12D    120
     124     178       1       1       0       0       0       001000000D    121
     124       0       0       2       0                   XFORM      13D    122
     100     180       1       1       0       0     121       001010000D    123
     100       0       0       1       0                     ARC      13D    124
     124     181       1       1       0       0       0       001000000D    125
     124       0       0       1       0                   XFORM      14D    126
     100     182       1       1       0       0     125       001010000D    127
     100       0       0       1       0                     ARC      14D    128
     124     183       1       1       0       0       0       001000000D    129
     124       0       0       2       0                   XFORM      15D    130
     100     185       1       1       0       0     129       001010000D    131
     100       0       0       1       0                     ARC      15D    132
     124     186       1       1       0       0       0       001000000D    133
     124       0       0       2       0                   XFORM      16D    134
     100     188       1       1       0       0     133       001010000D    135
     100       0       0       1       0                     ARC      16D    136
     502     189       1       1       0       0       0       001010000D    137
     502       0       0      14       1                  VERTEX       1D    138
     504     203       1       1       0       0       0       000010001D    139
     504       0       0      12       1                    EDGE       1D    140
     128     215       1       1       0       0       0       001010000D    141
     128       0       0       6       0                  SPLSRF       1D    142
     508     221       1       1       0       0       0       001010000D    143
     508       0       0       1       1                EDGELOOP       1D    144
     510     222       1       1       0       0       0       000010000D    145
     510       0       0       1       1                    FACE       1D    146
     110     223       1       1       0       0       0       001010000D    147
     110       0       0       1       0                    LINE      17D    148
     110     224       1       1       0       0       0       001010000D    149
     110       0       0       2       0                    LINE      18D    150
     120     226       1       1       0       0       0       001010000D    151
     120       0       0       1       0                    SREV       1D    152
     508     227       1       1       0       0       0       001010000D    153
     508       0       0       1       1                EDGELOOP       2D    154
     510     228       1       1       0       0       0       000010000D    155
     510       0       0       1       1                    FACE       2D    156
     110     229       1       1       0       0       0       001010000D    157
     110       0       0       1       0                    LINE      19D    158
     110     230       1       1       0       0       0       001010000D    159
     110       0       0       2       0                    LINE      20D    160
     120     232       1       1       0       0       0       001010000D    161
     120       0       0       1       0                    SREV       2D    162
     508     233       1       1       0       0       0       001010000D    163
     508       0       0       1       1                EDGELOOP       3D    164
     510     234       1       1       0       0       0       000010000D    165
     510       0       0       1       1                    FACE       3D    166
     110     235       1       1       0       0       0       001010000D    167
     110       0       0       1       0                    LINE      21D    168
     110     236       1       1       0       0       0       001010000D    169
     110       0       0       1       0                    LINE      22D    170
     120     237       1       1       0       0       0       001010000D    171
     120       0       0       1       0                    SREV       3D    172
     508     238       1       1       0       0       0       001010000D    173
     508       0       0       1       1                EDGELOOP       4D    174
     510     239       1       1       0       0       0       000010000D    175
     510       0       0       1       1                    FACE       4D    176
     110     240       1       1       0       0       0       001010000D    177
     110       0       0       1       0                    LINE      23D    178
     110     241       1       1       0       0       0       001010000D    179
     110       0       0       1       0                    LINE      24D    180
     120     242       1       1       0       0       0       001010000D    181
     120       0       0       1       0                    SREV       4D    182
     508     243       1       1       0       0       0       001010000D    183
     508       0       0       1       1                EDGELOOP       5D    184
     510     244       1       1       0       0       0       000010000D    185
     510       0       0       1       1                    FACE       5D    186
     110     245       1       1       0       0       0       001010000D    187
     110       0       0       1       0                    LINE      25D    188
     124     246       1       1       0       0       0       001000000D    189
     124       0       0       4       0                   XFORM      17D    190
     100     250       1       1       0       0     189       001010000D    191
     100       0       0       1       0                     ARC      17D    192
     120     251       1       1       0       0       0       001010000D    193
     120       0       0       1       0                    SREV       5D    194
     508     252       1       1       0       0       0       001010000D    195
     508       0       0       1       1                EDGELOOP       6D    196
     510     253       1       1       0       0       0       000010000D    197
     510       0       0       1       1                    FACE       6D    198
     110     254       1       1       0       0       0       001010000D    199
     110       0       0       1       0                    LINE      26D    200
     124     255       1       1       0       0       0       001000000D    201
     124       0       0       4       0                   XFORM      18D    202
     100     259       1       1       0       0     201       001010000D    203
     100       0       0       1       0                     ARC      18D    204
     120     260       1       1       0       0       0       001010000D    205
     120       0       0       1       0                    SREV       6D    206
     508     261       1       1       0       0       0       001010000D    207
     508       0       0       1       1                EDGELOOP       7D    208
     510     262       1       1       0       0       0       000010000D    209
     510       0       0       1       1                    FACE       7D    210
     128     263       1       1       0       0       0       001010000D    211
     128       0       0       6       0                  SPLSRF       2D    212
     508     269       1       1       0       0       0       001010000D    213
     508       0       0       2       1                EDGELOOP       8D    214
     508     271       1       1       0       0       0       001010000D    215
     508       0       0       1       1                EDGELOOP       9D    216
     510     272       1       1       0       0       0       000010000D    217
     510       0       0       1       1                    FACE       8D    218
     128     273       1       1       0       0       0       001010000D    219
     128       0       0       8       0                  SPLSRF       3D    220
     508     281       1       1       0       0       0       001010000D    221
     508       0       0       2       1                EDGELOOP      10D    222
     510     283       1       1       0       0       0       000010000D    223
     510       0       0       1       1                    FACE       9D    224
     110     284       1       1       0       0       0       001010000D    225
     110       0       0       1       0                    LINE      27D    226
     110     285       1       1       0       0       0       001010000D    227
     110       0       0       2       0                    LINE      28D    228
     120     287       1       1       0       0       0       001010000D    229
     120       0       0       1       0                    SREV       7D    230
     508     288       1       1       0       0       0       001010000D    231
     508       0       0       1       1                EDGELOOP      11D    232
     510     289       1       1       0       0       0       000010000D    233
     510       0       0       1       1                    FACE      10D    234
     110     290       1       1       0       0       0       001010000D    235
     110       0       0       1       0                    LINE      29D    236
     110     291       1       1       0       0       0       001010000D    237
     110       0       0       2       0                    LINE      30D    238
     120     293       1       1       0       0       0       001010000D    239
     120       0       0       1       0                    SREV       8D    240
     508     294       1       1       0       0       0       001010000D    241
     508       0       0       1       1                EDGELOOP      12D    242
     510     295       1       1       0       0       0       000010000D    243
     510       0       0       1       1                    FACE      11D    244
     110     296       1       1       0       0       0       001010000D    245
     110       0       0       1       0                    LINE      31D    246
     110     297       1       1       0       0       0       001010000D    247
     110       0       0       2       0                    LINE      32D    248
     120     299       1       1       0       0       0       001010000D    249
     120       0       0       1       0                    SREV       9D    250
     508     300       1       1       0       0       0       001010000D    251
     508       0       0       1       1                EDGELOOP      13D    252
     510     301       1       1       0       0       0       000010000D    253
     510       0       0       1       1                    FACE      12D    254
     128     302       1       1       0       0       0       001010000D    255
     128       0       0       8       0                  SPLSRF       4D    256
     508     310       1       1       0       0       0       001010000D    257
     508       0       0       2       1                EDGELOOP      14D    258
     510     312       1       1       0       0       0       000010000D    259
     510       0       0       1       1                    FACE      13D    260
     110     313       1       1       0       0       0       001010000D    261
     110       0       0       1       0                    LINE      33D    262
     110     314       1       1       0       0       0       001010000D    263
     110       0       0       2       0                    LINE      34D    264
     120     316       1       1       0       0       0       001010000D    265
     120       0       0       1       0                    SREV      10D    266
     508     317       1       1       0       0       0       001010000D    267
     508       0       0       1       1                EDGELOOP      15D    268
     510     318       1       1       0       0       0       000010000D    269
     510       0       0       1       1                    FACE      14D    270
     110     319       1       1       0       0       0       001010000D    271
     110       0       0       1       0                    LINE      35D    272
     110     320       1       1       0       0       0       001010000D    273
     110       0       0       2       0                    LINE      36D    274
     120     322       1       1       0       0       0       001010000D    275
     120       0       0       1       0                    SREV      11D    276
     508     323       1       1       0       0       0       001010000D    277
     508       0       0       1       1                EDGELOOP      16D    278
     510     324       1       1       0       0       0       000010000D    279
     510       0       0       1       1                    FACE      15D    280
     110     325       1       1       0       0       0       001010000D    281
     110       0       0       1       0                    LINE      37D    282
     110     326       1       1       0       0       0       001010000D    283
     110       0       0       2       0                    LINE      38D    284
     120     328       1       1       0       0       0       001010000D    285
     120       0       0       1       0                    SREV      12D    286
     508     329       1       1       0       0       0       001010000D    287
     508       0       0       1       1                EDGELOOP      17D    288
     510     330       1       1       0       0       0       000010000D    289
     510       0       0       1       1                    FACE      16D    290
     128     331       1       1       0       0       0       001010000D    291
     128       0       0       8       0                  SPLSRF       5D    292
     508     339       1       1       0       0       0       001010000D    293
     508       0       0       2       1                EDGELOOP      18D    294
     510     341       1       1       0       0       0       000010000D    295
     510       0       0       1       1                    FACE      17D    296
     128     342       1       1       0       0       0       001010000D    297
     128       0       0       8       0                  SPLSRF       6D    298
     508     350       1       1       0       0       0       001010000D    299
     508       0       0       2       1                EDGELOOP      19D    300
     510     352       1       1       0       0       0       000010000D    301
     510       0       0       1       1                    FACE      18D    302
     128     353       1       1       0       0       0       001010000D    303
     128       0       0       8       0                  SPLSRF       7D    304
     508     361       1       1       0       0       0       001010000D    305
     508       0       0       2       1                EDGELOOP      20D    306
     510     363       1       1       0       0       0       000010000D    307
     510       0       0       1       1                    FACE      19D    308
     128     364       1       1       0       0       0       001010000D    309
     128       0       0       8       0                  SPLSRF       8D    310
     508     372       1       1       0       0       0       001010000D    311
     508       0       0       2       1                EDGELOOP      21D    312
     510     374       1       1       0       0       0       000010000D    313
     510       0       0       1       1                    FACE      20D    314
     128     375       1       1       0       0       0       001010000D    315
     128       0       0       7       0                  SPLSRF       9D    316
     508     382       1       1       0       0       0       001010000D    317
     508       0       0       2       1                EDGELOOP      22D    318
     510     384       1       1       0       0       0       000010000D    319
     510       0       0       1       1                    FACE      21D    320
     514     385       1       1       0       0       0       000010000D    321
     514       0       0       3       1                   SHELL       1D    322
     124     388       1       1       0       0       0       001000000D    323
     124       0       0       1       0                   XFORM      19D    324
     100     389       1       1       0       0     323       001010000D    325
     100       0       0       1       0                     ARC      19D    326
     110     390       1       1       0       0       0       001010000D    327
     110       0       0       1       0                    LINE      39D    328
     124     391       1       1       0       0       0       001000000D    329
     124       0       0       1       0                   XFORM      20D    330
     100     392       1       1       0       0     329       001010000D    331
     100       0       0       1       0                     ARC      20D    332
     110     393       1       1       0       0       0       001010000D    333
     110       0       0       1       0                    LINE      40D    334
     124     394       1       1       0       0       0       001000000D    335
     124       0       0       1       0                   XFORM      21D    336
     100     395       1       1       0       0     335       001010000D    337
     100       0       0       1       0                     ARC      21D    338
     124     396       1       1       0       0       0       001000000D    339
     124       0       0       1       0                   XFORM      22D    340
     100     397       1       1       0       0     339       001010000D    341
     100       0       0       1       0                     ARC      22D    342
     124     398       1       1       0       0       0       001000000D    343
     124       0       0       1       0                   XFORM      23D    344
     100     399       1       1       0       0     343       001010000D    345
     100       0       0       1       0                     ARC      23D    346
     124     400       1       1       0       0       0       001000000D    347
     124       0       0       1       0                   XFORM      24D    348
     100     401       1       1       0       0     347       001010000D    349
     100       0       0       1       0                     ARC      24D    350
     502     402       1       1       0       0       0       001010000D    351
     502       0       0       2       1                  VERTEX       2D    352
     504     404       1       1       0       0       0       000010001D    353
     504       0       0       3       1                    EDGE       2D    354
     110     407       1       1       0       0       0       001010000D    355
     110       0       0       1       0                    LINE      41D    356
     110     408       1       1       0       0       0       001010000D    357
     110       0       0       1       0                    LINE      42D    358
     120     409       1       1       0       0       0       001010000D    359
     120       0       0       1       0                    SREV      13D    360
     508     410       1       1       0       0       0       001010000D    361
     508       0       0       1       1                EDGELOOP      23D    362
     510     411       1       1       0       0       0       000010000D    363
     510       0       0       1       1                    FACE      22D    364
     110     412       1       1       0       0       0       001010000D    365
     110       0       0       1       0                    LINE      43D    366
     110     413       1       1       0       0       0       001010000D    367
     110       0       0       1       0                    LINE      44D    368
     120     414       1       1       0       0       0       001010000D    369
     120       0       0       1       0                    SREV      14D    370
     508     415       1       1       0       0       0       001010000D    371
     508       0       0       1       1                EDGELOOP      24D    372
     510     416       1       1       0       0       0       000010000D    373
     510       0       0       1       1                    FACE      23D    374
     128     417       1       1       0       0       0       001010000D    375
     128       0       0       6       0                  SPLSRF      10D    376
     508     423       1       1       0       0       0       001010000D    377
     508       0       0       1       1                EDGELOOP      25D    378
     508     424       1       1       0       0       0       001010000D    379
     508       0       0       1       1                EDGELOOP      26D    380
     510     425       1       1       0       0       0       000010000D    381
     510       0       0       1       1                    FACE      24D    382
     514     426       1       1       0       0       0       000000000D    383
     514       0       0       1       1                   SHELL       2D    384
     186     427       1       1       0       0       0       000000000D    385
     186       0       0       1       0                    MSBR       1D    386
314,1.1D0,1.2D0,1D2;                                                   1P      1
314,1.1D1,1.1D1,1.1D1;                                                 3P      2
314,3.92D1,1.2D0,1.2D0;                                                5P      3
314,4.1D1,0D0,2.2D1;                                                   7P      4
314,8.784D1,9.49D1,1D2;                                                9P      5
314,9.6D1,9.6D1,9.6D1;                                                11P      6
314,9.8D1,6.27D1,0D0;                                                 13P      7
314,1D2,1D2,9.49D1;                                                   15P      8
124,0D0,1D0,0D0,0D0,0D0,0D0,-1D0,-4.499999316231D1,-1D0,0D0,0D0,      17P      9
0D0;                                                                  17P     10
100,0D0,0D0,0D0,6.799989964376D0,0D0,-6.799989964376D0,0D0;           19P     11
124,0D0,-1D0,0D0,0D0,0D0,0D0,-1D0,-4.499999316231D1,1D0,0D0,0D0,      21P     12
0D0;                                                                  21P     13
100,0D0,0D0,0D0,6.799989964376D0,0D0,-6.799989964376D0,0D0;           23P     14
110,-1.870585102028D-9,-4.499999437590D1,-6.799994375222D0,           25P     15
-1.650514823097D-9,-4.379999503756D1,-7.999995036960D0;               25P     16
110,1.870583620181D-9,-4.499999437590D1,6.799994375222D0,             27P     17
1.650514684673D-9,-4.379999503756D1,7.999995036960D0;                 27P     18
124,0D0,-1D0,0D0,0D0,0D0,0D0,-1D0,-4.379999618546D1,1D0,0D0,0D0,      29P     19
0D0;                                                                  29P     20
100,0D0,0D0,0D0,8D0,0D0,-8D0,0D0;                                     31P     21
110,1.514666105214D-12,-1.2D0,-8D0,-1.650514823097D-9,                33P     22
-4.379999503756D1,-7.999995036960D0;                                  33P     23
124,0D0,-1D0,0D0,0D0,0D0,0D0,1D0,-1.2D0,-1D0,0D0,0D0,0D0;             35P     24
100,0D0,0D0,0D0,8D0,0D0,-8D0,0D0;                                     37P     25
124,0D0,1D0,0D0,0D0,0D0,0D0,-1D0,-4.379999618546D1,-1D0,0D0,0D0,      39P     26
0D0;                                                                  39P     27
100,0D0,0D0,0D0,8D0,0D0,-8D0,0D0;                                     41P     28
110,-1.514334447769D-12,-1.2D0,8D0,1.650514684673D-9,                 43P     29
-4.379999503756D1,7.999995036960D0;                                   43P     30
124,0D0,1D0,0D0,0D0,0D0,0D0,1D0,-1.2D0,1D0,0D0,0D0,0D0;               45P     31
100,0D0,0D0,0D0,8D0,0D0,-8D0,0D0;                                     47P     32
124,4.813184573127D-12,0D0,1D0,-4.428130084833D-11,0D0,1D0,0D0,       49P     33
-1.2D0,-1D0,0D0,4.813184573127D-12,9.2D0;                             49P     34
100,0D0,0D0,0D0,1.2D0,0D0,6.432922879281D-13,1.2D0;                   51P     35
124,-4.813035386908D-12,0D0,-1D0,4.427991306954D-11,0D0,1D0,0D0,      53P     36
-1.2D0,1D0,0D0,-4.813035386908D-12,-9.2D0;                            53P     37
100,0D0,0D0,0D0,1.2D0,0D0,6.432922879281D-13,1.2D0;                   55P     38
110,-1.2D1,0D0,6.928203230276D0,0D0,0D0,1.385640646055D1;             57P     39
110,0D0,0D0,1.385640646055D1,1.2D1,0D0,6.928203230276D0;              59P     40
110,1.2D1,0D0,6.928203230276D0,1.2D1,0D0,-6.928203230276D0;           61P     41
110,1.2D1,0D0,-6.928203230276D0,0D0,0D0,-1.385640646055D1;            63P     42
110,0D0,0D0,-1.385640646055D1,-1.2D1,0D0,-6.928203230276D0;           65P     43
110,-1.2D1,0D0,-6.928203230276D0,-1.2D1,0D0,6.928203230276D0;         67P     44
124,0D0,-1D0,0D0,0D0,0D0,0D0,1D0,0D0,-1D0,0D0,0D0,0D0;                69P     45
100,0D0,0D0,0D0,9.199999947067D0,0D0,-9.199999947067D0,0D0;           71P     46
124,0D0,1D0,0D0,0D0,0D0,0D0,1D0,0D0,1D0,0D0,0D0,0D0;                  73P     47
100,0D0,0D0,0D0,9.199999947067D0,0D0,-9.199999947067D0,0D0;           75P     48
126,7,3,0,0,1,0,0D0,0D0,0D0,0D0,2D-1,4D-1,6D-1,8D-1,1D0,1D0,1D0,      77P     49
1D0,1D0,1D0,1D0,1D0,1D0,1D0,1D0,1D0,-1.2D1,8.928203230276D0,          77P     50
6.928203230276D0,-1.157269629819D1,9.070637797545D0,                  77P     51
7.174907137540D0,-1.073351222159D1,9.327264688871D0,                  77P     52
7.659410290067D0,-9.536077289235D0,9.622667359414D0,                  77P     53
8.350749670598D0,-8.353620771400D0,9.838370749933D0,                  77P     54
9.033441259476D0,-7.176568977470D0,9.970301065375D0,                  77P     55
9.713012429550D0,-6.391977382016D0,9.999999999969D0,                  77P     56
1.016599659839D1,-6.000000000682D0,1.000000000001D1,                  77P     57
1.039230484502D1,0D0,1D0,0D0,0D0,1D0;                                 77P     58
126,7,3,0,0,1,0,0D0,0D0,0D0,0D0,2D-1,4D-1,6D-1,8D-1,1D0,1D0,1D0,      79P     59
1D0,1D0,1D0,1D0,1D0,1D0,1D0,1D0,1D0,-6.000000000682D0,                79P     60
1.000000000001D1,1.039230484502D1,-5.607890871958D0,                  79P     61
1.000000000001D1,1.061868915604D1,-4.823070949783D0,                  79P     62
9.970278609927D0,1.107180514937D1,-3.645862111896D0,                  79P     63
9.838301200116D0,1.175146698882D1,-2.463194099541D0,                  79P     64
9.622502887469D0,1.243428068411D1,-1.266507263502D0,                  79P     65
9.327258871953D0,1.312518815104D1,-4.273273586697D-1,                 79P     66
9.070645683165D0,1.360968889499D1,0D0,8.928203230276D0,               79P     67
1.385640646055D1,0D0,1D0,0D0,0D0,1D0;                                 79P     68
110,-1.2D1,0D0,6.928203230276D0,-1.2D1,8.928203230276D0,              81P     69
6.928203230276D0;                                                     81P     70
126,7,3,0,0,1,0,0D0,0D0,0D0,0D0,2D-1,4D-1,6D-1,8D-1,1D0,1D0,1D0,      83P     71
1D0,1D0,1D0,1D0,1D0,1D0,1D0,1D0,1D0,-1.2D1,8.928203230276D0,          83P     72
-6.928203230276D0,-1.2D1,9.069365063926D0,-6.439204294331D0,          83P     73
-1.2D1,9.324523630749D0,-5.476828093124D0,-1.2D1,                     83P     74
9.620473310618D0,-4.094950490929D0,-1.2D1,9.837116899408D0,           83P     75
-2.727868487326D0,-1.2D1,9.969975668035D0,-1.365140904341D0,          83P     76
-1.2D1,9.999999999966D0,-4.550628273746D-1,-1.2D1,                    83P     77
1.000000000002D1,-6.830025434170D-11,0D0,1D0,0D0,0D0,1D0;             83P     78
126,7,3,0,0,1,0,0D0,0D0,0D0,0D0,2D-1,4D-1,6D-1,8D-1,1D0,1D0,1D0,      85P     79
1D0,1D0,1D0,1D0,1D0,1D0,1D0,1D0,1D0,-1.2D1,1.000000000002D1,          85P     80
-6.830025434170D-11,-1.2D1,9.999999999972D0,4.579552722541D-1,        85P     81
-1.2D1,9.969605428911D0,1.373034769047D0,-1.2D1,                      85P     82
9.835414471564D0,2.741731688690D0,-1.2D1,9.617492065796D0,            85P     83
4.110798658695D0,-1.2D1,9.321349043494D0,5.489486543456D0,            85P     84
-1.2D1,9.067925095573D0,6.444192491028D0,-1.2D1,                      85P     85
8.928203230276D0,6.928203230276D0,0D0,1D0,0D0,0D0,1D0;                85P     86
110,-1.2D1,0D0,-6.928203230276D0,-1.2D1,8.928203230276D0,             87P     87
-6.928203230276D0;                                                    87P     88
126,7,3,0,0,1,0,0D0,0D0,0D0,0D0,2D-1,4D-1,6D-1,8D-1,1D0,1D0,1D0,      89P     89
1D0,1D0,1D0,1D0,1D0,1D0,1D0,1D0,1D0,1.2D1,8.928203230276D0,           89P     90
-6.928203230276D0,1.157269629819D1,9.070637797545D0,                  89P     91
-7.174907137540D0,1.073351222159D1,9.327264688871D0,                  89P     92
-7.659410290067D0,9.536077289235D0,9.622667359414D0,                  89P     93
-8.350749670598D0,8.353620771400D0,9.838370749933D0,                  89P     94
-9.033441259476D0,7.176568977470D0,9.970301065375D0,                  89P     95
-9.713012429550D0,6.391977382016D0,9.999999999969D0,                  89P     96
-1.016599659839D1,6.000000000682D0,1.000000000001D1,                  89P     97
-1.039230484502D1,0D0,1D0,0D0,0D0,1D0;                                89P     98
126,7,3,0,0,1,0,0D0,0D0,0D0,0D0,2D-1,4D-1,6D-1,8D-1,1D0,1D0,1D0,      91P     99
1D0,1D0,1D0,1D0,1D0,1D0,1D0,1D0,1D0,6.000000000682D0,                 91P    100
1.000000000001D1,-1.039230484502D1,5.607890871958D0,                  91P    101
1.000000000001D1,-1.061868915604D1,4.823070949783D0,                  91P    102
9.970278609927D0,-1.107180514937D1,3.645862111896D0,                  91P    103
9.838301200116D0,-1.175146698882D1,2.463194099541D0,                  91P    104
9.622502887469D0,-1.243428068411D1,1.266507263502D0,                  91P    105
9.327258871953D0,-1.312518815104D1,4.273273586697D-1,                 91P    106
9.070645683165D0,-1.360968889499D1,0D0,8.928203230276D0,              91P    107
-1.385640646055D1,0D0,1D0,0D0,0D0,1D0;                                91P    108
110,1.2D1,0D0,-6.928203230276D0,1.2D1,8.928203230276D0,               93P    109
-6.928203230276D0;                                                    93P    110
126,7,3,0,0,1,0,0D0,0D0,0D0,0D0,2D-1,4D-1,6D-1,8D-1,1D0,1D0,1D0,      95P    111
1D0,1D0,1D0,1D0,1D0,1D0,1D0,1D0,1D0,0D0,8.928203230276D0,             95P    112
-1.385640646055D1,-4.273037018209D-1,9.070637797549D0,                95P    113
-1.360970255328D1,-1.266487778448D0,9.327264688881D0,                 95P    114
-1.312519940074D1,-2.463922710835D0,9.622667359430D0,                 95P    115
-1.243386002019D1,-3.646379228704D0,9.838370749950D0,                 95P    116
-1.175116843129D1,-4.823431022667D0,9.970301065384D0,                 95P    117
-1.107159726120D1,-5.608022618148D0,9.999999999978D0,                 95P    118
-1.061861309234D1,-5.999999999407D0,1.000000000001D1,                 95P    119
-1.039230484576D1,0D0,1D0,0D0,0D0,1D0;                                95P    120
126,7,3,0,0,1,0,0D0,0D0,0D0,0D0,2D-1,4D-1,6D-1,8D-1,1D0,1D0,1D0,      97P    121
1D0,1D0,1D0,1D0,1D0,1D0,1D0,1D0,1D0,-5.999999999407D0,                97P    122
1.000000000001D1,-1.039230484576D1,-6.392109128132D0,                 97P    123
1.000000000001D1,-1.016592053474D1,-7.176929050175D0,                 97P    124
9.970278609927D0,-9.712804541476D0,-8.354137888115D0,                 97P    125
9.838301200116D0,-9.033142702001D0,-9.536805900456D0,                 97P    126
9.622502887469D0,-8.350329006713D0,-1.073349273650D1,                 97P    127
9.327258871953D0,-7.659421539788D0,-1.157267264133D1,                 97P    128
9.070645683165D0,-7.174920795836D0,-1.2D1,8.928203230276D0,           97P    129
-6.928203230276D0,0D0,1D0,0D0,0D0,1D0;                                97P    130
110,0D0,0D0,-1.385640646055D1,0D0,8.928203230276D0,                   99P    131
-1.385640646055D1;                                                    99P    132
126,7,3,0,0,1,0,0D0,0D0,0D0,0D0,2D-1,4D-1,6D-1,8D-1,1D0,1D0,1D0,     101P    133
1D0,1D0,1D0,1D0,1D0,1D0,1D0,1D0,1D0,1.2D1,1.000000000002D1,          101P    134
2.313651219806D-10,1.2D1,9.999999999966D0,-4.579552721357D-1,        101P    135
1.2D1,9.969605428957D0,-1.373034768301D0,1.2D1,9.835414471615D0,     101P    136
-2.741731688362D0,1.2D1,9.617492065848D0,-4.110798658418D0,          101P    137
1.2D1,9.321349043528D0,-5.489486543327D0,1.2D1,9.067925095586D0,     101P    138
-6.444192490983D0,1.2D1,8.928203230276D0,-6.928203230276D0,0D0,      101P    139
1D0,0D0,0D0,1D0;                                                     101P    140
110,1.2D1,0D0,6.928203230276D0,1.2D1,8.928203230276D0,               103P    141
6.928203230276D0;                                                    103P    142
126,7,3,0,0,1,0,0D0,0D0,0D0,0D0,2D-1,4D-1,6D-1,8D-1,1D0,1D0,1D0,     105P    143
1D0,1D0,1D0,1D0,1D0,1D0,1D0,1D0,1D0,1.2D1,8.928203230276D0,          105P    144
6.928203230276D0,1.2D1,9.069365063926D0,6.439204294331D0,1.2D1,      105P    145
9.324523630749D0,5.476828093122D0,1.2D1,9.620473310619D0,            105P    146
4.094950490934D0,1.2D1,9.837116899408D0,2.727868487305D0,1.2D1,      105P    147
9.969975668038D0,1.365140904417D0,1.2D1,9.999999999960D0,            105P    148
4.550628272116D-1,1.2D1,1.000000000002D1,2.313651219806D-10,0D0,     105P    149
1D0,0D0,0D0,1D0;                                                     105P    150
126,7,3,0,0,1,0,0D0,0D0,0D0,0D0,2D-1,4D-1,6D-1,8D-1,1D0,1D0,1D0,     107P    151
1D0,1D0,1D0,1D0,1D0,1D0,1D0,1D0,1D0,0D0,8.928203230276D0,            107P    152
1.385640646055D1,4.273037018209D-1,9.070637797549D0,                 107P    153
1.360970255328D1,1.266487778448D0,9.327264688881D0,                  107P    154
1.312519940074D1,2.463922710835D0,9.622667359430D0,                  107P    155
1.243386002019D1,3.646379228704D0,9.838370749950D0,                  107P    156
1.175116843129D1,4.823431022667D0,9.970301065384D0,                  107P    157
1.107159726120D1,5.608022618148D0,9.999999999978D0,                  107P    158
1.061861309234D1,5.999999999407D0,1.000000000001D1,                  107P    159
1.039230484576D1,0D0,1D0,0D0,0D0,1D0;                                107P    160
126,7,3,0,0,1,0,0D0,0D0,0D0,0D0,2D-1,4D-1,6D-1,8D-1,1D0,1D0,1D0,     109P    161
1D0,1D0,1D0,1D0,1D0,1D0,1D0,1D0,1D0,5.999999999407D0,                109P    162
1.000000000001D1,1.039230484576D1,6.392109128132D0,                  109P    163
1.000000000001D1,1.016592053474D1,7.176929050175D0,                  109P    164
9.970278609927D0,9.712804541476D0,8.354137888115D0,                  109P    165
9.838301200116D0,9.033142702001D0,9.536805900456D0,                  109P    166
9.622502887469D0,8.350329006713D0,1.073349273650D1,                  109P    167
9.327258871953D0,7.659421539788D0,1.157267264133D1,                  109P    168
9.070645683165D0,7.174920795836D0,1.2D1,8.928203230276D0,            109P    169
6.928203230276D0,0D0,1D0,0D0,0D0,1D0;                                109P    170
110,0D0,0D0,1.385640646055D1,0D0,8.928203230276D0,                   111P    171
1.385640646055D1;                                                    111P    172
124,1D0,0D0,0D0,0D0,0D0,0D0,1D0,1D1,0D0,-1D0,0D0,0D0;                113P    173
100,0D0,0D0,0D0,1.2D1,0D0,6.000000000104D0,1.039230484535D1;         115P    174
124,4.999999999916D-1,8.660254037893D-1,0D0,0D0,0D0,0D0,1D0,1D1,     117P    175
8.660254037893D-1,-4.999999999916D-1,0D0,0D0;                        117P    176
100,0D0,0D0,0D0,1.2D1,0D0,5.999999999899D0,1.039230484547D1;         119P    177
124,-5.000000000087D-1,8.660254037794D-1,0D0,0D0,0D0,0D0,1D0,        121P    178
1D1,8.660254037794D-1,5.000000000087D-1,0D0,0D0;                     121P    179
100,0D0,0D0,0D0,1.2D1,0D0,5.999999999997D0,1.039230484542D1;         123P    180
124,-1D0,0D0,0D0,0D0,0D0,0D0,1D0,1D1,0D0,1D0,0D0,0D0;                125P    181
100,0D0,0D0,0D0,1.2D1,0D0,6.000000000104D0,1.039230484535D1;         127P    182
124,-4.999999999916D-1,-8.660254037893D-1,0D0,0D0,0D0,0D0,1D0,       129P    183
1D1,-8.660254037893D-1,4.999999999916D-1,0D0,0D0;                    129P    184
100,0D0,0D0,0D0,1.2D1,0D0,5.999999999899D0,1.039230484547D1;         131P    185
124,5.000000000087D-1,-8.660254037794D-1,0D0,0D0,0D0,0D0,1D0,        133P    186
1D1,-8.660254037794D-1,-5.000000000087D-1,0D0,0D0;                   133P    187
100,0D0,0D0,0D0,1.2D1,0D0,5.999999999997D0,1.039230484542D1;         135P    188
502,26,-1.2D1,0D0,6.928203230276D0,0D0,0D0,1.385640646055D1,         137P    189
1.2D1,0D0,6.928203230276D0,1.2D1,0D0,-6.928203230276D0,0D0,0D0,      137P    190
-1.385640646055D1,-1.2D1,0D0,-6.928203230276D0,1.2D1,1D1,0D0,        137P    191
6.000000000104D0,1D1,-1.039230484535D1,-5.999999999899D0,1D1,        137P    192
-1.039230484547D1,-1.2D1,1D1,0D0,-6.000000000104D0,1D1,              137P    193
1.039230484535D1,5.999999999899D0,1D1,1.039230484547D1,-1.2D1,       137P    194
8.928203230276D0,6.928203230276D0,0D0,8.928203230276D0,              137P    195
1.385640646055D1,1.2D1,8.928203230276D0,6.928203230276D0,1.2D1,      137P    196
8.928203230276D0,-6.928203230276D0,0D0,8.928203230276D0,             137P    197
-1.385640646055D1,-1.2D1,8.928203230276D0,-6.928203230276D0,0D0,     137P    198
-1.2D0,-8D0,0D0,-1.2D0,8D0,0D0,0D0,-9.199999947067D0,0D0,0D0,        137P    199
9.199999947067D0,0D0,-4.499999316231D1,-6.799989964376D0,0D0,        137P    200
-4.499999316231D1,6.799989964376D0,0D0,-4.379999618546D1,-8D0,       137P    201
0D0,-4.379999618546D1,8D0;                                           137P    202
504,44,57,137,1,137,2,59,137,2,137,3,61,137,3,137,4,63,137,4,        139P    203
137,5,65,137,5,137,6,67,137,6,137,1,115,137,7,137,8,135,137,8,       139P    204
137,9,131,137,9,137,10,127,137,10,137,11,123,137,11,137,12,119,      139P    205
137,12,137,7,77,137,13,137,11,79,137,11,137,14,107,137,14,137,       139P    206
12,109,137,12,137,15,101,137,7,137,16,105,137,15,137,7,89,137,       139P    207
16,137,8,91,137,8,137,17,95,137,17,137,9,97,137,9,137,18,83,137,     139P    208
18,137,10,85,137,10,137,13,81,137,1,137,13,111,137,2,137,14,103,     139P    209
137,3,137,15,93,137,4,137,16,99,137,5,137,17,87,137,6,137,18,37,     139P    210
137,19,137,20,71,137,21,137,22,47,137,20,137,19,75,137,22,137,       139P    211
21,51,137,20,137,22,55,137,19,137,21,19,137,23,137,24,41,137,25,     139P    212
137,26,23,137,24,137,23,31,137,26,137,25,33,137,19,137,25,43,        139P    213
137,20,137,26,27,137,24,137,26,25,137,23,137,25;                     139P    214
128,1,1,1,1,0,0,1,0,0,-7.072D0,-7.072D0,7.072D0,7.072D0,             141P    215
-7.071999934076D0,-7.071999934076D0,7.071999934076D0,                141P    216
7.071999934076D0,1D0,1D0,1D0,1D0,7.071999934076D0,-4.5D1,            141P    217
7.072D0,7.071999934076D0,-4.5D1,-7.072D0,-7.071999934076D0,          141P    218
-4.5D1,7.072D0,-7.071999934076D0,-4.5D1,-7.072D0,-7.072D0,           141P    219
7.072D0,-7.071999934076D0,7.071999934076D0;                          141P    220
508,2,0,139,37,0,0,0,139,39,0,0;                                     143P    221
510,141,1,0,143;                                                     145P    222
110,0D0,-5.18D1,0D0,0D0,-5.08D1,0D0;                                 147P    223
110,0D0,-4.505731330822D1,-6.742669960702D0,0D0,                     149P    224
-4.374266526601D1,-8.057314740788D0;                                 149P    225
120,147,149,-3.204424512882D0,6.283186011767D-2;                     151P    226
508,4,0,139,37,1,0,0,139,43,1,0,0,139,38,0,0,0,139,44,0,0;           153P    227
510,151,1,0,153;                                                     155P    228
110,0D0,-5.18D1,0D0,0D0,-5.08D1,0D0;                                 157P    229
110,0D0,-4.505731330822D1,-6.742669960702D0,0D0,                     159P    230
-4.374266526601D1,-8.057314740788D0;                                 159P    231
120,157,159,-6.283185929241D-2,3.204424513707D0;                     161P    232
508,4,0,139,39,1,0,0,139,44,1,0,0,139,40,0,0,0,139,43,0,0;           163P    233
510,161,1,0,163;                                                     165P    234
110,0D0,0D0,0D0,0D0,1D0,0D0;                                         167P    235
110,0D0,-4.465200791860D1,-8D0,0D0,-3.479998447333D-1,-8D0;          169P    236
120,167,169,-6.283185307180D-2,3.204424506662D0;                     171P    237
508,4,0,139,40,1,0,0,139,41,0,0,0,139,31,1,0,0,139,42,1,0;           173P    238
510,171,1,0,173;                                                     175P    239
110,0D0,0D0,0D0,0D0,1D0,0D0;                                         177P    240
110,0D0,-4.465200791860D1,-8D0,0D0,-3.479998447333D-1,-8D0;          179P    241
120,177,179,3.078760800518D0,6.346017160251D0;                       181P    242
508,4,0,139,38,1,0,0,139,42,0,0,0,139,33,1,0,0,139,41,1,0;           183P    243
510,181,1,0,183;                                                     185P    244
110,0D0,-1.2D0,0D0,0D0,-2D-1,0D0;                                    187P    245
124,-9.181984553624D-4,1.357500561900D-2,-9.999074337828D-1,         189P    246
-1.251754129803D-1,9.977203088152D-1,6.748470476917D-2,0D0,          189P    247
-1.2D0,6.747845796533D-2,-9.976279536203D-1,-1.360602315003D-2,      189P    248
9.199148390801D0;                                                    189P    249
100,0D0,0D0,0D0,1.2D0,0D0,-1.615930536313D-1,1.189070092559D0;       191P    250
120,187,191,-4.922541009185D-2,3.218030949651D0;                     193P    251
508,4,0,139,33,0,0,0,139,35,1,0,0,139,34,1,0,0,139,36,0,0;           195P    252
510,193,1,0,195;                                                     197P    253
110,0D0,-1.2D0,0D0,0D0,-2D-1,0D0;                                    199P    254
124,9.181984553624D-4,-1.357500561900D-2,9.999074337828D-1,          201P    255
1.251754129803D-1,9.977203088152D-1,6.748470476917D-2,0D0,           201P    256
-1.2D0,-6.747845796533D-2,9.976279536203D-1,1.360602315003D-2,       201P    257
-9.199148390801D0;                                                   201P    258
100,0D0,0D0,0D0,1.2D0,0D0,-1.615930536313D-1,1.189070092559D0;       203P    259
120,199,203,-4.922541009185D-2,3.218030949651D0;                     205P    260
508,4,0,139,31,0,0,0,139,36,1,0,0,139,32,1,0,0,139,35,0,0;           207P    261
510,205,1,0,207;                                                     209P    262
128,1,1,1,1,0,0,1,0,0,-1.441066271897D1,-1.441066271897D1,           211P    263
1.441066271897D1,1.441066271897D1,-1.248D1,-1.248D1,1.248D1,         211P    264
1.248D1,1D0,1D0,1D0,1D0,1.248D1,0D0,1.441066271897D1,1.248D1,        211P    265
0D0,-1.441066271897D1,-1.248D1,0D0,1.441066271897D1,-1.248D1,        211P    266
0D0,-1.441066271897D1,-1.441066271897D1,1.441066271897D1,            211P    267
-1.248D1,1.248D1;                                                    211P    268
508,6,0,139,1,1,0,0,139,2,1,0,0,139,3,1,0,0,139,4,1,0,0,139,5,1,     213P    269
0,0,139,6,1,0;                                                       213P    270
508,2,0,139,32,0,0,0,139,34,0,0;                                     215P    271
510,211,2,0,213,215;                                                 217P    272
128,1,1,1,1,0,0,1,0,0,-2.771281292110D-1,-2.771281292110D-1,         219P    273
1.413353458976D1,1.413353458976D1,-2.000000000008D-1,                219P    274
-2.000000000008D-1,1.020000000004D1,1.020000000004D1,1D0,1D0,        219P    275
1D0,1D0,-1.224D1,-2.000000000008D-1,6.789639165670D0,2.4D-1,         219P    276
-2.000000000008D-1,1.399497052516D1,-1.224D1,1.020000000004D1,       219P    277
6.789639165670D0,2.4D-1,1.020000000004D1,1.399497052516D1,           219P    278
-2.771281292110D-1,1.413353458976D1,-2.000000000008D-1,              219P    279
1.020000000004D1;                                                    219P    280
508,5,0,139,13,1,0,0,139,14,1,0,0,139,26,0,0,0,139,1,0,0,0,139,      221P    281
25,1,0;                                                              221P    282
510,219,1,0,221;                                                     223P    283
110,0D0,1.692820323028D1,0D0,0D0,1.792820323028D1,0D0;               225P    284
110,1.392659108080D1,8.887682120884D0,0D0,1.192981537976D1,          227P    285
1.004052110939D1,0D0;                                                227P    286
120,225,227,-3.204424506468D0,6.283185285510D-2;                     229P    287
508,3,0,139,13,0,0,0,139,24,0,0,0,139,10,1,0;                        231P    288
510,229,1,0,231;                                                     233P    289
110,0D0,1.692820323028D1,0D0,0D0,1.792820323028D1,0D0;               235P    290
110,1.392659108080D1,8.887682120884D0,0D0,1.192981537976D1,          237P    291
1.004052110939D1,0D0;                                                237P    292
120,235,237,-3.204424506468D0,6.283185285510D-2;                     239P    293
508,3,0,139,15,0,0,0,139,14,0,0,0,139,11,1,0;                        241P    294
510,239,1,0,241;                                                     243P    295
110,0D0,1.692820323028D1,0D0,0D0,1.792820323028D1,0D0;               245P    296
110,1.392659108080D1,8.887682120884D0,0D0,1.192981537976D1,          247P    297
1.004052110939D1,0D0;                                                247P    298
120,245,247,-3.204424506468D0,6.283185285510D-2;                     249P    299
508,3,0,139,18,0,0,0,139,16,0,0,0,139,12,1,0;                        251P    300
510,249,1,0,251;                                                     253P    301
128,1,1,1,1,0,0,1,0,0,-2.771281292110D-1,-2.771281292110D-1,         255P    302
1.413353458976D1,1.413353458976D1,-2.000000000016D-1,                255P    303
-2.000000000016D-1,1.020000000008D1,1.020000000008D1,1D0,1D0,        255P    304
1D0,1D0,-1.2D1,-2.000000000016D-1,-7.205331359487D0,-1.2D1,          255P    305
-2.000000000016D-1,7.205331359487D0,-1.2D1,1.020000000008D1,         255P    306
-7.205331359487D0,-1.2D1,1.020000000008D1,7.205331359487D0,          255P    307
-2.771281292110D-1,1.413353458976D1,-2.000000000016D-1,              255P    308
1.020000000008D1;                                                    255P    309
508,5,0,139,23,1,0,0,139,24,1,0,0,139,25,0,0,0,139,6,0,0,0,139,      257P    310
30,1,0;                                                              257P    311
510,255,1,0,257;                                                     259P    312
110,0D0,1.692820323028D1,0D0,0D0,1.792820323028D1,0D0;               261P    313
110,1.392659108080D1,8.887682120884D0,0D0,1.192981537976D1,          263P    314
1.004052110939D1,0D0;                                                263P    315
120,261,263,-6.283185287861D-2,3.204424506445D0;                     265P    316
508,3,0,139,19,0,0,0,139,17,0,0,0,139,7,1,0;                         267P    317
510,265,1,0,267;                                                     269P    318
110,0D0,1.692820323028D1,0D0,0D0,1.792820323028D1,0D0;               271P    319
110,1.392659108080D1,8.887682120884D0,0D0,1.192981537976D1,          273P    320
1.004052110939D1,0D0;                                                273P    321
120,271,273,-6.283185287861D-2,3.204424506445D0;                     275P    322
508,3,0,139,21,0,0,0,139,20,0,0,0,139,8,1,0;                         277P    323
510,275,1,0,277;                                                     279P    324
110,0D0,1.692820323028D1,0D0,0D0,1.792820323028D1,0D0;               281P    325
110,1.392659108080D1,8.887682120884D0,0D0,1.192981537976D1,          283P    326
1.004052110939D1,0D0;                                                283P    327
120,281,283,-6.283185287861D-2,3.204424506445D0;                     285P    328
508,3,0,139,23,0,0,0,139,22,0,0,0,139,9,1,0;                         287P    329
510,285,1,0,287;                                                     289P    330
128,1,1,1,1,0,0,1,0,0,-2.771281292110D-1,-2.771281292110D-1,         291P    331
1.413353458976D1,1.413353458976D1,-2.000000000008D-1,                291P    332
-2.000000000008D-1,1.020000000004D1,1.020000000004D1,1D0,1D0,        291P    333
1D0,1D0,1.224D1,-2.000000000008D-1,-6.789639165670D0,-2.4D-1,        291P    334
-2.000000000008D-1,-1.399497052516D1,1.224D1,1.020000000004D1,       291P    335
-6.789639165670D0,-2.4D-1,1.020000000004D1,-1.399497052516D1,        291P    336
-2.771281292110D-1,1.413353458976D1,-2.000000000008D-1,              291P    337
1.020000000004D1;                                                    291P    338
508,5,0,139,19,1,0,0,139,20,1,0,0,139,29,0,0,0,139,4,0,0,0,139,      293P    339
28,1,0;                                                              293P    340
510,291,1,0,293;                                                     295P    341
128,1,1,1,1,0,0,1,0,0,-2.771281292110D-1,-2.771281292110D-1,         297P    342
1.413353458976D1,1.413353458976D1,-2.000000000008D-1,                297P    343
-2.000000000008D-1,1.020000000004D1,1.020000000004D1,1D0,1D0,        297P    344
1D0,1D0,2.4D-1,-2.000000000008D-1,-1.399497052516D1,-1.224D1,        297P    345
-2.000000000008D-1,-6.789639165670D0,2.4D-1,1.020000000004D1,        297P    346
-1.399497052516D1,-1.224D1,1.020000000004D1,-6.789639165670D0,       297P    347
-2.771281292110D-1,1.413353458976D1,-2.000000000008D-1,              297P    348
1.020000000004D1;                                                    297P    349
508,5,0,139,21,1,0,0,139,22,1,0,0,139,30,0,0,0,139,5,0,0,0,139,      299P    350
29,1,0;                                                              299P    351
510,297,1,0,299;                                                     301P    352
128,1,1,1,1,0,0,1,0,0,-2.771281292110D-1,-2.771281292110D-1,         303P    353
1.413353458976D1,1.413353458976D1,-2.000000000012D-1,                303P    354
-2.000000000012D-1,1.020000000006D1,1.020000000006D1,1D0,1D0,        303P    355
1D0,1D0,1.2D1,-2.000000000012D-1,7.205331359487D0,1.2D1,             303P    356
-2.000000000012D-1,-7.205331359487D0,1.2D1,1.020000000006D1,         303P    357
7.205331359487D0,1.2D1,1.020000000006D1,-7.205331359487D0,           303P    358
-2.771281292110D-1,1.413353458976D1,-2.000000000012D-1,              303P    359
1.020000000006D1;                                                    303P    360
508,5,0,139,17,1,0,0,139,28,0,0,0,139,3,0,0,0,139,27,1,0,0,139,      305P    361
18,1,0;                                                              305P    362
510,303,1,0,305;                                                     307P    363
128,1,1,1,1,0,0,1,0,0,-2.771281292110D-1,-2.771281292110D-1,         309P    364
1.413353458976D1,1.413353458976D1,-2.000000000008D-1,                309P    365
-2.000000000008D-1,1.020000000004D1,1.020000000004D1,1D0,1D0,        309P    366
1D0,1D0,-2.4D-1,-2.000000000008D-1,1.399497052516D1,1.224D1,         309P    367
-2.000000000008D-1,6.789639165670D0,-2.4D-1,1.020000000004D1,        309P    368
1.399497052516D1,1.224D1,1.020000000004D1,6.789639165670D0,          309P    369
-2.771281292110D-1,1.413353458976D1,-2.000000000008D-1,              309P    370
1.020000000004D1;                                                    309P    371
508,5,0,139,15,1,0,0,139,16,1,0,0,139,27,0,0,0,139,2,0,0,0,139,      311P    372
26,1,0;                                                              311P    373
510,309,1,0,311;                                                     313P    374
128,1,1,1,1,0,0,1,0,0,-1.249027884674D1,-1.249027884674D1,           315P    375
1.249027884674D1,1.249027884674D1,-1.248000000002D1,                 315P    376
-1.248000000002D1,1.248000000002D1,1.248000000002D1,1D0,1D0,1D0,     315P    377
1D0,1.248000000002D1,1D1,1.249027884674D1,1.248000000002D1,1D1,      315P    378
-1.249027884674D1,-1.248000000002D1,1D1,1.249027884674D1,            315P    379
-1.248000000002D1,1D1,-1.249027884674D1,-1.249027884674D1,           315P    380
1.249027884674D1,-1.248000000002D1,1.248000000002D1;                 315P    381
508,6,0,139,7,0,0,0,139,12,0,0,0,139,11,0,0,0,139,10,0,0,0,139,      317P    382
9,0,0,0,139,8,0,0;                                                   317P    383
510,315,1,0,317;                                                     319P    384
514,21,145,0,155,1,165,1,175,1,185,1,197,0,209,0,217,0,223,1,        321P    385
233,1,243,1,253,1,259,1,269,1,279,1,289,1,295,1,301,1,307,1,313,     321P    386
1,319,1;                                                             321P    387
124,-1D0,0D0,0D0,0D0,0D0,0D0,-1D0,-4.5D1,0D0,-1D0,0D0,0D0;           323P    388
100,0D0,0D0,0D0,6.9175D0,0D0,-6.9175D0,0D0;                          325P    389
110,6.9175D0,-4.5D1,0D0,6.9175D0,-7D0,0D0;                           327P    390
124,1D0,0D0,0D0,0D0,0D0,0D0,-1D0,-4.5D1,0D0,1D0,0D0,0D0;             329P    391
100,0D0,0D0,0D0,6.9175D0,0D0,-6.9175D0,0D0;                          331P    392
110,-6.9175D0,-4.5D1,0D0,-6.9175D0,-7D0,0D0;                         333P    393
124,-1D0,0D0,0D0,0D0,0D0,0D0,1D0,-7D0,0D0,1D0,0D0,0D0;               335P    394
100,0D0,0D0,0D0,6.9175D0,0D0,-6.9175D0,0D0;                          337P    395
124,1D0,0D0,0D0,0D0,0D0,0D0,1D0,-7D0,0D0,-1D0,0D0,0D0;               339P    396
100,0D0,0D0,0D0,6.9175D0,0D0,-6.9175D0,0D0;                          341P    397
124,-1D0,0D0,0D0,0D0,0D0,0D0,1D0,-7D0,0D0,1D0,0D0,0D0;               343P    398
100,0D0,0D0,0D0,8D0,0D0,-8D0,0D0;                                    345P    399
124,1D0,0D0,0D0,0D0,0D0,0D0,1D0,-7D0,0D0,-1D0,0D0,0D0;               347P    400
100,0D0,0D0,0D0,8D0,0D0,-8D0,0D0;                                    349P    401
502,6,-6.9175D0,-4.5D1,0D0,6.9175D0,-4.5D1,0D0,-6.9175D0,-7D0,       351P    402
0D0,6.9175D0,-7D0,0D0,8D0,-7D0,0D0,-8D0,-7D0,0D0;                    351P    403
504,8,331,351,1,351,2,325,351,2,351,1,337,351,3,351,4,341,351,4,     353P    404
351,3,333,351,1,351,3,327,351,2,351,4,345,351,5,351,6,349,351,6,     353P    405
351,5;                                                               353P    406
110,0D0,-4.5D1,0D0,0D0,-4.4D1,0D0;                                   355P    407
110,-6.9175D0,-4.576D1,0D0,-6.9175D0,-6.24D0,0D0;                    357P    408
120,355,357,3.078760800518D0,6.346017160251D0;                       359P    409
508,4,0,353,2,0,0,0,353,6,1,0,0,353,4,1,0,0,353,5,0,0;               361P    410
510,359,1,0,361;                                                     363P    411
110,0D0,-4.5D1,0D0,0D0,-4.4D1,0D0;                                   365P    412
110,-6.9175D0,-4.576D1,0D0,-6.9175D0,-6.24D0,0D0;                    367P    413
120,365,367,-6.283185307180D-2,3.204424506662D0;                     369P    414
508,4,0,353,1,0,0,0,353,5,1,0,0,353,3,1,0,0,353,6,0,0;               371P    415
510,369,1,0,371;                                                     373P    416
128,1,1,1,1,0,0,1,0,0,-8.330352683556D0,-8.330352683556D0,           375P    417
8.330352683556D0,8.330352683556D0,-8.32D0,-8.32D0,8.32D0,8.32D0,     375P    418
1D0,1D0,1D0,1D0,8.32D0,-7D0,-8.330352683556D0,8.32D0,-7D0,           375P    419
8.330352683556D0,-8.32D0,-7D0,-8.330352683556D0,-8.32D0,-7D0,        375P    420
8.330352683556D0,-8.330352683556D0,8.330352683556D0,-8.32D0,         375P    421
8.32D0;                                                              375P    422
508,2,0,353,7,0,0,0,353,8,0,0;                                       377P    423
508,2,0,353,3,0,0,0,353,4,0,0;                                       379P    424
510,375,2,0,377,379;                                                 381P    425
514,3,363,1,373,1,381,1;                                             383P    426
186,321,1,0;                                                         385P    427
S      1G      5D    386P    427                                        T      1
