 PTC IGES file: sroub-m20x55-csn_02_1101.igs                            S      1
1H,,1H;,24HSROUB-M20X55-CSN_02_1101,28Hsroub-m20x55-csn_02_1101.igs,    G      1
49HPro/ENGINEER by Parametric Technology Corporation,7H2007160,32,38,7, G      2
38,15,24HSROUB-M20X55-CSN_02_1101,1.,2,2HMM,32768,0.5,                  G      3
15H20110917.003024,0.0083806,83.8093,13HVladimir Zima,7HUnknown,10,0,   G      4
15H20110917.003024;                                                     G      5
     314       1       1       1       0       0       0       001000200D      1
     314       0       4       1       0                   COLOR       1D      2
     314       2       1       1       0       0       0       001000200D      3
     314       0       1       1       0                   COLOR       2D      4
     314       3       1       1       0       0       0       001000200D      5
     314       0       1       1       0                   COLOR       3D      6
     314       4       1       1       0       0       0       001000200D      7
     314       0       1       1       0                   COLOR       4D      8
     314       5       1       1       0       0       0       001000200D      9
     314       0       8       1       0                   COLOR       5D     10
     314       6       1       1       0       0       0       001000200D     11
     314       0       8       1       0                   COLOR       6D     12
     314       7       1       1       0       0       0       001000200D     13
     314       0       5       1       0                   COLOR       7D     14
     314       8       1       1       0       0       0       001000200D     15
     314       0       8       1       0                   COLOR       8D     16
     124       9       1       1       0       0       0       001000000D     17
     124       0       0       2       0                   XFORM       1D     18
     100      11       1       1       0       0      17       001010000D     19
     100       0       0       2       0                     ARC       1D     20
     124      13       1       1       0       0       0       001000000D     21
     124       0       0       2       0                   XFORM       2D     22
     100      15       1       1       0       0      21       001010000D     23
     100       0       0       2       0                     ARC       2D     24
     110      17       1       1       0       0       0       001010000D     25
     110       0       0       2       0                    LINE       1D     26
     110      19       1       1       0       0       0       001010000D     27
     110       0       0       2       0                    LINE       2D     28
     124      21       1       1       0       0       0       001000000D     29
     124       0       0       2       0                   XFORM       3D     30
     100      23       1       1       0       0      29       001010000D     31
     100       0       0       1       0                     ARC       3D     32
     110      24       1       1       0       0       0       001010000D     33
     110       0       0       2       0                    LINE       3D     34
     124      26       1       1       0       0       0       001000000D     35
     124       0       0       1       0                   XFORM       4D     36
     100      27       1       1       0       0      35       001010000D     37
     100       0       0       1       0                     ARC       4D     38
     124      28       1       1       0       0       0       001000000D     39
     124       0       0       2       0                   XFORM       5D     40
     100      30       1       1       0       0      39       001010000D     41
     100       0       0       1       0                     ARC       5D     42
     110      31       1       1       0       0       0       001010000D     43
     110       0       0       2       0                    LINE       4D     44
     124      33       1       1       0       0       0       001000000D     45
     124       0       0       1       0                   XFORM       6D     46
     100      34       1       1       0       0      45       001010000D     47
     100       0       0       1       0                     ARC       6D     48
     124      35       1       1       0       0       0       001000000D     49
     124       0       0       2       0                   XFORM       7D     50
     100      37       1       1       0       0      49       001010000D     51
     100       0       0       1       0                     ARC       7D     52
     124      38       1       1       0       0       0       001000000D     53
     124       0       0       2       0                   XFORM       8D     54
     100      40       1       1       0       0      53       001010000D     55
     100       0       0       1       0                     ARC       8D     56
     110      41       1       1       0       0       0       001010000D     57
     110       0       0       1       0                    LINE       5D     58
     110      42       1       1       0       0       0       001010000D     59
     110       0       0       1       0                    LINE       6D     60
     110      43       1       1       0       0       0       001010000D     61
     110       0       0       1       0                    LINE       7D     62
     110      44       1       1       0       0       0       001010000D     63
     110       0       0       1       0                    LINE       8D     64
     110      45       1       1       0       0       0       001010000D     65
     110       0       0       1       0                    LINE       9D     66
     110      46       1       1       0       0       0       001010000D     67
     110       0       0       1       0                    LINE      10D     68
     124      47       1       1       0       0       0       001000000D     69
     124       0       0       1       0                   XFORM       9D     70
     100      48       1       1       0       0      69       001010000D     71
     100       0       0       1       0                     ARC       9D     72
     124      49       1       1       0       0       0       001000000D     73
     124       0       0       1       0                   XFORM      10D     74
     100      50       1       1       0       0      73       001010000D     75
     100       0       0       1       0                     ARC      10D     76
     126      51       1       1       0       0       0       001010000D     77
     126       0       0      10       0                B_SPLINE       1D     78
     126      61       1       1       0       0       0       001010000D     79
     126       0       0      10       0                B_SPLINE       2D     80
     110      71       1       1       0       0       0       001010000D     81
     110       0       0       2       0                    LINE      11D     82
     126      73       1       1       0       0       0       001010000D     83
     126       0       0       9       0                B_SPLINE       3D     84
     126      82       1       1       0       0       0       001010000D     85
     126       0       0       9       0                B_SPLINE       4D     86
     110      91       1       1       0       0       0       001010000D     87
     110       0       0       2       0                    LINE      12D     88
     126      93       1       1       0       0       0       001010000D     89
     126       0       0      10       0                B_SPLINE       5D     90
     126     103       1       1       0       0       0       001010000D     91
     126       0       0      10       0                B_SPLINE       6D     92
     110     113       1       1       0       0       0       001010000D     93
     110       0       0       2       0                    LINE      13D     94
     126     115       1       1       0       0       0       001010000D     95
     126       0       0      10       0                B_SPLINE       7D     96
     126     125       1       1       0       0       0       001010000D     97
     126       0       0      10       0                B_SPLINE       8D     98
     110     135       1       1       0       0       0       001010000D     99
     110       0       0       2       0                    LINE      14D    100
     126     137       1       1       0       0       0       001010000D    101
     126       0       0       8       0                B_SPLINE       9D    102
     110     145       1       1       0       0       0       001010000D    103
     110       0       0       2       0                    LINE      15D    104
     126     147       1       1       0       0       0       001010000D    105
     126       0       0       8       0                B_SPLINE      10D    106
     126     155       1       1       0       0       0       001010000D    107
     126       0       0      10       0                B_SPLINE      11D    108
     126     165       1       1       0       0       0       001010000D    109
     126       0       0      10       0                B_SPLINE      12D    110
     110     175       1       1       0       0       0       001010000D    111
     110       0       0       2       0                    LINE      16D    112
     124     177       1       1       0       0       0       001000000D    113
     124       0       0       1       0                   XFORM      11D    114
     100     178       1       1       0       0     113       001010000D    115
     100       0       0       1       0                     ARC      11D    116
     124     179       1       1       0       0       0       001000000D    117
     124       0       0       2       0                   XFORM      12D    118
     100     181       1       1       0       0     117       001010000D    119
     100       0       0       1       0                     ARC      12D    120
     124     182       1       1       0       0       0       001000000D    121
     124       0       0       2       0                   XFORM      13D    122
     100     184       1       1       0       0     121       001010000D    123
     100       0       0       1       0                     ARC      13D    124
     124     185       1       1       0       0       0       001000000D    125
     124       0       0       1       0                   XFORM      14D    126
     100     186       1       1       0       0     125       001010000D    127
     100       0       0       1       0                     ARC      14D    128
     124     187       1       1       0       0       0       001000000D    129
     124       0       0       2       0                   XFORM      15D    130
     100     189       1       1       0       0     129       001010000D    131
     100       0       0       1       0                     ARC      15D    132
     124     190       1       1       0       0       0       001000000D    133
     124       0       0       2       0                   XFORM      16D    134
     100     192       1       1       0       0     133       001010000D    135
     100       0       0       1       0                     ARC      16D    136
     502     193       1       1       0       0       0       001010000D    137
     502       0       0      14       1                  VERTEX       1D    138
     504     207       1       1       0       0       0       000010001D    139
     504       0       0      12       1                    EDGE       1D    140
     128     219       1       1       0       0       0       001010000D    141
     128       0       0       6       0                  SPLSRF       1D    142
     508     225       1       1       0       0       0       001010000D    143
     508       0       0       1       1                EDGELOOP       1D    144
     510     226       1       1       0       0       0       000010000D    145
     510       0       0       1       1                    FACE       1D    146
     110     227       1       1       0       0       0       001010000D    147
     110       0       0       1       0                    LINE      17D    148
     110     228       1       1       0       0       0       001010000D    149
     110       0       0       2       0                    LINE      18D    150
     120     230       1       1       0       0       0       001010000D    151
     120       0       0       1       0                    SREV       1D    152
     508     231       1       1       0       0       0       001010000D    153
     508       0       0       1       1                EDGELOOP       2D    154
     510     232       1       1       0       0       0       000010000D    155
     510       0       0       1       1                    FACE       2D    156
     110     233       1       1       0       0       0       001010000D    157
     110       0       0       1       0                    LINE      19D    158
     110     234       1       1       0       0       0       001010000D    159
     110       0       0       2       0                    LINE      20D    160
     120     236       1       1       0       0       0       001010000D    161
     120       0       0       1       0                    SREV       2D    162
     508     237       1       1       0       0       0       001010000D    163
     508       0       0       1       1                EDGELOOP       3D    164
     510     238       1       1       0       0       0       000010000D    165
     510       0       0       1       1                    FACE       3D    166
     110     239       1       1       0       0       0       001010000D    167
     110       0       0       1       0                    LINE      21D    168
     110     240       1       1       0       0       0       001010000D    169
     110       0       0       1       0                    LINE      22D    170
     120     241       1       1       0       0       0       001010000D    171
     120       0       0       1       0                    SREV       3D    172
     508     242       1       1       0       0       0       001010000D    173
     508       0       0       1       1                EDGELOOP       4D    174
     510     243       1       1       0       0       0       000010000D    175
     510       0       0       1       1                    FACE       4D    176
     110     244       1       1       0       0       0       001010000D    177
     110       0       0       1       0                    LINE      23D    178
     110     245       1       1       0       0       0       001010000D    179
     110       0       0       1       0                    LINE      24D    180
     120     246       1       1       0       0       0       001010000D    181
     120       0       0       1       0                    SREV       4D    182
     508     247       1       1       0       0       0       001010000D    183
     508       0       0       1       1                EDGELOOP       5D    184
     510     248       1       1       0       0       0       000010000D    185
     510       0       0       1       1                    FACE       5D    186
     110     249       1       1       0       0       0       001010000D    187
     110       0       0       1       0                    LINE      25D    188
     124     250       1       1       0       0       0       001000000D    189
     124       0       0       4       0                   XFORM      17D    190
     100     254       1       1       0       0     189       001010000D    191
     100       0       0       1       0                     ARC      17D    192
     120     255       1       1       0       0       0       001010000D    193
     120       0       0       1       0                    SREV       5D    194
     508     256       1       1       0       0       0       001010000D    195
     508       0       0       1       1                EDGELOOP       6D    196
     510     257       1       1       0       0       0       000010000D    197
     510       0       0       1       1                    FACE       6D    198
     110     258       1       1       0       0       0       001010000D    199
     110       0       0       1       0                    LINE      26D    200
     124     259       1       1       0       0       0       001000000D    201
     124       0       0       4       0                   XFORM      18D    202
     100     263       1       1       0       0     201       001010000D    203
     100       0       0       1       0                     ARC      18D    204
     120     264       1       1       0       0       0       001010000D    205
     120       0       0       1       0                    SREV       6D    206
     508     265       1       1       0       0       0       001010000D    207
     508       0       0       1       1                EDGELOOP       7D    208
     510     266       1       1       0       0       0       000010000D    209
     510       0       0       1       1                    FACE       7D    210
     128     267       1       1       0       0       0       001010000D    211
     128       0       0       6       0                  SPLSRF       2D    212
     508     273       1       1       0       0       0       001010000D    213
     508       0       0       2       1                EDGELOOP       8D    214
     508     275       1       1       0       0       0       001010000D    215
     508       0       0       1       1                EDGELOOP       9D    216
     510     276       1       1       0       0       0       000010000D    217
     510       0       0       1       1                    FACE       8D    218
     128     277       1       1       0       0       0       001010000D    219
     128       0       0       8       0                  SPLSRF       3D    220
     508     285       1       1       0       0       0       001010000D    221
     508       0       0       2       1                EDGELOOP      10D    222
     510     287       1       1       0       0       0       000010000D    223
     510       0       0       1       1                    FACE       9D    224
     110     288       1       1       0       0       0       001010000D    225
     110       0       0       1       0                    LINE      27D    226
     110     289       1       1       0       0       0       001010000D    227
     110       0       0       2       0                    LINE      28D    228
     120     291       1       1       0       0       0       001010000D    229
     120       0       0       1       0                    SREV       7D    230
     508     292       1       1       0       0       0       001010000D    231
     508       0       0       1       1                EDGELOOP      11D    232
     510     293       1       1       0       0       0       000010000D    233
     510       0       0       1       1                    FACE      10D    234
     110     294       1       1       0       0       0       001010000D    235
     110       0       0       1       0                    LINE      29D    236
     110     295       1       1       0       0       0       001010000D    237
     110       0       0       2       0                    LINE      30D    238
     120     297       1       1       0       0       0       001010000D    239
     120       0       0       1       0                    SREV       8D    240
     508     298       1       1       0       0       0       001010000D    241
     508       0       0       1       1                EDGELOOP      12D    242
     510     299       1       1       0       0       0       000010000D    243
     510       0       0       1       1                    FACE      11D    244
     110     300       1       1       0       0       0       001010000D    245
     110       0       0       1       0                    LINE      31D    246
     110     301       1       1       0       0       0       001010000D    247
     110       0       0       2       0                    LINE      32D    248
     120     303       1       1       0       0       0       001010000D    249
     120       0       0       1       0                    SREV       9D    250
     508     304       1       1       0       0       0       001010000D    251
     508       0       0       1       1                EDGELOOP      13D    252
     510     305       1       1       0       0       0       000010000D    253
     510       0       0       1       1                    FACE      12D    254
     128     306       1       1       0       0       0       001010000D    255
     128       0       0       8       0                  SPLSRF       4D    256
     508     314       1       1       0       0       0       001010000D    257
     508       0       0       2       1                EDGELOOP      14D    258
     510     316       1       1       0       0       0       000010000D    259
     510       0       0       1       1                    FACE      13D    260
     110     317       1       1       0       0       0       001010000D    261
     110       0       0       1       0                    LINE      33D    262
     110     318       1       1       0       0       0       001010000D    263
     110       0       0       2       0                    LINE      34D    264
     120     320       1       1       0       0       0       001010000D    265
     120       0       0       1       0                    SREV      10D    266
     508     321       1       1       0       0       0       001010000D    267
     508       0       0       1       1                EDGELOOP      15D    268
     510     322       1       1       0       0       0       000010000D    269
     510       0       0       1       1                    FACE      14D    270
     110     323       1       1       0       0       0       001010000D    271
     110       0       0       1       0                    LINE      35D    272
     110     324       1       1       0       0       0       001010000D    273
     110       0       0       2       0                    LINE      36D    274
     120     326       1       1       0       0       0       001010000D    275
     120       0       0       1       0                    SREV      11D    276
     508     327       1       1       0       0       0       001010000D    277
     508       0       0       1       1                EDGELOOP      16D    278
     510     328       1       1       0       0       0       000010000D    279
     510       0       0       1       1                    FACE      15D    280
     110     329       1       1       0       0       0       001010000D    281
     110       0       0       1       0                    LINE      37D    282
     110     330       1       1       0       0       0       001010000D    283
     110       0       0       2       0                    LINE      38D    284
     120     332       1       1       0       0       0       001010000D    285
     120       0       0       1       0                    SREV      12D    286
     508     333       1       1       0       0       0       001010000D    287
     508       0       0       1       1                EDGELOOP      17D    288
     510     334       1       1       0       0       0       000010000D    289
     510       0       0       1       1                    FACE      16D    290
     128     335       1       1       0       0       0       001010000D    291
     128       0       0       8       0                  SPLSRF       5D    292
     508     343       1       1       0       0       0       001010000D    293
     508       0       0       2       1                EDGELOOP      18D    294
     510     345       1       1       0       0       0       000010000D    295
     510       0       0       1       1                    FACE      17D    296
     128     346       1       1       0       0       0       001010000D    297
     128       0       0       8       0                  SPLSRF       6D    298
     508     354       1       1       0       0       0       001010000D    299
     508       0       0       2       1                EDGELOOP      19D    300
     510     356       1       1       0       0       0       000010000D    301
     510       0       0       1       1                    FACE      18D    302
     128     357       1       1       0       0       0       001010000D    303
     128       0       0       8       0                  SPLSRF       7D    304
     508     365       1       1       0       0       0       001010000D    305
     508       0       0       2       1                EDGELOOP      20D    306
     510     367       1       1       0       0       0       000010000D    307
     510       0       0       1       1                    FACE      19D    308
     128     368       1       1       0       0       0       001010000D    309
     128       0       0       8       0                  SPLSRF       8D    310
     508     376       1       1       0       0       0       001010000D    311
     508       0       0       2       1                EDGELOOP      21D    312
     510     378       1       1       0       0       0       000010000D    313
     510       0       0       1       1                    FACE      20D    314
     128     379       1       1       0       0       0       001010000D    315
     128       0       0       8       0                  SPLSRF       9D    316
     508     387       1       1       0       0       0       001010000D    317
     508       0       0       2       1                EDGELOOP      22D    318
     510     389       1       1       0       0       0       000010000D    319
     510       0       0       1       1                    FACE      21D    320
     514     390       1       1       0       0       0       000010000D    321
     514       0       0       3       1                   SHELL       1D    322
     124     393       1       1       0       0       0       001000000D    323
     124       0       0       1       0                   XFORM      19D    324
     100     394       1       1       0       0     323       001010000D    325
     100       0       0       1       0                     ARC      19D    326
     110     395       1       1       0       0       0       001010000D    327
     110       0       0       1       0                    LINE      39D    328
     124     396       1       1       0       0       0       001000000D    329
     124       0       0       1       0                   XFORM      20D    330
     100     397       1       1       0       0     329       001010000D    331
     100       0       0       1       0                     ARC      20D    332
     110     398       1       1       0       0       0       001010000D    333
     110       0       0       1       0                    LINE      40D    334
     124     399       1       1       0       0       0       001000000D    335
     124       0       0       1       0                   XFORM      21D    336
     100     400       1       1       0       0     335       001010000D    337
     100       0       0       1       0                     ARC      21D    338
     124     401       1       1       0       0       0       001000000D    339
     124       0       0       1       0                   XFORM      22D    340
     100     402       1       1       0       0     339       001010000D    341
     100       0       0       1       0                     ARC      22D    342
     124     403       1       1       0       0       0       001000000D    343
     124       0       0       1       0                   XFORM      23D    344
     100     404       1       1       0       0     343       001010000D    345
     100       0       0       1       0                     ARC      23D    346
     124     405       1       1       0       0       0       001000000D    347
     124       0       0       1       0                   XFORM      24D    348
     100     406       1       1       0       0     347       001010000D    349
     100       0       0       1       0                     ARC      24D    350
     502     407       1       1       0       0       0       001010000D    351
     502       0       0       2       1                  VERTEX       2D    352
     504     409       1       1       0       0       0       000010001D    353
     504       0       0       3       1                    EDGE       2D    354
     110     412       1       1       0       0       0       001010000D    355
     110       0       0       1       0                    LINE      41D    356
     110     413       1       1       0       0       0       001010000D    357
     110       0       0       1       0                    LINE      42D    358
     120     414       1       1       0       0       0       001010000D    359
     120       0       0       1       0                    SREV      13D    360
     508     415       1       1       0       0       0       001010000D    361
     508       0       0       1       1                EDGELOOP      23D    362
     510     416       1       1       0       0       0       000010000D    363
     510       0       0       1       1                    FACE      22D    364
     110     417       1       1       0       0       0       001010000D    365
     110       0       0       1       0                    LINE      43D    366
     110     418       1       1       0       0       0       001010000D    367
     110       0       0       1       0                    LINE      44D    368
     120     419       1       1       0       0       0       001010000D    369
     120       0       0       1       0                    SREV      14D    370
     508     420       1       1       0       0       0       001010000D    371
     508       0       0       1       1                EDGELOOP      24D    372
     510     421       1       1       0       0       0       000010000D    373
     510       0       0       1       1                    FACE      23D    374
     128     422       1       1       0       0       0       001010000D    375
     128       0       0       6       0                  SPLSRF      10D    376
     508     428       1       1       0       0       0       001010000D    377
     508       0       0       1       1                EDGELOOP      25D    378
     508     429       1       1       0       0       0       001010000D    379
     508       0       0       1       1                EDGELOOP      26D    380
     510     430       1       1       0       0       0       000010000D    381
     510       0       0       1       1                    FACE      24D    382
     514     431       1       1       0       0       0       000000000D    383
     514       0       0       1       1                   SHELL       2D    384
     186     432       1       1       0       0       0       000000000D    385
     186       0       0       1       0                    MSBR       1D    386
314,1.1D0,1.2D0,1D2;                                                   1P      1
314,1.1D1,1.1D1,1.1D1;                                                 3P      2
314,3.92D1,1.2D0,1.2D0;                                                5P      3
314,4.1D1,0D0,2.2D1;                                                   7P      4
314,8.784D1,9.49D1,1D2;                                                9P      5
314,9.6D1,9.6D1,9.6D1;                                                11P      6
314,9.8D1,6.27D1,0D0;                                                 13P      7
314,1D2,1D2,9.49D1;                                                   15P      8
124,0D0,1D0,0D0,0D0,0D0,0D0,-1D0,-5.499998997417D1,-1D0,0D0,0D0,      17P      9
0D0;                                                                  17P     10
100,0D0,0D0,0D0,8.799985370248D0,0D0,-8.799985370248D0,               19P     11
-1.064628384950D-14;                                                  19P     12
124,0D0,-1D0,0D0,0D0,0D0,0D0,-1D0,-5.499998997417D1,1D0,0D0,0D0,      21P     13
0D0;                                                                  21P     14
100,0D0,0D0,0D0,8.799985370248D0,0D0,-8.799985370248D0,               23P     15
1.280158744909D-14;                                                   23P     16
110,-3.121853570950D-9,-5.499999178203D1,-8.799991780903D0,           25P     17
-2.660670226133D-9,-5.379999299605D1,-9.999992995088D0;               25P     18
110,3.121852956808D-9,-5.499999178203D1,8.799991780903D0,             27P     19
2.660669396018D-9,-5.379999299605D1,9.999992995088D0;                 27P     20
124,0D0,-1D0,0D0,0D0,0D0,0D0,-1D0,-5.379999469610D1,1D0,0D0,0D0,      29P     21
0D0;                                                                  29P     22
100,0D0,0D0,0D0,1D1,0D0,-1D1,0D0;                                     31P     23
110,1.035236918976D-12,-1.2D0,-1D1,-2.660670226133D-9,                33P     24
-5.379999299605D1,-9.999992995088D0;                                  33P     25
124,0D0,-1D0,0D0,0D0,0D0,0D0,1D0,-1.2D0,-1D0,0D0,0D0,0D0;             35P     26
100,0D0,0D0,0D0,1D1,0D0,-1D1,0D0;                                     37P     27
124,0D0,1D0,0D0,0D0,0D0,0D0,-1D0,-5.379999469610D1,-1D0,0D0,0D0,      39P     28
0D0;                                                                  39P     29
100,0D0,0D0,0D0,1D1,0D0,-1D1,0D0;                                     41P     30
110,-1.035076484159D-12,-1.2D0,1D1,2.660669396018D-9,                 43P     31
-5.379999299605D1,9.999992995088D0;                                   43P     32
124,0D0,1D0,0D0,0D0,0D0,0D0,1D0,-1.2D0,1D0,0D0,0D0,0D0;               45P     33
100,0D0,0D0,0D0,1D1,0D0,-1D1,0D0;                                     47P     34
124,3.000865181346D-12,0D0,1D0,-3.360967060217D-11,0D0,1D0,0D0,       49P     35
-1.2D0,-1D0,0D0,3.000865181346D-12,1.12D1;                            49P     36
100,0D0,0D0,0D0,1.2D0,0D0,5.012725586180D-13,1.2D0;                   51P     37
124,-3.000747220150D-12,0D0,-1D0,3.360836609012D-11,0D0,1D0,0D0,      53P     38
-1.2D0,1D0,0D0,-3.000747220150D-12,-1.12D1;                           53P     39
100,0D0,0D0,0D0,1.2D0,0D0,4.994073839366D-13,1.2D0;                   55P     40
110,-1.5D1,0D0,8.660254037844D0,0D0,0D0,1.732050807569D1;             57P     41
110,0D0,0D0,1.732050807569D1,1.5D1,0D0,8.660254037844D0;              59P     42
110,1.5D1,0D0,8.660254037844D0,1.5D1,0D0,-8.660254037844D0;           61P     43
110,1.5D1,0D0,-8.660254037844D0,0D0,0D0,-1.732050807569D1;            63P     44
110,0D0,0D0,-1.732050807569D1,-1.5D1,0D0,-8.660254037844D0;           65P     45
110,-1.5D1,0D0,-8.660254037844D0,-1.5D1,0D0,8.660254037844D0;         67P     46
124,0D0,-1D0,0D0,0D0,0D0,0D0,1D0,0D0,-1D0,0D0,0D0,0D0;                69P     47
100,0D0,0D0,0D0,1.119999989021D1,0D0,-1.119999989021D1,0D0;           71P     48
124,0D0,1D0,0D0,0D0,0D0,0D0,1D0,0D0,1D0,0D0,0D0,0D0;                  73P     49
100,0D0,0D0,0D0,1.119999989021D1,0D0,-1.119999989021D1,0D0;           75P     50
126,7,3,0,0,1,0,0D0,0D0,0D0,0D0,2D-1,4D-1,6D-1,8D-1,1D0,1D0,1D0,      77P     51
1D0,1D0,1D0,1D0,1D0,1D0,1D0,1D0,1D0,-1.5D1,1.166025403784D1,          77P     52
8.660254037844D0,-1.446587847037D1,1.183829454772D1,                  77P     53
8.968629246758D0,-1.341690926095D1,1.215907527302D1,                  77P     54
9.574251902202D0,-1.192012202129D1,1.252832901555D1,                  77P     55
1.043842241786D1,-1.044202774709D1,1.279796345723D1,                  77P     56
1.129180054525D1,-8.970716844375D0,1.296287581433D1,                  77P     57
1.214126228990D1,-7.989973340292D0,1.299999999996D1,                  77P     58
1.270749481872D1,-7.500000020274D0,1.300000000001D1,                  77P     59
1.299038104692D1,0D0,1D0,0D0,0D0,1D0;                                 77P     60
126,7,3,0,0,1,0,0D0,0D0,0D0,0D0,2D-1,4D-1,6D-1,8D-1,1D0,1D0,1D0,      79P     61
1D0,1D0,1D0,1D0,1D0,1D0,1D0,1D0,1D0,-7.500000020274D0,                79P     62
1.300000000001D1,1.299038104692D1,-7.009862553142D0,                  79P     63
1.300000000001D1,1.327336204551D1,-6.028834570719D0,                  79P     64
1.296284784139D1,1.383975881252D1,-4.557327958465D0,                  79P     65
1.279787680006D1,1.468933355232D1,-3.078970912622D0,                  79P     66
1.252812421289D1,1.554286339040D1,-1.583117590916D0,                  79P     67
1.215906873581D1,1.640649470843D1,-5.341521054834D-1,                 79P     68
1.183830473967D1,1.701211521380D1,0D0,1.166025403784D1,               79P     69
1.732050807569D1,0D0,1D0,0D0,0D0,1D0;                                 79P     70
110,-1.5D1,0D0,8.660254037844D0,-1.5D1,1.166025403784D1,              81P     71
8.660254037844D0;                                                     81P     72
126,7,3,0,0,1,0,0D0,0D0,0D0,0D0,2D-1,4D-1,6D-1,8D-1,1D0,1D0,1D0,      83P     73
1D0,1D0,1D0,1D0,1D0,1D0,1D0,1D0,1D0,-1.5D1,1.166025403784D1,          83P     74
-8.660254037844D0,-1.5D1,1.183670829621D1,-8.048998556449D0,          83P     75
-1.5D1,1.215565857161D1,-6.846018514431D0,-1.5D1,                     83P     76
1.252559349790D1,-5.118677612228D0,-1.5D1,1.279639731072D1,           83P     77
-3.409826367039D0,-1.5D1,1.296246994650D1,-1.706419176224D0,          83P     78
-1.500000000001D1,1.299999999996D1,-5.688258707162D-1,                83P     79
-1.500000000001D1,1.300000000003D1,-8.473466414260D-11,0D0,1D0,       83P     80
0D0,0D0,1D0;                                                          83P     81
126,7,3,0,0,1,0,0D0,0D0,0D0,0D0,2D-1,4D-1,6D-1,8D-1,1D0,1D0,1D0,      85P     82
1D0,1D0,1D0,1D0,1D0,1D0,1D0,1D0,1D0,-1.500000000001D1,                85P     83
1.300000000003D1,-8.473466414260D-11,-1.500000000001D1,               85P     84
1.299999999996D1,5.724363675867D-1,-1.5D1,1.296200781088D1,           85P     85
1.716272808041D0,-1.5D1,1.279427211506D1,3.427132442936D0,            85P     86
-1.5D1,1.252187189273D1,5.138461507933D0,-1.5D1,                      85P     87
1.215169582365D1,6.861819697453D0,-1.5D1,1.183491083414D1,            85P     88
8.055225147716D0,-1.5D1,1.166025403784D1,8.660254037844D0,0D0,        85P     89
1D0,0D0,0D0,1D0;                                                      85P     90
110,-1.5D1,0D0,-8.660254037844D0,-1.5D1,1.166025403784D1,             87P     91
-8.660254037844D0;                                                    87P     92
126,7,3,0,0,1,0,0D0,0D0,0D0,0D0,2D-1,4D-1,6D-1,8D-1,1D0,1D0,1D0,      89P     93
1D0,1D0,1D0,1D0,1D0,1D0,1D0,1D0,1D0,1.5D1,1.166025403784D1,           89P     94
-8.660254037844D0,1.446587847037D1,1.183829454772D1,                  89P     95
-8.968629246758D0,1.341690926077D1,1.215907527302D1,                  89P     96
-9.574251902292D0,1.192012202194D1,1.252832901555D1,                  89P     97
-1.043842241755D1,1.044202774467D1,1.279796345723D1,                  89P     98
-1.129180054642D1,8.970716853418D0,1.296287581433D1,                  89P     99
-1.214126228554D1,7.989973320807D0,1.299999999996D1,                  89P    100
-1.270749482811D1,7.500000000790D0,1.300000000001D1,                  89P    101
-1.299038105631D1,0D0,1D0,0D0,0D0,1D0;                                89P    102
126,7,3,0,0,1,0,0D0,0D0,0D0,0D0,2D-1,4D-1,6D-1,8D-1,1D0,1D0,1D0,      91P    103
1D0,1D0,1D0,1D0,1D0,1D0,1D0,1D0,1D0,7.500000000790D0,                 91P    104
1.300000000001D1,-1.299038105631D1,7.009862533658D0,                  91P    105
1.300000000001D1,-1.327336205490D1,6.028834579762D0,                  91P    106
1.296284784139D1,-1.383975880816D1,4.557327956041D0,                  91P    107
1.279787680006D1,-1.468933355348D1,3.078970913275D0,                  91P    108
1.252812421289D1,-1.554286339008D1,1.583117590730D0,                  91P    109
1.215906873581D1,-1.640649470852D1,5.341521054834D-1,                 91P    110
1.183830473967D1,-1.701211521380D1,0D0,1.166025403784D1,              91P    111
-1.732050807569D1,0D0,1D0,0D0,0D0,1D0;                                91P    112
110,1.5D1,0D0,-8.660254037844D0,1.5D1,1.166025403784D1,               93P    113
-8.660254037844D0;                                                    93P    114
126,7,3,0,0,1,0,0D0,0D0,0D0,0D0,2D-1,4D-1,6D-1,8D-1,1D0,1D0,1D0,      95P    115
1D0,1D0,1D0,1D0,1D0,1D0,1D0,1D0,1D0,0D0,1.166025403784D1,             95P    116
-1.732050807569D1,-5.341215296491D-1,1.183829454773D1,                95P    117
-1.701213286677D1,-1.583090739278D0,1.215907527304D1,                 95P    118
-1.640651021122D1,-3.079877978147D0,1.252832901557D1,                 95P    119
-1.554233969593D1,-4.557972255454D0,1.279796345725D1,                 95P    120
-1.468896156704D1,-6.029283146782D0,1.296287581434D1,                 95P    121
-1.383949982787D1,-7.010026679335D0,1.299999999997D1,                 95P    122
-1.327326728535D1,-7.499999999259D0,1.300000000001D1,                 95P    123
-1.299038105720D1,0D0,1D0,0D0,0D0,1D0;                                95P    124
126,7,3,0,0,1,0,0D0,0D0,0D0,0D0,2D-1,4D-1,6D-1,8D-1,1D0,1D0,1D0,      97P    125
1D0,1D0,1D0,1D0,1D0,1D0,1D0,1D0,1D0,-7.499999999259D0,                97P    126
1.300000000001D1,-1.299038105720D1,-7.990137466391D0,                 97P    127
1.300000000001D1,-1.270740005861D1,-8.971165420215D0,                 97P    128
1.296284784139D1,-1.214100330538D1,-1.044267204397D1,                 97P    129
1.279787680006D1,-1.129142856005D1,-1.192102908672D1,                 97P    130
1.252812421289D1,-1.043789872345D1,-1.341688240927D1,                 97P    131
1.215906873581D1,-9.574267405011D0,-1.446584789452D1,                 97P    132
1.183830473967D1,-8.968646899733D0,-1.5D1,1.166025403784D1,           97P    133
-8.660254037844D0,0D0,1D0,0D0,0D0,1D0;                                97P    134
110,0D0,0D0,-1.732050807569D1,0D0,1.166025403784D1,                   99P    135
-1.732050807569D1;                                                    99P    136
126,7,3,0,0,1,0,0D0,0D0,0D0,0D0,2D-1,4D-1,6D-1,8D-1,1D0,1D0,1D0,     101P    137
1D0,1D0,1D0,1D0,1D0,1D0,1D0,1D0,1D0,1.500000000001D1,                101P    138
1.300000000003D1,8.473431769191D-11,1.500000000001D1,                101P    139
1.299999999996D1,-5.724363675867D-1,1.5D1,1.296200781088D1,          101P    140
-1.716272808041D0,1.5D1,1.279427211506D1,-3.427132442936D0,          101P    141
1.5D1,1.252187189273D1,-5.138461507933D0,1.5D1,1.215169582365D1,     101P    142
-6.861819697453D0,1.5D1,1.183491083414D1,-8.055225147716D0,          101P    143
1.5D1,1.166025403784D1,-8.660254037844D0,0D0,1D0,0D0,0D0,1D0;        101P    144
110,1.5D1,0D0,8.660254037844D0,1.5D1,1.166025403784D1,               103P    145
8.660254037844D0;                                                    103P    146
126,7,3,0,0,1,0,0D0,0D0,0D0,0D0,2D-1,4D-1,6D-1,8D-1,1D0,1D0,1D0,     105P    147
1D0,1D0,1D0,1D0,1D0,1D0,1D0,1D0,1D0,1.5D1,1.166025403784D1,          105P    148
8.660254037844D0,1.5D1,1.183670829621D1,8.048998556449D0,1.5D1,      105P    149
1.215565857161D1,6.846018514431D0,1.5D1,1.252559349790D1,            105P    150
5.118677612228D0,1.5D1,1.279639731072D1,3.409826367039D0,1.5D1,      105P    151
1.296246994650D1,1.706419176224D0,1.500000000001D1,                  105P    152
1.299999999996D1,5.688258707162D-1,1.500000000001D1,                 105P    153
1.300000000003D1,8.473431769191D-11,0D0,1D0,0D0,0D0,1D0;             105P    154
126,7,3,0,0,1,0,0D0,0D0,0D0,0D0,2D-1,4D-1,6D-1,8D-1,1D0,1D0,1D0,     107P    155
1D0,1D0,1D0,1D0,1D0,1D0,1D0,1D0,1D0,0D0,1.166025403784D1,            107P    156
1.732050807569D1,5.341215297388D-1,1.183829454776D1,                 107P    157
1.701213286671D1,1.583090739531D0,1.215907527312D1,                  107P    158
1.640651021107D1,3.079877978704D0,1.252832901568D1,                  107P    159
1.554233969561D1,4.557972256054D0,1.279796345736D1,                  107P    160
1.468896156670D1,6.029283148382D0,1.296287581444D1,                  107P    161
1.383949982695D1,7.010026679243D0,1.299999999997D1,                  107P    162
1.327326728540D1,7.499999999898D0,1.300000000001D1,                  107P    163
1.299038105683D1,0D0,1D0,0D0,0D0,1D0;                                107P    164
126,7,3,0,0,1,0,0D0,0D0,0D0,0D0,2D-1,4D-1,6D-1,8D-1,1D0,1D0,1D0,     109P    165
1D0,1D0,1D0,1D0,1D0,1D0,1D0,1D0,1D0,7.499999999898D0,                109P    166
1.300000000001D1,1.299038105683D1,7.990137466312D0,                  109P    167
1.300000000001D1,1.270740005865D1,8.971165421846D0,                  109P    168
1.296284784129D1,1.214100330444D1,1.044267204458D1,                  109P    169
1.279787679995D1,1.129142855969D1,1.192102908729D1,                  109P    170
1.252812421277D1,1.043789872312D1,1.341688240953D1,                  109P    171
1.215906873573D1,9.574267404861D0,1.446584789461D1,                  109P    172
1.183830473964D1,8.968646899680D0,1.5D1,1.166025403784D1,            109P    173
8.660254037844D0,0D0,1D0,0D0,0D0,1D0;                                109P    174
110,0D0,0D0,1.732050807569D1,0D0,1.166025403784D1,                   111P    175
1.732050807569D1;                                                    111P    176
124,1D0,0D0,0D0,0D0,0D0,0D0,1D0,1.3D1,0D0,-1D0,0D0,0D0;              113P    177
100,0D0,0D0,0D0,1.5D1,0D0,7.499999999880D0,1.299038105684D1;         115P    178
124,4.999999999916D-1,8.660254037893D-1,0D0,0D0,0D0,0D0,1D0,         117P    179
1.3D1,8.660254037893D-1,-4.999999999916D-1,0D0,0D0;                  117P    180
100,0D0,0D0,0D0,1.5D1,0D0,7.499999999873D0,1.299038105684D1;         119P    181
124,-5.000000049730D-1,8.660254009133D-1,0D0,0D0,0D0,0D0,1D0,        121P    182
1.3D1,8.660254009133D-1,5.000000049730D-1,0D0,0D0;                   121P    183
100,0D0,0D0,0D0,1.5D1,0D0,7.499999925532D0,1.299038109976D1;         123P    184
124,-1D0,0D0,0D0,0D0,0D0,0D0,1D0,1.3D1,0D0,1D0,0D0,0D0;              125P    185
100,0D0,0D0,0D0,1.5D1,0D0,7.500000074595D0,1.299038101370D1;         127P    186
124,-4.999999999916D-1,-8.660254037893D-1,0D0,0D0,0D0,0D0,1D0,       129P    187
1.3D1,-8.660254037893D-1,4.999999999916D-1,0D0,0D0;                  129P    188
100,0D0,0D0,0D0,1.5D1,0D0,7.499999999873D0,1.299038105684D1;         131P    189
124,4.999999999920D-1,-8.660254037891D-1,0D0,0D0,0D0,0D0,1D0,        133P    190
1.3D1,-8.660254037891D-1,-4.999999999920D-1,0D0,0D0;                 133P    191
100,0D0,0D0,0D0,1.5D1,0D0,7.500000000246D0,1.299038105662D1;         135P    192
502,26,-1.5D1,0D0,8.660254037844D0,0D0,0D0,1.732050807569D1,         137P    193
1.5D1,0D0,8.660254037844D0,1.5D1,0D0,-8.660254037844D0,0D0,0D0,      137P    194
-1.732050807569D1,-1.5D1,0D0,-8.660254037844D0,1.5D1,1.3D1,0D0,      137P    195
7.499999999880D0,1.3D1,-1.299038105684D1,-7.499999999873D0,          137P    196
1.3D1,-1.299038105684D1,-1.5D1,1.3D1,0D0,-7.500000074595D0,          137P    197
1.3D1,1.299038101370D1,7.499999999873D0,1.3D1,1.299038105684D1,      137P    198
-1.5D1,1.166025403784D1,8.660254037844D0,0D0,1.166025403784D1,       137P    199
1.732050807569D1,1.5D1,1.166025403784D1,8.660254037844D0,1.5D1,      137P    200
1.166025403784D1,-8.660254037844D0,0D0,1.166025403784D1,             137P    201
-1.732050807569D1,-1.5D1,1.166025403784D1,-8.660254037844D0,0D0,     137P    202
-1.2D0,-1D1,0D0,-1.2D0,1D1,0D0,0D0,-1.119999989021D1,0D0,0D0,        137P    203
1.119999989021D1,0D0,-5.499998997417D1,-8.799985370248D0,0D0,        137P    204
-5.499998997417D1,8.799985370248D0,0D0,-5.379999469610D1,-1D1,       137P    205
0D0,-5.379999469610D1,1D1;                                           137P    206
504,44,57,137,1,137,2,59,137,2,137,3,61,137,3,137,4,63,137,4,        139P    207
137,5,65,137,5,137,6,67,137,6,137,1,115,137,7,137,8,135,137,8,       139P    208
137,9,131,137,9,137,10,127,137,10,137,11,123,137,11,137,12,119,      139P    209
137,12,137,7,77,137,13,137,11,79,137,11,137,14,107,137,14,137,       139P    210
12,109,137,12,137,15,101,137,7,137,16,105,137,15,137,7,89,137,       139P    211
16,137,8,91,137,8,137,17,95,137,17,137,9,97,137,9,137,18,83,137,     139P    212
18,137,10,85,137,10,137,13,81,137,1,137,13,111,137,2,137,14,103,     139P    213
137,3,137,15,93,137,4,137,16,99,137,5,137,17,87,137,6,137,18,37,     139P    214
137,19,137,20,71,137,21,137,22,47,137,20,137,19,75,137,22,137,       139P    215
21,51,137,20,137,22,55,137,19,137,21,19,137,23,137,24,41,137,25,     139P    216
137,26,23,137,24,137,23,31,137,26,137,25,33,137,19,137,25,43,        139P    217
137,20,137,26,27,137,24,137,26,25,137,23,137,25;                     139P    218
128,1,1,1,1,0,0,1,0,0,-9.152D0,-9.152D0,9.152D0,9.152D0,             141P    219
-9.151999916427D0,-9.151999916427D0,9.151999916427D0,                141P    220
9.151999916427D0,1D0,1D0,1D0,1D0,9.151999916427D0,-5.5D1,            141P    221
9.152D0,9.151999916427D0,-5.5D1,-9.152D0,-9.151999916427D0,          141P    222
-5.5D1,9.152D0,-9.151999916427D0,-5.5D1,-9.152D0,-9.152D0,           141P    223
9.152D0,-9.151999916427D0,9.151999916427D0;                          141P    224
508,2,0,139,37,0,0,0,139,39,0,0;                                     143P    225
510,141,1,0,143;                                                     145P    226
110,0D0,-6.38D1,0D0,0D0,-6.28D1,0D0;                                 147P    227
110,0D0,-5.507112596913D1,-8.728849574593D0,0D0,                     149P    228
-5.372884417593D1,-1.007112760702D1;                                 149P    229
120,147,149,-3.204424514746D0,6.283186222052D-2;                     151P    230
508,4,0,139,37,1,0,0,139,43,1,0,0,139,38,0,0,0,139,44,0,0;           153P    231
510,151,1,0,153;                                                     155P    232
110,0D0,-6.38D1,0D0,0D0,-6.28D1,0D0;                                 157P    233
110,0D0,-5.507112596913D1,-8.728849574593D0,0D0,                     159P    234
-5.372884417593D1,-1.007112760702D1;                                 159P    235
120,157,159,-6.283186115625D-2,3.204424515810D0;                     161P    236
508,4,0,139,39,1,0,0,139,44,1,0,0,139,40,0,0,0,139,43,0,0;           163P    237
510,161,1,0,163;                                                     165P    238
110,0D0,0D0,0D0,0D0,1D0,0D0;                                         167P    239
110,0D0,-5.485201133978D1,-1D1,0D0,-1.479997776513D-1,-1D1;          169P    240
120,167,169,-6.283185307180D-2,3.204424506662D0;                     171P    241
508,4,0,139,40,1,0,0,139,41,0,0,0,139,31,1,0,0,139,42,1,0;           173P    242
510,171,1,0,173;                                                     175P    243
110,0D0,0D0,0D0,0D0,1D0,0D0;                                         177P    244
110,0D0,-5.485201133978D1,-1D1,0D0,-1.479997776513D-1,-1D1;          179P    245
120,177,179,3.078760800518D0,6.346017160251D0;                       181P    246
508,4,0,139,38,1,0,0,139,42,0,0,0,139,33,1,0,0,139,41,1,0;           183P    247
510,181,1,0,183;                                                     185P    248
110,0D0,-1.2D0,0D0,0D0,-2D-1,0D0;                                    187P    249
124,-1.130761369719D-3,1.346035592620D-2,-9.999087659367D-1,         189P    250
-1.512870043335D-1,9.964899962005D-1,8.371193148183D-2,0D0,          189P    251
-1.2D0,8.370429410217D-2,-9.963990823691D-1,-1.350776824406D-2,      189P    252
1.119897817849D1;                                                    189P    253
100,0D0,0D0,0D0,1.2D0,0D0,-2.002026223020D-1,1.183181689354D0;       191P    254
120,187,191,-4.932367402633D-2,3.217932685713D0;                     193P    255
508,4,0,139,33,0,0,0,139,35,1,0,0,139,34,1,0,0,139,36,0,0;           195P    256
510,193,1,0,195;                                                     197P    257
110,0D0,-1.2D0,0D0,0D0,-2D-1,0D0;                                    199P    258
124,1.130761369719D-3,-1.346035592620D-2,9.999087659367D-1,          201P    259
1.512870043335D-1,9.964899962005D-1,8.371193148182D-2,0D0,           201P    260
-1.2D0,-8.370429410217D-2,9.963990823691D-1,1.350776824406D-2,       201P    261
-1.119897817849D1;                                                   201P    262
100,0D0,0D0,0D0,1.2D0,0D0,-2.002026223020D-1,1.183181689354D0;       203P    263
120,199,203,-4.932367402633D-2,3.217932685713D0;                     205P    264
508,4,0,139,31,0,0,0,139,36,1,0,0,139,32,1,0,0,139,35,0,0;           207P    265
510,205,1,0,207;                                                     209P    266
128,1,1,1,1,0,0,1,0,0,-1.801332839872D1,-1.801332839872D1,           211P    267
1.801332839872D1,1.801332839872D1,-1.56D1,-1.56D1,1.56D1,1.56D1,     211P    268
1D0,1D0,1D0,1D0,1.56D1,0D0,1.801332839872D1,1.56D1,0D0,              211P    269
-1.801332839872D1,-1.56D1,0D0,1.801332839872D1,-1.56D1,0D0,          211P    270
-1.801332839872D1,-1.801332839872D1,1.801332839872D1,-1.56D1,        211P    271
1.56D1;                                                              211P    272
508,6,0,139,1,1,0,0,139,2,1,0,0,139,3,1,0,0,139,4,1,0,0,139,5,1,     213P    273
0,0,139,6,1,0;                                                       213P    274
508,2,0,139,32,0,0,0,139,34,0,0;                                     215P    275
510,211,2,0,213,215;                                                 217P    276
128,1,1,1,1,0,0,1,0,0,-3.464101615138D-1,-3.464101615138D-1,         219P    277
1.766691823720D1,1.766691823720D1,-2.600000000010D-1,                219P    278
-2.600000000010D-1,1.326000000005D1,1.326000000005D1,1D0,1D0,        219P    279
1D0,1D0,-1.53D1,-2.600000000010D-1,8.487048957087D0,3D-1,            219P    280
-2.600000000010D-1,1.749371315645D1,-1.53D1,1.326000000005D1,        219P    281
8.487048957087D0,3D-1,1.326000000005D1,1.749371315645D1,             219P    282
-3.464101615138D-1,1.766691823720D1,-2.600000000010D-1,              219P    283
1.326000000005D1;                                                    219P    284
508,5,0,139,13,1,0,0,139,14,1,0,0,139,26,0,0,0,139,1,0,0,0,139,      221P    285
25,1,0;                                                              221P    286
510,219,1,0,221;                                                     223P    287
110,0D0,2.166025403784D1,0D0,0D0,2.266025403784D1,0D0;               225P    288
110,1.740760527232D1,1.160996844792D1,0D0,1.491290280337D1,          227P    289
1.305028558992D1,0D0;                                                227P    290
120,225,227,-3.204424506469D0,6.283185285557D-2;                     229P    291
508,3,0,139,13,0,0,0,139,24,0,0,0,139,10,1,0;                        231P    292
510,229,1,0,231;                                                     233P    293
110,0D0,2.166025403784D1,0D0,0D0,2.266025403784D1,0D0;               235P    294
110,1.740760527232D1,1.160996844792D1,0D0,1.491290280337D1,          237P    295
1.305028558992D1,0D0;                                                237P    296
120,235,237,-3.204424506469D0,6.283185285557D-2;                     239P    297
508,3,0,139,15,0,0,0,139,14,0,0,0,139,11,1,0;                        241P    298
510,239,1,0,241;                                                     243P    299
110,0D0,2.166025403784D1,0D0,0D0,2.266025403784D1,0D0;               245P    300
110,1.740760527232D1,1.160996844792D1,0D0,1.491290280337D1,          247P    301
1.305028558992D1,0D0;                                                247P    302
120,245,247,-3.204424506469D0,6.283185285557D-2;                     249P    303
508,3,0,139,18,0,0,0,139,16,0,0,0,139,12,1,0;                        251P    304
510,249,1,0,251;                                                     253P    305
128,1,1,1,1,0,0,1,0,0,-3.464101615138D-1,-3.464101615138D-1,         255P    306
1.766691823720D1,1.766691823720D1,-2.600000000021D-1,                255P    307
-2.600000000021D-1,1.326000000010D1,1.326000000010D1,1D0,1D0,        255P    308
1D0,1D0,-1.5D1,-2.600000000021D-1,-9.006664199358D0,-1.5D1,          255P    309
-2.600000000021D-1,9.006664199358D0,-1.5D1,1.326000000010D1,         255P    310
-9.006664199358D0,-1.5D1,1.326000000010D1,9.006664199358D0,          255P    311
-3.464101615138D-1,1.766691823720D1,-2.600000000021D-1,              255P    312
1.326000000010D1;                                                    255P    313
508,5,0,139,23,1,0,0,139,24,1,0,0,139,25,0,0,0,139,6,0,0,0,139,      257P    314
30,1,0;                                                              257P    315
510,255,1,0,257;                                                     259P    316
110,0D0,2.166025403784D1,0D0,0D0,2.266025403784D1,0D0;               261P    317
110,1.740760527232D1,1.160996844792D1,0D0,1.491290280337D1,          263P    318
1.305028558992D1,0D0;                                                263P    319
120,261,263,-6.283185287892D-2,3.204424506445D0;                     265P    320
508,3,0,139,19,0,0,0,139,17,0,0,0,139,7,1,0;                         267P    321
510,265,1,0,267;                                                     269P    322
110,0D0,2.166025403784D1,0D0,0D0,2.266025403784D1,0D0;               271P    323
110,1.740760527232D1,1.160996844792D1,0D0,1.491290280337D1,          273P    324
1.305028558992D1,0D0;                                                273P    325
120,271,273,-6.283185287892D-2,3.204424506445D0;                     275P    326
508,3,0,139,21,0,0,0,139,20,0,0,0,139,8,1,0;                         277P    327
510,275,1,0,277;                                                     279P    328
110,0D0,2.166025403784D1,0D0,0D0,2.266025403784D1,0D0;               281P    329
110,1.740760527232D1,1.160996844792D1,0D0,1.491290280337D1,          283P    330
1.305028558992D1,0D0;                                                283P    331
120,281,283,-6.283185287892D-2,3.204424506445D0;                     285P    332
508,3,0,139,23,0,0,0,139,22,0,0,0,139,9,1,0;                         287P    333
510,285,1,0,287;                                                     289P    334
128,1,1,1,1,0,0,1,0,0,-3.464101615138D-1,-3.464101615138D-1,         291P    335
1.766691823720D1,1.766691823720D1,-2.600000000010D-1,                291P    336
-2.600000000010D-1,1.326000000005D1,1.326000000005D1,1D0,1D0,        291P    337
1D0,1D0,1.53D1,-2.600000000010D-1,-8.487048957087D0,-3D-1,           291P    338
-2.600000000010D-1,-1.749371315645D1,1.53D1,1.326000000005D1,        291P    339
-8.487048957087D0,-3D-1,1.326000000005D1,-1.749371315645D1,          291P    340
-3.464101615138D-1,1.766691823720D1,-2.600000000010D-1,              291P    341
1.326000000005D1;                                                    291P    342
508,5,0,139,19,1,0,0,139,20,1,0,0,139,29,0,0,0,139,4,0,0,0,139,      293P    343
28,1,0;                                                              293P    344
510,291,1,0,293;                                                     295P    345
128,1,1,1,1,0,0,1,0,0,-3.464101615138D-1,-3.464101615138D-1,         297P    346
1.766691823720D1,1.766691823720D1,-2.600000000010D-1,                297P    347
-2.600000000010D-1,1.326000000005D1,1.326000000005D1,1D0,1D0,        297P    348
1D0,1D0,3D-1,-2.600000000010D-1,-1.749371315645D1,-1.53D1,           297P    349
-2.600000000010D-1,-8.487048957088D0,3D-1,1.326000000005D1,          297P    350
-1.749371315645D1,-1.53D1,1.326000000005D1,-8.487048957088D0,        297P    351
-3.464101615138D-1,1.766691823720D1,-2.600000000010D-1,              297P    352
1.326000000005D1;                                                    297P    353
508,5,0,139,21,1,0,0,139,22,1,0,0,139,30,0,0,0,139,5,0,0,0,139,      299P    354
29,1,0;                                                              299P    355
510,297,1,0,299;                                                     301P    356
128,1,1,1,1,0,0,1,0,0,-3.464101615138D-1,-3.464101615138D-1,         303P    357
1.766691823720D1,1.766691823720D1,-2.600000000021D-1,                303P    358
-2.600000000021D-1,1.326000000010D1,1.326000000010D1,1D0,1D0,        303P    359
1D0,1D0,1.5D1,-2.600000000021D-1,9.006664199358D0,1.5D1,             303P    360
-2.600000000021D-1,-9.006664199358D0,1.5D1,1.326000000010D1,         303P    361
9.006664199358D0,1.5D1,1.326000000010D1,-9.006664199358D0,           303P    362
-3.464101615138D-1,1.766691823720D1,-2.600000000021D-1,              303P    363
1.326000000010D1;                                                    303P    364
508,5,0,139,17,1,0,0,139,28,0,0,0,139,3,0,0,0,139,27,1,0,0,139,      305P    365
18,1,0;                                                              305P    366
510,303,1,0,305;                                                     307P    367
128,1,1,1,1,0,0,1,0,0,-3.464101615138D-1,-3.464101615138D-1,         309P    368
1.766691823720D1,1.766691823720D1,-2.600000000010D-1,                309P    369
-2.600000000010D-1,1.326000000005D1,1.326000000005D1,1D0,1D0,        309P    370
1D0,1D0,-3D-1,-2.600000000010D-1,1.749371315645D1,1.53D1,            309P    371
-2.600000000010D-1,8.487048957088D0,-3D-1,1.326000000005D1,          309P    372
1.749371315645D1,1.53D1,1.326000000005D1,8.487048957088D0,           309P    373
-3.464101615138D-1,1.766691823720D1,-2.600000000010D-1,              309P    374
1.326000000005D1;                                                    309P    375
508,5,0,139,15,1,0,0,139,16,1,0,0,139,27,0,0,0,139,2,0,0,0,139,      311P    376
26,1,0;                                                              311P    377
510,309,1,0,311;                                                     313P    378
128,1,1,1,1,0,0,1,0,0,-1.561284855842D1,-1.561284855842D1,           315P    379
1.561284855842D1,1.561284855842D1,-1.560000000002D1,                 315P    380
-1.560000000002D1,1.560000000002D1,1.560000000002D1,1D0,1D0,1D0,     315P    381
1D0,1.560000000002D1,1.3D1,1.561284855842D1,1.560000000002D1,        315P    382
1.3D1,-1.561284855842D1,-1.560000000002D1,1.3D1,                     315P    383
1.561284855842D1,-1.560000000002D1,1.3D1,-1.561284855842D1,          315P    384
-1.561284855842D1,1.561284855842D1,-1.560000000002D1,                315P    385
1.560000000002D1;                                                    315P    386
508,6,0,139,7,0,0,0,139,12,0,0,0,139,11,0,0,0,139,10,0,0,0,139,      317P    387
9,0,0,0,139,8,0,0;                                                   317P    388
510,315,1,0,317;                                                     319P    389
514,21,145,0,155,1,165,1,175,1,185,1,197,0,209,0,217,0,223,1,        321P    390
233,1,243,1,253,1,259,1,269,1,279,1,289,1,295,1,301,1,307,1,313,     321P    391
1,319,1;                                                             321P    392
124,-1D0,0D0,0D0,0D0,0D0,0D0,-1D0,-5.5D1,0D0,-1D0,0D0,0D0;           323P    393
100,0D0,0D0,0D0,8.647D0,0D0,-8.647D0,0D0;                            325P    394
110,8.647D0,-5.5D1,0D0,8.647D0,-9D0,0D0;                             327P    395
124,1D0,0D0,0D0,0D0,0D0,0D0,-1D0,-5.5D1,0D0,1D0,0D0,0D0;             329P    396
100,0D0,0D0,0D0,8.647D0,0D0,-8.647D0,0D0;                            331P    397
110,-8.647D0,-5.5D1,0D0,-8.647D0,-9D0,0D0;                           333P    398
124,-1D0,0D0,0D0,0D0,0D0,0D0,1D0,-9D0,0D0,1D0,0D0,0D0;               335P    399
100,0D0,0D0,0D0,8.647D0,0D0,-8.647D0,0D0;                            337P    400
124,1D0,0D0,0D0,0D0,0D0,0D0,1D0,-9D0,0D0,-1D0,0D0,0D0;               339P    401
100,0D0,0D0,0D0,8.647D0,0D0,-8.647D0,0D0;                            341P    402
124,-1D0,0D0,0D0,0D0,0D0,0D0,1D0,-9D0,0D0,1D0,0D0,0D0;               343P    403
100,0D0,0D0,0D0,1D1,0D0,-1D1,0D0;                                    345P    404
124,1D0,0D0,0D0,0D0,0D0,0D0,1D0,-9D0,0D0,-1D0,0D0,0D0;               347P    405
100,0D0,0D0,0D0,1D1,0D0,-1D1,0D0;                                    349P    406
502,6,-8.647D0,-5.5D1,0D0,8.647D0,-5.5D1,0D0,-8.647D0,-9D0,0D0,      351P    407
8.647D0,-9D0,0D0,1D1,-9D0,0D0,-1D1,-9D0,0D0;                         351P    408
504,8,331,351,1,351,2,325,351,2,351,1,337,351,3,351,4,341,351,4,     353P    409
351,3,333,351,1,351,3,327,351,2,351,4,345,351,5,351,6,349,351,6,     353P    410
351,5;                                                               353P    411
110,0D0,-5.5D1,0D0,0D0,-5.4D1,0D0;                                   355P    412
110,-8.647D0,-5.592D1,0D0,-8.647D0,-8.08D0,0D0;                      357P    413
120,355,357,3.078760800518D0,6.346017160251D0;                       359P    414
508,4,0,353,2,0,0,0,353,6,1,0,0,353,4,1,0,0,353,5,0,0;               361P    415
510,359,1,0,361;                                                     363P    416
110,0D0,-5.5D1,0D0,0D0,-5.4D1,0D0;                                   365P    417
110,-8.647D0,-5.592D1,0D0,-8.647D0,-8.08D0,0D0;                      367P    418
120,365,367,-6.283185307180D-2,3.204424506662D0;                     369P    419
508,4,0,353,1,0,0,0,353,5,1,0,0,353,3,1,0,0,353,6,0,0;               371P    420
510,369,1,0,371;                                                     373P    421
128,1,1,1,1,0,0,1,0,0,-1.041294085444D1,-1.041294085444D1,           375P    422
1.041294085444D1,1.041294085444D1,-1.04D1,-1.04D1,1.04D1,1.04D1,     375P    423
1D0,1D0,1D0,1D0,1.04D1,-9D0,-1.041294085444D1,1.04D1,-9D0,           375P    424
1.041294085444D1,-1.04D1,-9D0,-1.041294085444D1,-1.04D1,-9D0,        375P    425
1.041294085444D1,-1.041294085444D1,1.041294085444D1,-1.04D1,         375P    426
1.04D1;                                                              375P    427
508,2,0,353,7,0,0,0,353,8,0,0;                                       377P    428
508,2,0,353,3,0,0,0,353,4,0,0;                                       379P    429
510,375,2,0,377,379;                                                 381P    430
514,3,363,1,373,1,381,1;                                             383P    431
186,321,1,0;                                                         385P    432
S      1G      5D    386P    432                                        T      1
