 PTC IGES file: sroub-m12x35-csn_02_1101.igs                            S      1
1H,,1H;,24HSROUB-M12X35-CSN_02_1101,28Hsroub-m12x35-csn_02_1101.igs,    G      1
49HPro/ENGINEER by Parametric Technology Corporation,7H2007160,32,38,7, G      2
38,15,24HSROUB-M12X35-CSN_02_1101,1.,2,2HMM,32768,0.5,                  G      3
15H20110917.003030,0.00520844,52.0865,13HVladimir Zima,7HUnknown,10,0,  G      4
15H20110917.003030;                                                     G      5
     314       1       1       1       0       0       0       001000200D      1
     314       0       4       1       0                   COLOR       1D      2
     314       2       1       1       0       0       0       001000200D      3
     314       0       1       1       0                   COLOR       2D      4
     314       3       1       1       0       0       0       001000200D      5
     314       0       1       1       0                   COLOR       3D      6
     314       4       1       1       0       0       0       001000200D      7
     314       0       1       1       0                   COLOR       4D      8
     314       5       1       1       0       0       0       001000200D      9
     314       0       8       1       0                   COLOR       5D     10
     314       6       1       1       0       0       0       001000200D     11
     314       0       8       1       0                   COLOR       6D     12
     314       7       1       1       0       0       0       001000200D     13
     314       0       5       1       0                   COLOR       7D     14
     314       8       1       1       0       0       0       001000200D     15
     314       0       8       1       0                   COLOR       8D     16
     124       9       1       1       0       0       0       001000000D     17
     124       0       0       2       0                   XFORM       1D     18
     100      11       1       1       0       0      17       001010000D     19
     100       0       0       1       0                     ARC       1D     20
     124      12       1       1       0       0       0       001000000D     21
     124       0       0       2       0                   XFORM       2D     22
     100      14       1       1       0       0      21       001010000D     23
     100       0       0       1       0                     ARC       2D     24
     110      15       1       1       0       0       0       001010000D     25
     110       0       0       2       0                    LINE       1D     26
     110      17       1       1       0       0       0       001010000D     27
     110       0       0       2       0                    LINE       2D     28
     124      19       1       1       0       0       0       001000000D     29
     124       0       0       2       0                   XFORM       3D     30
     100      21       1       1       0       0      29       001010000D     31
     100       0       0       1       0                     ARC       3D     32
     110      22       1       1       0       0       0       001010000D     33
     110       0       0       2       0                    LINE       3D     34
     124      24       1       1       0       0       0       001000000D     35
     124       0       0       1       0                   XFORM       4D     36
     100      25       1       1       0       0      35       001010000D     37
     100       0       0       1       0                     ARC       4D     38
     124      26       1       1       0       0       0       001000000D     39
     124       0       0       2       0                   XFORM       5D     40
     100      28       1       1       0       0      39       001010000D     41
     100       0       0       1       0                     ARC       5D     42
     110      29       1       1       0       0       0       001010000D     43
     110       0       0       2       0                    LINE       4D     44
     124      31       1       1       0       0       0       001000000D     45
     124       0       0       1       0                   XFORM       6D     46
     100      32       1       1       0       0      45       001010000D     47
     100       0       0       1       0                     ARC       6D     48
     124      33       1       1       0       0       0       001000000D     49
     124       0       0       2       0                   XFORM       7D     50
     100      35       1       1       0       0      49       001010000D     51
     100       0       0       1       0                     ARC       7D     52
     124      36       1       1       0       0       0       001000000D     53
     124       0       0       2       0                   XFORM       8D     54
     100      38       1       1       0       0      53       001010000D     55
     100       0       0       1       0                     ARC       8D     56
     110      39       1       1       0       0       0       001010000D     57
     110       0       0       1       0                    LINE       5D     58
     110      40       1       1       0       0       0       001010000D     59
     110       0       0       1       0                    LINE       6D     60
     110      41       1       1       0       0       0       001010000D     61
     110       0       0       1       0                    LINE       7D     62
     110      42       1       1       0       0       0       001010000D     63
     110       0       0       1       0                    LINE       8D     64
     110      43       1       1       0       0       0       001010000D     65
     110       0       0       1       0                    LINE       9D     66
     110      44       1       1       0       0       0       001010000D     67
     110       0       0       1       0                    LINE      10D     68
     124      45       1       1       0       0       0       001000000D     69
     124       0       0       1       0                   XFORM       9D     70
     100      46       1       1       0       0      69       001010000D     71
     100       0       0       1       0                     ARC       9D     72
     124      47       1       1       0       0       0       001000000D     73
     124       0       0       1       0                   XFORM      10D     74
     100      48       1       1       0       0      73       001010000D     75
     100       0       0       1       0                     ARC      10D     76
     126      49       1       1       0       0       0       001010000D     77
     126       0       0      10       0                B_SPLINE       1D     78
     126      59       1       1       0       0       0       001010000D     79
     126       0       0      10       0                B_SPLINE       2D     80
     110      69       1       1       0       0       0       001010000D     81
     110       0       0       2       0                    LINE      11D     82
     126      71       1       1       0       0       0       001010000D     83
     126       0       0       9       0                B_SPLINE       3D     84
     126      80       1       1       0       0       0       001010000D     85
     126       0       0       9       0                B_SPLINE       4D     86
     110      89       1       1       0       0       0       001010000D     87
     110       0       0       2       0                    LINE      12D     88
     126      91       1       1       0       0       0       001010000D     89
     126       0       0      10       0                B_SPLINE       5D     90
     126     101       1       1       0       0       0       001010000D     91
     126       0       0      10       0                B_SPLINE       6D     92
     110     111       1       1       0       0       0       001010000D     93
     110       0       0       2       0                    LINE      13D     94
     126     113       1       1       0       0       0       001010000D     95
     126       0       0      10       0                B_SPLINE       7D     96
     126     123       1       1       0       0       0       001010000D     97
     126       0       0      10       0                B_SPLINE       8D     98
     110     133       1       1       0       0       0       001010000D     99
     110       0       0       2       0                    LINE      14D    100
     126     135       1       1       0       0       0       001010000D    101
     126       0       0       9       0                B_SPLINE       9D    102
     110     144       1       1       0       0       0       001010000D    103
     110       0       0       2       0                    LINE      15D    104
     126     146       1       1       0       0       0       001010000D    105
     126       0       0       9       0                B_SPLINE      10D    106
     126     155       1       1       0       0       0       001010000D    107
     126       0       0      10       0                B_SPLINE      11D    108
     126     165       1       1       0       0       0       001010000D    109
     126       0       0      10       0                B_SPLINE      12D    110
     110     175       1       1       0       0       0       001010000D    111
     110       0       0       2       0                    LINE      16D    112
     124     177       1       1       0       0       0       001000000D    113
     124       0       0       1       0                   XFORM      11D    114
     100     178       1       1       0       0     113       001010000D    115
     100       0       0       1       0                     ARC      11D    116
     124     179       1       1       0       0       0       001000000D    117
     124       0       0       2       0                   XFORM      12D    118
     100     181       1       1       0       0     117       001010000D    119
     100       0       0       1       0                     ARC      12D    120
     124     182       1       1       0       0       0       001000000D    121
     124       0       0       2       0                   XFORM      13D    122
     100     184       1       1       0       0     121       001010000D    123
     100       0       0       1       0                     ARC      13D    124
     124     185       1       1       0       0       0       001000000D    125
     124       0       0       2       0                   XFORM      14D    126
     100     187       1       1       0       0     125       001010000D    127
     100       0       0       1       0                     ARC      14D    128
     124     188       1       1       0       0       0       001000000D    129
     124       0       0       2       0                   XFORM      15D    130
     100     190       1       1       0       0     129       001010000D    131
     100       0       0       1       0                     ARC      15D    132
     124     191       1       1       0       0       0       001000000D    133
     124       0       0       2       0                   XFORM      16D    134
     100     193       1       1       0       0     133       001010000D    135
     100       0       0       1       0                     ARC      16D    136
     502     194       1       1       0       0       0       001010000D    137
     502       0       0      15       1                  VERTEX       1D    138
     504     209       1       1       0       0       0       000010001D    139
     504       0       0      12       1                    EDGE       1D    140
     128     221       1       1       0       0       0       001010000D    141
     128       0       0       6       0                  SPLSRF       1D    142
     508     227       1       1       0       0       0       001010000D    143
     508       0       0       1       1                EDGELOOP       1D    144
     510     228       1       1       0       0       0       000010000D    145
     510       0       0       1       1                    FACE       1D    146
     110     229       1       1       0       0       0       001010000D    147
     110       0       0       1       0                    LINE      17D    148
     110     230       1       1       0       0       0       001010000D    149
     110       0       0       2       0                    LINE      18D    150
     120     232       1       1       0       0       0       001010000D    151
     120       0       0       1       0                    SREV       1D    152
     508     233       1       1       0       0       0       001010000D    153
     508       0       0       1       1                EDGELOOP       2D    154
     510     234       1       1       0       0       0       000010000D    155
     510       0       0       1       1                    FACE       2D    156
     110     235       1       1       0       0       0       001010000D    157
     110       0       0       1       0                    LINE      19D    158
     110     236       1       1       0       0       0       001010000D    159
     110       0       0       2       0                    LINE      20D    160
     120     238       1       1       0       0       0       001010000D    161
     120       0       0       1       0                    SREV       2D    162
     508     239       1       1       0       0       0       001010000D    163
     508       0       0       1       1                EDGELOOP       3D    164
     510     240       1       1       0       0       0       000010000D    165
     510       0       0       1       1                    FACE       3D    166
     110     241       1       1       0       0       0       001010000D    167
     110       0       0       1       0                    LINE      21D    168
     110     242       1       1       0       0       0       001010000D    169
     110       0       0       1       0                    LINE      22D    170
     120     243       1       1       0       0       0       001010000D    171
     120       0       0       1       0                    SREV       3D    172
     508     244       1       1       0       0       0       001010000D    173
     508       0       0       1       1                EDGELOOP       4D    174
     510     245       1       1       0       0       0       000010000D    175
     510       0       0       1       1                    FACE       4D    176
     110     246       1       1       0       0       0       001010000D    177
     110       0       0       1       0                    LINE      23D    178
     110     247       1       1       0       0       0       001010000D    179
     110       0       0       1       0                    LINE      24D    180
     120     248       1       1       0       0       0       001010000D    181
     120       0       0       1       0                    SREV       4D    182
     508     249       1       1       0       0       0       001010000D    183
     508       0       0       1       1                EDGELOOP       5D    184
     510     250       1       1       0       0       0       000010000D    185
     510       0       0       1       1                    FACE       5D    186
     110     251       1       1       0       0       0       001010000D    187
     110       0       0       1       0                    LINE      25D    188
     124     252       1       1       0       0       0       001000000D    189
     124       0       0       4       0                   XFORM      17D    190
     100     256       1       1       0       0     189       001010000D    191
     100       0       0       1       0                     ARC      17D    192
     120     257       1       1       0       0       0       001010000D    193
     120       0       0       1       0                    SREV       5D    194
     508     258       1       1       0       0       0       001010000D    195
     508       0       0       1       1                EDGELOOP       6D    196
     510     259       1       1       0       0       0       000010000D    197
     510       0       0       1       1                    FACE       6D    198
     110     260       1       1       0       0       0       001010000D    199
     110       0       0       1       0                    LINE      26D    200
     124     261       1       1       0       0       0       001000000D    201
     124       0       0       4       0                   XFORM      18D    202
     100     265       1       1       0       0     201       001010000D    203
     100       0       0       1       0                     ARC      18D    204
     120     266       1       1       0       0       0       001010000D    205
     120       0       0       1       0                    SREV       6D    206
     508     267       1       1       0       0       0       001010000D    207
     508       0       0       1       1                EDGELOOP       7D    208
     510     268       1       1       0       0       0       000010000D    209
     510       0       0       1       1                    FACE       7D    210
     128     269       1       1       0       0       0       001010000D    211
     128       0       0       6       0                  SPLSRF       2D    212
     508     275       1       1       0       0       0       001010000D    213
     508       0       0       2       1                EDGELOOP       8D    214
     508     277       1       1       0       0       0       001010000D    215
     508       0       0       1       1                EDGELOOP       9D    216
     510     278       1       1       0       0       0       000010000D    217
     510       0       0       1       1                    FACE       8D    218
     128     279       1       1       0       0       0       001010000D    219
     128       0       0       8       0                  SPLSRF       3D    220
     508     287       1       1       0       0       0       001010000D    221
     508       0       0       2       1                EDGELOOP      10D    222
     510     289       1       1       0       0       0       000010000D    223
     510       0       0       1       1                    FACE       9D    224
     110     290       1       1       0       0       0       001010000D    225
     110       0       0       1       0                    LINE      27D    226
     110     291       1       1       0       0       0       001010000D    227
     110       0       0       2       0                    LINE      28D    228
     120     293       1       1       0       0       0       001010000D    229
     120       0       0       1       0                    SREV       7D    230
     508     294       1       1       0       0       0       001010000D    231
     508       0       0       1       1                EDGELOOP      11D    232
     510     295       1       1       0       0       0       000010000D    233
     510       0       0       1       1                    FACE      10D    234
     110     296       1       1       0       0       0       001010000D    235
     110       0       0       1       0                    LINE      29D    236
     110     297       1       1       0       0       0       001010000D    237
     110       0       0       2       0                    LINE      30D    238
     120     299       1       1       0       0       0       001010000D    239
     120       0       0       1       0                    SREV       8D    240
     508     300       1       1       0       0       0       001010000D    241
     508       0       0       1       1                EDGELOOP      12D    242
     510     301       1       1       0       0       0       000010000D    243
     510       0       0       1       1                    FACE      11D    244
     110     302       1       1       0       0       0       001010000D    245
     110       0       0       1       0                    LINE      31D    246
     110     303       1       1       0       0       0       001010000D    247
     110       0       0       2       0                    LINE      32D    248
     120     305       1       1       0       0       0       001010000D    249
     120       0       0       1       0                    SREV       9D    250
     508     306       1       1       0       0       0       001010000D    251
     508       0       0       1       1                EDGELOOP      13D    252
     510     307       1       1       0       0       0       000010000D    253
     510       0       0       1       1                    FACE      12D    254
     128     308       1       1       0       0       0       001010000D    255
     128       0       0       8       0                  SPLSRF       4D    256
     508     316       1       1       0       0       0       001010000D    257
     508       0       0       2       1                EDGELOOP      14D    258
     510     318       1       1       0       0       0       000010000D    259
     510       0       0       1       1                    FACE      13D    260
     110     319       1       1       0       0       0       001010000D    261
     110       0       0       1       0                    LINE      33D    262
     110     320       1       1       0       0       0       001010000D    263
     110       0       0       2       0                    LINE      34D    264
     120     322       1       1       0       0       0       001010000D    265
     120       0       0       1       0                    SREV      10D    266
     508     323       1       1       0       0       0       001010000D    267
     508       0       0       1       1                EDGELOOP      15D    268
     510     324       1       1       0       0       0       000010000D    269
     510       0       0       1       1                    FACE      14D    270
     110     325       1       1       0       0       0       001010000D    271
     110       0       0       1       0                    LINE      35D    272
     110     326       1       1       0       0       0       001010000D    273
     110       0       0       2       0                    LINE      36D    274
     120     328       1       1       0       0       0       001010000D    275
     120       0       0       1       0                    SREV      11D    276
     508     329       1       1       0       0       0       001010000D    277
     508       0       0       1       1                EDGELOOP      16D    278
     510     330       1       1       0       0       0       000010000D    279
     510       0       0       1       1                    FACE      15D    280
     110     331       1       1       0       0       0       001010000D    281
     110       0       0       1       0                    LINE      37D    282
     110     332       1       1       0       0       0       001010000D    283
     110       0       0       2       0                    LINE      38D    284
     120     334       1       1       0       0       0       001010000D    285
     120       0       0       1       0                    SREV      12D    286
     508     335       1       1       0       0       0       001010000D    287
     508       0       0       1       1                EDGELOOP      17D    288
     510     336       1       1       0       0       0       000010000D    289
     510       0       0       1       1                    FACE      16D    290
     128     337       1       1       0       0       0       001010000D    291
     128       0       0       8       0                  SPLSRF       5D    292
     508     345       1       1       0       0       0       001010000D    293
     508       0       0       2       1                EDGELOOP      18D    294
     510     347       1       1       0       0       0       000010000D    295
     510       0       0       1       1                    FACE      17D    296
     128     348       1       1       0       0       0       001010000D    297
     128       0       0       8       0                  SPLSRF       6D    298
     508     356       1       1       0       0       0       001010000D    299
     508       0       0       2       1                EDGELOOP      19D    300
     510     358       1       1       0       0       0       000010000D    301
     510       0       0       1       1                    FACE      18D    302
     128     359       1       1       0       0       0       001010000D    303
     128       0       0       8       0                  SPLSRF       7D    304
     508     367       1       1       0       0       0       001010000D    305
     508       0       0       2       1                EDGELOOP      20D    306
     510     369       1       1       0       0       0       000010000D    307
     510       0       0       1       1                    FACE      19D    308
     128     370       1       1       0       0       0       001010000D    309
     128       0       0       8       0                  SPLSRF       8D    310
     508     378       1       1       0       0       0       001010000D    311
     508       0       0       2       1                EDGELOOP      21D    312
     510     380       1       1       0       0       0       000010000D    313
     510       0       0       1       1                    FACE      20D    314
     128     381       1       1       0       0       0       001010000D    315
     128       0       0       7       0                  SPLSRF       9D    316
     508     388       1       1       0       0       0       001010000D    317
     508       0       0       2       1                EDGELOOP      22D    318
     510     390       1       1       0       0       0       000010000D    319
     510       0       0       1       1                    FACE      21D    320
     514     391       1       1       0       0       0       000010000D    321
     514       0       0       3       1                   SHELL       1D    322
     124     394       1       1       0       0       0       001000000D    323
     124       0       0       1       0                   XFORM      19D    324
     100     395       1       1       0       0     323       001010000D    325
     100       0       0       1       0                     ARC      19D    326
     110     396       1       1       0       0       0       001010000D    327
     110       0       0       1       0                    LINE      39D    328
     124     397       1       1       0       0       0       001000000D    329
     124       0       0       1       0                   XFORM      20D    330
     100     398       1       1       0       0     329       001010000D    331
     100       0       0       1       0                     ARC      20D    332
     110     399       1       1       0       0       0       001010000D    333
     110       0       0       1       0                    LINE      40D    334
     124     400       1       1       0       0       0       001000000D    335
     124       0       0       1       0                   XFORM      21D    336
     100     401       1       1       0       0     335       001010000D    337
     100       0       0       1       0                     ARC      21D    338
     124     402       1       1       0       0       0       001000000D    339
     124       0       0       1       0                   XFORM      22D    340
     100     403       1       1       0       0     339       001010000D    341
     100       0       0       1       0                     ARC      22D    342
     124     404       1       1       0       0       0       001000000D    343
     124       0       0       1       0                   XFORM      23D    344
     100     405       1       1       0       0     343       001010000D    345
     100       0       0       1       0                     ARC      23D    346
     124     406       1       1       0       0       0       001000000D    347
     124       0       0       1       0                   XFORM      24D    348
     100     407       1       1       0       0     347       001010000D    349
     100       0       0       1       0                     ARC      24D    350
     502     408       1       1       0       0       0       001010000D    351
     502       0       0       2       1                  VERTEX       2D    352
     504     410       1       1       0       0       0       000010001D    353
     504       0       0       3       1                    EDGE       2D    354
     110     413       1       1       0       0       0       001010000D    355
     110       0       0       1       0                    LINE      41D    356
     110     414       1       1       0       0       0       001010000D    357
     110       0       0       1       0                    LINE      42D    358
     120     415       1       1       0       0       0       001010000D    359
     120       0       0       1       0                    SREV      13D    360
     508     416       1       1       0       0       0       001010000D    361
     508       0       0       1       1                EDGELOOP      23D    362
     510     417       1       1       0       0       0       000010000D    363
     510       0       0       1       1                    FACE      22D    364
     110     418       1       1       0       0       0       001010000D    365
     110       0       0       1       0                    LINE      43D    366
     110     419       1       1       0       0       0       001010000D    367
     110       0       0       1       0                    LINE      44D    368
     120     420       1       1       0       0       0       001010000D    369
     120       0       0       1       0                    SREV      14D    370
     508     421       1       1       0       0       0       001010000D    371
     508       0       0       1       1                EDGELOOP      24D    372
     510     422       1       1       0       0       0       000010000D    373
     510       0       0       1       1                    FACE      23D    374
     128     423       1       1       0       0       0       001010000D    375
     128       0       0       6       0                  SPLSRF      10D    376
     508     429       1       1       0       0       0       001010000D    377
     508       0       0       1       1                EDGELOOP      25D    378
     508     430       1       1       0       0       0       001010000D    379
     508       0       0       1       1                EDGELOOP      26D    380
     510     431       1       1       0       0       0       000010000D    381
     510       0       0       1       1                    FACE      24D    382
     514     432       1       1       0       0       0       000000000D    383
     514       0       0       1       1                   SHELL       2D    384
     186     433       1       1       0       0       0       000000000D    385
     186       0       0       1       0                    MSBR       1D    386
314,1.1D0,1.2D0,1D2;                                                   1P      1
314,1.1D1,1.1D1,1.1D1;                                                 3P      2
314,3.92D1,1.2D0,1.2D0;                                                5P      3
314,4.1D1,0D0,2.2D1;                                                   7P      4
314,8.784D1,9.49D1,1D2;                                                9P      5
314,9.6D1,9.6D1,9.6D1;                                                11P      6
314,9.8D1,6.27D1,0D0;                                                 13P      7
314,1D2,1D2,9.49D1;                                                   15P      8
124,0D0,1D0,0D0,0D0,0D0,0D0,-1D0,-3.499999548551D1,-1D0,0D0,0D0,      17P      9
-1.998401444325D-14;                                                  17P     10
100,0D0,0D0,0D0,4.999993227886D0,0D0,-4.999993227886D0,0D0;           19P     11
124,0D0,-1D0,0D0,0D0,0D0,0D0,-1D0,-3.499999548551D1,1D0,0D0,0D0,      21P     12
1.776356839400D-14;                                                   21P     13
100,0D0,0D0,0D0,4.999993227886D0,0D0,-4.999993227886D0,0D0;           23P     14
110,-1.122160168520D-9,-3.499999623802D1,-4.999996237580D0,           25P     15
-1.009942839479D-9,-3.399999661422D1,-5.999996613822D0;               25P     16
110,1.122157857409D-9,-3.499999623802D1,4.999996237580D0,             27P     17
1.009944563612D-9,-3.399999661422D1,5.999996613822D0;                 27P     18
124,0D0,-1D0,0D0,0D0,0D0,0D0,-1D0,-3.399999725317D1,1D0,0D0,0D0,      29P     19
0D0;                                                                  29P     20
100,0D0,0D0,0D0,6D0,0D0,-6D0,0D0;                                     31P     21
110,1.127503770687D-12,-1D0,-6D0,-1.009942839479D-9,                  33P     22
-3.399999661422D1,-5.999996613822D0;                                  33P     23
124,0D0,-1D0,0D0,0D0,0D0,0D0,1D0,-1D0,-1D0,0D0,0D0,0D0;               35P     24
100,0D0,0D0,0D0,6D0,0D0,-6D0,0D0;                                     37P     25
124,0D0,1D0,0D0,0D0,0D0,0D0,-1D0,-3.399999725317D1,-1D0,0D0,0D0,      39P     26
0D0;                                                                  39P     27
100,0D0,0D0,0D0,6D0,0D0,-6D0,0D0;                                     41P     28
110,-1.127559471573D-12,-1D0,6D0,1.009944563612D-9,                   43P     29
-3.399999661422D1,5.999996613822D0;                                   43P     30
124,0D0,1D0,0D0,0D0,0D0,0D0,1D0,-1D0,1D0,0D0,0D0,0D0;                 45P     31
100,0D0,0D0,0D0,6D0,0D0,-6D0,0D0;                                     47P     32
124,4.869672373675D-12,0D0,1D0,-3.408771875879D-11,0D0,1D0,0D0,       49P     33
-1D0,-1D0,0D0,4.869672373675D-12,7D0;                                 49P     34
100,0D0,0D0,0D0,1D0,0D0,5.143165353241D-13,1D0;                       51P     35
124,-4.869538799968D-12,0D0,-1D0,3.408677506922D-11,0D0,1D0,0D0,      53P     36
-1D0,1D0,0D0,-4.869538799968D-12,-7D0;                                53P     37
100,0D0,0D0,0D0,1D0,0D0,5.152047137438D-13,1D0;                       55P     38
110,-9D0,0D0,5.196152422707D0,0D0,0D0,1.039230484541D1;               57P     39
110,0D0,0D0,1.039230484541D1,9D0,0D0,5.196152422707D0;                59P     40
110,9D0,0D0,5.196152422707D0,9D0,0D0,-5.196152422707D0;               61P     41
110,9D0,0D0,-5.196152422707D0,0D0,0D0,-1.039230484541D1;              63P     42
110,0D0,0D0,-1.039230484541D1,-9D0,0D0,-5.196152422707D0;             65P     43
110,-9D0,0D0,-5.196152422707D0,-9D0,0D0,5.196152422707D0;             67P     44
124,0D0,-1D0,0D0,0D0,0D0,0D0,1D0,0D0,-1D0,0D0,0D0,0D0;                69P     45
100,0D0,0D0,0D0,6.999999953801D0,0D0,-6.999999953801D0,0D0;           71P     46
124,0D0,1D0,0D0,0D0,0D0,0D0,1D0,0D0,1D0,0D0,0D0,0D0;                  73P     47
100,0D0,0D0,0D0,6.999999953801D0,0D0,-6.999999953801D0,0D0;           75P     48
126,7,3,0,0,1,0,0D0,0D0,0D0,0D0,2D-1,4D-1,6D-1,8D-1,1D0,1D0,1D0,      77P     49
1D0,1D0,1D0,1D0,1D0,1D0,1D0,1D0,1D0,-9D0,7.196152422707D0,            77P     50
5.196152422707D0,-8.679504585948D0,7.302984227391D0,                  77P     51
5.381190536283D0,-8.050092845335D0,7.495460740532D0,                  77P     52
5.744581574158D0,-7.151999296608D0,7.717012519352D0,                  77P     53
6.263096126272D0,-6.265211879124D0,7.878777942408D0,                  77P     54
6.775083080471D0,-5.382413923094D0,7.977726988902D0,                  77P     55
7.284766718024D0,-4.793979441299D0,7.999999999972D0,                  77P     56
7.624499524492D0,-4.500000000374D0,8.000000000002D0,                  77P     57
7.794228633846D0,0D0,1D0,0D0,0D0,1D0;                                 77P     58
126,7,3,0,0,1,0,0D0,0D0,0D0,0D0,2D-1,4D-1,6D-1,8D-1,1D0,1D0,1D0,      79P     59
1D0,1D0,1D0,1D0,1D0,1D0,1D0,1D0,1D0,-4.500000000374D0,                79P     60
8.000000000002D0,7.794228633846D0,-4.205920480440D0,                  79P     61
8.000000000002D0,7.964015523843D0,-3.617312424326D0,                  79P     62
7.977709920272D0,8.303848543485D0,-2.734395322997D0,                  79P     63
7.878725116195D0,8.813600969611D0,-1.847445542446D0,                  79P     64
7.716887314758D0,9.325681664169D0,-9.499157710463D-1,                 79P     65
7.495454616813D0,9.843870719292D0,-3.205107393735D-1,                 79P     66
7.302989335831D0,1.020725788376D1,0D0,7.196152422707D0,               79P     67
1.039230484541D1,0D0,1D0,0D0,0D0,1D0;                                 79P     68
110,-9D0,0D0,5.196152422707D0,-9D0,7.196152422707D0,                  81P     69
5.196152422707D0;                                                     81P     70
126,7,3,0,0,1,0,0D0,0D0,0D0,0D0,2D-1,4D-1,6D-1,8D-1,1D0,1D0,1D0,      83P     71
1D0,1D0,1D0,1D0,1D0,1D0,1D0,1D0,1D0,-9D0,7.196152422707D0,            83P     72
-5.196152422707D0,-9D0,7.302018791809D0,-4.829420562511D0,-9D0,       83P     73
7.493382479981D0,-4.107663266964D0,-9D0,7.715350395409D0,             83P     74
-3.071238871916D0,-9.000000000002D0,7.877834783224D0,                 83P     75
-2.045923915734D0,-8.999999999993D0,7.977480887164D0,                 83P     76
-1.023872403797D0,-9.000000000015D0,7.999999999974D0,                 83P     77
-3.413035017099D-1,-9.000000000015D0,8.000000000016D0,                83P     78
-1.267279826126D-10,0D0,1D0,0D0,0D0,1D0;                              83P     79
126,7,3,0,0,1,0,0D0,0D0,0D0,0D0,2D-1,4D-1,6D-1,8D-1,1D0,1D0,1D0,      85P     80
1D0,1D0,1D0,1D0,1D0,1D0,1D0,1D0,1D0,-9.000000000015D0,                85P     81
8.000000000016D0,-1.267279826126D-10,-9.000000000015D0,               85P     82
7.999999999979D0,3.434847481170D-1,-8.999999999993D0,                 85P     83
7.977201645094D0,1.029825052651D0,-9.000000000002D0,                  85P     84
7.876551285425D0,2.056375224289D0,-9D0,7.713102818527D0,              85P     85
3.083186871296D0,-9D0,7.490988656442D0,4.117208474209D0,-9D0,         85P     86
7.300932950557D0,4.833182026944D0,-9D0,7.196152422707D0,              85P     87
5.196152422707D0,0D0,1D0,0D0,0D0,1D0;                                 85P     88
110,-9D0,0D0,-5.196152422707D0,-9D0,7.196152422707D0,                 87P     89
-5.196152422707D0;                                                    87P     90
126,7,3,0,0,1,0,0D0,0D0,0D0,0D0,2D-1,4D-1,6D-1,8D-1,1D0,1D0,1D0,      89P     91
1D0,1D0,1D0,1D0,1D0,1D0,1D0,1D0,1D0,9D0,7.196152422707D0,             89P     92
-5.196152422707D0,8.679504592620D0,7.302984225167D0,                  89P     93
-5.381190532432D0,8.050092864387D0,7.495460734710D0,                  89P     94
-5.744581563158D0,7.151999337220D0,7.717012510594D0,                  89P     95
-6.263096102825D0,6.265211926788D0,7.878777934020D0,                  89P     96
-6.775083052952D0,5.382414030914D0,7.977726981260D0,                  89P     97
-7.284766655774D0,4.793979458481D0,8.000000000856D0,                  89P     98
-7.624499514572D0,4.500000023864D0,8.000000000886D0,                  89P     99
-7.794228620284D0,0D0,1D0,0D0,0D0,1D0;                                89P    100
126,7,3,0,0,1,0,0D0,0D0,0D0,0D0,2D-1,4D-1,6D-1,8D-1,1D0,1D0,1D0,      91P    101
1D0,1D0,1D0,1D0,1D0,1D0,1D0,1D0,1D0,4.500000023864D0,                 91P    102
8.000000000886D0,-7.794228620284D0,4.205920456949D0,                  91P    103
8.000000000886D0,-7.964015537406D0,3.617312435229D0,                  91P    104
7.977709919862D0,-8.303848537190D0,2.734395320074D0,                  91P    105
7.878725116305D0,-8.813600971298D0,1.847445543233D0,                  91P    106
7.716887314729D0,-9.325681663714D0,9.499157708216D-1,                 91P    107
7.495454616821D0,-9.843870719422D0,3.205107393735D-1,                 91P    108
7.302989335831D0,-1.020725788376D1,0D0,7.196152422707D0,              91P    109
-1.039230484541D1,0D0,1D0,0D0,0D0,1D0;                                91P    110
110,9D0,0D0,-5.196152422707D0,9D0,7.196152422707D0,                   93P    111
-5.196152422707D0;                                                    93P    112
126,7,3,0,0,1,0,0D0,0D0,0D0,0D0,2D-1,4D-1,6D-1,8D-1,1D0,1D0,1D0,      95P    113
1D0,1D0,1D0,1D0,1D0,1D0,1D0,1D0,1D0,0D0,7.196152422707D0,             95P    114
-1.039230484541D1,-3.204954140215D-1,7.302984227380D0,                95P    115
-1.020726673185D1,-9.499071545794D-1,7.495460740506D0,                95P    116
-9.843875694012D0,-1.848000703204D0,7.717012519312D0,                 95P    117
-9.325361141956D0,-2.734788120672D0,7.878777942371D0,                 95P    118
-8.813374187767D0,-3.617586076370D0,7.977726988864D0,                 95P    119
-8.303690550403D0,-4.206020558722D0,7.999999999983D0,                 95P    120
-7.963957743620D0,-4.499999999554D0,8.000000000007D0,                 95P    121
-7.794228634319D0,0D0,1D0,0D0,0D0,1D0;                                95P    122
126,7,3,0,0,1,0,0D0,0D0,0D0,0D0,2D-1,4D-1,6D-1,8D-1,1D0,1D0,1D0,      97P    123
1D0,1D0,1D0,1D0,1D0,1D0,1D0,1D0,1D0,-4.499999999554D0,                97P    124
8.000000000007D0,-7.794228634319D0,-4.794079519765D0,                 97P    125
8.000000000007D0,-7.624441744162D0,-5.382687575578D0,                 97P    126
7.977709920270D0,-7.284608724689D0,-6.265604677029D0,                 97P    127
7.878725116196D0,-6.774856298495D0,-7.152554457547D0,                 97P    128
7.716887314758D0,-6.262775603955D0,-8.050084228956D0,                 97P    129
7.495454616813D0,-5.744586548827D0,-8.679489260627D0,                 97P    130
7.302989335831D0,-5.381199384362D0,-9D0,7.196152422707D0,             97P    131
-5.196152422707D0,0D0,1D0,0D0,0D0,1D0;                                97P    132
110,0D0,0D0,-1.039230484541D1,0D0,7.196152422707D0,                   99P    133
-1.039230484541D1;                                                    99P    134
126,7,3,0,0,1,0,0D0,0D0,0D0,0D0,2D-1,4D-1,6D-1,8D-1,1D0,1D0,1D0,     101P    135
1D0,1D0,1D0,1D0,1D0,1D0,1D0,1D0,1D0,9.000000000038D0,                101P    136
8.000000000016D0,5.272377081405D-11,9.000000000038D0,                101P    137
7.999999999979D0,-3.434847481910D-1,8.999999999983D0,                101P    138
7.977201645094D0,-1.029825052616D0,9.000000000005D0,                 101P    139
7.876551285425D0,-2.056375224298D0,8.999999999999D0,                 101P    140
7.713102818527D0,-3.083186871293D0,9D0,7.490988656442D0,             101P    141
-4.117208474210D0,9D0,7.300932950557D0,-4.833182026944D0,9D0,        101P    142
7.196152422707D0,-5.196152422707D0,0D0,1D0,0D0,0D0,1D0;              101P    143
110,9D0,0D0,5.196152422707D0,9D0,7.196152422707D0,                   103P    144
5.196152422707D0;                                                    103P    145
126,7,3,0,0,1,0,0D0,0D0,0D0,0D0,2D-1,4D-1,6D-1,8D-1,1D0,1D0,1D0,     105P    146
1D0,1D0,1D0,1D0,1D0,1D0,1D0,1D0,1D0,9D0,7.196152422707D0,            105P    147
5.196152422707D0,9D0,7.302018791809D0,4.829420562511D0,9D0,          105P    148
7.493382479981D0,4.107663266963D0,8.999999999999D0,                  105P    149
7.715350395409D0,3.071238871919D0,9.000000000005D0,                  105P    150
7.877834783224D0,2.045923915725D0,8.999999999983D0,                  105P    151
7.977480887164D0,1.023872403832D0,9.000000000038D0,                  105P    152
7.999999999974D0,3.413035016359D-1,9.000000000038D0,                 105P    153
8.000000000016D0,5.272377081405D-11,0D0,1D0,0D0,0D0,1D0;             105P    154
126,7,3,0,0,1,0,0D0,0D0,0D0,0D0,2D-1,4D-1,6D-1,8D-1,1D0,1D0,1D0,     107P    155
1D0,1D0,1D0,1D0,1D0,1D0,1D0,1D0,1D0,0D0,7.196152422707D0,            107P    156
1.039230484541D1,3.204954084283D-1,7.302984225516D0,                 107P    157
1.020726673508D1,9.499071386076D-1,7.495460735625D0,                 107P    158
9.843875703233D0,1.848000669158D0,7.717012511970D0,                  107P    159
9.325361161612D0,2.734788080713D0,7.878777935339D0,                  107P    160
8.813374210838D0,3.617585985980D0,7.977726982457D0,                  107P    161
8.303690602590D0,4.206020544317D0,8.000000000724D0,                  107P    162
7.963957751937D0,4.499999979861D0,8.000000000748D0,                  107P    163
7.794228645689D0,0D0,1D0,0D0,0D0,1D0;                                107P    164
126,7,3,0,0,1,0,0D0,0D0,0D0,0D0,2D-1,4D-1,6D-1,8D-1,1D0,1D0,1D0,     109P    165
1D0,1D0,1D0,1D0,1D0,1D0,1D0,1D0,1D0,4.499999979861D0,                109P    166
8.000000000748D0,7.794228645689D0,4.794079539459D0,                  109P    167
8.000000000748D0,7.624441732792D0,5.382687566438D0,                  109P    168
7.977709919926D0,7.284608729966D0,6.265604679479D0,                  109P    169
7.878725116288D0,6.774856297081D0,7.152554456887D0,                  109P    170
7.716887314733D0,6.262775604336D0,8.050084229144D0,                  109P    171
7.495454616820D0,5.744586548718D0,8.679489260627D0,                  109P    172
7.302989335831D0,5.381199384362D0,9D0,7.196152422707D0,              109P    173
5.196152422707D0,0D0,1D0,0D0,0D0,1D0;                                109P    174
110,0D0,0D0,1.039230484541D1,0D0,7.196152422707D0,                   111P    175
1.039230484541D1;                                                    111P    176
124,1D0,0D0,0D0,0D0,0D0,0D0,1D0,8D0,0D0,-1D0,0D0,0D0;                113P    177
100,0D0,0D0,0D0,9D0,0D0,4.500000000078D0,7.794228634015D0;           115P    178
124,4.999999999916D-1,8.660254037893D-1,0D0,0D0,0D0,0D0,1D0,8D0,     117P    179
8.660254037893D-1,-4.999999999916D-1,0D0,0D0;                        117P    180
100,0D0,0D0,0D0,9D0,0D0,4.499999999924D0,7.794228634104D0;           119P    181
124,-5.000000000087D-1,8.660254037794D-1,0D0,0D0,0D0,0D0,1D0,        121P    182
8D0,8.660254037794D-1,5.000000000087D-1,0D0,0D0;                     121P    183
100,0D0,0D0,0D0,9D0,0D0,4.499999999998D0,7.794228634061D0;           123P    184
124,-1D0,-3.289419060787D-11,0D0,0D0,0D0,0D0,1D0,8D0,                125P    185
-3.289419060787D-11,1D0,0D0,0D0;                                     125P    186
100,0D0,0D0,0D0,9D0,0D0,4.499999999822D0,7.794228634163D0;           127P    187
124,-4.999999999916D-1,-8.660254037893D-1,0D0,0D0,0D0,0D0,1D0,       129P    188
8D0,-8.660254037893D-1,4.999999999916D-1,0D0,0D0;                    129P    189
100,0D0,0D0,0D0,9D0,0D0,4.500000000180D0,7.794228633956D0;           131P    190
124,5.000000000087D-1,-8.660254037794D-1,0D0,0D0,0D0,0D0,1D0,        133P    191
8D0,-8.660254037794D-1,-5.000000000087D-1,0D0,0D0;                   133P    192
100,0D0,0D0,0D0,9D0,0D0,4.499999999998D0,7.794228634061D0;           135P    193
502,26,-9D0,0D0,5.196152422707D0,0D0,0D0,1.039230484541D1,9D0,       137P    194
0D0,5.196152422707D0,9D0,0D0,-5.196152422707D0,0D0,0D0,              137P    195
-1.039230484541D1,-9D0,0D0,-5.196152422707D0,9D0,8D0,0D0,            137P    196
4.500000000078D0,8D0,-7.794228634015D0,-4.499999999924D0,8D0,        137P    197
-7.794228634104D0,-9D0,8D0,-2.960480749437D-10,                      137P    198
-4.500000000078D0,8D0,7.794228634015D0,4.499999999924D0,8D0,         137P    199
7.794228634104D0,-9D0,7.196152422707D0,5.196152422707D0,0D0,         137P    200
7.196152422707D0,1.039230484541D1,9D0,7.196152422707D0,              137P    201
5.196152422707D0,9D0,7.196152422707D0,-5.196152422707D0,0D0,         137P    202
7.196152422707D0,-1.039230484541D1,-9D0,7.196152422707D0,            137P    203
-5.196152422707D0,0D0,-1D0,-6D0,0D0,-1D0,6D0,0D0,0D0,                137P    204
-6.999999953801D0,0D0,0D0,6.999999953801D0,0D0,                      137P    205
-3.499999548551D1,-4.999993227886D0,0D0,-3.499999548551D1,           137P    206
4.999993227886D0,0D0,-3.399999725317D1,-6D0,0D0,                     137P    207
-3.399999725317D1,6D0;                                               137P    208
504,44,57,137,1,137,2,59,137,2,137,3,61,137,3,137,4,63,137,4,        139P    209
137,5,65,137,5,137,6,67,137,6,137,1,115,137,7,137,8,135,137,8,       139P    210
137,9,131,137,9,137,10,127,137,10,137,11,123,137,11,137,12,119,      139P    211
137,12,137,7,77,137,13,137,11,79,137,11,137,14,107,137,14,137,       139P    212
12,109,137,12,137,15,101,137,7,137,16,105,137,15,137,7,89,137,       139P    213
16,137,8,91,137,8,137,17,95,137,17,137,9,97,137,9,137,18,83,137,     139P    214
18,137,10,85,137,10,137,13,81,137,1,137,13,111,137,2,137,14,103,     139P    215
137,3,137,15,93,137,4,137,16,99,137,5,137,17,87,137,6,137,18,37,     139P    216
137,19,137,20,71,137,21,137,22,47,137,20,137,19,75,137,22,137,       139P    217
21,51,137,20,137,22,55,137,19,137,21,19,137,23,137,24,41,137,25,     139P    218
137,26,23,137,24,137,23,31,137,26,137,25,33,137,19,137,25,43,        139P    219
137,20,137,26,27,137,24,137,26,25,137,23,137,25;                     139P    220
128,1,1,1,1,0,0,1,0,0,-5.2D0,-5.2D0,5.2D0,5.2D0,                     141P    221
-5.199999948872D0,-5.199999948872D0,5.199999948872D0,                141P    222
5.199999948872D0,1D0,1D0,1D0,1D0,5.199999948872D0,-3.5D1,5.2D0,      141P    223
5.199999948872D0,-3.5D1,-5.2D0,-5.199999948872D0,-3.5D1,5.2D0,       141P    224
-5.199999948872D0,-3.5D1,-5.2D0,-5.2D0,5.2D0,-5.199999948872D0,      141P    225
5.199999948872D0;                                                    141P    226
508,2,0,139,37,0,0,0,139,39,0,0;                                     143P    227
510,141,1,0,143;                                                     145P    228
110,0D0,-4D1,-1.998401444325D-14,0D0,-3.9D1,-1.998401444325D-14;     147P    229
110,0D0,-3.504420248583D1,-4.955786327358D0,0D0,                     149P    230
-3.395578270256D1,-6.044203653718D0;                                 149P    231
120,147,149,-3.204424511987D0,6.283185907059D-2;                     151P    232
508,4,0,139,37,1,0,0,139,43,1,0,0,139,38,0,0,0,139,44,0,0;           153P    233
510,151,1,0,153;                                                     155P    234
110,0D0,-4D1,1.776356839400D-14,0D0,-3.9D1,1.776356839400D-14;       157P    235
110,0D0,-3.504420248583D1,-4.955786327358D0,0D0,                     159P    236
-3.395578270256D1,-6.044203653718D0;                                 159P    237
120,157,159,-6.283185839730D-2,3.204424512660D0;                     161P    238
508,4,0,139,39,1,0,0,139,44,1,0,0,139,40,0,0,0,139,43,0,0;           163P    239
510,161,1,0,163;                                                     165P    240
110,0D0,0D0,0D0,0D0,1D0,0D0;                                         167P    241
110,0D0,-3.466000549528D1,-6D0,0D0,-3.399998922494D-1,-6D0;          169P    242
120,167,169,-6.283185307180D-2,3.204424506662D0;                     171P    243
508,4,0,139,40,1,0,0,139,41,0,0,0,139,31,1,0,0,139,42,1,0;           173P    244
510,171,1,0,173;                                                     175P    245
110,0D0,0D0,0D0,0D0,1D0,0D0;                                         177P    246
110,0D0,-3.466000549528D1,-6D0,0D0,-3.399998922494D-1,-6D0;          179P    247
120,177,179,3.078760800518D0,6.346017160251D0;                       181P    248
508,4,0,139,38,1,0,0,139,42,0,0,0,139,33,1,0,0,139,41,1,0;           183P    249
510,181,1,0,183;                                                     185P    250
110,0D0,-1D0,0D0,0D0,0D0,0D0;                                        187P    251
124,-8.739623165185D-4,1.396416994153D-2,-9.999021142830D-1,         189P    252
-9.794044497574D-2,9.980472277304D-1,6.246383929688D-2,0D0,-1D0,     189P    253
6.245772497919D-2,-9.979495331619D-1,-1.399149213939D-2,             189P    254
6.999314799981D0;                                                    189P    255
100,0D0,0D0,0D0,1D0,0D0,-1.246829643930D-1,9.921966329262D-1;        191P    256
120,187,191,-4.883990439717D-2,3.218416455346D0;                     193P    257
508,4,0,139,33,0,0,0,139,35,1,0,0,139,34,1,0,0,139,36,0,0;           195P    258
510,193,1,0,195;                                                     197P    259
110,0D0,-1D0,0D0,0D0,0D0,0D0;                                        199P    260
124,8.739623165185D-4,-1.396416994153D-2,9.999021142830D-1,          201P    261
9.794044497574D-2,9.980472277304D-1,6.246383929688D-2,0D0,-1D0,      201P    262
-6.245772497919D-2,9.979495331619D-1,1.399149213939D-2,              201P    263
-6.999314799981D0;                                                   201P    264
100,0D0,0D0,0D0,1D0,0D0,-1.246829643930D-1,9.921966329262D-1;        203P    265
120,199,203,-4.883990439717D-2,3.218416455346D0;                     205P    266
508,4,0,139,31,0,0,0,139,36,1,0,0,139,32,1,0,0,139,35,0,0;           207P    267
510,205,1,0,207;                                                     209P    268
128,1,1,1,1,0,0,1,0,0,-1.080799703923D1,-1.080799703923D1,           211P    269
1.080799703923D1,1.080799703923D1,-9.36D0,-9.36D0,9.36D0,9.36D0,     211P    270
1D0,1D0,1D0,1D0,9.36D0,0D0,1.080799703923D1,9.36D0,0D0,              211P    271
-1.080799703923D1,-9.36D0,0D0,1.080799703923D1,-9.36D0,0D0,          211P    272
-1.080799703923D1,-1.080799703923D1,1.080799703923D1,-9.36D0,        211P    273
9.36D0;                                                              211P    274
508,6,0,139,1,1,0,0,139,2,1,0,0,139,3,1,0,0,139,4,1,0,0,139,5,1,     213P    275
0,0,139,6,1,0;                                                       213P    276
508,2,0,139,32,0,0,0,139,34,0,0;                                     215P    277
510,211,2,0,213,215;                                                 217P    278
128,1,1,1,1,0,0,1,0,0,-2.078460969083D-1,-2.078460969083D-1,         219P    279
1.060015094232D1,1.060015094232D1,-1.600000000002D-1,                219P    280
-1.600000000002D-1,8.160000000008D0,8.160000000008D0,1D0,1D0,        219P    281
1D0,1D0,-9.18D0,-1.600000000002D-1,5.092229374252D0,1.8D-1,          219P    282
-1.600000000002D-1,1.049622789387D1,-9.18D0,8.160000000008D0,        219P    283
5.092229374252D0,1.8D-1,8.160000000008D0,1.049622789387D1,           219P    284
-2.078460969083D-1,1.060015094232D1,-1.600000000002D-1,              219P    285
8.160000000008D0;                                                    219P    286
508,5,0,139,13,1,0,0,139,14,1,0,0,139,26,0,0,0,139,1,0,0,0,139,      221P    287
25,1,0;                                                              221P    288
510,219,1,0,221;                                                     223P    289
110,0D0,1.319615242271D1,0D0,0D0,1.419615242271D1,0D0;               225P    290
110,1.044643469411D1,7.164900539988D0,0D0,8.945870151299D0,          227P    291
8.031251882719D0,0D0;                                                227P    292
120,225,227,-3.204424506467D0,6.283185285324D-2;                     229P    293
508,3,0,139,13,0,0,0,139,24,0,0,0,139,10,1,0;                        231P    294
510,229,1,0,231;                                                     233P    295
110,0D0,1.319615242271D1,0D0,0D0,1.419615242271D1,0D0;               235P    296
110,1.044643469411D1,7.164900539988D0,0D0,8.945870151299D0,          237P    297
8.031251882719D0,0D0;                                                237P    298
120,235,237,-3.204424506467D0,6.283185285324D-2;                     239P    299
508,3,0,139,15,0,0,0,139,14,0,0,0,139,11,1,0;                        241P    300
510,239,1,0,241;                                                     243P    301
110,0D0,1.319615242271D1,0D0,0D0,1.419615242271D1,0D0;               245P    302
110,1.044643469411D1,7.164900539988D0,0D0,8.945870151299D0,          247P    303
8.031251882719D0,0D0;                                                247P    304
120,245,247,-3.204424506467D0,6.283185285324D-2;                     249P    305
508,3,0,139,18,0,0,0,139,16,0,0,0,139,12,1,0;                        251P    306
510,249,1,0,251;                                                     253P    307
128,1,1,1,1,0,0,1,0,0,-2.078460969083D-1,-2.078460969083D-1,         255P    308
1.060015094232D1,1.060015094232D1,-1.600000000012D-1,                255P    309
-1.600000000012D-1,8.160000000064D0,8.160000000064D0,1D0,1D0,        255P    310
1D0,1D0,-9D0,-1.600000000012D-1,-5.403998519615D0,-9D0,              255P    311
-1.600000000012D-1,5.403998519615D0,-9D0,8.160000000064D0,           255P    312
-5.403998519615D0,-9D0,8.160000000064D0,5.403998519615D0,            255P    313
-2.078460969083D-1,1.060015094232D1,-1.600000000012D-1,              255P    314
8.160000000064D0;                                                    255P    315
508,5,0,139,23,1,0,0,139,24,1,0,0,139,25,0,0,0,139,6,0,0,0,139,      257P    316
30,1,0;                                                              257P    317
510,255,1,0,257;                                                     259P    318
110,0D0,1.319615242271D1,0D0,0D0,1.419615242271D1,0D0;               261P    319
110,1.044643469411D1,7.164900539988D0,0D0,8.945870151299D0,          263P    320
8.031251882719D0,0D0;                                                263P    321
120,261,263,-6.283185287743D-2,3.204424506443D0;                     265P    322
508,3,0,139,19,0,0,0,139,17,0,0,0,139,7,1,0;                         267P    323
510,265,1,0,267;                                                     269P    324
110,0D0,1.319615242271D1,0D0,0D0,1.419615242271D1,0D0;               271P    325
110,1.044643469411D1,7.164900539988D0,0D0,8.945870151299D0,          273P    326
8.031251882719D0,0D0;                                                273P    327
120,271,273,-6.283185287743D-2,3.204424506443D0;                     275P    328
508,3,0,139,21,0,0,0,139,20,0,0,0,139,8,1,0;                         277P    329
510,275,1,0,277;                                                     279P    330
110,0D0,1.319615242271D1,0D0,0D0,1.419615242271D1,0D0;               281P    331
110,1.044643469411D1,7.164900539988D0,0D0,8.945870151299D0,          283P    332
8.031251882719D0,0D0;                                                283P    333
120,281,283,-6.283185287743D-2,3.204424506443D0;                     285P    334
508,3,0,139,23,0,0,0,139,22,0,0,0,139,9,1,0;                         287P    335
510,285,1,0,287;                                                     289P    336
128,1,1,1,1,0,0,1,0,0,-2.078460969083D-1,-2.078460969083D-1,         291P    337
1.060015094232D1,1.060015094232D1,-1.600000000709D-1,                291P    338
-1.600000000709D-1,8.160000003614D0,8.160000003614D0,1D0,1D0,        291P    339
1D0,1D0,9.18D0,-1.600000000709D-1,-5.092229374252D0,-1.8D-1,         291P    340
-1.600000000709D-1,-1.049622789387D1,9.18D0,8.160000003614D0,        291P    341
-5.092229374252D0,-1.8D-1,8.160000003614D0,-1.049622789387D1,        291P    342
-2.078460969083D-1,1.060015094232D1,-1.600000000709D-1,              291P    343
8.160000003614D0;                                                    291P    344
508,5,0,139,19,1,0,0,139,20,1,0,0,139,29,0,0,0,139,4,0,0,0,139,      293P    345
28,1,0;                                                              293P    346
510,291,1,0,293;                                                     295P    347
128,1,1,1,1,0,0,1,0,0,-2.078460969083D-1,-2.078460969083D-1,         297P    348
1.060015094232D1,1.060015094232D1,-1.600000000006D-1,                297P    349
-1.600000000006D-1,8.160000000029D0,8.160000000029D0,1D0,1D0,        297P    350
1D0,1D0,1.8D-1,-1.600000000006D-1,-1.049622789387D1,-9.18D0,         297P    351
-1.600000000006D-1,-5.092229374252D0,1.8D-1,8.160000000029D0,        297P    352
-1.049622789387D1,-9.18D0,8.160000000029D0,-5.092229374252D0,        297P    353
-2.078460969083D-1,1.060015094232D1,-1.600000000006D-1,              297P    354
8.160000000029D0;                                                    297P    355
508,5,0,139,21,1,0,0,139,22,1,0,0,139,30,0,0,0,139,5,0,0,0,139,      299P    356
29,1,0;                                                              299P    357
510,297,1,0,299;                                                     301P    358
128,1,1,1,1,0,0,1,0,0,-2.078460969083D-1,-2.078460969083D-1,         303P    359
1.060015094232D1,1.060015094232D1,-1.600000000012D-1,                303P    360
-1.600000000012D-1,8.160000000063D0,8.160000000063D0,1D0,1D0,        303P    361
1D0,1D0,9D0,-1.600000000012D-1,5.403998519615D0,9D0,                 303P    362
-1.600000000012D-1,-5.403998519615D0,9D0,8.160000000063D0,           303P    363
5.403998519615D0,9D0,8.160000000063D0,-5.403998519615D0,             303P    364
-2.078460969083D-1,1.060015094232D1,-1.600000000012D-1,              303P    365
8.160000000063D0;                                                    303P    366
508,5,0,139,17,1,0,0,139,28,0,0,0,139,3,0,0,0,139,27,1,0,0,139,      305P    367
18,1,0;                                                              305P    368
510,303,1,0,305;                                                     307P    369
128,1,1,1,1,0,0,1,0,0,-2.078460969083D-1,-2.078460969083D-1,         309P    370
1.060015094232D1,1.060015094232D1,-1.600000000599D-1,                309P    371
-1.600000000599D-1,8.160000003053D0,8.160000003053D0,1D0,1D0,        309P    372
1D0,1D0,-1.8D-1,-1.600000000599D-1,1.049622789387D1,9.18D0,          309P    373
-1.600000000599D-1,5.092229374252D0,-1.8D-1,8.160000003053D0,        309P    374
1.049622789387D1,9.18D0,8.160000003053D0,5.092229374252D0,           309P    375
-2.078460969083D-1,1.060015094232D1,-1.600000000599D-1,              309P    376
8.160000003053D0;                                                    309P    377
508,5,0,139,15,1,0,0,139,16,1,0,0,139,27,0,0,0,139,2,0,0,0,139,      311P    378
26,1,0;                                                              311P    379
510,309,1,0,311;                                                     313P    380
128,1,1,1,1,0,0,1,0,0,-9.367709135052D0,-9.367709135052D0,           315P    381
9.367709135052D0,9.367709135052D0,-9.360000000155D0,                 315P    382
-9.360000000155D0,9.360000000062D0,9.360000000062D0,1D0,1D0,1D0,     315P    383
1D0,9.360000000155D0,8D0,9.367709135052D0,9.360000000155D0,8D0,      315P    384
-9.367709135052D0,-9.360000000062D0,8D0,9.367709135052D0,            315P    385
-9.360000000062D0,8D0,-9.367709135052D0,-9.367709135052D0,           315P    386
9.367709135052D0,-9.360000000155D0,9.360000000062D0;                 315P    387
508,6,0,139,7,0,0,0,139,12,0,0,0,139,11,0,0,0,139,10,0,0,0,139,      317P    388
9,0,0,0,139,8,0,0;                                                   317P    389
510,315,1,0,317;                                                     319P    390
514,21,145,0,155,1,165,1,175,1,185,1,197,0,209,0,217,0,223,1,        321P    391
233,1,243,1,253,1,259,1,269,1,279,1,289,1,295,1,301,1,307,1,313,     321P    392
1,319,1;                                                             321P    393
124,-1D0,0D0,0D0,0D0,0D0,0D0,-1D0,-3.5D1,0D0,-1D0,0D0,0D0;           323P    394
100,0D0,0D0,0D0,5.053D0,0D0,-5.053D0,0D0;                            325P    395
110,5.053D0,-3.5D1,0D0,5.053D0,-5D0,0D0;                             327P    396
124,1D0,0D0,0D0,0D0,0D0,0D0,-1D0,-3.5D1,0D0,1D0,0D0,0D0;             329P    397
100,0D0,0D0,0D0,5.053D0,0D0,-5.053D0,0D0;                            331P    398
110,-5.053D0,-3.5D1,0D0,-5.053D0,-5D0,0D0;                           333P    399
124,-1D0,0D0,0D0,0D0,0D0,0D0,1D0,-5D0,0D0,1D0,0D0,0D0;               335P    400
100,0D0,0D0,0D0,5.053D0,0D0,-5.053D0,0D0;                            337P    401
124,1D0,0D0,0D0,0D0,0D0,0D0,1D0,-5D0,0D0,-1D0,0D0,0D0;               339P    402
100,0D0,0D0,0D0,5.053D0,0D0,-5.053D0,0D0;                            341P    403
124,-1D0,0D0,0D0,0D0,0D0,0D0,1D0,-5D0,0D0,1D0,0D0,0D0;               343P    404
100,0D0,0D0,0D0,6D0,0D0,-6D0,0D0;                                    345P    405
124,1D0,0D0,0D0,0D0,0D0,0D0,1D0,-5D0,0D0,-1D0,0D0,0D0;               347P    406
100,0D0,0D0,0D0,6D0,0D0,-6D0,0D0;                                    349P    407
502,6,-5.053D0,-3.5D1,0D0,5.053D0,-3.5D1,0D0,-5.053D0,-5D0,0D0,      351P    408
5.053D0,-5D0,0D0,6D0,-5D0,0D0,-6D0,-5D0,0D0;                         351P    409
504,8,331,351,1,351,2,325,351,2,351,1,337,351,3,351,4,341,351,4,     353P    410
351,3,333,351,1,351,3,327,351,2,351,4,345,351,5,351,6,349,351,6,     353P    411
351,5;                                                               353P    412
110,0D0,-3.5D1,0D0,0D0,-3.4D1,0D0;                                   355P    413
110,-5.053D0,-3.56D1,0D0,-5.053D0,-4.4D0,0D0;                        357P    414
120,355,357,3.078760800518D0,6.346017160251D0;                       359P    415
508,4,0,353,2,0,0,0,353,6,1,0,0,353,4,1,0,0,353,5,0,0;               361P    416
510,359,1,0,361;                                                     363P    417
110,0D0,-3.5D1,0D0,0D0,-3.4D1,0D0;                                   365P    418
110,-5.053D0,-3.56D1,0D0,-5.053D0,-4.4D0,0D0;                        367P    419
120,365,367,-6.283185307180D-2,3.204424506662D0;                     369P    420
508,4,0,353,1,0,0,0,353,5,1,0,0,353,3,1,0,0,353,6,0,0;               371P    421
510,369,1,0,371;                                                     373P    422
128,1,1,1,1,0,0,1,0,0,-6.247764512667D0,-6.247764512667D0,           375P    423
6.247764512667D0,6.247764512667D0,-6.24D0,-6.24D0,6.24D0,6.24D0,     375P    424
1D0,1D0,1D0,1D0,6.24D0,-5D0,-6.247764512667D0,6.24D0,-5D0,           375P    425
6.247764512667D0,-6.24D0,-5D0,-6.247764512667D0,-6.24D0,-5D0,        375P    426
6.247764512667D0,-6.247764512667D0,6.247764512667D0,-6.24D0,         375P    427
6.24D0;                                                              375P    428
508,2,0,353,7,0,0,0,353,8,0,0;                                       377P    429
508,2,0,353,3,0,0,0,353,4,0,0;                                       379P    430
510,375,2,0,377,379;                                                 381P    431
514,3,363,1,373,1,381,1;                                             383P    432
186,321,1,0;                                                         385P    433
S      1G      5D    386P    433                                        T      1
