ISO-10303-21;
HEADER;
FILE_DESCRIPTION(('STEP AP214'),'1');
FILE_NAME('1260112.stp','2017-05-23T16:18:20',('TraceParts'),('TraceParts S.A.'),'Spatial InterOp 3D',' ',' ');
FILE_SCHEMA(('automotive_design'));
ENDSEC;
DATA;
#1=MECHANICAL_DESIGN_GEOMETRIC_PRESENTATION_REPRESENTATION(' ',(#10,#11,#12,#13,#14,#15,#16,#17,#18,#19,#20,#21,#22,#23,#24,#25,#26,#27,#28,#29,#30,#31,#32,#33,#34,#35,#36,#37,#38,#39,#40,#41,#42),#6);
#2=PRODUCT_DEFINITION_CONTEXT('',#43,'design');
#3=APPLICATION_PROTOCOL_DEFINITION('INTERNATIONAL STANDARD','automotive_design',1994,#43);
#4=PRODUCT_CATEGORY_RELATIONSHIP('NONE','NONE',#44,#45);
#5=SHAPE_DEFINITION_REPRESENTATION(#46,#47);
#6= (GEOMETRIC_REPRESENTATION_CONTEXT(3)GLOBAL_UNCERTAINTY_ASSIGNED_CONTEXT((#50))GLOBAL_UNIT_ASSIGNED_CONTEXT((#52,#53,#54))REPRESENTATION_CONTEXT('NONE','WORKSPACE'));
#10=STYLED_ITEM('',(#56),#57);
#11=STYLED_ITEM('',(#58),#59);
#12=STYLED_ITEM('',(#60),#61);
#13=STYLED_ITEM('',(#62),#63);
#14=STYLED_ITEM('',(#64),#65);
#15=STYLED_ITEM('',(#66),#67);
#16=STYLED_ITEM('',(#68),#69);
#17=STYLED_ITEM('',(#70),#71);
#18=STYLED_ITEM('',(#72),#73);
#19=STYLED_ITEM('',(#74),#75);
#20=STYLED_ITEM('',(#76),#77);
#21=STYLED_ITEM('',(#78),#79);
#22=STYLED_ITEM('',(#80),#81);
#23=STYLED_ITEM('',(#82),#83);
#24=STYLED_ITEM('',(#84),#85);
#25=STYLED_ITEM('',(#86),#87);
#26=STYLED_ITEM('',(#88),#89);
#27=STYLED_ITEM('',(#90),#91);
#28=STYLED_ITEM('',(#92),#93);
#29=STYLED_ITEM('',(#94),#95);
#30=STYLED_ITEM('',(#96),#97);
#31=STYLED_ITEM('',(#98),#99);
#32=STYLED_ITEM('',(#100),#101);
#33=STYLED_ITEM('',(#102),#103);
#34=STYLED_ITEM('',(#104),#105);
#35=STYLED_ITEM('',(#106),#107);
#36=STYLED_ITEM('',(#108),#109);
#37=STYLED_ITEM('',(#110),#111);
#38=STYLED_ITEM('',(#112),#113);
#39=STYLED_ITEM('',(#114),#115);
#40=STYLED_ITEM('',(#116),#117);
#41=STYLED_ITEM('',(#118),#119);
#42=STYLED_ITEM('',(#120),#121);
#43=APPLICATION_CONTEXT(' ');
#44=PRODUCT_CATEGORY('part','NONE');
#45=PRODUCT_RELATED_PRODUCT_CATEGORY('detail',' ',(#122));
#46=PRODUCT_DEFINITION_SHAPE('NONE','NONE',#123);
#47=ADVANCED_BREP_SHAPE_REPRESENTATION('1260112',(#121,#124),#6);
#50=UNCERTAINTY_MEASURE_WITH_UNIT(LENGTH_MEASURE(1.0E-006),#52,'','');
#52= (CONVERSION_BASED_UNIT('MILLIMETRE',#127)LENGTH_UNIT()NAMED_UNIT(#130));
#53= (NAMED_UNIT(#132)PLANE_ANGLE_UNIT()SI_UNIT($,.RADIAN.));
#54= (NAMED_UNIT(#132)SOLID_ANGLE_UNIT()SI_UNIT($,.STERADIAN.));
#56=PRESENTATION_STYLE_ASSIGNMENT((#138));
#57=ADVANCED_FACE('',(#139),#140,.T.);
#58=PRESENTATION_STYLE_ASSIGNMENT((#141));
#59=ADVANCED_FACE('',(#142),#143,.T.);
#60=PRESENTATION_STYLE_ASSIGNMENT((#144));
#61=ADVANCED_FACE('',(#145),#146,.T.);
#62=PRESENTATION_STYLE_ASSIGNMENT((#147));
#63=ADVANCED_FACE('',(#148),#149,.T.);
#64=PRESENTATION_STYLE_ASSIGNMENT((#150));
#65=ADVANCED_FACE('',(#151),#152,.T.);
#66=PRESENTATION_STYLE_ASSIGNMENT((#153));
#67=ADVANCED_FACE('',(#154),#155,.T.);
#68=PRESENTATION_STYLE_ASSIGNMENT((#156));
#69=ADVANCED_FACE('',(#157),#158,.F.);
#70=PRESENTATION_STYLE_ASSIGNMENT((#159));
#71=ADVANCED_FACE('',(#160),#161,.F.);
#72=PRESENTATION_STYLE_ASSIGNMENT((#162));
#73=ADVANCED_FACE('',(#163),#164,.F.);
#74=PRESENTATION_STYLE_ASSIGNMENT((#165));
#75=ADVANCED_FACE('',(#166),#167,.F.);
#76=PRESENTATION_STYLE_ASSIGNMENT((#168));
#77=ADVANCED_FACE('',(#169),#170,.F.);
#78=PRESENTATION_STYLE_ASSIGNMENT((#171));
#79=ADVANCED_FACE('',(#172),#173,.F.);
#80=PRESENTATION_STYLE_ASSIGNMENT((#174));
#81=ADVANCED_FACE('',(#175),#176,.T.);
#82=PRESENTATION_STYLE_ASSIGNMENT((#177));
#83=ADVANCED_FACE('',(#178),#179,.T.);
#84=PRESENTATION_STYLE_ASSIGNMENT((#180));
#85=ADVANCED_FACE('',(#181),#182,.T.);
#86=PRESENTATION_STYLE_ASSIGNMENT((#183));
#87=ADVANCED_FACE('',(#184),#185,.T.);
#88=PRESENTATION_STYLE_ASSIGNMENT((#186));
#89=ADVANCED_FACE('',(#187,#188),#189,.F.);
#90=PRESENTATION_STYLE_ASSIGNMENT((#190));
#91=ADVANCED_FACE('',(#191),#192,.F.);
#92=PRESENTATION_STYLE_ASSIGNMENT((#193));
#93=ADVANCED_FACE('',(#194),#195,.F.);
#94=PRESENTATION_STYLE_ASSIGNMENT((#196));
#95=ADVANCED_FACE('',(#197),#198,.F.);
#96=PRESENTATION_STYLE_ASSIGNMENT((#199));
#97=ADVANCED_FACE('',(#200,#201),#202,.T.);
#98=PRESENTATION_STYLE_ASSIGNMENT((#203));
#99=ADVANCED_FACE('',(#204),#205,.F.);
#100=PRESENTATION_STYLE_ASSIGNMENT((#206));
#101=ADVANCED_FACE('',(#207),#208,.T.);
#102=PRESENTATION_STYLE_ASSIGNMENT((#209));
#103=ADVANCED_FACE('',(#210),#211,.T.);
#104=PRESENTATION_STYLE_ASSIGNMENT((#212));
#105=ADVANCED_FACE('',(#213),#214,.T.);
#106=PRESENTATION_STYLE_ASSIGNMENT((#215));
#107=ADVANCED_FACE('',(#216),#217,.T.);
#108=PRESENTATION_STYLE_ASSIGNMENT((#218));
#109=ADVANCED_FACE('',(#219),#220,.T.);
#110=PRESENTATION_STYLE_ASSIGNMENT((#221));
#111=ADVANCED_FACE('',(#222),#223,.F.);
#112=PRESENTATION_STYLE_ASSIGNMENT((#224));
#113=ADVANCED_FACE('',(#225),#226,.T.);
#114=PRESENTATION_STYLE_ASSIGNMENT((#227));
#115=ADVANCED_FACE('',(#228),#229,.T.);
#116=PRESENTATION_STYLE_ASSIGNMENT((#230));
#117=ADVANCED_FACE('',(#231),#232,.F.);
#118=PRESENTATION_STYLE_ASSIGNMENT((#233));
#119=ADVANCED_FACE('',(#234),#235,.T.);
#120=PRESENTATION_STYLE_ASSIGNMENT((#236));
#121=MANIFOLD_SOLID_BREP('1260112',#237);
#122=PRODUCT('1260112','1260112','PART-1260112-DESC',(#238));
#123=PRODUCT_DEFINITION('NONE','NONE',#239,#2);
#124=AXIS2_PLACEMENT_3D('',#240,#241,#242);
#127=LENGTH_MEASURE_WITH_UNIT(LENGTH_MEASURE(1.0),#243);
#130=DIMENSIONAL_EXPONENTS(1.0,0.0,0.0,0.0,0.0,0.0,0.0);
#132=DIMENSIONAL_EXPONENTS(0.0,0.0,0.0,0.0,0.0,0.0,0.0);
#138=SURFACE_STYLE_USAGE(.BOTH.,#244);
#139=FACE_OUTER_BOUND('',#245,.T.);
#140=CONICAL_SURFACE('',#246,22.9756807213655,0.471238898038469);
#141=SURFACE_STYLE_USAGE(.BOTH.,#247);
#142=FACE_OUTER_BOUND('',#248,.T.);
#143=CONICAL_SURFACE('',#249,22.9756807213655,0.471238898038469);
#144=SURFACE_STYLE_USAGE(.BOTH.,#250);
#145=FACE_OUTER_BOUND('',#251,.T.);
#146=CONICAL_SURFACE('',#252,11.2289788079003,0.422893277758225);
#147=SURFACE_STYLE_USAGE(.BOTH.,#253);
#148=FACE_OUTER_BOUND('',#254,.T.);
#149=CONICAL_SURFACE('',#255,11.2289788079003,0.422893277758225);
#150=SURFACE_STYLE_USAGE(.BOTH.,#256);
#151=FACE_OUTER_BOUND('',#257,.T.);
#152=CONICAL_SURFACE('',#258,8.43469900707446,0.996844802276561);
#153=SURFACE_STYLE_USAGE(.BOTH.,#259);
#154=FACE_OUTER_BOUND('',#260,.T.);
#155=CONICAL_SURFACE('',#261,8.43469900707446,0.996844802276561);
#156=SURFACE_STYLE_USAGE(.BOTH.,#262);
#157=FACE_OUTER_BOUND('',#263,.T.);
#158=CONICAL_SURFACE('',#264,5.96325,0.785398163397447);
#159=SURFACE_STYLE_USAGE(.BOTH.,#265);
#160=FACE_OUTER_BOUND('',#266,.T.);
#161=CYLINDRICAL_SURFACE('',#267,4.9265);
#162=SURFACE_STYLE_USAGE(.BOTH.,#268);
#163=FACE_OUTER_BOUND('',#269,.T.);
#164=CONICAL_SURFACE('',#270,5.96325,0.785398163397448);
#165=SURFACE_STYLE_USAGE(.BOTH.,#271);
#166=FACE_OUTER_BOUND('',#272,.T.);
#167=CONICAL_SURFACE('',#273,5.96325,0.785398163397448);
#168=SURFACE_STYLE_USAGE(.BOTH.,#274);
#169=FACE_OUTER_BOUND('',#275,.T.);
#170=CYLINDRICAL_SURFACE('',#276,4.9265);
#171=SURFACE_STYLE_USAGE(.BOTH.,#277);
#172=FACE_OUTER_BOUND('',#278,.T.);
#173=CONICAL_SURFACE('',#279,5.96325,0.785398163397447);
#174=SURFACE_STYLE_USAGE(.BOTH.,#280);
#175=FACE_OUTER_BOUND('',#281,.T.);
#176=CONICAL_SURFACE('',#282,8.43469900707446,0.996844802276561);
#177=SURFACE_STYLE_USAGE(.BOTH.,#283);
#178=FACE_OUTER_BOUND('',#284,.T.);
#179=CONICAL_SURFACE('',#285,8.43469900707446,0.996844802276561);
#180=SURFACE_STYLE_USAGE(.BOTH.,#286);
#181=FACE_OUTER_BOUND('',#287,.T.);
#182=CONICAL_SURFACE('',#288,11.2289788079003,0.422893277758225);
#183=SURFACE_STYLE_USAGE(.BOTH.,#289);
#184=FACE_OUTER_BOUND('',#290,.T.);
#185=CONICAL_SURFACE('',#291,11.2289788079003,0.422893277758225);
#186=SURFACE_STYLE_USAGE(.BOTH.,#292);
#187=FACE_BOUND('',#293,.T.);
#188=FACE_OUTER_BOUND('',#294,.T.);
#189=PLANE('',#295);
#190=SURFACE_STYLE_USAGE(.BOTH.,#296);
#191=FACE_OUTER_BOUND('',#297,.T.);
#192=PLANE('',#298);
#193=SURFACE_STYLE_USAGE(.BOTH.,#299);
#194=FACE_OUTER_BOUND('',#300,.T.);
#195=PLANE('',#301);
#196=SURFACE_STYLE_USAGE(.BOTH.,#302);
#197=FACE_OUTER_BOUND('',#303,.T.);
#198=PLANE('',#304);
#199=SURFACE_STYLE_USAGE(.BOTH.,#305);
#200=FACE_BOUND('',#306,.T.);
#201=FACE_OUTER_BOUND('',#307,.T.);
#202=PLANE('',#308);
#203=SURFACE_STYLE_USAGE(.BOTH.,#309);
#204=FACE_OUTER_BOUND('',#310,.T.);
#205=PLANE('',#311);
#206=SURFACE_STYLE_USAGE(.BOTH.,#312);
#207=FACE_OUTER_BOUND('',#313,.T.);
#208=CYLINDRICAL_SURFACE('',#314,39.42);
#209=SURFACE_STYLE_USAGE(.BOTH.,#315);
#210=FACE_OUTER_BOUND('',#316,.T.);
#211=CYLINDRICAL_SURFACE('',#317,39.42);
#212=SURFACE_STYLE_USAGE(.BOTH.,#318);
#213=FACE_OUTER_BOUND('',#319,.T.);
#214=CYLINDRICAL_SURFACE('',#320,39.4199999999999);
#215=SURFACE_STYLE_USAGE(.BOTH.,#321);
#216=FACE_OUTER_BOUND('',#322,.T.);
#217=CONICAL_SURFACE('',#323,22.9756807213655,0.471238898038469);
#218=SURFACE_STYLE_USAGE(.BOTH.,#324);
#219=FACE_OUTER_BOUND('',#325,.T.);
#220=CONICAL_SURFACE('',#326,22.9756807213655,0.471238898038469);
#221=SURFACE_STYLE_USAGE(.BOTH.,#327);
#222=FACE_OUTER_BOUND('',#328,.T.);
#223=PLANE('',#329);
#224=SURFACE_STYLE_USAGE(.BOTH.,#330);
#225=FACE_OUTER_BOUND('',#331,.T.);
#226=CYLINDRICAL_SURFACE('',#332,59.5549999999997);
#227=SURFACE_STYLE_USAGE(.BOTH.,#333);
#228=FACE_OUTER_BOUND('',#334,.T.);
#229=CYLINDRICAL_SURFACE('',#335,39.4199999999999);
#230=SURFACE_STYLE_USAGE(.BOTH.,#336);
#231=FACE_OUTER_BOUND('',#337,.T.);
#232=PLANE('',#338);
#233=SURFACE_STYLE_USAGE(.BOTH.,#339);
#234=FACE_OUTER_BOUND('',#340,.T.);
#235=CYLINDRICAL_SURFACE('',#341,59.5549999999997);
#236=SURFACE_STYLE_USAGE(.BOTH.,#342);
#237=CLOSED_SHELL('',(#57,#59,#61,#63,#65,#67,#69,#71,#73,#75,#77,#79,#81,#83,#85,#87,#89,#91,#93,#95,#97,#99,#101,#103,#105,#107,#109,#111,#113,#115,#117,#119));
#238=PRODUCT_CONTEXT('',#43,'mechanical');
#239=PRODUCT_DEFINITION_FORMATION_WITH_SPECIFIED_SOURCE(' ','NONE',#122,.NOT_KNOWN.);
#240=CARTESIAN_POINT('',(0.0,0.0,0.0));
#241=DIRECTION('',(0.0,0.0,1.0));
#242=DIRECTION('',(1.0,0.0,0.0));
#243= (NAMED_UNIT(#130)LENGTH_UNIT()SI_UNIT(.MILLI.,.METRE.));
#244=SURFACE_SIDE_STYLE('',(#344));
#245=EDGE_LOOP('',(#345,#346,#347,#348));
#246=AXIS2_PLACEMENT_3D('',#349,#350,#351);
#247=SURFACE_SIDE_STYLE('',(#352));
#248=EDGE_LOOP('',(#353,#354,#355,#356));
#249=AXIS2_PLACEMENT_3D('',#357,#358,#359);
#250=SURFACE_SIDE_STYLE('',(#360));
#251=EDGE_LOOP('',(#361,#362,#363,#364));
#252=AXIS2_PLACEMENT_3D('',#365,#366,#367);
#253=SURFACE_SIDE_STYLE('',(#368));
#254=EDGE_LOOP('',(#369,#370,#371,#372));
#255=AXIS2_PLACEMENT_3D('',#373,#374,#375);
#256=SURFACE_SIDE_STYLE('',(#376));
#257=EDGE_LOOP('',(#377,#378,#379,#380));
#258=AXIS2_PLACEMENT_3D('',#381,#382,#383);
#259=SURFACE_SIDE_STYLE('',(#384));
#260=EDGE_LOOP('',(#385,#386,#387,#388));
#261=AXIS2_PLACEMENT_3D('',#389,#390,#391);
#262=SURFACE_SIDE_STYLE('',(#392));
#263=EDGE_LOOP('',(#393,#394,#395,#396));
#264=AXIS2_PLACEMENT_3D('',#397,#398,#399);
#265=SURFACE_SIDE_STYLE('',(#400));
#266=EDGE_LOOP('',(#401,#402,#403,#404));
#267=AXIS2_PLACEMENT_3D('',#405,#406,#407);
#268=SURFACE_SIDE_STYLE('',(#408));
#269=EDGE_LOOP('',(#409,#410,#411,#412));
#270=AXIS2_PLACEMENT_3D('',#413,#414,#415);
#271=SURFACE_SIDE_STYLE('',(#416));
#272=EDGE_LOOP('',(#417,#418,#419,#420));
#273=AXIS2_PLACEMENT_3D('',#421,#422,#423);
#274=SURFACE_SIDE_STYLE('',(#424));
#275=EDGE_LOOP('',(#425,#426,#427,#428));
#276=AXIS2_PLACEMENT_3D('',#429,#430,#431);
#277=SURFACE_SIDE_STYLE('',(#432));
#278=EDGE_LOOP('',(#433,#434,#435,#436));
#279=AXIS2_PLACEMENT_3D('',#437,#438,#439);
#280=SURFACE_SIDE_STYLE('',(#440));
#281=EDGE_LOOP('',(#441,#442,#443,#444));
#282=AXIS2_PLACEMENT_3D('',#445,#446,#447);
#283=SURFACE_SIDE_STYLE('',(#448));
#284=EDGE_LOOP('',(#449,#450,#451,#452));
#285=AXIS2_PLACEMENT_3D('',#453,#454,#455);
#286=SURFACE_SIDE_STYLE('',(#456));
#287=EDGE_LOOP('',(#457,#458,#459,#460));
#288=AXIS2_PLACEMENT_3D('',#461,#462,#463);
#289=SURFACE_SIDE_STYLE('',(#464));
#290=EDGE_LOOP('',(#465,#466,#467,#468));
#291=AXIS2_PLACEMENT_3D('',#469,#470,#471);
#292=SURFACE_SIDE_STYLE('',(#472));
#293=EDGE_LOOP('',(#473,#474));
#294=EDGE_LOOP('',(#475,#476,#477,#478,#479,#480,#481,#482,#483,#484));
#295=AXIS2_PLACEMENT_3D('',#485,#486,#487);
#296=SURFACE_SIDE_STYLE('',(#488));
#297=EDGE_LOOP('',(#489,#490,#491,#492,#493,#494,#495,#496,#497));
#298=AXIS2_PLACEMENT_3D('',#498,#499,#500);
#299=SURFACE_SIDE_STYLE('',(#501));
#300=EDGE_LOOP('',(#502,#503,#504,#505,#506,#507,#508,#509,#510));
#301=AXIS2_PLACEMENT_3D('',#511,#512,#513);
#302=SURFACE_SIDE_STYLE('',(#514));
#303=EDGE_LOOP('',(#515,#516,#517,#518,#519,#520,#521,#522,#523));
#304=AXIS2_PLACEMENT_3D('',#524,#525,#526);
#305=SURFACE_SIDE_STYLE('',(#527));
#306=EDGE_LOOP('',(#528,#529));
#307=EDGE_LOOP('',(#530,#531,#532,#533,#534,#535,#536,#537,#538,#539));
#308=AXIS2_PLACEMENT_3D('',#540,#541,#542);
#309=SURFACE_SIDE_STYLE('',(#543));
#310=EDGE_LOOP('',(#544,#545,#546,#547,#548,#549,#550,#551,#552));
#311=AXIS2_PLACEMENT_3D('',#553,#554,#555);
#312=SURFACE_SIDE_STYLE('',(#556));
#313=EDGE_LOOP('',(#557,#558,#559,#560,#561));
#314=AXIS2_PLACEMENT_3D('',#562,#563,#564);
#315=SURFACE_SIDE_STYLE('',(#565));
#316=EDGE_LOOP('',(#566,#567,#568,#569,#570));
#317=AXIS2_PLACEMENT_3D('',#571,#572,#573);
#318=SURFACE_SIDE_STYLE('',(#574));
#319=EDGE_LOOP('',(#575,#576,#577,#578,#579));
#320=AXIS2_PLACEMENT_3D('',#580,#581,#582);
#321=SURFACE_SIDE_STYLE('',(#583));
#322=EDGE_LOOP('',(#584,#585,#586,#587));
#323=AXIS2_PLACEMENT_3D('',#588,#589,#590);
#324=SURFACE_SIDE_STYLE('',(#591));
#325=EDGE_LOOP('',(#592,#593,#594,#595));
#326=AXIS2_PLACEMENT_3D('',#596,#597,#598);
#327=SURFACE_SIDE_STYLE('',(#599));
#328=EDGE_LOOP('',(#600,#601,#602,#603));
#329=AXIS2_PLACEMENT_3D('',#604,#605,#606);
#330=SURFACE_SIDE_STYLE('',(#607));
#331=EDGE_LOOP('',(#608,#609,#610,#611));
#332=AXIS2_PLACEMENT_3D('',#612,#613,#614);
#333=SURFACE_SIDE_STYLE('',(#615));
#334=EDGE_LOOP('',(#616,#617,#618,#619,#620));
#335=AXIS2_PLACEMENT_3D('',#621,#622,#623);
#336=SURFACE_SIDE_STYLE('',(#624));
#337=EDGE_LOOP('',(#625,#626,#627,#628));
#338=AXIS2_PLACEMENT_3D('',#629,#630,#631);
#339=SURFACE_SIDE_STYLE('',(#632));
#340=EDGE_LOOP('',(#633,#634,#635,#636));
#341=AXIS2_PLACEMENT_3D('',#637,#638,#639);
#342=SURFACE_SIDE_STYLE('',(#640));
#344=SURFACE_STYLE_FILL_AREA(#641);
#345=ORIENTED_EDGE('',*,*,#642,.F.);
#346=ORIENTED_EDGE('',*,*,#643,.T.);
#347=ORIENTED_EDGE('',*,*,#644,.T.);
#348=ORIENTED_EDGE('',*,*,#645,.T.);
#349=CARTESIAN_POINT('',(-1.00170044149402,0.0,0.0));
#350=DIRECTION('',(-1.0,0.0,-0.0));
#351=DIRECTION('',(0.0,1.0,-2.44921270764475E-016));
#352=SURFACE_STYLE_FILL_AREA(#646);
#353=ORIENTED_EDGE('',*,*,#647,.F.);
#354=ORIENTED_EDGE('',*,*,#648,.T.);
#355=ORIENTED_EDGE('',*,*,#649,.T.);
#356=ORIENTED_EDGE('',*,*,#650,.T.);
#357=CARTESIAN_POINT('',(-1.00170044149402,0.0,0.0));
#358=DIRECTION('',(-1.0,0.0,-0.0));
#359=DIRECTION('',(0.0,1.0,-2.44921270764475E-016));
#360=SURFACE_STYLE_FILL_AREA(#651);
#361=ORIENTED_EDGE('',*,*,#652,.F.);
#362=ORIENTED_EDGE('',*,*,#653,.F.);
#363=ORIENTED_EDGE('',*,*,#654,.F.);
#364=ORIENTED_EDGE('',*,*,#655,.T.);
#365=CARTESIAN_POINT('',(5.7228168870582,0.0,-7.105427357601E-015));
#366=DIRECTION('',(1.0,0.0,-0.0));
#367=DIRECTION('',(0.0,-2.44921270764475E-016,-1.0));
#368=SURFACE_STYLE_FILL_AREA(#656);
#369=ORIENTED_EDGE('',*,*,#657,.F.);
#370=ORIENTED_EDGE('',*,*,#658,.T.);
#371=ORIENTED_EDGE('',*,*,#659,.F.);
#372=ORIENTED_EDGE('',*,*,#660,.F.);
#373=CARTESIAN_POINT('',(5.7228168870582,0.0,-7.105427357601E-015));
#374=DIRECTION('',(1.0,0.0,-0.0));
#375=DIRECTION('',(0.0,-2.44921270764475E-016,-1.0));
#376=SURFACE_STYLE_FILL_AREA(#661);
#377=ORIENTED_EDGE('',*,*,#662,.F.);
#378=ORIENTED_EDGE('',*,*,#663,.F.);
#379=ORIENTED_EDGE('',*,*,#664,.F.);
#380=ORIENTED_EDGE('',*,*,#653,.T.);
#381=CARTESIAN_POINT('',(0.338316887058199,0.0,-7.105427357601E-015));
#382=DIRECTION('',(1.0,0.0,-0.0));
#383=DIRECTION('',(0.0,-2.44921270764475E-016,-1.0));
#384=SURFACE_STYLE_FILL_AREA(#665);
#385=ORIENTED_EDGE('',*,*,#666,.F.);
#386=ORIENTED_EDGE('',*,*,#660,.T.);
#387=ORIENTED_EDGE('',*,*,#667,.F.);
#388=ORIENTED_EDGE('',*,*,#668,.F.);
#389=CARTESIAN_POINT('',(0.338316887058199,0.0,-7.105427357601E-015));
#390=DIRECTION('',(1.0,0.0,-0.0));
#391=DIRECTION('',(0.0,-2.44921270764475E-016,-1.0));
#392=SURFACE_STYLE_FILL_AREA(#669);
#393=ORIENTED_EDGE('',*,*,#670,.F.);
#394=ORIENTED_EDGE('',*,*,#671,.F.);
#395=ORIENTED_EDGE('',*,*,#672,.F.);
#396=ORIENTED_EDGE('',*,*,#673,.F.);
#397=CARTESIAN_POINT('',(0.0367500000000014,0.0,0.0));
#398=DIRECTION('',(-1.0,0.0,-0.0));
#399=DIRECTION('',(0.0,1.0,-2.44921270764475E-016));
#400=SURFACE_STYLE_FILL_AREA(#674);
#401=ORIENTED_EDGE('',*,*,#675,.F.);
#402=ORIENTED_EDGE('',*,*,#673,.T.);
#403=ORIENTED_EDGE('',*,*,#676,.F.);
#404=ORIENTED_EDGE('',*,*,#677,.F.);
#405=CARTESIAN_POINT('',(5.3845,0.0,0.0));
#406=DIRECTION('',(-1.0,0.0,0.0));
#407=DIRECTION('',(0.0,1.0,-2.44921270764475E-016));
#408=SURFACE_STYLE_FILL_AREA(#678);
#409=ORIENTED_EDGE('',*,*,#679,.F.);
#410=ORIENTED_EDGE('',*,*,#677,.T.);
#411=ORIENTED_EDGE('',*,*,#680,.F.);
#412=ORIENTED_EDGE('',*,*,#681,.F.);
#413=CARTESIAN_POINT('',(10.73225,0.0,0.0));
#414=DIRECTION('',(1.0,-0.0,-0.0));
#415=DIRECTION('',(0.0,1.0,-2.44921270764475E-016));
#416=SURFACE_STYLE_FILL_AREA(#682);
#417=ORIENTED_EDGE('',*,*,#679,.T.);
#418=ORIENTED_EDGE('',*,*,#683,.F.);
#419=ORIENTED_EDGE('',*,*,#680,.T.);
#420=ORIENTED_EDGE('',*,*,#684,.T.);
#421=CARTESIAN_POINT('',(10.73225,0.0,0.0));
#422=DIRECTION('',(1.0,-0.0,-0.0));
#423=DIRECTION('',(0.0,1.0,-2.44921270764475E-016));
#424=SURFACE_STYLE_FILL_AREA(#685);
#425=ORIENTED_EDGE('',*,*,#675,.T.);
#426=ORIENTED_EDGE('',*,*,#684,.F.);
#427=ORIENTED_EDGE('',*,*,#676,.T.);
#428=ORIENTED_EDGE('',*,*,#686,.T.);
#429=CARTESIAN_POINT('',(5.3845,0.0,0.0));
#430=DIRECTION('',(-1.0,0.0,0.0));
#431=DIRECTION('',(0.0,1.0,-2.44921270764475E-016));
#432=SURFACE_STYLE_FILL_AREA(#687);
#433=ORIENTED_EDGE('',*,*,#670,.T.);
#434=ORIENTED_EDGE('',*,*,#686,.F.);
#435=ORIENTED_EDGE('',*,*,#672,.T.);
#436=ORIENTED_EDGE('',*,*,#688,.F.);
#437=CARTESIAN_POINT('',(0.0367500000000014,0.0,0.0));
#438=DIRECTION('',(-1.0,0.0,-0.0));
#439=DIRECTION('',(0.0,1.0,-2.44921270764475E-016));
#440=SURFACE_STYLE_FILL_AREA(#689);
#441=ORIENTED_EDGE('',*,*,#666,.T.);
#442=ORIENTED_EDGE('',*,*,#690,.F.);
#443=ORIENTED_EDGE('',*,*,#691,.F.);
#444=ORIENTED_EDGE('',*,*,#692,.T.);
#445=CARTESIAN_POINT('',(0.338316887058199,0.0,-7.105427357601E-015));
#446=DIRECTION('',(1.0,0.0,-0.0));
#447=DIRECTION('',(0.0,-2.44921270764475E-016,-1.0));
#448=SURFACE_STYLE_FILL_AREA(#693);
#449=ORIENTED_EDGE('',*,*,#662,.T.);
#450=ORIENTED_EDGE('',*,*,#694,.T.);
#451=ORIENTED_EDGE('',*,*,#695,.F.);
#452=ORIENTED_EDGE('',*,*,#696,.F.);
#453=CARTESIAN_POINT('',(0.338316887058199,0.0,-7.105427357601E-015));
#454=DIRECTION('',(1.0,0.0,-0.0));
#455=DIRECTION('',(0.0,-2.44921270764475E-016,-1.0));
#456=SURFACE_STYLE_FILL_AREA(#697);
#457=ORIENTED_EDGE('',*,*,#657,.T.);
#458=ORIENTED_EDGE('',*,*,#692,.F.);
#459=ORIENTED_EDGE('',*,*,#698,.F.);
#460=ORIENTED_EDGE('',*,*,#699,.T.);
#461=CARTESIAN_POINT('',(5.7228168870582,0.0,-7.105427357601E-015));
#462=DIRECTION('',(1.0,0.0,-0.0));
#463=DIRECTION('',(0.0,-2.44921270764475E-016,-1.0));
#464=SURFACE_STYLE_FILL_AREA(#700);
#465=ORIENTED_EDGE('',*,*,#652,.T.);
#466=ORIENTED_EDGE('',*,*,#701,.T.);
#467=ORIENTED_EDGE('',*,*,#702,.F.);
#468=ORIENTED_EDGE('',*,*,#694,.F.);
#469=CARTESIAN_POINT('',(5.7228168870582,0.0,-7.105427357601E-015));
#470=DIRECTION('',(1.0,0.0,-0.0));
#471=DIRECTION('',(0.0,-2.44921270764475E-016,-1.0));
#472=SURFACE_STYLE_FILL_AREA(#703);
#473=ORIENTED_EDGE('',*,*,#671,.T.);
#474=ORIENTED_EDGE('',*,*,#688,.T.);
#475=ORIENTED_EDGE('',*,*,#704,.T.);
#476=ORIENTED_EDGE('',*,*,#705,.F.);
#477=ORIENTED_EDGE('',*,*,#706,.T.);
#478=ORIENTED_EDGE('',*,*,#663,.T.);
#479=ORIENTED_EDGE('',*,*,#696,.T.);
#480=ORIENTED_EDGE('',*,*,#707,.T.);
#481=ORIENTED_EDGE('',*,*,#708,.T.);
#482=ORIENTED_EDGE('',*,*,#709,.T.);
#483=ORIENTED_EDGE('',*,*,#690,.T.);
#484=ORIENTED_EDGE('',*,*,#668,.T.);
#485=CARTESIAN_POINT('',(-3.90798504668055E-014,-8.65344039834814,100.0));
#486=DIRECTION('',(1.0,0.0,0.0));
#487=DIRECTION('',(0.0,-1.0,0.0));
#488=SURFACE_STYLE_FILL_AREA(#710);
#489=ORIENTED_EDGE('',*,*,#695,.T.);
#490=ORIENTED_EDGE('',*,*,#702,.T.);
#491=ORIENTED_EDGE('',*,*,#711,.F.);
#492=ORIENTED_EDGE('',*,*,#712,.F.);
#493=ORIENTED_EDGE('',*,*,#713,.F.);
#494=ORIENTED_EDGE('',*,*,#714,.F.);
#495=ORIENTED_EDGE('',*,*,#715,.F.);
#496=ORIENTED_EDGE('',*,*,#716,.F.);
#497=ORIENTED_EDGE('',*,*,#707,.F.);
#498=CARTESIAN_POINT('',(27.0,-54.0,2.70000000000001));
#499=DIRECTION('',(0.0,-1.52141673744929E-016,-1.0));
#500=DIRECTION('',(0.0,-1.0,1.52141673744929E-016));
#501=SURFACE_STYLE_FILL_AREA(#717);
#502=ORIENTED_EDGE('',*,*,#691,.T.);
#503=ORIENTED_EDGE('',*,*,#709,.F.);
#504=ORIENTED_EDGE('',*,*,#718,.F.);
#505=ORIENTED_EDGE('',*,*,#719,.F.);
#506=ORIENTED_EDGE('',*,*,#720,.F.);
#507=ORIENTED_EDGE('',*,*,#644,.F.);
#508=ORIENTED_EDGE('',*,*,#721,.F.);
#509=ORIENTED_EDGE('',*,*,#722,.F.);
#510=ORIENTED_EDGE('',*,*,#698,.T.);
#511=CARTESIAN_POINT('',(27.0,54.0,-2.7));
#512=DIRECTION('',(0.0,2.46716227694479E-017,1.0));
#513=DIRECTION('',(0.0,1.0,-2.46716227694479E-017));
#514=SURFACE_STYLE_FILL_AREA(#723);
#515=ORIENTED_EDGE('',*,*,#667,.T.);
#516=ORIENTED_EDGE('',*,*,#659,.T.);
#517=ORIENTED_EDGE('',*,*,#724,.F.);
#518=ORIENTED_EDGE('',*,*,#725,.F.);
#519=ORIENTED_EDGE('',*,*,#649,.F.);
#520=ORIENTED_EDGE('',*,*,#726,.F.);
#521=ORIENTED_EDGE('',*,*,#727,.F.);
#522=ORIENTED_EDGE('',*,*,#728,.F.);
#523=ORIENTED_EDGE('',*,*,#704,.F.);
#524=CARTESIAN_POINT('',(27.0,54.0,-2.7));
#525=DIRECTION('',(0.0,2.46716227694479E-017,1.0));
#526=DIRECTION('',(0.0,1.0,-2.46716227694479E-017));
#527=SURFACE_STYLE_FILL_AREA(#729);
#528=ORIENTED_EDGE('',*,*,#683,.T.);
#529=ORIENTED_EDGE('',*,*,#681,.T.);
#530=ORIENTED_EDGE('',*,*,#730,.T.);
#531=ORIENTED_EDGE('',*,*,#711,.T.);
#532=ORIENTED_EDGE('',*,*,#701,.F.);
#533=ORIENTED_EDGE('',*,*,#655,.F.);
#534=ORIENTED_EDGE('',*,*,#731,.T.);
#535=ORIENTED_EDGE('',*,*,#732,.T.);
#536=ORIENTED_EDGE('',*,*,#724,.T.);
#537=ORIENTED_EDGE('',*,*,#658,.F.);
#538=ORIENTED_EDGE('',*,*,#699,.F.);
#539=ORIENTED_EDGE('',*,*,#722,.T.);
#540=CARTESIAN_POINT('',(10.769,8.53910464402447,-2.09140836060531E-015));
#541=DIRECTION('',(1.0,1.05245574876124E-016,-2.57768799409981E-032));
#542=DIRECTION('',(1.05245574876124E-016,-1.0,2.44921270764475E-016));
#543=SURFACE_STYLE_FILL_AREA(#733);
#544=ORIENTED_EDGE('',*,*,#664,.T.);
#545=ORIENTED_EDGE('',*,*,#706,.F.);
#546=ORIENTED_EDGE('',*,*,#734,.F.);
#547=ORIENTED_EDGE('',*,*,#735,.F.);
#548=ORIENTED_EDGE('',*,*,#736,.F.);
#549=ORIENTED_EDGE('',*,*,#737,.F.);
#550=ORIENTED_EDGE('',*,*,#738,.F.);
#551=ORIENTED_EDGE('',*,*,#731,.F.);
#552=ORIENTED_EDGE('',*,*,#654,.T.);
#553=CARTESIAN_POINT('',(27.0,-54.0,2.70000000000001));
#554=DIRECTION('',(0.0,-1.52141673744929E-016,-1.0));
#555=DIRECTION('',(0.0,-1.0,1.52141673744929E-016));
#556=SURFACE_STYLE_FILL_AREA(#739);
#557=ORIENTED_EDGE('',*,*,#714,.T.);
#558=ORIENTED_EDGE('',*,*,#740,.F.);
#559=ORIENTED_EDGE('',*,*,#645,.F.);
#560=ORIENTED_EDGE('',*,*,#720,.T.);
#561=ORIENTED_EDGE('',*,*,#741,.F.);
#562=CARTESIAN_POINT('',(-20.0967545692474,-11.0202282793408,100.0));
#563=DIRECTION('',(0.0,0.0,-1.0));
#564=DIRECTION('',(0.196889135228517,0.980425758754311,0.0));
#565=SURFACE_STYLE_FILL_AREA(#742);
#566=ORIENTED_EDGE('',*,*,#712,.T.);
#567=ORIENTED_EDGE('',*,*,#730,.F.);
#568=ORIENTED_EDGE('',*,*,#721,.T.);
#569=ORIENTED_EDGE('',*,*,#643,.F.);
#570=ORIENTED_EDGE('',*,*,#743,.F.);
#571=CARTESIAN_POINT('',(-20.0967545692474,-11.0202282793408,100.0));
#572=DIRECTION('',(0.0,0.0,-1.0));
#573=DIRECTION('',(0.196889135228517,0.980425758754311,0.0));
#574=SURFACE_STYLE_FILL_AREA(#744);
#575=ORIENTED_EDGE('',*,*,#738,.T.);
#576=ORIENTED_EDGE('',*,*,#745,.F.);
#577=ORIENTED_EDGE('',*,*,#650,.F.);
#578=ORIENTED_EDGE('',*,*,#725,.T.);
#579=ORIENTED_EDGE('',*,*,#732,.F.);
#580=CARTESIAN_POINT('',(-20.0967545692473,11.0202282793408,100.0));
#581=DIRECTION('',(0.0,0.0,-1.0));
#582=DIRECTION('',(0.782997325450211,-0.622025070505857,0.0));
#583=SURFACE_STYLE_FILL_AREA(#746);
#584=ORIENTED_EDGE('',*,*,#647,.T.);
#585=ORIENTED_EDGE('',*,*,#745,.T.);
#586=ORIENTED_EDGE('',*,*,#737,.T.);
#587=ORIENTED_EDGE('',*,*,#747,.T.);
#588=CARTESIAN_POINT('',(-1.00170044149402,0.0,0.0));
#589=DIRECTION('',(-1.0,0.0,-0.0));
#590=DIRECTION('',(0.0,1.0,-2.44921270764475E-016));
#591=SURFACE_STYLE_FILL_AREA(#748);
#592=ORIENTED_EDGE('',*,*,#642,.T.);
#593=ORIENTED_EDGE('',*,*,#740,.T.);
#594=ORIENTED_EDGE('',*,*,#713,.T.);
#595=ORIENTED_EDGE('',*,*,#743,.T.);
#596=CARTESIAN_POINT('',(-1.00170044149402,0.0,0.0));
#597=DIRECTION('',(-1.0,0.0,-0.0));
#598=DIRECTION('',(0.0,1.0,-2.44921270764475E-016));
#599=SURFACE_STYLE_FILL_AREA(#749);
#600=ORIENTED_EDGE('',*,*,#715,.T.);
#601=ORIENTED_EDGE('',*,*,#741,.T.);
#602=ORIENTED_EDGE('',*,*,#719,.T.);
#603=ORIENTED_EDGE('',*,*,#750,.F.);
#604=CARTESIAN_POINT('',(-17.633,17.2309999999999,100.0));
#605=DIRECTION('',(0.891006524188368,-0.453990499739547,0.0));
#606=DIRECTION('',(-0.453990499739547,-0.891006524188368,0.0));
#607=SURFACE_STYLE_FILL_AREA(#751);
#608=ORIENTED_EDGE('',*,*,#716,.T.);
#609=ORIENTED_EDGE('',*,*,#750,.T.);
#610=ORIENTED_EDGE('',*,*,#718,.T.);
#611=ORIENTED_EDGE('',*,*,#708,.F.);
#612=CARTESIAN_POINT('',(16.8797111268721,65.7662531225813,100.0));
#613=DIRECTION('',(-0.0,0.0,-1.0));
#614=DIRECTION('',(-0.283430629281708,-0.958992741570537,0.0));
#615=SURFACE_STYLE_FILL_AREA(#752);
#616=ORIENTED_EDGE('',*,*,#736,.T.);
#617=ORIENTED_EDGE('',*,*,#753,.T.);
#618=ORIENTED_EDGE('',*,*,#726,.T.);
#619=ORIENTED_EDGE('',*,*,#648,.F.);
#620=ORIENTED_EDGE('',*,*,#747,.F.);
#621=CARTESIAN_POINT('',(-20.0967545692473,11.0202282793408,100.0));
#622=DIRECTION('',(0.0,0.0,-1.0));
#623=DIRECTION('',(0.782997325450211,-0.622025070505857,0.0));
#624=SURFACE_STYLE_FILL_AREA(#754);
#625=ORIENTED_EDGE('',*,*,#735,.T.);
#626=ORIENTED_EDGE('',*,*,#755,.T.);
#627=ORIENTED_EDGE('',*,*,#727,.T.);
#628=ORIENTED_EDGE('',*,*,#753,.F.);
#629=CARTESIAN_POINT('',(-12.3353848585392,-27.6281551307541,100.0));
#630=DIRECTION('',(0.891006524188368,0.453990499739547,0.0));
#631=DIRECTION('',(0.453990499739547,-0.891006524188368,0.0));
#632=SURFACE_STYLE_FILL_AREA(#756);
#633=ORIENTED_EDGE('',*,*,#734,.T.);
#634=ORIENTED_EDGE('',*,*,#705,.T.);
#635=ORIENTED_EDGE('',*,*,#728,.T.);
#636=ORIENTED_EDGE('',*,*,#755,.F.);
#637=CARTESIAN_POINT('',(16.8797111268726,-65.766253122581,100.0));
#638=DIRECTION('',(0.0,0.0,-1.0));
#639=DIRECTION('',(-0.579509883752377,0.814965210688963,0.0));
#640=SURFACE_STYLE_FILL_AREA(#757);
#641=FILL_AREA_STYLE('',(#758));
#642=EDGE_CURVE('',#759,#760,#761,.T.);
#643=EDGE_CURVE('',#759,#762,#763,.T.);
#644=EDGE_CURVE('',#762,#764,#765,.T.);
#645=EDGE_CURVE('',#764,#760,#766,.T.);
#646=FILL_AREA_STYLE('',(#767));
#647=EDGE_CURVE('',#768,#769,#770,.T.);
#648=EDGE_CURVE('',#768,#771,#772,.T.);
#649=EDGE_CURVE('',#771,#773,#774,.T.);
#650=EDGE_CURVE('',#773,#769,#775,.T.);
#651=FILL_AREA_STYLE('',(#776));
#652=EDGE_CURVE('',#777,#778,#779,.T.);
#653=EDGE_CURVE('',#780,#777,#781,.T.);
#654=EDGE_CURVE('',#782,#780,#783,.T.);
#655=EDGE_CURVE('',#782,#778,#784,.T.);
#656=FILL_AREA_STYLE('',(#785));
#657=EDGE_CURVE('',#786,#787,#788,.T.);
#658=EDGE_CURVE('',#786,#789,#790,.T.);
#659=EDGE_CURVE('',#791,#789,#792,.T.);
#660=EDGE_CURVE('',#787,#791,#793,.T.);
#661=FILL_AREA_STYLE('',(#794));
#662=EDGE_CURVE('',#795,#777,#796,.T.);
#663=EDGE_CURVE('',#797,#795,#798,.T.);
#664=EDGE_CURVE('',#780,#797,#799,.T.);
#665=FILL_AREA_STYLE('',(#800));
#666=EDGE_CURVE('',#787,#801,#802,.T.);
#667=EDGE_CURVE('',#803,#791,#804,.T.);
#668=EDGE_CURVE('',#801,#803,#805,.T.);
#669=FILL_AREA_STYLE('',(#806));
#670=EDGE_CURVE('',#807,#808,#809,.T.);
#671=EDGE_CURVE('',#810,#807,#811,.T.);
#672=EDGE_CURVE('',#812,#810,#813,.T.);
#673=EDGE_CURVE('',#808,#812,#814,.T.);
#674=FILL_AREA_STYLE('',(#815));
#675=EDGE_CURVE('',#808,#816,#817,.T.);
#676=EDGE_CURVE('',#818,#812,#819,.T.);
#677=EDGE_CURVE('',#816,#818,#820,.T.);
#678=FILL_AREA_STYLE('',(#821));
#679=EDGE_CURVE('',#816,#822,#823,.T.);
#680=EDGE_CURVE('',#824,#818,#825,.T.);
#681=EDGE_CURVE('',#822,#824,#826,.T.);
#682=FILL_AREA_STYLE('',(#827));
#683=EDGE_CURVE('',#824,#822,#828,.T.);
#684=EDGE_CURVE('',#818,#816,#829,.T.);
#685=FILL_AREA_STYLE('',(#830));
#686=EDGE_CURVE('',#812,#808,#831,.T.);
#687=FILL_AREA_STYLE('',(#832));
#688=EDGE_CURVE('',#807,#810,#833,.T.);
#689=FILL_AREA_STYLE('',(#834));
#690=EDGE_CURVE('',#835,#801,#836,.T.);
#691=EDGE_CURVE('',#837,#835,#838,.T.);
#692=EDGE_CURVE('',#837,#787,#839,.T.);
#693=FILL_AREA_STYLE('',(#840));
#694=EDGE_CURVE('',#777,#841,#842,.T.);
#695=EDGE_CURVE('',#843,#841,#844,.T.);
#696=EDGE_CURVE('',#795,#843,#845,.T.);
#697=FILL_AREA_STYLE('',(#846));
#698=EDGE_CURVE('',#847,#837,#848,.T.);
#699=EDGE_CURVE('',#847,#786,#849,.T.);
#700=FILL_AREA_STYLE('',(#850));
#701=EDGE_CURVE('',#778,#851,#852,.T.);
#702=EDGE_CURVE('',#841,#851,#853,.T.);
#703=FILL_AREA_STYLE('',(#854));
#704=EDGE_CURVE('',#803,#855,#856,.T.);
#705=EDGE_CURVE('',#857,#855,#858,.T.);
#706=EDGE_CURVE('',#857,#797,#859,.T.);
#707=EDGE_CURVE('',#843,#860,#861,.T.);
#708=EDGE_CURVE('',#860,#862,#863,.T.);
#709=EDGE_CURVE('',#862,#835,#864,.T.);
#710=FILL_AREA_STYLE('',(#865));
#711=EDGE_CURVE('',#866,#851,#867,.T.);
#712=EDGE_CURVE('',#868,#866,#869,.T.);
#713=EDGE_CURVE('',#870,#868,#871,.T.);
#714=EDGE_CURVE('',#872,#870,#873,.T.);
#715=EDGE_CURVE('',#874,#872,#875,.T.);
#716=EDGE_CURVE('',#860,#874,#876,.T.);
#717=FILL_AREA_STYLE('',(#877));
#718=EDGE_CURVE('',#878,#862,#879,.T.);
#719=EDGE_CURVE('',#880,#878,#881,.T.);
#720=EDGE_CURVE('',#764,#880,#882,.T.);
#721=EDGE_CURVE('',#883,#762,#884,.T.);
#722=EDGE_CURVE('',#847,#883,#885,.T.);
#723=FILL_AREA_STYLE('',(#886));
#724=EDGE_CURVE('',#887,#789,#888,.T.);
#725=EDGE_CURVE('',#773,#887,#889,.T.);
#726=EDGE_CURVE('',#890,#771,#891,.T.);
#727=EDGE_CURVE('',#892,#890,#893,.T.);
#728=EDGE_CURVE('',#855,#892,#894,.T.);
#729=FILL_AREA_STYLE('',(#895));
#730=EDGE_CURVE('',#883,#866,#896,.T.);
#731=EDGE_CURVE('',#782,#897,#898,.T.);
#732=EDGE_CURVE('',#897,#887,#899,.T.);
#733=FILL_AREA_STYLE('',(#900));
#734=EDGE_CURVE('',#901,#857,#902,.T.);
#735=EDGE_CURVE('',#903,#901,#904,.T.);
#736=EDGE_CURVE('',#905,#903,#906,.T.);
#737=EDGE_CURVE('',#907,#905,#908,.T.);
#738=EDGE_CURVE('',#897,#907,#909,.T.);
#739=FILL_AREA_STYLE('',(#910));
#740=EDGE_CURVE('',#760,#870,#911,.T.);
#741=EDGE_CURVE('',#872,#880,#912,.T.);
#742=FILL_AREA_STYLE('',(#913));
#743=EDGE_CURVE('',#868,#759,#914,.T.);
#744=FILL_AREA_STYLE('',(#915));
#745=EDGE_CURVE('',#769,#907,#916,.T.);
#746=FILL_AREA_STYLE('',(#917));
#747=EDGE_CURVE('',#905,#768,#918,.T.);
#748=FILL_AREA_STYLE('',(#919));
#749=FILL_AREA_STYLE('',(#920));
#750=EDGE_CURVE('',#874,#878,#921,.T.);
#751=FILL_AREA_STYLE('',(#922));
#752=FILL_AREA_STYLE('',(#923));
#753=EDGE_CURVE('',#903,#890,#924,.T.);
#754=FILL_AREA_STYLE('',(#925));
#755=EDGE_CURVE('',#901,#892,#926,.T.);
#756=FILL_AREA_STYLE('',(#927));
#757=FILL_AREA_STYLE('',(#928));
#758=FILL_AREA_STYLE_COLOUR('',#929);
#759=VERTEX_POINT('',#930);
#760=VERTEX_POINT('',#931);
#761=LINE('',#932,#933);
#762=VERTEX_POINT('',#934);
#763=B_SPLINE_CURVE_WITH_KNOTS('',3,(#935,#936,#937,#938,#939,#940,#941,#942,#943,#944,#945,#946,#947,#948,#949,#950,#951,#952,#953,#954,#955,#956,#957,#958,#959,#960,#961,#962,#963,#964,#965,#966,#967,#968),.UNSPECIFIED.,.F.,.F.,(4,2,2,2,2,2,2,2,2,2,2,2,2,2,2,2,4),(1.77473326280108,2.43380764200902,4.86761528401805,7.30142292602707,9.73523056803609,11.4516178125696,13.168005057103,14.8843923016365,16.60077954617,18.3171667907034,20.0335540352369,21.7499412797703,23.4663285243038,25.9001361663128,28.3339438083219,30.7677514503309,31.4268258295257),.UNSPECIFIED.);
#764=VERTEX_POINT('',#969);
#765=(B_SPLINE_CURVE(2,(#971,#972,#973),.UNSPECIFIED.,.F.,.F.)B_SPLINE_CURVE_WITH_KNOTS((3,3),(9.50962453179966,22.6146880457689),.UNSPECIFIED.)RATIONAL_B_SPLINE_CURVE((1.01680114288321,1.02188415746549,1.00906949514647))BOUNDED_CURVE()REPRESENTATION_ITEM('')GEOMETRIC_REPRESENTATION_ITEM()CURVE());
#766=B_SPLINE_CURVE_WITH_KNOTS('',3,(#980,#981,#982,#983,#984,#985,#986,#987,#988,#989,#990,#991,#992,#993,#994,#995,#996,#997,#998,#999,#1000,#1001,#1002,#1003,#1004,#1005),.UNSPECIFIED.,.F.,.F.,(4,2,2,2,2,2,2,2,2,2,2,2,4),(1.45344221612742,3.33624263169779,5.80682125637673,7.04211056871619,8.27739988105566,9.51268919339513,10.7479785057346,11.9832678180741,13.2185571304135,14.453846442753,15.6891357550925,18.1597143797714,20.0425147953535),.UNSPECIFIED.);
#767=FILL_AREA_STYLE_COLOUR('',#1006);
#768=VERTEX_POINT('',#1007);
#769=VERTEX_POINT('',#1008);
#770=LINE('',#1009,#1010);
#771=VERTEX_POINT('',#1011);
#772=B_SPLINE_CURVE_WITH_KNOTS('',3,(#1012,#1013,#1014,#1015,#1016,#1017,#1018,#1019,#1020,#1021,#1022,#1023,#1024,#1025,#1026,#1027,#1028,#1029,#1030,#1031,#1032,#1033,#1034,#1035,#1036,#1037),.UNSPECIFIED.,.F.,.F.,(4,2,2,2,2,2,2,2,2,2,2,2,4),(1.45344221612695,3.33624263169691,5.80682125637582,7.04211056871528,8.27739988105473,9.51268919339419,10.7479785057336,11.9832678180731,13.2185571304126,14.453846442752,15.6891357550915,18.1597143797704,20.0425147953521),.UNSPECIFIED.);
#773=VERTEX_POINT('',#1038);
#774=(B_SPLINE_CURVE(2,(#1040,#1041,#1042),.UNSPECIFIED.,.F.,.F.)B_SPLINE_CURVE_WITH_KNOTS((3,3),(3.84834596384487,16.9534094777088),.UNSPECIFIED.)RATIONAL_B_SPLINE_CURVE((1.00906949514649,1.0218841574654,1.01680114288329))BOUNDED_CURVE()REPRESENTATION_ITEM('')GEOMETRIC_REPRESENTATION_ITEM()CURVE());
#775=B_SPLINE_CURVE_WITH_KNOTS('',3,(#1049,#1050,#1051,#1052,#1053,#1054,#1055,#1056,#1057,#1058,#1059,#1060,#1061,#1062,#1063,#1064,#1065,#1066,#1067,#1068,#1069,#1070,#1071,#1072,#1073,#1074,#1075,#1076,#1077,#1078,#1079,#1080,#1081,#1082),.UNSPECIFIED.,.F.,.F.,(4,2,2,2,2,2,2,2,2,2,2,2,2,2,2,2,4),(1.77473326280291,2.43380764200946,4.86761528401892,7.30142292602837,9.73523056803783,11.4516178125713,13.1680050571049,14.8843923016384,16.6007795461719,18.3171667907054,20.0335540352389,21.7499412797724,23.4663285243059,25.9001361663154,28.3339438083248,30.7677514503343,31.4268258295277),.UNSPECIFIED.);
#776=FILL_AREA_STYLE_COLOUR('',#1083);
#777=VERTEX_POINT('',#1084);
#778=VERTEX_POINT('',#1085);
#779=LINE('',#1086,#1087);
#780=VERTEX_POINT('',#1088);
#781=CIRCLE('',#1089,8.9579576158007);
#782=VERTEX_POINT('',#1090);
#783=(B_SPLINE_CURVE(2,(#1092,#1093,#1094),.UNSPECIFIED.,.F.,.F.)B_SPLINE_CURVE_WITH_KNOTS((3,3),(0.0,11.1271769111754),.UNSPECIFIED.)RATIONAL_B_SPLINE_CURVE((1.0,1.02250516266023,1.0))BOUNDED_CURVE()REPRESENTATION_ITEM('')GEOMETRIC_REPRESENTATION_ITEM()CURVE());
#784=CIRCLE('',#1101,13.5);
#785=FILL_AREA_STYLE_COLOUR('',#1102);
#786=VERTEX_POINT('',#1103);
#787=VERTEX_POINT('',#1104);
#788=LINE('',#1105,#1106);
#789=VERTEX_POINT('',#1107);
#790=CIRCLE('',#1108,13.5);
#791=VERTEX_POINT('',#1109);
#792=(B_SPLINE_CURVE(2,(#1111,#1112,#1113),.UNSPECIFIED.,.F.,.F.)B_SPLINE_CURVE_WITH_KNOTS((3,3),(0.0,11.1271769111754),.UNSPECIFIED.)RATIONAL_B_SPLINE_CURVE((1.0,1.02250516265971,1.0))BOUNDED_CURVE()REPRESENTATION_ITEM('')GEOMETRIC_REPRESENTATION_ITEM()CURVE());
#793=CIRCLE('',#1120,8.9579576158007);
#794=FILL_AREA_STYLE_COLOUR('',#1121);
#795=VERTEX_POINT('',#1122);
#796=LINE('',#1123,#1124);
#797=VERTEX_POINT('',#1125);
#798=CIRCLE('',#1126,7.91144039834822);
#799=(B_SPLINE_CURVE(2,(#1128,#1129,#1130),.UNSPECIFIED.,.F.,.F.)B_SPLINE_CURVE_WITH_KNOTS((3,3),(0.0,1.29563542958549),.UNSPECIFIED.)RATIONAL_B_SPLINE_CURVE((1.0,1.00215192648744,1.0))BOUNDED_CURVE()REPRESENTATION_ITEM('')GEOMETRIC_REPRESENTATION_ITEM()CURVE());
#800=FILL_AREA_STYLE_COLOUR('',#1137);
#801=VERTEX_POINT('',#1138);
#802=LINE('',#1139,#1140);
#803=VERTEX_POINT('',#1141);
#804=(B_SPLINE_CURVE(2,(#1143,#1144,#1145),.UNSPECIFIED.,.F.,.F.)B_SPLINE_CURVE_WITH_KNOTS((3,3),(0.0,1.29563542958549),.UNSPECIFIED.)RATIONAL_B_SPLINE_CURVE((1.0,1.00215192648736,1.0))BOUNDED_CURVE()REPRESENTATION_ITEM('')GEOMETRIC_REPRESENTATION_ITEM()CURVE());
#805=CIRCLE('',#1152,7.91144039834822);
#806=FILL_AREA_STYLE_COLOUR('',#1153);
#807=VERTEX_POINT('',#1154);
#808=VERTEX_POINT('',#1155);
#809=LINE('',#1156,#1157);
#810=VERTEX_POINT('',#1158);
#811=CIRCLE('',#1159,6.00000000000004);
#812=VERTEX_POINT('',#1160);
#813=LINE('',#1161,#1162);
#814=CIRCLE('',#1163,4.9265);
#815=FILL_AREA_STYLE_COLOUR('',#1164);
#816=VERTEX_POINT('',#1165);
#817=LINE('',#1166,#1167);
#818=VERTEX_POINT('',#1168);
#819=LINE('',#1169,#1170);
#820=CIRCLE('',#1171,4.9265);
#821=FILL_AREA_STYLE_COLOUR('',#1172);
#822=VERTEX_POINT('',#1173);
#823=LINE('',#1174,#1175);
#824=VERTEX_POINT('',#1176);
#825=LINE('',#1177,#1178);
#826=CIRCLE('',#1179,6.00000000000001);
#827=FILL_AREA_STYLE_COLOUR('',#1180);
#828=CIRCLE('',#1181,6.00000000000001);
#829=CIRCLE('',#1182,4.9265);
#830=FILL_AREA_STYLE_COLOUR('',#1183);
#831=CIRCLE('',#1184,4.9265);
#832=FILL_AREA_STYLE_COLOUR('',#1185);
#833=CIRCLE('',#1186,6.00000000000004);
#834=FILL_AREA_STYLE_COLOUR('',#1187);
#835=VERTEX_POINT('',#1188);
#836=CIRCLE('',#1189,7.91144039834822);
#837=VERTEX_POINT('',#1190);
#838=(B_SPLINE_CURVE(2,(#1192,#1193,#1194),.UNSPECIFIED.,.F.,.F.)B_SPLINE_CURVE_WITH_KNOTS((3,3),(0.0,1.29563542958549),.UNSPECIFIED.)RATIONAL_B_SPLINE_CURVE((1.0,1.00215192648864,1.0))BOUNDED_CURVE()REPRESENTATION_ITEM('')GEOMETRIC_REPRESENTATION_ITEM()CURVE());
#839=CIRCLE('',#1201,8.9579576158007);
#840=FILL_AREA_STYLE_COLOUR('',#1202);
#841=VERTEX_POINT('',#1203);
#842=CIRCLE('',#1204,8.9579576158007);
#843=VERTEX_POINT('',#1205);
#844=(B_SPLINE_CURVE(2,(#1207,#1208,#1209),.UNSPECIFIED.,.F.,.F.)B_SPLINE_CURVE_WITH_KNOTS((3,3),(0.0,1.29563542958549),.UNSPECIFIED.)RATIONAL_B_SPLINE_CURVE((1.0,1.00215192648815,1.0))BOUNDED_CURVE()REPRESENTATION_ITEM('')GEOMETRIC_REPRESENTATION_ITEM()CURVE());
#845=CIRCLE('',#1216,7.91144039834822);
#846=FILL_AREA_STYLE_COLOUR('',#1217);
#847=VERTEX_POINT('',#1218);
#848=(B_SPLINE_CURVE(2,(#1220,#1221,#1222),.UNSPECIFIED.,.F.,.F.)B_SPLINE_CURVE_WITH_KNOTS((3,3),(0.0,11.1271769111754),.UNSPECIFIED.)RATIONAL_B_SPLINE_CURVE((1.0,1.02250516265968,1.0))BOUNDED_CURVE()REPRESENTATION_ITEM('')GEOMETRIC_REPRESENTATION_ITEM()CURVE());
#849=CIRCLE('',#1229,13.5);
#850=FILL_AREA_STYLE_COLOUR('',#1230);
#851=VERTEX_POINT('',#1231);
#852=CIRCLE('',#1232,13.5);
#853=(B_SPLINE_CURVE(2,(#1234,#1235,#1236),.UNSPECIFIED.,.F.,.F.)B_SPLINE_CURVE_WITH_KNOTS((3,3),(0.0,11.1271769111754),.UNSPECIFIED.)RATIONAL_B_SPLINE_CURVE((1.0,1.02250516266005,1.0))BOUNDED_CURVE()REPRESENTATION_ITEM('')GEOMETRIC_REPRESENTATION_ITEM()CURVE());
#854=FILL_AREA_STYLE_COLOUR('',#1243);
#855=VERTEX_POINT('',#1244);
#856=LINE('',#1245,#1246);
#857=VERTEX_POINT('',#1247);
#858=LINE('',#1248,#1249);
#859=LINE('',#1250,#1251);
#860=VERTEX_POINT('',#1252);
#861=LINE('',#1253,#1254);
#862=VERTEX_POINT('',#1255);
#863=LINE('',#1256,#1257);
#864=LINE('',#1258,#1259);
#865=FILL_AREA_STYLE_COLOUR('',#1260);
#866=VERTEX_POINT('',#1261);
#867=LINE('',#1262,#1263);
#868=VERTEX_POINT('',#1264);
#869=CIRCLE('',#1265,39.42);
#870=VERTEX_POINT('',#1266);
#871=(B_SPLINE_CURVE(2,(#1268,#1269,#1270),.UNSPECIFIED.,.F.,.F.)B_SPLINE_CURVE_WITH_KNOTS((3,3),(3.84834596383811,16.953409477714),.UNSPECIFIED.)RATIONAL_B_SPLINE_CURVE((1.00906949514677,1.02188415746613,1.01680114288384))BOUNDED_CURVE()REPRESENTATION_ITEM('')GEOMETRIC_REPRESENTATION_ITEM()CURVE());
#872=VERTEX_POINT('',#1277);
#873=CIRCLE('',#1278,39.42);
#874=VERTEX_POINT('',#1279);
#875=LINE('',#1280,#1281);
#876=CIRCLE('',#1282,59.5549999999997);
#877=FILL_AREA_STYLE_COLOUR('',#1283);
#878=VERTEX_POINT('',#1284);
#879=CIRCLE('',#1285,59.5549999999997);
#880=VERTEX_POINT('',#1286);
#881=LINE('',#1287,#1288);
#882=CIRCLE('',#1289,39.42);
#883=VERTEX_POINT('',#1290);
#884=CIRCLE('',#1291,39.42);
#885=LINE('',#1292,#1293);
#886=FILL_AREA_STYLE_COLOUR('',#1294);
#887=VERTEX_POINT('',#1295);
#888=LINE('',#1296,#1297);
#889=CIRCLE('',#1298,39.4199999999999);
#890=VERTEX_POINT('',#1299);
#891=CIRCLE('',#1300,39.4199999999999);
#892=VERTEX_POINT('',#1301);
#893=LINE('',#1302,#1303);
#894=CIRCLE('',#1304,59.5549999999997);
#895=FILL_AREA_STYLE_COLOUR('',#1305);
#896=LINE('',#1306,#1307);
#897=VERTEX_POINT('',#1308);
#898=LINE('',#1309,#1310);
#899=LINE('',#1311,#1312);
#900=FILL_AREA_STYLE_COLOUR('',#1313);
#901=VERTEX_POINT('',#1314);
#902=CIRCLE('',#1315,59.5549999999997);
#903=VERTEX_POINT('',#1316);
#904=LINE('',#1317,#1318);
#905=VERTEX_POINT('',#1319);
#906=CIRCLE('',#1320,39.4199999999999);
#907=VERTEX_POINT('',#1321);
#908=(B_SPLINE_CURVE(2,(#1323,#1324,#1325),.UNSPECIFIED.,.F.,.F.)B_SPLINE_CURVE_WITH_KNOTS((3,3),(9.50962453182943,22.614688045785),.UNSPECIFIED.)RATIONAL_B_SPLINE_CURVE((1.01680114288477,1.02188415746747,1.00906949514727))BOUNDED_CURVE()REPRESENTATION_ITEM('')GEOMETRIC_REPRESENTATION_ITEM()CURVE());
#909=CIRCLE('',#1332,39.4199999999999);
#910=FILL_AREA_STYLE_COLOUR('',#1333);
#911=B_SPLINE_CURVE_WITH_KNOTS('',3,(#1334,#1335,#1336,#1337,#1338,#1339,#1340,#1341,#1342,#1343,#1344,#1345,#1346,#1347,#1348,#1349,#1350,#1351,#1352,#1353,#1354,#1355,#1356,#1357,#1358,#1359),.UNSPECIFIED.,.F.,.F.,(4,2,2,2,2,2,2,2,2,2,2,2,4),(1.45344221612742,3.33624263169779,5.80682125637673,7.04211056871619,8.27739988105566,9.51268919339513,10.7479785057346,11.9832678180741,13.2185571304135,14.453846442753,15.6891357550925,18.1597143797714,20.0425147953535),.UNSPECIFIED.);
#912=LINE('',#1360,#1361);
#913=FILL_AREA_STYLE_COLOUR('',#1362);
#914=B_SPLINE_CURVE_WITH_KNOTS('',3,(#1363,#1364,#1365,#1366,#1367,#1368,#1369,#1370,#1371,#1372,#1373,#1374,#1375,#1376,#1377,#1378,#1379,#1380,#1381,#1382,#1383,#1384,#1385,#1386,#1387,#1388,#1389,#1390,#1391,#1392,#1393,#1394,#1395,#1396),.UNSPECIFIED.,.F.,.F.,(4,2,2,2,2,2,2,2,2,2,2,2,2,2,2,2,4),(1.77473326280108,2.43380764200902,4.86761528401805,7.30142292602707,9.73523056803609,11.4516178125696,13.168005057103,14.8843923016365,16.60077954617,18.3171667907034,20.0335540352369,21.7499412797703,23.4663285243038,25.9001361663128,28.3339438083219,30.7677514503309,31.4268258295257),.UNSPECIFIED.);
#915=FILL_AREA_STYLE_COLOUR('',#1397);
#916=B_SPLINE_CURVE_WITH_KNOTS('',3,(#1398,#1399,#1400,#1401,#1402,#1403,#1404,#1405,#1406,#1407,#1408,#1409,#1410,#1411,#1412,#1413,#1414,#1415,#1416,#1417,#1418,#1419,#1420,#1421,#1422,#1423,#1424,#1425,#1426,#1427,#1428,#1429,#1430,#1431),.UNSPECIFIED.,.F.,.F.,(4,2,2,2,2,2,2,2,2,2,2,2,2,2,2,2,4),(1.77473326280291,2.43380764200946,4.86761528401892,7.30142292602837,9.73523056803783,11.4516178125713,13.1680050571049,14.8843923016384,16.6007795461719,18.3171667907054,20.0335540352389,21.7499412797724,23.4663285243059,25.9001361663154,28.3339438083248,30.7677514503343,31.4268258295277),.UNSPECIFIED.);
#917=FILL_AREA_STYLE_COLOUR('',#1432);
#918=B_SPLINE_CURVE_WITH_KNOTS('',3,(#1433,#1434,#1435,#1436,#1437,#1438,#1439,#1440,#1441,#1442,#1443,#1444,#1445,#1446,#1447,#1448,#1449,#1450,#1451,#1452,#1453,#1454,#1455,#1456,#1457,#1458),.UNSPECIFIED.,.F.,.F.,(4,2,2,2,2,2,2,2,2,2,2,2,4),(1.45344221612695,3.33624263169691,5.80682125637582,7.04211056871528,8.27739988105473,9.51268919339419,10.7479785057336,11.9832678180731,13.2185571304126,14.453846442752,15.6891357550915,18.1597143797704,20.0425147953521),.UNSPECIFIED.);
#919=FILL_AREA_STYLE_COLOUR('',#1459);
#920=FILL_AREA_STYLE_COLOUR('',#1460);
#921=LINE('',#1461,#1462);
#922=FILL_AREA_STYLE_COLOUR('',#1463);
#923=FILL_AREA_STYLE_COLOUR('',#1464);
#924=LINE('',#1465,#1466);
#925=FILL_AREA_STYLE_COLOUR('',#1467);
#926=LINE('',#1468,#1469);
#927=FILL_AREA_STYLE_COLOUR('',#1470);
#928=FILL_AREA_STYLE_COLOUR('',#1471);
#929=COLOUR_RGB('',0.689999997615814,0.689999997615814,0.689999997615814);
#930=CARTESIAN_POINT('',(2.94321905876339,20.9656438397771,-1.2837330329084E-015));
#931=CARTESIAN_POINT('',(-7.76219715672994,26.4203258490012,-1.56221379400596E-015));
#932=CARTESIAN_POINT('',(-1.00170044149402,22.9756807213655,-2.81361645947784E-015));
#933=VECTOR('',#1472,1.0);
#934=CARTESIAN_POINT('',(3.71855644270324,20.3926251632241,-2.69999999989145));
#935=CARTESIAN_POINT('',(10.7689999999995,13.5000000000005,10.2960958925593));
#936=CARTESIAN_POINT('',(10.6401971821176,13.6621353651072,10.191728548343));
#937=CARTESIAN_POINT('',(10.5097401080122,13.8237266849233,10.0846702351927));
#938=CARTESIAN_POINT('',(9.89094190750107,14.5778919291471,9.5703254934813));
#939=CARTESIAN_POINT('',(9.38463997240889,15.1590133325904,9.13067072223352));
#940=CARTESIAN_POINT('',(8.3615967186657,16.2676363816962,8.19977268708868));
#941=CARTESIAN_POINT('',(7.84475624915774,16.7953129807753,7.70854708453206));
#942=CARTESIAN_POINT('',(6.83338299647402,17.7756056744413,6.69564788636526));
#943=CARTESIAN_POINT('',(6.33884034400385,18.2283094978364,6.17406905402836));
#944=CARTESIAN_POINT('',(5.5467624079264,18.9219834833015,5.27672865646465));
#945=CARTESIAN_POINT('',(5.20839372539805,19.208339282803,4.87448940713741));
#946=CARTESIAN_POINT('',(4.55114266291949,19.7466043342352,4.02167764205661));
#947=CARTESIAN_POINT('',(4.23209143629205,19.9986710270492,3.57133465653046));
#948=CARTESIAN_POINT('',(3.66404291990219,20.4359217424119,2.62951997491597));
#949=CARTESIAN_POINT('',(3.41524680626133,20.621078143471,2.13913168158545));
#950=CARTESIAN_POINT('',(3.05448666865574,20.8859860111046,1.11057035543425));
#951=CARTESIAN_POINT('',(2.94321905876158,20.9656438397784,0.572129081511155));
#952=CARTESIAN_POINT('',(2.94321905876158,20.9656438397784,-0.572129081511155));
#953=CARTESIAN_POINT('',(3.05448666865574,20.8859860111045,-1.11057035543424));
#954=CARTESIAN_POINT('',(3.41524680626134,20.621078143471,-2.13913168158544));
#955=CARTESIAN_POINT('',(3.6640429199022,20.4359217424119,-2.62951997491597));
#956=CARTESIAN_POINT('',(4.23209143629206,19.9986710270492,-3.57133465653045));
#957=CARTESIAN_POINT('',(4.55114266291948,19.7466043342352,-4.02167764205661));
#958=CARTESIAN_POINT('',(5.20839372539805,19.208339282803,-4.87448940713742));
#959=CARTESIAN_POINT('',(5.5467624079264,18.9219834833015,-5.27672865646465));
#960=CARTESIAN_POINT('',(6.33884034400385,18.2283094978364,-6.17406905402836));
#961=CARTESIAN_POINT('',(6.83338299647401,17.7756056744413,-6.69564788636527));
#962=CARTESIAN_POINT('',(7.84475624915773,16.7953129807753,-7.70854708453208));
#963=CARTESIAN_POINT('',(8.3615967186657,16.2676363816962,-8.19977268708868));
#964=CARTESIAN_POINT('',(9.38463997240889,15.1590133325904,-9.13067072223352));
#965=CARTESIAN_POINT('',(9.89094190750107,14.5778919291471,-9.57032549348129));
#966=CARTESIAN_POINT('',(10.5097401080096,13.8237266849266,-10.0846702351905));
#967=CARTESIAN_POINT('',(10.6401971821202,13.662135365104,-10.1917285483451));
#968=CARTESIAN_POINT('',(10.7689999999995,13.5000000000005,-10.2960958925593));
#969=CARTESIAN_POINT('',(-8.47794828545682,26.6485882741394,-2.69999999999615));
#971=CARTESIAN_POINT('',(3.71855644270324,20.3926251632241,-2.69999999989145));
#972=CARTESIAN_POINT('',(-1.56869554444336,23.1101248044512,-2.69999999997548));
#973=CARTESIAN_POINT('',(-8.47794828545682,26.6485882741394,-2.69999999999615));
#980=CARTESIAN_POINT('',(-12.3353848585392,27.6281551307541,-7.95457245771501));
#981=CARTESIAN_POINT('',(-11.9180984989049,27.54435566939,-7.47715573629996));
#982=CARTESIAN_POINT('',(-11.4956036081282,27.4523326156249,-6.9827584980627));
#983=CARTESIAN_POINT('',(-10.5370813206057,27.2271413328623,-5.81418717778116));
#984=CARTESIAN_POINT('',(-10.0060890685608,27.0896568171386,-5.13273589419289));
#985=CARTESIAN_POINT('',(-9.28576932085982,26.8891520379036,-4.09143886502605));
#986=CARTESIAN_POINT('',(-9.05895896372777,26.8235337398606,-3.74161792001335));
#987=CARTESIAN_POINT('',(-8.64402478488394,26.7000346583578,-3.03374112272735));
#988=CARTESIAN_POINT('',(-8.45583486377209,26.6421358696439,-2.67572715930356));
#989=CARTESIAN_POINT('',(-8.13488809415707,26.5414335508431,-1.94558724719226));
#990=CARTESIAN_POINT('',(-8.00219035207078,26.4986673321021,-1.57365241974405));
#991=CARTESIAN_POINT('',(-7.8157206766168,26.4380447460029,-0.806775969306422));
#992=CARTESIAN_POINT('',(-7.76219715672724,26.4203258490003,-0.411763104113156));
#993=CARTESIAN_POINT('',(-7.76219715672724,26.4203258490003,0.411763104113157));
#994=CARTESIAN_POINT('',(-7.81572067661684,26.4380447460029,0.806775969306415));
#995=CARTESIAN_POINT('',(-8.00219035207082,26.4986673321022,1.57365241974404));
#996=CARTESIAN_POINT('',(-8.13488809415703,26.5414335508431,1.94558724719228));
#997=CARTESIAN_POINT('',(-8.45583486377206,26.6421358696438,2.67572715930358));
#998=CARTESIAN_POINT('',(-8.64402478488395,26.7000346583578,3.03374112272734));
#999=CARTESIAN_POINT('',(-9.05895896372778,26.8235337398606,3.74161792001334));
#1000=CARTESIAN_POINT('',(-9.28576932085982,26.8891520379036,4.09143886502605));
#1001=CARTESIAN_POINT('',(-10.0060890685608,27.0896568171386,5.13273589419289));
#1002=CARTESIAN_POINT('',(-10.5370813206057,27.2271413328623,5.81418717778116));
#1003=CARTESIAN_POINT('',(-11.4956036081308,27.4523326156255,6.98275849806585));
#1004=CARTESIAN_POINT('',(-11.9180984989024,27.5443556693895,7.47715573629714));
#1005=CARTESIAN_POINT('',(-12.3353848585392,27.6281551307541,7.95457245771501));
#1006=COLOUR_RGB('',0.689999997615814,0.689999997615814,0.689999997615814);
#1007=CARTESIAN_POINT('',(-7.7621971567248,-26.4203258489995,-5.50158020018101E-015));
#1008=CARTESIAN_POINT('',(2.94321905876005,-20.9656438397795,-5.82169432470308E-015));
#1009=CARTESIAN_POINT('',(-1.00170044149402,-22.9756807213655,2.81361645947784E-015));
#1010=VECTOR('',#1473,1.0);
#1011=CARTESIAN_POINT('',(-8.47794828545217,-26.648588274138,-2.69999999999616));
#1012=CARTESIAN_POINT('',(-12.3353848585392,-27.6281551307541,7.95457245771491));
#1013=CARTESIAN_POINT('',(-11.9180984989049,-27.54435566939,7.47715573629995));
#1014=CARTESIAN_POINT('',(-11.4956036081264,-27.4523326156245,6.98275849806453));
#1015=CARTESIAN_POINT('',(-10.5370813206037,-27.2271413328618,5.81418717778325));
#1016=CARTESIAN_POINT('',(-10.0060890685586,-27.0896568171381,5.13273589419503));
#1017=CARTESIAN_POINT('',(-9.28576932085721,-26.8891520379028,4.0914388650284));
#1018=CARTESIAN_POINT('',(-9.05895896372502,-26.8235337398598,3.7416179200157));
#1019=CARTESIAN_POINT('',(-8.64402478488075,-26.7000346583569,3.03374112272972));
#1020=CARTESIAN_POINT('',(-8.45583486376863,-26.6421358696428,2.67572715930593));
#1021=CARTESIAN_POINT('',(-8.13488809415309,-26.5414335508419,1.94558724719462));
#1022=CARTESIAN_POINT('',(-8.00219035206656,-26.4986673321008,1.57365241974615));
#1023=CARTESIAN_POINT('',(-7.81572067661202,-26.4380447460014,0.806775969308039));
#1024=CARTESIAN_POINT('',(-7.7621971567274,-26.4203258490004,0.411763104113138));
#1025=CARTESIAN_POINT('',(-7.7621971567274,-26.4203258490004,-0.411763104113169));
#1026=CARTESIAN_POINT('',(-7.81572067661201,-26.4380447460014,-0.806775969308081));
#1027=CARTESIAN_POINT('',(-8.00219035206655,-26.4986673321008,-1.5736524197462));
#1028=CARTESIAN_POINT('',(-8.13488809415311,-26.5414335508419,-1.94558724719467));
#1029=CARTESIAN_POINT('',(-8.45583486376865,-26.6421358696428,-2.67572715930598));
#1030=CARTESIAN_POINT('',(-8.64402478488077,-26.7000346583569,-3.03374112272978));
#1031=CARTESIAN_POINT('',(-9.05895896372505,-26.8235337398598,-3.74161792001576));
#1032=CARTESIAN_POINT('',(-9.28576932085724,-26.8891520379029,-4.09143886502845));
#1033=CARTESIAN_POINT('',(-10.0060890685587,-27.0896568171381,-5.13273589419509));
#1034=CARTESIAN_POINT('',(-10.5370813206038,-27.2271413328618,-5.81418717778327));
#1035=CARTESIAN_POINT('',(-11.4956036081291,-27.4523326156251,-6.98275849806769));
#1036=CARTESIAN_POINT('',(-11.9180984989025,-27.5443556693895,-7.47715573629714));
#1037=CARTESIAN_POINT('',(-12.3353848585392,-27.6281551307541,-7.95457245771491));
#1038=CARTESIAN_POINT('',(3.71855644270041,-20.3926251632262,-2.69999999989146));
#1040=CARTESIAN_POINT('',(-8.47794828545217,-26.648588274138,-2.69999999999616));
#1041=CARTESIAN_POINT('',(-1.56869554449693,-23.1101248044727,-2.6999999999984));
#1042=CARTESIAN_POINT('',(3.71855644270041,-20.3926251632262,-2.69999999989146));
#1049=CARTESIAN_POINT('',(10.769,-13.5,-10.29609589256));
#1050=CARTESIAN_POINT('',(10.6401971821184,-13.6621353651063,-10.1917285483439));
#1051=CARTESIAN_POINT('',(10.5097401080126,-13.823726684923,-10.0846702351937));
#1052=CARTESIAN_POINT('',(9.89094190750162,-14.5778919291465,-9.57032549348259));
#1053=CARTESIAN_POINT('',(9.38463997240931,-15.15901333259,-9.13067072223487));
#1054=CARTESIAN_POINT('',(8.36159671866589,-16.2676363816961,-8.19977268708998));
#1055=CARTESIAN_POINT('',(7.84475624915775,-16.7953129807754,-7.70854708453345));
#1056=CARTESIAN_POINT('',(6.83338299647376,-17.7756056744416,-6.69564788636662));
#1057=CARTESIAN_POINT('',(6.3388403440034,-18.2283094978369,-6.1740690540298));
#1058=CARTESIAN_POINT('',(5.54676240792572,-18.9219834833021,-5.27672865646617));
#1059=CARTESIAN_POINT('',(5.20839372539725,-19.2083392828037,-4.87448940713904));
#1060=CARTESIAN_POINT('',(4.55114266291842,-19.7466043342361,-4.02167764205837));
#1061=CARTESIAN_POINT('',(4.23209143629076,-19.9986710270503,-3.57133465653236));
#1062=CARTESIAN_POINT('',(3.66404291990051,-20.4359217424133,-2.62951997491809));
#1063=CARTESIAN_POINT('',(3.41524680625921,-20.6210781434726,-2.13913168158754));
#1064=CARTESIAN_POINT('',(3.05448666865295,-20.8859860111066,-1.11057035543617));
#1065=CARTESIAN_POINT('',(2.94321905876182,-20.9656438397783,-0.572129081511185));
#1066=CARTESIAN_POINT('',(2.94321905876182,-20.9656438397783,0.572129081511154));
#1067=CARTESIAN_POINT('',(3.05448666865295,-20.8859860111066,1.11057035543614));
#1068=CARTESIAN_POINT('',(3.41524680625922,-20.6210781434726,2.13913168158751));
#1069=CARTESIAN_POINT('',(3.66404291990049,-20.4359217424133,2.62951997491807));
#1070=CARTESIAN_POINT('',(4.23209143629074,-19.9986710270503,3.57133465653233));
#1071=CARTESIAN_POINT('',(4.55114266291838,-19.7466043342361,4.02167764205835));
#1072=CARTESIAN_POINT('',(5.2083937253972,-19.2083392828038,4.87448940713902));
#1073=CARTESIAN_POINT('',(5.54676240792567,-18.9219834833021,5.27672865646616));
#1074=CARTESIAN_POINT('',(6.33884034400335,-18.2283094978369,6.17406905402978));
#1075=CARTESIAN_POINT('',(6.83338299647373,-17.7756056744416,6.69564788636658));
#1076=CARTESIAN_POINT('',(7.84475624915773,-16.7953129807754,7.70854708453342));
#1077=CARTESIAN_POINT('',(8.36159671866585,-16.2676363816962,8.19977268708996));
#1078=CARTESIAN_POINT('',(9.38463997240928,-15.1590133325901,9.13067072223485));
#1079=CARTESIAN_POINT('',(9.8909419075016,-14.5778919291465,9.57032549348256));
#1080=CARTESIAN_POINT('',(10.5097401080099,-13.8237266849262,10.0846702351915));
#1081=CARTESIAN_POINT('',(10.6401971821209,-13.6621353651032,10.191728548346));
#1082=CARTESIAN_POINT('',(10.769,-13.5,10.29609589256));
#1083=COLOUR_RGB('',0.689999997615814,0.689999997615814,0.689999997615814);
#1084=CARTESIAN_POINT('',(0.676633774116399,1.09699718135811E-015,8.95795761580069));
#1085=CARTESIAN_POINT('',(10.769,1.65321857766021E-015,13.5));
#1086=CARTESIAN_POINT('',(5.7228168870582,1.37510787950916E-015,11.2289788079003));
#1087=VECTOR('',#1474,1.0);
#1088=CARTESIAN_POINT('',(0.6766337741164,-8.54137018554293,2.7));
#1089=AXIS2_PLACEMENT_3D('',#1475,#1476,#1477);
#1090=CARTESIAN_POINT('',(10.769,-13.2272446110292,2.7));
#1092=CARTESIAN_POINT('',(10.769,-13.2272446110292,2.7));
#1093=CARTESIAN_POINT('',(4.63658422520734,-10.410456645432,2.7));
#1094=CARTESIAN_POINT('',(0.676633774116398,-8.54137018554293,2.7));
#1101=AXIS2_PLACEMENT_3D('',#1478,#1479,#1480);
#1102=COLOUR_RGB('',0.689999997615814,0.689999997615814,0.689999997615814);
#1103=CARTESIAN_POINT('',(10.769,-1.65321857766021E-015,-13.5));
#1104=CARTESIAN_POINT('',(0.676633774116399,-1.09699718135811E-015,-8.95795761580071));
#1105=CARTESIAN_POINT('',(5.7228168870582,-1.37510787950916E-015,-11.2289788079004));
#1106=VECTOR('',#1481,1.0);
#1107=CARTESIAN_POINT('',(10.769,-13.2272446110292,-2.7));
#1108=AXIS2_PLACEMENT_3D('',#1482,#1483,#1484);
#1109=CARTESIAN_POINT('',(0.6766337741164,-8.54137018554293,-2.7));
#1111=CARTESIAN_POINT('',(0.676633774116398,-8.54137018554293,-2.7));
#1112=CARTESIAN_POINT('',(4.63658422521501,-10.4104566454355,-2.7));
#1113=CARTESIAN_POINT('',(10.769,-13.2272446110292,-2.7));
#1120=AXIS2_PLACEMENT_3D('',#1485,#1486,#1487);
#1121=COLOUR_RGB('',0.689999997615814,0.689999997615814,0.689999997615814);
#1122=CARTESIAN_POINT('',(0.0,9.68840017970427E-016,7.91144039834821));
#1123=CARTESIAN_POINT('',(0.338316887058199,1.03291859966427E-015,8.43469900707445));
#1124=VECTOR('',#1488,1.0);
#1125=CARTESIAN_POINT('',(0.0,-7.43645676223672,2.7));
#1126=AXIS2_PLACEMENT_3D('',#1489,#1490,#1491);
#1128=CARTESIAN_POINT('',(0.676633774116398,-8.54137018554293,2.7));
#1129=CARTESIAN_POINT('',(0.314921285702636,-7.95464103215346,2.7));
#1130=CARTESIAN_POINT('',(1.66533453693773E-016,-7.43645676223672,2.7));
#1137=COLOUR_RGB('',0.689999997615814,0.689999997615814,0.689999997615814);
#1138=CARTESIAN_POINT('',(0.0,-9.68840017970427E-016,-7.91144039834823));
#1139=CARTESIAN_POINT('',(0.338316887058199,-1.03291859966427E-015,-8.43469900707447));
#1140=VECTOR('',#1492,1.0);
#1141=CARTESIAN_POINT('',(0.0,-7.43645676223672,-2.7));
#1143=CARTESIAN_POINT('',(-1.11022302462516E-016,-7.43645676223673,-2.7));
#1144=CARTESIAN_POINT('',(0.314921285700536,-7.95464103215004,-2.7));
#1145=CARTESIAN_POINT('',(0.676633774116398,-8.54137018554294,-2.7));
#1152=AXIS2_PLACEMENT_3D('',#1493,#1494,#1495);
#1153=COLOUR_RGB('',0.689999997615814,0.689999997615814,0.689999997615814);
#1154=CARTESIAN_POINT('',(-3.90798504668055E-014,6.00000000000004,-7.34763812293431E-016));
#1155=CARTESIAN_POINT('',(1.0735,4.9265,-1.20660464042119E-015));
#1156=CARTESIAN_POINT('',(0.0367500000000014,5.96325,-7.30263383943129E-016));
#1157=VECTOR('',#1496,1.0);
#1158=CARTESIAN_POINT('',(-3.90798504668055E-014,-6.00000000000004,7.34763812293431E-016));
#1159=AXIS2_PLACEMENT_3D('',#1497,#1498,#1499);
#1160=CARTESIAN_POINT('',(1.0735,-4.9265,6.03302320210594E-016));
#1161=CARTESIAN_POINT('',(0.0367500000000014,-5.96325,7.30263383943129E-016));
#1162=VECTOR('',#1500,1.0);
#1163=AXIS2_PLACEMENT_3D('',#1501,#1502,#1503);
#1164=COLOUR_RGB('',0.689999997615814,0.689999997615814,0.689999997615814);
#1165=CARTESIAN_POINT('',(9.69549999999999,4.9265,-1.20660464042119E-015));
#1166=CARTESIAN_POINT('',(5.3845,4.9265,-6.03302320210594E-016));
#1167=VECTOR('',#1504,1.0);
#1168=CARTESIAN_POINT('',(9.69549999999999,-4.9265,6.03302320210594E-016));
#1169=CARTESIAN_POINT('',(5.3845,-4.9265,6.03302320210594E-016));
#1170=VECTOR('',#1505,1.0);
#1171=AXIS2_PLACEMENT_3D('',#1506,#1507,#1508);
#1172=COLOUR_RGB('',0.689999997615814,0.689999997615814,0.689999997615814);
#1173=CARTESIAN_POINT('',(10.769,6.00000000000001,-7.34763812293427E-016));
#1174=CARTESIAN_POINT('',(10.73225,5.96325,-7.30263383943129E-016));
#1175=VECTOR('',#1509,1.0);
#1176=CARTESIAN_POINT('',(10.769,-6.00000000000001,2.20429143688028E-015));
#1177=CARTESIAN_POINT('',(10.73225,-5.96325,7.30263383943129E-016));
#1178=VECTOR('',#1510,1.0);
#1179=AXIS2_PLACEMENT_3D('',#1511,#1512,#1513);
#1180=COLOUR_RGB('',0.689999997615814,0.689999997615814,0.689999997615814);
#1181=AXIS2_PLACEMENT_3D('',#1514,#1515,#1516);
#1182=AXIS2_PLACEMENT_3D('',#1517,#1518,#1519);
#1183=COLOUR_RGB('',0.689999997615814,0.689999997615814,0.689999997615814);
#1184=AXIS2_PLACEMENT_3D('',#1520,#1521,#1522);
#1185=COLOUR_RGB('',0.689999997615814,0.689999997615814,0.689999997615814);
#1186=AXIS2_PLACEMENT_3D('',#1523,#1524,#1525);
#1187=COLOUR_RGB('',0.689999997615814,0.689999997615814,0.689999997615814);
#1188=CARTESIAN_POINT('',(0.0,7.43645676223672,-2.7));
#1189=AXIS2_PLACEMENT_3D('',#1526,#1527,#1528);
#1190=CARTESIAN_POINT('',(0.6766337741164,8.54137018554293,-2.7));
#1192=CARTESIAN_POINT('',(0.676633774116399,8.54137018554294,-2.7));
#1193=CARTESIAN_POINT('',(0.31492128570053,7.95464103215003,-2.7));
#1194=CARTESIAN_POINT('',(5.55111512312578E-017,7.43645676223673,-2.7));
#1201=AXIS2_PLACEMENT_3D('',#1529,#1530,#1531);
#1202=COLOUR_RGB('',0.689999997615814,0.689999997615814,0.689999997615814);
#1203=CARTESIAN_POINT('',(0.6766337741164,8.54137018554293,2.7));
#1204=AXIS2_PLACEMENT_3D('',#1532,#1533,#1534);
#1205=CARTESIAN_POINT('',(0.0,7.43645676223672,2.7));
#1207=CARTESIAN_POINT('',(1.66533453693773E-016,7.43645676223672,2.7));
#1208=CARTESIAN_POINT('',(0.314921285701038,7.95464103215085,2.7));
#1209=CARTESIAN_POINT('',(0.676633774116399,8.54137018554293,2.7));
#1216=AXIS2_PLACEMENT_3D('',#1535,#1536,#1537);
#1217=COLOUR_RGB('',0.689999997615814,0.689999997615814,0.689999997615814);
#1218=CARTESIAN_POINT('',(10.769,13.2272446110292,-2.7));
#1220=CARTESIAN_POINT('',(10.769,13.2272446110292,-2.7));
#1221=CARTESIAN_POINT('',(4.63658422521501,10.4104566454355,-2.7));
#1222=CARTESIAN_POINT('',(0.676633774116398,8.54137018554293,-2.7));
#1229=AXIS2_PLACEMENT_3D('',#1538,#1539,#1540);
#1230=COLOUR_RGB('',0.689999997615814,0.689999997615814,0.689999997615814);
#1231=CARTESIAN_POINT('',(10.769,13.2272446110292,2.7));
#1232=AXIS2_PLACEMENT_3D('',#1541,#1542,#1543);
#1234=CARTESIAN_POINT('',(0.676633774116398,8.54137018554293,2.7));
#1235=CARTESIAN_POINT('',(4.63658422521234,10.4104566454343,2.7));
#1236=CARTESIAN_POINT('',(10.769,13.2272446110292,2.7));
#1243=COLOUR_RGB('',0.689999997615814,0.689999997615814,0.689999997615814);
#1244=CARTESIAN_POINT('',(-3.90798504668055E-014,-8.65344039834814,-2.7));
#1245=CARTESIAN_POINT('',(-3.90798504668055E-014,22.6732798008259,-2.7));
#1246=VECTOR('',#1544,1.0);
#1247=CARTESIAN_POINT('',(-3.90798504668055E-014,-8.65344039834814,2.70000000000002));
#1248=CARTESIAN_POINT('',(-3.90798504668055E-014,-8.65344039834814,100.0));
#1249=VECTOR('',#1545,1.0);
#1250=CARTESIAN_POINT('',(-3.90798504668055E-014,-31.3267201991741,2.70000000000002));
#1251=VECTOR('',#1546,1.0);
#1252=CARTESIAN_POINT('',(0.0,8.65344039834824,2.7));
#1253=CARTESIAN_POINT('',(-3.90798504668055E-014,-31.3267201991741,2.70000000000002));
#1254=VECTOR('',#1547,1.0);
#1255=CARTESIAN_POINT('',(0.0,8.65344039834824,-2.7));
#1256=CARTESIAN_POINT('',(0.0,8.65344039834824,100.0));
#1257=VECTOR('',#1548,1.0);
#1258=CARTESIAN_POINT('',(-3.90798504668055E-014,22.6732798008259,-2.7));
#1259=VECTOR('',#1549,1.0);
#1260=COLOUR_RGB('',0.689999997615814,0.689999997615814,0.689999997615814);
#1261=CARTESIAN_POINT('',(10.769,13.4999999999999,2.7));
#1262=CARTESIAN_POINT('',(10.769,-22.7304476779878,2.70000000000001));
#1263=VECTOR('',#1550,1.0);
#1264=CARTESIAN_POINT('',(3.71855644270326,20.392625163224,2.69999999989144));
#1265=AXIS2_PLACEMENT_3D('',#1551,#1552,#1553);
#1266=CARTESIAN_POINT('',(-8.47794828545678,26.6485882741394,2.69999999999614));
#1268=CARTESIAN_POINT('',(-8.47794828545678,26.6485882741394,2.69999999999614));
#1269=CARTESIAN_POINT('',(-1.56869554449478,23.1101248044712,2.6999999999984));
#1270=CARTESIAN_POINT('',(3.71855644270326,20.392625163224,2.69999999989144));
#1277=CARTESIAN_POINT('',(-12.3353848585392,27.6281551307541,2.7));
#1278=AXIS2_PLACEMENT_3D('',#1554,#1555,#1556);
#1279=CARTESIAN_POINT('',(-17.633,17.2309999999999,2.7));
#1280=CARTESIAN_POINT('',(-27.440177172973,-2.01666894902708,2.70000000000001));
#1281=VECTOR('',#1557,1.0);
#1282=AXIS2_PLACEMENT_3D('',#1558,#1559,#1560);
#1283=COLOUR_RGB('',0.689999997615814,0.689999997615814,0.689999997615814);
#1284=CARTESIAN_POINT('',(-17.633,17.2309999999999,-2.7));
#1285=AXIS2_PLACEMENT_3D('',#1561,#1562,#1563);
#1286=CARTESIAN_POINT('',(-12.3353848585392,27.6281551307541,-2.7));
#1287=CARTESIAN_POINT('',(-5.59671832484941,40.8535328628697,-2.7));
#1288=VECTOR('',#1564,1.0);
#1289=AXIS2_PLACEMENT_3D('',#1565,#1566,#1567);
#1290=CARTESIAN_POINT('',(10.769,13.4999999999999,-2.7));
#1291=AXIS2_PLACEMENT_3D('',#1568,#1569,#1570);
#1292=CARTESIAN_POINT('',(10.769,31.2695523220122,-2.7));
#1293=VECTOR('',#1571,1.0);
#1294=COLOUR_RGB('',0.689999997615814,0.689999997615814,0.689999997615814);
#1295=CARTESIAN_POINT('',(10.769,-13.5,-2.7));
#1296=CARTESIAN_POINT('',(10.769,31.2695523220122,-2.7));
#1297=VECTOR('',#1572,1.0);
#1298=AXIS2_PLACEMENT_3D('',#1573,#1574,#1575);
#1299=CARTESIAN_POINT('',(-12.3353848585392,-27.6281551307541,-2.7));
#1300=AXIS2_PLACEMENT_3D('',#1576,#1577,#1578);
#1301=CARTESIAN_POINT('',(-17.633,-17.231,-2.7));
#1302=CARTESIAN_POINT('',(-24.7913696022426,-3.18190861635001,-2.7));
#1303=VECTOR('',#1579,1.0);
#1304=AXIS2_PLACEMENT_3D('',#1580,#1581,#1582);
#1305=COLOUR_RGB('',0.689999997615814,0.689999997615814,0.689999997615814);
#1306=CARTESIAN_POINT('',(10.769,13.4999999999999,0.0));
#1307=VECTOR('',#1583,1.0);
#1308=CARTESIAN_POINT('',(10.769,-13.5,2.7));
#1309=CARTESIAN_POINT('',(10.769,-22.7304476779878,2.70000000000001));
#1310=VECTOR('',#1584,1.0);
#1311=CARTESIAN_POINT('',(10.769,-13.5,50.0));
#1312=VECTOR('',#1585,1.0);
#1313=COLOUR_RGB('',0.689999997615814,0.689999997615814,0.689999997615814);
#1314=CARTESIAN_POINT('',(-17.633,-17.231,2.70000000000002));
#1315=AXIS2_PLACEMENT_3D('',#1586,#1587,#1588);
#1316=CARTESIAN_POINT('',(-12.3353848585392,-27.6281551307541,2.70000000000002));
#1317=CARTESIAN_POINT('',(-2.94791075411898,-46.0521104282468,2.70000000000002));
#1318=VECTOR('',#1589,1.0);
#1319=CARTESIAN_POINT('',(-8.47794828545218,-26.648588274138,2.69999999999615));
#1320=AXIS2_PLACEMENT_3D('',#1590,#1591,#1592);
#1321=CARTESIAN_POINT('',(3.71855644270044,-20.3926251632262,2.69999999989146));
#1323=CARTESIAN_POINT('',(3.71855644270044,-20.3926251632262,2.69999999989146));
#1324=CARTESIAN_POINT('',(-1.56869554442756,-23.1101248044433,2.69999999997549));
#1325=CARTESIAN_POINT('',(-8.47794828545218,-26.648588274138,2.69999999999615));
#1332=AXIS2_PLACEMENT_3D('',#1593,#1594,#1595);
#1333=COLOUR_RGB('',0.689999997615814,0.689999997615814,0.689999997615814);
#1334=CARTESIAN_POINT('',(-12.3353848585392,27.6281551307541,-7.95457245771501));
#1335=CARTESIAN_POINT('',(-11.9180984989049,27.54435566939,-7.47715573629996));
#1336=CARTESIAN_POINT('',(-11.4956036081282,27.4523326156249,-6.9827584980627));
#1337=CARTESIAN_POINT('',(-10.5370813206057,27.2271413328623,-5.81418717778116));
#1338=CARTESIAN_POINT('',(-10.0060890685608,27.0896568171386,-5.13273589419289));
#1339=CARTESIAN_POINT('',(-9.28576932085982,26.8891520379036,-4.09143886502605));
#1340=CARTESIAN_POINT('',(-9.05895896372777,26.8235337398606,-3.74161792001335));
#1341=CARTESIAN_POINT('',(-8.64402478488394,26.7000346583578,-3.03374112272735));
#1342=CARTESIAN_POINT('',(-8.45583486377209,26.6421358696439,-2.67572715930356));
#1343=CARTESIAN_POINT('',(-8.13488809415707,26.5414335508431,-1.94558724719226));
#1344=CARTESIAN_POINT('',(-8.00219035207078,26.4986673321021,-1.57365241974405));
#1345=CARTESIAN_POINT('',(-7.8157206766168,26.4380447460029,-0.806775969306422));
#1346=CARTESIAN_POINT('',(-7.76219715672724,26.4203258490003,-0.411763104113156));
#1347=CARTESIAN_POINT('',(-7.76219715672724,26.4203258490003,0.411763104113157));
#1348=CARTESIAN_POINT('',(-7.81572067661684,26.4380447460029,0.806775969306415));
#1349=CARTESIAN_POINT('',(-8.00219035207082,26.4986673321022,1.57365241974404));
#1350=CARTESIAN_POINT('',(-8.13488809415703,26.5414335508431,1.94558724719228));
#1351=CARTESIAN_POINT('',(-8.45583486377206,26.6421358696438,2.67572715930358));
#1352=CARTESIAN_POINT('',(-8.64402478488395,26.7000346583578,3.03374112272734));
#1353=CARTESIAN_POINT('',(-9.05895896372778,26.8235337398606,3.74161792001334));
#1354=CARTESIAN_POINT('',(-9.28576932085982,26.8891520379036,4.09143886502605));
#1355=CARTESIAN_POINT('',(-10.0060890685608,27.0896568171386,5.13273589419289));
#1356=CARTESIAN_POINT('',(-10.5370813206057,27.2271413328623,5.81418717778116));
#1357=CARTESIAN_POINT('',(-11.4956036081308,27.4523326156255,6.98275849806585));
#1358=CARTESIAN_POINT('',(-11.9180984989024,27.5443556693895,7.47715573629714));
#1359=CARTESIAN_POINT('',(-12.3353848585392,27.6281551307541,7.95457245771501));
#1360=CARTESIAN_POINT('',(-12.3353848585392,27.6281551307541,100.0));
#1361=VECTOR('',#1596,1.0);
#1362=COLOUR_RGB('',0.689999997615814,0.689999997615814,0.689999997615814);
#1363=CARTESIAN_POINT('',(10.7689999999995,13.5000000000005,10.2960958925593));
#1364=CARTESIAN_POINT('',(10.6401971821176,13.6621353651072,10.191728548343));
#1365=CARTESIAN_POINT('',(10.5097401080122,13.8237266849233,10.0846702351927));
#1366=CARTESIAN_POINT('',(9.89094190750107,14.5778919291471,9.5703254934813));
#1367=CARTESIAN_POINT('',(9.38463997240889,15.1590133325904,9.13067072223352));
#1368=CARTESIAN_POINT('',(8.3615967186657,16.2676363816962,8.19977268708868));
#1369=CARTESIAN_POINT('',(7.84475624915774,16.7953129807753,7.70854708453206));
#1370=CARTESIAN_POINT('',(6.83338299647402,17.7756056744413,6.69564788636526));
#1371=CARTESIAN_POINT('',(6.33884034400385,18.2283094978364,6.17406905402836));
#1372=CARTESIAN_POINT('',(5.5467624079264,18.9219834833015,5.27672865646465));
#1373=CARTESIAN_POINT('',(5.20839372539805,19.208339282803,4.87448940713741));
#1374=CARTESIAN_POINT('',(4.55114266291949,19.7466043342352,4.02167764205661));
#1375=CARTESIAN_POINT('',(4.23209143629205,19.9986710270492,3.57133465653046));
#1376=CARTESIAN_POINT('',(3.66404291990219,20.4359217424119,2.62951997491597));
#1377=CARTESIAN_POINT('',(3.41524680626133,20.621078143471,2.13913168158545));
#1378=CARTESIAN_POINT('',(3.05448666865574,20.8859860111046,1.11057035543425));
#1379=CARTESIAN_POINT('',(2.94321905876158,20.9656438397784,0.572129081511155));
#1380=CARTESIAN_POINT('',(2.94321905876158,20.9656438397784,-0.572129081511155));
#1381=CARTESIAN_POINT('',(3.05448666865574,20.8859860111045,-1.11057035543424));
#1382=CARTESIAN_POINT('',(3.41524680626134,20.621078143471,-2.13913168158544));
#1383=CARTESIAN_POINT('',(3.6640429199022,20.4359217424119,-2.62951997491597));
#1384=CARTESIAN_POINT('',(4.23209143629206,19.9986710270492,-3.57133465653045));
#1385=CARTESIAN_POINT('',(4.55114266291948,19.7466043342352,-4.02167764205661));
#1386=CARTESIAN_POINT('',(5.20839372539805,19.208339282803,-4.87448940713742));
#1387=CARTESIAN_POINT('',(5.5467624079264,18.9219834833015,-5.27672865646465));
#1388=CARTESIAN_POINT('',(6.33884034400385,18.2283094978364,-6.17406905402836));
#1389=CARTESIAN_POINT('',(6.83338299647401,17.7756056744413,-6.69564788636527));
#1390=CARTESIAN_POINT('',(7.84475624915773,16.7953129807753,-7.70854708453208));
#1391=CARTESIAN_POINT('',(8.3615967186657,16.2676363816962,-8.19977268708868));
#1392=CARTESIAN_POINT('',(9.38463997240889,15.1590133325904,-9.13067072223352));
#1393=CARTESIAN_POINT('',(9.89094190750107,14.5778919291471,-9.57032549348129));
#1394=CARTESIAN_POINT('',(10.5097401080096,13.8237266849266,-10.0846702351905));
#1395=CARTESIAN_POINT('',(10.6401971821202,13.662135365104,-10.1917285483451));
#1396=CARTESIAN_POINT('',(10.7689999999995,13.5000000000005,-10.2960958925593));
#1397=COLOUR_RGB('',0.689999997615814,0.689999997615814,0.689999997615814);
#1398=CARTESIAN_POINT('',(10.769,-13.5,-10.29609589256));
#1399=CARTESIAN_POINT('',(10.6401971821184,-13.6621353651063,-10.1917285483439));
#1400=CARTESIAN_POINT('',(10.5097401080126,-13.823726684923,-10.0846702351937));
#1401=CARTESIAN_POINT('',(9.89094190750162,-14.5778919291465,-9.57032549348259));
#1402=CARTESIAN_POINT('',(9.38463997240931,-15.15901333259,-9.13067072223487));
#1403=CARTESIAN_POINT('',(8.36159671866589,-16.2676363816961,-8.19977268708998));
#1404=CARTESIAN_POINT('',(7.84475624915775,-16.7953129807754,-7.70854708453345));
#1405=CARTESIAN_POINT('',(6.83338299647376,-17.7756056744416,-6.69564788636662));
#1406=CARTESIAN_POINT('',(6.3388403440034,-18.2283094978369,-6.1740690540298));
#1407=CARTESIAN_POINT('',(5.54676240792572,-18.9219834833021,-5.27672865646617));
#1408=CARTESIAN_POINT('',(5.20839372539725,-19.2083392828037,-4.87448940713904));
#1409=CARTESIAN_POINT('',(4.55114266291842,-19.7466043342361,-4.02167764205837));
#1410=CARTESIAN_POINT('',(4.23209143629076,-19.9986710270503,-3.57133465653236));
#1411=CARTESIAN_POINT('',(3.66404291990051,-20.4359217424133,-2.62951997491809));
#1412=CARTESIAN_POINT('',(3.41524680625921,-20.6210781434726,-2.13913168158754));
#1413=CARTESIAN_POINT('',(3.05448666865295,-20.8859860111066,-1.11057035543617));
#1414=CARTESIAN_POINT('',(2.94321905876182,-20.9656438397783,-0.572129081511185));
#1415=CARTESIAN_POINT('',(2.94321905876182,-20.9656438397783,0.572129081511154));
#1416=CARTESIAN_POINT('',(3.05448666865295,-20.8859860111066,1.11057035543614));
#1417=CARTESIAN_POINT('',(3.41524680625922,-20.6210781434726,2.13913168158751));
#1418=CARTESIAN_POINT('',(3.66404291990049,-20.4359217424133,2.62951997491807));
#1419=CARTESIAN_POINT('',(4.23209143629074,-19.9986710270503,3.57133465653233));
#1420=CARTESIAN_POINT('',(4.55114266291838,-19.7466043342361,4.02167764205835));
#1421=CARTESIAN_POINT('',(5.2083937253972,-19.2083392828038,4.87448940713902));
#1422=CARTESIAN_POINT('',(5.54676240792567,-18.9219834833021,5.27672865646616));
#1423=CARTESIAN_POINT('',(6.33884034400335,-18.2283094978369,6.17406905402978));
#1424=CARTESIAN_POINT('',(6.83338299647373,-17.7756056744416,6.69564788636658));
#1425=CARTESIAN_POINT('',(7.84475624915773,-16.7953129807754,7.70854708453342));
#1426=CARTESIAN_POINT('',(8.36159671866585,-16.2676363816962,8.19977268708996));
#1427=CARTESIAN_POINT('',(9.38463997240928,-15.1590133325901,9.13067072223485));
#1428=CARTESIAN_POINT('',(9.8909419075016,-14.5778919291465,9.57032549348256));
#1429=CARTESIAN_POINT('',(10.5097401080099,-13.8237266849262,10.0846702351915));
#1430=CARTESIAN_POINT('',(10.6401971821209,-13.6621353651032,10.191728548346));
#1431=CARTESIAN_POINT('',(10.769,-13.5,10.29609589256));
#1432=COLOUR_RGB('',0.689999997615814,0.689999997615814,0.689999997615814);
#1433=CARTESIAN_POINT('',(-12.3353848585392,-27.6281551307541,7.95457245771491));
#1434=CARTESIAN_POINT('',(-11.9180984989049,-27.54435566939,7.47715573629995));
#1435=CARTESIAN_POINT('',(-11.4956036081264,-27.4523326156245,6.98275849806453));
#1436=CARTESIAN_POINT('',(-10.5370813206037,-27.2271413328618,5.81418717778325));
#1437=CARTESIAN_POINT('',(-10.0060890685586,-27.0896568171381,5.13273589419503));
#1438=CARTESIAN_POINT('',(-9.28576932085721,-26.8891520379028,4.0914388650284));
#1439=CARTESIAN_POINT('',(-9.05895896372502,-26.8235337398598,3.7416179200157));
#1440=CARTESIAN_POINT('',(-8.64402478488075,-26.7000346583569,3.03374112272972));
#1441=CARTESIAN_POINT('',(-8.45583486376863,-26.6421358696428,2.67572715930593));
#1442=CARTESIAN_POINT('',(-8.13488809415309,-26.5414335508419,1.94558724719462));
#1443=CARTESIAN_POINT('',(-8.00219035206656,-26.4986673321008,1.57365241974615));
#1444=CARTESIAN_POINT('',(-7.81572067661202,-26.4380447460014,0.806775969308039));
#1445=CARTESIAN_POINT('',(-7.7621971567274,-26.4203258490004,0.411763104113138));
#1446=CARTESIAN_POINT('',(-7.7621971567274,-26.4203258490004,-0.411763104113169));
#1447=CARTESIAN_POINT('',(-7.81572067661201,-26.4380447460014,-0.806775969308081));
#1448=CARTESIAN_POINT('',(-8.00219035206655,-26.4986673321008,-1.5736524197462));
#1449=CARTESIAN_POINT('',(-8.13488809415311,-26.5414335508419,-1.94558724719467));
#1450=CARTESIAN_POINT('',(-8.45583486376865,-26.6421358696428,-2.67572715930598));
#1451=CARTESIAN_POINT('',(-8.64402478488077,-26.7000346583569,-3.03374112272978));
#1452=CARTESIAN_POINT('',(-9.05895896372505,-26.8235337398598,-3.74161792001576));
#1453=CARTESIAN_POINT('',(-9.28576932085724,-26.8891520379029,-4.09143886502845));
#1454=CARTESIAN_POINT('',(-10.0060890685587,-27.0896568171381,-5.13273589419509));
#1455=CARTESIAN_POINT('',(-10.5370813206038,-27.2271413328618,-5.81418717778327));
#1456=CARTESIAN_POINT('',(-11.4956036081291,-27.4523326156251,-6.98275849806769));
#1457=CARTESIAN_POINT('',(-11.9180984989025,-27.5443556693895,-7.47715573629714));
#1458=CARTESIAN_POINT('',(-12.3353848585392,-27.6281551307541,-7.95457245771491));
#1459=COLOUR_RGB('',0.689999997615814,0.689999997615814,0.689999997615814);
#1460=COLOUR_RGB('',0.689999997615814,0.689999997615814,0.689999997615814);
#1461=CARTESIAN_POINT('',(-17.633,17.2309999999999,100.0));
#1462=VECTOR('',#1597,1.0);
#1463=COLOUR_RGB('',0.689999997615814,0.689999997615814,0.689999997615814);
#1464=COLOUR_RGB('',0.689999997615814,0.689999997615814,0.689999997615814);
#1465=CARTESIAN_POINT('',(-12.3353848585392,-27.6281551307541,100.0));
#1466=VECTOR('',#1598,1.0);
#1467=COLOUR_RGB('',0.689999997615814,0.689999997615814,0.689999997615814);
#1468=CARTESIAN_POINT('',(-17.633,-17.231,100.0));
#1469=VECTOR('',#1599,1.0);
#1470=COLOUR_RGB('',0.689999997615814,0.689999997615814,0.689999997615814);
#1471=COLOUR_RGB('',0.689999997615814,0.689999997615814,0.689999997615814);
#1472=DIRECTION('',(-0.891006524188368,0.453990499739547,-5.55959650556046E-017));
#1473=DIRECTION('',(0.891006524188368,0.453990499739547,-5.55959650556046E-017));
#1474=DIRECTION('',(0.91190535595202,5.02579136577644E-017,0.410400562604414));
#1475=CARTESIAN_POINT('',(0.676633774116399,0.0,-7.105427357601E-015));
#1476=DIRECTION('',(-1.0,-0.0,0.0));
#1477=DIRECTION('',(0.0,-2.44921270764475E-016,-1.0));
#1478=CARTESIAN_POINT('',(10.769,0.0,-7.105427357601E-015));
#1479=DIRECTION('',(-1.0,-0.0,0.0));
#1480=DIRECTION('',(0.0,-2.44921270764475E-016,-1.0));
#1481=DIRECTION('',(-0.91190535595202,5.02579136577644E-017,0.410400562604414));
#1482=CARTESIAN_POINT('',(10.769,0.0,-7.105427357601E-015));
#1483=DIRECTION('',(-1.0,-0.0,0.0));
#1484=DIRECTION('',(0.0,-2.44921270764475E-016,-1.0));
#1485=CARTESIAN_POINT('',(0.676633774116399,0.0,-7.105427357601E-015));
#1486=DIRECTION('',(-1.0,-0.0,0.0));
#1487=DIRECTION('',(0.0,-2.44921270764475E-016,-1.0));
#1488=DIRECTION('',(0.542954619372368,1.0283779280434E-016,0.839762038497935));
#1489=CARTESIAN_POINT('',(0.0,0.0,-7.105427357601E-015));
#1490=DIRECTION('',(-1.0,-0.0,0.0));
#1491=DIRECTION('',(0.0,-2.44921270764475E-016,-1.0));
#1492=DIRECTION('',(-0.542954619372368,1.0283779280434E-016,0.839762038497935));
#1493=CARTESIAN_POINT('',(0.0,0.0,-7.105427357601E-015));
#1494=DIRECTION('',(-1.0,-0.0,0.0));
#1495=DIRECTION('',(0.0,-2.44921270764475E-016,-1.0));
#1496=DIRECTION('',(0.707106781186548,-0.707106781186547,8.65927457071935E-017));
#1497=CARTESIAN_POINT('',(-3.90798504668055E-014,0.0,0.0));
#1498=DIRECTION('',(1.0,0.0,0.0));
#1499=DIRECTION('',(0.0,1.0,-2.44921270764475E-016));
#1500=DIRECTION('',(-0.707106781186548,-0.707106781186547,8.65927457071935E-017));
#1501=CARTESIAN_POINT('',(1.0735,0.0,0.0));
#1502=DIRECTION('',(-1.0,0.0,0.0));
#1503=DIRECTION('',(0.0,1.0,-2.44921270764475E-016));
#1504=DIRECTION('',(1.0,-0.0,0.0));
#1505=DIRECTION('',(-1.0,-0.0,0.0));
#1506=CARTESIAN_POINT('',(9.69549999999999,0.0,0.0));
#1507=DIRECTION('',(-1.0,0.0,0.0));
#1508=DIRECTION('',(0.0,1.0,-2.44921270764475E-016));
#1509=DIRECTION('',(0.707106781186548,0.707106781186547,-8.65927457071935E-017));
#1510=DIRECTION('',(-0.707106781186548,0.707106781186547,-8.65927457071935E-017));
#1511=CARTESIAN_POINT('',(10.769,0.0,0.0));
#1512=DIRECTION('',(-1.0,-1.05245574876124E-016,2.57768799409981E-032));
#1513=DIRECTION('',(-1.05245574876124E-016,1.0,-2.44921270764475E-016));
#1514=CARTESIAN_POINT('',(10.769,0.0,0.0));
#1515=DIRECTION('',(-1.0,-1.05245574876124E-016,2.57768799409981E-032));
#1516=DIRECTION('',(-1.05245574876124E-016,1.0,-2.44921270764475E-016));
#1517=CARTESIAN_POINT('',(9.69549999999999,0.0,0.0));
#1518=DIRECTION('',(-1.0,0.0,0.0));
#1519=DIRECTION('',(0.0,1.0,-2.44921270764475E-016));
#1520=CARTESIAN_POINT('',(1.0735,0.0,0.0));
#1521=DIRECTION('',(-1.0,0.0,0.0));
#1522=DIRECTION('',(0.0,1.0,-2.44921270764475E-016));
#1523=CARTESIAN_POINT('',(-3.90798504668055E-014,0.0,0.0));
#1524=DIRECTION('',(1.0,0.0,0.0));
#1525=DIRECTION('',(0.0,1.0,-2.44921270764475E-016));
#1526=CARTESIAN_POINT('',(0.0,0.0,-7.105427357601E-015));
#1527=DIRECTION('',(-1.0,-0.0,0.0));
#1528=DIRECTION('',(0.0,-2.44921270764475E-016,-1.0));
#1529=CARTESIAN_POINT('',(0.676633774116399,0.0,-7.105427357601E-015));
#1530=DIRECTION('',(-1.0,-0.0,0.0));
#1531=DIRECTION('',(0.0,-2.44921270764475E-016,-1.0));
#1532=CARTESIAN_POINT('',(0.676633774116399,0.0,-7.105427357601E-015));
#1533=DIRECTION('',(-1.0,-0.0,0.0));
#1534=DIRECTION('',(0.0,-2.44921270764475E-016,-1.0));
#1535=CARTESIAN_POINT('',(0.0,0.0,-7.105427357601E-015));
#1536=DIRECTION('',(-1.0,-0.0,0.0));
#1537=DIRECTION('',(0.0,-2.44921270764475E-016,-1.0));
#1538=CARTESIAN_POINT('',(10.769,0.0,-7.105427357601E-015));
#1539=DIRECTION('',(-1.0,-0.0,0.0));
#1540=DIRECTION('',(0.0,-2.44921270764475E-016,-1.0));
#1541=CARTESIAN_POINT('',(10.769,0.0,-7.105427357601E-015));
#1542=DIRECTION('',(-1.0,-0.0,0.0));
#1543=DIRECTION('',(0.0,-2.44921270764475E-016,-1.0));
#1544=DIRECTION('',(0.0,-1.0,2.46716227694479E-017));
#1545=DIRECTION('',(0.0,0.0,-1.0));
#1546=DIRECTION('',(0.0,1.0,-1.52141673744929E-016));
#1547=DIRECTION('',(0.0,1.0,-1.52141673744929E-016));
#1548=DIRECTION('',(0.0,0.0,-1.0));
#1549=DIRECTION('',(0.0,-1.0,2.46716227694479E-017));
#1550=DIRECTION('',(1.05245574876124E-016,-1.0,1.52141673744929E-016));
#1551=CARTESIAN_POINT('',(-20.0967545692474,-11.0202282793408,2.70000000000002));
#1552=DIRECTION('',(0.0,-1.52141673744929E-016,-1.0));
#1553=DIRECTION('',(0.196889135228517,0.980425758754311,-1.49163615919523E-016));
#1554=CARTESIAN_POINT('',(-20.0967545692474,-11.0202282793408,2.70000000000002));
#1555=DIRECTION('',(0.0,-1.52141673744929E-016,-1.0));
#1556=DIRECTION('',(0.196889135228517,0.980425758754311,-1.49163615919523E-016));
#1557=DIRECTION('',(0.453990499739547,0.891006524188368,-1.3555922390767E-016));
#1558=CARTESIAN_POINT('',(16.8797111268721,65.7662531225813,2.70000000000002));
#1559=DIRECTION('',(0.0,-1.52141673744929E-016,-1.0));
#1560=DIRECTION('',(-0.283430629281708,-0.958992741570537,1.4590276081178E-016));
#1561=CARTESIAN_POINT('',(16.8797111268721,65.7662531225813,-2.7));
#1562=DIRECTION('',(-8.89659799808893E-034,2.46716227694479E-017,1.0));
#1563=DIRECTION('',(-0.283430629281708,-0.958992741570537,2.36599071586669E-017));
#1564=DIRECTION('',(-0.453990499739547,-0.891006524188368,2.19825768498924E-017));
#1565=CARTESIAN_POINT('',(-20.0967545692474,-11.0202282793408,-2.7));
#1566=DIRECTION('',(0.0,2.46716227694479E-017,1.0));
#1567=DIRECTION('',(0.196889135228517,0.980425758754311,-2.41886944734361E-017));
#1568=CARTESIAN_POINT('',(-20.0967545692474,-11.0202282793408,-2.7));
#1569=DIRECTION('',(0.0,2.46716227694479E-017,1.0));
#1570=DIRECTION('',(0.196889135228517,0.980425758754311,-2.41886944734361E-017));
#1571=DIRECTION('',(-1.05245574876124E-016,1.0,-2.46716227694479E-017));
#1572=DIRECTION('',(-1.05245574876124E-016,1.0,-2.46716227694479E-017));
#1573=CARTESIAN_POINT('',(-20.0967545692473,11.0202282793408,-2.7));
#1574=DIRECTION('',(0.0,2.46716227694479E-017,1.0));
#1575=DIRECTION('',(0.782997325450211,-0.622025070505857,1.53463678926597E-017));
#1576=CARTESIAN_POINT('',(-20.0967545692473,11.0202282793408,-2.7));
#1577=DIRECTION('',(0.0,2.46716227694479E-017,1.0));
#1578=DIRECTION('',(0.782997325450211,-0.622025070505857,1.53463678926597E-017));
#1579=DIRECTION('',(0.453990499739547,-0.891006524188368,2.19825768498924E-017));
#1580=CARTESIAN_POINT('',(16.8797111268726,-65.766253122581,-2.7));
#1581=DIRECTION('',(0.0,2.46716227694479E-017,1.0));
#1582=DIRECTION('',(-0.579509883752377,0.814965210688963,-2.01065142483418E-017));
#1583=DIRECTION('',(0.0,0.0,1.0));
#1584=DIRECTION('',(1.05245574876124E-016,-1.0,1.52141673744929E-016));
#1585=DIRECTION('',(-2.57768799409981E-032,-2.57768799409982E-032,-1.0));
#1586=CARTESIAN_POINT('',(16.8797111268726,-65.766253122581,2.70000000000002));
#1587=DIRECTION('',(0.0,-1.52141673744929E-016,-1.0));
#1588=DIRECTION('',(-0.579509883752377,0.814965210688963,-1.23990171198107E-016));
#1589=DIRECTION('',(-0.453990499739547,0.891006524188368,-1.3555922390767E-016));
#1590=CARTESIAN_POINT('',(-20.0967545692473,11.0202282793408,2.70000000000002));
#1591=DIRECTION('',(-1.6244904853939E-032,-1.52141673744929E-016,-1.0));
#1592=DIRECTION('',(0.782997325450211,-0.622025070505857,9.46359353380684E-017));
#1593=CARTESIAN_POINT('',(-20.0967545692473,11.0202282793408,2.70000000000002));
#1594=DIRECTION('',(-1.6244904853939E-032,-1.52141673744929E-016,-1.0));
#1595=DIRECTION('',(0.782997325450211,-0.622025070505857,9.46359353380684E-017));
#1596=DIRECTION('',(0.0,0.0,-1.0));
#1597=DIRECTION('',(0.0,0.0,-1.0));
#1598=DIRECTION('',(0.0,0.0,-1.0));
#1599=DIRECTION('',(0.0,0.0,-1.0));
ENDSEC;
END-ISO-10303-21;
