ISO-10303-21;
HEADER;
FILE_DESCRIPTION(('STEP AP214'),'1');
FILE_NAME('8350010.stp','2017-07-26T09:03:30',('TraceParts'),('TraceParts S.A.'),'Spatial InterOp 3D',' ',' ');
FILE_SCHEMA(('automotive_design'));
ENDSEC;
DATA;
#1=MECHANICAL_DESIGN_GEOMETRIC_PRESENTATION_REPRESENTATION(' ',(#10,#11,#12,#13,#14,#15,#16,#17,#18,#19,#20,#21,#22,#23,#24,#25,#26,#27,#28,#29,#30,#31,#32,#33,#34),#6);
#2=PRODUCT_DEFINITION_CONTEXT('',#35,'design');
#3=APPLICATION_PROTOCOL_DEFINITION('INTERNATIONAL STANDARD','automotive_design',1994,#35);
#4=PRODUCT_CATEGORY_RELATIONSHIP('NONE','NONE',#36,#37);
#5=SHAPE_DEFINITION_REPRESENTATION(#38,#39);
#6= (GEOMETRIC_REPRESENTATION_CONTEXT(3)GLOBAL_UNCERTAINTY_ASSIGNED_CONTEXT((#42))GLOBAL_UNIT_ASSIGNED_CONTEXT((#44,#45,#46))REPRESENTATION_CONTEXT('NONE','WORKSPACE'));
#10=STYLED_ITEM('',(#48),#49);
#11=STYLED_ITEM('',(#50),#51);
#12=STYLED_ITEM('',(#52),#53);
#13=STYLED_ITEM('',(#54),#55);
#14=STYLED_ITEM('',(#56),#57);
#15=STYLED_ITEM('',(#58),#59);
#16=STYLED_ITEM('',(#60),#61);
#17=STYLED_ITEM('',(#62),#63);
#18=STYLED_ITEM('',(#64),#65);
#19=STYLED_ITEM('',(#66),#67);
#20=STYLED_ITEM('',(#68),#69);
#21=STYLED_ITEM('',(#70),#71);
#22=STYLED_ITEM('',(#72),#73);
#23=STYLED_ITEM('',(#74),#75);
#24=STYLED_ITEM('',(#76),#77);
#25=STYLED_ITEM('',(#78),#79);
#26=STYLED_ITEM('',(#80),#81);
#27=STYLED_ITEM('',(#82),#83);
#28=STYLED_ITEM('',(#84),#85);
#29=STYLED_ITEM('',(#86),#87);
#30=STYLED_ITEM('',(#88),#89);
#31=STYLED_ITEM('',(#90),#91);
#32=STYLED_ITEM('',(#92),#93);
#33=STYLED_ITEM('',(#94),#95);
#34=STYLED_ITEM('',(#96),#97);
#35=APPLICATION_CONTEXT(' ');
#36=PRODUCT_CATEGORY('part','NONE');
#37=PRODUCT_RELATED_PRODUCT_CATEGORY('detail',' ',(#98));
#38=PRODUCT_DEFINITION_SHAPE('NONE','NONE',#99);
#39=ADVANCED_BREP_SHAPE_REPRESENTATION('8350010',(#97,#100),#6);
#42=UNCERTAINTY_MEASURE_WITH_UNIT(LENGTH_MEASURE(1.0E-006),#44,'','');
#44= (CONVERSION_BASED_UNIT('MILLIMETRE',#103)LENGTH_UNIT()NAMED_UNIT(#106));
#45= (NAMED_UNIT(#108)PLANE_ANGLE_UNIT()SI_UNIT($,.RADIAN.));
#46= (NAMED_UNIT(#108)SOLID_ANGLE_UNIT()SI_UNIT($,.STERADIAN.));
#48=PRESENTATION_STYLE_ASSIGNMENT((#114));
#49=ADVANCED_FACE('',(#115),#116,.T.);
#50=PRESENTATION_STYLE_ASSIGNMENT((#117));
#51=ADVANCED_FACE('',(#118),#119,.T.);
#52=PRESENTATION_STYLE_ASSIGNMENT((#120));
#53=ADVANCED_FACE('',(#121),#122,.T.);
#54=PRESENTATION_STYLE_ASSIGNMENT((#123));
#55=ADVANCED_FACE('',(#124),#125,.F.);
#56=PRESENTATION_STYLE_ASSIGNMENT((#126));
#57=ADVANCED_FACE('',(#127),#128,.F.);
#58=PRESENTATION_STYLE_ASSIGNMENT((#129));
#59=ADVANCED_FACE('',(#130),#131,.F.);
#60=PRESENTATION_STYLE_ASSIGNMENT((#132));
#61=ADVANCED_FACE('',(#133),#134,.F.);
#62=PRESENTATION_STYLE_ASSIGNMENT((#135));
#63=ADVANCED_FACE('',(#136),#137,.T.);
#64=PRESENTATION_STYLE_ASSIGNMENT((#138));
#65=ADVANCED_FACE('',(#139,#140),#141,.T.);
#66=PRESENTATION_STYLE_ASSIGNMENT((#142));
#67=ADVANCED_FACE('',(#143),#144,.T.);
#68=PRESENTATION_STYLE_ASSIGNMENT((#145));
#69=ADVANCED_FACE('',(#146),#147,.T.);
#70=PRESENTATION_STYLE_ASSIGNMENT((#148));
#71=ADVANCED_FACE('',(#149,#150),#151,.T.);
#72=PRESENTATION_STYLE_ASSIGNMENT((#152));
#73=ADVANCED_FACE('',(#153),#154,.T.);
#74=PRESENTATION_STYLE_ASSIGNMENT((#155));
#75=ADVANCED_FACE('',(#156),#157,.F.);
#76=PRESENTATION_STYLE_ASSIGNMENT((#158));
#77=ADVANCED_FACE('',(#159),#160,.F.);
#78=PRESENTATION_STYLE_ASSIGNMENT((#161));
#79=ADVANCED_FACE('',(#162),#163,.F.);
#80=PRESENTATION_STYLE_ASSIGNMENT((#164));
#81=ADVANCED_FACE('',(#165),#166,.F.);
#82=PRESENTATION_STYLE_ASSIGNMENT((#167));
#83=ADVANCED_FACE('',(#168),#169,.F.);
#84=PRESENTATION_STYLE_ASSIGNMENT((#170));
#85=ADVANCED_FACE('',(#171),#172,.T.);
#86=PRESENTATION_STYLE_ASSIGNMENT((#173));
#87=ADVANCED_FACE('',(#174),#175,.F.);
#88=PRESENTATION_STYLE_ASSIGNMENT((#176));
#89=ADVANCED_FACE('',(#177),#178,.F.);
#90=PRESENTATION_STYLE_ASSIGNMENT((#179));
#91=ADVANCED_FACE('',(#180),#181,.T.);
#92=PRESENTATION_STYLE_ASSIGNMENT((#182));
#93=ADVANCED_FACE('',(#183),#184,.F.);
#94=PRESENTATION_STYLE_ASSIGNMENT((#185));
#95=ADVANCED_FACE('',(#186),#187,.T.);
#96=PRESENTATION_STYLE_ASSIGNMENT((#188));
#97=MANIFOLD_SOLID_BREP('8350010',#189);
#98=PRODUCT('8350010','8350010','PART-8350010-DESC',(#190));
#99=PRODUCT_DEFINITION('NONE','NONE',#191,#2);
#100=AXIS2_PLACEMENT_3D('',#192,#193,#194);
#103=LENGTH_MEASURE_WITH_UNIT(LENGTH_MEASURE(1.0),#195);
#106=DIMENSIONAL_EXPONENTS(1.0,0.0,0.0,0.0,0.0,0.0,0.0);
#108=DIMENSIONAL_EXPONENTS(0.0,0.0,0.0,0.0,0.0,0.0,0.0);
#114=SURFACE_STYLE_USAGE(.BOTH.,#196);
#115=FACE_OUTER_BOUND('',#197,.T.);
#116=CYLINDRICAL_SURFACE('',#198,8.0);
#117=SURFACE_STYLE_USAGE(.BOTH.,#199);
#118=FACE_OUTER_BOUND('',#200,.T.);
#119=CYLINDRICAL_SURFACE('',#201,8.0);
#120=SURFACE_STYLE_USAGE(.BOTH.,#202);
#121=FACE_OUTER_BOUND('',#203,.T.);
#122=CONICAL_SURFACE('',#204,8.99999999999999,0.165148677414628);
#123=SURFACE_STYLE_USAGE(.BOTH.,#205);
#124=FACE_OUTER_BOUND('',#206,.T.);
#125=CONICAL_SURFACE('',#207,5.594,0.785398163397446);
#126=SURFACE_STYLE_USAGE(.BOTH.,#208);
#127=FACE_OUTER_BOUND('',#209,.T.);
#128=CYLINDRICAL_SURFACE('',#210,4.188);
#129=SURFACE_STYLE_USAGE(.BOTH.,#211);
#130=FACE_OUTER_BOUND('',#212,.T.);
#131=CYLINDRICAL_SURFACE('',#213,4.188);
#132=SURFACE_STYLE_USAGE(.BOTH.,#214);
#133=FACE_OUTER_BOUND('',#215,.T.);
#134=CONICAL_SURFACE('',#216,5.594,0.785398163397446);
#135=SURFACE_STYLE_USAGE(.BOTH.,#217);
#136=FACE_OUTER_BOUND('',#218,.T.);
#137=CONICAL_SURFACE('',#219,8.99999999999999,0.165148677414628);
#138=SURFACE_STYLE_USAGE(.BOTH.,#220);
#139=FACE_BOUND('',#221,.T.);
#140=FACE_OUTER_BOUND('',#222,.T.);
#141=PLANE('',#223);
#142=SURFACE_STYLE_USAGE(.BOTH.,#224);
#143=FACE_OUTER_BOUND('',#225,.T.);
#144=PLANE('',#226);
#145=SURFACE_STYLE_USAGE(.BOTH.,#227);
#146=FACE_OUTER_BOUND('',#228,.T.);
#147=PLANE('',#229);
#148=SURFACE_STYLE_USAGE(.BOTH.,#230);
#149=FACE_BOUND('',#231,.T.);
#150=FACE_OUTER_BOUND('',#232,.T.);
#151=PLANE('',#233);
#152=SURFACE_STYLE_USAGE(.BOTH.,#234);
#153=FACE_OUTER_BOUND('',#235,.T.);
#154=PLANE('',#236);
#155=SURFACE_STYLE_USAGE(.BOTH.,#237);
#156=FACE_OUTER_BOUND('',#238,.T.);
#157=PLANE('',#239);
#158=SURFACE_STYLE_USAGE(.BOTH.,#240);
#159=FACE_OUTER_BOUND('',#241,.T.);
#160=PLANE('',#242);
#161=SURFACE_STYLE_USAGE(.BOTH.,#243);
#162=FACE_OUTER_BOUND('',#244,.T.);
#163=PLANE('',#245);
#164=SURFACE_STYLE_USAGE(.BOTH.,#246);
#165=FACE_OUTER_BOUND('',#247,.T.);
#166=PLANE('',#248);
#167=SURFACE_STYLE_USAGE(.BOTH.,#249);
#168=FACE_OUTER_BOUND('',#250,.T.);
#169=PLANE('',#251);
#170=SURFACE_STYLE_USAGE(.BOTH.,#252);
#171=FACE_OUTER_BOUND('',#253,.T.);
#172=CYLINDRICAL_SURFACE('',#254,8.0);
#173=SURFACE_STYLE_USAGE(.BOTH.,#255);
#174=FACE_OUTER_BOUND('',#256,.T.);
#175=PLANE('',#257);
#176=SURFACE_STYLE_USAGE(.BOTH.,#258);
#177=FACE_OUTER_BOUND('',#259,.T.);
#178=PLANE('',#260);
#179=SURFACE_STYLE_USAGE(.BOTH.,#261);
#180=FACE_OUTER_BOUND('',#262,.T.);
#181=CYLINDRICAL_SURFACE('',#263,8.0);
#182=SURFACE_STYLE_USAGE(.BOTH.,#264);
#183=FACE_OUTER_BOUND('',#265,.T.);
#184=PLANE('',#266);
#185=SURFACE_STYLE_USAGE(.BOTH.,#267);
#186=FACE_OUTER_BOUND('',#268,.T.);
#187=PLANE('',#269);
#188=SURFACE_STYLE_USAGE(.BOTH.,#270);
#189=CLOSED_SHELL('',(#49,#51,#53,#55,#57,#59,#61,#63,#65,#67,#69,#71,#73,#75,#77,#79,#81,#83,#85,#87,#89,#91,#93,#95));
#190=PRODUCT_CONTEXT('',#35,'mechanical');
#191=PRODUCT_DEFINITION_FORMATION_WITH_SPECIFIED_SOURCE(' ','NONE',#98,.NOT_KNOWN.);
#192=CARTESIAN_POINT('',(0.0,0.0,0.0));
#193=DIRECTION('',(0.0,0.0,1.0));
#194=DIRECTION('',(1.0,0.0,0.0));
#195= (NAMED_UNIT(#106)LENGTH_UNIT()SI_UNIT(.MILLI.,.METRE.));
#196=SURFACE_SIDE_STYLE('',(#272));
#197=EDGE_LOOP('',(#273,#274,#275,#276));
#198=AXIS2_PLACEMENT_3D('',#277,#278,#279);
#199=SURFACE_SIDE_STYLE('',(#280));
#200=EDGE_LOOP('',(#281,#282,#283,#284));
#201=AXIS2_PLACEMENT_3D('',#285,#286,#287);
#202=SURFACE_SIDE_STYLE('',(#288));
#203=EDGE_LOOP('',(#289,#290,#291,#292,#293,#294,#295,#296,#297,#298));
#204=AXIS2_PLACEMENT_3D('',#299,#300,#301);
#205=SURFACE_SIDE_STYLE('',(#302));
#206=EDGE_LOOP('',(#303,#304,#305,#306));
#207=AXIS2_PLACEMENT_3D('',#307,#308,#309);
#208=SURFACE_SIDE_STYLE('',(#310));
#209=EDGE_LOOP('',(#311,#312,#313,#314));
#210=AXIS2_PLACEMENT_3D('',#315,#316,#317);
#211=SURFACE_SIDE_STYLE('',(#318));
#212=EDGE_LOOP('',(#319,#320,#321,#322));
#213=AXIS2_PLACEMENT_3D('',#323,#324,#325);
#214=SURFACE_SIDE_STYLE('',(#326));
#215=EDGE_LOOP('',(#327,#328,#329,#330));
#216=AXIS2_PLACEMENT_3D('',#331,#332,#333);
#217=SURFACE_SIDE_STYLE('',(#334));
#218=EDGE_LOOP('',(#335,#336,#337,#338,#339,#340,#341,#342,#343,#344));
#219=AXIS2_PLACEMENT_3D('',#345,#346,#347);
#220=SURFACE_SIDE_STYLE('',(#348));
#221=EDGE_LOOP('',(#349,#350));
#222=EDGE_LOOP('',(#351,#352));
#223=AXIS2_PLACEMENT_3D('',#353,#354,#355);
#224=SURFACE_SIDE_STYLE('',(#356));
#225=EDGE_LOOP('',(#357,#358,#359,#360,#361,#362,#363));
#226=AXIS2_PLACEMENT_3D('',#364,#365,#366);
#227=SURFACE_SIDE_STYLE('',(#367));
#228=EDGE_LOOP('',(#368,#369,#370,#371,#372,#373,#374));
#229=AXIS2_PLACEMENT_3D('',#375,#376,#377);
#230=SURFACE_SIDE_STYLE('',(#378));
#231=EDGE_LOOP('',(#379,#380));
#232=EDGE_LOOP('',(#381,#382,#383,#384,#385,#386,#387,#388));
#233=AXIS2_PLACEMENT_3D('',#389,#390,#391);
#234=SURFACE_SIDE_STYLE('',(#392));
#235=EDGE_LOOP('',(#393,#394,#395,#396,#397,#398,#399));
#236=AXIS2_PLACEMENT_3D('',#400,#401,#402);
#237=SURFACE_SIDE_STYLE('',(#403));
#238=EDGE_LOOP('',(#404,#405,#406,#407,#408,#409,#410));
#239=AXIS2_PLACEMENT_3D('',#411,#412,#413);
#240=SURFACE_SIDE_STYLE('',(#414));
#241=EDGE_LOOP('',(#415,#416,#417));
#242=AXIS2_PLACEMENT_3D('',#418,#419,#420);
#243=SURFACE_SIDE_STYLE('',(#421));
#244=EDGE_LOOP('',(#422,#423,#424));
#245=AXIS2_PLACEMENT_3D('',#425,#426,#427);
#246=SURFACE_SIDE_STYLE('',(#428));
#247=EDGE_LOOP('',(#429,#430,#431));
#248=AXIS2_PLACEMENT_3D('',#432,#433,#434);
#249=SURFACE_SIDE_STYLE('',(#435));
#250=EDGE_LOOP('',(#436,#437,#438));
#251=AXIS2_PLACEMENT_3D('',#439,#440,#441);
#252=SURFACE_SIDE_STYLE('',(#442));
#253=EDGE_LOOP('',(#443,#444,#445,#446));
#254=AXIS2_PLACEMENT_3D('',#447,#448,#449);
#255=SURFACE_SIDE_STYLE('',(#450));
#256=EDGE_LOOP('',(#451,#452,#453,#454,#455,#456,#457));
#257=AXIS2_PLACEMENT_3D('',#458,#459,#460);
#258=SURFACE_SIDE_STYLE('',(#461));
#259=EDGE_LOOP('',(#462,#463,#464,#465));
#260=AXIS2_PLACEMENT_3D('',#466,#467,#468);
#261=SURFACE_SIDE_STYLE('',(#469));
#262=EDGE_LOOP('',(#470,#471,#472,#473));
#263=AXIS2_PLACEMENT_3D('',#474,#475,#476);
#264=SURFACE_SIDE_STYLE('',(#477));
#265=EDGE_LOOP('',(#478,#479,#480,#481));
#266=AXIS2_PLACEMENT_3D('',#482,#483,#484);
#267=SURFACE_SIDE_STYLE('',(#485));
#268=EDGE_LOOP('',(#486,#487,#488,#489,#490,#491,#492));
#269=AXIS2_PLACEMENT_3D('',#493,#494,#495);
#270=SURFACE_SIDE_STYLE('',(#496));
#272=SURFACE_STYLE_FILL_AREA(#497);
#273=ORIENTED_EDGE('',*,*,#498,.F.);
#274=ORIENTED_EDGE('',*,*,#499,.F.);
#275=ORIENTED_EDGE('',*,*,#500,.T.);
#276=ORIENTED_EDGE('',*,*,#501,.F.);
#277=CARTESIAN_POINT('',(17.0,17.0,50.0));
#278=DIRECTION('',(0.0,0.0,-1.0));
#279=DIRECTION('',(-0.74517934171813,0.666864115601173,0.0));
#280=SURFACE_STYLE_FILL_AREA(#502);
#281=ORIENTED_EDGE('',*,*,#503,.F.);
#282=ORIENTED_EDGE('',*,*,#504,.F.);
#283=ORIENTED_EDGE('',*,*,#505,.T.);
#284=ORIENTED_EDGE('',*,*,#506,.F.);
#285=CARTESIAN_POINT('',(17.0,-17.0,50.0));
#286=DIRECTION('',(0.0,0.0,-1.0));
#287=DIRECTION('',(0.1583056171464,0.987390161779981,0.0));
#288=SURFACE_STYLE_FILL_AREA(#507);
#289=ORIENTED_EDGE('',*,*,#508,.F.);
#290=ORIENTED_EDGE('',*,*,#509,.T.);
#291=ORIENTED_EDGE('',*,*,#510,.F.);
#292=ORIENTED_EDGE('',*,*,#511,.F.);
#293=ORIENTED_EDGE('',*,*,#512,.F.);
#294=ORIENTED_EDGE('',*,*,#513,.F.);
#295=ORIENTED_EDGE('',*,*,#514,.F.);
#296=ORIENTED_EDGE('',*,*,#515,.F.);
#297=ORIENTED_EDGE('',*,*,#516,.F.);
#298=ORIENTED_EDGE('',*,*,#517,.F.);
#299=CARTESIAN_POINT('',(6.0,-3.67394039744206E-016,0.0));
#300=DIRECTION('',(-1.0,6.12323399573677E-017,-0.0));
#301=DIRECTION('',(6.12323399573677E-017,1.0,0.0));
#302=SURFACE_STYLE_FILL_AREA(#518);
#303=ORIENTED_EDGE('',*,*,#519,.F.);
#304=ORIENTED_EDGE('',*,*,#520,.F.);
#305=ORIENTED_EDGE('',*,*,#521,.F.);
#306=ORIENTED_EDGE('',*,*,#522,.F.);
#307=CARTESIAN_POINT('',(-0.593999999999998,0.0,-3.63720099346762E-017));
#308=DIRECTION('',(-1.0,-0.0,-6.12323399573677E-017));
#309=DIRECTION('',(6.12323399573676E-017,0.0,-1.0));
#310=SURFACE_STYLE_FILL_AREA(#523);
#311=ORIENTED_EDGE('',*,*,#524,.F.);
#312=ORIENTED_EDGE('',*,*,#522,.T.);
#313=ORIENTED_EDGE('',*,*,#525,.F.);
#314=ORIENTED_EDGE('',*,*,#526,.F.);
#315=CARTESIAN_POINT('',(6.906,0.0,4.22870539745581E-016));
#316=DIRECTION('',(-1.0,0.0,-6.12323399573676E-017));
#317=DIRECTION('',(6.12323399573676E-017,0.0,-1.0));
#318=SURFACE_STYLE_FILL_AREA(#527);
#319=ORIENTED_EDGE('',*,*,#524,.T.);
#320=ORIENTED_EDGE('',*,*,#528,.F.);
#321=ORIENTED_EDGE('',*,*,#525,.T.);
#322=ORIENTED_EDGE('',*,*,#529,.T.);
#323=CARTESIAN_POINT('',(6.906,0.0,4.22870539745581E-016));
#324=DIRECTION('',(-1.0,0.0,-6.12323399573676E-017));
#325=DIRECTION('',(6.12323399573676E-017,0.0,-1.0));
#326=SURFACE_STYLE_FILL_AREA(#530);
#327=ORIENTED_EDGE('',*,*,#519,.T.);
#328=ORIENTED_EDGE('',*,*,#529,.F.);
#329=ORIENTED_EDGE('',*,*,#521,.T.);
#330=ORIENTED_EDGE('',*,*,#531,.F.);
#331=CARTESIAN_POINT('',(-0.593999999999998,0.0,-3.63720099346762E-017));
#332=DIRECTION('',(-1.0,-0.0,-6.12323399573677E-017));
#333=DIRECTION('',(6.12323399573676E-017,0.0,-1.0));
#334=SURFACE_STYLE_FILL_AREA(#532);
#335=ORIENTED_EDGE('',*,*,#508,.T.);
#336=ORIENTED_EDGE('',*,*,#533,.F.);
#337=ORIENTED_EDGE('',*,*,#534,.F.);
#338=ORIENTED_EDGE('',*,*,#535,.F.);
#339=ORIENTED_EDGE('',*,*,#536,.F.);
#340=ORIENTED_EDGE('',*,*,#537,.F.);
#341=ORIENTED_EDGE('',*,*,#538,.F.);
#342=ORIENTED_EDGE('',*,*,#539,.F.);
#343=ORIENTED_EDGE('',*,*,#510,.T.);
#344=ORIENTED_EDGE('',*,*,#540,.T.);
#345=CARTESIAN_POINT('',(6.0,-3.67394039744206E-016,0.0));
#346=DIRECTION('',(-1.0,6.12323399573677E-017,-0.0));
#347=DIRECTION('',(6.12323399573677E-017,1.0,0.0));
#348=SURFACE_STYLE_FILL_AREA(#541);
#349=ORIENTED_EDGE('',*,*,#528,.T.);
#350=ORIENTED_EDGE('',*,*,#526,.T.);
#351=ORIENTED_EDGE('',*,*,#509,.F.);
#352=ORIENTED_EDGE('',*,*,#540,.F.);
#353=CARTESIAN_POINT('',(12.0,4.0,0.0));
#354=DIRECTION('',(1.0,0.0,0.0));
#355=DIRECTION('',(0.0,-1.0,0.0));
#356=SURFACE_STYLE_FILL_AREA(#542);
#357=ORIENTED_EDGE('',*,*,#535,.T.);
#358=ORIENTED_EDGE('',*,*,#543,.T.);
#359=ORIENTED_EDGE('',*,*,#544,.T.);
#360=ORIENTED_EDGE('',*,*,#499,.T.);
#361=ORIENTED_EDGE('',*,*,#545,.T.);
#362=ORIENTED_EDGE('',*,*,#546,.T.);
#363=ORIENTED_EDGE('',*,*,#547,.T.);
#364=CARTESIAN_POINT('',(-1.53080849893419E-016,25.5,2.5));
#365=DIRECTION('',(0.0199960011996005,0.0,0.999800059980007));
#366=DIRECTION('',(-0.999800059980007,0.0,0.0199960011996005));
#367=SURFACE_STYLE_FILL_AREA(#548);
#368=ORIENTED_EDGE('',*,*,#537,.T.);
#369=ORIENTED_EDGE('',*,*,#549,.T.);
#370=ORIENTED_EDGE('',*,*,#550,.T.);
#371=ORIENTED_EDGE('',*,*,#504,.T.);
#372=ORIENTED_EDGE('',*,*,#551,.T.);
#373=ORIENTED_EDGE('',*,*,#552,.T.);
#374=ORIENTED_EDGE('',*,*,#553,.T.);
#375=CARTESIAN_POINT('',(-1.53080849893419E-016,25.5,2.5));
#376=DIRECTION('',(0.0199960011996005,0.0,0.999800059980007));
#377=DIRECTION('',(-0.999800059980007,0.0,0.0199960011996005));
#378=SURFACE_STYLE_FILL_AREA(#554);
#379=ORIENTED_EDGE('',*,*,#520,.T.);
#380=ORIENTED_EDGE('',*,*,#531,.T.);
#381=ORIENTED_EDGE('',*,*,#555,.T.);
#382=ORIENTED_EDGE('',*,*,#549,.F.);
#383=ORIENTED_EDGE('',*,*,#536,.T.);
#384=ORIENTED_EDGE('',*,*,#547,.F.);
#385=ORIENTED_EDGE('',*,*,#556,.T.);
#386=ORIENTED_EDGE('',*,*,#557,.T.);
#387=ORIENTED_EDGE('',*,*,#514,.T.);
#388=ORIENTED_EDGE('',*,*,#558,.T.);
#389=CARTESIAN_POINT('',(0.0,25.5,-2.5));
#390=DIRECTION('',(-1.0,0.0,-3.06161699786838E-017));
#391=DIRECTION('',(3.06161699786838E-017,0.0,-1.0));
#392=SURFACE_STYLE_FILL_AREA(#559);
#393=ORIENTED_EDGE('',*,*,#515,.T.);
#394=ORIENTED_EDGE('',*,*,#557,.F.);
#395=ORIENTED_EDGE('',*,*,#560,.T.);
#396=ORIENTED_EDGE('',*,*,#561,.T.);
#397=ORIENTED_EDGE('',*,*,#501,.T.);
#398=ORIENTED_EDGE('',*,*,#562,.T.);
#399=ORIENTED_EDGE('',*,*,#563,.T.);
#400=CARTESIAN_POINT('',(26.0,25.5,-1.97999999999999));
#401=DIRECTION('',(0.0199960011996004,0.0,-0.999800059980007));
#402=DIRECTION('',(0.999800059980007,0.0,0.0199960011996004));
#403=SURFACE_STYLE_FILL_AREA(#564);
#404=ORIENTED_EDGE('',*,*,#533,.T.);
#405=ORIENTED_EDGE('',*,*,#517,.T.);
#406=ORIENTED_EDGE('',*,*,#565,.T.);
#407=ORIENTED_EDGE('',*,*,#562,.F.);
#408=ORIENTED_EDGE('',*,*,#500,.F.);
#409=ORIENTED_EDGE('',*,*,#544,.F.);
#410=ORIENTED_EDGE('',*,*,#566,.T.);
#411=CARTESIAN_POINT('',(18.2664449371712,9.10087870576015,50.0));
#412=DIRECTION('',(-0.158305617146399,0.987390161779981,0.0));
#413=DIRECTION('',(0.987390161779981,0.158305617146399,0.0));
#414=SURFACE_STYLE_FILL_AREA(#567);
#415=ORIENTED_EDGE('',*,*,#534,.T.);
#416=ORIENTED_EDGE('',*,*,#566,.F.);
#417=ORIENTED_EDGE('',*,*,#543,.F.);
#418=CARTESIAN_POINT('',(11.4,8.0,50.0));
#419=DIRECTION('',(-1.0,0.0,0.0));
#420=DIRECTION('',(0.0,1.0,0.0));
#421=SURFACE_STYLE_FILL_AREA(#568);
#422=ORIENTED_EDGE('',*,*,#516,.T.);
#423=ORIENTED_EDGE('',*,*,#563,.F.);
#424=ORIENTED_EDGE('',*,*,#565,.F.);
#425=CARTESIAN_POINT('',(11.4,8.0,50.0));
#426=DIRECTION('',(-1.0,0.0,0.0));
#427=DIRECTION('',(0.0,1.0,0.0));
#428=SURFACE_STYLE_FILL_AREA(#569);
#429=ORIENTED_EDGE('',*,*,#512,.T.);
#430=ORIENTED_EDGE('',*,*,#570,.T.);
#431=ORIENTED_EDGE('',*,*,#571,.F.);
#432=CARTESIAN_POINT('',(11.4,8.0,50.0));
#433=DIRECTION('',(-1.0,0.0,0.0));
#434=DIRECTION('',(0.0,1.0,0.0));
#435=SURFACE_STYLE_FILL_AREA(#572);
#436=ORIENTED_EDGE('',*,*,#538,.T.);
#437=ORIENTED_EDGE('',*,*,#553,.F.);
#438=ORIENTED_EDGE('',*,*,#573,.T.);
#439=CARTESIAN_POINT('',(11.4,8.0,50.0));
#440=DIRECTION('',(-1.0,0.0,0.0));
#441=DIRECTION('',(0.0,1.0,0.0));
#442=SURFACE_STYLE_FILL_AREA(#574);
#443=ORIENTED_EDGE('',*,*,#503,.T.);
#444=ORIENTED_EDGE('',*,*,#575,.F.);
#445=ORIENTED_EDGE('',*,*,#576,.F.);
#446=ORIENTED_EDGE('',*,*,#551,.F.);
#447=CARTESIAN_POINT('',(17.0,-17.0,50.0));
#448=DIRECTION('',(0.0,0.0,-1.0));
#449=DIRECTION('',(0.1583056171464,0.987390161779981,0.0));
#450=SURFACE_STYLE_FILL_AREA(#577);
#451=ORIENTED_EDGE('',*,*,#511,.T.);
#452=ORIENTED_EDGE('',*,*,#539,.T.);
#453=ORIENTED_EDGE('',*,*,#573,.F.);
#454=ORIENTED_EDGE('',*,*,#552,.F.);
#455=ORIENTED_EDGE('',*,*,#576,.T.);
#456=ORIENTED_EDGE('',*,*,#578,.F.);
#457=ORIENTED_EDGE('',*,*,#570,.F.);
#458=CARTESIAN_POINT('',(11.4,-8.0,50.0));
#459=DIRECTION('',(-0.1583056171464,-0.987390161779981,0.0));
#460=DIRECTION('',(-0.987390161779981,0.1583056171464,0.0));
#461=SURFACE_STYLE_FILL_AREA(#579);
#462=ORIENTED_EDGE('',*,*,#546,.F.);
#463=ORIENTED_EDGE('',*,*,#580,.T.);
#464=ORIENTED_EDGE('',*,*,#560,.F.);
#465=ORIENTED_EDGE('',*,*,#556,.F.);
#466=CARTESIAN_POINT('',(-2.0,7.76512388570689,50.0));
#467=DIRECTION('',(0.74517934171813,-0.666864115601173,0.0));
#468=DIRECTION('',(-0.666864115601173,-0.74517934171813,0.0));
#469=SURFACE_STYLE_FILL_AREA(#581);
#470=ORIENTED_EDGE('',*,*,#498,.T.);
#471=ORIENTED_EDGE('',*,*,#561,.F.);
#472=ORIENTED_EDGE('',*,*,#580,.F.);
#473=ORIENTED_EDGE('',*,*,#545,.F.);
#474=CARTESIAN_POINT('',(17.0,17.0,50.0));
#475=DIRECTION('',(0.0,0.0,-1.0));
#476=DIRECTION('',(-0.74517934171813,0.666864115601173,0.0));
#477=SURFACE_STYLE_FILL_AREA(#582);
#478=ORIENTED_EDGE('',*,*,#550,.F.);
#479=ORIENTED_EDGE('',*,*,#555,.F.);
#480=ORIENTED_EDGE('',*,*,#583,.F.);
#481=ORIENTED_EDGE('',*,*,#505,.F.);
#482=CARTESIAN_POINT('',(11.038565266255,-22.3349129248094,50.0));
#483=DIRECTION('',(0.74517934171813,0.666864115601173,0.0));
#484=DIRECTION('',(0.666864115601173,-0.74517934171813,0.0));
#485=SURFACE_STYLE_FILL_AREA(#584);
#486=ORIENTED_EDGE('',*,*,#513,.T.);
#487=ORIENTED_EDGE('',*,*,#571,.T.);
#488=ORIENTED_EDGE('',*,*,#578,.T.);
#489=ORIENTED_EDGE('',*,*,#575,.T.);
#490=ORIENTED_EDGE('',*,*,#506,.T.);
#491=ORIENTED_EDGE('',*,*,#583,.T.);
#492=ORIENTED_EDGE('',*,*,#558,.F.);
#493=CARTESIAN_POINT('',(26.0,25.5,-1.97999999999999));
#494=DIRECTION('',(0.0199960011996004,0.0,-0.999800059980007));
#495=DIRECTION('',(0.999800059980007,0.0,0.0199960011996004));
#496=SURFACE_STYLE_FILL_AREA(#585);
#497=FILL_AREA_STYLE('',(#586));
#498=EDGE_CURVE('',#587,#588,#589,.T.);
#499=EDGE_CURVE('',#590,#587,#591,.T.);
#500=EDGE_CURVE('',#590,#592,#593,.T.);
#501=EDGE_CURVE('',#588,#592,#594,.T.);
#502=FILL_AREA_STYLE('',(#595));
#503=EDGE_CURVE('',#596,#597,#598,.T.);
#504=EDGE_CURVE('',#599,#596,#600,.T.);
#505=EDGE_CURVE('',#599,#601,#602,.T.);
#506=EDGE_CURVE('',#597,#601,#603,.T.);
#507=FILL_AREA_STYLE('',(#604));
#508=EDGE_CURVE('',#605,#606,#607,.T.);
#509=EDGE_CURVE('',#605,#608,#609,.T.);
#510=EDGE_CURVE('',#610,#608,#611,.T.);
#511=EDGE_CURVE('',#612,#610,#613,.T.);
#512=EDGE_CURVE('',#614,#612,#615,.T.);
#513=EDGE_CURVE('',#616,#614,#617,.T.);
#514=EDGE_CURVE('',#618,#616,#619,.T.);
#515=EDGE_CURVE('',#620,#618,#621,.T.);
#516=EDGE_CURVE('',#622,#620,#623,.T.);
#517=EDGE_CURVE('',#606,#622,#624,.T.);
#518=FILL_AREA_STYLE('',(#625));
#519=EDGE_CURVE('',#626,#627,#628,.T.);
#520=EDGE_CURVE('',#629,#626,#630,.T.);
#521=EDGE_CURVE('',#631,#629,#632,.T.);
#522=EDGE_CURVE('',#627,#631,#633,.T.);
#523=FILL_AREA_STYLE('',(#634));
#524=EDGE_CURVE('',#627,#635,#636,.T.);
#525=EDGE_CURVE('',#637,#631,#638,.T.);
#526=EDGE_CURVE('',#635,#637,#639,.T.);
#527=FILL_AREA_STYLE('',(#640));
#528=EDGE_CURVE('',#637,#635,#641,.T.);
#529=EDGE_CURVE('',#631,#627,#642,.T.);
#530=FILL_AREA_STYLE('',(#643));
#531=EDGE_CURVE('',#626,#629,#644,.T.);
#532=FILL_AREA_STYLE('',(#645));
#533=EDGE_CURVE('',#646,#606,#647,.T.);
#534=EDGE_CURVE('',#648,#646,#649,.T.);
#535=EDGE_CURVE('',#650,#648,#651,.T.);
#536=EDGE_CURVE('',#652,#650,#653,.T.);
#537=EDGE_CURVE('',#654,#652,#655,.T.);
#538=EDGE_CURVE('',#656,#654,#657,.T.);
#539=EDGE_CURVE('',#610,#656,#658,.T.);
#540=EDGE_CURVE('',#608,#605,#659,.T.);
#541=FILL_AREA_STYLE('',(#660));
#542=FILL_AREA_STYLE('',(#661));
#543=EDGE_CURVE('',#648,#662,#663,.T.);
#544=EDGE_CURVE('',#662,#590,#664,.T.);
#545=EDGE_CURVE('',#587,#665,#666,.T.);
#546=EDGE_CURVE('',#665,#667,#668,.T.);
#547=EDGE_CURVE('',#667,#650,#669,.T.);
#548=FILL_AREA_STYLE('',(#670));
#549=EDGE_CURVE('',#652,#671,#672,.T.);
#550=EDGE_CURVE('',#671,#599,#673,.T.);
#551=EDGE_CURVE('',#596,#674,#675,.T.);
#552=EDGE_CURVE('',#674,#676,#677,.T.);
#553=EDGE_CURVE('',#676,#654,#678,.T.);
#554=FILL_AREA_STYLE('',(#679));
#555=EDGE_CURVE('',#680,#671,#681,.T.);
#556=EDGE_CURVE('',#667,#682,#683,.T.);
#557=EDGE_CURVE('',#682,#618,#684,.T.);
#558=EDGE_CURVE('',#616,#680,#685,.T.);
#559=FILL_AREA_STYLE('',(#686));
#560=EDGE_CURVE('',#682,#687,#688,.T.);
#561=EDGE_CURVE('',#687,#588,#689,.T.);
#562=EDGE_CURVE('',#592,#690,#691,.T.);
#563=EDGE_CURVE('',#690,#620,#692,.T.);
#564=FILL_AREA_STYLE('',(#693));
#565=EDGE_CURVE('',#622,#690,#694,.T.);
#566=EDGE_CURVE('',#662,#646,#695,.T.);
#567=FILL_AREA_STYLE('',(#696));
#568=FILL_AREA_STYLE('',(#697));
#569=FILL_AREA_STYLE('',(#698));
#570=EDGE_CURVE('',#612,#699,#700,.T.);
#571=EDGE_CURVE('',#614,#699,#701,.T.);
#572=FILL_AREA_STYLE('',(#702));
#573=EDGE_CURVE('',#676,#656,#703,.T.);
#574=FILL_AREA_STYLE('',(#704));
#575=EDGE_CURVE('',#705,#597,#706,.T.);
#576=EDGE_CURVE('',#674,#705,#707,.T.);
#577=FILL_AREA_STYLE('',(#708));
#578=EDGE_CURVE('',#699,#705,#709,.T.);
#579=FILL_AREA_STYLE('',(#710));
#580=EDGE_CURVE('',#665,#687,#711,.T.);
#581=FILL_AREA_STYLE('',(#712));
#582=FILL_AREA_STYLE('',(#713));
#583=EDGE_CURVE('',#601,#680,#714,.T.);
#584=FILL_AREA_STYLE('',(#715));
#585=FILL_AREA_STYLE('',(#716));
#586=FILL_AREA_STYLE_COLOUR('',#717);
#587=VERTEX_POINT('',#718);
#588=VERTEX_POINT('',#719);
#589=LINE('',#720,#721);
#590=VERTEX_POINT('',#722);
#591=ELLIPSE('',#723,8.00159984003199,8.0);
#592=VERTEX_POINT('',#724);
#593=LINE('',#725,#726);
#594=ELLIPSE('',#727,8.00159984003199,8.0);
#595=FILL_AREA_STYLE_COLOUR('',#728);
#596=VERTEX_POINT('',#729);
#597=VERTEX_POINT('',#730);
#598=LINE('',#731,#732);
#599=VERTEX_POINT('',#733);
#600=ELLIPSE('',#734,8.00159984003199,8.0);
#601=VERTEX_POINT('',#735);
#602=LINE('',#736,#737);
#603=ELLIPSE('',#738,8.00159984003199,8.0);
#604=FILL_AREA_STYLE_COLOUR('',#739);
#605=VERTEX_POINT('',#740);
#606=VERTEX_POINT('',#741);
#607=LINE('',#742,#743);
#608=VERTEX_POINT('',#744);
#609=CIRCLE('',#745,7.99999999999998);
#610=VERTEX_POINT('',#746);
#611=LINE('',#747,#748);
#612=VERTEX_POINT('',#749);
#613=(B_SPLINE_CURVE(2,(#751,#752,#753),.UNSPECIFIED.,.F.,.F.)B_SPLINE_CURVE_WITH_KNOTS((3,3),(0.0,2.61222314938819),.UNSPECIFIED.)RATIONAL_B_SPLINE_CURVE((1.0,1.00024085809366,1.0))BOUNDED_CURVE()REPRESENTATION_ITEM('')GEOMETRIC_REPRESENTATION_ITEM()CURVE());
#614=VERTEX_POINT('',#760);
#615=CIRCLE('',#761,8.09999999999998);
#616=VERTEX_POINT('',#762);
#617=(B_SPLINE_CURVE(2,(#764,#765,#766),.UNSPECIFIED.,.F.,.F.)B_SPLINE_CURVE_WITH_KNOTS((3,3),(0.0,11.4899043048317),.UNSPECIFIED.)RATIONAL_B_SPLINE_CURVE((1.0,1.00623938942324,1.00069663741901))BOUNDED_CURVE()REPRESENTATION_ITEM('')GEOMETRIC_REPRESENTATION_ITEM()CURVE());
#618=VERTEX_POINT('',#773);
#619=CIRCLE('',#774,10.0);
#620=VERTEX_POINT('',#775);
#621=(B_SPLINE_CURVE(2,(#777,#778,#779),.UNSPECIFIED.,.F.,.F.)B_SPLINE_CURVE_WITH_KNOTS((3,3),(0.679358445004852,12.1692627498916),.UNSPECIFIED.)RATIONAL_B_SPLINE_CURVE((1.00069663741658,1.00623938940195,1.0))BOUNDED_CURVE()REPRESENTATION_ITEM('')GEOMETRIC_REPRESENTATION_ITEM()CURVE());
#622=VERTEX_POINT('',#786);
#623=CIRCLE('',#787,8.09999999999998);
#624=(B_SPLINE_CURVE(2,(#789,#790,#791),.UNSPECIFIED.,.F.,.F.)B_SPLINE_CURVE_WITH_KNOTS((3,3),(0.0,2.61222314938825),.UNSPECIFIED.)RATIONAL_B_SPLINE_CURVE((1.0,1.00024085809368,1.0))BOUNDED_CURVE()REPRESENTATION_ITEM('')GEOMETRIC_REPRESENTATION_ITEM()CURVE());
#625=FILL_AREA_STYLE_COLOUR('',#798);
#626=VERTEX_POINT('',#799);
#627=VERTEX_POINT('',#800);
#628=LINE('',#801,#802);
#629=VERTEX_POINT('',#803);
#630=CIRCLE('',#804,5.00000000000001);
#631=VERTEX_POINT('',#805);
#632=LINE('',#806,#807);
#633=CIRCLE('',#808,4.18800000000001);
#634=FILL_AREA_STYLE_COLOUR('',#809);
#635=VERTEX_POINT('',#810);
#636=LINE('',#811,#812);
#637=VERTEX_POINT('',#813);
#638=LINE('',#814,#815);
#639=CIRCLE('',#816,4.188);
#640=FILL_AREA_STYLE_COLOUR('',#817);
#641=CIRCLE('',#818,4.188);
#642=CIRCLE('',#819,4.18800000000001);
#643=FILL_AREA_STYLE_COLOUR('',#820);
#644=CIRCLE('',#821,5.00000000000001);
#645=FILL_AREA_STYLE_COLOUR('',#822);
#646=VERTEX_POINT('',#823);
#647=(B_SPLINE_CURVE(2,(#825,#826,#827),.UNSPECIFIED.,.F.,.F.)B_SPLINE_CURVE_WITH_KNOTS((3,3),(0.0,2.61222314938825),.UNSPECIFIED.)RATIONAL_B_SPLINE_CURVE((1.0,1.00024085809368,1.0))BOUNDED_CURVE()REPRESENTATION_ITEM('')GEOMETRIC_REPRESENTATION_ITEM()CURVE());
#648=VERTEX_POINT('',#834);
#649=CIRCLE('',#835,8.09999999999998);
#650=VERTEX_POINT('',#836);
#651=(B_SPLINE_CURVE(2,(#838,#839,#840),.UNSPECIFIED.,.F.,.F.)B_SPLINE_CURVE_WITH_KNOTS((3,3),(0.0,11.4899043048796),.UNSPECIFIED.)RATIONAL_B_SPLINE_CURVE((1.0,1.00623938940502,1.00069663741693))BOUNDED_CURVE()REPRESENTATION_ITEM('')GEOMETRIC_REPRESENTATION_ITEM()CURVE());
#652=VERTEX_POINT('',#847);
#653=CIRCLE('',#848,10.0);
#654=VERTEX_POINT('',#849);
#655=(B_SPLINE_CURVE(2,(#851,#852,#853),.UNSPECIFIED.,.F.,.F.)B_SPLINE_CURVE_WITH_KNOTS((3,3),(0.679358445067281,12.1692627498916),.UNSPECIFIED.)RATIONAL_B_SPLINE_CURVE((1.00069663741932,1.00623938942588,1.0))BOUNDED_CURVE()REPRESENTATION_ITEM('')GEOMETRIC_REPRESENTATION_ITEM()CURVE());
#656=VERTEX_POINT('',#860);
#657=CIRCLE('',#861,8.09999999999998);
#658=(B_SPLINE_CURVE(2,(#863,#864,#865),.UNSPECIFIED.,.F.,.F.)B_SPLINE_CURVE_WITH_KNOTS((3,3),(0.0,2.61222314938819),.UNSPECIFIED.)RATIONAL_B_SPLINE_CURVE((1.0,1.00024085809366,1.0))BOUNDED_CURVE()REPRESENTATION_ITEM('')GEOMETRIC_REPRESENTATION_ITEM()CURVE());
#659=CIRCLE('',#872,7.99999999999998);
#660=FILL_AREA_STYLE_COLOUR('',#873);
#661=FILL_AREA_STYLE_COLOUR('',#874);
#662=VERTEX_POINT('',#875);
#663=LINE('',#876,#877);
#664=LINE('',#878,#879);
#665=VERTEX_POINT('',#880);
#666=ELLIPSE('',#881,8.00159984003199,8.0);
#667=VERTEX_POINT('',#882);
#668=LINE('',#883,#884);
#669=LINE('',#885,#886);
#670=FILL_AREA_STYLE_COLOUR('',#887);
#671=VERTEX_POINT('',#888);
#672=LINE('',#889,#890);
#673=LINE('',#891,#892);
#674=VERTEX_POINT('',#893);
#675=ELLIPSE('',#894,8.00159984003199,8.0);
#676=VERTEX_POINT('',#895);
#677=LINE('',#896,#897);
#678=LINE('',#898,#899);
#679=FILL_AREA_STYLE_COLOUR('',#900);
#680=VERTEX_POINT('',#901);
#681=LINE('',#902,#903);
#682=VERTEX_POINT('',#904);
#683=LINE('',#905,#906);
#684=LINE('',#907,#908);
#685=LINE('',#909,#910);
#686=FILL_AREA_STYLE_COLOUR('',#911);
#687=VERTEX_POINT('',#912);
#688=LINE('',#913,#914);
#689=ELLIPSE('',#915,8.00159984003199,8.0);
#690=VERTEX_POINT('',#916);
#691=LINE('',#917,#918);
#692=LINE('',#919,#920);
#693=FILL_AREA_STYLE_COLOUR('',#921);
#694=LINE('',#922,#923);
#695=LINE('',#924,#925);
#696=FILL_AREA_STYLE_COLOUR('',#926);
#697=FILL_AREA_STYLE_COLOUR('',#927);
#698=FILL_AREA_STYLE_COLOUR('',#928);
#699=VERTEX_POINT('',#929);
#700=LINE('',#930,#931);
#701=LINE('',#932,#933);
#702=FILL_AREA_STYLE_COLOUR('',#934);
#703=LINE('',#935,#936);
#704=FILL_AREA_STYLE_COLOUR('',#937);
#705=VERTEX_POINT('',#938);
#706=ELLIPSE('',#939,8.00159984003199,8.0);
#707=LINE('',#940,#941);
#708=FILL_AREA_STYLE_COLOUR('',#942);
#709=LINE('',#943,#944);
#710=FILL_AREA_STYLE_COLOUR('',#945);
#711=LINE('',#946,#947);
#712=FILL_AREA_STYLE_COLOUR('',#948);
#713=FILL_AREA_STYLE_COLOUR('',#949);
#714=LINE('',#950,#951);
#715=FILL_AREA_STYLE_COLOUR('',#952);
#716=FILL_AREA_STYLE_COLOUR('',#953);
#717=COLOUR_RGB('',0.689999997615814,0.689999997615814,0.689999997615814);
#718=CARTESIAN_POINT('',(22.961434733745,11.6650870751906,2.04077130532509));
#719=CARTESIAN_POINT('',(22.961434733745,11.6650870751906,-2.04077130532509));
#720=CARTESIAN_POINT('',(22.961434733745,11.6650870751906,0.0));
#721=VECTOR('',#954,1.0);
#722=CARTESIAN_POINT('',(18.2664449371712,9.10087870576015,2.13467110125657));
#723=AXIS2_PLACEMENT_3D('',#955,#956,#957);
#724=CARTESIAN_POINT('',(18.2664449371712,9.10087870576015,-2.13467110125656));
#725=CARTESIAN_POINT('',(18.2664449371712,9.10087870576015,50.0));
#726=VECTOR('',#958,1.0);
#727=AXIS2_PLACEMENT_3D('',#959,#960,#961);
#728=COLOUR_RGB('',0.689999997615814,0.689999997615814,0.689999997615814);
#729=CARTESIAN_POINT('',(15.7335550628288,-24.8991212942399,2.18532889874342));
#730=CARTESIAN_POINT('',(15.7335550628288,-24.8991212942399,-2.18532889874341));
#731=CARTESIAN_POINT('',(15.7335550628288,-24.8991212942399,0.0));
#732=VECTOR('',#962,1.0);
#733=CARTESIAN_POINT('',(11.038565266255,-22.3349129248094,2.27922869467491));
#734=AXIS2_PLACEMENT_3D('',#963,#964,#965);
#735=CARTESIAN_POINT('',(11.038565266255,-22.3349129248094,-2.2792286946749));
#736=CARTESIAN_POINT('',(11.038565266255,-22.3349129248094,50.0));
#737=VECTOR('',#966,1.0);
#738=AXIS2_PLACEMENT_3D('',#967,#968,#969);
#739=COLOUR_RGB('',0.689999997615814,0.689999997615814,0.689999997615814);
#740=CARTESIAN_POINT('',(12.0,7.99999999999998,0.0));
#741=CARTESIAN_POINT('',(11.7058160225444,8.04903066290925,9.36880439645219E-016));
#742=CARTESIAN_POINT('',(6.0,8.99999999999999,1.10214571844014E-015));
#743=VECTOR('',#970,1.0);
#744=CARTESIAN_POINT('',(12.0,-7.99999999999998,-9.79685083057899E-016));
#745=AXIS2_PLACEMENT_3D('',#971,#972,#973);
#746=CARTESIAN_POINT('',(11.7058160225444,-8.04903066290925,-9.36880439645223E-016));
#747=CARTESIAN_POINT('',(6.0,-8.99999999999999,-1.10214571844014E-015));
#748=VECTOR('',#974,1.0);
#749=CARTESIAN_POINT('',(11.4,-8.0,-1.26885775404483));
#751=CARTESIAN_POINT('',(11.4,-8.0,-1.26885775404484));
#752=CARTESIAN_POINT('',(12.0115584045615,-8.09804951923021,0.0));
#753=CARTESIAN_POINT('',(11.4,-8.0,1.26885775404484));
#760=CARTESIAN_POINT('',(11.4,-7.77483221683913,-2.27199999999999));
#761=AXIS2_PLACEMENT_3D('',#975,#976,#977);
#762=CARTESIAN_POINT('',(-1.37359191671693E-015,-9.68245836551854,-2.5));
#764=CARTESIAN_POINT('',(-1.77635683940025E-015,-9.68245836551854,-2.5));
#765=CARTESIAN_POINT('',(6.32286120429735,-8.62673898506169,-2.37354277591405));
#766=CARTESIAN_POINT('',(11.4,-7.77483221683913,-2.27199999999999));
#773=CARTESIAN_POINT('',(-1.87832752195948E-016,9.68245836551854,-2.5));
#774=AXIS2_PLACEMENT_3D('',#978,#979,#980);
#775=CARTESIAN_POINT('',(11.4,7.77483221683913,-2.27199999999999));
#777=CARTESIAN_POINT('',(11.4,7.77483221683913,-2.27199999999999));
#778=CARTESIAN_POINT('',(6.32286120378463,8.62673898514753,-2.37354277592431));
#779=CARTESIAN_POINT('',(0.0,9.68245836551854,-2.5));
#786=CARTESIAN_POINT('',(11.4,8.0,-1.26885775404484));
#787=AXIS2_PLACEMENT_3D('',#981,#982,#983);
#789=CARTESIAN_POINT('',(11.4,7.99999999999999,1.26885775404486));
#790=CARTESIAN_POINT('',(12.0115584045615,8.09804951923021,0.0));
#791=CARTESIAN_POINT('',(11.4,7.99999999999999,-1.26885775404486));
#798=COLOUR_RGB('',0.689999997615814,0.689999997615814,0.689999997615814);
#799=CARTESIAN_POINT('',(4.20585474309037E-017,6.1230317691119E-016,-5.00000000000001));
#800=CARTESIAN_POINT('',(0.812000000000005,0.0,-4.18800000000001));
#801=CARTESIAN_POINT('',(-0.593999999999997,6.85044794328238E-016,-5.594));
#802=VECTOR('',#984,1.0);
#803=CARTESIAN_POINT('',(-1.11022302462516E-016,-6.12303176911189E-016,5.00000000000001));
#804=AXIS2_PLACEMENT_3D('',#985,#986,#987);
#805=CARTESIAN_POINT('',(0.812000000000005,-5.12865140980812E-016,4.18800000000001));
#806=CARTESIAN_POINT('',(-0.593999999999998,-6.85044794328238E-016,5.594));
#807=VECTOR('',#988,1.0);
#808=AXIS2_PLACEMENT_3D('',#989,#990,#991);
#809=COLOUR_RGB('',0.689999997615814,0.689999997615814,0.689999997615814);
#810=CARTESIAN_POINT('',(12.0,5.12865140980812E-016,-4.188));
#811=CARTESIAN_POINT('',(6.906,5.12865140980812E-016,-4.188));
#812=VECTOR('',#992,1.0);
#813=CARTESIAN_POINT('',(12.0,5.12865140980812E-016,4.18800000000001));
#814=CARTESIAN_POINT('',(6.906,-5.12865140980812E-016,4.188));
#815=VECTOR('',#993,1.0);
#816=AXIS2_PLACEMENT_3D('',#994,#995,#996);
#817=COLOUR_RGB('',0.689999997615814,0.689999997615814,0.689999997615814);
#818=AXIS2_PLACEMENT_3D('',#997,#998,#999);
#819=AXIS2_PLACEMENT_3D('',#1000,#1001,#1002);
#820=COLOUR_RGB('',0.689999997615814,0.689999997615814,0.689999997615814);
#821=AXIS2_PLACEMENT_3D('',#1003,#1004,#1005);
#822=COLOUR_RGB('',0.689999997615814,0.689999997615814,0.689999997615814);
#823=CARTESIAN_POINT('',(11.4,8.0,1.26885775404484));
#825=CARTESIAN_POINT('',(11.4,7.99999999999999,1.26885775404486));
#826=CARTESIAN_POINT('',(12.0115584045615,8.09804951923021,0.0));
#827=CARTESIAN_POINT('',(11.4,7.99999999999999,-1.26885775404486));
#834=CARTESIAN_POINT('',(11.4,7.77483221683913,2.272));
#835=AXIS2_PLACEMENT_3D('',#1006,#1007,#1008);
#836=CARTESIAN_POINT('',(5.9287958226049E-016,9.68245836551854,2.5));
#838=CARTESIAN_POINT('',(0.0,9.68245836551854,2.5));
#839=CARTESIAN_POINT('',(6.32286120385272,8.62673898513613,2.37354277592294));
#840=CARTESIAN_POINT('',(11.4,7.77483221683913,2.272));
#847=CARTESIAN_POINT('',(-5.9287958226049E-016,-9.68245836551854,2.5));
#848=AXIS2_PLACEMENT_3D('',#1009,#1010,#1011);
#849=CARTESIAN_POINT('',(11.4,-7.77483221683913,2.272));
#851=CARTESIAN_POINT('',(11.4,-7.77483221683913,2.272));
#852=CARTESIAN_POINT('',(6.32286120436565,-8.62673898505025,2.37354277591268));
#853=CARTESIAN_POINT('',(-1.77635683940025E-015,-9.68245836551854,2.5));
#860=CARTESIAN_POINT('',(11.4,-8.0,1.26885775404483));
#861=AXIS2_PLACEMENT_3D('',#1012,#1013,#1014);
#863=CARTESIAN_POINT('',(11.4,-8.0,-1.26885775404484));
#864=CARTESIAN_POINT('',(12.0115584045615,-8.09804951923021,0.0));
#865=CARTESIAN_POINT('',(11.4,-8.0,1.26885775404484));
#872=AXIS2_PLACEMENT_3D('',#1015,#1016,#1017);
#873=COLOUR_RGB('',0.689999997615814,0.689999997615814,0.689999997615814);
#874=COLOUR_RGB('',0.689999997615814,0.689999997615814,0.689999997615814);
#875=CARTESIAN_POINT('',(11.4,8.0,2.272));
#876=CARTESIAN_POINT('',(11.4,16.75,2.272));
#877=VECTOR('',#1018,1.0);
#878=CARTESIAN_POINT('',(10.1767107539402,7.80387331518784,2.29646578492119));
#879=VECTOR('',#1019,1.0);
#880=CARTESIAN_POINT('',(11.038565266255,22.3349129248094,2.27922869467491));
#881=AXIS2_PLACEMENT_3D('',#1020,#1021,#1022);
#882=CARTESIAN_POINT('',(-1.53080849893419E-016,10.0,2.5));
#883=CARTESIAN_POINT('',(2.63952785274628,12.949508875557,2.44720944294508));
#884=VECTOR('',#1023,1.0);
#885=CARTESIAN_POINT('',(-1.53080849893419E-016,25.5,2.5));
#886=VECTOR('',#1024,1.0);
#887=COLOUR_RGB('',0.689999997615814,0.689999997615814,0.689999997615814);
#888=CARTESIAN_POINT('',(-1.53080849893419E-016,-10.0,2.5));
#889=CARTESIAN_POINT('',(-1.53080849893419E-016,25.5,2.5));
#890=VECTOR('',#1025,1.0);
#891=CARTESIAN_POINT('',(-3.51189602809785,-6.07567372546163,2.57023792056196));
#892=VECTOR('',#1026,1.0);
#893=CARTESIAN_POINT('',(18.2664449371712,-9.10087870576016,2.13467110125657));
#894=AXIS2_PLACEMENT_3D('',#1027,#1028,#1029);
#895=CARTESIAN_POINT('',(11.4,-8.0,2.272));
#896=CARTESIAN_POINT('',(2.76049050369606,-6.61485060759666,2.44479018992608));
#897=VECTOR('',#1030,1.0);
#898=CARTESIAN_POINT('',(11.4,16.75,2.272));
#899=VECTOR('',#1031,1.0);
#900=COLOUR_RGB('',0.689999997615814,0.689999997615814,0.689999997615814);
#901=CARTESIAN_POINT('',(0.0,-10.0,-2.5));
#902=CARTESIAN_POINT('',(-1.33226762955019E-015,-10.0,23.75));
#903=VECTOR('',#1032,1.0);
#904=CARTESIAN_POINT('',(0.0,10.0,-2.5));
#905=CARTESIAN_POINT('',(-8.88178419700125E-016,10.0,23.75));
#906=VECTOR('',#1033,1.0);
#907=CARTESIAN_POINT('',(0.0,25.5,-2.5));
#908=VECTOR('',#1034,1.0);
#909=CARTESIAN_POINT('',(0.0,25.5,-2.5));
#910=VECTOR('',#1035,1.0);
#911=COLOUR_RGB('',0.689999997615814,0.689999997615814,0.689999997615814);
#912=CARTESIAN_POINT('',(11.038565266255,22.3349129248094,-2.2792286946749));
#913=CARTESIAN_POINT('',(8.8666411163028,19.9079222224172,-2.32266717767394));
#914=VECTOR('',#1036,1.0);
#915=AXIS2_PLACEMENT_3D('',#1037,#1038,#1039);
#916=CARTESIAN_POINT('',(11.4,8.0,-2.272));
#917=CARTESIAN_POINT('',(23.8256083417466,9.99216446861657,-2.02348783316506));
#918=VECTOR('',#1040,1.0);
#919=CARTESIAN_POINT('',(11.4,16.75,-2.27199999999999));
#920=VECTOR('',#1041,1.0);
#921=COLOUR_RGB('',0.689999997615814,0.689999997615814,0.689999997615814);
#922=CARTESIAN_POINT('',(11.4,8.0,50.0));
#923=VECTOR('',#1042,1.0);
#924=CARTESIAN_POINT('',(11.4,8.0,50.0));
#925=VECTOR('',#1043,1.0);
#926=COLOUR_RGB('',0.689999997615814,0.689999997615814,0.689999997615814);
#927=COLOUR_RGB('',0.689999997615814,0.689999997615814,0.689999997615814);
#928=COLOUR_RGB('',0.689999997615814,0.689999997615814,0.689999997615814);
#929=CARTESIAN_POINT('',(11.4,-8.0,-2.272));
#930=CARTESIAN_POINT('',(11.4,-8.0,50.0));
#931=VECTOR('',#1044,1.0);
#932=CARTESIAN_POINT('',(11.4,16.75,-2.27199999999999));
#933=VECTOR('',#1045,1.0);
#934=COLOUR_RGB('',0.689999997615814,0.689999997615814,0.689999997615814);
#935=CARTESIAN_POINT('',(11.4,-8.0,50.0));
#936=VECTOR('',#1046,1.0);
#937=COLOUR_RGB('',0.689999997615814,0.689999997615814,0.689999997615814);
#938=CARTESIAN_POINT('',(18.2664449371712,-9.10087870576016,-2.13467110125656));
#939=AXIS2_PLACEMENT_3D('',#1047,#1048,#1049);
#940=CARTESIAN_POINT('',(18.2664449371712,-9.10087870576016,50.0));
#941=VECTOR('',#1050,1.0);
#942=COLOUR_RGB('',0.689999997615814,0.689999997615814,0.689999997615814);
#943=CARTESIAN_POINT('',(16.4093880915024,-8.80314176102539,-2.17181223816995));
#944=VECTOR('',#1051,1.0);
#945=COLOUR_RGB('',0.689999997615814,0.689999997615814,0.689999997615814);
#946=CARTESIAN_POINT('',(11.038565266255,22.3349129248094,50.0));
#947=VECTOR('',#1052,1.0);
#948=COLOUR_RGB('',0.689999997615814,0.689999997615814,0.689999997615814);
#949=COLOUR_RGB('',0.689999997615814,0.689999997615814,0.689999997615814);
#950=CARTESIAN_POINT('',(2.71521723545867,-13.0340870723218,-2.44569565529083));
#951=VECTOR('',#1053,1.0);
#952=COLOUR_RGB('',0.689999997615814,0.689999997615814,0.689999997615814);
#953=COLOUR_RGB('',0.689999997615814,0.689999997615814,0.689999997615814);
#954=DIRECTION('',(0.0,0.0,-1.0));
#955=CARTESIAN_POINT('',(17.0,17.0,2.16));
#956=DIRECTION('',(0.0199960011996005,0.0,0.999800059980007));
#957=DIRECTION('',(-0.999800059980007,-1.37029629204179E-013,0.0199960011996005));
#958=DIRECTION('',(0.0,0.0,-1.0));
#959=CARTESIAN_POINT('',(17.0,17.0,-2.15999999999999));
#960=DIRECTION('',(0.0199960011996004,0.0,-0.999800059980007));
#961=DIRECTION('',(-0.999800059980007,-1.37029629204179E-013,-0.0199960011996004));
#962=DIRECTION('',(0.0,0.0,-1.0));
#963=CARTESIAN_POINT('',(17.0,-17.0,2.16));
#964=DIRECTION('',(0.0199960011996005,0.0,0.999800059980007));
#965=DIRECTION('',(0.999800059980007,2.27272714293688E-014,-0.0199960011996005));
#966=DIRECTION('',(0.0,0.0,-1.0));
#967=CARTESIAN_POINT('',(17.0,-17.0,-2.15999999999999));
#968=DIRECTION('',(0.0199960011996004,9.85878975444814E-032,-0.999800059980007));
#969=DIRECTION('',(0.999800059980007,2.27272714293688E-014,0.0199960011996004));
#970=DIRECTION('',(-0.986393923832143,0.164398987305359,2.01324044416107E-017));
#971=CARTESIAN_POINT('',(12.0,-7.34788079488412E-016,0.0));
#972=DIRECTION('',(-1.0,6.12323399573677E-017,0.0));
#973=DIRECTION('',(6.12323399573677E-017,1.0,0.0));
#974=DIRECTION('',(0.986393923832144,0.164398987305359,2.01324044416107E-017));
#975=CARTESIAN_POINT('',(11.4,-6.98048675513991E-016,0.0));
#976=DIRECTION('',(-1.0,0.0,0.0));
#977=DIRECTION('',(0.0,1.0,0.0));
#978=CARTESIAN_POINT('',(0.0,0.0,0.0));
#979=DIRECTION('',(-1.0,6.12323399573677E-017,0.0));
#980=DIRECTION('',(6.12323399573677E-017,1.0,0.0));
#981=CARTESIAN_POINT('',(11.4,-6.98048675513991E-016,0.0));
#982=DIRECTION('',(-1.0,0.0,0.0));
#983=DIRECTION('',(0.0,1.0,0.0));
#984=DIRECTION('',(0.707106781186549,-8.65927457071934E-017,0.707106781186546));
#985=CARTESIAN_POINT('',(-1.11022302462516E-016,0.0,4.31408307542741E-032));
#986=DIRECTION('',(1.0,0.0,3.06161699786838E-017));
#987=DIRECTION('',(3.06161699786838E-017,0.0,-1.0));
#988=DIRECTION('',(-0.707106781186549,-8.65927457071934E-017,0.707106781186546));
#989=CARTESIAN_POINT('',(0.812000000000005,0.0,4.97206600453829E-017));
#990=DIRECTION('',(-1.0,0.0,-6.12323399573676E-017));
#991=DIRECTION('',(6.12323399573676E-017,0.0,-1.0));
#992=DIRECTION('',(1.0,-0.0,6.12323399573676E-017));
#993=DIRECTION('',(-1.0,-0.0,-6.12323399573676E-017));
#994=CARTESIAN_POINT('',(12.0,0.0,7.34788079488412E-016));
#995=DIRECTION('',(-1.0,0.0,0.0));
#996=DIRECTION('',(0.0,0.0,-1.0));
#997=CARTESIAN_POINT('',(12.0,0.0,7.34788079488412E-016));
#998=DIRECTION('',(-1.0,0.0,0.0));
#999=DIRECTION('',(0.0,0.0,-1.0));
#1000=CARTESIAN_POINT('',(0.812000000000005,0.0,4.97206600453829E-017));
#1001=DIRECTION('',(-1.0,0.0,-6.12323399573676E-017));
#1002=DIRECTION('',(6.12323399573676E-017,0.0,-1.0));
#1003=CARTESIAN_POINT('',(-1.11022302462516E-016,0.0,4.31408307542741E-032));
#1004=DIRECTION('',(1.0,0.0,3.06161699786838E-017));
#1005=DIRECTION('',(3.06161699786838E-017,0.0,-1.0));
#1006=CARTESIAN_POINT('',(11.4,-6.98048675513991E-016,0.0));
#1007=DIRECTION('',(-1.0,0.0,0.0));
#1008=DIRECTION('',(0.0,1.0,0.0));
#1009=CARTESIAN_POINT('',(0.0,0.0,0.0));
#1010=DIRECTION('',(-1.0,6.12323399573677E-017,0.0));
#1011=DIRECTION('',(6.12323399573677E-017,1.0,0.0));
#1012=CARTESIAN_POINT('',(11.4,-6.98048675513991E-016,0.0));
#1013=DIRECTION('',(-1.0,0.0,0.0));
#1014=DIRECTION('',(0.0,1.0,0.0));
#1015=CARTESIAN_POINT('',(12.0,-7.34788079488412E-016,0.0));
#1016=DIRECTION('',(-1.0,6.12323399573677E-017,0.0));
#1017=DIRECTION('',(6.12323399573677E-017,1.0,0.0));
#1018=DIRECTION('',(0.0,1.0,0.0));
#1019=DIRECTION('',(0.987197688972078,0.158274758497186,-0.0197439537794419));
#1020=CARTESIAN_POINT('',(17.0,17.0,2.16));
#1021=DIRECTION('',(0.0199960011996005,0.0,0.999800059980007));
#1022=DIRECTION('',(-0.999800059980007,-1.37029629204179E-013,0.0199960011996005));
#1023=DIRECTION('',(-0.666804811585038,-0.745113073153559,0.013336096231701));
#1024=DIRECTION('',(0.0,-1.0,0.0));
#1025=DIRECTION('',(0.0,-1.0,0.0));
#1026=DIRECTION('',(0.666804811585037,-0.745113073153559,-0.013336096231701));
#1027=CARTESIAN_POINT('',(17.0,-17.0,2.16));
#1028=DIRECTION('',(0.0199960011996005,0.0,0.999800059980007));
#1029=DIRECTION('',(0.999800059980007,2.27272714293688E-014,-0.0199960011996005));
#1030=DIRECTION('',(-0.987197688972078,0.158274758497187,0.0197439537794419));
#1031=DIRECTION('',(0.0,1.0,0.0));
#1032=DIRECTION('',(-3.06161699786838E-017,3.42116734982492E-017,1.0));
#1033=DIRECTION('',(3.06161699786838E-017,3.42116734982491E-017,-1.0));
#1034=DIRECTION('',(0.0,-1.0,0.0));
#1035=DIRECTION('',(0.0,-1.0,0.0));
#1036=DIRECTION('',(0.666804811585038,0.745113073153559,0.013336096231701));
#1037=CARTESIAN_POINT('',(17.0,17.0,-2.15999999999999));
#1038=DIRECTION('',(0.0199960011996004,0.0,-0.999800059980007));
#1039=DIRECTION('',(-0.999800059980007,-1.37029629204179E-013,-0.0199960011996004));
#1040=DIRECTION('',(-0.987197688972078,-0.158274758497186,-0.0197439537794419));
#1041=DIRECTION('',(0.0,-1.0,0.0));
#1042=DIRECTION('',(0.0,0.0,-1.0));
#1043=DIRECTION('',(0.0,0.0,-1.0));
#1044=DIRECTION('',(0.0,0.0,-1.0));
#1045=DIRECTION('',(0.0,-1.0,0.0));
#1046=DIRECTION('',(0.0,0.0,-1.0));
#1047=CARTESIAN_POINT('',(17.0,-17.0,-2.15999999999999));
#1048=DIRECTION('',(0.0199960011996004,9.85878975444814E-032,-0.999800059980007));
#1049=DIRECTION('',(0.999800059980007,2.27272714293688E-014,0.0199960011996004));
#1050=DIRECTION('',(0.0,0.0,-1.0));
#1051=DIRECTION('',(0.987197688972078,-0.158274758497187,0.0197439537794419));
#1052=DIRECTION('',(0.0,0.0,-1.0));
#1053=DIRECTION('',(-0.666804811585037,0.745113073153559,-0.013336096231701));
ENDSEC;
END-ISO-10303-21;
