ISO-10303-21;
HEADER;
FILE_DESCRIPTION((''),'2;1');
FILE_NAME('NUT-M08-ISO_4034',
 '2011-09-17T',
 ('Vladimir Zima'),
 ('ZIMA-Engineering'),
 'ZIMA-CAD-3D',
 'ZIMA-CAD-3D',
 '');
FILE_SCHEMA(('CONFIG_CONTROL_DESIGN'));
ENDSEC;
DATA;
#1=CARTESIAN_POINT('',(0.E0,-3.5E0,0.E0));
#2=DIRECTION('',(0.E0,1.E0,0.E0));
#3=DIRECTION('',(1.E0,0.E0,0.E0));
#4=AXIS2_PLACEMENT_3D('',#1,#2,#3);
#6=CARTESIAN_POINT('',(0.E0,-3.5E0,0.E0));
#7=DIRECTION('',(0.E0,1.E0,0.E0));
#8=DIRECTION('',(5.000000000076E-1,0.E0,-8.660254037801E-1));
#9=AXIS2_PLACEMENT_3D('',#6,#7,#8);
#11=CARTESIAN_POINT('',(0.E0,-3.5E0,0.E0));
#12=DIRECTION('',(0.E0,1.E0,0.E0));
#13=DIRECTION('',(-4.999999999927E-1,0.E0,-8.660254037887E-1));
#14=AXIS2_PLACEMENT_3D('',#11,#12,#13);
#16=CARTESIAN_POINT('',(0.E0,-3.5E0,0.E0));
#17=DIRECTION('',(0.E0,1.E0,0.E0));
#18=DIRECTION('',(-1.E0,0.E0,0.E0));
#19=AXIS2_PLACEMENT_3D('',#16,#17,#18);
#21=CARTESIAN_POINT('',(0.E0,-3.5E0,0.E0));
#22=DIRECTION('',(0.E0,1.E0,0.E0));
#23=DIRECTION('',(-5.000000000076E-1,0.E0,8.660254037801E-1));
#24=AXIS2_PLACEMENT_3D('',#21,#22,#23);
#26=CARTESIAN_POINT('',(0.E0,-3.5E0,0.E0));
#27=DIRECTION('',(0.E0,1.E0,0.E0));
#28=DIRECTION('',(4.999999999927E-1,0.E0,8.660254037887E-1));
#29=AXIS2_PLACEMENT_3D('',#26,#27,#28);
#31=CARTESIAN_POINT('',(0.E0,-3.499998355610E0,0.E0));
#32=DIRECTION('',(0.E0,1.E0,0.E0));
#33=DIRECTION('',(-1.E0,0.E0,0.E0));
#34=AXIS2_PLACEMENT_3D('',#31,#32,#33);
#36=CARTESIAN_POINT('',(0.E0,-3.499998355610E0,0.E0));
#37=DIRECTION('',(0.E0,1.E0,0.E0));
#38=DIRECTION('',(1.E0,0.E0,0.E0));
#39=AXIS2_PLACEMENT_3D('',#36,#37,#38);
#41=CARTESIAN_POINT('',(6.500000003545E0,3.500000000831E0,-2.632208472724E-8));
#42=CARTESIAN_POINT('',(6.500000003545E0,3.500000000831E0,-2.479242568714E-1));
#43=CARTESIAN_POINT('',(6.499999998355E0,3.483554357173E0,-7.433737290732E-1));
#44=CARTESIAN_POINT('',(6.500000000441E0,3.410914694120E0,-1.484585024277E0));
#45=CARTESIAN_POINT('',(6.499999999881E0,3.292912815139E0,-2.226132412012E0));
#46=CARTESIAN_POINT('',(6.500000000034E0,3.132495435027E0,-2.973084263208E0));
#47=CARTESIAN_POINT('',(6.5E0,2.995169335833E0,-3.490454469914E0));
#48=CARTESIAN_POINT('',(6.5E0,2.919443416399E0,-3.752776749733E0));
#50=CARTESIAN_POINT('',(6.500000000002E0,-3.500000000010E0,
-1.086575273926E-12));
#51=CARTESIAN_POINT('',(6.500000000002E0,-3.500000000010E0,-2.479242377370E-1));
#52=CARTESIAN_POINT('',(6.499999999999E0,-3.483554364329E0,-7.433736139993E-1));
#53=CARTESIAN_POINT('',(6.5E0,-3.410914701939E0,-1.484584973362E0));
#54=CARTESIAN_POINT('',(6.5E0,-3.292912823189E0,-2.226132369183E0));
#55=CARTESIAN_POINT('',(6.5E0,-3.132495440338E0,-2.973084243193E0));
#56=CARTESIAN_POINT('',(6.5E0,-2.995169337849E0,-3.490454462931E0));
#57=CARTESIAN_POINT('',(6.5E0,-2.919443416399E0,-3.752776749733E0));
#59=CARTESIAN_POINT('',(6.5E0,-2.919443416399E0,3.752776749733E0));
#60=CARTESIAN_POINT('',(6.5E0,-2.995891219913E0,3.487953790106E0));
#61=CARTESIAN_POINT('',(6.5E0,-3.134088430503E0,2.966734113301E0));
#62=CARTESIAN_POINT('',(6.5E0,-3.294417286257E0,2.218137636728E0));
#63=CARTESIAN_POINT('',(6.5E0,-3.411775115582E0,1.477576552600E0));
#64=CARTESIAN_POINT('',(6.499999999999E0,-3.483740608061E0,7.393945938993E-1));
#65=CARTESIAN_POINT('',(6.500000000002E0,-3.500000000010E0,2.464664657583E-1));
#66=CARTESIAN_POINT('',(6.500000000002E0,-3.500000000010E0,
-1.086575273926E-12));
#68=DIRECTION('',(0.E0,1.E0,0.E0));
#69=VECTOR('',#68,5.838886832798E0);
#70=CARTESIAN_POINT('',(6.5E0,-2.919443416399E0,3.752776749733E0));
#71=LINE('',#70,#69);
#72=CARTESIAN_POINT('',(6.5E0,2.919443416399E0,3.752776749733E0));
#73=CARTESIAN_POINT('',(6.5E0,2.995891219925E0,3.487953790067E0));
#74=CARTESIAN_POINT('',(6.500000000034E0,3.134088430540E0,2.966734113422E0));
#75=CARTESIAN_POINT('',(6.499999999881E0,3.294417286273E0,2.218137635677E0));
#76=CARTESIAN_POINT('',(6.500000000441E0,3.411775115727E0,1.477576555340E0));
#77=CARTESIAN_POINT('',(6.499999998355E0,3.483740607718E0,7.393945819924E-1));
#78=CARTESIAN_POINT('',(6.500000003545E0,3.500000000829E0,2.464664899418E-1));
#79=CARTESIAN_POINT('',(6.500000003545E0,3.500000000831E0,-2.632208472724E-8));
#81=CARTESIAN_POINT('',(6.5E0,2.919443416399E0,-3.752776749733E0));
#82=CARTESIAN_POINT('',(6.268883142340E0,2.996482368952E0,-3.886212129717E0));
#83=CARTESIAN_POINT('',(5.814757156821E0,3.135393448632E0,-4.148401889702E0));
#84=CARTESIAN_POINT('',(5.165251142330E0,3.295656023346E0,-4.523394362009E0));
#85=CARTESIAN_POINT('',(4.524564274784E0,3.412489205113E0,-4.893295097453E0));
#86=CARTESIAN_POINT('',(3.887468932229E0,3.483894404239E0,-5.261122264976E0));
#87=CARTESIAN_POINT('',(3.462394873884E0,3.500000000001E0,-5.506538886989E0));
#88=CARTESIAN_POINT('',(3.250000000036E0,3.500000000001E0,-5.629165124579E0));
#90=CARTESIAN_POINT('',(3.250000000036E0,3.500000000001E0,-5.629165124579E0));
#91=CARTESIAN_POINT('',(3.037549487543E0,3.500000000001E0,-5.751823485157E0));
#92=CARTESIAN_POINT('',(2.612384920114E0,3.483885456484E0,-5.997292362610E0));
#93=CARTESIAN_POINT('',(1.975229224510E0,3.412460400169E0,-6.365154374983E0));
#94=CARTESIAN_POINT('',(1.334518063484E0,3.295602999687E0,-6.735069136274E0));
#95=CARTESIAN_POINT('',(6.852699273573E-1,3.135397408747E0,-7.109912722438E0));
#96=CARTESIAN_POINT('',(2.311346618788E-1,2.996488303692E0,-7.372107840210E0));
#97=CARTESIAN_POINT('',(0.E0,2.919443416399E0,-7.505553499465E0));
#99=CARTESIAN_POINT('',(3.250000000020E0,-3.5E0,-5.629165124588E0));
#100=CARTESIAN_POINT('',(3.037549487559E0,-3.5E0,-5.751823485147E0));
#101=CARTESIAN_POINT('',(2.612384920106E0,-3.483885456485E0,-5.997292362614E0));
#102=CARTESIAN_POINT('',(1.975229224512E0,-3.412460400169E0,-6.365154374982E0));
#103=CARTESIAN_POINT('',(1.334518063484E0,-3.295602999687E0,-6.735069136274E0));
#104=CARTESIAN_POINT('',(6.852699273575E-1,-3.135397408747E0,
-7.109912722438E0));
#105=CARTESIAN_POINT('',(2.311346618788E-1,-2.996488303692E0,
-7.372107840210E0));
#106=CARTESIAN_POINT('',(0.E0,-2.919443416399E0,-7.505553499465E0));
#108=CARTESIAN_POINT('',(6.5E0,-2.919443416399E0,-3.752776749733E0));
#109=CARTESIAN_POINT('',(6.268883142336E0,-2.996482368954E0,-3.886212129719E0));
#110=CARTESIAN_POINT('',(5.814757156808E0,-3.135393448636E0,-4.148401889710E0));
#111=CARTESIAN_POINT('',(5.165251142303E0,-3.295656023352E0,-4.523394362024E0));
#112=CARTESIAN_POINT('',(4.524564274751E0,-3.412489205119E0,-4.893295097472E0));
#113=CARTESIAN_POINT('',(3.887468932156E0,-3.483894404244E0,-5.261122265018E0));
#114=CARTESIAN_POINT('',(3.462394873872E0,-3.5E0,-5.506538886995E0));
#115=CARTESIAN_POINT('',(3.250000000020E0,-3.5E0,-5.629165124588E0));
#117=DIRECTION('',(0.E0,1.E0,0.E0));
#118=VECTOR('',#117,5.838886832798E0);
#119=CARTESIAN_POINT('',(6.5E0,-2.919443416399E0,-3.752776749733E0));
#120=LINE('',#119,#118);
#121=CARTESIAN_POINT('',(0.E0,2.919443416399E0,-7.505553499465E0));
#122=CARTESIAN_POINT('',(-2.311168576622E-1,2.996482368953E0,
-7.372118119480E0));
#123=CARTESIAN_POINT('',(-6.852428429970E-1,3.135393448634E0,
-7.109928359618E0));
#124=CARTESIAN_POINT('',(-1.334748858348E0,3.295656023349E0,-6.734935886737E0));
#125=CARTESIAN_POINT('',(-1.975435722774E0,3.412489205117E0,-6.365035153379E0));
#126=CARTESIAN_POINT('',(-2.612531076995E0,3.483894404242E0,-5.997207978061E0));
#127=CARTESIAN_POINT('',(-3.037605106339E0,3.500000000001E0,-5.751791375427E0));
#128=CARTESIAN_POINT('',(-3.249999980189E0,3.500000000001E0,-5.629165137835E0));
#130=CARTESIAN_POINT('',(-3.249999980189E0,3.500000000001E0,-5.629165137835E0));
#131=CARTESIAN_POINT('',(-3.462450492664E0,3.500000000001E0,-5.506506777268E0));
#132=CARTESIAN_POINT('',(-3.887615089073E0,3.483885456484E0,-5.261037880449E0));
#133=CARTESIAN_POINT('',(-4.524770773028E0,3.412460400169E0,-4.893175875860E0));
#134=CARTESIAN_POINT('',(-5.165481937179E0,3.295602999687E0,-4.523261112481E0));
#135=CARTESIAN_POINT('',(-5.814730072453E0,3.135397408747E0,-4.148417526886E0));
#136=CARTESIAN_POINT('',(-6.268865338121E0,2.996488303692E0,-3.886222408987E0));
#137=CARTESIAN_POINT('',(-6.5E0,2.919443416399E0,-3.752776749733E0));
#139=CARTESIAN_POINT('',(-3.249999999981E0,-3.5E0,-5.629165124611E0));
#140=CARTESIAN_POINT('',(-3.462450512443E0,-3.5E0,-5.506506764052E0));
#141=CARTESIAN_POINT('',(-3.887615079893E0,-3.483885456485E0,
-5.261037886583E0));
#142=CARTESIAN_POINT('',(-4.524770775488E0,-3.412460400169E0,
-4.893175874216E0));
#143=CARTESIAN_POINT('',(-5.165481936516E0,-3.295602999687E0,
-4.523261112923E0));
#144=CARTESIAN_POINT('',(-5.814730072643E0,-3.135397408747E0,
-4.148417526760E0));
#145=CARTESIAN_POINT('',(-6.268865338121E0,-2.996488303692E0,
-3.886222408987E0));
#146=CARTESIAN_POINT('',(-6.5E0,-2.919443416399E0,-3.752776749733E0));
#148=CARTESIAN_POINT('',(0.E0,-2.919443416399E0,-7.505553499465E0));
#149=CARTESIAN_POINT('',(-2.311168576641E-1,-2.996482368954E0,
-7.372118119479E0));
#150=CARTESIAN_POINT('',(-6.852428431918E-1,-3.135393448636E0,
-7.109928359488E0));
#151=CARTESIAN_POINT('',(-1.334748857697E0,-3.295656023352E0,
-6.734935887173E0));
#152=CARTESIAN_POINT('',(-1.975435725249E0,-3.412489205119E0,
-6.365035151726E0));
#153=CARTESIAN_POINT('',(-2.612531067844E0,-3.483894404244E0,
-5.997207984179E0));
#154=CARTESIAN_POINT('',(-3.037605126129E0,-3.5E0,-5.751791362204E0));
#155=CARTESIAN_POINT('',(-3.249999999981E0,-3.5E0,-5.629165124611E0));
#157=DIRECTION('',(0.E0,1.E0,0.E0));
#158=VECTOR('',#157,5.838886832798E0);
#159=CARTESIAN_POINT('',(0.E0,-2.919443416399E0,-7.505553499465E0));
#160=LINE('',#159,#158);
#161=CARTESIAN_POINT('',(-6.5E0,2.919443416399E0,-3.752776749733E0));
#162=CARTESIAN_POINT('',(-6.5E0,2.995891219924E0,-3.487953790068E0));
#163=CARTESIAN_POINT('',(-6.500000000034E0,3.134088430538E0,-2.966734113439E0));
#164=CARTESIAN_POINT('',(-6.499999999881E0,3.294417286272E0,-2.218137635647E0));
#165=CARTESIAN_POINT('',(-6.500000000441E0,3.411775115722E0,-1.477576555508E0));
#166=CARTESIAN_POINT('',(-6.499999998355E0,3.483740607727E0,
-7.393945814452E-1));
#167=CARTESIAN_POINT('',(-6.500000003545E0,3.500000000805E0,
-2.464664911899E-1));
#168=CARTESIAN_POINT('',(-6.500000003545E0,3.500000000808E0,2.364605063541E-8));
#170=CARTESIAN_POINT('',(-6.500000003545E0,3.500000000808E0,2.364605063541E-8));
#171=CARTESIAN_POINT('',(-6.500000003545E0,3.500000000808E0,2.479242544037E-1));
#172=CARTESIAN_POINT('',(-6.499999998355E0,3.483554357376E0,7.433737267156E-1));
#173=CARTESIAN_POINT('',(-6.500000000441E0,3.410914694340E0,1.484585022598E0));
#174=CARTESIAN_POINT('',(-6.499999999881E0,3.292912815367E0,2.226132410866E0));
#175=CARTESIAN_POINT('',(-6.500000000034E0,3.132495435177E0,2.973084262624E0));
#176=CARTESIAN_POINT('',(-6.5E0,2.995169335890E0,3.490454469717E0));
#177=CARTESIAN_POINT('',(-6.5E0,2.919443416399E0,3.752776749733E0));
#179=CARTESIAN_POINT('',(-6.500000000002E0,-3.500000000010E0,
1.086963852027E-12));
#180=CARTESIAN_POINT('',(-6.500000000002E0,-3.500000000010E0,
2.479242377370E-1));
#181=CARTESIAN_POINT('',(-6.499999999999E0,-3.483554364329E0,
7.433736139993E-1));
#182=CARTESIAN_POINT('',(-6.5E0,-3.410914701939E0,1.484584973362E0));
#183=CARTESIAN_POINT('',(-6.5E0,-3.292912823189E0,2.226132369183E0));
#184=CARTESIAN_POINT('',(-6.5E0,-3.132495440338E0,2.973084243193E0));
#185=CARTESIAN_POINT('',(-6.5E0,-2.995169337849E0,3.490454462931E0));
#186=CARTESIAN_POINT('',(-6.5E0,-2.919443416399E0,3.752776749733E0));
#188=CARTESIAN_POINT('',(-6.5E0,-2.919443416399E0,-3.752776749733E0));
#189=CARTESIAN_POINT('',(-6.5E0,-2.995891219913E0,-3.487953790106E0));
#190=CARTESIAN_POINT('',(-6.5E0,-3.134088430503E0,-2.966734113301E0));
#191=CARTESIAN_POINT('',(-6.5E0,-3.294417286257E0,-2.218137636728E0));
#192=CARTESIAN_POINT('',(-6.5E0,-3.411775115582E0,-1.477576552600E0));
#193=CARTESIAN_POINT('',(-6.499999999999E0,-3.483740608061E0,
-7.393945938993E-1));
#194=CARTESIAN_POINT('',(-6.500000000002E0,-3.500000000010E0,
-2.464664657583E-1));
#195=CARTESIAN_POINT('',(-6.500000000002E0,-3.500000000010E0,
1.086963852027E-12));
#197=DIRECTION('',(0.E0,1.E0,0.E0));
#198=VECTOR('',#197,5.838886832798E0);
#199=CARTESIAN_POINT('',(-6.5E0,-2.919443416399E0,-3.752776749733E0));
#200=LINE('',#199,#198);
#201=CARTESIAN_POINT('',(-6.5E0,2.919443416399E0,3.752776749733E0));
#202=CARTESIAN_POINT('',(-6.268883142340E0,2.996482368953E0,3.886212129717E0));
#203=CARTESIAN_POINT('',(-5.814757156820E0,3.135393448632E0,4.148401889703E0));
#204=CARTESIAN_POINT('',(-5.165251142329E0,3.295656023346E0,4.523394362010E0));
#205=CARTESIAN_POINT('',(-4.524564274782E0,3.412489205114E0,4.893295097454E0));
#206=CARTESIAN_POINT('',(-3.887468932225E0,3.483894404239E0,5.261122264978E0));
#207=CARTESIAN_POINT('',(-3.462394873883E0,3.500000000001E0,5.506538886989E0));
#208=CARTESIAN_POINT('',(-3.250000000035E0,3.500000000001E0,5.629165124580E0));
#210=CARTESIAN_POINT('',(-3.250000000035E0,3.500000000001E0,5.629165124580E0));
#211=CARTESIAN_POINT('',(-3.037549487544E0,3.500000000001E0,5.751823485156E0));
#212=CARTESIAN_POINT('',(-2.612384920113E0,3.483885456484E0,5.997292362610E0));
#213=CARTESIAN_POINT('',(-1.975229224510E0,3.412460400169E0,6.365154374983E0));
#214=CARTESIAN_POINT('',(-1.334518063484E0,3.295602999687E0,6.735069136274E0));
#215=CARTESIAN_POINT('',(-6.852699273573E-1,3.135397408747E0,7.109912722438E0));
#216=CARTESIAN_POINT('',(-2.311346618788E-1,2.996488303692E0,7.372107840210E0));
#217=CARTESIAN_POINT('',(0.E0,2.919443416399E0,7.505553499465E0));
#219=CARTESIAN_POINT('',(-3.250000000020E0,-3.5E0,5.629165124588E0));
#220=CARTESIAN_POINT('',(-3.037549487559E0,-3.5E0,5.751823485147E0));
#221=CARTESIAN_POINT('',(-2.612384920106E0,-3.483885456485E0,5.997292362614E0));
#222=CARTESIAN_POINT('',(-1.975229224512E0,-3.412460400169E0,6.365154374982E0));
#223=CARTESIAN_POINT('',(-1.334518063484E0,-3.295602999687E0,6.735069136274E0));
#224=CARTESIAN_POINT('',(-6.852699273575E-1,-3.135397408747E0,
7.109912722438E0));
#225=CARTESIAN_POINT('',(-2.311346618788E-1,-2.996488303692E0,
7.372107840210E0));
#226=CARTESIAN_POINT('',(0.E0,-2.919443416399E0,7.505553499465E0));
#228=CARTESIAN_POINT('',(-6.5E0,-2.919443416399E0,3.752776749733E0));
#229=CARTESIAN_POINT('',(-6.268883142336E0,-2.996482368954E0,3.886212129719E0));
#230=CARTESIAN_POINT('',(-5.814757156808E0,-3.135393448636E0,4.148401889710E0));
#231=CARTESIAN_POINT('',(-5.165251142303E0,-3.295656023352E0,4.523394362024E0));
#232=CARTESIAN_POINT('',(-4.524564274751E0,-3.412489205119E0,4.893295097472E0));
#233=CARTESIAN_POINT('',(-3.887468932156E0,-3.483894404244E0,5.261122265018E0));
#234=CARTESIAN_POINT('',(-3.462394873872E0,-3.5E0,5.506538886995E0));
#235=CARTESIAN_POINT('',(-3.250000000020E0,-3.5E0,5.629165124588E0));
#237=DIRECTION('',(0.E0,1.E0,0.E0));
#238=VECTOR('',#237,5.838886832798E0);
#239=CARTESIAN_POINT('',(-6.5E0,-2.919443416399E0,3.752776749733E0));
#240=LINE('',#239,#238);
#241=CARTESIAN_POINT('',(0.E0,2.919443416399E0,7.505553499465E0));
#242=CARTESIAN_POINT('',(2.311168576599E-1,2.996482368953E0,7.372118119481E0));
#243=CARTESIAN_POINT('',(6.852428429931E-1,3.135393448632E0,7.109928359620E0));
#244=CARTESIAN_POINT('',(1.334748858325E0,3.295656023346E0,6.734935886751E0));
#245=CARTESIAN_POINT('',(1.975435722792E0,3.412489205114E0,6.365035153365E0));
#246=CARTESIAN_POINT('',(2.612531076827E0,3.483894404239E0,5.997207978170E0));
#247=CARTESIAN_POINT('',(3.037605106615E0,3.500000000001E0,5.751791375241E0));
#248=CARTESIAN_POINT('',(3.249999980463E0,3.500000000001E0,5.629165137651E0));
#250=CARTESIAN_POINT('',(3.249999980463E0,3.500000000001E0,5.629165137651E0));
#251=CARTESIAN_POINT('',(3.462450492954E0,3.500000000001E0,5.506506777075E0));
#252=CARTESIAN_POINT('',(3.887615088938E0,3.483885456484E0,5.261037880538E0));
#253=CARTESIAN_POINT('',(4.524770773064E0,3.412460400169E0,4.893175875836E0));
#254=CARTESIAN_POINT('',(5.165481937169E0,3.295602999687E0,4.523261112487E0));
#255=CARTESIAN_POINT('',(5.814730072456E0,3.135397408747E0,4.148417526885E0));
#256=CARTESIAN_POINT('',(6.268865338121E0,2.996488303692E0,3.886222408987E0));
#257=CARTESIAN_POINT('',(6.5E0,2.919443416399E0,3.752776749733E0));
#259=CARTESIAN_POINT('',(3.249999999981E0,-3.5E0,5.629165124611E0));
#260=CARTESIAN_POINT('',(3.462450512443E0,-3.5E0,5.506506764052E0));
#261=CARTESIAN_POINT('',(3.887615079893E0,-3.483885456485E0,5.261037886583E0));
#262=CARTESIAN_POINT('',(4.524770775488E0,-3.412460400169E0,4.893175874216E0));
#263=CARTESIAN_POINT('',(5.165481936516E0,-3.295602999687E0,4.523261112923E0));
#264=CARTESIAN_POINT('',(5.814730072643E0,-3.135397408747E0,4.148417526760E0));
#265=CARTESIAN_POINT('',(6.268865338121E0,-2.996488303692E0,3.886222408987E0));
#266=CARTESIAN_POINT('',(6.5E0,-2.919443416399E0,3.752776749733E0));
#268=CARTESIAN_POINT('',(0.E0,-2.919443416399E0,7.505553499465E0));
#269=CARTESIAN_POINT('',(2.311168576641E-1,-2.996482368954E0,7.372118119479E0));
#270=CARTESIAN_POINT('',(6.852428431918E-1,-3.135393448636E0,7.109928359488E0));
#271=CARTESIAN_POINT('',(1.334748857697E0,-3.295656023352E0,6.734935887173E0));
#272=CARTESIAN_POINT('',(1.975435725249E0,-3.412489205119E0,6.365035151726E0));
#273=CARTESIAN_POINT('',(2.612531067844E0,-3.483894404244E0,5.997207984179E0));
#274=CARTESIAN_POINT('',(3.037605126129E0,-3.5E0,5.751791362204E0));
#275=CARTESIAN_POINT('',(3.249999999981E0,-3.5E0,5.629165124611E0));
#277=DIRECTION('',(0.E0,1.E0,0.E0));
#278=VECTOR('',#277,5.838886832798E0);
#279=CARTESIAN_POINT('',(0.E0,-2.919443416399E0,7.505553499465E0));
#280=LINE('',#279,#278);
#281=CARTESIAN_POINT('',(0.E0,3.5E0,0.E0));
#282=DIRECTION('',(0.E0,1.E0,0.E0));
#283=DIRECTION('',(1.E0,0.E0,-5.979780651737E-10));
#284=AXIS2_PLACEMENT_3D('',#281,#282,#283);
#286=CARTESIAN_POINT('',(0.E0,3.5E0,0.E0));
#287=DIRECTION('',(0.E0,1.E0,0.E0));
#288=DIRECTION('',(4.999999875187E-1,0.E0,8.660254109905E-1));
#289=AXIS2_PLACEMENT_3D('',#286,#287,#288);
#291=CARTESIAN_POINT('',(0.E0,3.5E0,0.E0));
#292=DIRECTION('',(0.E0,1.E0,0.E0));
#293=DIRECTION('',(-5.000000000076E-1,0.E0,8.660254037801E-1));
#294=AXIS2_PLACEMENT_3D('',#291,#292,#293);
#296=CARTESIAN_POINT('',(0.E0,3.5E0,0.E0));
#297=DIRECTION('',(0.E0,1.E0,0.E0));
#298=DIRECTION('',(-1.E0,0.E0,-5.979782699803E-10));
#299=AXIS2_PLACEMENT_3D('',#296,#297,#298);
#301=CARTESIAN_POINT('',(0.E0,3.5E0,0.E0));
#302=DIRECTION('',(0.E0,1.E0,0.E0));
#303=DIRECTION('',(-4.999999873382E-1,0.E0,-8.660254110947E-1));
#304=AXIS2_PLACEMENT_3D('',#301,#302,#303);
#306=CARTESIAN_POINT('',(0.E0,3.5E0,0.E0));
#307=DIRECTION('',(0.E0,1.E0,0.E0));
#308=DIRECTION('',(5.000000000076E-1,0.E0,-8.660254037801E-1));
#309=AXIS2_PLACEMENT_3D('',#306,#307,#308);
#311=CARTESIAN_POINT('',(0.E0,3.499998355610E0,0.E0));
#312=DIRECTION('',(0.E0,-1.E0,0.E0));
#313=DIRECTION('',(-1.E0,0.E0,0.E0));
#314=AXIS2_PLACEMENT_3D('',#311,#312,#313);
#316=CARTESIAN_POINT('',(0.E0,3.499998355610E0,0.E0));
#317=DIRECTION('',(0.E0,-1.E0,0.E0));
#318=DIRECTION('',(1.E0,0.E0,0.E0));
#319=AXIS2_PLACEMENT_3D('',#316,#317,#318);
#321=DIRECTION('',(8.660256265758E-1,-4.999996141138E-1,-5.465496166061E-10));
#322=VECTOR('',#321,5.773502691385E-1);
#323=CARTESIAN_POINT('',(-3.900000371466E0,3.499999356306E0,
9.115918655056E-10));
#324=LINE('',#323,#322);
#325=DIRECTION('',(-8.660256265758E-1,-4.999996141138E-1,5.465510138433E-10));
#326=VECTOR('',#325,5.773502691385E-1);
#327=CARTESIAN_POINT('',(3.900000371466E0,3.499999356306E0,
-9.115928609388E-10));
#328=LINE('',#327,#326);
#329=CARTESIAN_POINT('',(0.E0,3.211325663594E0,0.E0));
#330=DIRECTION('',(0.E0,-1.E0,0.E0));
#331=DIRECTION('',(1.E0,0.E0,0.E0));
#332=AXIS2_PLACEMENT_3D('',#329,#330,#331);
#334=DIRECTION('',(0.E0,1.E0,0.E0));
#335=VECTOR('',#334,6.422648889057E0);
#336=CARTESIAN_POINT('',(-3.400000242882E0,-3.211324444529E0,
5.960422187459E-10));
#337=LINE('',#336,#335);
#338=CARTESIAN_POINT('',(0.E0,-3.211325663594E0,0.E0));
#339=DIRECTION('',(0.E0,1.E0,0.E0));
#340=DIRECTION('',(-1.E0,0.E0,0.E0));
#341=AXIS2_PLACEMENT_3D('',#338,#339,#340);
#343=DIRECTION('',(0.E0,1.E0,0.E0));
#344=VECTOR('',#343,6.422648889057E0);
#345=CARTESIAN_POINT('',(3.400000242882E0,-3.211324444529E0,
-5.960415082028E-10));
#346=LINE('',#345,#344);
#347=CARTESIAN_POINT('',(0.E0,3.211325663594E0,0.E0));
#348=DIRECTION('',(0.E0,-1.E0,0.E0));
#349=DIRECTION('',(-1.E0,0.E0,0.E0));
#350=AXIS2_PLACEMENT_3D('',#347,#348,#349);
#352=CARTESIAN_POINT('',(0.E0,-3.211325663594E0,0.E0));
#353=DIRECTION('',(0.E0,1.E0,0.E0));
#354=DIRECTION('',(1.E0,0.E0,0.E0));
#355=AXIS2_PLACEMENT_3D('',#352,#353,#354);
#357=DIRECTION('',(-8.660256265758E-1,4.999996141138E-1,5.465497703272E-10));
#358=VECTOR('',#357,5.773502691385E-1);
#359=CARTESIAN_POINT('',(3.900000371466E0,-3.499999356306E0,
-9.115921651988E-10));
#360=LINE('',#359,#358);
#361=DIRECTION('',(8.660256265758E-1,4.999996141138E-1,-5.465522254258E-10));
#362=VECTOR('',#361,5.773502691385E-1);
#363=CARTESIAN_POINT('',(-3.900000371466E0,-3.499999356306E0,
9.115942931937E-10));
#364=LINE('',#363,#362);
#365=CARTESIAN_POINT('',(6.5E0,3.5E0,-3.886857423629E-9));
#366=CARTESIAN_POINT('',(3.250000000049E0,3.5E0,-5.629165124570E0));
#367=VERTEX_POINT('',#365);
#368=VERTEX_POINT('',#366);
#369=CARTESIAN_POINT('',(-3.249999917698E0,3.5E0,-5.629165172116E0));
#370=VERTEX_POINT('',#369);
#371=CARTESIAN_POINT('',(-6.5E0,3.5E0,-3.886859278879E-9));
#372=VERTEX_POINT('',#371);
#373=CARTESIAN_POINT('',(-3.250000000049E0,3.5E0,5.629165124570E0));
#374=VERTEX_POINT('',#373);
#375=CARTESIAN_POINT('',(3.249999918872E0,3.5E0,5.629165171438E0));
#376=VERTEX_POINT('',#375);
#377=VERTEX_POINT('',#201);
#378=VERTEX_POINT('',#217);
#379=VERTEX_POINT('',#257);
#380=VERTEX_POINT('',#48);
#381=VERTEX_POINT('',#97);
#382=VERTEX_POINT('',#137);
#383=CARTESIAN_POINT('',(-6.5E0,-2.919443416399E0,3.752776749733E0));
#384=VERTEX_POINT('',#383);
#385=CARTESIAN_POINT('',(0.E0,-2.919443416399E0,7.505553499465E0));
#386=VERTEX_POINT('',#385);
#387=CARTESIAN_POINT('',(6.5E0,-2.919443416399E0,3.752776749733E0));
#388=VERTEX_POINT('',#387);
#389=CARTESIAN_POINT('',(6.5E0,-2.919443416399E0,-3.752776749733E0));
#390=VERTEX_POINT('',#389);
#391=CARTESIAN_POINT('',(0.E0,-2.919443416399E0,-7.505553499465E0));
#392=VERTEX_POINT('',#391);
#393=CARTESIAN_POINT('',(-6.5E0,-2.919443416399E0,-3.752776749733E0));
#394=VERTEX_POINT('',#393);
#395=CARTESIAN_POINT('',(6.5E0,-3.5E0,0.E0));
#396=CARTESIAN_POINT('',(3.250000000049E0,-3.5E0,-5.629165124570E0));
#397=VERTEX_POINT('',#395);
#398=VERTEX_POINT('',#396);
#399=CARTESIAN_POINT('',(-3.249999999952E0,-3.5E0,-5.629165124626E0));
#400=VERTEX_POINT('',#399);
#401=CARTESIAN_POINT('',(-6.5E0,-3.5E0,0.E0));
#402=VERTEX_POINT('',#401);
#403=CARTESIAN_POINT('',(-3.250000000049E0,-3.5E0,5.629165124570E0));
#404=VERTEX_POINT('',#403);
#405=CARTESIAN_POINT('',(3.249999999952E0,-3.5E0,5.629165124626E0));
#406=VERTEX_POINT('',#405);
#407=CARTESIAN_POINT('',(-3.899999381397E0,3.499998355610E0,0.E0));
#408=CARTESIAN_POINT('',(3.899999381397E0,3.499998355610E0,0.E0));
#409=VERTEX_POINT('',#407);
#410=VERTEX_POINT('',#408);
#411=CARTESIAN_POINT('',(-3.4E0,3.211325663594E0,0.E0));
#412=CARTESIAN_POINT('',(3.4E0,3.211325663594E0,0.E0));
#413=VERTEX_POINT('',#411);
#414=VERTEX_POINT('',#412);
#415=CARTESIAN_POINT('',(-3.899999381397E0,-3.499998355610E0,0.E0));
#416=CARTESIAN_POINT('',(3.899999381397E0,-3.499998355610E0,0.E0));
#417=VERTEX_POINT('',#415);
#418=VERTEX_POINT('',#416);
#419=CARTESIAN_POINT('',(-3.4E0,-3.211325663594E0,0.E0));
#420=CARTESIAN_POINT('',(3.4E0,-3.211325663594E0,0.E0));
#421=VERTEX_POINT('',#419);
#422=VERTEX_POINT('',#420);
#423=CARTESIAN_POINT('',(0.E0,-3.5E0,0.E0));
#424=DIRECTION('',(0.E0,1.E0,0.E0));
#425=DIRECTION('',(0.E0,0.E0,-1.E0));
#426=AXIS2_PLACEMENT_3D('',#423,#424,#425);
#427=PLANE('',#426);
#429=ORIENTED_EDGE('',*,*,#428,.T.);
#431=ORIENTED_EDGE('',*,*,#430,.T.);
#433=ORIENTED_EDGE('',*,*,#432,.T.);
#435=ORIENTED_EDGE('',*,*,#434,.T.);
#437=ORIENTED_EDGE('',*,*,#436,.T.);
#439=ORIENTED_EDGE('',*,*,#438,.T.);
#440=EDGE_LOOP('',(#429,#431,#433,#435,#437,#439));
#441=FACE_OUTER_BOUND('',#440,.F.);
#443=ORIENTED_EDGE('',*,*,#442,.F.);
#445=ORIENTED_EDGE('',*,*,#444,.F.);
#446=EDGE_LOOP('',(#443,#445));
#447=FACE_BOUND('',#446,.F.);
#448=ADVANCED_FACE('',(#441,#447),#427,.F.);
#449=CARTESIAN_POINT('',(0.E0,-3.209721708200E0,0.E0));
#450=DIRECTION('',(0.E0,1.E0,0.E0));
#451=DIRECTION('',(1.E0,0.E0,0.E0));
#452=AXIS2_PLACEMENT_3D('',#449,#450,#451);
#453=CONICAL_SURFACE('',#452,7.002776749733E0,6.E1);
#455=ORIENTED_EDGE('',*,*,#454,.T.);
#457=ORIENTED_EDGE('',*,*,#456,.T.);
#458=ORIENTED_EDGE('',*,*,#428,.F.);
#459=EDGE_LOOP('',(#455,#457,#458));
#460=FACE_OUTER_BOUND('',#459,.F.);
#461=ADVANCED_FACE('',(#460),#453,.T.);
#462=CARTESIAN_POINT('',(0.E0,-3.209721708200E0,0.E0));
#463=DIRECTION('',(0.E0,1.E0,0.E0));
#464=DIRECTION('',(1.E0,0.E0,0.E0));
#465=AXIS2_PLACEMENT_3D('',#462,#463,#464);
#466=CONICAL_SURFACE('',#465,7.002776749733E0,6.E1);
#468=ORIENTED_EDGE('',*,*,#467,.T.);
#470=ORIENTED_EDGE('',*,*,#469,.T.);
#471=ORIENTED_EDGE('',*,*,#430,.F.);
#472=EDGE_LOOP('',(#468,#470,#471));
#473=FACE_OUTER_BOUND('',#472,.F.);
#474=ADVANCED_FACE('',(#473),#466,.T.);
#475=CARTESIAN_POINT('',(0.E0,-3.209721708200E0,0.E0));
#476=DIRECTION('',(0.E0,1.E0,0.E0));
#477=DIRECTION('',(1.E0,0.E0,0.E0));
#478=AXIS2_PLACEMENT_3D('',#475,#476,#477);
#479=CONICAL_SURFACE('',#478,7.002776749733E0,6.E1);
#481=ORIENTED_EDGE('',*,*,#480,.T.);
#483=ORIENTED_EDGE('',*,*,#482,.T.);
#484=ORIENTED_EDGE('',*,*,#432,.F.);
#485=EDGE_LOOP('',(#481,#483,#484));
#486=FACE_OUTER_BOUND('',#485,.F.);
#487=ADVANCED_FACE('',(#486),#479,.T.);
#488=CARTESIAN_POINT('',(6.5E0,-3.5E0,3.752776749733E0));
#489=DIRECTION('',(1.E0,0.E0,0.E0));
#490=DIRECTION('',(0.E0,0.E0,-1.E0));
#491=AXIS2_PLACEMENT_3D('',#488,#489,#490);
#492=PLANE('',#491);
#494=ORIENTED_EDGE('',*,*,#493,.T.);
#496=ORIENTED_EDGE('',*,*,#495,.F.);
#497=ORIENTED_EDGE('',*,*,#454,.F.);
#499=ORIENTED_EDGE('',*,*,#498,.F.);
#501=ORIENTED_EDGE('',*,*,#500,.T.);
#503=ORIENTED_EDGE('',*,*,#502,.T.);
#504=EDGE_LOOP('',(#494,#496,#497,#499,#501,#503));
#505=FACE_OUTER_BOUND('',#504,.F.);
#506=ADVANCED_FACE('',(#505),#492,.T.);
#507=CARTESIAN_POINT('',(0.E0,3.209721708200E0,0.E0));
#508=DIRECTION('',(0.E0,-1.E0,0.E0));
#509=DIRECTION('',(-1.E0,0.E0,0.E0));
#510=AXIS2_PLACEMENT_3D('',#507,#508,#509);
#511=CONICAL_SURFACE('',#510,7.002776749733E0,6.E1);
#513=ORIENTED_EDGE('',*,*,#512,.F.);
#514=ORIENTED_EDGE('',*,*,#493,.F.);
#516=ORIENTED_EDGE('',*,*,#515,.T.);
#517=EDGE_LOOP('',(#513,#514,#516));
#518=FACE_OUTER_BOUND('',#517,.F.);
#519=ADVANCED_FACE('',(#518),#511,.T.);
#520=CARTESIAN_POINT('',(0.E0,3.209721708200E0,0.E0));
#521=DIRECTION('',(0.E0,-1.E0,0.E0));
#522=DIRECTION('',(-1.E0,0.E0,0.E0));
#523=AXIS2_PLACEMENT_3D('',#520,#521,#522);
#524=CONICAL_SURFACE('',#523,7.002776749733E0,6.E1);
#526=ORIENTED_EDGE('',*,*,#525,.F.);
#528=ORIENTED_EDGE('',*,*,#527,.F.);
#530=ORIENTED_EDGE('',*,*,#529,.T.);
#531=EDGE_LOOP('',(#526,#528,#530));
#532=FACE_OUTER_BOUND('',#531,.F.);
#533=ADVANCED_FACE('',(#532),#524,.T.);
#534=CARTESIAN_POINT('',(0.E0,3.209721708200E0,0.E0));
#535=DIRECTION('',(0.E0,-1.E0,0.E0));
#536=DIRECTION('',(-1.E0,0.E0,0.E0));
#537=AXIS2_PLACEMENT_3D('',#534,#535,#536);
#538=CONICAL_SURFACE('',#537,7.002776749733E0,6.E1);
#540=ORIENTED_EDGE('',*,*,#539,.F.);
#542=ORIENTED_EDGE('',*,*,#541,.F.);
#544=ORIENTED_EDGE('',*,*,#543,.T.);
#545=EDGE_LOOP('',(#540,#542,#544));
#546=FACE_OUTER_BOUND('',#545,.F.);
#547=ADVANCED_FACE('',(#546),#538,.T.);
#548=CARTESIAN_POINT('',(6.5E0,-3.5E0,-3.752776749733E0));
#549=DIRECTION('',(5.E-1,0.E0,-8.660254037844E-1));
#550=DIRECTION('',(-8.660254037844E-1,0.E0,-5.E-1));
#551=AXIS2_PLACEMENT_3D('',#548,#549,#550);
#552=PLANE('',#551);
#553=ORIENTED_EDGE('',*,*,#512,.T.);
#554=ORIENTED_EDGE('',*,*,#527,.T.);
#556=ORIENTED_EDGE('',*,*,#555,.F.);
#557=ORIENTED_EDGE('',*,*,#467,.F.);
#558=ORIENTED_EDGE('',*,*,#456,.F.);
#559=ORIENTED_EDGE('',*,*,#495,.T.);
#560=EDGE_LOOP('',(#553,#554,#556,#557,#558,#559));
#561=FACE_OUTER_BOUND('',#560,.F.);
#562=ADVANCED_FACE('',(#561),#552,.T.);
#563=CARTESIAN_POINT('',(0.E0,-3.5E0,-7.505553499465E0));
#564=DIRECTION('',(-5.E-1,0.E0,-8.660254037844E-1));
#565=DIRECTION('',(-8.660254037844E-1,0.E0,5.E-1));
#566=AXIS2_PLACEMENT_3D('',#563,#564,#565);
#567=PLANE('',#566);
#568=ORIENTED_EDGE('',*,*,#525,.T.);
#569=ORIENTED_EDGE('',*,*,#541,.T.);
#571=ORIENTED_EDGE('',*,*,#570,.F.);
#572=ORIENTED_EDGE('',*,*,#480,.F.);
#573=ORIENTED_EDGE('',*,*,#469,.F.);
#574=ORIENTED_EDGE('',*,*,#555,.T.);
#575=EDGE_LOOP('',(#568,#569,#571,#572,#573,#574));
#576=FACE_OUTER_BOUND('',#575,.F.);
#577=ADVANCED_FACE('',(#576),#567,.T.);
#578=CARTESIAN_POINT('',(-6.5E0,-3.5E0,-3.752776749733E0));
#579=DIRECTION('',(-1.E0,0.E0,0.E0));
#580=DIRECTION('',(0.E0,0.E0,1.E0));
#581=AXIS2_PLACEMENT_3D('',#578,#579,#580);
#582=PLANE('',#581);
#583=ORIENTED_EDGE('',*,*,#539,.T.);
#585=ORIENTED_EDGE('',*,*,#584,.T.);
#587=ORIENTED_EDGE('',*,*,#586,.F.);
#589=ORIENTED_EDGE('',*,*,#588,.F.);
#590=ORIENTED_EDGE('',*,*,#482,.F.);
#591=ORIENTED_EDGE('',*,*,#570,.T.);
#592=EDGE_LOOP('',(#583,#585,#587,#589,#590,#591));
#593=FACE_OUTER_BOUND('',#592,.F.);
#594=ADVANCED_FACE('',(#593),#582,.T.);
#595=CARTESIAN_POINT('',(0.E0,3.209721708200E0,0.E0));
#596=DIRECTION('',(0.E0,-1.E0,0.E0));
#597=DIRECTION('',(-1.E0,0.E0,0.E0));
#598=AXIS2_PLACEMENT_3D('',#595,#596,#597);
#599=CONICAL_SURFACE('',#598,7.002776749733E0,6.E1);
#601=ORIENTED_EDGE('',*,*,#600,.F.);
#602=ORIENTED_EDGE('',*,*,#584,.F.);
#604=ORIENTED_EDGE('',*,*,#603,.T.);
#605=EDGE_LOOP('',(#601,#602,#604));
#606=FACE_OUTER_BOUND('',#605,.F.);
#607=ADVANCED_FACE('',(#606),#599,.T.);
#608=CARTESIAN_POINT('',(0.E0,3.209721708200E0,0.E0));
#609=DIRECTION('',(0.E0,-1.E0,0.E0));
#610=DIRECTION('',(-1.E0,0.E0,0.E0));
#611=AXIS2_PLACEMENT_3D('',#608,#609,#610);
#612=CONICAL_SURFACE('',#611,7.002776749733E0,6.E1);
#614=ORIENTED_EDGE('',*,*,#613,.F.);
#616=ORIENTED_EDGE('',*,*,#615,.F.);
#618=ORIENTED_EDGE('',*,*,#617,.T.);
#619=EDGE_LOOP('',(#614,#616,#618));
#620=FACE_OUTER_BOUND('',#619,.F.);
#621=ADVANCED_FACE('',(#620),#612,.T.);
#622=CARTESIAN_POINT('',(0.E0,3.209721708200E0,0.E0));
#623=DIRECTION('',(0.E0,-1.E0,0.E0));
#624=DIRECTION('',(-1.E0,0.E0,0.E0));
#625=AXIS2_PLACEMENT_3D('',#622,#623,#624);
#626=CONICAL_SURFACE('',#625,7.002776749733E0,6.E1);
#627=ORIENTED_EDGE('',*,*,#502,.F.);
#629=ORIENTED_EDGE('',*,*,#628,.F.);
#631=ORIENTED_EDGE('',*,*,#630,.T.);
#632=EDGE_LOOP('',(#627,#629,#631));
#633=FACE_OUTER_BOUND('',#632,.F.);
#634=ADVANCED_FACE('',(#633),#626,.T.);
#635=CARTESIAN_POINT('',(-6.5E0,-3.5E0,3.752776749733E0));
#636=DIRECTION('',(-5.E-1,0.E0,8.660254037844E-1));
#637=DIRECTION('',(8.660254037844E-1,0.E0,5.E-1));
#638=AXIS2_PLACEMENT_3D('',#635,#636,#637);
#639=PLANE('',#638);
#640=ORIENTED_EDGE('',*,*,#600,.T.);
#641=ORIENTED_EDGE('',*,*,#615,.T.);
#643=ORIENTED_EDGE('',*,*,#642,.F.);
#645=ORIENTED_EDGE('',*,*,#644,.F.);
#647=ORIENTED_EDGE('',*,*,#646,.F.);
#648=ORIENTED_EDGE('',*,*,#586,.T.);
#649=EDGE_LOOP('',(#640,#641,#643,#645,#647,#648));
#650=FACE_OUTER_BOUND('',#649,.F.);
#651=ADVANCED_FACE('',(#650),#639,.T.);
#652=CARTESIAN_POINT('',(0.E0,-3.5E0,7.505553499465E0));
#653=DIRECTION('',(5.E-1,0.E0,8.660254037844E-1));
#654=DIRECTION('',(8.660254037844E-1,0.E0,-5.E-1));
#655=AXIS2_PLACEMENT_3D('',#652,#653,#654);
#656=PLANE('',#655);
#657=ORIENTED_EDGE('',*,*,#613,.T.);
#658=ORIENTED_EDGE('',*,*,#628,.T.);
#659=ORIENTED_EDGE('',*,*,#500,.F.);
#661=ORIENTED_EDGE('',*,*,#660,.F.);
#663=ORIENTED_EDGE('',*,*,#662,.F.);
#664=ORIENTED_EDGE('',*,*,#642,.T.);
#665=EDGE_LOOP('',(#657,#658,#659,#661,#663,#664));
#666=FACE_OUTER_BOUND('',#665,.F.);
#667=ADVANCED_FACE('',(#666),#656,.T.);
#668=CARTESIAN_POINT('',(0.E0,-3.209721708200E0,0.E0));
#669=DIRECTION('',(0.E0,1.E0,0.E0));
#670=DIRECTION('',(1.E0,0.E0,0.E0));
#671=AXIS2_PLACEMENT_3D('',#668,#669,#670);
#672=CONICAL_SURFACE('',#671,7.002776749733E0,6.E1);
#673=ORIENTED_EDGE('',*,*,#588,.T.);
#674=ORIENTED_EDGE('',*,*,#646,.T.);
#675=ORIENTED_EDGE('',*,*,#434,.F.);
#676=EDGE_LOOP('',(#673,#674,#675));
#677=FACE_OUTER_BOUND('',#676,.F.);
#678=ADVANCED_FACE('',(#677),#672,.T.);
#679=CARTESIAN_POINT('',(0.E0,-3.209721708200E0,0.E0));
#680=DIRECTION('',(0.E0,1.E0,0.E0));
#681=DIRECTION('',(1.E0,0.E0,0.E0));
#682=AXIS2_PLACEMENT_3D('',#679,#680,#681);
#683=CONICAL_SURFACE('',#682,7.002776749733E0,6.E1);
#684=ORIENTED_EDGE('',*,*,#644,.T.);
#685=ORIENTED_EDGE('',*,*,#662,.T.);
#686=ORIENTED_EDGE('',*,*,#436,.F.);
#687=EDGE_LOOP('',(#684,#685,#686));
#688=FACE_OUTER_BOUND('',#687,.F.);
#689=ADVANCED_FACE('',(#688),#683,.T.);
#690=CARTESIAN_POINT('',(0.E0,-3.209721708200E0,0.E0));
#691=DIRECTION('',(0.E0,1.E0,0.E0));
#692=DIRECTION('',(1.E0,0.E0,0.E0));
#693=AXIS2_PLACEMENT_3D('',#690,#691,#692);
#694=CONICAL_SURFACE('',#693,7.002776749733E0,6.E1);
#695=ORIENTED_EDGE('',*,*,#660,.T.);
#696=ORIENTED_EDGE('',*,*,#498,.T.);
#697=ORIENTED_EDGE('',*,*,#438,.F.);
#698=EDGE_LOOP('',(#695,#696,#697));
#699=FACE_OUTER_BOUND('',#698,.F.);
#700=ADVANCED_FACE('',(#699),#694,.T.);
#701=CARTESIAN_POINT('',(0.E0,3.5E0,0.E0));
#702=DIRECTION('',(0.E0,1.E0,0.E0));
#703=DIRECTION('',(0.E0,0.E0,-1.E0));
#704=AXIS2_PLACEMENT_3D('',#701,#702,#703);
#705=PLANE('',#704);
#706=ORIENTED_EDGE('',*,*,#515,.F.);
#707=ORIENTED_EDGE('',*,*,#630,.F.);
#708=ORIENTED_EDGE('',*,*,#617,.F.);
#709=ORIENTED_EDGE('',*,*,#603,.F.);
#710=ORIENTED_EDGE('',*,*,#543,.F.);
#711=ORIENTED_EDGE('',*,*,#529,.F.);
#712=EDGE_LOOP('',(#706,#707,#708,#709,#710,#711));
#713=FACE_OUTER_BOUND('',#712,.F.);
#715=ORIENTED_EDGE('',*,*,#714,.F.);
#717=ORIENTED_EDGE('',*,*,#716,.F.);
#718=EDGE_LOOP('',(#715,#717));
#719=FACE_BOUND('',#718,.F.);
#720=ADVANCED_FACE('',(#713,#719),#705,.T.);
#721=CARTESIAN_POINT('',(0.E0,3.355662270409E0,0.E0));
#722=DIRECTION('',(0.E0,1.E0,0.E0));
#723=DIRECTION('',(0.E0,0.E0,-1.E0));
#724=AXIS2_PLACEMENT_3D('',#721,#722,#723);
#725=CONICAL_SURFACE('',#724,3.650001805543E0,6.000001418334E1);
#726=ORIENTED_EDGE('',*,*,#714,.T.);
#728=ORIENTED_EDGE('',*,*,#727,.T.);
#730=ORIENTED_EDGE('',*,*,#729,.F.);
#732=ORIENTED_EDGE('',*,*,#731,.F.);
#733=EDGE_LOOP('',(#726,#728,#730,#732));
#734=FACE_OUTER_BOUND('',#733,.F.);
#735=ADVANCED_FACE('',(#734),#725,.F.);
#736=CARTESIAN_POINT('',(0.E0,3.355662270409E0,0.E0));
#737=DIRECTION('',(0.E0,1.E0,0.E0));
#738=DIRECTION('',(0.E0,0.E0,-1.E0));
#739=AXIS2_PLACEMENT_3D('',#736,#737,#738);
#740=CONICAL_SURFACE('',#739,3.650001805543E0,6.000001418334E1);
#741=ORIENTED_EDGE('',*,*,#716,.T.);
#742=ORIENTED_EDGE('',*,*,#731,.T.);
#744=ORIENTED_EDGE('',*,*,#743,.F.);
#745=ORIENTED_EDGE('',*,*,#727,.F.);
#746=EDGE_LOOP('',(#741,#742,#744,#745));
#747=FACE_OUTER_BOUND('',#746,.F.);
#748=ADVANCED_FACE('',(#747),#740,.F.);
#749=CARTESIAN_POINT('',(0.E0,-4.5025E0,0.E0));
#750=DIRECTION('',(0.E0,1.E0,0.E0));
#751=DIRECTION('',(1.E0,0.E0,0.E0));
#752=AXIS2_PLACEMENT_3D('',#749,#750,#751);
#753=CYLINDRICAL_SURFACE('',#752,3.4E0);
#754=ORIENTED_EDGE('',*,*,#743,.T.);
#756=ORIENTED_EDGE('',*,*,#755,.F.);
#758=ORIENTED_EDGE('',*,*,#757,.T.);
#760=ORIENTED_EDGE('',*,*,#759,.T.);
#761=EDGE_LOOP('',(#754,#756,#758,#760));
#762=FACE_OUTER_BOUND('',#761,.F.);
#763=ADVANCED_FACE('',(#762),#753,.F.);
#764=CARTESIAN_POINT('',(0.E0,-4.5025E0,0.E0));
#765=DIRECTION('',(0.E0,1.E0,0.E0));
#766=DIRECTION('',(1.E0,0.E0,0.E0));
#767=AXIS2_PLACEMENT_3D('',#764,#765,#766);
#768=CYLINDRICAL_SURFACE('',#767,3.4E0);
#769=ORIENTED_EDGE('',*,*,#729,.T.);
#770=ORIENTED_EDGE('',*,*,#759,.F.);
#772=ORIENTED_EDGE('',*,*,#771,.T.);
#773=ORIENTED_EDGE('',*,*,#755,.T.);
#774=EDGE_LOOP('',(#769,#770,#772,#773));
#775=FACE_OUTER_BOUND('',#774,.F.);
#776=ADVANCED_FACE('',(#775),#768,.F.);
#777=CARTESIAN_POINT('',(0.E0,-3.355662270409E0,0.E0));
#778=DIRECTION('',(0.E0,-1.E0,0.E0));
#779=DIRECTION('',(0.E0,0.E0,-1.E0));
#780=AXIS2_PLACEMENT_3D('',#777,#778,#779);
#781=CONICAL_SURFACE('',#780,3.650001805543E0,6.000001418334E1);
#782=ORIENTED_EDGE('',*,*,#444,.T.);
#784=ORIENTED_EDGE('',*,*,#783,.T.);
#785=ORIENTED_EDGE('',*,*,#771,.F.);
#787=ORIENTED_EDGE('',*,*,#786,.F.);
#788=EDGE_LOOP('',(#782,#784,#785,#787));
#789=FACE_OUTER_BOUND('',#788,.F.);
#790=ADVANCED_FACE('',(#789),#781,.F.);
#791=CARTESIAN_POINT('',(0.E0,-3.355662270409E0,0.E0));
#792=DIRECTION('',(0.E0,-1.E0,0.E0));
#793=DIRECTION('',(0.E0,0.E0,-1.E0));
#794=AXIS2_PLACEMENT_3D('',#791,#792,#793);
#795=CONICAL_SURFACE('',#794,3.650001805543E0,6.000001418334E1);
#796=ORIENTED_EDGE('',*,*,#442,.T.);
#797=ORIENTED_EDGE('',*,*,#786,.T.);
#798=ORIENTED_EDGE('',*,*,#757,.F.);
#799=ORIENTED_EDGE('',*,*,#783,.F.);
#800=EDGE_LOOP('',(#796,#797,#798,#799));
#801=FACE_OUTER_BOUND('',#800,.F.);
#802=ADVANCED_FACE('',(#801),#795,.F.);
#803=CLOSED_SHELL('',(#448,#461,#474,#487,#506,#519,#533,#547,#562,#577,#594,
#607,#621,#634,#651,#667,#678,#689,#700,#720,#735,#748,#763,#776,#790,#802));
#804=MANIFOLD_SOLID_BREP('',#803);
#805=(LENGTH_UNIT()NAMED_UNIT(*)SI_UNIT(.MILLI.,.METRE.));
#806=DIMENSIONAL_EXPONENTS(0.E0,0.E0,0.E0,0.E0,0.E0,0.E0,0.E0);
#807=(NAMED_UNIT(*)PLANE_ANGLE_UNIT()SI_UNIT($,.RADIAN.));
#808=PLANE_ANGLE_MEASURE_WITH_UNIT(PLANE_ANGLE_MEASURE(1.745329251994E-2),#807);
#809=(CONVERSION_BASED_UNIT('DEGREE',#808)NAMED_UNIT(#806)PLANE_ANGLE_UNIT());
#810=(NAMED_UNIT(*)SI_UNIT($,.STERADIAN.)SOLID_ANGLE_UNIT());
#811=UNCERTAINTY_MEASURE_WITH_UNIT(LENGTH_MEASURE(2.235233155097E-3),#805,
'closure',
'Maximum model space distance between geometric entities at asserted connectivities');
#812=(GEOMETRIC_REPRESENTATION_CONTEXT(3)GLOBAL_UNCERTAINTY_ASSIGNED_CONTEXT((
#811))GLOBAL_UNIT_ASSIGNED_CONTEXT((#805,#809,#810))REPRESENTATION_CONTEXT
('ID1','3'));
#814=APPLICATION_CONTEXT(
'CONFIGURATION CONTROLLED 3D DESIGNS OF MECHANICAL PARTS AND ASSEMBLIES');
#815=APPLICATION_PROTOCOL_DEFINITION('international standard',
'config_control_design',1994,#814);
#816=DESIGN_CONTEXT('',#814,'design');
#817=MECHANICAL_CONTEXT('',#814,'mechanical');
#818=PRODUCT('NUT-M08-ISO_4034','NUT-M08-ISO_4034','NOT SPECIFIED',(#817));
#819=PRODUCT_DEFINITION_FORMATION_WITH_SPECIFIED_SOURCE('12','LAST_VERSION',
#818,.MADE.);
#823=PRODUCT_CATEGORY('part','');
#824=PRODUCT_RELATED_PRODUCT_CATEGORY('detail','',(#818));
#825=PRODUCT_CATEGORY_RELATIONSHIP('','',#823,#824);
#826=SECURITY_CLASSIFICATION_LEVEL('unclassified');
#827=SECURITY_CLASSIFICATION('','',#826);
#828=CC_DESIGN_SECURITY_CLASSIFICATION(#827,(#819));
#829=APPROVAL_STATUS('approved');
#830=APPROVAL(#829,'');
#831=CC_DESIGN_APPROVAL(#830,(#827,#819,#820));
#832=CALENDAR_DATE(111,14,12);
#833=COORDINATED_UNIVERSAL_TIME_OFFSET(1,0,.AHEAD.);
#834=LOCAL_TIME(16,14,3.4E1,#833);
#835=DATE_AND_TIME(#832,#834);
#836=APPROVAL_DATE_TIME(#835,#830);
#837=DATE_TIME_ROLE('creation_date');
#838=CC_DESIGN_DATE_AND_TIME_ASSIGNMENT(#835,#837,(#820));
#839=DATE_TIME_ROLE('classification_date');
#840=CC_DESIGN_DATE_AND_TIME_ASSIGNMENT(#835,#839,(#827));
#841=PERSON('UNSPECIFIED','UNSPECIFIED',$,$,$,$);
#842=ORGANIZATION('UNSPECIFIED','UNSPECIFIED','UNSPECIFIED');
#843=PERSON_AND_ORGANIZATION(#841,#842);
#844=APPROVAL_ROLE('approver');
#845=APPROVAL_PERSON_ORGANIZATION(#843,#830,#844);
#846=PERSON_AND_ORGANIZATION_ROLE('creator');
#847=CC_DESIGN_PERSON_AND_ORGANIZATION_ASSIGNMENT(#843,#846,(#819,#820));
#848=PERSON_AND_ORGANIZATION_ROLE('design_supplier');
#849=CC_DESIGN_PERSON_AND_ORGANIZATION_ASSIGNMENT(#843,#848,(#819));
#850=PERSON_AND_ORGANIZATION_ROLE('classification_officer');
#851=CC_DESIGN_PERSON_AND_ORGANIZATION_ASSIGNMENT(#843,#850,(#827));
#852=PERSON_AND_ORGANIZATION_ROLE('design_owner');
#853=CC_DESIGN_PERSON_AND_ORGANIZATION_ASSIGNMENT(#843,#852,(#818));
#5=CIRCLE('',#4,6.5E0);
#10=CIRCLE('',#9,6.5E0);
#15=CIRCLE('',#14,6.5E0);
#20=CIRCLE('',#19,6.5E0);
#25=CIRCLE('',#24,6.5E0);
#30=CIRCLE('',#29,6.5E0);
#35=CIRCLE('',#34,3.899999381397E0);
#40=CIRCLE('',#39,3.899999381397E0);
#49=B_SPLINE_CURVE_WITH_KNOTS('',3,(#41,#42,#43,#44,#45,#46,#47,#48),
.UNSPECIFIED.,.F.,.F.,(4,1,1,1,1,4),(0.E0,2.E-1,4.E-1,6.E-1,8.E-1,1.E0),
.UNSPECIFIED.);
#58=B_SPLINE_CURVE_WITH_KNOTS('',3,(#50,#51,#52,#53,#54,#55,#56,#57),
.UNSPECIFIED.,.F.,.F.,(4,1,1,1,1,4),(0.E0,2.E-1,4.E-1,6.E-1,8.E-1,1.E0),
.UNSPECIFIED.);
#67=B_SPLINE_CURVE_WITH_KNOTS('',3,(#59,#60,#61,#62,#63,#64,#65,#66),
.UNSPECIFIED.,.F.,.F.,(4,1,1,1,1,4),(0.E0,2.E-1,4.E-1,6.E-1,8.E-1,1.E0),
.UNSPECIFIED.);
#80=B_SPLINE_CURVE_WITH_KNOTS('',3,(#72,#73,#74,#75,#76,#77,#78,#79),
.UNSPECIFIED.,.F.,.F.,(4,1,1,1,1,4),(0.E0,2.E-1,4.E-1,6.E-1,8.E-1,1.E0),
.UNSPECIFIED.);
#89=B_SPLINE_CURVE_WITH_KNOTS('',3,(#81,#82,#83,#84,#85,#86,#87,#88),
.UNSPECIFIED.,.F.,.F.,(4,1,1,1,1,4),(0.E0,2.E-1,4.E-1,6.E-1,8.E-1,1.E0),
.UNSPECIFIED.);
#98=B_SPLINE_CURVE_WITH_KNOTS('',3,(#90,#91,#92,#93,#94,#95,#96,#97),
.UNSPECIFIED.,.F.,.F.,(4,1,1,1,1,4),(0.E0,2.E-1,4.E-1,6.E-1,8.E-1,1.E0),
.UNSPECIFIED.);
#107=B_SPLINE_CURVE_WITH_KNOTS('',3,(#99,#100,#101,#102,#103,#104,#105,#106),
.UNSPECIFIED.,.F.,.F.,(4,1,1,1,1,4),(0.E0,2.E-1,4.E-1,6.E-1,8.E-1,1.E0),
.UNSPECIFIED.);
#116=B_SPLINE_CURVE_WITH_KNOTS('',3,(#108,#109,#110,#111,#112,#113,#114,#115),
.UNSPECIFIED.,.F.,.F.,(4,1,1,1,1,4),(0.E0,2.E-1,4.E-1,6.E-1,8.E-1,1.E0),
.UNSPECIFIED.);
#129=B_SPLINE_CURVE_WITH_KNOTS('',3,(#121,#122,#123,#124,#125,#126,#127,#128),
.UNSPECIFIED.,.F.,.F.,(4,1,1,1,1,4),(0.E0,2.E-1,4.E-1,6.E-1,8.E-1,1.E0),
.UNSPECIFIED.);
#138=B_SPLINE_CURVE_WITH_KNOTS('',3,(#130,#131,#132,#133,#134,#135,#136,#137),
.UNSPECIFIED.,.F.,.F.,(4,1,1,1,1,4),(0.E0,2.E-1,4.E-1,6.E-1,8.E-1,1.E0),
.UNSPECIFIED.);
#147=B_SPLINE_CURVE_WITH_KNOTS('',3,(#139,#140,#141,#142,#143,#144,#145,#146),
.UNSPECIFIED.,.F.,.F.,(4,1,1,1,1,4),(0.E0,2.E-1,4.E-1,6.E-1,8.E-1,1.E0),
.UNSPECIFIED.);
#156=B_SPLINE_CURVE_WITH_KNOTS('',3,(#148,#149,#150,#151,#152,#153,#154,#155),
.UNSPECIFIED.,.F.,.F.,(4,1,1,1,1,4),(0.E0,2.E-1,4.E-1,6.E-1,8.E-1,1.E0),
.UNSPECIFIED.);
#169=B_SPLINE_CURVE_WITH_KNOTS('',3,(#161,#162,#163,#164,#165,#166,#167,#168),
.UNSPECIFIED.,.F.,.F.,(4,1,1,1,1,4),(0.E0,2.E-1,4.E-1,6.E-1,8.E-1,1.E0),
.UNSPECIFIED.);
#178=B_SPLINE_CURVE_WITH_KNOTS('',3,(#170,#171,#172,#173,#174,#175,#176,#177),
.UNSPECIFIED.,.F.,.F.,(4,1,1,1,1,4),(0.E0,2.E-1,4.E-1,6.E-1,8.E-1,1.E0),
.UNSPECIFIED.);
#187=B_SPLINE_CURVE_WITH_KNOTS('',3,(#179,#180,#181,#182,#183,#184,#185,#186),
.UNSPECIFIED.,.F.,.F.,(4,1,1,1,1,4),(0.E0,2.E-1,4.E-1,6.E-1,8.E-1,1.E0),
.UNSPECIFIED.);
#196=B_SPLINE_CURVE_WITH_KNOTS('',3,(#188,#189,#190,#191,#192,#193,#194,#195),
.UNSPECIFIED.,.F.,.F.,(4,1,1,1,1,4),(0.E0,2.E-1,4.E-1,6.E-1,8.E-1,1.E0),
.UNSPECIFIED.);
#209=B_SPLINE_CURVE_WITH_KNOTS('',3,(#201,#202,#203,#204,#205,#206,#207,#208),
.UNSPECIFIED.,.F.,.F.,(4,1,1,1,1,4),(0.E0,2.E-1,4.E-1,6.E-1,8.E-1,1.E0),
.UNSPECIFIED.);
#218=B_SPLINE_CURVE_WITH_KNOTS('',3,(#210,#211,#212,#213,#214,#215,#216,#217),
.UNSPECIFIED.,.F.,.F.,(4,1,1,1,1,4),(0.E0,2.E-1,4.E-1,6.E-1,8.E-1,1.E0),
.UNSPECIFIED.);
#227=B_SPLINE_CURVE_WITH_KNOTS('',3,(#219,#220,#221,#222,#223,#224,#225,#226),
.UNSPECIFIED.,.F.,.F.,(4,1,1,1,1,4),(0.E0,2.E-1,4.E-1,6.E-1,8.E-1,1.E0),
.UNSPECIFIED.);
#236=B_SPLINE_CURVE_WITH_KNOTS('',3,(#228,#229,#230,#231,#232,#233,#234,#235),
.UNSPECIFIED.,.F.,.F.,(4,1,1,1,1,4),(0.E0,2.E-1,4.E-1,6.E-1,8.E-1,1.E0),
.UNSPECIFIED.);
#249=B_SPLINE_CURVE_WITH_KNOTS('',3,(#241,#242,#243,#244,#245,#246,#247,#248),
.UNSPECIFIED.,.F.,.F.,(4,1,1,1,1,4),(0.E0,2.E-1,4.E-1,6.E-1,8.E-1,1.E0),
.UNSPECIFIED.);
#258=B_SPLINE_CURVE_WITH_KNOTS('',3,(#250,#251,#252,#253,#254,#255,#256,#257),
.UNSPECIFIED.,.F.,.F.,(4,1,1,1,1,4),(0.E0,2.E-1,4.E-1,6.E-1,8.E-1,1.E0),
.UNSPECIFIED.);
#267=B_SPLINE_CURVE_WITH_KNOTS('',3,(#259,#260,#261,#262,#263,#264,#265,#266),
.UNSPECIFIED.,.F.,.F.,(4,1,1,1,1,4),(0.E0,2.E-1,4.E-1,6.E-1,8.E-1,1.E0),
.UNSPECIFIED.);
#276=B_SPLINE_CURVE_WITH_KNOTS('',3,(#268,#269,#270,#271,#272,#273,#274,#275),
.UNSPECIFIED.,.F.,.F.,(4,1,1,1,1,4),(0.E0,2.E-1,4.E-1,6.E-1,8.E-1,1.E0),
.UNSPECIFIED.);
#285=CIRCLE('',#284,6.5E0);
#290=CIRCLE('',#289,6.5E0);
#295=CIRCLE('',#294,6.5E0);
#300=CIRCLE('',#299,6.5E0);
#305=CIRCLE('',#304,6.5E0);
#310=CIRCLE('',#309,6.5E0);
#315=CIRCLE('',#314,3.899999381397E0);
#320=CIRCLE('',#319,3.899999381397E0);
#333=CIRCLE('',#332,3.4E0);
#342=CIRCLE('',#341,3.4E0);
#351=CIRCLE('',#350,3.4E0);
#356=CIRCLE('',#355,3.4E0);
#428=EDGE_CURVE('',#397,#398,#5,.T.);
#430=EDGE_CURVE('',#398,#400,#10,.T.);
#432=EDGE_CURVE('',#400,#402,#15,.T.);
#434=EDGE_CURVE('',#402,#404,#20,.T.);
#436=EDGE_CURVE('',#404,#406,#25,.T.);
#438=EDGE_CURVE('',#406,#397,#30,.T.);
#442=EDGE_CURVE('',#417,#418,#35,.T.);
#444=EDGE_CURVE('',#418,#417,#40,.T.);
#454=EDGE_CURVE('',#397,#390,#58,.T.);
#456=EDGE_CURVE('',#390,#398,#116,.T.);
#467=EDGE_CURVE('',#398,#392,#107,.T.);
#469=EDGE_CURVE('',#392,#400,#156,.T.);
#480=EDGE_CURVE('',#400,#394,#147,.T.);
#482=EDGE_CURVE('',#394,#402,#196,.T.);
#493=EDGE_CURVE('',#367,#380,#49,.T.);
#495=EDGE_CURVE('',#390,#380,#120,.T.);
#498=EDGE_CURVE('',#388,#397,#67,.T.);
#500=EDGE_CURVE('',#388,#379,#71,.T.);
#502=EDGE_CURVE('',#379,#367,#80,.T.);
#512=EDGE_CURVE('',#380,#368,#89,.T.);
#515=EDGE_CURVE('',#367,#368,#285,.T.);
#525=EDGE_CURVE('',#381,#370,#129,.T.);
#527=EDGE_CURVE('',#368,#381,#98,.T.);
#529=EDGE_CURVE('',#368,#370,#310,.T.);
#539=EDGE_CURVE('',#382,#372,#169,.T.);
#541=EDGE_CURVE('',#370,#382,#138,.T.);
#543=EDGE_CURVE('',#370,#372,#305,.T.);
#555=EDGE_CURVE('',#392,#381,#160,.T.);
#570=EDGE_CURVE('',#394,#382,#200,.T.);
#584=EDGE_CURVE('',#372,#377,#178,.T.);
#586=EDGE_CURVE('',#384,#377,#240,.T.);
#588=EDGE_CURVE('',#402,#384,#187,.T.);
#600=EDGE_CURVE('',#377,#374,#209,.T.);
#603=EDGE_CURVE('',#372,#374,#300,.T.);
#613=EDGE_CURVE('',#378,#376,#249,.T.);
#615=EDGE_CURVE('',#374,#378,#218,.T.);
#617=EDGE_CURVE('',#374,#376,#295,.T.);
#628=EDGE_CURVE('',#376,#379,#258,.T.);
#630=EDGE_CURVE('',#376,#367,#290,.T.);
#642=EDGE_CURVE('',#386,#378,#280,.T.);
#644=EDGE_CURVE('',#404,#386,#227,.T.);
#646=EDGE_CURVE('',#384,#404,#236,.T.);
#660=EDGE_CURVE('',#406,#388,#267,.T.);
#662=EDGE_CURVE('',#386,#406,#276,.T.);
#714=EDGE_CURVE('',#409,#410,#315,.T.);
#716=EDGE_CURVE('',#410,#409,#320,.T.);
#727=EDGE_CURVE('',#410,#414,#328,.T.);
#729=EDGE_CURVE('',#413,#414,#351,.T.);
#731=EDGE_CURVE('',#409,#413,#324,.T.);
#743=EDGE_CURVE('',#414,#413,#333,.T.);
#755=EDGE_CURVE('',#421,#413,#337,.T.);
#757=EDGE_CURVE('',#421,#422,#342,.T.);
#759=EDGE_CURVE('',#422,#414,#346,.T.);
#771=EDGE_CURVE('',#422,#421,#356,.T.);
#783=EDGE_CURVE('',#417,#421,#364,.T.);
#786=EDGE_CURVE('',#418,#422,#360,.T.);
#813=ADVANCED_BREP_SHAPE_REPRESENTATION('',(#804),#812);
#820=PRODUCT_DEFINITION('design','',#819,#816);
#821=PRODUCT_DEFINITION_SHAPE('','SHAPE FOR NUT-M08-ISO_4034.',#820);
#822=SHAPE_DEFINITION_REPRESENTATION(#821,#813);
ENDSEC;
END-ISO-10303-21;
