 PTC IGES file: nut-m14-iso_4034.igs                                    S      1
1H,,1H;,16HNUT-M14-ISO_4034,20Hnut-m14-iso_4034.igs,                    G      1
49HPro/ENGINEER by Parametric Technology Corporation,7H2007160,32,38,7, G      2
38,15,16HNUT-M14-ISO_4034,1.,2,2HMM,32768,0.5,15H20111214.161428,       G      3
0.00366728,36.6742,13HVladimir Zima,7HUnknown,10,0,15H20111214.161428;  G      4
     314       1       1       1       0       0       0       001000200D      1
     314       0       4       1       0                   COLOR       1D      2
     314       2       1       1       0       0       0       001000200D      3
     314       0       1       1       0                   COLOR       2D      4
     314       3       1       1       0       0       0       001000200D      5
     314       0       1       1       0                   COLOR       3D      6
     314       4       1       1       0       0       0       001000200D      7
     314       0       1       1       0                   COLOR       4D      8
     314       5       1       1       0       0       0       001000200D      9
     314       0       8       1       0                   COLOR       5D     10
     314       6       1       1       0       0       0       001000200D     11
     314       0       8       1       0                   COLOR       6D     12
     314       7       1       1       0       0       0       001000200D     13
     314       0       5       1       0                   COLOR       7D     14
     314       8       1       1       0       0       0       001000200D     15
     314       0       8       1       0                   COLOR       8D     16
     124       9       1       1       0       0       0       001000000D     17
     124       0       0       1       0                   XFORM       1D     18
     100      10       1       1       0       0      17       001010000D     19
     100       0       0       1       0                     ARC       1D     20
     124      11       1       1       0       0       0       001000000D     21
     124       0       0       2       0                   XFORM       2D     22
     100      13       1       1       0       0      21       001010000D     23
     100       0       0       1       0                     ARC       2D     24
     124      14       1       1       0       0       0       001000000D     25
     124       0       0       2       0                   XFORM       3D     26
     100      16       1       1       0       0      25       001010000D     27
     100       0       0       1       0                     ARC       3D     28
     124      17       1       1       0       0       0       001000000D     29
     124       0       0       1       0                   XFORM       4D     30
     100      18       1       1       0       0      29       001010000D     31
     100       0       0       1       0                     ARC       4D     32
     124      19       1       1       0       0       0       001000000D     33
     124       0       0       2       0                   XFORM       5D     34
     100      21       1       1       0       0      33       001010000D     35
     100       0       0       1       0                     ARC       5D     36
     124      22       1       1       0       0       0       001000000D     37
     124       0       0       2       0                   XFORM       6D     38
     100      24       1       1       0       0      37       001010000D     39
     100       0       0       1       0                     ARC       6D     40
     124      25       1       1       0       0       0       001000000D     41
     124       0       0       2       0                   XFORM       7D     42
     100      27       1       1       0       0      41       001010000D     43
     100       0       0       1       0                     ARC       7D     44
     124      28       1       1       0       0       0       001000000D     45
     124       0       0       2       0                   XFORM       8D     46
     100      30       1       1       0       0      45       001010000D     47
     100       0       0       1       0                     ARC       8D     48
     126      31       1       1       0       0       0       001010000D     49
     126       0       0       8       0                B_SPLINE       1D     50
     126      39       1       1       0       0       0       001010000D     51
     126       0       0       8       0                B_SPLINE       2D     52
     126      47       1       1       0       0       0       001010000D     53
     126       0       0       8       0                B_SPLINE       3D     54
     110      55       1       1       0       0       0       001010000D     55
     110       0       0       2       0                    LINE       1D     56
     126      57       1       1       0       0       0       001010000D     57
     126       0       0       8       0                B_SPLINE       4D     58
     126      65       1       1       0       0       0       001010000D     59
     126       0       0      10       0                B_SPLINE       5D     60
     126      75       1       1       0       0       0       001010000D     61
     126       0       0      10       0                B_SPLINE       6D     62
     126      85       1       1       0       0       0       001010000D     63
     126       0       0      10       0                B_SPLINE       7D     64
     126      95       1       1       0       0       0       001010000D     65
     126       0       0      10       0                B_SPLINE       8D     66
     110     105       1       1       0       0       0       001010000D     67
     110       0       0       2       0                    LINE       2D     68
     126     107       1       1       0       0       0       001010000D     69
     126       0       0      10       0                B_SPLINE       9D     70
     126     117       1       1       0       0       0       001010000D     71
     126       0       0      10       0                B_SPLINE      10D     72
     126     127       1       1       0       0       0       001010000D     73
     126       0       0      10       0                B_SPLINE      11D     74
     126     137       1       1       0       0       0       001010000D     75
     126       0       0      10       0                B_SPLINE      12D     76
     110     147       1       1       0       0       0       001010000D     77
     110       0       0       2       0                    LINE       3D     78
     126     149       1       1       0       0       0       001010000D     79
     126       0       0      10       0                B_SPLINE      13D     80
     126     159       1       1       0       0       0       001010000D     81
     126       0       0      10       0                B_SPLINE      14D     82
     126     169       1       1       0       0       0       001010000D     83
     126       0       0       8       0                B_SPLINE      15D     84
     126     177       1       1       0       0       0       001010000D     85
     126       0       0       8       0                B_SPLINE      16D     86
     110     185       1       1       0       0       0       001010000D     87
     110       0       0       2       0                    LINE       4D     88
     126     187       1       1       0       0       0       001010000D     89
     126       0       0      10       0                B_SPLINE      17D     90
     126     197       1       1       0       0       0       001010000D     91
     126       0       0      10       0                B_SPLINE      18D     92
     126     207       1       1       0       0       0       001010000D     93
     126       0       0      10       0                B_SPLINE      19D     94
     126     217       1       1       0       0       0       001010000D     95
     126       0       0      10       0                B_SPLINE      20D     96
     110     227       1       1       0       0       0       001010000D     97
     110       0       0       2       0                    LINE       5D     98
     126     229       1       1       0       0       0       001010000D     99
     126       0       0      10       0                B_SPLINE      21D    100
     126     239       1       1       0       0       0       001010000D    101
     126       0       0      10       0                B_SPLINE      22D    102
     126     249       1       1       0       0       0       001010000D    103
     126       0       0      10       0                B_SPLINE      23D    104
     126     259       1       1       0       0       0       001010000D    105
     126       0       0      10       0                B_SPLINE      24D    106
     110     269       1       1       0       0       0       001010000D    107
     110       0       0       2       0                    LINE       6D    108
     124     271       1       1       0       0       0       001000000D    109
     124       0       0       1       0                   XFORM       9D    110
     100     272       1       1       0       0     109       001010000D    111
     100       0       0       1       0                     ARC       9D    112
     124     273       1       1       0       0       0       001000000D    113
     124       0       0       2       0                   XFORM      10D    114
     100     275       1       1       0       0     113       001010000D    115
     100       0       0       1       0                     ARC      10D    116
     124     276       1       1       0       0       0       001000000D    117
     124       0       0       2       0                   XFORM      11D    118
     100     278       1       1       0       0     117       001010000D    119
     100       0       0       1       0                     ARC      11D    120
     124     279       1       1       0       0       0       001000000D    121
     124       0       0       2       0                   XFORM      12D    122
     100     281       1       1       0       0     121       001010000D    123
     100       0       0       1       0                     ARC      12D    124
     124     282       1       1       0       0       0       001000000D    125
     124       0       0       2       0                   XFORM      13D    126
     100     284       1       1       0       0     125       001010000D    127
     100       0       0       1       0                     ARC      13D    128
     124     285       1       1       0       0       0       001000000D    129
     124       0       0       2       0                   XFORM      14D    130
     100     287       1       1       0       0     129       001010000D    131
     100       0       0       1       0                     ARC      14D    132
     124     288       1       1       0       0       0       001000000D    133
     124       0       0       2       0                   XFORM      15D    134
     100     290       1       1       0       0     133       001010000D    135
     100       0       0       1       0                     ARC      15D    136
     124     291       1       1       0       0       0       001000000D    137
     124       0       0       2       0                   XFORM      16D    138
     100     293       1       1       0       0     137       001010000D    139
     100       0       0       1       0                     ARC      16D    140
     110     294       1       1       0       0       0       001010000D    141
     110       0       0       2       0                    LINE       7D    142
     110     296       1       1       0       0       0       001010000D    143
     110       0       0       2       0                    LINE       8D    144
     124     298       1       1       0       0       0       001000000D    145
     124       0       0       2       0                   XFORM      17D    146
     100     300       1       1       0       0     145       001010000D    147
     100       0       0       1       0                     ARC      17D    148
     110     301       1       1       0       0       0       001010000D    149
     110       0       0       2       0                    LINE       9D    150
     124     303       1       1       0       0       0       001000000D    151
     124       0       0       2       0                   XFORM      18D    152
     100     305       1       1       0       0     151       001010000D    153
     100       0       0       1       0                     ARC      18D    154
     110     306       1       1       0       0       0       001010000D    155
     110       0       0       2       0                    LINE      10D    156
     124     308       1       1       0       0       0       001000000D    157
     124       0       0       2       0                   XFORM      19D    158
     100     310       1       1       0       0     157       001010000D    159
     100       0       0       1       0                     ARC      19D    160
     124     311       1       1       0       0       0       001000000D    161
     124       0       0       2       0                   XFORM      20D    162
     100     313       1       1       0       0     161       001010000D    163
     100       0       0       1       0                     ARC      20D    164
     110     314       1       1       0       0       0       001010000D    165
     110       0       0       2       0                    LINE      11D    166
     110     316       1       1       0       0       0       001010000D    167
     110       0       0       2       0                    LINE      12D    168
     502     318       1       1       0       0       0       001010000D    169
     502       0       0      20       1                  VERTEX       1D    170
     504     338       1       1       0       0       0       000010001D    171
     504       0       0      16       1                    EDGE       1D    172
     128     354       1       1       0       0       0       001010000D    173
     128       0       0       6       0                  SPLSRF       1D    174
     508     360       1       1       0       0       0       001010000D    175
     508       0       0       2       1                EDGELOOP       1D    176
     508     362       1       1       0       0       0       001010000D    177
     508       0       0       1       1                EDGELOOP       2D    178
     510     363       1       1       0       0       0       000010000D    179
     510       0       0       1       1                    FACE       1D    180
     110     364       1       1       0       0       0       001010000D    181
     110       0       0       1       0                    LINE      13D    182
     110     365       1       1       0       0       0       001010000D    183
     110       0       0       2       0                    LINE      14D    184
     120     367       1       1       0       0       0       001010000D    185
     120       0       0       1       0                    SREV       1D    186
     508     368       1       1       0       0       0       001010000D    187
     508       0       0       1       1                EDGELOOP       3D    188
     510     369       1       1       0       0       0       000010000D    189
     510       0       0       1       1                    FACE       2D    190
     110     370       1       1       0       0       0       001010000D    191
     110       0       0       1       0                    LINE      15D    192
     110     371       1       1       0       0       0       001010000D    193
     110       0       0       2       0                    LINE      16D    194
     120     373       1       1       0       0       0       001010000D    195
     120       0       0       1       0                    SREV       2D    196
     508     374       1       1       0       0       0       001010000D    197
     508       0       0       1       1                EDGELOOP       4D    198
     510     375       1       1       0       0       0       000010000D    199
     510       0       0       1       1                    FACE       3D    200
     110     376       1       1       0       0       0       001010000D    201
     110       0       0       1       0                    LINE      17D    202
     110     377       1       1       0       0       0       001010000D    203
     110       0       0       2       0                    LINE      18D    204
     120     379       1       1       0       0       0       001010000D    205
     120       0       0       1       0                    SREV       3D    206
     508     380       1       1       0       0       0       001010000D    207
     508       0       0       1       1                EDGELOOP       5D    208
     510     381       1       1       0       0       0       000010000D    209
     510       0       0       1       1                    FACE       4D    210
     128     382       1       1       0       0       0       001010000D    211
     128       0       0       8       0                  SPLSRF       2D    212
     508     390       1       1       0       0       0       001010000D    213
     508       0       0       2       1                EDGELOOP       6D    214
     510     392       1       1       0       0       0       000010000D    215
     510       0       0       1       1                    FACE       5D    216
     110     393       1       1       0       0       0       001010000D    217
     110       0       0       1       0                    LINE      19D    218
     110     394       1       1       0       0       0       001010000D    219
     110       0       0       2       0                    LINE      20D    220
     120     396       1       1       0       0       0       001010000D    221
     120       0       0       1       0                    SREV       4D    222
     508     397       1       1       0       0       0       001010000D    223
     508       0       0       1       1                EDGELOOP       7D    224
     510     398       1       1       0       0       0       000010000D    225
     510       0       0       1       1                    FACE       6D    226
     110     399       1       1       0       0       0       001010000D    227
     110       0       0       1       0                    LINE      21D    228
     110     400       1       1       0       0       0       001010000D    229
     110       0       0       2       0                    LINE      22D    230
     120     402       1       1       0       0       0       001010000D    231
     120       0       0       1       0                    SREV       5D    232
     508     403       1       1       0       0       0       001010000D    233
     508       0       0       1       1                EDGELOOP       8D    234
     510     404       1       1       0       0       0       000010000D    235
     510       0       0       1       1                    FACE       7D    236
     110     405       1       1       0       0       0       001010000D    237
     110       0       0       1       0                    LINE      23D    238
     110     406       1       1       0       0       0       001010000D    239
     110       0       0       2       0                    LINE      24D    240
     120     408       1       1       0       0       0       001010000D    241
     120       0       0       1       0                    SREV       6D    242
     508     409       1       1       0       0       0       001010000D    243
     508       0       0       1       1                EDGELOOP       9D    244
     510     410       1       1       0       0       0       000010000D    245
     510       0       0       1       1                    FACE       8D    246
     128     411       1       1       0       0       0       001010000D    247
     128       0       0       8       0                  SPLSRF       3D    248
     508     419       1       1       0       0       0       001010000D    249
     508       0       0       2       1                EDGELOOP      10D    250
     510     421       1       1       0       0       0       000010000D    251
     510       0       0       1       1                    FACE       9D    252
     128     422       1       1       0       0       0       001010000D    253
     128       0       0       8       0                  SPLSRF       4D    254
     508     430       1       1       0       0       0       001010000D    255
     508       0       0       2       1                EDGELOOP      11D    256
     510     432       1       1       0       0       0       000010000D    257
     510       0       0       1       1                    FACE      10D    258
     128     433       1       1       0       0       0       001010000D    259
     128       0       0       8       0                  SPLSRF       5D    260
     508     441       1       1       0       0       0       001010000D    261
     508       0       0       2       1                EDGELOOP      12D    262
     510     443       1       1       0       0       0       000010000D    263
     510       0       0       1       1                    FACE      11D    264
     110     444       1       1       0       0       0       001010000D    265
     110       0       0       1       0                    LINE      25D    266
     110     445       1       1       0       0       0       001010000D    267
     110       0       0       2       0                    LINE      26D    268
     120     447       1       1       0       0       0       001010000D    269
     120       0       0       1       0                    SREV       7D    270
     508     448       1       1       0       0       0       001010000D    271
     508       0       0       1       1                EDGELOOP      13D    272
     510     449       1       1       0       0       0       000010000D    273
     510       0       0       1       1                    FACE      12D    274
     110     450       1       1       0       0       0       001010000D    275
     110       0       0       1       0                    LINE      27D    276
     110     451       1       1       0       0       0       001010000D    277
     110       0       0       2       0                    LINE      28D    278
     120     453       1       1       0       0       0       001010000D    279
     120       0       0       1       0                    SREV       8D    280
     508     454       1       1       0       0       0       001010000D    281
     508       0       0       1       1                EDGELOOP      14D    282
     510     455       1       1       0       0       0       000010000D    283
     510       0       0       1       1                    FACE      13D    284
     110     456       1       1       0       0       0       001010000D    285
     110       0       0       1       0                    LINE      29D    286
     110     457       1       1       0       0       0       001010000D    287
     110       0       0       2       0                    LINE      30D    288
     120     459       1       1       0       0       0       001010000D    289
     120       0       0       1       0                    SREV       9D    290
     508     460       1       1       0       0       0       001010000D    291
     508       0       0       1       1                EDGELOOP      15D    292
     510     461       1       1       0       0       0       000010000D    293
     510       0       0       1       1                    FACE      14D    294
     128     462       1       1       0       0       0       001010000D    295
     128       0       0       8       0                  SPLSRF       6D    296
     508     470       1       1       0       0       0       001010000D    297
     508       0       0       2       1                EDGELOOP      16D    298
     510     472       1       1       0       0       0       000010000D    299
     510       0       0       1       1                    FACE      15D    300
     128     473       1       1       0       0       0       001010000D    301
     128       0       0       7       0                  SPLSRF       7D    302
     508     480       1       1       0       0       0       001010000D    303
     508       0       0       2       1                EDGELOOP      17D    304
     510     482       1       1       0       0       0       000010000D    305
     510       0       0       1       1                    FACE      16D    306
     110     483       1       1       0       0       0       001010000D    307
     110       0       0       1       0                    LINE      31D    308
     110     484       1       1       0       0       0       001010000D    309
     110       0       0       2       0                    LINE      32D    310
     120     486       1       1       0       0       0       001010000D    311
     120       0       0       1       0                    SREV      10D    312
     508     487       1       1       0       0       0       001010000D    313
     508       0       0       1       1                EDGELOOP      18D    314
     510     488       1       1       0       0       0       000010000D    315
     510       0       0       1       1                    FACE      17D    316
     110     489       1       1       0       0       0       001010000D    317
     110       0       0       1       0                    LINE      33D    318
     110     490       1       1       0       0       0       001010000D    319
     110       0       0       2       0                    LINE      34D    320
     120     492       1       1       0       0       0       001010000D    321
     120       0       0       1       0                    SREV      11D    322
     508     493       1       1       0       0       0       001010000D    323
     508       0       0       1       1                EDGELOOP      19D    324
     510     494       1       1       0       0       0       000010000D    325
     510       0       0       1       1                    FACE      18D    326
     110     495       1       1       0       0       0       001010000D    327
     110       0       0       1       0                    LINE      35D    328
     110     496       1       1       0       0       0       001010000D    329
     110       0       0       2       0                    LINE      36D    330
     120     498       1       1       0       0       0       001010000D    331
     120       0       0       1       0                    SREV      12D    332
     508     499       1       1       0       0       0       001010000D    333
     508       0       0       1       1                EDGELOOP      20D    334
     510     500       1       1       0       0       0       000010000D    335
     510       0       0       1       1                    FACE      19D    336
     128     501       1       1       0       0       0       001010000D    337
     128       0       0       6       0                  SPLSRF       8D    338
     508     507       1       1       0       0       0       001010000D    339
     508       0       0       2       1                EDGELOOP      21D    340
     508     509       1       1       0       0       0       001010000D    341
     508       0       0       1       1                EDGELOOP      22D    342
     510     510       1       1       0       0       0       000010000D    343
     510       0       0       1       1                    FACE      20D    344
     110     511       1       1       0       0       0       001010000D    345
     110       0       0       1       0                    LINE      37D    346
     110     512       1       1       0       0       0       001010000D    347
     110       0       0       2       0                    LINE      38D    348
     120     514       1       1       0       0       0       001010000D    349
     120       0       0       1       0                    SREV      13D    350
     508     515       1       1       0       0       0       001010000D    351
     508       0       0       1       1                EDGELOOP      23D    352
     510     516       1       1       0       0       0       000010000D    353
     510       0       0       1       1                    FACE      21D    354
     110     517       1       1       0       0       0       001010000D    355
     110       0       0       1       0                    LINE      39D    356
     110     518       1       1       0       0       0       001010000D    357
     110       0       0       2       0                    LINE      40D    358
     120     520       1       1       0       0       0       001010000D    359
     120       0       0       1       0                    SREV      14D    360
     508     521       1       1       0       0       0       001010000D    361
     508       0       0       1       1                EDGELOOP      24D    362
     510     522       1       1       0       0       0       000010000D    363
     510       0       0       1       1                    FACE      22D    364
     110     523       1       1       0       0       0       001010000D    365
     110       0       0       1       0                    LINE      41D    366
     110     524       1       1       0       0       0       001010000D    367
     110       0       0       1       0                    LINE      42D    368
     120     525       1       1       0       0       0       001010000D    369
     120       0       0       1       0                    SREV      15D    370
     508     526       1       1       0       0       0       001010000D    371
     508       0       0       1       1                EDGELOOP      25D    372
     510     527       1       1       0       0       0       000010000D    373
     510       0       0       1       1                    FACE      23D    374
     110     528       1       1       0       0       0       001010000D    375
     110       0       0       1       0                    LINE      43D    376
     110     529       1       1       0       0       0       001010000D    377
     110       0       0       1       0                    LINE      44D    378
     120     530       1       1       0       0       0       001010000D    379
     120       0       0       1       0                    SREV      16D    380
     508     531       1       1       0       0       0       001010000D    381
     508       0       0       1       1                EDGELOOP      26D    382
     510     532       1       1       0       0       0       000010000D    383
     510       0       0       1       1                    FACE      24D    384
     110     533       1       1       0       0       0       001010000D    385
     110       0       0       1       0                    LINE      45D    386
     110     534       1       1       0       0       0       001010000D    387
     110       0       0       2       0                    LINE      46D    388
     120     536       1       1       0       0       0       001010000D    389
     120       0       0       1       0                    SREV      17D    390
     508     537       1       1       0       0       0       001010000D    391
     508       0       0       1       1                EDGELOOP      27D    392
     510     538       1       1       0       0       0       000010000D    393
     510       0       0       1       1                    FACE      25D    394
     110     539       1       1       0       0       0       001010000D    395
     110       0       0       1       0                    LINE      47D    396
     110     540       1       1       0       0       0       001010000D    397
     110       0       0       2       0                    LINE      48D    398
     120     542       1       1       0       0       0       001010000D    399
     120       0       0       1       0                    SREV      18D    400
     508     543       1       1       0       0       0       001010000D    401
     508       0       0       1       1                EDGELOOP      28D    402
     510     544       1       1       0       0       0       000010000D    403
     510       0       0       1       1                    FACE      26D    404
     514     545       1       1       0       0       0       000010000D    405
     514       0       0       3       1                   SHELL       1D    406
     124     548       1       1       0       0       0       001000000D    407
     124       0       0       1       0                   XFORM      21D    408
     100     549       1       1       0       0     407       001010000D    409
     100       0       0       1       0                     ARC      21D    410
     124     550       1       1       0       0       0       001000000D    411
     124       0       0       1       0                   XFORM      22D    412
     100     551       1       1       0       0     411       001010000D    413
     100       0       0       1       0                     ARC      22D    414
     124     552       1       1       0       0       0       001000000D    415
     124       0       0       1       0                   XFORM      23D    416
     100     553       1       1       0       0     415       001010000D    417
     100       0       0       1       0                     ARC      23D    418
     110     554       1       1       0       0       0       001010000D    419
     110       0       0       1       0                    LINE      49D    420
     124     555       1       1       0       0       0       001000000D    421
     124       0       0       1       0                   XFORM      24D    422
     100     556       1       1       0       0     421       001010000D    423
     100       0       0       1       0                     ARC      24D    424
     110     557       1       1       0       0       0       001010000D    425
     110       0       0       1       0                    LINE      50D    426
     502     558       1       1       0       0       0       001010000D    427
     502       0       0       2       1                  VERTEX       2D    428
     504     560       1       1       0       0       0       000010001D    429
     504       0       0       2       1                    EDGE       2D    430
     110     562       1       1       0       0       0       001010000D    431
     110       0       0       1       0                    LINE      51D    432
     110     563       1       1       0       0       0       001010000D    433
     110       0       0       1       0                    LINE      52D    434
     120     564       1       1       0       0       0       001010000D    435
     120       0       0       1       0                    SREV      19D    436
     508     565       1       1       0       0       0       001010000D    437
     508       0       0       1       1                EDGELOOP      29D    438
     510     566       1       1       0       0       0       000010000D    439
     510       0       0       1       1                    FACE      27D    440
     110     567       1       1       0       0       0       001010000D    441
     110       0       0       1       0                    LINE      53D    442
     110     568       1       1       0       0       0       001010000D    443
     110       0       0       1       0                    LINE      54D    444
     120     569       1       1       0       0       0       001010000D    445
     120       0       0       1       0                    SREV      20D    446
     508     570       1       1       0       0       0       001010000D    447
     508       0       0       1       1                EDGELOOP      30D    448
     510     571       1       1       0       0       0       000010000D    449
     510       0       0       1       1                    FACE      28D    450
     514     572       1       1       0       0       0       000000000D    451
     514       0       0       1       1                   SHELL       2D    452
     186     573       1       1       0       0       0       000000000D    453
     186       0       0       1       0                    MSBR       1D    454
314,1.1D0,1.2D0,1D2;                                                   1P      1
314,1.1D1,1.1D1,1.1D1;                                                 3P      2
314,3.92D1,1.2D0,1.2D0;                                                5P      3
314,4.1D1,0D0,2.2D1;                                                   7P      4
314,8.784D1,9.49D1,1D2;                                                9P      5
314,9.6D1,9.6D1,9.6D1;                                                11P      6
314,9.8D1,6.27D1,0D0;                                                 13P      7
314,1D2,1D2,9.49D1;                                                   15P      8
124,1D0,0D0,0D0,0D0,0D0,0D0,1D0,-6.5D0,0D0,-1D0,0D0,0D0;              17P      9
100,0D0,0D0,0D0,1.05D1,0D0,5.250000000066D0,9.093266739698D0;         19P     10
124,5.000000000063D-1,-8.660254037808D-1,0D0,0D0,0D0,0D0,1D0,         21P     11
-6.5D0,-8.660254037808D-1,-5.000000000063D-1,0D0,0D0;                 21P     12
100,0D0,0D0,0D0,1.05D1,0D0,5.250000000017D0,9.093266739727D0;         23P     13
124,-4.999999999921D-1,-8.660254037890D-1,0D0,0D0,0D0,0D0,1D0,        25P     14
-6.5D0,-8.660254037890D-1,4.999999999921D-1,0D0,0D0;                  25P     15
100,0D0,0D0,0D0,1.05D1,0D0,5.249999999917D0,9.093266739785D0;         27P     16
124,-1D0,0D0,0D0,0D0,0D0,0D0,1D0,-6.5D0,0D0,1D0,0D0,0D0;              29P     17
100,0D0,0D0,0D0,1.05D1,0D0,5.250000000066D0,9.093266739698D0;         31P     18
124,-5.000000000063D-1,8.660254037808D-1,0D0,0D0,0D0,0D0,1D0,         33P     19
-6.5D0,8.660254037808D-1,5.000000000063D-1,0D0,0D0;                   33P     20
100,0D0,0D0,0D0,1.05D1,0D0,5.250000000017D0,9.093266739727D0;         35P     21
124,4.999999999921D-1,8.660254037890D-1,0D0,0D0,0D0,0D0,1D0,          37P     22
-6.5D0,8.660254037890D-1,-4.999999999921D-1,0D0,0D0;                  37P     23
100,0D0,0D0,0D0,1.05D1,0D0,5.249999999917D0,9.093266739785D0;         39P     24
124,-1D0,0D0,0D0,0D0,0D0,0D0,1D0,-6.499997098322D0,0D0,1D0,0D0,       41P     25
0D0;                                                                  41P     26
100,0D0,0D0,0D0,6.999999033204D0,0D0,-6.999999033204D0,0D0;           43P     27
124,1D0,0D0,0D0,0D0,0D0,0D0,1D0,-6.499997098322D0,0D0,-1D0,0D0,       45P     28
0D0;                                                                  45P     29
100,0D0,0D0,0D0,6.999999033204D0,0D0,-6.999999033204D0,0D0;           47P     30
126,7,3,0,0,1,0,0D0,0D0,0D0,0D0,2D-1,4D-1,6D-1,8D-1,1D0,1D0,1D0,      49P     31
1D0,1D0,1D0,1D0,1D0,1D0,1D0,1D0,1D0,1.05D1,6.500000001613D0,          49P     32
3.725476562157D-8,1.05D1,6.500000001613D0,-4.004905578568D-1,         49P     33
1.05D1,6.473434283356D0,-1.200827700579D0,1.05D1,                     49P     34
6.356094410185D0,-2.398164080644D0,1.05D1,6.165477207105D0,           49P     35
-3.596045665715D0,1.05D1,5.906342372297D0,-4.802660087598D0,          49P     36
1.05D1,5.684505996907D0,-5.638420613777D0,1.05D1,                     49P     37
5.562177826491D0,-6.062177826491D0,0D0,1D0,0D0,0D0,1D0;               49P     38
126,7,3,0,0,1,0,0D0,0D0,0D0,0D0,2D-1,4D-1,6D-1,8D-1,1D0,1D0,1D0,      51P     39
1D0,1D0,1D0,1D0,1D0,1D0,1D0,1D0,1D0,1.05D1,-6.500000001613D0,         51P     40
-6.023724979084D-9,1.05D1,-6.500000001613D0,-4.004906011353D-1,       51P     41
1.05D1,-6.473434283356D0,-1.200827680493D0,1.05D1,                    51P     42
-6.356094410185D0,-2.398164086028D0,1.05D1,-6.165477207105D0,         51P     43
-3.596045664265D0,1.05D1,-5.906342372297D0,-4.802660088012D0,         51P     44
1.05D1,-5.684505996907D0,-5.638420613777D0,1.05D1,                    51P     45
-5.562177826491D0,-6.062177826491D0,0D0,1D0,0D0,0D0,1D0;              51P     46
126,7,3,0,0,1,0,0D0,0D0,0D0,0D0,2D-1,4D-1,6D-1,8D-1,1D0,1D0,1D0,      53P     47
1D0,1D0,1D0,1D0,1D0,1D0,1D0,1D0,1D0,1.05D1,-5.562177826491D0,         53P     48
6.062177826491D0,1.05D1,-5.685673071468D0,5.634377748905D0,           53P     49
1.05D1,-5.908917656006D0,4.792394137598D0,1.05D1,                     53P     50
-6.167908896644D0,3.583123262003D0,1.05D1,-6.357484785459D0,          53P     51
2.386838611240D0,1.05D1,-6.473735271678D0,1.194397412993D0,           53P     52
1.05D1,-6.500000001613D0,3.981348791265D-1,1.05D1,                    53P     53
-6.500000001613D0,-6.023724979084D-9,0D0,1D0,0D0,0D0,1D0;             53P     54
110,1.05D1,-5.562177826491D0,6.062177826491D0,1.05D1,                 55P     55
5.562177826491D0,6.062177826491D0;                                    55P     56
126,7,3,0,0,1,0,0D0,0D0,0D0,0D0,2D-1,4D-1,6D-1,8D-1,1D0,1D0,1D0,      57P     57
1D0,1D0,1D0,1D0,1D0,1D0,1D0,1D0,1D0,1.05D1,5.562177826491D0,          57P     58
6.062177826491D0,1.05D1,5.685673071468D0,5.634377748905D0,            57P     59
1.05D1,5.908917655970D0,4.792394138012D0,1.05D1,                      57P     60
6.167908896770D0,3.583123260554D0,1.05D1,6.357484784988D0,            57P     61
2.386838616623D0,1.05D1,6.473735273437D0,1.194397392907D0,            57P     62
1.05D1,6.499999997824D0,3.981349224050D-1,1.05D1,                     57P     63
6.500000001613D0,3.725476562157D-8,0D0,1D0,0D0,0D0,1D0;               57P     64
126,7,3,0,0,1,0,0D0,0D0,0D0,0D0,2D-1,4D-1,6D-1,8D-1,1D0,1D0,1D0,      59P     65
1D0,1D0,1D0,1D0,1D0,1D0,1D0,1D0,1D0,1.05D1,5.562177826491D0,          59P     66
-6.062177826491D0,1.012665480548D1,5.686626224665D0,                  59P     67
-6.277728775049D0,9.393063163009D0,5.911021924663D0,                  59P     68
-6.701268107304D0,8.343861999826D0,6.169906931189D0,                  59P     69
-7.307024681301D0,7.308910515799D0,6.358636500667D0,                  59P     70
-7.904554199203D0,6.279756774902D0,6.473983321522D0,                  59P     71
-8.498736388546D0,5.593099300145D0,6.500000000968D0,                  59P     72
-8.895178266441D0,5.249999974291D0,6.500000000968D0,                  59P     73
-9.093266754581D0,0D0,1D0,0D0,0D0,1D0;                                59P     74
126,7,3,0,0,1,0,0D0,0D0,0D0,0D0,2D-1,4D-1,6D-1,8D-1,1D0,1D0,1D0,      61P     75
1D0,1D0,1D0,1D0,1D0,1D0,1D0,1D0,1D0,5.249999974291D0,                 61P     76
6.500000000968D0,-9.093266754581D0,4.906810819342D0,                  61P     77
6.500000000968D0,-9.291407105574D0,4.220006860249D0,                  61P     78
6.473968844642D0,-9.687933556235D0,3.190755685938D0,                  61P     79
6.358589959110D0,-1.028217199879D1,2.155763475871D0,                  61P     80
6.169820920717D0,-1.087972502988D1,1.106979816805D0,                  61P     81
5.911028083282D0,-1.148524055776D1,3.733736295732D-1,                 61P     82
5.686635703015D0,-1.190878828744D1,0D0,5.562177826491D0,              61P     83
-1.212435565298D1,0D0,1D0,0D0,0D0,1D0;                                61P     84
126,7,3,0,0,1,0,0D0,0D0,0D0,0D0,2D-1,4D-1,6D-1,8D-1,1D0,1D0,1D0,      63P     85
1D0,1D0,1D0,1D0,1D0,1D0,1D0,1D0,1D0,5.250000000234D0,                 63P     86
-6.500000000008D0,-9.093266739603D0,4.906810837975D0,                 63P     87
-6.500000000008D0,-9.291407094816D0,4.220006978491D0,                 63P     88
-6.473968853014D0,-9.687933487968D0,3.190755738193D0,                 63P     89
-6.358589968312D0,-1.028217196862D1,2.155763520168D0,                 63P     90
-6.169820930270D0,-1.087972500430D1,1.106979837707D0,                 63P     91
-5.911028089667D0,-1.148524054569D1,3.733736368938D-1,                63P     92
-5.686635705456D0,-1.190878828321D1,0D0,-5.562177826491D0,            63P     93
-1.212435565298D1,0D0,1D0,0D0,0D0,1D0;                                63P     94
126,7,3,0,0,1,0,0D0,0D0,0D0,0D0,2D-1,4D-1,6D-1,8D-1,1D0,1D0,1D0,      65P     95
1D0,1D0,1D0,1D0,1D0,1D0,1D0,1D0,1D0,1.05D1,-5.562177826491D0,         65P     96
-6.062177826491D0,1.012665480554D1,-5.686626224645D0,                 65P     97
-6.277728775014D0,9.393063162939D0,-5.911021924600D0,                 65P     98
-6.701268107344D0,8.343862001061D0,-6.169906931141D0,                 65P     99
-7.307024680588D0,7.308910513039D0,-6.358636500469D0,                 65P    100
-7.904554200797D0,6.279756787837D0,-6.473983321900D0,                 65P    101
-8.498736381078D0,5.593099274577D0,-6.500000000008D0,                 65P    102
-8.895178281203D0,5.250000000234D0,-6.500000000008D0,                 65P    103
-9.093266739603D0,0D0,1D0,0D0,0D0,1D0;                                65P    104
110,1.05D1,-5.562177826491D0,-6.062177826491D0,1.05D1,                67P    105
5.562177826491D0,-6.062177826491D0;                                   67P    106
126,7,3,0,0,1,0,0D0,0D0,0D0,0D0,2D-1,4D-1,6D-1,8D-1,1D0,1D0,1D0,      69P    107
1D0,1D0,1D0,1D0,1D0,1D0,1D0,1D0,1D0,0D0,5.562177826491D0,             69P    108
-1.212435565298D1,-3.733451945225D-1,5.686626224665D0,                69P    109
-1.190880470442D1,-1.106936836960D0,5.911021924664D0,                 69P    110
-1.148526537219D1,-2.156138000283D0,6.169906931185D0,                 69P    111
-1.087950879811D1,-3.191089483795D0,6.358636500682D0,                 69P    112
-1.028197928051D1,-4.220243226614D0,6.473983321465D0,                 69P    113
-9.687797090050D0,-4.906900696588D0,6.500000001091D0,                 69P    114
-9.291355214922D0,-5.250000028970D0,6.500000001091D0,                 69P    115
-9.093266723012D0,0D0,1D0,0D0,0D0,1D0;                                69P    116
126,7,3,0,0,1,0,0D0,0D0,0D0,0D0,2D-1,4D-1,6D-1,8D-1,1D0,1D0,1D0,      71P    117
1D0,1D0,1D0,1D0,1D0,1D0,1D0,1D0,1D0,-5.250000028970D0,                71P    118
6.500000001091D0,-9.093266723012D0,-5.593189183046D0,                 71P    119
6.500000001091D0,-8.895126372524D0,-6.279993154741D0,                 71P    120
6.473968843580D0,-8.498599914583D0,-7.309244320694D0,                 71P    121
6.358589957942D0,-7.904361476857D0,-8.344236529748D0,                 71P    122
6.169820919505D0,-7.306808446350D0,-9.393020185847D0,                 71P    123
5.911028082472D0,-6.701292920180D0,-1.012662637136D1,                 71P    124
5.686635702706D0,-6.277745191497D0,-1.05D1,5.562177826491D0,          71P    125
-6.062177826491D0,0D0,1D0,0D0,0D0,1D0;                                71P    126
126,7,3,0,0,1,0,0D0,0D0,0D0,0D0,2D-1,4D-1,6D-1,8D-1,1D0,1D0,1D0,      73P    127
1D0,1D0,1D0,1D0,1D0,1D0,1D0,1D0,1D0,-5.249999985730D0,                73P    128
-6.500000000536D0,-9.093266747977D0,-5.593189176056D0,                73P    129
-6.500000000536D0,-8.895126376559D0,-6.279993014997D0,                73P    130
-6.473968852769D0,-8.498599995264D0,-7.309244263552D0,                73P    131
-6.358589968378D0,-7.904361509848D0,-8.344236479362D0,                73P    132
-6.169820930252D0,-7.306808475441D0,-9.393020162428D0,                73P    133
-5.911028089672D0,-6.701292933701D0,-1.012662636311D1,                73P    134
-5.686635705456D0,-6.277745196260D0,-1.05D1,-5.562177826491D0,        73P    135
-6.062177826491D0,0D0,1D0,0D0,0D0,1D0;                                73P    136
126,7,3,0,0,1,0,0D0,0D0,0D0,0D0,2D-1,4D-1,6D-1,8D-1,1D0,1D0,1D0,      75P    137
1D0,1D0,1D0,1D0,1D0,1D0,1D0,1D0,1D0,0D0,-5.562177826491D0,            75P    138
-1.212435565298D1,-3.733451904642D-1,-5.686626223312D0,               75P    139
-1.190880470677D1,-1.106936825650D0,-5.911021921114D0,                75P    140
-1.148526537872D1,-2.156137974766D0,-6.169906925928D0,                75P    141
-1.087950881284D1,-3.191089458429D0,-6.358636495449D0,                75P    142
-1.028197929515D1,-4.220243147705D0,-6.473983317331D0,                75P    143
-9.687797135608D0,-4.906900715133D0,-6.500000000536D0,                75P    144
-9.291355204215D0,-5.249999985730D0,-6.500000000536D0,                75P    145
-9.093266747977D0,0D0,1D0,0D0,0D0,1D0;                                75P    146
110,0D0,-5.562177826491D0,-1.212435565298D1,0D0,                      77P    147
5.562177826491D0,-1.212435565298D1;                                   77P    148
126,7,3,0,0,1,0,0D0,0D0,0D0,0D0,2D-1,4D-1,6D-1,8D-1,1D0,1D0,1D0,      79P    149
1D0,1D0,1D0,1D0,1D0,1D0,1D0,1D0,1D0,-1.05D1,5.562177826491D0,         79P    150
-6.062177826491D0,-1.05D1,5.685673073225D0,-5.634377742819D0,         79P    151
-1.050000000005D1,5.908917660623D0,-4.792394120334D0,                 79P    152
-1.049999999982D1,6.167908903566D0,-3.583123224454D0,                 79P    153
-1.050000000065D1,6.357484792229D0,-2.386838569255D0,                 79P    154
-1.049999999757D1,6.473735277567D0,-1.194397306851D0,                 79P    155
-1.050000000523D1,6.500000001407D0,-3.981348781233D-1,                79P    156
-1.050000000523D1,6.500000001410D0,4.363365556186D-8,0D0,1D0,         79P    157
0D0,0D0,1D0;                                                          79P    158
126,7,3,0,0,1,0,0D0,0D0,0D0,0D0,2D-1,4D-1,6D-1,8D-1,1D0,1D0,1D0,      81P    159
1D0,1D0,1D0,1D0,1D0,1D0,1D0,1D0,1D0,-1.050000000523D1,                81P    160
6.500000001410D0,4.363365556186D-8,-1.050000000523D1,                 81P    161
6.500000001410D0,4.004905913793D-1,-1.049999999757D1,                 81P    162
6.473434279299D0,1.200827760995D0,-1.050000000065D1,                  81P    163
6.356094405305D0,2.398164114561D0,-1.049999999982D1,                  81P    164
6.165477202195D0,3.596045691235D0,-1.050000000005D1,                  81P    165
5.906342369035D0,4.802660100074D0,-1.05D1,5.684505995671D0,           81P    166
5.638420618058D0,-1.05D1,5.562177826491D0,6.062177826491D0,0D0,       81P    167
1D0,0D0,0D0,1D0;                                                      81P    168
126,7,3,0,0,1,0,0D0,0D0,0D0,0D0,2D-1,4D-1,6D-1,8D-1,1D0,1D0,1D0,      83P    169
1D0,1D0,1D0,1D0,1D0,1D0,1D0,1D0,1D0,-1.05D1,-6.500000000016D0,        83P    170
1.754096867431D-12,-1.05D1,-6.500000000016D0,4.004905599218D-1,       83P    171
-1.05D1,-6.473434291444D0,1.200827565200D0,-1.05D1,                   83P    172
-6.356094418577D0,2.398164028268D0,-1.05D1,-6.165477215859D0,         83P    173
3.596045618506D0,-1.05D1,-5.906342378050D0,4.802660066111D0,          83P    174
-1.05D1,-5.684505999093D0,5.638420606204D0,-1.05D1,                   83P    175
-5.562177826491D0,6.062177826491D0,0D0,1D0,0D0,0D0,1D0;               83P    176
126,7,3,0,0,1,0,0D0,0D0,0D0,0D0,2D-1,4D-1,6D-1,8D-1,1D0,1D0,1D0,      85P    177
1D0,1D0,1D0,1D0,1D0,1D0,1D0,1D0,1D0,-1.05D1,-5.562177826491D0,        85P    178
-6.062177826491D0,-1.05D1,-5.685673073207D0,-5.634377742881D0,        85P    179
-1.05D1,-5.908917660562D0,-4.792394120109D0,-1.05D1,                  85P    180
-6.167908903541D0,-3.583123226252D0,-1.05D1,-6.357484791986D0,        85P    181
-2.386838564452D0,-1.05D1,-6.473735278153D0,-1.194397327486D0,        85P    182
-1.05D1,-6.500000000016D0,-3.981348360347D-1,-1.05D1,                 85P    183
-6.500000000016D0,1.754096867431D-12,0D0,1D0,0D0,0D0,1D0;             85P    184
110,-1.05D1,-5.562177826491D0,-6.062177826491D0,-1.05D1,              87P    185
5.562177826491D0,-6.062177826491D0;                                   87P    186
126,7,3,0,0,1,0,0D0,0D0,0D0,0D0,2D-1,4D-1,6D-1,8D-1,1D0,1D0,1D0,      89P    187
1D0,1D0,1D0,1D0,1D0,1D0,1D0,1D0,1D0,-1.05D1,5.562177826491D0,         89P    188
6.062177826491D0,-1.012665481200D1,5.686626222492D0,                  89P    189
6.277728771284D0,-9.393063181382D0,5.911021918966D0,                  89P    190
6.701268096696D0,-8.343862040130D0,6.169906922715D0,                  89P    191
7.307024658032D0,-7.308910559153D0,6.358636492355D0,                  89P    192
7.904554174172D0,-6.279756892019D0,6.473983314516D0,                  89P    193
8.498736320929D0,-5.593099291204D0,6.500000000862D0,                  89P    194
8.895178271602D0,-5.250000022915D0,6.500000000862D0,                  89P    195
9.093266726508D0,0D0,1D0,0D0,0D0,1D0;                                 89P    196
126,7,3,0,0,1,0,0D0,0D0,0D0,0D0,2D-1,4D-1,6D-1,8D-1,1D0,1D0,1D0,      91P    197
1D0,1D0,1D0,1D0,1D0,1D0,1D0,1D0,1D0,-5.250000022915D0,                91P    198
6.500000000862D0,9.093266726508D0,-4.906810815293D0,                  91P    199
6.500000000862D0,9.291407107912D0,-4.220006989018D0,                  91P    200
6.473968852618D0,9.687933481890D0,-3.190755735372D0,                  91P    201
6.358589968418D0,1.028217197025D1,-2.155763520928D0,                  91P    202
6.169820930242D0,1.087972500387D1,-1.106979837490D0,                  91P    203
5.911028089675D0,1.148524054582D1,-3.733736368938D-1,                 91P    204
5.686635705456D0,1.190878828321D1,0D0,5.562177826491D0,               91P    205
1.212435565298D1,0D0,1D0,0D0,0D0,1D0;                                 91P    206
126,7,3,0,0,1,0,0D0,0D0,0D0,0D0,2D-1,4D-1,6D-1,8D-1,1D0,1D0,1D0,      93P    207
1D0,1D0,1D0,1D0,1D0,1D0,1D0,1D0,1D0,-5.250000000234D0,                93P    208
-6.500000000008D0,9.093266739603D0,-4.906810837975D0,                 93P    209
-6.500000000008D0,9.291407094816D0,-4.220006978491D0,                 93P    210
-6.473968853014D0,9.687933487968D0,-3.190755738193D0,                 93P    211
-6.358589968312D0,1.028217196862D1,-2.155763520168D0,                 93P    212
-6.169820930270D0,1.087972500430D1,-1.106979837707D0,                 93P    213
-5.911028089667D0,1.148524054569D1,-3.733736368938D-1,                93P    214
-5.686635705456D0,1.190878828321D1,0D0,-5.562177826491D0,             93P    215
1.212435565298D1,0D0,1D0,0D0,0D0,1D0;                                 93P    216
126,7,3,0,0,1,0,0D0,0D0,0D0,0D0,2D-1,4D-1,6D-1,8D-1,1D0,1D0,1D0,      95P    217
1D0,1D0,1D0,1D0,1D0,1D0,1D0,1D0,1D0,-1.05D1,-5.562177826491D0,        95P    218
6.062177826491D0,-1.012665480554D1,-5.686626224645D0,                 95P    219
6.277728775014D0,-9.393063162939D0,-5.911021924600D0,                 95P    220
6.701268107344D0,-8.343862001061D0,-6.169906931141D0,                 95P    221
7.307024680588D0,-7.308910513039D0,-6.358636500469D0,                 95P    222
7.904554200797D0,-6.279756787837D0,-6.473983321900D0,                 95P    223
8.498736381078D0,-5.593099274577D0,-6.500000000008D0,                 95P    224
8.895178281202D0,-5.250000000234D0,-6.500000000008D0,                 95P    225
9.093266739603D0,0D0,1D0,0D0,0D0,1D0;                                 95P    226
110,-1.05D1,-5.562177826491D0,6.062177826491D0,-1.05D1,               97P    227
5.562177826491D0,6.062177826491D0;                                    97P    228
126,7,3,0,0,1,0,0D0,0D0,0D0,0D0,2D-1,4D-1,6D-1,8D-1,1D0,1D0,1D0,      99P    229
1D0,1D0,1D0,1D0,1D0,1D0,1D0,1D0,1D0,0D0,5.562177826491D0,             99P    230
1.212435565298D1,3.733451945153D-1,5.686626224663D0,                  99P    231
1.190880470443D1,1.106936837217D0,5.911021924647D0,                   99P    232
1.148526537204D1,2.156137999269D0,6.169906931212D0,                   99P    233
1.087950879869D1,3.191089487350D0,6.358636500538D0,                   99P    234
1.028197927845D1,4.220243213043D0,6.473983321963D0,                   99P    235
9.687797097885D0,4.906900725561D0,6.500000000001D0,                   99P    236
9.291355198195D0,5.249999999955D0,6.500000000001D0,                   99P    237
9.093266739765D0,0D0,1D0,0D0,0D0,1D0;                                 99P    238
126,7,3,0,0,1,0,0D0,0D0,0D0,0D0,2D-1,4D-1,6D-1,8D-1,1D0,1D0,1D0,     101P    239
1D0,1D0,1D0,1D0,1D0,1D0,1D0,1D0,1D0,5.249999999955D0,                101P    240
6.500000000001D0,9.093266739765D0,5.593189161831D0,                  101P    241
6.500000000001D0,8.895126384772D0,6.279993021599D0,                  101P    242
6.473968853018D0,8.498599991452D0,7.309244261783D0,                  101P    243
6.358589968311D0,7.904361510869D0,8.344236479838D0,                  101P    244
6.169820930270D0,7.306808475166D0,9.393020162292D0,                  101P    245
5.911028089667D0,6.701292933780D0,1.012662636311D1,                  101P    246
5.686635705456D0,6.277745196260D0,1.05D1,5.562177826491D0,           101P    247
6.062177826491D0,0D0,1D0,0D0,0D0,1D0;                                101P    248
126,7,3,0,0,1,0,0D0,0D0,0D0,0D0,2D-1,4D-1,6D-1,8D-1,1D0,1D0,1D0,     103P    249
1D0,1D0,1D0,1D0,1D0,1D0,1D0,1D0,1D0,5.249999999763D0,                103P    250
-6.500000000008D0,9.093266739875D0,5.593189162022D0,                 103P    251
-6.500000000008D0,8.895126384662D0,6.279993021510D0,                 103P    252
-6.473968853014D0,8.498599991503D0,7.309244261806D0,                 103P    253
-6.358589968312D0,7.904361510856D0,8.344236479832D0,                 103P    254
-6.169820930270D0,7.306808475169D0,9.393020162293D0,                 103P    255
-5.911028089667D0,6.701292933778D0,1.012662636311D1,                 103P    256
-5.686635705456D0,6.277745196260D0,1.05D1,-5.562177826491D0,         103P    257
6.062177826491D0,0D0,1D0,0D0,0D0,1D0;                                103P    258
126,7,3,0,0,1,0,0D0,0D0,0D0,0D0,2D-1,4D-1,6D-1,8D-1,1D0,1D0,1D0,     105P    259
1D0,1D0,1D0,1D0,1D0,1D0,1D0,1D0,1D0,0D0,-5.562177826491D0,           105P    260
1.212435565298D1,3.733451944608D-1,-5.686626224645D0,                105P    261
1.190880470446D1,1.106936837061D0,-5.911021924600D0,                 105P    262
1.148526537213D1,2.156137998939D0,-6.169906931141D0,                 105P    263
1.087950879888D1,3.191089486961D0,-6.358636500469D0,                 105P    264
1.028197927868D1,4.220243212164D0,-6.473983321900D0,                 105P    265
9.687797098393D0,4.906900725421D0,-6.500000000008D0,                 105P    266
9.291355198276D0,5.249999999763D0,-6.500000000008D0,                 105P    267
9.093266739875D0,0D0,1D0,0D0,0D0,1D0;                                105P    268
110,0D0,-5.562177826491D0,1.212435565298D1,0D0,5.562177826491D0,     107P    269
1.212435565298D1;                                                    107P    270
124,1D0,0D0,0D0,0D0,0D0,0D0,1D0,6.5D0,0D0,-1D0,0D0,0D0;              109P    271
100,0D0,0D0,0D0,1.05D1,0D0,5.250000000066D0,9.093266739698D0;        111P    272
124,4.999999999921D-1,8.660254037890D-1,0D0,0D0,0D0,0D0,1D0,         113P    273
6.5D0,8.660254037890D-1,-4.999999999921D-1,0D0,0D0;                  113P    274
100,0D0,0D0,0D0,1.05D1,0D0,5.249999999917D0,9.093266739785D0;        115P    275
124,-5.000000000063D-1,8.660254037808D-1,0D0,0D0,0D0,0D0,1D0,        117P    276
6.5D0,8.660254037808D-1,5.000000000063D-1,0D0,0D0;                   117P    277
100,0D0,0D0,0D0,1.05D1,0D0,5.250000000017D0,9.093266739727D0;        119P    278
124,-1D0,2.348038735850D-10,0D0,0D0,0D0,0D0,1D0,6.5D0,               121P    279
2.348038735850D-10,1D0,0D0,0D0;                                      121P    280
100,0D0,0D0,0D0,1.05D1,0D0,5.250000002202D0,9.093266738466D0;        123P    281
124,-4.999999999921D-1,-8.660254037890D-1,0D0,0D0,0D0,0D0,1D0,       125P    282
6.5D0,-8.660254037890D-1,4.999999999921D-1,0D0,0D0;                  125P    283
100,0D0,0D0,0D0,1.05D1,0D0,5.249999997782D0,9.093266741017D0;        127P    284
124,5.000000000063D-1,-8.660254037808D-1,0D0,0D0,0D0,0D0,1D0,        129P    285
6.5D0,-8.660254037808D-1,-5.000000000063D-1,0D0,0D0;                 129P    286
100,0D0,0D0,0D0,1.05D1,0D0,5.250000000017D0,9.093266739727D0;        131P    287
124,-1D0,0D0,0D0,0D0,0D0,0D0,-1D0,6.499997098322D0,0D0,-1D0,0D0,     133P    288
0D0;                                                                 133P    289
100,0D0,0D0,0D0,6.999999033204D0,0D0,-6.999999033204D0,0D0;          135P    290
124,1D0,0D0,0D0,0D0,0D0,0D0,-1D0,6.499997098322D0,0D0,1D0,0D0,       137P    291
0D0;                                                                 137P    292
100,0D0,0D0,0D0,6.999999033204D0,0D0,-6.999999033204D0,0D0;          139P    293
110,-7.000000676291D0,6.499998828124D0,1.898602735277D-9,            141P    294
-6.000000434758D0,5.922648977462D0,1.220531058099D-9;                141P    295
110,7.000000676291D0,6.499998828124D0,-1.898604595967D-9,            143P    296
6.000000434758D0,5.922648977462D0,-1.220531280144D-9;                143P    297
124,1D0,0D0,0D0,0D0,0D0,0D0,-1D0,5.922651053233D0,0D0,1D0,0D0,       145P    298
0D0;                                                                 145P    299
100,0D0,0D0,0D0,6D0,0D0,-6D0,0D0;                                    147P    300
110,-6.000000434758D0,-5.922648977462D0,1.220532556901D-9,           149P    301
-6.000000434758D0,5.922648977462D0,1.220531058099D-9;                149P    302
124,-1D0,0D0,0D0,0D0,0D0,0D0,1D0,-5.922651053233D0,0D0,1D0,0D0,      151P    303
0D0;                                                                 151P    304
100,0D0,0D0,0D0,6D0,0D0,-6D0,0D0;                                    153P    305
110,6.000000434758D0,-5.922648977462D0,-1.220530114409D-9,           155P    306
6.000000434758D0,5.922648977462D0,-1.220531280144D-9;                155P    307
124,-1D0,0D0,0D0,0D0,0D0,0D0,-1D0,5.922651053233D0,0D0,-1D0,0D0,     157P    308
0D0;                                                                 157P    309
100,0D0,0D0,0D0,6D0,0D0,-6D0,0D0;                                    159P    310
124,1D0,0D0,0D0,0D0,0D0,0D0,1D0,-5.922651053233D0,0D0,-1D0,0D0,      161P    311
0D0;                                                                 161P    312
100,0D0,0D0,0D0,6D0,0D0,-6D0,0D0;                                    163P    313
110,7.000000676291D0,-6.499998828124D0,-1.898601709387D-9,           165P    314
6.000000434758D0,-5.922648977462D0,-1.220530114409D-9;               165P    315
110,-7.000000676291D0,-6.499998828124D0,1.898606658066D-9,           167P    316
-6.000000434758D0,-5.922648977462D0,1.220532556901D-9;               167P    317
502,32,1.05D1,6.5D0,0D0,5.250000000066D0,6.5D0,                      169P    318
-9.093266739698D0,-5.249999999917D0,6.5D0,-9.093266739785D0,         169P    319
-1.05D1,6.5D0,2.465441184540D-9,-5.250000000066D0,6.5D0,             169P    320
9.093266739698D0,5.249999999917D0,6.5D0,9.093266739785D0,            169P    321
-1.05D1,5.562177826491D0,6.062177826491D0,0D0,5.562177826491D0,      169P    322
1.212435565298D1,1.05D1,5.562177826491D0,6.062177826491D0,           169P    323
1.05D1,5.562177826491D0,-6.062177826491D0,0D0,5.562177826491D0,      169P    324
-1.212435565298D1,-1.05D1,5.562177826491D0,-6.062177826491D0,        169P    325
-1.05D1,-5.562177826491D0,6.062177826491D0,0D0,                      169P    326
-5.562177826491D0,1.212435565298D1,1.05D1,-5.562177826491D0,         169P    327
6.062177826491D0,1.05D1,-5.562177826491D0,-6.062177826491D0,0D0,     169P    328
-5.562177826491D0,-1.212435565298D1,-1.05D1,-5.562177826491D0,       169P    329
-6.062177826491D0,1.05D1,-6.5D0,0D0,5.250000000066D0,-6.5D0,         169P    330
-9.093266739698D0,-5.249999999917D0,-6.5D0,-9.093266739785D0,        169P    331
-1.05D1,-6.5D0,0D0,-5.250000000066D0,-6.5D0,9.093266739698D0,        169P    332
5.249999999917D0,-6.5D0,9.093266739785D0,-6.999999033204D0,          169P    333
6.499997098322D0,0D0,6.999999033204D0,6.499997098322D0,0D0,-6D0,     169P    334
5.922651053233D0,0D0,6D0,5.922651053233D0,0D0,-6.999999033204D0,     169P    335
-6.499997098322D0,0D0,6.999999033204D0,-6.499997098322D0,0D0,        169P    336
-6D0,-5.922651053233D0,0D0,6D0,-5.922651053233D0,0D0;                169P    337
504,56,111,169,1,169,2,131,169,2,169,3,127,169,3,169,4,123,169,      171P    338
4,169,5,119,169,5,169,6,115,169,6,169,1,89,169,7,169,5,91,169,5,     171P    339
169,8,99,169,8,169,6,101,169,6,169,9,49,169,1,169,10,57,169,9,       171P    340
169,1,59,169,10,169,2,61,169,2,169,11,69,169,11,169,3,71,169,3,      171P    341
169,12,79,169,12,169,4,81,169,4,169,7,97,169,13,169,7,107,169,       171P    342
14,169,8,55,169,15,169,9,67,169,16,169,10,77,169,17,169,11,87,       171P    343
169,18,169,12,19,169,19,169,20,23,169,20,169,21,27,169,21,169,       171P    344
22,31,169,22,169,23,35,169,23,169,24,39,169,24,169,19,95,169,13,     171P    345
169,23,93,169,23,169,14,105,169,14,169,24,103,169,24,169,15,51,      171P    346
169,19,169,16,53,169,15,169,19,65,169,16,169,20,63,169,20,169,       171P    347
17,75,169,17,169,21,73,169,21,169,18,85,169,18,169,22,83,169,22,     171P    348
169,13,135,169,25,169,26,159,169,27,169,28,139,169,26,169,25,        171P    349
147,169,28,169,27,43,169,29,169,30,153,169,31,169,32,47,169,30,      171P    350
169,29,163,169,32,169,31,155,169,32,169,28,149,169,31,169,27,        171P    351
143,169,26,169,28,141,169,25,169,27,165,169,30,169,32,167,169,       171P    352
29,169,31;                                                           171P    353
128,1,1,1,1,0,0,1,0,0,-1.092D1,-1.092D1,1.092D1,1.092D1,             173P    354
-1.092000000001D1,-1.092000000001D1,1.092000000001D1,                173P    355
1.092000000001D1,1D0,1D0,1D0,1D0,1.092000000001D1,-6.5D0,            173P    356
1.092D1,1.092000000001D1,-6.5D0,-1.092D1,-1.092000000001D1,          173P    357
-6.5D0,1.092D1,-1.092000000001D1,-6.5D0,-1.092D1,-1.092D1,           173P    358
1.092D1,-1.092000000001D1,1.092000000001D1;                          173P    359
508,6,0,171,25,1,0,0,171,26,1,0,0,171,27,1,0,0,171,28,1,0,0,171,     175P    360
29,1,0,0,171,30,1,0;                                                 175P    361
508,2,0,171,47,0,0,0,171,49,0,0;                                     177P    362
510,173,2,0,175,177;                                                 179P    363
110,0D0,-1.256217782649D1,0D0,0D0,-1.156217782649D1,0D0;             181P    364
110,1.046188700865D1,-6.522004545816D0,0D0,1.216246864433D1,         183P    365
-5.540173280675D0,0D0;                                               183P    366
120,181,183,-6.283185307180D-2,3.204424506662D0;                     185P    367
508,3,0,171,35,1,0,0,171,37,1,0,0,171,25,0,0;                        187P    368
510,185,1,0,187;                                                     189P    369
110,0D0,-1.256217782649D1,0D0,0D0,-1.156217782649D1,0D0;             191P    370
110,1.046188700865D1,-6.522004545816D0,0D0,1.216246864433D1,         193P    371
-5.540173280675D0,0D0;                                               193P    372
120,191,193,-6.283185307180D-2,3.204424506662D0;                     195P    373
508,3,0,171,38,1,0,0,171,39,1,0,0,171,26,0,0;                        197P    374
510,195,1,0,197;                                                     199P    375
110,0D0,-1.256217782649D1,0D0,0D0,-1.156217782649D1,0D0;             201P    376
110,1.046188700865D1,-6.522004545816D0,0D0,1.216246864433D1,         203P    377
-5.540173280675D0,0D0;                                               203P    378
120,201,203,-6.283185307180D-2,3.204424506662D0;                     205P    379
508,3,0,171,40,1,0,0,171,41,1,0,0,171,27,0,0;                        207P    380
510,205,1,0,207;                                                     209P    381
128,1,1,1,1,0,0,1,0,0,-2.424871130596D-1,-2.424871130596D-1,         211P    382
1.236684276604D1,1.236684276604D1,-2.600000067114D-1,                211P    383
-2.600000067114D-1,1.326000000671D1,1.326000000671D1,1D0,1D0,        211P    384
1D0,1D0,1.05D1,-6.760000006711D0,6.304664939551D0,1.05D1,            211P    385
-6.760000006711D0,-6.304664939551D0,1.05D1,6.760000006711D0,         211P    386
6.304664939551D0,1.05D1,6.760000006711D0,-6.304664939551D0,          211P    387
-2.424871130596D-1,1.236684276604D1,-2.600000067114D-1,              211P    388
1.326000000671D1;                                                    211P    389
508,6,0,171,11,1,0,0,171,22,0,0,0,171,35,0,0,0,171,36,0,0,0,171,     213P    390
21,1,0,0,171,12,1,0;                                                 213P    391
510,211,1,0,213;                                                     215P    392
110,0D0,1.256217782649D1,0D0,0D0,1.356217782649D1,0D0;               217P    393
110,1.216246864433D1,5.540173280675D0,0D0,1.046188700865D1,          219P    394
6.522004545816D0,0D0;                                                219P    395
120,217,219,-6.283185307151D-2,3.204424506647D0;                     221P    396
508,3,0,171,13,0,0,0,171,11,0,0,0,171,1,1,0;                         223P    397
510,221,1,0,223;                                                     225P    398
110,0D0,1.256217782649D1,0D0,0D0,1.356217782649D1,0D0;               227P    399
110,1.216246864433D1,5.540173280675D0,0D0,1.046188700865D1,          229P    400
6.522004545816D0,0D0;                                                229P    401
120,227,229,-6.283185307151D-2,3.204424506647D0;                     231P    402
508,3,0,171,15,0,0,0,171,14,0,0,0,171,2,1,0;                         233P    403
510,231,1,0,233;                                                     235P    404
110,0D0,1.256217782649D1,0D0,0D0,1.356217782649D1,0D0;               237P    405
110,1.216246864433D1,5.540173280675D0,0D0,1.046188700865D1,          239P    406
6.522004545816D0,0D0;                                                239P    407
120,237,239,-6.283185307151D-2,3.204424506647D0;                     241P    408
508,3,0,171,17,0,0,0,171,16,0,0,0,171,3,1,0;                         243P    409
510,241,1,0,243;                                                     245P    410
128,1,1,1,1,0,0,1,0,0,-2.424871130596D-1,-2.424871130596D-1,         247P    411
1.236684276604D1,1.236684276604D1,-2.600000001107D-1,                247P    412
-2.600000001107D-1,1.326000000395D1,1.326000000395D1,1D0,1D0,        247P    413
1D0,1D0,1.071D1,-6.760000000111D0,-5.940934269961D0,-2.1D-1,         247P    414
-6.760000000111D0,-1.224559920951D1,1.071D1,6.760000003950D0,        247P    415
-5.940934269961D0,-2.1D-1,6.760000003950D0,-1.224559920951D1,        247P    416
-2.424871130596D-1,1.236684276604D1,-2.600000001107D-1,              247P    417
1.326000000395D1;                                                    247P    418
508,6,0,171,13,1,0,0,171,14,1,0,0,171,23,0,0,0,171,38,0,0,0,171,     249P    419
37,0,0,0,171,22,1,0;                                                 249P    420
510,247,1,0,249;                                                     251P    421
128,1,1,1,1,0,0,1,0,0,-2.424871130596D-1,-2.424871130596D-1,         253P    422
1.236684276604D1,1.236684276604D1,-2.600000022751D-1,                253P    423
-2.600000022751D-1,1.326000000449D1,1.326000000449D1,1D0,1D0,        253P    424
1D0,1D0,2.1D-1,-6.760000002275D0,-1.224559920951D1,-1.071D1,         253P    425
-6.760000002275D0,-5.940934269961D0,2.1D-1,6.760000004493D0,         253P    426
-1.224559920951D1,-1.071D1,6.760000004493D0,-5.940934269961D0,       253P    427
-2.424871130596D-1,1.236684276604D1,-2.600000022751D-1,              253P    428
1.326000000449D1;                                                    253P    429
508,6,0,171,15,1,0,0,171,16,1,0,0,171,24,0,0,0,171,40,0,0,0,171,     255P    430
39,0,0,0,171,23,1,0;                                                 255P    431
510,253,1,0,255;                                                     257P    432
128,1,1,1,1,0,0,1,0,0,-2.424871130596D-1,-2.424871130596D-1,         259P    433
1.236684276604D1,1.236684276604D1,-2.600000001776D-1,                259P    434
-2.600000001776D-1,1.326000000575D1,1.326000000575D1,1D0,1D0,        259P    435
1D0,1D0,-1.05D1,-6.760000000178D0,-6.304664939551D0,-1.05D1,         259P    436
-6.760000000178D0,6.304664939551D0,-1.05D1,6.760000005754D0,         259P    437
-6.304664939551D0,-1.05D1,6.760000005754D0,6.304664939551D0,         259P    438
-2.424871130596D-1,1.236684276604D1,-2.600000001776D-1,              259P    439
1.326000000575D1;                                                    259P    440
508,6,0,171,17,1,0,0,171,18,1,0,0,171,19,0,0,0,171,42,0,0,0,171,     261P    441
41,0,0,0,171,24,1,0;                                                 261P    442
510,259,1,0,261;                                                     263P    443
110,0D0,1.256217782649D1,0D0,0D0,1.356217782649D1,0D0;               265P    444
110,1.216246864433D1,5.540173280675D0,0D0,1.046188700865D1,          267P    445
6.522004545816D0,0D0;                                                267P    446
120,265,267,-3.204424506332D0,6.283183625501D-2;                     269P    447
508,3,0,171,7,0,0,0,171,18,0,0,0,171,4,1,0;                          271P    448
510,269,1,0,271;                                                     273P    449
110,0D0,1.256217782649D1,0D0,0D0,1.356217782649D1,0D0;               275P    450
110,1.216246864433D1,5.540173280675D0,0D0,1.046188700865D1,          277P    451
6.522004545816D0,0D0;                                                277P    452
120,275,277,-3.204424506332D0,6.283183625501D-2;                     279P    453
508,3,0,171,9,0,0,0,171,8,0,0,0,171,5,1,0;                           281P    454
510,279,1,0,281;                                                     283P    455
110,0D0,1.256217782649D1,0D0,0D0,1.356217782649D1,0D0;               285P    456
110,1.216246864433D1,5.540173280675D0,0D0,1.046188700865D1,          287P    457
6.522004545816D0,0D0;                                                287P    458
120,285,287,-3.204424506332D0,6.283183625501D-2;                     289P    459
508,3,0,171,12,0,0,0,171,10,0,0,0,171,6,1,0;                         291P    460
510,289,1,0,291;                                                     293P    461
128,1,1,1,1,0,0,1,0,0,-2.424871130596D-1,-2.424871130596D-1,         295P    462
1.236684276604D1,1.236684276604D1,-2.600000001022D-1,                295P    463
-2.600000001022D-1,1.326000000352D1,1.326000000352D1,1D0,1D0,        295P    464
1D0,1D0,-1.071D1,-6.760000000102D0,5.940934269961D0,2.1D-1,          295P    465
-6.760000000102D0,1.224559920951D1,-1.071D1,6.760000003516D0,        295P    466
5.940934269961D0,2.1D-1,6.760000003516D0,1.224559920951D1,           295P    467
-2.424871130596D-1,1.236684276604D1,-2.600000001022D-1,              295P    468
1.326000000352D1;                                                    295P    469
508,6,0,171,7,1,0,0,171,8,1,0,0,171,20,0,0,0,171,32,0,0,0,171,       297P    470
31,0,0,0,171,19,1,0;                                                 297P    471
510,295,1,0,297;                                                     299P    472
128,1,1,1,1,0,0,1,0,0,-2.424871130596D-1,-2.424871130596D-1,         301P    473
1.236684276604D1,1.236684276604D1,-2.600000000333D-1,                301P    474
-2.600000000333D-1,1.326D1,1.326D1,1D0,1D0,1D0,1D0,-2.1D-1,          301P    475
-6.760000000033D0,1.224559920951D1,1.071D1,-6.760000000033D0,        301P    476
5.940934269961D0,-2.1D-1,6.760000000005D0,1.224559920951D1,          301P    477
1.071D1,6.760000000005D0,5.940934269961D0,-2.424871130596D-1,        301P    478
1.236684276604D1,-2.600000000333D-1,1.326D1;                         301P    479
508,6,0,171,9,1,0,0,171,10,1,0,0,171,21,0,0,0,171,34,0,0,0,171,      303P    480
33,0,0,0,171,20,1,0;                                                 303P    481
510,301,1,0,303;                                                     305P    482
110,0D0,-1.256217782649D1,0D0,0D0,-1.156217782649D1,0D0;             307P    483
110,1.046188700865D1,-6.522004545816D0,0D0,1.216246864433D1,         309P    484
-5.540173280675D0,0D0;                                               309P    485
120,307,309,-3.204424506662D0,6.283185307179D-2;                     311P    486
508,3,0,171,42,1,0,0,171,31,1,0,0,171,28,0,0;                        313P    487
510,311,1,0,313;                                                     315P    488
110,0D0,-1.256217782649D1,0D0,0D0,-1.156217782649D1,0D0;             317P    489
110,1.046188700865D1,-6.522004545816D0,0D0,1.216246864433D1,         319P    490
-5.540173280675D0,0D0;                                               319P    491
120,317,319,-3.204424506662D0,6.283185307179D-2;                     321P    492
508,3,0,171,32,1,0,0,171,33,1,0,0,171,29,0,0;                        323P    493
510,321,1,0,323;                                                     325P    494
110,0D0,-1.256217782649D1,0D0,0D0,-1.156217782649D1,0D0;             327P    495
110,1.046188700865D1,-6.522004545816D0,0D0,1.216246864433D1,         329P    496
-5.540173280675D0,0D0;                                               329P    497
120,327,329,-3.204424506662D0,6.283185307179D-2;                     331P    498
508,3,0,171,34,1,0,0,171,36,1,0,0,171,30,0,0;                        333P    499
510,331,1,0,333;                                                     335P    500
128,1,1,1,1,0,0,1,0,0,-1.092D1,-1.092D1,1.092D1,1.092D1,             337P    501
-1.092000000043D1,-1.092000000043D1,1.092000002134D1,                337P    502
1.092000002134D1,1D0,1D0,1D0,1D0,1.092000000043D1,6.5D0,1.092D1,     337P    503
1.092000000043D1,6.5D0,-1.092D1,-1.092000002134D1,6.5D0,1.092D1,     337P    504
-1.092000002134D1,6.5D0,-1.092D1,-1.092D1,1.092D1,                   337P    505
-1.092000000043D1,1.092000002134D1;                                  337P    506
508,6,0,171,1,0,0,0,171,6,0,0,0,171,5,0,0,0,171,4,0,0,0,171,3,0,     339P    507
0,0,171,2,0,0;                                                       339P    508
508,2,0,171,43,0,0,0,171,45,0,0;                                     341P    509
510,337,2,0,339,341;                                                 343P    510
110,0D0,2.458548115673D0,0D0,0D0,3.458548115673D0,0D0;               345P    511
110,0D0,5.900642620857D0,-5.961886024525D0,0D0,6.522006488807D0,     347P    512
-7.038120437873D0;                                                   347P    513
120,345,347,-1.633628184333D0,1.633628185147D0;                      349P    514
508,4,0,171,43,1,0,0,171,53,1,0,0,171,44,0,0,0,171,54,0,0;           351P    515
510,349,1,0,351;                                                     353P    516
110,0D0,2.458548115673D0,0D0,0D0,3.458548115673D0,0D0;               355P    517
110,0D0,5.900642620857D0,-5.961886024525D0,0D0,6.522006488807D0,     357P    518
-7.038120437873D0;                                                   357P    519
120,355,357,1.507964469256D0,4.775220838737D0;                       359P    520
508,4,0,171,45,1,0,0,171,54,1,0,0,171,46,0,0,0,171,53,0,0;           361P    521
510,359,1,0,361;                                                     363P    522
110,0D0,-8.515D0,0D0,0D0,-7.515D0,0D0;                               365P    523
110,6D0,-6.159573075341D0,0D0,6D0,6.159573075341D0,0D0;              367P    524
120,365,367,-3.204424506662D0,6.283185307180D-2;                     369P    525
508,4,0,171,46,1,0,0,171,52,0,0,0,171,48,1,0,0,171,51,1,0;           371P    526
510,369,1,0,371;                                                     373P    527
110,0D0,-8.515D0,0D0,0D0,-7.515D0,0D0;                               375P    528
110,6D0,-6.159573075341D0,0D0,6D0,6.159573075341D0,0D0;              377P    529
120,375,377,-6.283185307180D-2,3.204424506662D0;                     379P    530
508,4,0,171,44,1,0,0,171,51,0,0,0,171,50,1,0,0,171,52,1,0;           381P    531
510,379,1,0,381;                                                     383P    532
110,0D0,-2.458548115673D0,0D0,0D0,-3.458548115673D0,0D0;             385P    533
110,0D0,-5.900642620857D0,-5.961886024525D0,0D0,                     387P    534
-6.522006488807D0,-7.038120437873D0;                                 387P    535
120,385,387,-1.633628185147D0,1.633628184333D0;                      389P    536
508,4,0,171,49,1,0,0,171,56,1,0,0,171,50,0,0,0,171,55,0,0;           391P    537
510,389,1,0,391;                                                     393P    538
110,0D0,-2.458548115673D0,0D0,0D0,-3.458548115673D0,0D0;             395P    539
110,0D0,-5.900642620857D0,-5.961886024525D0,0D0,                     397P    540
-6.522006488807D0,-7.038120437873D0;                                 397P    541
120,395,397,-4.775220838737D0,-1.507964469256D0;                     399P    542
508,4,0,171,47,1,0,0,171,55,1,0,0,171,48,0,0,0,171,56,0,0;           401P    543
510,399,1,0,401;                                                     403P    544
514,26,179,0,189,1,199,1,209,1,215,1,225,1,235,1,245,1,251,1,        405P    545
257,1,263,1,273,1,283,1,293,1,299,1,305,1,315,1,325,1,335,1,343,     405P    546
1,353,0,363,0,373,0,383,0,393,0,403,0;                               405P    547
124,1D0,0D0,0D0,0D0,0D0,0D0,1D0,-6.5D0,0D0,-1D0,0D0,0D0;             407P    548
100,0D0,0D0,0D0,7D0,0D0,-7D0,0D0;                                    409P    549
124,-1D0,0D0,0D0,0D0,0D0,0D0,-1D0,6.5D0,0D0,-1D0,0D0,0D0;            411P    550
100,0D0,0D0,0D0,7D0,0D0,-7D0,0D0;                                    413P    551
124,-1D0,0D0,0D0,0D0,0D0,0D0,1D0,-6.5D0,0D0,1D0,0D0,0D0;             415P    552
100,0D0,0D0,0D0,7D0,0D0,-7D0,0D0;                                    417P    553
110,7D0,6.5D0,0D0,7D0,-6.5D0,0D0;                                    419P    554
124,1D0,0D0,0D0,0D0,0D0,0D0,-1D0,6.5D0,0D0,1D0,0D0,0D0;              421P    555
100,0D0,0D0,0D0,7D0,0D0,-7D0,0D0;                                    423P    556
110,-7D0,6.5D0,0D0,-7D0,-6.5D0,0D0;                                  425P    557
502,4,7D0,-6.5D0,0D0,-7D0,-6.5D0,0D0,7D0,6.5D0,0D0,-7D0,6.5D0,       427P    558
0D0;                                                                 427P    559
504,6,409,427,1,427,2,413,427,3,427,4,417,427,2,427,1,423,427,4,     429P    560
427,3,419,427,3,427,1,425,427,4,427,2;                               429P    561
110,0D0,-8.515D0,0D0,0D0,-7.515D0,0D0;                               431P    562
110,7D0,-6.76D0,0D0,7D0,6.76D0,0D0;                                  433P    563
120,431,433,-6.283185307180D-2,3.204424506662D0;                     435P    564
508,4,0,429,1,1,0,0,429,6,0,0,0,429,2,0,0,0,429,5,1,0;               437P    565
510,435,1,0,437;                                                     439P    566
110,0D0,-8.515D0,0D0,0D0,-7.515D0,0D0;                               441P    567
110,7D0,-6.76D0,0D0,7D0,6.76D0,0D0;                                  443P    568
120,441,443,-3.204424506662D0,6.283185307180D-2;                     445P    569
508,4,0,429,3,1,0,0,429,5,0,0,0,429,4,0,0,0,429,6,1,0;               447P    570
510,445,1,0,447;                                                     449P    571
514,2,439,0,449,0;                                                   451P    572
186,405,1,0;                                                         453P    573
S      1G      4D    454P    573                                        T      1
