 PTC IGES file: nut-m05-iso_4034.igs                                    S      1
1H,,1H;,16HNUT-M05-ISO_4034,20Hnut-m05-iso_4034.igs,                    G      1
49HPro/ENGINEER by Parametric Technology Corporation,7H2007160,32,38,7, G      2
38,15,16HNUT-M05-ISO_4034,1.,2,2HMM,32768,0.5,15H20111214.161438,       G      3
0.00139875,13.9881,13HVladimir Zima,7HUnknown,10,0,15H20111214.161438;  G      4
     314       1       1       1       0       0       0       001000200D      1
     314       0       4       1       0                   COLOR       1D      2
     314       2       1       1       0       0       0       001000200D      3
     314       0       1       1       0                   COLOR       2D      4
     314       3       1       1       0       0       0       001000200D      5
     314       0       1       1       0                   COLOR       3D      6
     314       4       1       1       0       0       0       001000200D      7
     314       0       1       1       0                   COLOR       4D      8
     314       5       1       1       0       0       0       001000200D      9
     314       0       8       1       0                   COLOR       5D     10
     314       6       1       1       0       0       0       001000200D     11
     314       0       8       1       0                   COLOR       6D     12
     314       7       1       1       0       0       0       001000200D     13
     314       0       5       1       0                   COLOR       7D     14
     314       8       1       1       0       0       0       001000200D     15
     314       0       8       1       0                   COLOR       8D     16
     124       9       1       1       0       0       0       001000000D     17
     124       0       0       1       0                   XFORM       1D     18
     100      10       1       1       0       0      17       001010000D     19
     100       0       0       1       0                     ARC       1D     20
     124      11       1       1       0       0       0       001000000D     21
     124       0       0       2       0                   XFORM       2D     22
     100      13       1       1       0       0      21       001010000D     23
     100       0       0       1       0                     ARC       2D     24
     124      14       1       1       0       0       0       001000000D     25
     124       0       0       2       0                   XFORM       3D     26
     100      16       1       1       0       0      25       001010000D     27
     100       0       0       1       0                     ARC       3D     28
     124      17       1       1       0       0       0       001000000D     29
     124       0       0       1       0                   XFORM       4D     30
     100      18       1       1       0       0      29       001010000D     31
     100       0       0       1       0                     ARC       4D     32
     124      19       1       1       0       0       0       001000000D     33
     124       0       0       2       0                   XFORM       5D     34
     100      21       1       1       0       0      33       001010000D     35
     100       0       0       1       0                     ARC       5D     36
     124      22       1       1       0       0       0       001000000D     37
     124       0       0       2       0                   XFORM       6D     38
     100      24       1       1       0       0      37       001010000D     39
     100       0       0       1       0                     ARC       6D     40
     124      25       1       1       0       0       0       001000000D     41
     124       0       0       2       0                   XFORM       7D     42
     100      27       1       1       0       0      41       001010000D     43
     100       0       0       1       0                     ARC       7D     44
     124      28       1       1       0       0       0       001000000D     45
     124       0       0       2       0                   XFORM       8D     46
     100      30       1       1       0       0      45       001010000D     47
     100       0       0       1       0                     ARC       8D     48
     126      31       1       1       0       0       0       001010000D     49
     126       0       0       9       0                B_SPLINE       1D     50
     126      40       1       1       0       0       0       001010000D     51
     126       0       0       9       0                B_SPLINE       2D     52
     126      49       1       1       0       0       0       001010000D     53
     126       0       0       9       0                B_SPLINE       3D     54
     110      58       1       1       0       0       0       001010000D     55
     110       0       0       2       0                    LINE       1D     56
     126      60       1       1       0       0       0       001010000D     57
     126       0       0       9       0                B_SPLINE       4D     58
     126      69       1       1       0       0       0       001010000D     59
     126       0       0      10       0                B_SPLINE       5D     60
     126      79       1       1       0       0       0       001010000D     61
     126       0       0      10       0                B_SPLINE       6D     62
     126      89       1       1       0       0       0       001010000D     63
     126       0       0      10       0                B_SPLINE       7D     64
     126      99       1       1       0       0       0       001010000D     65
     126       0       0      10       0                B_SPLINE       8D     66
     110     109       1       1       0       0       0       001010000D     67
     110       0       0       2       0                    LINE       2D     68
     126     111       1       1       0       0       0       001010000D     69
     126       0       0      10       0                B_SPLINE       9D     70
     126     121       1       1       0       0       0       001010000D     71
     126       0       0      10       0                B_SPLINE      10D     72
     126     131       1       1       0       0       0       001010000D     73
     126       0       0      10       0                B_SPLINE      11D     74
     126     141       1       1       0       0       0       001010000D     75
     126       0       0      10       0                B_SPLINE      12D     76
     110     151       1       1       0       0       0       001010000D     77
     110       0       0       2       0                    LINE       3D     78
     126     153       1       1       0       0       0       001010000D     79
     126       0       0       9       0                B_SPLINE      13D     80
     126     162       1       1       0       0       0       001010000D     81
     126       0       0       9       0                B_SPLINE      14D     82
     126     171       1       1       0       0       0       001010000D     83
     126       0       0       9       0                B_SPLINE      15D     84
     126     180       1       1       0       0       0       001010000D     85
     126       0       0       9       0                B_SPLINE      16D     86
     110     189       1       1       0       0       0       001010000D     87
     110       0       0       2       0                    LINE       4D     88
     126     191       1       1       0       0       0       001010000D     89
     126       0       0      10       0                B_SPLINE      17D     90
     126     201       1       1       0       0       0       001010000D     91
     126       0       0      10       0                B_SPLINE      18D     92
     126     211       1       1       0       0       0       001010000D     93
     126       0       0      10       0                B_SPLINE      19D     94
     126     221       1       1       0       0       0       001010000D     95
     126       0       0      10       0                B_SPLINE      20D     96
     110     231       1       1       0       0       0       001010000D     97
     110       0       0       2       0                    LINE       5D     98
     126     233       1       1       0       0       0       001010000D     99
     126       0       0      10       0                B_SPLINE      21D    100
     126     243       1       1       0       0       0       001010000D    101
     126       0       0      10       0                B_SPLINE      22D    102
     126     253       1       1       0       0       0       001010000D    103
     126       0       0      10       0                B_SPLINE      23D    104
     126     263       1       1       0       0       0       001010000D    105
     126       0       0      10       0                B_SPLINE      24D    106
     110     273       1       1       0       0       0       001010000D    107
     110       0       0       2       0                    LINE       6D    108
     124     275       1       1       0       0       0       001000000D    109
     124       0       0       1       0                   XFORM       9D    110
     100     276       1       1       0       0     109       001010000D    111
     100       0       0       1       0                     ARC       9D    112
     124     277       1       1       0       0       0       001000000D    113
     124       0       0       2       0                   XFORM      10D    114
     100     279       1       1       0       0     113       001010000D    115
     100       0       0       1       0                     ARC      10D    116
     124     280       1       1       0       0       0       001000000D    117
     124       0       0       2       0                   XFORM      11D    118
     100     282       1       1       0       0     117       001010000D    119
     100       0       0       1       0                     ARC      11D    120
     124     283       1       1       0       0       0       001000000D    121
     124       0       0       1       0                   XFORM      12D    122
     100     284       1       1       0       0     121       001010000D    123
     100       0       0       1       0                     ARC      12D    124
     124     285       1       1       0       0       0       001000000D    125
     124       0       0       2       0                   XFORM      13D    126
     100     287       1       1       0       0     125       001010000D    127
     100       0       0       1       0                     ARC      13D    128
     124     288       1       1       0       0       0       001000000D    129
     124       0       0       2       0                   XFORM      14D    130
     100     290       1       1       0       0     129       001010000D    131
     100       0       0       1       0                     ARC      14D    132
     124     291       1       1       0       0       0       001000000D    133
     124       0       0       2       0                   XFORM      15D    134
     100     293       1       1       0       0     133       001010000D    135
     100       0       0       1       0                     ARC      15D    136
     124     294       1       1       0       0       0       001000000D    137
     124       0       0       2       0                   XFORM      16D    138
     100     296       1       1       0       0     137       001010000D    139
     100       0       0       1       0                     ARC      16D    140
     110     297       1       1       0       0       0       001010000D    141
     110       0       0       2       0                    LINE       7D    142
     110     299       1       1       0       0       0       001010000D    143
     110       0       0       2       0                    LINE       8D    144
     124     301       1       1       0       0       0       001000000D    145
     124       0       0       2       0                   XFORM      17D    146
     100     303       1       1       0       0     145       001010000D    147
     100       0       0       1       0                     ARC      17D    148
     110     304       1       1       0       0       0       001010000D    149
     110       0       0       2       0                    LINE       9D    150
     124     306       1       1       0       0       0       001000000D    151
     124       0       0       2       0                   XFORM      18D    152
     100     308       1       1       0       0     151       001010000D    153
     100       0       0       1       0                     ARC      18D    154
     110     309       1       1       0       0       0       001010000D    155
     110       0       0       2       0                    LINE      10D    156
     124     311       1       1       0       0       0       001000000D    157
     124       0       0       2       0                   XFORM      19D    158
     100     313       1       1       0       0     157       001010000D    159
     100       0       0       1       0                     ARC      19D    160
     124     314       1       1       0       0       0       001000000D    161
     124       0       0       2       0                   XFORM      20D    162
     100     316       1       1       0       0     161       001010000D    163
     100       0       0       1       0                     ARC      20D    164
     110     317       1       1       0       0       0       001010000D    165
     110       0       0       2       0                    LINE      11D    166
     110     319       1       1       0       0       0       001010000D    167
     110       0       0       2       0                    LINE      12D    168
     502     321       1       1       0       0       0       001010000D    169
     502       0       0      20       1                  VERTEX       1D    170
     504     341       1       1       0       0       0       000010001D    171
     504       0       0      16       1                    EDGE       1D    172
     128     357       1       1       0       0       0       001010000D    173
     128       0       0       6       0                  SPLSRF       1D    174
     508     363       1       1       0       0       0       001010000D    175
     508       0       0       2       1                EDGELOOP       1D    176
     508     365       1       1       0       0       0       001010000D    177
     508       0       0       1       1                EDGELOOP       2D    178
     510     366       1       1       0       0       0       000010000D    179
     510       0       0       1       1                    FACE       1D    180
     110     367       1       1       0       0       0       001010000D    181
     110       0       0       1       0                    LINE      13D    182
     110     368       1       1       0       0       0       001010000D    183
     110       0       0       2       0                    LINE      14D    184
     120     370       1       1       0       0       0       001010000D    185
     120       0       0       1       0                    SREV       1D    186
     508     371       1       1       0       0       0       001010000D    187
     508       0       0       1       1                EDGELOOP       3D    188
     510     372       1       1       0       0       0       000010000D    189
     510       0       0       1       1                    FACE       2D    190
     110     373       1       1       0       0       0       001010000D    191
     110       0       0       1       0                    LINE      15D    192
     110     374       1       1       0       0       0       001010000D    193
     110       0       0       2       0                    LINE      16D    194
     120     376       1       1       0       0       0       001010000D    195
     120       0       0       1       0                    SREV       2D    196
     508     377       1       1       0       0       0       001010000D    197
     508       0       0       1       1                EDGELOOP       4D    198
     510     378       1       1       0       0       0       000010000D    199
     510       0       0       1       1                    FACE       3D    200
     110     379       1       1       0       0       0       001010000D    201
     110       0       0       1       0                    LINE      17D    202
     110     380       1       1       0       0       0       001010000D    203
     110       0       0       2       0                    LINE      18D    204
     120     382       1       1       0       0       0       001010000D    205
     120       0       0       1       0                    SREV       3D    206
     508     383       1       1       0       0       0       001010000D    207
     508       0       0       1       1                EDGELOOP       5D    208
     510     384       1       1       0       0       0       000010000D    209
     510       0       0       1       1                    FACE       4D    210
     128     385       1       1       0       0       0       001010000D    211
     128       0       0       8       0                  SPLSRF       2D    212
     508     393       1       1       0       0       0       001010000D    213
     508       0       0       2       1                EDGELOOP       6D    214
     510     395       1       1       0       0       0       000010000D    215
     510       0       0       1       1                    FACE       5D    216
     110     396       1       1       0       0       0       001010000D    217
     110       0       0       1       0                    LINE      19D    218
     110     397       1       1       0       0       0       001010000D    219
     110       0       0       2       0                    LINE      20D    220
     120     399       1       1       0       0       0       001010000D    221
     120       0       0       1       0                    SREV       4D    222
     508     400       1       1       0       0       0       001010000D    223
     508       0       0       1       1                EDGELOOP       7D    224
     510     401       1       1       0       0       0       000010000D    225
     510       0       0       1       1                    FACE       6D    226
     110     402       1       1       0       0       0       001010000D    227
     110       0       0       1       0                    LINE      21D    228
     110     403       1       1       0       0       0       001010000D    229
     110       0       0       2       0                    LINE      22D    230
     120     405       1       1       0       0       0       001010000D    231
     120       0       0       1       0                    SREV       5D    232
     508     406       1       1       0       0       0       001010000D    233
     508       0       0       1       1                EDGELOOP       8D    234
     510     407       1       1       0       0       0       000010000D    235
     510       0       0       1       1                    FACE       7D    236
     110     408       1       1       0       0       0       001010000D    237
     110       0       0       1       0                    LINE      23D    238
     110     409       1       1       0       0       0       001010000D    239
     110       0       0       2       0                    LINE      24D    240
     120     411       1       1       0       0       0       001010000D    241
     120       0       0       1       0                    SREV       6D    242
     508     412       1       1       0       0       0       001010000D    243
     508       0       0       1       1                EDGELOOP       9D    244
     510     413       1       1       0       0       0       000010000D    245
     510       0       0       1       1                    FACE       8D    246
     128     414       1       1       0       0       0       001010000D    247
     128       0       0       8       0                  SPLSRF       3D    248
     508     422       1       1       0       0       0       001010000D    249
     508       0       0       2       1                EDGELOOP      10D    250
     510     424       1       1       0       0       0       000010000D    251
     510       0       0       1       1                    FACE       9D    252
     128     425       1       1       0       0       0       001010000D    253
     128       0       0       8       0                  SPLSRF       4D    254
     508     433       1       1       0       0       0       001010000D    255
     508       0       0       2       1                EDGELOOP      11D    256
     510     435       1       1       0       0       0       000010000D    257
     510       0       0       1       1                    FACE      10D    258
     128     436       1       1       0       0       0       001010000D    259
     128       0       0       8       0                  SPLSRF       5D    260
     508     444       1       1       0       0       0       001010000D    261
     508       0       0       2       1                EDGELOOP      12D    262
     510     446       1       1       0       0       0       000010000D    263
     510       0       0       1       1                    FACE      11D    264
     110     447       1       1       0       0       0       001010000D    265
     110       0       0       1       0                    LINE      25D    266
     110     448       1       1       0       0       0       001010000D    267
     110       0       0       2       0                    LINE      26D    268
     120     450       1       1       0       0       0       001010000D    269
     120       0       0       1       0                    SREV       7D    270
     508     451       1       1       0       0       0       001010000D    271
     508       0       0       1       1                EDGELOOP      13D    272
     510     452       1       1       0       0       0       000010000D    273
     510       0       0       1       1                    FACE      12D    274
     110     453       1       1       0       0       0       001010000D    275
     110       0       0       1       0                    LINE      27D    276
     110     454       1       1       0       0       0       001010000D    277
     110       0       0       2       0                    LINE      28D    278
     120     456       1       1       0       0       0       001010000D    279
     120       0       0       1       0                    SREV       8D    280
     508     457       1       1       0       0       0       001010000D    281
     508       0       0       1       1                EDGELOOP      14D    282
     510     458       1       1       0       0       0       000010000D    283
     510       0       0       1       1                    FACE      13D    284
     110     459       1       1       0       0       0       001010000D    285
     110       0       0       1       0                    LINE      29D    286
     110     460       1       1       0       0       0       001010000D    287
     110       0       0       2       0                    LINE      30D    288
     120     462       1       1       0       0       0       001010000D    289
     120       0       0       1       0                    SREV       9D    290
     508     463       1       1       0       0       0       001010000D    291
     508       0       0       1       1                EDGELOOP      15D    292
     510     464       1       1       0       0       0       000010000D    293
     510       0       0       1       1                    FACE      14D    294
     128     465       1       1       0       0       0       001010000D    295
     128       0       0       8       0                  SPLSRF       6D    296
     508     473       1       1       0       0       0       001010000D    297
     508       0       0       2       1                EDGELOOP      16D    298
     510     475       1       1       0       0       0       000010000D    299
     510       0       0       1       1                    FACE      15D    300
     128     476       1       1       0       0       0       001010000D    301
     128       0       0       8       0                  SPLSRF       7D    302
     508     484       1       1       0       0       0       001010000D    303
     508       0       0       2       1                EDGELOOP      17D    304
     510     486       1       1       0       0       0       000010000D    305
     510       0       0       1       1                    FACE      16D    306
     110     487       1       1       0       0       0       001010000D    307
     110       0       0       1       0                    LINE      31D    308
     110     488       1       1       0       0       0       001010000D    309
     110       0       0       2       0                    LINE      32D    310
     120     490       1       1       0       0       0       001010000D    311
     120       0       0       1       0                    SREV      10D    312
     508     491       1       1       0       0       0       001010000D    313
     508       0       0       1       1                EDGELOOP      18D    314
     510     492       1       1       0       0       0       000010000D    315
     510       0       0       1       1                    FACE      17D    316
     110     493       1       1       0       0       0       001010000D    317
     110       0       0       1       0                    LINE      33D    318
     110     494       1       1       0       0       0       001010000D    319
     110       0       0       2       0                    LINE      34D    320
     120     496       1       1       0       0       0       001010000D    321
     120       0       0       1       0                    SREV      11D    322
     508     497       1       1       0       0       0       001010000D    323
     508       0       0       1       1                EDGELOOP      19D    324
     510     498       1       1       0       0       0       000010000D    325
     510       0       0       1       1                    FACE      18D    326
     110     499       1       1       0       0       0       001010000D    327
     110       0       0       1       0                    LINE      35D    328
     110     500       1       1       0       0       0       001010000D    329
     110       0       0       2       0                    LINE      36D    330
     120     502       1       1       0       0       0       001010000D    331
     120       0       0       1       0                    SREV      12D    332
     508     503       1       1       0       0       0       001010000D    333
     508       0       0       1       1                EDGELOOP      20D    334
     510     504       1       1       0       0       0       000010000D    335
     510       0       0       1       1                    FACE      19D    336
     128     505       1       1       0       0       0       001010000D    337
     128       0       0       6       0                  SPLSRF       8D    338
     508     511       1       1       0       0       0       001010000D    339
     508       0       0       2       1                EDGELOOP      21D    340
     508     513       1       1       0       0       0       001010000D    341
     508       0       0       1       1                EDGELOOP      22D    342
     510     514       1       1       0       0       0       000010000D    343
     510       0       0       1       1                    FACE      20D    344
     110     515       1       1       0       0       0       001010000D    345
     110       0       0       1       0                    LINE      37D    346
     110     516       1       1       0       0       0       001010000D    347
     110       0       0       2       0                    LINE      38D    348
     120     518       1       1       0       0       0       001010000D    349
     120       0       0       1       0                    SREV      13D    350
     508     519       1       1       0       0       0       001010000D    351
     508       0       0       1       1                EDGELOOP      23D    352
     510     520       1       1       0       0       0       000010000D    353
     510       0       0       1       1                    FACE      21D    354
     110     521       1       1       0       0       0       001010000D    355
     110       0       0       1       0                    LINE      39D    356
     110     522       1       1       0       0       0       001010000D    357
     110       0       0       2       0                    LINE      40D    358
     120     524       1       1       0       0       0       001010000D    359
     120       0       0       1       0                    SREV      14D    360
     508     525       1       1       0       0       0       001010000D    361
     508       0       0       1       1                EDGELOOP      24D    362
     510     526       1       1       0       0       0       000010000D    363
     510       0       0       1       1                    FACE      22D    364
     110     527       1       1       0       0       0       001010000D    365
     110       0       0       1       0                    LINE      41D    366
     110     528       1       1       0       0       0       001010000D    367
     110       0       0       1       0                    LINE      42D    368
     120     529       1       1       0       0       0       001010000D    369
     120       0       0       1       0                    SREV      15D    370
     508     530       1       1       0       0       0       001010000D    371
     508       0       0       1       1                EDGELOOP      25D    372
     510     531       1       1       0       0       0       000010000D    373
     510       0       0       1       1                    FACE      23D    374
     110     532       1       1       0       0       0       001010000D    375
     110       0       0       1       0                    LINE      43D    376
     110     533       1       1       0       0       0       001010000D    377
     110       0       0       1       0                    LINE      44D    378
     120     534       1       1       0       0       0       001010000D    379
     120       0       0       1       0                    SREV      16D    380
     508     535       1       1       0       0       0       001010000D    381
     508       0       0       1       1                EDGELOOP      26D    382
     510     536       1       1       0       0       0       000010000D    383
     510       0       0       1       1                    FACE      24D    384
     110     537       1       1       0       0       0       001010000D    385
     110       0       0       1       0                    LINE      45D    386
     110     538       1       1       0       0       0       001010000D    387
     110       0       0       2       0                    LINE      46D    388
     120     540       1       1       0       0       0       001010000D    389
     120       0       0       1       0                    SREV      17D    390
     508     541       1       1       0       0       0       001010000D    391
     508       0       0       1       1                EDGELOOP      27D    392
     510     542       1       1       0       0       0       000010000D    393
     510       0       0       1       1                    FACE      25D    394
     110     543       1       1       0       0       0       001010000D    395
     110       0       0       1       0                    LINE      47D    396
     110     544       1       1       0       0       0       001010000D    397
     110       0       0       2       0                    LINE      48D    398
     120     546       1       1       0       0       0       001010000D    399
     120       0       0       1       0                    SREV      18D    400
     508     547       1       1       0       0       0       001010000D    401
     508       0       0       1       1                EDGELOOP      28D    402
     510     548       1       1       0       0       0       000010000D    403
     510       0       0       1       1                    FACE      26D    404
     514     549       1       1       0       0       0       000010000D    405
     514       0       0       3       1                   SHELL       1D    406
     124     552       1       1       0       0       0       001000000D    407
     124       0       0       1       0                   XFORM      21D    408
     100     553       1       1       0       0     407       001010000D    409
     100       0       0       1       0                     ARC      21D    410
     124     554       1       1       0       0       0       001000000D    411
     124       0       0       1       0                   XFORM      22D    412
     100     555       1       1       0       0     411       001010000D    413
     100       0       0       1       0                     ARC      22D    414
     124     556       1       1       0       0       0       001000000D    415
     124       0       0       1       0                   XFORM      23D    416
     100     557       1       1       0       0     415       001010000D    417
     100       0       0       1       0                     ARC      23D    418
     110     558       1       1       0       0       0       001010000D    419
     110       0       0       1       0                    LINE      49D    420
     124     559       1       1       0       0       0       001000000D    421
     124       0       0       1       0                   XFORM      24D    422
     100     560       1       1       0       0     421       001010000D    423
     100       0       0       1       0                     ARC      24D    424
     110     561       1       1       0       0       0       001010000D    425
     110       0       0       1       0                    LINE      50D    426
     502     562       1       1       0       0       0       001010000D    427
     502       0       0       2       1                  VERTEX       2D    428
     504     564       1       1       0       0       0       000010001D    429
     504       0       0       2       1                    EDGE       2D    430
     110     566       1       1       0       0       0       001010000D    431
     110       0       0       1       0                    LINE      51D    432
     110     567       1       1       0       0       0       001010000D    433
     110       0       0       1       0                    LINE      52D    434
     120     568       1       1       0       0       0       001010000D    435
     120       0       0       1       0                    SREV      19D    436
     508     569       1       1       0       0       0       001010000D    437
     508       0       0       1       1                EDGELOOP      29D    438
     510     570       1       1       0       0       0       000010000D    439
     510       0       0       1       1                    FACE      27D    440
     110     571       1       1       0       0       0       001010000D    441
     110       0       0       1       0                    LINE      53D    442
     110     572       1       1       0       0       0       001010000D    443
     110       0       0       1       0                    LINE      54D    444
     120     573       1       1       0       0       0       001010000D    445
     120       0       0       1       0                    SREV      20D    446
     508     574       1       1       0       0       0       001010000D    447
     508       0       0       1       1                EDGELOOP      30D    448
     510     575       1       1       0       0       0       000010000D    449
     510       0       0       1       1                    FACE      28D    450
     514     576       1       1       0       0       0       000000000D    451
     514       0       0       1       1                   SHELL       2D    452
     186     577       1       1       0       0       0       000000000D    453
     186       0       0       1       0                    MSBR       1D    454
314,1.1D0,1.2D0,1D2;                                                   1P      1
314,1.1D1,1.1D1,1.1D1;                                                 3P      2
314,3.92D1,1.2D0,1.2D0;                                                5P      3
314,4.1D1,0D0,2.2D1;                                                   7P      4
314,8.784D1,9.49D1,1D2;                                                9P      5
314,9.6D1,9.6D1,9.6D1;                                                11P      6
314,9.8D1,6.27D1,0D0;                                                 13P      7
314,1D2,1D2,9.49D1;                                                   15P      8
124,1D0,0D0,0D0,0D0,0D0,0D0,1D0,-2.5D0,0D0,-1D0,0D0,0D0;              17P      9
100,0D0,0D0,0D0,4D0,0D0,2.000000000025D0,3.464101615123D0;            19P     10
124,5.000000000063D-1,-8.660254037808D-1,0D0,0D0,0D0,0D0,1D0,         21P     11
-2.5D0,-8.660254037808D-1,-5.000000000063D-1,0D0,0D0;                 21P     12
100,0D0,0D0,0D0,4D0,0D0,2.000000000006D0,3.464101615134D0;            23P     13
124,-4.999999999921D-1,-8.660254037890D-1,0D0,0D0,0D0,0D0,1D0,        25P     14
-2.5D0,-8.660254037890D-1,4.999999999921D-1,0D0,0D0;                  25P     15
100,0D0,0D0,0D0,4D0,0D0,1.999999999968D0,3.464101615156D0;            27P     16
124,-1D0,0D0,0D0,0D0,0D0,0D0,1D0,-2.5D0,0D0,1D0,0D0,0D0;              29P     17
100,0D0,0D0,0D0,4D0,0D0,2.000000000025D0,3.464101615123D0;            31P     18
124,-5.000000000063D-1,8.660254037808D-1,0D0,0D0,0D0,0D0,1D0,         33P     19
-2.5D0,8.660254037808D-1,5.000000000063D-1,0D0,0D0;                   33P     20
100,0D0,0D0,0D0,4D0,0D0,2.000000000006D0,3.464101615134D0;            35P     21
124,4.999999999921D-1,8.660254037890D-1,0D0,0D0,0D0,0D0,1D0,          37P     22
-2.5D0,8.660254037890D-1,-4.999999999921D-1,0D0,0D0;                  37P     23
100,0D0,0D0,0D0,4D0,0D0,1.999999999968D0,3.464101615156D0;            39P     24
124,-1D0,0D0,0D0,0D0,0D0,0D0,1D0,-2.499998913713D0,0D0,1D0,0D0,       41P     25
0D0;                                                                  41P     26
100,0D0,0D0,0D0,2.599999572360D0,0D0,-2.599999572360D0,0D0;           43P     27
124,1D0,0D0,0D0,0D0,0D0,0D0,1D0,-2.499998913713D0,0D0,-1D0,0D0,       45P     28
0D0;                                                                  45P     29
100,0D0,0D0,0D0,2.599999572360D0,0D0,-2.599999572360D0,0D0;           47P     30
126,7,3,0,0,1,0,0D0,0D0,0D0,0D0,2D-1,4D-1,6D-1,8D-1,1D0,1D0,1D0,      49P     31
1D0,1D0,1D0,1D0,1D0,1D0,1D0,1D0,1D0,4.000000000001D0,                 49P     32
2.500000000006D0,1.835915863780D-10,4.000000000001D0,                 49P     33
2.500000000006D0,-1.525677599243D-1,3.999999999999D0,                 49P     34
2.489879739501D0,-4.574579207198D-1,4D0,2.445178868726D0,             49P     35
-9.135859500161D-1,4D0,2.372562827564D0,-1.369921714888D0,4D0,        49P     36
2.273844821790D0,-1.829584358125D0,4D0,2.189335668592D0,              49P     37
-2.147969581922D0,4D0,2.142734410092D0,-2.309401076759D0,0D0,         49P     38
1D0,0D0,0D0,1D0;                                                      49P     39
126,7,3,0,0,1,0,0D0,0D0,0D0,0D0,2D-1,4D-1,6D-1,8D-1,1D0,1D0,1D0,      51P     40
1D0,1D0,1D0,1D0,1D0,1D0,1D0,1D0,1D0,4.000000000001D0,                 51P     41
-2.500000000006D0,-6.680211937685D-13,4.000000000001D0,               51P     42
-2.500000000006D0,-1.525677601086D-1,3.999999999999D0,                51P     43
-2.489879739501D0,-4.574579206343D-1,4D0,-2.445178868725D0,           51P     44
-9.135859500390D-1,4D0,-2.372562827564D0,-1.369921714882D0,4D0,       51P     45
-2.273844821790D0,-1.829584358127D0,4D0,-2.189335668592D0,            51P     46
-2.147969581922D0,4D0,-2.142734410092D0,-2.309401076759D0,0D0,        51P     47
1D0,0D0,0D0,1D0;                                                      51P     48
126,7,3,0,0,1,0,0D0,0D0,0D0,0D0,2D-1,4D-1,6D-1,8D-1,1D0,1D0,1D0,      53P     49
1D0,1D0,1D0,1D0,1D0,1D0,1D0,1D0,1D0,4D0,-2.142734410092D0,            53P     50
2.309401076759D0,4D0,-2.189780296780D0,2.146429344697D0,4D0,          53P     51
-2.274825941119D0,1.825673281794D0,4D0,-2.373489226364D0,             53P     52
1.364998666494D0,4D0,-2.445708548892D0,9.092713637408D-1,             53P     53
3.999999999999D0,-2.489994405003D0,4.550082293844D-1,                 53P     54
4.000000000001D0,-2.500000000006D0,1.516703159122D-1,                 53P     55
4.000000000001D0,-2.500000000006D0,-6.680211937685D-13,0D0,1D0,       53P     56
0D0,0D0,1D0;                                                          53P     57
110,4D0,-2.142734410092D0,2.309401076759D0,4D0,2.142734410092D0,      55P     58
2.309401076759D0;                                                     55P     59
126,7,3,0,0,1,0,0D0,0D0,0D0,0D0,2D-1,4D-1,6D-1,8D-1,1D0,1D0,1D0,      57P     60
1D0,1D0,1D0,1D0,1D0,1D0,1D0,1D0,1D0,4D0,2.142734410092D0,             57P     61
2.309401076759D0,4D0,2.189780296780D0,2.146429344697D0,4D0,           57P     62
2.274825941119D0,1.825673281796D0,4D0,2.373489226365D0,               57P     63
1.364998666488D0,4D0,2.445708548890D0,9.092713637637D-1,              57P     64
3.999999999999D0,2.489994405011D0,4.550082292989D-1,                  57P     65
4.000000000001D0,2.499999999990D0,1.516703160964D-1,                  57P     66
4.000000000001D0,2.500000000006D0,1.835915863780D-10,0D0,1D0,         57P     67
0D0,0D0,1D0;                                                          57P     68
126,7,3,0,0,1,0,0D0,0D0,0D0,0D0,2D-1,4D-1,6D-1,8D-1,1D0,1D0,1D0,      59P     69
1D0,1D0,1D0,1D0,1D0,1D0,1D0,1D0,1D0,4D0,2.142734410092D0,             59P     70
-2.309401076759D0,3.857773182646D0,2.190143349210D0,                  59P     71
-2.391515768044D0,3.578309595384D0,2.275627451500D0,                  59P     72
-2.552864145378D0,3.178613940323D0,2.374250290592D0,                  59P     73
-2.783628539422D0,2.784346832036D0,2.446147241036D0,                  59P     74
-3.011258760524D0,2.392288278694D0,2.490088886129D0,                  59P     75
-3.237613871834D0,2.130704481442D0,2.500000000003D0,                  59P     76
-3.388639347593D0,2.000000000089D0,2.500000000003D0,                  59P     77
-3.464101615087D0,0D0,1D0,0D0,0D0,1D0;                                59P     78
126,7,3,0,0,1,0,0D0,0D0,0D0,0D0,2D-1,4D-1,6D-1,8D-1,1D0,1D0,1D0,      61P     79
1D0,1D0,1D0,1D0,1D0,1D0,1D0,1D0,1D0,2.000000000089D0,                 61P     80
2.500000000003D0,-3.464101615087D0,1.869261275424D0,                  61P     81
2.500000000003D0,-3.539583652966D0,1.607621723067D0,                  61P     82
2.490083373730D0,-3.690641318949D0,1.215526020496D0,                  61P     83
2.446129514462D0,-3.917017878377D0,8.212433520101D-1,                 61P     84
2.374217518073D0,-4.144657083164D0,4.217067633951D-1,                 61P     85
2.275629793175D0,-4.375329640152D0,1.422376430636D-1,                 61P     86
2.190146957780D0,-4.536681212005D0,0D0,2.142734410092D0,              61P     87
-4.618802153517D0,0D0,1D0,0D0,0D0,1D0;                                61P     88
126,7,3,0,0,1,0,0D0,0D0,0D0,0D0,2D-1,4D-1,6D-1,8D-1,1D0,1D0,1D0,      63P     89
1D0,1D0,1D0,1D0,1D0,1D0,1D0,1D0,1D0,2.000000000089D0,                 63P     90
-2.500000000003D0,-3.464101615087D0,1.869261275424D0,                 63P     91
-2.500000000003D0,-3.539583652966D0,1.607621723067D0,                 63P     92
-2.490083373730D0,-3.690641318949D0,1.215526020496D0,                 63P     93
-2.446129514462D0,-3.917017878377D0,8.212433520101D-1,                63P     94
-2.374217518073D0,-4.144657083164D0,4.217067633951D-1,                63P     95
-2.275629793175D0,-4.375329640152D0,1.422376430636D-1,                63P     96
-2.190146957780D0,-4.536681212005D0,0D0,-2.142734410092D0,            63P     97
-4.618802153517D0,0D0,1D0,0D0,0D0,1D0;                                63P     98
126,7,3,0,0,1,0,0D0,0D0,0D0,0D0,2D-1,4D-1,6D-1,8D-1,1D0,1D0,1D0,      65P     99
1D0,1D0,1D0,1D0,1D0,1D0,1D0,1D0,1D0,4D0,-2.142734410092D0,            65P    100
-2.309401076759D0,3.857773182646D0,-2.190143349210D0,                 65P    101
-2.391515768044D0,3.578309595384D0,-2.275627451500D0,                 65P    102
-2.552864145378D0,3.178613940323D0,-2.374250290592D0,                 65P    103
-2.783628539422D0,2.784346832036D0,-2.446147241036D0,                 65P    104
-3.011258760524D0,2.392288278694D0,-2.490088886129D0,                 65P    105
-3.237613871834D0,2.130704481442D0,-2.500000000003D0,                 65P    106
-3.388639347593D0,2.000000000089D0,-2.500000000003D0,                 65P    107
-3.464101615087D0,0D0,1D0,0D0,0D0,1D0;                                65P    108
110,4D0,-2.142734410092D0,-2.309401076759D0,4D0,                      67P    109
2.142734410092D0,-2.309401076759D0;                                   67P    110
126,7,3,0,0,1,0,0D0,0D0,0D0,0D0,2D-1,4D-1,6D-1,8D-1,1D0,1D0,1D0,      69P    111
1D0,1D0,1D0,1D0,1D0,1D0,1D0,1D0,1D0,0D0,2.142734410092D0,             69P    112
-4.618802153517D0,-1.422268173540D-1,2.190143349210D0,                69P    113
-4.536687462232D0,-4.216904046157D-1,2.275627451500D0,                69P    114
-4.375339084897D0,-8.213860596769D-1,2.374250290592D0,                69P    115
-4.144574690854D0,-1.215653167964D0,2.446147241036D0,                 69P    116
-3.916944469752D0,-1.607711721307D0,2.490088886129D0,                 69P    117
-3.690589358441D0,-1.869295518557D0,2.500000000003D0,                 69P    118
-3.539563882684D0,-1.999999999910D0,2.500000000003D0,                 69P    119
-3.464101615190D0,0D0,1D0,0D0,0D0,1D0;                                69P    120
126,7,3,0,0,1,0,0D0,0D0,0D0,0D0,2D-1,4D-1,6D-1,8D-1,1D0,1D0,1D0,      71P    121
1D0,1D0,1D0,1D0,1D0,1D0,1D0,1D0,1D0,-1.999999999910D0,                71P    122
2.500000000003D0,-3.464101615190D0,-2.130738724575D0,                 71P    123
2.500000000003D0,-3.388619577312D0,-2.392378276934D0,                 71P    124
2.490083373730D0,-3.237561911326D0,-2.784473979504D0,                 71P    125
2.446129514462D0,-3.011185351899D0,-3.178756647990D0,                 71P    126
2.374217518073D0,-2.783546147112D0,-3.578293236605D0,                 71P    127
2.275629793175D0,-2.552873590124D0,-3.857762356936D0,                 71P    128
2.190146957780D0,-2.391522018270D0,-4D0,2.142734410092D0,             71P    129
-2.309401076759D0,0D0,1D0,0D0,0D0,1D0;                                71P    130
126,7,3,0,0,1,0,0D0,0D0,0D0,0D0,2D-1,4D-1,6D-1,8D-1,1D0,1D0,1D0,      73P    131
1D0,1D0,1D0,1D0,1D0,1D0,1D0,1D0,1D0,-1.999999999910D0,                73P    132
-2.500000000003D0,-3.464101615190D0,-2.130738724575D0,                73P    133
-2.500000000003D0,-3.388619577312D0,-2.392378276934D0,                73P    134
-2.490083373730D0,-3.237561911326D0,-2.784473979504D0,                73P    135
-2.446129514462D0,-3.011185351899D0,-3.178756647990D0,                73P    136
-2.374217518073D0,-2.783546147112D0,-3.578293236605D0,                73P    137
-2.275629793175D0,-2.552873590124D0,-3.857762356936D0,                73P    138
-2.190146957780D0,-2.391522018270D0,-4D0,-2.142734410092D0,           73P    139
-2.309401076759D0,0D0,1D0,0D0,0D0,1D0;                                73P    140
126,7,3,0,0,1,0,0D0,0D0,0D0,0D0,2D-1,4D-1,6D-1,8D-1,1D0,1D0,1D0,      75P    141
1D0,1D0,1D0,1D0,1D0,1D0,1D0,1D0,1D0,0D0,-2.142734410092D0,            75P    142
-4.618802153517D0,-1.422268173540D-1,-2.190143349210D0,               75P    143
-4.536687462232D0,-4.216904046157D-1,-2.275627451500D0,               75P    144
-4.375339084897D0,-8.213860596769D-1,-2.374250290592D0,               75P    145
-4.144574690854D0,-1.215653167964D0,-2.446147241036D0,                75P    146
-3.916944469752D0,-1.607711721307D0,-2.490088886129D0,                75P    147
-3.690589358441D0,-1.869295518557D0,-2.500000000003D0,                75P    148
-3.539563882684D0,-1.999999999910D0,-2.500000000003D0,                75P    149
-3.464101615190D0,0D0,1D0,0D0,0D0,1D0;                                75P    150
110,0D0,-2.142734410092D0,-4.618802153517D0,0D0,                      77P    151
2.142734410092D0,-4.618802153517D0;                                   77P    152
126,7,3,0,0,1,0,0D0,0D0,0D0,0D0,2D-1,4D-1,6D-1,8D-1,1D0,1D0,1D0,      79P    153
1D0,1D0,1D0,1D0,1D0,1D0,1D0,1D0,1D0,-4D0,2.142734410092D0,            79P    154
-2.309401076759D0,-4D0,2.189780296780D0,-2.146429344697D0,-4D0,       79P    155
2.274825941119D0,-1.825673281796D0,-4D0,2.373489226365D0,             79P    156
-1.364998666488D0,-4D0,2.445708548890D0,-9.092713637637D-1,           79P    157
-3.999999999999D0,2.489994405011D0,-4.550082292989D-1,                79P    158
-4.000000000001D0,2.499999999990D0,-1.516703160964D-1,                79P    159
-4.000000000001D0,2.500000000006D0,-1.835880336644D-10,0D0,1D0,       79P    160
0D0,0D0,1D0;                                                          79P    161
126,7,3,0,0,1,0,0D0,0D0,0D0,0D0,2D-1,4D-1,6D-1,8D-1,1D0,1D0,1D0,      81P    162
1D0,1D0,1D0,1D0,1D0,1D0,1D0,1D0,1D0,-4.000000000001D0,                81P    163
2.500000000006D0,-1.835880336644D-10,-4.000000000001D0,               81P    164
2.500000000006D0,1.525677599243D-1,-3.999999999999D0,                 81P    165
2.489879739501D0,4.574579207198D-1,-4D0,2.445178868726D0,             81P    166
9.135859500161D-1,-4D0,2.372562827564D0,1.369921714888D0,-4D0,        81P    167
2.273844821790D0,1.829584358125D0,-4D0,2.189335668592D0,              81P    168
2.147969581922D0,-4D0,2.142734410092D0,2.309401076759D0,0D0,1D0,      81P    169
0D0,0D0,1D0;                                                          81P    170
126,7,3,0,0,1,0,0D0,0D0,0D0,0D0,2D-1,4D-1,6D-1,8D-1,1D0,1D0,1D0,      83P    171
1D0,1D0,1D0,1D0,1D0,1D0,1D0,1D0,1D0,-4.000000000001D0,                83P    172
-2.500000000006D0,6.704636844473D-13,-4.000000000001D0,               83P    173
-2.500000000006D0,1.525677601086D-1,-3.999999999999D0,                83P    174
-2.489879739501D0,4.574579206343D-1,-4D0,-2.445178868725D0,           83P    175
9.135859500390D-1,-4D0,-2.372562827564D0,1.369921714882D0,-4D0,       83P    176
-2.273844821790D0,1.829584358127D0,-4D0,-2.189335668592D0,            83P    177
2.147969581922D0,-4D0,-2.142734410092D0,2.309401076759D0,0D0,         83P    178
1D0,0D0,0D0,1D0;                                                      83P    179
126,7,3,0,0,1,0,0D0,0D0,0D0,0D0,2D-1,4D-1,6D-1,8D-1,1D0,1D0,1D0,      85P    180
1D0,1D0,1D0,1D0,1D0,1D0,1D0,1D0,1D0,-4D0,-2.142734410092D0,           85P    181
-2.309401076759D0,-4D0,-2.189780296780D0,-2.146429344697D0,-4D0,      85P    182
-2.274825941119D0,-1.825673281794D0,-4D0,-2.373489226364D0,           85P    183
-1.364998666494D0,-4D0,-2.445708548892D0,-9.092713637408D-1,          85P    184
-3.999999999999D0,-2.489994405003D0,-4.550082293844D-1,               85P    185
-4.000000000001D0,-2.500000000006D0,-1.516703159122D-1,               85P    186
-4.000000000001D0,-2.500000000006D0,6.704636844473D-13,0D0,1D0,       85P    187
0D0,0D0,1D0;                                                          85P    188
110,-4D0,-2.142734410092D0,-2.309401076759D0,-4D0,                    87P    189
2.142734410092D0,-2.309401076759D0;                                   87P    190
126,7,3,0,0,1,0,0D0,0D0,0D0,0D0,2D-1,4D-1,6D-1,8D-1,1D0,1D0,1D0,      89P    191
1D0,1D0,1D0,1D0,1D0,1D0,1D0,1D0,1D0,-4D0,2.142734410092D0,            89P    192
2.309401076759D0,-3.857773182646D0,2.190143349210D0,                  89P    193
2.391515768044D0,-3.578309595384D0,2.275627451500D0,                  89P    194
2.552864145378D0,-3.178613940323D0,2.374250290592D0,                  89P    195
2.783628539422D0,-2.784346832036D0,2.446147241036D0,                  89P    196
3.011258760524D0,-2.392288278694D0,2.490088886129D0,                  89P    197
3.237613871834D0,-2.130704481442D0,2.500000000003D0,                  89P    198
3.388639347593D0,-2.000000000089D0,2.500000000003D0,                  89P    199
3.464101615087D0,0D0,1D0,0D0,0D0,1D0;                                 89P    200
126,7,3,0,0,1,0,0D0,0D0,0D0,0D0,2D-1,4D-1,6D-1,8D-1,1D0,1D0,1D0,      91P    201
1D0,1D0,1D0,1D0,1D0,1D0,1D0,1D0,1D0,-2.000000000089D0,                91P    202
2.500000000003D0,3.464101615087D0,-1.869261275424D0,                  91P    203
2.500000000003D0,3.539583652966D0,-1.607621723067D0,                  91P    204
2.490083373730D0,3.690641318949D0,-1.215526020496D0,                  91P    205
2.446129514462D0,3.917017878377D0,-8.212433520101D-1,                 91P    206
2.374217518073D0,4.144657083164D0,-4.217067633951D-1,                 91P    207
2.275629793175D0,4.375329640152D0,-1.422376430636D-1,                 91P    208
2.190146957780D0,4.536681212005D0,0D0,2.142734410092D0,               91P    209
4.618802153517D0,0D0,1D0,0D0,0D0,1D0;                                 91P    210
126,7,3,0,0,1,0,0D0,0D0,0D0,0D0,2D-1,4D-1,6D-1,8D-1,1D0,1D0,1D0,      93P    211
1D0,1D0,1D0,1D0,1D0,1D0,1D0,1D0,1D0,-2.000000000089D0,                93P    212
-2.500000000003D0,3.464101615087D0,-1.869261275424D0,                 93P    213
-2.500000000003D0,3.539583652966D0,-1.607621723067D0,                 93P    214
-2.490083373730D0,3.690641318949D0,-1.215526020496D0,                 93P    215
-2.446129514462D0,3.917017878377D0,-8.212433520101D-1,                93P    216
-2.374217518073D0,4.144657083164D0,-4.217067633951D-1,                93P    217
-2.275629793175D0,4.375329640152D0,-1.422376430636D-1,                93P    218
-2.190146957780D0,4.536681212005D0,0D0,-2.142734410092D0,             93P    219
4.618802153517D0,0D0,1D0,0D0,0D0,1D0;                                 93P    220
126,7,3,0,0,1,0,0D0,0D0,0D0,0D0,2D-1,4D-1,6D-1,8D-1,1D0,1D0,1D0,      95P    221
1D0,1D0,1D0,1D0,1D0,1D0,1D0,1D0,1D0,-4D0,-2.142734410092D0,           95P    222
2.309401076759D0,-3.857773182646D0,-2.190143349210D0,                 95P    223
2.391515768044D0,-3.578309595384D0,-2.275627451500D0,                 95P    224
2.552864145378D0,-3.178613940323D0,-2.374250290592D0,                 95P    225
2.783628539422D0,-2.784346832036D0,-2.446147241036D0,                 95P    226
3.011258760524D0,-2.392288278694D0,-2.490088886129D0,                 95P    227
3.237613871834D0,-2.130704481442D0,-2.500000000003D0,                 95P    228
3.388639347593D0,-2.000000000089D0,-2.500000000003D0,                 95P    229
3.464101615087D0,0D0,1D0,0D0,0D0,1D0;                                 95P    230
110,-4D0,-2.142734410092D0,2.309401076759D0,-4D0,                     97P    231
2.142734410092D0,2.309401076759D0;                                    97P    232
126,7,3,0,0,1,0,0D0,0D0,0D0,0D0,2D-1,4D-1,6D-1,8D-1,1D0,1D0,1D0,      99P    233
1D0,1D0,1D0,1D0,1D0,1D0,1D0,1D0,1D0,0D0,2.142734410092D0,             99P    234
4.618802153517D0,1.422268173540D-1,2.190143349210D0,                  99P    235
4.536687462232D0,4.216904046157D-1,2.275627451500D0,                  99P    236
4.375339084897D0,8.213860596769D-1,2.374250290592D0,                  99P    237
4.144574690854D0,1.215653167964D0,2.446147241036D0,                   99P    238
3.916944469752D0,1.607711721307D0,2.490088886129D0,                   99P    239
3.690589358441D0,1.869295518557D0,2.500000000003D0,                   99P    240
3.539563882684D0,1.999999999910D0,2.500000000003D0,                   99P    241
3.464101615190D0,0D0,1D0,0D0,0D0,1D0;                                 99P    242
126,7,3,0,0,1,0,0D0,0D0,0D0,0D0,2D-1,4D-1,6D-1,8D-1,1D0,1D0,1D0,     101P    243
1D0,1D0,1D0,1D0,1D0,1D0,1D0,1D0,1D0,1.999999999910D0,                101P    244
2.500000000003D0,3.464101615190D0,2.130738724575D0,                  101P    245
2.500000000003D0,3.388619577312D0,2.392378276934D0,                  101P    246
2.490083373730D0,3.237561911326D0,2.784473979504D0,                  101P    247
2.446129514462D0,3.011185351899D0,3.178756647990D0,                  101P    248
2.374217518073D0,2.783546147112D0,3.578293236605D0,                  101P    249
2.275629793175D0,2.552873590124D0,3.857762356936D0,                  101P    250
2.190146957780D0,2.391522018270D0,4D0,2.142734410092D0,              101P    251
2.309401076759D0,0D0,1D0,0D0,0D0,1D0;                                101P    252
126,7,3,0,0,1,0,0D0,0D0,0D0,0D0,2D-1,4D-1,6D-1,8D-1,1D0,1D0,1D0,     103P    253
1D0,1D0,1D0,1D0,1D0,1D0,1D0,1D0,1D0,1.999999999910D0,                103P    254
-2.500000000003D0,3.464101615190D0,2.130738724575D0,                 103P    255
-2.500000000003D0,3.388619577312D0,2.392378276934D0,                 103P    256
-2.490083373730D0,3.237561911326D0,2.784473979504D0,                 103P    257
-2.446129514462D0,3.011185351899D0,3.178756647990D0,                 103P    258
-2.374217518073D0,2.783546147112D0,3.578293236605D0,                 103P    259
-2.275629793175D0,2.552873590124D0,3.857762356936D0,                 103P    260
-2.190146957780D0,2.391522018270D0,4D0,-2.142734410092D0,            103P    261
2.309401076759D0,0D0,1D0,0D0,0D0,1D0;                                103P    262
126,7,3,0,0,1,0,0D0,0D0,0D0,0D0,2D-1,4D-1,6D-1,8D-1,1D0,1D0,1D0,     105P    263
1D0,1D0,1D0,1D0,1D0,1D0,1D0,1D0,1D0,0D0,-2.142734410092D0,           105P    264
4.618802153517D0,1.422268173540D-1,-2.190143349210D0,                105P    265
4.536687462232D0,4.216904046157D-1,-2.275627451500D0,                105P    266
4.375339084897D0,8.213860596769D-1,-2.374250290592D0,                105P    267
4.144574690854D0,1.215653167964D0,-2.446147241036D0,                 105P    268
3.916944469752D0,1.607711721307D0,-2.490088886129D0,                 105P    269
3.690589358441D0,1.869295518557D0,-2.500000000003D0,                 105P    270
3.539563882684D0,1.999999999910D0,-2.500000000003D0,                 105P    271
3.464101615190D0,0D0,1D0,0D0,0D0,1D0;                                105P    272
110,0D0,-2.142734410092D0,4.618802153517D0,0D0,2.142734410092D0,     107P    273
4.618802153517D0;                                                    107P    274
124,1D0,0D0,0D0,0D0,0D0,0D0,1D0,2.5D0,0D0,-1D0,0D0,0D0;              109P    275
100,0D0,0D0,0D0,4D0,0D0,2.000000000025D0,3.464101615123D0;           111P    276
124,4.999999999921D-1,8.660254037890D-1,0D0,0D0,0D0,0D0,1D0,         113P    277
2.5D0,8.660254037890D-1,-4.999999999921D-1,0D0,0D0;                  113P    278
100,0D0,0D0,0D0,4D0,0D0,1.999999999968D0,3.464101615156D0;           115P    279
124,-5.000000000063D-1,8.660254037808D-1,0D0,0D0,0D0,0D0,1D0,        117P    280
2.5D0,8.660254037808D-1,5.000000000063D-1,0D0,0D0;                   117P    281
100,0D0,0D0,0D0,4D0,0D0,2.000000000006D0,3.464101615134D0;           119P    282
124,-1D0,0D0,0D0,0D0,0D0,0D0,1D0,2.5D0,0D0,1D0,0D0,0D0;              121P    283
100,0D0,0D0,0D0,4D0,0D0,2.000000000025D0,3.464101615123D0;           123P    284
124,-4.999999999921D-1,-8.660254037890D-1,0D0,0D0,0D0,0D0,1D0,       125P    285
2.5D0,-8.660254037890D-1,4.999999999921D-1,0D0,0D0;                  125P    286
100,0D0,0D0,0D0,4D0,0D0,1.999999999968D0,3.464101615156D0;           127P    287
124,5.000000000063D-1,-8.660254037808D-1,0D0,0D0,0D0,0D0,1D0,        129P    288
2.5D0,-8.660254037808D-1,-5.000000000063D-1,0D0,0D0;                 129P    289
100,0D0,0D0,0D0,4D0,0D0,2.000000000006D0,3.464101615134D0;           131P    290
124,-1D0,0D0,0D0,0D0,0D0,0D0,-1D0,2.499998913713D0,0D0,-1D0,0D0,     133P    291
0D0;                                                                 133P    292
100,0D0,0D0,0D0,2.599999572360D0,0D0,-2.599999572360D0,0D0;          135P    293
124,1D0,0D0,0D0,0D0,0D0,0D0,-1D0,2.499998913713D0,0D0,1D0,0D0,       137P    294
0D0;                                                                 137P    295
100,0D0,0D0,0D0,2.599999572360D0,0D0,-2.599999572360D0,0D0;          139P    296
110,-2.600000242225D0,2.499999580256D0,5.917037685784D-10,           141P    297
-2.100000146732D0,2.211324611137D0,3.584362275295D-10;               141P    298
110,2.600000242225D0,2.499999580256D0,-5.917049355487D-10,           143P    299
2.100000146732D0,2.211324611137D0,-3.584367548855D-10;               143P    300
124,1D0,0D0,0D0,0D0,0D0,0D0,-1D0,2.211325362869D0,0D0,1D0,0D0,       145P    301
0D0;                                                                 145P    302
100,0D0,0D0,0D0,2.1D0,0D0,-2.1D0,0D0;                                147P    303
110,-2.100000146732D0,-2.211324611137D0,3.584369297457D-10,          149P    304
-2.100000146732D0,2.211324611137D0,3.584362275295D-10;               149P    305
124,-1D0,0D0,0D0,0D0,0D0,0D0,1D0,-2.211325362869D0,0D0,1D0,0D0,      151P    306
0D0;                                                                 151P    307
100,0D0,0D0,0D0,2.1D0,0D0,-2.1D0,0D0;                                153P    308
110,2.100000146732D0,-2.211324611137D0,-3.584366355365D-10,          155P    309
2.100000146732D0,2.211324611137D0,-3.584367548855D-10;               155P    310
124,-1D0,0D0,0D0,0D0,0D0,0D0,-1D0,2.211325362869D0,0D0,-1D0,0D0,     157P    311
0D0;                                                                 157P    312
100,0D0,0D0,0D0,2.1D0,0D0,-2.1D0,0D0;                                159P    313
124,1D0,0D0,0D0,0D0,0D0,0D0,1D0,-2.211325362869D0,0D0,-1D0,0D0,      161P    314
0D0;                                                                 161P    315
100,0D0,0D0,0D0,2.1D0,0D0,-2.1D0,0D0;                                163P    316
110,2.600000242225D0,-2.499999580256D0,-5.917046283869D-10,          165P    317
2.100000146732D0,-2.211324611137D0,-3.584366355365D-10;              165P    318
110,-2.600000242225D0,-2.499999580256D0,5.917050379806D-10,          167P    319
-2.100000146732D0,-2.211324611137D0,3.584369297457D-10;              167P    320
502,32,4D0,2.5D0,0D0,2.000000000025D0,2.5D0,-3.464101615123D0,       169P    321
-1.999999999968D0,2.5D0,-3.464101615156D0,-4D0,2.5D0,0D0,            169P    322
-2.000000000025D0,2.5D0,3.464101615123D0,1.999999999968D0,2.5D0,     169P    323
3.464101615156D0,-4D0,2.142734410092D0,2.309401076759D0,0D0,         169P    324
2.142734410092D0,4.618802153517D0,4D0,2.142734410092D0,              169P    325
2.309401076759D0,4D0,2.142734410092D0,-2.309401076759D0,0D0,         169P    326
2.142734410092D0,-4.618802153517D0,-4D0,2.142734410092D0,            169P    327
-2.309401076759D0,-4D0,-2.142734410092D0,2.309401076759D0,0D0,       169P    328
-2.142734410092D0,4.618802153517D0,4D0,-2.142734410092D0,            169P    329
2.309401076759D0,4D0,-2.142734410092D0,-2.309401076759D0,0D0,        169P    330
-2.142734410092D0,-4.618802153517D0,-4D0,-2.142734410092D0,          169P    331
-2.309401076759D0,4D0,-2.5D0,0D0,2.000000000025D0,-2.5D0,            169P    332
-3.464101615123D0,-1.999999999968D0,-2.5D0,-3.464101615156D0,        169P    333
-4D0,-2.5D0,0D0,-2.000000000025D0,-2.5D0,3.464101615123D0,           169P    334
1.999999999968D0,-2.5D0,3.464101615156D0,-2.599999572360D0,          169P    335
2.499998913713D0,0D0,2.599999572360D0,2.499998913713D0,0D0,          169P    336
-2.1D0,2.211325362869D0,0D0,2.1D0,2.211325362869D0,0D0,              169P    337
-2.599999572360D0,-2.499998913713D0,0D0,2.599999572360D0,            169P    338
-2.499998913713D0,0D0,-2.1D0,-2.211325362869D0,0D0,2.1D0,            169P    339
-2.211325362869D0,0D0;                                               169P    340
504,56,111,169,1,169,2,131,169,2,169,3,127,169,3,169,4,123,169,      171P    341
4,169,5,119,169,5,169,6,115,169,6,169,1,89,169,7,169,5,91,169,5,     171P    342
169,8,99,169,8,169,6,101,169,6,169,9,49,169,1,169,10,57,169,9,       171P    343
169,1,59,169,10,169,2,61,169,2,169,11,69,169,11,169,3,71,169,3,      171P    344
169,12,79,169,12,169,4,81,169,4,169,7,97,169,13,169,7,107,169,       171P    345
14,169,8,55,169,15,169,9,67,169,16,169,10,77,169,17,169,11,87,       171P    346
169,18,169,12,19,169,19,169,20,23,169,20,169,21,27,169,21,169,       171P    347
22,31,169,22,169,23,35,169,23,169,24,39,169,24,169,19,95,169,13,     171P    348
169,23,93,169,23,169,14,105,169,14,169,24,103,169,24,169,15,51,      171P    349
169,19,169,16,53,169,15,169,19,65,169,16,169,20,63,169,20,169,       171P    350
17,75,169,17,169,21,73,169,21,169,18,85,169,18,169,22,83,169,22,     171P    351
169,13,135,169,25,169,26,159,169,27,169,28,139,169,26,169,25,        171P    352
147,169,28,169,27,43,169,29,169,30,153,169,31,169,32,47,169,30,      171P    353
169,29,163,169,32,169,31,155,169,32,169,28,149,169,31,169,27,        171P    354
143,169,26,169,28,141,169,25,169,27,165,169,30,169,32,167,169,       171P    355
29,169,31;                                                           171P    356
128,1,1,1,1,0,0,1,0,0,-4.16D0,-4.16D0,4.16D0,4.16D0,                 173P    357
-4.160000000005D0,-4.160000000005D0,4.160000000005D0,                173P    358
4.160000000005D0,1D0,1D0,1D0,1D0,4.160000000005D0,-2.5D0,4.16D0,     173P    359
4.160000000005D0,-2.5D0,-4.16D0,-4.160000000005D0,-2.5D0,4.16D0,     173P    360
-4.160000000005D0,-2.5D0,-4.16D0,-4.16D0,4.16D0,                     173P    361
-4.160000000005D0,4.160000000005D0;                                  173P    362
508,6,0,171,25,1,0,0,171,26,1,0,0,171,27,1,0,0,171,28,1,0,0,171,     175P    363
29,1,0,0,171,30,1,0;                                                 175P    364
508,2,0,171,47,0,0,0,171,49,0,0;                                     177P    365
510,173,2,0,175,177;                                                 179P    366
110,0D0,-4.809401076759D0,0D0,0D0,-3.809401076759D0,0D0;             181P    367
110,3.985463149717D0,-2.508392854424D0,0D0,4.633339003800D0,         183P    368
-2.134341555668D0,0D0;                                               183P    369
120,181,183,-6.283185307180D-2,3.204424506662D0;                     185P    370
508,3,0,171,35,1,0,0,171,37,1,0,0,171,25,0,0;                        187P    371
510,185,1,0,187;                                                     189P    372
110,0D0,-4.809401076759D0,0D0,0D0,-3.809401076759D0,0D0;             191P    373
110,3.985463149717D0,-2.508392854424D0,0D0,4.633339003800D0,         193P    374
-2.134341555668D0,0D0;                                               193P    375
120,191,193,-6.283185307180D-2,3.204424506662D0;                     195P    376
508,3,0,171,38,1,0,0,171,39,1,0,0,171,26,0,0;                        197P    377
510,195,1,0,197;                                                     199P    378
110,0D0,-4.809401076759D0,0D0,0D0,-3.809401076759D0,0D0;             201P    379
110,3.985463149717D0,-2.508392854424D0,0D0,4.633339003800D0,         203P    380
-2.134341555668D0,0D0;                                               203P    381
120,201,203,-6.283185307180D-2,3.204424506662D0;                     205P    382
508,3,0,171,40,1,0,0,171,41,1,0,0,171,27,0,0;                        207P    383
510,205,1,0,207;                                                     209P    384
128,1,1,1,1,0,0,1,0,0,-9.237604307034D-2,-9.237604307034D-2,         211P    385
4.711178196587D0,4.711178196587D0,-1.000000000252D-1,                211P    386
-1.000000000252D-1,5.100000000025D0,5.100000000025D0,1D0,1D0,        211P    387
1D0,1D0,4D0,-2.600000000025D0,2.401777119829D0,4D0,                  211P    388
-2.600000000025D0,-2.401777119829D0,4D0,2.600000000025D0,            211P    389
2.401777119829D0,4D0,2.600000000025D0,-2.401777119829D0,             211P    390
-9.237604307034D-2,4.711178196587D0,-1.000000000252D-1,              211P    391
5.100000000025D0;                                                    211P    392
508,6,0,171,11,1,0,0,171,22,0,0,0,171,35,0,0,0,171,36,0,0,0,171,     213P    393
21,1,0,0,171,12,1,0;                                                 213P    394
510,211,1,0,213;                                                     215P    395
110,0D0,4.809401076759D0,0D0,0D0,5.809401076759D0,0D0;               217P    396
110,4.633339003800D0,2.134341555668D0,0D0,3.985463149717D0,          219P    397
2.508392854424D0,0D0;                                                219P    398
120,217,219,-6.283185306811D-2,3.204424506474D0;                     221P    399
508,3,0,171,13,0,0,0,171,11,0,0,0,171,1,1,0;                         223P    400
510,221,1,0,223;                                                     225P    401
110,0D0,4.809401076759D0,0D0,0D0,5.809401076759D0,0D0;               227P    402
110,4.633339003800D0,2.134341555668D0,0D0,3.985463149717D0,          229P    403
2.508392854424D0,0D0;                                                229P    404
120,227,229,-6.283185306811D-2,3.204424506474D0;                     231P    405
508,3,0,171,15,0,0,0,171,14,0,0,0,171,2,1,0;                         233P    406
510,231,1,0,233;                                                     235P    407
110,0D0,4.809401076759D0,0D0,0D0,5.809401076759D0,0D0;               237P    408
110,4.633339003800D0,2.134341555668D0,0D0,3.985463149717D0,          239P    409
2.508392854424D0,0D0;                                                239P    410
120,237,239,-6.283185306811D-2,3.204424506474D0;                     241P    411
508,3,0,171,17,0,0,0,171,16,0,0,0,171,3,1,0;                         243P    412
510,241,1,0,243;                                                     245P    413
128,1,1,1,1,0,0,1,0,0,-9.237604307034D-2,-9.237604307034D-2,         247P    414
4.711178196587D0,4.711178196587D0,-1.000000000129D-1,                247P    415
-1.000000000129D-1,5.100000000013D0,5.100000000013D0,1D0,1D0,        247P    416
1D0,1D0,4.08D0,-2.600000000013D0,-2.263213055223D0,-8D-2,            247P    417
-2.600000000013D0,-4.664990175052D0,4.08D0,2.600000000013D0,         247P    418
-2.263213055223D0,-8D-2,2.600000000013D0,-4.664990175052D0,          247P    419
-9.237604307034D-2,4.711178196587D0,-1.000000000129D-1,              247P    420
5.100000000013D0;                                                    247P    421
508,6,0,171,13,1,0,0,171,14,1,0,0,171,23,0,0,0,171,38,0,0,0,171,     249P    422
37,0,0,0,171,22,1,0;                                                 249P    423
510,247,1,0,249;                                                     251P    424
128,1,1,1,1,0,0,1,0,0,-9.237604307034D-2,-9.237604307034D-2,         253P    425
4.711178196587D0,4.711178196587D0,-1.000000000129D-1,                253P    426
-1.000000000129D-1,5.100000000013D0,5.100000000013D0,1D0,1D0,        253P    427
1D0,1D0,8D-2,-2.600000000013D0,-4.664990175052D0,-4.08D0,            253P    428
-2.600000000013D0,-2.263213055223D0,8D-2,2.600000000013D0,           253P    429
-4.664990175052D0,-4.08D0,2.600000000013D0,-2.263213055223D0,        253P    430
-9.237604307034D-2,4.711178196587D0,-1.000000000129D-1,              253P    431
5.100000000013D0;                                                    253P    432
508,6,0,171,15,1,0,0,171,16,1,0,0,171,24,0,0,0,171,40,0,0,0,171,     255P    433
39,0,0,0,171,23,1,0;                                                 255P    434
510,253,1,0,255;                                                     257P    435
128,1,1,1,1,0,0,1,0,0,-9.237604307034D-2,-9.237604307034D-2,         259P    436
4.711178196587D0,4.711178196587D0,-1.000000000252D-1,                259P    437
-1.000000000252D-1,5.100000000025D0,5.100000000025D0,1D0,1D0,        259P    438
1D0,1D0,-4D0,-2.600000000025D0,-2.401777119829D0,-4D0,               259P    439
-2.600000000025D0,2.401777119829D0,-4D0,2.600000000025D0,            259P    440
-2.401777119829D0,-4D0,2.600000000025D0,2.401777119829D0,            259P    441
-9.237604307034D-2,4.711178196587D0,-1.000000000252D-1,              259P    442
5.100000000025D0;                                                    259P    443
508,6,0,171,17,1,0,0,171,18,1,0,0,171,19,0,0,0,171,42,0,0,0,171,     261P    444
41,0,0,0,171,24,1,0;                                                 261P    445
510,259,1,0,261;                                                     263P    446
110,0D0,4.809401076759D0,0D0,0D0,5.809401076759D0,0D0;               265P    447
110,4.633339003800D0,2.134341555668D0,0D0,3.985463149717D0,          267P    448
2.508392854424D0,0D0;                                                267P    449
120,265,267,-3.204424506658D0,6.283185288385D-2;                     269P    450
508,3,0,171,7,0,0,0,171,18,0,0,0,171,4,1,0;                          271P    451
510,269,1,0,271;                                                     273P    452
110,0D0,4.809401076759D0,0D0,0D0,5.809401076759D0,0D0;               275P    453
110,4.633339003800D0,2.134341555668D0,0D0,3.985463149717D0,          277P    454
2.508392854424D0,0D0;                                                277P    455
120,275,277,-3.204424506658D0,6.283185288385D-2;                     279P    456
508,3,0,171,9,0,0,0,171,8,0,0,0,171,5,1,0;                           281P    457
510,279,1,0,281;                                                     283P    458
110,0D0,4.809401076759D0,0D0,0D0,5.809401076759D0,0D0;               285P    459
110,4.633339003800D0,2.134341555668D0,0D0,3.985463149717D0,          287P    460
2.508392854424D0,0D0;                                                287P    461
120,285,287,-3.204424506658D0,6.283185288385D-2;                     289P    462
508,3,0,171,12,0,0,0,171,10,0,0,0,171,6,1,0;                         291P    463
510,289,1,0,291;                                                     293P    464
128,1,1,1,1,0,0,1,0,0,-9.237604307034D-2,-9.237604307034D-2,         295P    465
4.711178196587D0,4.711178196587D0,-1.000000000129D-1,                295P    466
-1.000000000129D-1,5.100000000013D0,5.100000000013D0,1D0,1D0,        295P    467
1D0,1D0,-4.08D0,-2.600000000013D0,2.263213055223D0,8D-2,             295P    468
-2.600000000013D0,4.664990175052D0,-4.08D0,2.600000000013D0,         295P    469
2.263213055223D0,8D-2,2.600000000013D0,4.664990175052D0,             295P    470
-9.237604307034D-2,4.711178196587D0,-1.000000000129D-1,              295P    471
5.100000000013D0;                                                    295P    472
508,6,0,171,7,1,0,0,171,8,1,0,0,171,20,0,0,0,171,32,0,0,0,171,       297P    473
31,0,0,0,171,19,1,0;                                                 297P    474
510,295,1,0,297;                                                     299P    475
128,1,1,1,1,0,0,1,0,0,-9.237604307034D-2,-9.237604307034D-2,         301P    476
4.711178196587D0,4.711178196587D0,-1.000000000129D-1,                301P    477
-1.000000000129D-1,5.100000000013D0,5.100000000013D0,1D0,1D0,        301P    478
1D0,1D0,-8D-2,-2.600000000013D0,4.664990175052D0,4.08D0,             301P    479
-2.600000000013D0,2.263213055223D0,-8D-2,2.600000000013D0,           301P    480
4.664990175052D0,4.08D0,2.600000000013D0,2.263213055223D0,           301P    481
-9.237604307034D-2,4.711178196587D0,-1.000000000129D-1,              301P    482
5.100000000013D0;                                                    301P    483
508,6,0,171,9,1,0,0,171,10,1,0,0,171,21,0,0,0,171,34,0,0,0,171,      303P    484
33,0,0,0,171,20,1,0;                                                 303P    485
510,301,1,0,303;                                                     305P    486
110,0D0,-4.809401076759D0,0D0,0D0,-3.809401076759D0,0D0;             307P    487
110,3.985463149717D0,-2.508392854424D0,0D0,4.633339003800D0,         309P    488
-2.134341555668D0,0D0;                                               309P    489
120,307,309,-3.204424506662D0,6.283185307180D-2;                     311P    490
508,3,0,171,42,1,0,0,171,31,1,0,0,171,28,0,0;                        313P    491
510,311,1,0,313;                                                     315P    492
110,0D0,-4.809401076759D0,0D0,0D0,-3.809401076759D0,0D0;             317P    493
110,3.985463149717D0,-2.508392854424D0,0D0,4.633339003800D0,         319P    494
-2.134341555668D0,0D0;                                               319P    495
120,317,319,-3.204424506662D0,6.283185307180D-2;                     321P    496
508,3,0,171,32,1,0,0,171,33,1,0,0,171,29,0,0;                        323P    497
510,321,1,0,323;                                                     325P    498
110,0D0,-4.809401076759D0,0D0,0D0,-3.809401076759D0,0D0;             327P    499
110,3.985463149717D0,-2.508392854424D0,0D0,4.633339003800D0,         329P    500
-2.134341555668D0,0D0;                                               329P    501
120,327,329,-3.204424506662D0,6.283185307180D-2;                     331P    502
508,3,0,171,34,1,0,0,171,36,1,0,0,171,30,0,0;                        333P    503
510,331,1,0,333;                                                     335P    504
128,1,1,1,1,0,0,1,0,0,-4.16D0,-4.16D0,4.16D0,4.16D0,                 337P    505
-4.160000000005D0,-4.160000000005D0,4.160000000005D0,                337P    506
4.160000000005D0,1D0,1D0,1D0,1D0,4.160000000005D0,2.5D0,4.16D0,      337P    507
4.160000000005D0,2.5D0,-4.16D0,-4.160000000005D0,2.5D0,4.16D0,       337P    508
-4.160000000005D0,2.5D0,-4.16D0,-4.16D0,4.16D0,                      337P    509
-4.160000000005D0,4.160000000005D0;                                  337P    510
508,6,0,171,1,0,0,0,171,6,0,0,0,171,5,0,0,0,171,4,0,0,0,171,3,0,     339P    511
0,0,171,2,0,0;                                                       339P    512
508,2,0,171,43,0,0,0,171,45,0,0;                                     341P    513
510,337,2,0,339,341;                                                 343P    514
110,0D0,9.988893001070D-1,0D0,0D0,1.998889300107D0,0D0;              345P    515
110,0D0,2.202931132804D0,-2.085462794816D0,0D0,2.508393599090D0,     347P    516
-2.614539602078D0;                                                   347P    517
120,345,347,-1.633628184161D0,1.633628184844D0;                      349P    518
508,4,0,171,43,1,0,0,171,53,1,0,0,171,44,0,0,0,171,54,0,0;           351P    519
510,349,1,0,351;                                                     353P    520
110,0D0,9.988893001070D-1,0D0,0D0,1.998889300107D0,0D0;              355P    521
110,0D0,2.202931132804D0,-2.085462794816D0,0D0,2.508393599090D0,     357P    522
-2.614539602078D0;                                                   357P    523
120,355,357,1.507964469429D0,4.775220838434D0;                       359P    524
508,4,0,171,45,1,0,0,171,54,1,0,0,171,46,0,0,0,171,53,0,0;           361P    525
510,359,1,0,361;                                                     363P    526
110,0D0,-3.3025D0,0D0,0D0,-2.3025D0,0D0;                             365P    527
110,2.1D0,-2.299784111722D0,0D0,2.1D0,2.299784111722D0,0D0;          367P    528
120,365,367,-3.204424506662D0,6.283185307180D-2;                     369P    529
508,4,0,171,46,1,0,0,171,52,0,0,0,171,48,1,0,0,171,51,1,0;           371P    530
510,369,1,0,371;                                                     373P    531
110,0D0,-3.3025D0,0D0,0D0,-2.3025D0,0D0;                             375P    532
110,2.1D0,-2.299784111722D0,0D0,2.1D0,2.299784111722D0,0D0;          377P    533
120,375,377,-6.283185307180D-2,3.204424506662D0;                     379P    534
508,4,0,171,44,1,0,0,171,51,0,0,0,171,50,1,0,0,171,52,1,0;           381P    535
510,379,1,0,381;                                                     383P    536
110,0D0,-9.988893001070D-1,0D0,0D0,-1.998889300107D0,0D0;            385P    537
110,0D0,-2.202931132804D0,-2.085462794816D0,0D0,                     387P    538
-2.508393599090D0,-2.614539602078D0;                                 387P    539
120,385,387,-1.633628184844D0,1.633628184161D0;                      389P    540
508,4,0,171,49,1,0,0,171,56,1,0,0,171,50,0,0,0,171,55,0,0;           391P    541
510,389,1,0,391;                                                     393P    542
110,0D0,-9.988893001070D-1,0D0,0D0,-1.998889300107D0,0D0;            395P    543
110,0D0,-2.202931132804D0,-2.085462794816D0,0D0,                     397P    544
-2.508393599090D0,-2.614539602078D0;                                 397P    545
120,395,397,-4.775220838434D0,-1.507964469429D0;                     399P    546
508,4,0,171,47,1,0,0,171,55,1,0,0,171,48,0,0,0,171,56,0,0;           401P    547
510,399,1,0,401;                                                     403P    548
514,26,179,0,189,1,199,1,209,1,215,1,225,1,235,1,245,1,251,1,        405P    549
257,1,263,1,273,1,283,1,293,1,299,1,305,1,315,1,325,1,335,1,343,     405P    550
1,353,0,363,0,373,0,383,0,393,0,403,0;                               405P    551
124,1D0,0D0,0D0,0D0,0D0,0D0,1D0,-2.5D0,0D0,-1D0,0D0,0D0;             407P    552
100,0D0,0D0,0D0,2.5D0,0D0,-2.5D0,0D0;                                409P    553
124,-1D0,0D0,0D0,0D0,0D0,0D0,-1D0,2.5D0,0D0,-1D0,0D0,0D0;            411P    554
100,0D0,0D0,0D0,2.5D0,0D0,-2.5D0,0D0;                                413P    555
124,-1D0,0D0,0D0,0D0,0D0,0D0,1D0,-2.5D0,0D0,1D0,0D0,0D0;             415P    556
100,0D0,0D0,0D0,2.5D0,0D0,-2.5D0,0D0;                                417P    557
110,2.5D0,2.5D0,0D0,2.5D0,-2.5D0,0D0;                                419P    558
124,1D0,0D0,0D0,0D0,0D0,0D0,-1D0,2.5D0,0D0,1D0,0D0,0D0;              421P    559
100,0D0,0D0,0D0,2.5D0,0D0,-2.5D0,0D0;                                423P    560
110,-2.5D0,2.5D0,0D0,-2.5D0,-2.5D0,0D0;                              425P    561
502,4,2.5D0,-2.5D0,0D0,-2.5D0,-2.5D0,0D0,2.5D0,2.5D0,0D0,-2.5D0,     427P    562
2.5D0,0D0;                                                           427P    563
504,6,409,427,1,427,2,413,427,3,427,4,417,427,2,427,1,423,427,4,     429P    564
427,3,419,427,3,427,1,425,427,4,427,2;                               429P    565
110,0D0,-3.3025D0,0D0,0D0,-2.3025D0,0D0;                             431P    566
110,2.5D0,-2.6D0,0D0,2.5D0,2.6D0,0D0;                                433P    567
120,431,433,-6.283185307180D-2,3.204424506662D0;                     435P    568
508,4,0,429,1,1,0,0,429,6,0,0,0,429,2,0,0,0,429,5,1,0;               437P    569
510,435,1,0,437;                                                     439P    570
110,0D0,-3.3025D0,0D0,0D0,-2.3025D0,0D0;                             441P    571
110,2.5D0,-2.6D0,0D0,2.5D0,2.6D0,0D0;                                443P    572
120,441,443,-3.204424506662D0,6.283185307180D-2;                     445P    573
508,4,0,429,3,1,0,0,429,5,0,0,0,429,4,0,0,0,429,6,1,0;               447P    574
510,445,1,0,447;                                                     449P    575
514,2,439,0,449,0;                                                   451P    576
186,405,1,0;                                                         453P    577
S      1G      4D    454P    577                                        T      1
