 PTC IGES file: nut-m12-iso_4034.igs                                    S      1
1H,,1H;,16HNUT-M12-ISO_4034,20Hnut-m12-iso_4034.igs,                    G      1
49HPro/ENGINEER by Parametric Technology Corporation,7H2007160,32,38,7, G      2
38,15,16HNUT-M12-ISO_4034,1.,2,2HMM,32768,0.5,15H20111214.161430,       G      3
0.00313835,31.3847,13HVladimir Zima,7HUnknown,10,0,15H20111214.161430;  G      4
     314       1       1       1       0       0       0       001000200D      1
     314       0       4       1       0                   COLOR       1D      2
     314       2       1       1       0       0       0       001000200D      3
     314       0       1       1       0                   COLOR       2D      4
     314       3       1       1       0       0       0       001000200D      5
     314       0       1       1       0                   COLOR       3D      6
     314       4       1       1       0       0       0       001000200D      7
     314       0       1       1       0                   COLOR       4D      8
     314       5       1       1       0       0       0       001000200D      9
     314       0       8       1       0                   COLOR       5D     10
     314       6       1       1       0       0       0       001000200D     11
     314       0       8       1       0                   COLOR       6D     12
     314       7       1       1       0       0       0       001000200D     13
     314       0       5       1       0                   COLOR       7D     14
     314       8       1       1       0       0       0       001000200D     15
     314       0       8       1       0                   COLOR       8D     16
     124       9       1       1       0       0       0       001000000D     17
     124       0       0       1       0                   XFORM       1D     18
     100      10       1       1       0       0      17       001010000D     19
     100       0       0       1       0                     ARC       1D     20
     124      11       1       1       0       0       0       001000000D     21
     124       0       0       2       0                   XFORM       2D     22
     100      13       1       1       0       0      21       001010000D     23
     100       0       0       1       0                     ARC       2D     24
     124      14       1       1       0       0       0       001000000D     25
     124       0       0       2       0                   XFORM       3D     26
     100      16       1       1       0       0      25       001010000D     27
     100       0       0       1       0                     ARC       3D     28
     124      17       1       1       0       0       0       001000000D     29
     124       0       0       1       0                   XFORM       4D     30
     100      18       1       1       0       0      29       001010000D     31
     100       0       0       1       0                     ARC       4D     32
     124      19       1       1       0       0       0       001000000D     33
     124       0       0       2       0                   XFORM       5D     34
     100      21       1       1       0       0      33       001010000D     35
     100       0       0       1       0                     ARC       5D     36
     124      22       1       1       0       0       0       001000000D     37
     124       0       0       2       0                   XFORM       6D     38
     100      24       1       1       0       0      37       001010000D     39
     100       0       0       1       0                     ARC       6D     40
     124      25       1       1       0       0       0       001000000D     41
     124       0       0       2       0                   XFORM       7D     42
     100      27       1       1       0       0      41       001010000D     43
     100       0       0       1       0                     ARC       7D     44
     124      28       1       1       0       0       0       001000000D     45
     124       0       0       2       0                   XFORM       8D     46
     100      30       1       1       0       0      45       001010000D     47
     100       0       0       1       0                     ARC       8D     48
     126      31       1       1       0       0       0       001010000D     49
     126       0       0       9       0                B_SPLINE       1D     50
     126      40       1       1       0       0       0       001010000D     51
     126       0       0       9       0                B_SPLINE       2D     52
     126      49       1       1       0       0       0       001010000D     53
     126       0       0       9       0                B_SPLINE       3D     54
     110      58       1       1       0       0       0       001010000D     55
     110       0       0       2       0                    LINE       1D     56
     126      60       1       1       0       0       0       001010000D     57
     126       0       0       9       0                B_SPLINE       4D     58
     126      69       1       1       0       0       0       001010000D     59
     126       0       0      10       0                B_SPLINE       5D     60
     126      79       1       1       0       0       0       001010000D     61
     126       0       0      10       0                B_SPLINE       6D     62
     126      89       1       1       0       0       0       001010000D     63
     126       0       0      10       0                B_SPLINE       7D     64
     126      99       1       1       0       0       0       001010000D     65
     126       0       0      10       0                B_SPLINE       8D     66
     110     109       1       1       0       0       0       001010000D     67
     110       0       0       2       0                    LINE       2D     68
     126     111       1       1       0       0       0       001010000D     69
     126       0       0      10       0                B_SPLINE       9D     70
     126     121       1       1       0       0       0       001010000D     71
     126       0       0      10       0                B_SPLINE      10D     72
     126     131       1       1       0       0       0       001010000D     73
     126       0       0      10       0                B_SPLINE      11D     74
     126     141       1       1       0       0       0       001010000D     75
     126       0       0      10       0                B_SPLINE      12D     76
     110     151       1       1       0       0       0       001010000D     77
     110       0       0       2       0                    LINE       3D     78
     126     153       1       1       0       0       0       001010000D     79
     126       0       0       9       0                B_SPLINE      13D     80
     126     162       1       1       0       0       0       001010000D     81
     126       0       0       9       0                B_SPLINE      14D     82
     126     171       1       1       0       0       0       001010000D     83
     126       0       0       9       0                B_SPLINE      15D     84
     126     180       1       1       0       0       0       001010000D     85
     126       0       0       9       0                B_SPLINE      16D     86
     110     189       1       1       0       0       0       001010000D     87
     110       0       0       2       0                    LINE       4D     88
     126     191       1       1       0       0       0       001010000D     89
     126       0       0      10       0                B_SPLINE      17D     90
     126     201       1       1       0       0       0       001010000D     91
     126       0       0      10       0                B_SPLINE      18D     92
     126     211       1       1       0       0       0       001010000D     93
     126       0       0      10       0                B_SPLINE      19D     94
     126     221       1       1       0       0       0       001010000D     95
     126       0       0      10       0                B_SPLINE      20D     96
     110     231       1       1       0       0       0       001010000D     97
     110       0       0       2       0                    LINE       5D     98
     126     233       1       1       0       0       0       001010000D     99
     126       0       0      10       0                B_SPLINE      21D    100
     126     243       1       1       0       0       0       001010000D    101
     126       0       0      10       0                B_SPLINE      22D    102
     126     253       1       1       0       0       0       001010000D    103
     126       0       0      10       0                B_SPLINE      23D    104
     126     263       1       1       0       0       0       001010000D    105
     126       0       0      10       0                B_SPLINE      24D    106
     110     273       1       1       0       0       0       001010000D    107
     110       0       0       2       0                    LINE       6D    108
     124     275       1       1       0       0       0       001000000D    109
     124       0       0       1       0                   XFORM       9D    110
     100     276       1       1       0       0     109       001010000D    111
     100       0       0       1       0                     ARC       9D    112
     124     277       1       1       0       0       0       001000000D    113
     124       0       0       2       0                   XFORM      10D    114
     100     279       1       1       0       0     113       001010000D    115
     100       0       0       1       0                     ARC      10D    116
     124     280       1       1       0       0       0       001000000D    117
     124       0       0       2       0                   XFORM      11D    118
     100     282       1       1       0       0     117       001010000D    119
     100       0       0       1       0                     ARC      11D    120
     124     283       1       1       0       0       0       001000000D    121
     124       0       0       1       0                   XFORM      12D    122
     100     284       1       1       0       0     121       001010000D    123
     100       0       0       1       0                     ARC      12D    124
     124     285       1       1       0       0       0       001000000D    125
     124       0       0       2       0                   XFORM      13D    126
     100     287       1       1       0       0     125       001010000D    127
     100       0       0       1       0                     ARC      13D    128
     124     288       1       1       0       0       0       001000000D    129
     124       0       0       2       0                   XFORM      14D    130
     100     290       1       1       0       0     129       001010000D    131
     100       0       0       1       0                     ARC      14D    132
     124     291       1       1       0       0       0       001000000D    133
     124       0       0       2       0                   XFORM      15D    134
     100     293       1       1       0       0     133       001010000D    135
     100       0       0       1       0                     ARC      15D    136
     124     294       1       1       0       0       0       001000000D    137
     124       0       0       2       0                   XFORM      16D    138
     100     296       1       1       0       0     137       001010000D    139
     100       0       0       1       0                     ARC      16D    140
     110     297       1       1       0       0       0       001010000D    141
     110       0       0       2       0                    LINE       7D    142
     110     299       1       1       0       0       0       001010000D    143
     110       0       0       2       0                    LINE       8D    144
     124     301       1       1       0       0       0       001000000D    145
     124       0       0       2       0                   XFORM      17D    146
     100     303       1       1       0       0     145       001010000D    147
     100       0       0       1       0                     ARC      17D    148
     110     304       1       1       0       0       0       001010000D    149
     110       0       0       2       0                    LINE       9D    150
     124     306       1       1       0       0       0       001000000D    151
     124       0       0       2       0                   XFORM      18D    152
     100     308       1       1       0       0     151       001010000D    153
     100       0       0       1       0                     ARC      18D    154
     110     309       1       1       0       0       0       001010000D    155
     110       0       0       2       0                    LINE      10D    156
     124     311       1       1       0       0       0       001000000D    157
     124       0       0       2       0                   XFORM      19D    158
     100     313       1       1       0       0     157       001010000D    159
     100       0       0       1       0                     ARC      19D    160
     124     314       1       1       0       0       0       001000000D    161
     124       0       0       2       0                   XFORM      20D    162
     100     316       1       1       0       0     161       001010000D    163
     100       0       0       1       0                     ARC      20D    164
     110     317       1       1       0       0       0       001010000D    165
     110       0       0       2       0                    LINE      11D    166
     110     319       1       1       0       0       0       001010000D    167
     110       0       0       2       0                    LINE      12D    168
     502     321       1       1       0       0       0       001010000D    169
     502       0       0      20       1                  VERTEX       1D    170
     504     341       1       1       0       0       0       000010001D    171
     504       0       0      16       1                    EDGE       1D    172
     128     357       1       1       0       0       0       001010000D    173
     128       0       0       6       0                  SPLSRF       1D    174
     508     363       1       1       0       0       0       001010000D    175
     508       0       0       2       1                EDGELOOP       1D    176
     508     365       1       1       0       0       0       001010000D    177
     508       0       0       1       1                EDGELOOP       2D    178
     510     366       1       1       0       0       0       000010000D    179
     510       0       0       1       1                    FACE       1D    180
     110     367       1       1       0       0       0       001010000D    181
     110       0       0       1       0                    LINE      13D    182
     110     368       1       1       0       0       0       001010000D    183
     110       0       0       2       0                    LINE      14D    184
     120     370       1       1       0       0       0       001010000D    185
     120       0       0       1       0                    SREV       1D    186
     508     371       1       1       0       0       0       001010000D    187
     508       0       0       1       1                EDGELOOP       3D    188
     510     372       1       1       0       0       0       000010000D    189
     510       0       0       1       1                    FACE       2D    190
     110     373       1       1       0       0       0       001010000D    191
     110       0       0       1       0                    LINE      15D    192
     110     374       1       1       0       0       0       001010000D    193
     110       0       0       2       0                    LINE      16D    194
     120     376       1       1       0       0       0       001010000D    195
     120       0       0       1       0                    SREV       2D    196
     508     377       1       1       0       0       0       001010000D    197
     508       0       0       1       1                EDGELOOP       4D    198
     510     378       1       1       0       0       0       000010000D    199
     510       0       0       1       1                    FACE       3D    200
     110     379       1       1       0       0       0       001010000D    201
     110       0       0       1       0                    LINE      17D    202
     110     380       1       1       0       0       0       001010000D    203
     110       0       0       2       0                    LINE      18D    204
     120     382       1       1       0       0       0       001010000D    205
     120       0       0       1       0                    SREV       3D    206
     508     383       1       1       0       0       0       001010000D    207
     508       0       0       1       1                EDGELOOP       5D    208
     510     384       1       1       0       0       0       000010000D    209
     510       0       0       1       1                    FACE       4D    210
     128     385       1       1       0       0       0       001010000D    211
     128       0       0       8       0                  SPLSRF       2D    212
     508     393       1       1       0       0       0       001010000D    213
     508       0       0       2       1                EDGELOOP       6D    214
     510     395       1       1       0       0       0       000010000D    215
     510       0       0       1       1                    FACE       5D    216
     110     396       1       1       0       0       0       001010000D    217
     110       0       0       1       0                    LINE      19D    218
     110     397       1       1       0       0       0       001010000D    219
     110       0       0       2       0                    LINE      20D    220
     120     399       1       1       0       0       0       001010000D    221
     120       0       0       1       0                    SREV       4D    222
     508     400       1       1       0       0       0       001010000D    223
     508       0       0       1       1                EDGELOOP       7D    224
     510     401       1       1       0       0       0       000010000D    225
     510       0       0       1       1                    FACE       6D    226
     110     402       1       1       0       0       0       001010000D    227
     110       0       0       1       0                    LINE      21D    228
     110     403       1       1       0       0       0       001010000D    229
     110       0       0       2       0                    LINE      22D    230
     120     405       1       1       0       0       0       001010000D    231
     120       0       0       1       0                    SREV       5D    232
     508     406       1       1       0       0       0       001010000D    233
     508       0       0       1       1                EDGELOOP       8D    234
     510     407       1       1       0       0       0       000010000D    235
     510       0       0       1       1                    FACE       7D    236
     110     408       1       1       0       0       0       001010000D    237
     110       0       0       1       0                    LINE      23D    238
     110     409       1       1       0       0       0       001010000D    239
     110       0       0       2       0                    LINE      24D    240
     120     411       1       1       0       0       0       001010000D    241
     120       0       0       1       0                    SREV       6D    242
     508     412       1       1       0       0       0       001010000D    243
     508       0       0       1       1                EDGELOOP       9D    244
     510     413       1       1       0       0       0       000010000D    245
     510       0       0       1       1                    FACE       8D    246
     128     414       1       1       0       0       0       001010000D    247
     128       0       0       8       0                  SPLSRF       3D    248
     508     422       1       1       0       0       0       001010000D    249
     508       0       0       2       1                EDGELOOP      10D    250
     510     424       1       1       0       0       0       000010000D    251
     510       0       0       1       1                    FACE       9D    252
     128     425       1       1       0       0       0       001010000D    253
     128       0       0       8       0                  SPLSRF       4D    254
     508     433       1       1       0       0       0       001010000D    255
     508       0       0       2       1                EDGELOOP      11D    256
     510     435       1       1       0       0       0       000010000D    257
     510       0       0       1       1                    FACE      10D    258
     128     436       1       1       0       0       0       001010000D    259
     128       0       0       8       0                  SPLSRF       5D    260
     508     444       1       1       0       0       0       001010000D    261
     508       0       0       2       1                EDGELOOP      12D    262
     510     446       1       1       0       0       0       000010000D    263
     510       0       0       1       1                    FACE      11D    264
     110     447       1       1       0       0       0       001010000D    265
     110       0       0       1       0                    LINE      25D    266
     110     448       1       1       0       0       0       001010000D    267
     110       0       0       2       0                    LINE      26D    268
     120     450       1       1       0       0       0       001010000D    269
     120       0       0       1       0                    SREV       7D    270
     508     451       1       1       0       0       0       001010000D    271
     508       0       0       1       1                EDGELOOP      13D    272
     510     452       1       1       0       0       0       000010000D    273
     510       0       0       1       1                    FACE      12D    274
     110     453       1       1       0       0       0       001010000D    275
     110       0       0       1       0                    LINE      27D    276
     110     454       1       1       0       0       0       001010000D    277
     110       0       0       2       0                    LINE      28D    278
     120     456       1       1       0       0       0       001010000D    279
     120       0       0       1       0                    SREV       8D    280
     508     457       1       1       0       0       0       001010000D    281
     508       0       0       1       1                EDGELOOP      14D    282
     510     458       1       1       0       0       0       000010000D    283
     510       0       0       1       1                    FACE      13D    284
     110     459       1       1       0       0       0       001010000D    285
     110       0       0       1       0                    LINE      29D    286
     110     460       1       1       0       0       0       001010000D    287
     110       0       0       2       0                    LINE      30D    288
     120     462       1       1       0       0       0       001010000D    289
     120       0       0       1       0                    SREV       9D    290
     508     463       1       1       0       0       0       001010000D    291
     508       0       0       1       1                EDGELOOP      15D    292
     510     464       1       1       0       0       0       000010000D    293
     510       0       0       1       1                    FACE      14D    294
     128     465       1       1       0       0       0       001010000D    295
     128       0       0       8       0                  SPLSRF       6D    296
     508     473       1       1       0       0       0       001010000D    297
     508       0       0       2       1                EDGELOOP      16D    298
     510     475       1       1       0       0       0       000010000D    299
     510       0       0       1       1                    FACE      15D    300
     128     476       1       1       0       0       0       001010000D    301
     128       0       0       7       0                  SPLSRF       7D    302
     508     483       1       1       0       0       0       001010000D    303
     508       0       0       2       1                EDGELOOP      17D    304
     510     485       1       1       0       0       0       000010000D    305
     510       0       0       1       1                    FACE      16D    306
     110     486       1       1       0       0       0       001010000D    307
     110       0       0       1       0                    LINE      31D    308
     110     487       1       1       0       0       0       001010000D    309
     110       0       0       2       0                    LINE      32D    310
     120     489       1       1       0       0       0       001010000D    311
     120       0       0       1       0                    SREV      10D    312
     508     490       1       1       0       0       0       001010000D    313
     508       0       0       1       1                EDGELOOP      18D    314
     510     491       1       1       0       0       0       000010000D    315
     510       0       0       1       1                    FACE      17D    316
     110     492       1       1       0       0       0       001010000D    317
     110       0       0       1       0                    LINE      33D    318
     110     493       1       1       0       0       0       001010000D    319
     110       0       0       2       0                    LINE      34D    320
     120     495       1       1       0       0       0       001010000D    321
     120       0       0       1       0                    SREV      11D    322
     508     496       1       1       0       0       0       001010000D    323
     508       0       0       1       1                EDGELOOP      19D    324
     510     497       1       1       0       0       0       000010000D    325
     510       0       0       1       1                    FACE      18D    326
     110     498       1       1       0       0       0       001010000D    327
     110       0       0       1       0                    LINE      35D    328
     110     499       1       1       0       0       0       001010000D    329
     110       0       0       2       0                    LINE      36D    330
     120     501       1       1       0       0       0       001010000D    331
     120       0       0       1       0                    SREV      12D    332
     508     502       1       1       0       0       0       001010000D    333
     508       0       0       1       1                EDGELOOP      20D    334
     510     503       1       1       0       0       0       000010000D    335
     510       0       0       1       1                    FACE      19D    336
     128     504       1       1       0       0       0       001010000D    337
     128       0       0       6       0                  SPLSRF       8D    338
     508     510       1       1       0       0       0       001010000D    339
     508       0       0       2       1                EDGELOOP      21D    340
     508     512       1       1       0       0       0       001010000D    341
     508       0       0       1       1                EDGELOOP      22D    342
     510     513       1       1       0       0       0       000010000D    343
     510       0       0       1       1                    FACE      20D    344
     110     514       1       1       0       0       0       001010000D    345
     110       0       0       1       0                    LINE      37D    346
     110     515       1       1       0       0       0       001010000D    347
     110       0       0       2       0                    LINE      38D    348
     120     517       1       1       0       0       0       001010000D    349
     120       0       0       1       0                    SREV      13D    350
     508     518       1       1       0       0       0       001010000D    351
     508       0       0       1       1                EDGELOOP      23D    352
     510     519       1       1       0       0       0       000010000D    353
     510       0       0       1       1                    FACE      21D    354
     110     520       1       1       0       0       0       001010000D    355
     110       0       0       1       0                    LINE      39D    356
     110     521       1       1       0       0       0       001010000D    357
     110       0       0       2       0                    LINE      40D    358
     120     523       1       1       0       0       0       001010000D    359
     120       0       0       1       0                    SREV      14D    360
     508     524       1       1       0       0       0       001010000D    361
     508       0       0       1       1                EDGELOOP      24D    362
     510     525       1       1       0       0       0       000010000D    363
     510       0       0       1       1                    FACE      22D    364
     110     526       1       1       0       0       0       001010000D    365
     110       0       0       1       0                    LINE      41D    366
     110     527       1       1       0       0       0       001010000D    367
     110       0       0       1       0                    LINE      42D    368
     120     528       1       1       0       0       0       001010000D    369
     120       0       0       1       0                    SREV      15D    370
     508     529       1       1       0       0       0       001010000D    371
     508       0       0       1       1                EDGELOOP      25D    372
     510     530       1       1       0       0       0       000010000D    373
     510       0       0       1       1                    FACE      23D    374
     110     531       1       1       0       0       0       001010000D    375
     110       0       0       1       0                    LINE      43D    376
     110     532       1       1       0       0       0       001010000D    377
     110       0       0       1       0                    LINE      44D    378
     120     533       1       1       0       0       0       001010000D    379
     120       0       0       1       0                    SREV      16D    380
     508     534       1       1       0       0       0       001010000D    381
     508       0       0       1       1                EDGELOOP      26D    382
     510     535       1       1       0       0       0       000010000D    383
     510       0       0       1       1                    FACE      24D    384
     110     536       1       1       0       0       0       001010000D    385
     110       0       0       1       0                    LINE      45D    386
     110     537       1       1       0       0       0       001010000D    387
     110       0       0       2       0                    LINE      46D    388
     120     539       1       1       0       0       0       001010000D    389
     120       0       0       1       0                    SREV      17D    390
     508     540       1       1       0       0       0       001010000D    391
     508       0       0       1       1                EDGELOOP      27D    392
     510     541       1       1       0       0       0       000010000D    393
     510       0       0       1       1                    FACE      25D    394
     110     542       1       1       0       0       0       001010000D    395
     110       0       0       1       0                    LINE      47D    396
     110     543       1       1       0       0       0       001010000D    397
     110       0       0       2       0                    LINE      48D    398
     120     545       1       1       0       0       0       001010000D    399
     120       0       0       1       0                    SREV      18D    400
     508     546       1       1       0       0       0       001010000D    401
     508       0       0       1       1                EDGELOOP      28D    402
     510     547       1       1       0       0       0       000010000D    403
     510       0       0       1       1                    FACE      26D    404
     514     548       1       1       0       0       0       000010000D    405
     514       0       0       3       1                   SHELL       1D    406
     124     551       1       1       0       0       0       001000000D    407
     124       0       0       1       0                   XFORM      21D    408
     100     552       1       1       0       0     407       001010000D    409
     100       0       0       1       0                     ARC      21D    410
     124     553       1       1       0       0       0       001000000D    411
     124       0       0       1       0                   XFORM      22D    412
     100     554       1       1       0       0     411       001010000D    413
     100       0       0       1       0                     ARC      22D    414
     124     555       1       1       0       0       0       001000000D    415
     124       0       0       1       0                   XFORM      23D    416
     100     556       1       1       0       0     415       001010000D    417
     100       0       0       1       0                     ARC      23D    418
     110     557       1       1       0       0       0       001010000D    419
     110       0       0       1       0                    LINE      49D    420
     124     558       1       1       0       0       0       001000000D    421
     124       0       0       1       0                   XFORM      24D    422
     100     559       1       1       0       0     421       001010000D    423
     100       0       0       1       0                     ARC      24D    424
     110     560       1       1       0       0       0       001010000D    425
     110       0       0       1       0                    LINE      50D    426
     502     561       1       1       0       0       0       001010000D    427
     502       0       0       2       1                  VERTEX       2D    428
     504     563       1       1       0       0       0       000010001D    429
     504       0       0       2       1                    EDGE       2D    430
     110     565       1       1       0       0       0       001010000D    431
     110       0       0       1       0                    LINE      51D    432
     110     566       1       1       0       0       0       001010000D    433
     110       0       0       1       0                    LINE      52D    434
     120     567       1       1       0       0       0       001010000D    435
     120       0       0       1       0                    SREV      19D    436
     508     568       1       1       0       0       0       001010000D    437
     508       0       0       1       1                EDGELOOP      29D    438
     510     569       1       1       0       0       0       000010000D    439
     510       0       0       1       1                    FACE      27D    440
     110     570       1       1       0       0       0       001010000D    441
     110       0       0       1       0                    LINE      53D    442
     110     571       1       1       0       0       0       001010000D    443
     110       0       0       1       0                    LINE      54D    444
     120     572       1       1       0       0       0       001010000D    445
     120       0       0       1       0                    SREV      20D    446
     508     573       1       1       0       0       0       001010000D    447
     508       0       0       1       1                EDGELOOP      30D    448
     510     574       1       1       0       0       0       000010000D    449
     510       0       0       1       1                    FACE      28D    450
     514     575       1       1       0       0       0       000000000D    451
     514       0       0       1       1                   SHELL       2D    452
     186     576       1       1       0       0       0       000000000D    453
     186       0       0       1       0                    MSBR       1D    454
314,1.1D0,1.2D0,1D2;                                                   1P      1
314,1.1D1,1.1D1,1.1D1;                                                 3P      2
314,3.92D1,1.2D0,1.2D0;                                                5P      3
314,4.1D1,0D0,2.2D1;                                                   7P      4
314,8.784D1,9.49D1,1D2;                                                9P      5
314,9.6D1,9.6D1,9.6D1;                                                11P      6
314,9.8D1,6.27D1,0D0;                                                 13P      7
314,1D2,1D2,9.49D1;                                                   15P      8
124,1D0,0D0,0D0,0D0,0D0,0D0,1D0,-5.5D0,0D0,-1D0,0D0,0D0;              17P      9
100,0D0,0D0,0D0,9D0,0D0,4.500000110768D0,7.794228570108D0;            19P     10
124,5.000000123075D-1,-8.660253966787D-1,0D0,0D0,0D0,0D0,1D0,         21P     11
-5.5D0,-8.660253966787D-1,-5.000000123075D-1,0D0,0D0;                 21P     12
100,0D0,0D0,0D0,9D0,0D0,4.499999889303D0,7.794228697971D0;            23P     13
124,-4.999999999921D-1,-8.660254037890D-1,0D0,0D0,0D0,0D0,1D0,        25P     14
-5.5D0,-8.660254037890D-1,4.999999999921D-1,0D0,0D0;                  25P     15
100,0D0,0D0,0D0,9D0,0D0,4.499999999929D0,7.794228634101D0;            27P     16
124,-1D0,0D0,0D0,0D0,0D0,0D0,1D0,-5.5D0,0D0,1D0,0D0,0D0;              29P     17
100,0D0,0D0,0D0,9D0,0D0,4.500000104661D0,7.794228573634D0;            31P     18
124,-5.000000116290D-1,8.660253970704D-1,0D0,0D0,0D0,0D0,1D0,         33P     19
-5.5D0,8.660253970704D-1,5.000000116290D-1,0D0,0D0;                   33P     20
100,0D0,0D0,0D0,9D0,0D0,4.499999895410D0,7.794228694445D0;            35P     21
124,4.999999999921D-1,8.660254037890D-1,0D0,0D0,0D0,0D0,1D0,          37P     22
-5.5D0,8.660254037890D-1,-4.999999999921D-1,0D0,0D0;                  37P     23
100,0D0,0D0,0D0,9D0,0D0,4.499999999929D0,7.794228634101D0;            39P     24
124,-1D0,0D0,0D0,0D0,0D0,0D0,1D0,-5.499997470249D0,0D0,1D0,0D0,       41P     25
0D0;                                                                  41P     26
100,0D0,0D0,0D0,6.099999143898D0,0D0,-6.099999143898D0,0D0;           43P     27
124,1D0,0D0,0D0,0D0,0D0,0D0,1D0,-5.499997470249D0,0D0,-1D0,0D0,       45P     28
0D0;                                                                  45P     29
100,0D0,0D0,0D0,6.099999143898D0,0D0,-6.099999143898D0,0D0;           47P     30
126,7,3,0,0,1,0,0D0,0D0,0D0,0D0,2D-1,4D-1,6D-1,8D-1,1D0,1D0,1D0,      49P     31
1D0,1D0,1D0,1D0,1D0,1D0,1D0,1D0,1D0,9.000000000003D0,                 49P     32
5.500000000014D0,4.130811254300D-10,9.000000000003D0,                 49P     33
5.500000000014D0,-3.432778374424D-1,8.999999999999D0,                 49P     34
5.477229364602D0,-1.029281364098D0,9D0,5.376652231957D0,              49P     35
-2.055570198390D0,9D0,5.213265950851D0,-3.082326082510D0,9D0,         49P     36
4.991150293191D0,-4.116567047905D0,9D0,4.801004993566D0,              49P     37
-4.832932462640D0,9D0,4.696152422707D0,-5.196152422707D0,0D0,         49P     38
1D0,0D0,0D0,1D0;                                                      49P     39
126,7,3,0,0,1,0,0D0,0D0,0D0,0D0,2D-1,4D-1,6D-1,8D-1,1D0,1D0,1D0,      51P     40
1D0,1D0,1D0,1D0,1D0,1D0,1D0,1D0,1D0,9.000000000003D0,                 51P     41
-5.500000000806D0,-2.420737632515D-8,9.000000000003D0,                51P     42
-5.500000000806D0,-3.432778554340D-1,8.999999999999D0,                51P     43
-5.477229357737D0,-1.029281474655D0,9D0,-5.376652224457D0,            51P     44
-2.055570247186D0,9D0,-5.213265943128D0,-3.082326123607D0,9D0,        51P     45
-4.991150288096D0,-4.116567067101D0,9D0,-4.801004991632D0,            51P     46
-4.832932469339D0,9D0,-4.696152422707D0,-5.196152422707D0,0D0,        51P     47
1D0,0D0,0D0,1D0;                                                      51P     48
126,7,3,0,0,1,0,0D0,0D0,0D0,0D0,2D-1,4D-1,6D-1,8D-1,1D0,1D0,1D0,      53P     49
1D0,1D0,1D0,1D0,1D0,1D0,1D0,1D0,1D0,9D0,-4.696152422707D0,            53P     50
5.196152422707D0,9D0,-4.802005257979D0,4.829467445073D0,9D0,          53P     51
-4.993357501787D0,4.107768378847D0,9D0,-5.215350130790D0,             53P     52
3.071250436707D0,9D0,-5.377843938727D0,2.045863029646D0,              53P     53
8.999999999999D0,-5.477487341239D0,1.023769949130D0,                  53P     54
9.000000000003D0,-5.500000000806D0,3.412587462598D-1,                 53P     55
9.000000000003D0,-5.500000000806D0,-2.420737632515D-8,0D0,1D0,        53P     56
0D0,0D0,1D0;                                                          53P     57
110,9D0,-4.696152422707D0,5.196152422707D0,9D0,4.696152422707D0,      55P     58
5.196152422707D0;                                                     55P     59
126,7,3,0,0,1,0,0D0,0D0,0D0,0D0,2D-1,4D-1,6D-1,8D-1,1D0,1D0,1D0,      57P     60
1D0,1D0,1D0,1D0,1D0,1D0,1D0,1D0,1D0,9D0,4.696152422707D0,             57P     61
5.196152422707D0,9D0,4.802005257979D0,4.829467445073D0,9D0,           57P     62
4.993357501779D0,4.107768378619D0,9D0,5.215350130818D0,               57P     63
3.071250437504D0,9D0,5.377843938624D0,2.045863026686D0,               57P     64
8.999999999999D0,5.477487341623D0,1.023769960172D0,                   57P     65
9.000000000003D0,5.499999999977D0,3.412587224675D-1,                  57P     66
9.000000000003D0,5.500000000014D0,4.130811254300D-10,0D0,1D0,         57P     67
0D0,0D0,1D0;                                                          57P     68
126,7,3,0,0,1,0,0D0,0D0,0D0,0D0,2D-1,4D-1,6D-1,8D-1,1D0,1D0,1D0,      59P     69
1D0,1D0,1D0,1D0,1D0,1D0,1D0,1D0,1D0,9D0,4.696152422707D0,             59P     70
-5.196152422707D0,8.679990061199D0,4.802822402307D0,                  59P     71
-5.380910247017D0,8.051197535670D0,4.995161496028D0,                  59P     72
-5.743943780919D0,7.151882175060D0,5.217062991302D0,                  59P     73
-6.263163746345D0,6.264780536107D0,5.378831278110D0,                  59P     74
-6.775332116793D0,5.382648710877D0,5.477699985015D0,                  59P     75
-7.284631162058D0,4.794085163390D0,5.500000001080D0,                  59P     76
-7.624438488349D0,4.500000001423D0,5.500000001080D0,                  59P     77
-7.794228635775D0,0D0,1D0,0D0,0D0,1D0;                                59P     78
126,7,3,0,0,1,0,0D0,0D0,0D0,0D0,2D-1,4D-1,6D-1,8D-1,1D0,1D0,1D0,      61P     79
1D0,1D0,1D0,1D0,1D0,1D0,1D0,1D0,1D0,4.500000001423D0,                 61P     80
5.500000001080D0,-7.794228635775D0,4.205837859051D0,                  61P     81
5.500000001080D0,-7.964063227859D0,3.617148642357D0,                  61P     82
5.477687575525D0,-8.303943101872D0,2.734933361011D0,                  61P     83
5.378791383047D0,-8.813290333534D0,1.847796936551D0,                  61P     84
5.216989296190D0,-9.325478786603D0,9.488393660529D-1,                 61P     85
4.995166793775D0,-9.844492182029D0,3.200343380601D-1,                 61P     86
4.802830535393D0,-1.020753293418D1,0D0,4.696152422707D0,              61P     87
-1.039230484541D1,0D0,1D0,0D0,0D0,1D0;                                61P     88
126,7,3,0,0,1,0,0D0,0D0,0D0,0D0,2D-1,4D-1,6D-1,8D-1,1D0,1D0,1D0,      63P     89
1D0,1D0,1D0,1D0,1D0,1D0,1D0,1D0,1D0,4.499999950029D0,                 63P     90
-5.500000001047D0,-7.794228665330D0,4.205837763337D0,                 63P     91
-5.499999995926D0,-7.964063283002D0,3.617148565604D0,                 63P     92
-5.477687570348D0,-8.303943146240D0,2.734933301415D0,                 63P     93
-5.378791373504D0,-8.813290367926D0,1.847796896858D0,                 63P     94
-5.216989287271D0,-9.325478809523D0,9.488393453466D-1,                63P     95
-4.995166787619D0,-9.844492193983D0,3.200343310691D-1,                63P     96
-4.802830533063D0,-1.020753293822D1,0D0,-4.696152422707D0,            63P     97
-1.039230484541D1,0D0,1D0,0D0,0D0,1D0;                                63P     98
126,7,3,0,0,1,0,0D0,0D0,0D0,0D0,2D-1,4D-1,6D-1,8D-1,1D0,1D0,1D0,      65P     99
1D0,1D0,1D0,1D0,1D0,1D0,1D0,1D0,1D0,9D0,-4.696152422707D0,            65P    100
-5.196152422707D0,8.679990061199D0,-4.802822402307D0,                 65P    101
-5.380910247017D0,8.051197535162D0,-4.995161496028D0,                 65P    102
-5.743943781212D0,7.151882176840D0,-5.217062991303D0,                 65P    103
-6.263163745321D0,6.264780529495D0,-5.378831278106D0,                 65P    104
-6.775332120596D0,5.382648735543D0,-5.477699985030D0,                 65P    105
-7.284631147871D0,4.794085110243D0,-5.500000001047D0,                 65P    106
-7.624438518916D0,4.499999950029D0,-5.500000001047D0,                 65P    107
-7.794228665330D0,0D0,1D0,0D0,0D0,1D0;                                65P    108
110,9D0,-4.696152422707D0,-5.196152422707D0,9D0,                      67P    109
4.696152422707D0,-5.196152422707D0;                                   67P    110
126,7,3,0,0,1,0,0D0,0D0,0D0,0D0,2D-1,4D-1,6D-1,8D-1,1D0,1D0,1D0,      69P    111
1D0,1D0,1D0,1D0,1D0,1D0,1D0,1D0,1D0,0D0,4.696152422707D0,             69P    112
-1.039230484541D1,-3.200099263482D-1,4.802822398156D0,                69P    113
-1.020754702829D1,-9.488024288243D-1,4.995161485117D0,                69P    114
-9.844513507724D0,-1.848117749446D0,5.217062975236D0,                 69P    115
-9.325293565277D0,-2.735219375647D0,5.378831261803D0,                 69P    116
-8.813125202591D0,-3.617351085843D0,5.477699973259D0,                 69P    117
-8.303826222248D0,-4.205914809811D0,5.499999997381D0,                 69P    118
-7.964018797782D0,-4.499999938402D0,5.500000000974D0,                 69P    119
-7.794228669625D0,0D0,1D0,0D0,0D0,1D0;                                69P    120
126,7,3,0,0,1,0,0D0,0D0,0D0,0D0,2D-1,4D-1,6D-1,8D-1,1D0,1D0,1D0,      71P    121
1D0,1D0,1D0,1D0,1D0,1D0,1D0,1D0,1D0,-4.499999938402D0,                71P    122
5.500000000974D0,-7.794228669625D0,-4.794162140194D0,                 71P    123
5.500000000974D0,-7.624394043235D0,-5.382851216417D0,                 71P    124
5.477687584419D0,-7.284514246607D0,-6.265066583178D0,                 71P    125
5.378791393434D0,-6.775166967124D0,-7.152203013353D0,                 71P    126
5.216989306817D0,-6.262978510355D0,-8.051160610818D0,                 71P    127
4.995166800908D0,-5.743965099469D0,-8.679965653772D0,                 71P    128
4.802830538116D0,-5.380924338651D0,-9D0,4.696152422707D0,             71P    129
-5.196152422707D0,0D0,1D0,0D0,0D0,1D0;                                71P    130
126,7,3,0,0,1,0,0D0,0D0,0D0,0D0,2D-1,4D-1,6D-1,8D-1,1D0,1D0,1D0,      73P    131
1D0,1D0,1D0,1D0,1D0,1D0,1D0,1D0,1D0,-4.499999957951D0,                73P    132
-5.500000000001D0,-7.794228658338D0,-4.794162108047D0,                73P    133
-5.500000000001D0,-7.624394061795D0,-5.382851231337D0,                73P    134
-5.477687584870D0,-7.284514237993D0,-6.265066579179D0,                73P    135
-5.378791393313D0,-6.775166969433D0,-7.152203014430D0,                73P    136
-5.216989306850D0,-6.262978509733D0,-8.051160610510D0,                73P    137
-4.995166800899D0,-5.743965099646D0,-8.679965653772D0,                73P    138
-4.802830538116D0,-5.380924338651D0,-9D0,-4.696152422707D0,           73P    139
-5.196152422707D0,0D0,1D0,0D0,0D0,1D0;                                73P    140
126,7,3,0,0,1,0,0D0,0D0,0D0,0D0,2D-1,4D-1,6D-1,8D-1,1D0,1D0,1D0,      75P    141
1D0,1D0,1D0,1D0,1D0,1D0,1D0,1D0,1D0,0D0,-4.696152422707D0,            75P    142
-1.039230484541D1,-3.200099328126D-1,-4.802822400311D0,               75P    143
-1.020754702456D1,-9.488024471916D-1,-4.995161490748D0,               75P    144
-9.844513497119D0,-1.848117788861D0,-5.217062983694D0,                75P    145
-9.325293542520D0,-2.735219420622D0,-5.378831269830D0,                75P    146
-8.813125176625D0,-3.617351194489D0,-5.477699980999D0,                75P    147
-8.303826159521D0,-4.205914817005D0,-5.499999995774D0,                75P    148
-7.964018793629D0,-4.499999957951D0,-5.500000000001D0,                75P    149
-7.794228658338D0,0D0,1D0,0D0,0D0,1D0;                                75P    150
110,0D0,-4.696152422707D0,-1.039230484541D1,0D0,                      77P    151
4.696152422707D0,-1.039230484541D1;                                   77P    152
126,7,3,0,0,1,0,0D0,0D0,0D0,0D0,2D-1,4D-1,6D-1,8D-1,1D0,1D0,1D0,      79P    153
1D0,1D0,1D0,1D0,1D0,1D0,1D0,1D0,1D0,-9D0,4.696152422707D0,            79P    154
-5.196152422707D0,-9D0,4.802005257979D0,-4.829467445073D0,-9D0,       79P    155
4.993357501787D0,-4.107768378851D0,-9D0,5.215350130792D0,             79P    156
-3.071250436693D0,-9D0,5.377843938722D0,-2.045863029698D0,            79P    157
-8.999999999999D0,5.477487341256D0,-1.023769948937D0,                 79P    158
-9.000000000003D0,5.500000000769D0,-3.412587466744D-1,                79P    159
-9.000000000003D0,5.500000000806D0,2.379279095916D-8,0D0,1D0,         79P    160
0D0,0D0,1D0;                                                          79P    161
126,7,3,0,0,1,0,0D0,0D0,0D0,0D0,2D-1,4D-1,6D-1,8D-1,1D0,1D0,1D0,      81P    162
1D0,1D0,1D0,1D0,1D0,1D0,1D0,1D0,1D0,-9.000000000003D0,                81P    163
5.500000000806D0,2.379279095916D-8,-9.000000000003D0,                 81P    164
5.500000000806D0,3.432778550194D-1,-8.999999999999D0,                 81P    165
5.477229357737D0,1.029281474847D0,-9D0,5.376652224457D0,              81P    166
2.055570247135D0,-9D0,5.213265943128D0,3.082326123621D0,-9D0,         81P    167
4.991150288096D0,4.116567067097D0,-9D0,4.801004991632D0,              81P    168
4.832932469339D0,-9D0,4.696152422707D0,5.196152422707D0,0D0,1D0,      81P    169
0D0,0D0,1D0;                                                          81P    170
126,7,3,0,0,1,0,0D0,0D0,0D0,0D0,2D-1,4D-1,6D-1,8D-1,1D0,1D0,1D0,      83P    171
1D0,1D0,1D0,1D0,1D0,1D0,1D0,1D0,1D0,-9.000000000003D0,                83P    172
-5.500000000014D0,1.506461109602D-12,-9.000000000003D0,               83P    173
-5.500000000014D0,3.432778378570D-1,-8.999999999999D0,                83P    174
-5.477229364602D0,1.029281363906D0,-9D0,-5.376652231957D0,            83P    175
2.055570198442D0,-9D0,-5.213265950851D0,3.082326082496D0,-9D0,        83P    176
-4.991150293191D0,4.116567047908D0,-9D0,-4.801004993566D0,            83P    177
4.832932462640D0,-9D0,-4.696152422707D0,5.196152422707D0,0D0,         83P    178
1D0,0D0,0D0,1D0;                                                      83P    179
126,7,3,0,0,1,0,0D0,0D0,0D0,0D0,2D-1,4D-1,6D-1,8D-1,1D0,1D0,1D0,      85P    180
1D0,1D0,1D0,1D0,1D0,1D0,1D0,1D0,1D0,-9D0,-4.696152422707D0,           85P    181
-5.196152422707D0,-9D0,-4.802005257979D0,-4.829467445073D0,-9D0,      85P    182
-4.993357501779D0,-4.107768378615D0,-9D0,-5.215350130817D0,           85P    183
-3.071250437518D0,-9D0,-5.377843938628D0,-2.045863026635D0,           85P    184
-8.999999999999D0,-5.477487341606D0,-1.023769960365D0,                85P    185
-9.000000000003D0,-5.500000000014D0,-3.412587220529D-1,               85P    186
-9.000000000003D0,-5.500000000014D0,1.506461109602D-12,0D0,1D0,       85P    187
0D0,0D0,1D0;                                                          85P    188
110,-9D0,-4.696152422707D0,-5.196152422707D0,-9D0,                    87P    189
4.696152422707D0,-5.196152422707D0;                                   87P    190
126,7,3,0,0,1,0,0D0,0D0,0D0,0D0,2D-1,4D-1,6D-1,8D-1,1D0,1D0,1D0,      89P    191
1D0,1D0,1D0,1D0,1D0,1D0,1D0,1D0,1D0,-9D0,4.696152422707D0,            89P    192
5.196152422707D0,-8.679990061209D0,4.802822402304D0,                  89P    193
5.380910247011D0,-8.051197535071D0,4.995161496010D0,                  89P    194
5.743943781262D0,-7.151882177307D0,5.217062991326D0,                  89P    195
6.263163745059D0,-6.264780528036D0,5.378831277964D0,                  89P    196
6.775332121409D0,-5.382648741384D0,5.477699985505D0,                  89P    197
7.284631144610D0,-4.794085098003D0,5.500000000001D0,                  89P    198
7.624438525744D0,-4.499999993454D0,5.500000000001D0,                  89P    199
7.794228640020D0,0D0,1D0,0D0,0D0,1D0;                                 89P    200
126,7,3,0,0,1,0,0D0,0D0,0D0,0D0,2D-1,4D-1,6D-1,8D-1,1D0,1D0,1D0,      91P    201
1D0,1D0,1D0,1D0,1D0,1D0,1D0,1D0,1D0,-4.499999993454D0,                91P    202
5.500000000001D0,7.794228640020D0,-4.205837815205D0,                  91P    203
5.499999996733D0,7.964063252817D0,-3.617148724179D0,                  91P    204
5.477687581383D0,8.303943054797D0,-2.734933379749D0,                  91P    205
5.378791387022D0,8.813290322671D0,-1.847796959782D0,                  91P    206
5.216989300949D0,9.325478773202D0,-9.488393756731D-1,                 91P    207
4.995166796831D0,9.844492176472D0,-3.200343416066D-1,                 91P    208
4.802830536576D0,1.020753293214D1,0D0,4.696152422707D0,               91P    209
1.039230484541D1,0D0,1D0,0D0,0D0,1D0;                                 91P    210
126,7,3,0,0,1,0,0D0,0D0,0D0,0D0,2D-1,4D-1,6D-1,8D-1,1D0,1D0,1D0,      93P    211
1D0,1D0,1D0,1D0,1D0,1D0,1D0,1D0,1D0,-4.499999981794D0,                93P    212
-5.500000000001D0,7.794228646857D0,-4.205837792377D0,                 93P    213
-5.499999995433D0,7.964063266103D0,-3.617148702939D0,                 93P    214
-5.477687579998D0,8.303943067012D0,-2.734933364380D0,                 93P    215
-5.378791384521D0,8.813290331557D0,-1.847796949276D0,                 93P    216
-5.216989298603D0,9.325478779264D0,-9.488393702552D-1,                93P    217
-4.995166795214D0,9.844492179601D0,-3.200343397699D-1,                93P    218
-4.802830535963D0,1.020753293320D1,0D0,-4.696152422707D0,             93P    219
1.039230484541D1,0D0,1D0,0D0,0D0,1D0;                                 93P    220
126,7,3,0,0,1,0,0D0,0D0,0D0,0D0,2D-1,4D-1,6D-1,8D-1,1D0,1D0,1D0,      95P    221
1D0,1D0,1D0,1D0,1D0,1D0,1D0,1D0,1D0,-9D0,-4.696152422707D0,           95P    222
5.196152422707D0,-8.679990061206D0,-4.802822402305D0,                 95P    223
5.380910247012D0,-8.051197534953D0,-4.995161496012D0,                 95P    224
5.743943781331D0,-7.151882177684D0,-5.217062991329D0,                 95P    225
6.263163744838D0,-6.264780526571D0,-5.378831277967D0,                 95P    226
6.775332122268D0,-5.382648746756D0,-5.477699985508D0,                 95P    227
7.284631141459D0,-4.794085086345D0,-5.500000000001D0,                 95P    228
7.624438532580D0,-4.499999981794D0,-5.500000000001D0,                 95P    229
7.794228646857D0,0D0,1D0,0D0,0D0,1D0;                                 95P    230
110,-9D0,-4.696152422707D0,5.196152422707D0,-9D0,                     97P    231
4.696152422707D0,5.196152422707D0;                                    97P    232
126,7,3,0,0,1,0,0D0,0D0,0D0,0D0,2D-1,4D-1,6D-1,8D-1,1D0,1D0,1D0,      99P    233
1D0,1D0,1D0,1D0,1D0,1D0,1D0,1D0,1D0,0D0,4.696152422707D0,             99P    234
1.039230484541D1,3.200099387924D-1,4.802822402304D0,                  99P    235
1.020754702111D1,9.488024652749D-1,4.995161496011D0,                  99P    236
9.844513486679D0,1.848117821497D0,5.217062991327D0,                   99P    237
9.325293523678D0,2.735219476432D0,5.378831277965D0,                   99P    238
8.813125144403D0,3.617351241986D0,5.477699985506D0,                   99P    239
8.303826132098D0,4.205914937862D0,5.500000000001D0,                   99P    240
7.964018723851D0,4.500000042412D0,5.500000000001D0,                   99P    241
7.794228609575D0,0D0,1D0,0D0,0D0,1D0;                                 99P    242
126,7,3,0,0,1,0,0D0,0D0,0D0,0D0,2D-1,4D-1,6D-1,8D-1,1D0,1D0,1D0,     101P    243
1D0,1D0,1D0,1D0,1D0,1D0,1D0,1D0,1D0,4.500000042412D0,                101P    244
5.500000000001D0,7.794228609575D0,4.794162229302D0,                  101P    245
5.499999995728D0,7.624393991789D0,5.382851279780D0,                  101P    246
5.477687580312D0,7.284514210024D0,6.265066635476D0,                  101P    247
5.378791385088D0,6.775166936931D0,7.152203047442D0,                  101P    248
5.216989299135D0,6.262978490674D0,8.051160628773D0,                  101P    249
4.995166795581D0,5.743965089102D0,8.679965659814D0,                  101P    250
4.802830536102D0,5.380924335163D0,9D0,4.696152422707D0,              101P    251
5.196152422707D0,0D0,1D0,0D0,0D0,1D0;                                101P    252
126,7,3,0,0,1,0,0D0,0D0,0D0,0D0,2D-1,4D-1,6D-1,8D-1,1D0,1D0,1D0,     103P    253
1D0,1D0,1D0,1D0,1D0,1D0,1D0,1D0,1D0,4.500000000010D0,                103P    254
-5.500000000001D0,7.794228634056D0,4.794162150047D0,                 103P    255
-5.500000000001D0,7.624394037546D0,5.382851211977D0,                 103P    256
-5.477687584862D0,7.284514249170D0,6.265066584457D0,                 103P    257
-5.378791393303D0,6.775166966386D0,7.152203013070D0,                 103P    258
-5.216989306840D0,6.262978510518D0,8.051160610934D0,                 103P    259
-4.995166800892D0,5.743965099402D0,8.679965653780D0,                 103P    260
-4.802830538113D0,5.380924338647D0,9D0,-4.696152422707D0,            103P    261
5.196152422707D0,0D0,1D0,0D0,0D0,1D0;                                103P    262
126,7,3,0,0,1,0,0D0,0D0,0D0,0D0,2D-1,4D-1,6D-1,8D-1,1D0,1D0,1D0,     105P    263
1D0,1D0,1D0,1D0,1D0,1D0,1D0,1D0,1D0,0D0,-4.696152422707D0,           105P    264
1.039230484541D1,3.200099388007D-1,-4.802822402307D0,                105P    265
1.020754702110D1,9.488024648921D-1,-4.995161496018D0,                105P    266
9.844513486900D0,1.848117822971D0,-5.217062991338D0,                 105P    267
9.325293522827D0,2.735219471206D0,-5.378831277976D0,                 105P    268
8.813125147420D0,3.617351261839D0,-5.477699985515D0,                 105P    269
8.303826120636D0,4.205914895398D0,-5.500000000001D0,                 105P    270
7.964018748368D0,4.500000000010D0,-5.500000000001D0,                 105P    271
7.794228634056D0,0D0,1D0,0D0,0D0,1D0;                                105P    272
110,0D0,-4.696152422707D0,1.039230484541D1,0D0,4.696152422707D0,     107P    273
1.039230484541D1;                                                    107P    274
124,1D0,0D0,0D0,0D0,0D0,0D0,1D0,5.5D0,0D0,-1D0,0D0,0D0;              109P    275
100,0D0,0D0,0D0,9D0,0D0,4.500000116114D0,7.794228567021D0;           111P    276
124,4.999999999921D-1,8.660254037890D-1,0D0,0D0,0D0,0D0,1D0,         113P    277
5.5D0,8.660254037890D-1,-4.999999999921D-1,0D0,0D0;                  113P    278
100,0D0,0D0,0D0,9D0,0D0,4.499999999929D0,7.794228634101D0;           115P    279
124,-5.000000110914D-1,8.660253973808D-1,0D0,0D0,0D0,0D0,1D0,        117P    280
5.5D0,8.660253973808D-1,5.000000110914D-1,0D0,0D0;                   117P    281
100,0D0,0D0,0D0,9D0,0D0,4.499999900248D0,7.794228691652D0;           119P    282
124,-1D0,0D0,0D0,0D0,0D0,0D0,1D0,5.5D0,0D0,1D0,0D0,0D0;              121P    283
100,0D0,0D0,0D0,9D0,0D0,4.500000099823D0,7.794228576427D0;           123P    284
124,-4.999999999921D-1,-8.660254037890D-1,0D0,0D0,0D0,0D0,1D0,       125P    285
5.5D0,-8.660254037890D-1,4.999999999921D-1,0D0,0D0;                  125P    286
100,0D0,0D0,0D0,9D0,0D0,4.499999999929D0,7.794228634101D0;           127P    287
124,5.000000129016D-1,-8.660253963357D-1,0D0,0D0,0D0,0D0,1D0,        129P    288
5.5D0,-8.660253963357D-1,-5.000000129016D-1,0D0,0D0;                 129P    289
100,0D0,0D0,0D0,9D0,0D0,4.499999883957D0,7.794228701057D0;           131P    290
124,-1D0,0D0,0D0,0D0,0D0,0D0,-1D0,5.499997470249D0,0D0,-1D0,0D0,     133P    291
0D0;                                                                 133P    292
100,0D0,0D0,0D0,6.099999143898D0,0D0,-6.099999143898D0,0D0;          135P    293
124,1D0,0D0,0D0,0D0,0D0,0D0,-1D0,5.499997470249D0,0D0,1D0,0D0,       137P    294
0D0;                                                                 137P    295
100,0D0,0D0,0D0,6.099999143898D0,0D0,-6.099999143898D0,0D0;          139P    296
110,-6.100000587400D0,5.499998982149D0,1.642575964280D-9,            141P    297
-5.100000368329D0,4.922649092568D0,1.029975952546D-9;                141P    298
110,6.100000587400D0,5.499998982149D0,-1.642576218577D-9,            143P    299
5.100000368329D0,4.922649092568D0,-1.029976157937D-9;                143P    300
124,1D0,0D0,0D0,0D0,0D0,0D0,-1D0,4.922650861827D0,0D0,1D0,0D0,       145P    301
0D0;                                                                 145P    302
100,0D0,0D0,0D0,5.1D0,0D0,-5.1D0,0D0;                                147P    303
110,-5.100000368329D0,-4.922649092568D0,1.029977212649D-9,           149P    304
-5.100000368329D0,4.922649092568D0,1.029975952546D-9;                149P    305
124,-1D0,0D0,0D0,0D0,0D0,0D0,1D0,-4.922650861827D0,0D0,1D0,0D0,      151P    306
0D0;                                                                 151P    307
100,0D0,0D0,0D0,5.1D0,0D0,-5.1D0,0D0;                                153P    308
110,5.100000368329D0,-4.922649092568D0,-1.029977162689D-9,           155P    309
5.100000368329D0,4.922649092568D0,-1.029976157937D-9;                155P    310
124,-1D0,0D0,0D0,0D0,0D0,0D0,-1D0,4.922650861827D0,0D0,-1D0,0D0,     157P    311
0D0;                                                                 157P    312
100,0D0,0D0,0D0,5.1D0,0D0,-5.1D0,0D0;                                159P    313
124,1D0,0D0,0D0,0D0,0D0,0D0,1D0,-4.922650861827D0,0D0,-1D0,0D0,      161P    314
0D0;                                                                 161P    315
100,0D0,0D0,0D0,5.1D0,0D0,-5.1D0,0D0;                                163P    316
110,6.100000587400D0,-5.499998982149D0,-1.642577099355D-9,           165P    317
5.100000368329D0,-4.922649092568D0,-1.029977162689D-9;               165P    318
110,-6.100000587400D0,-5.499998982149D0,1.642577340956D-9,           167P    319
-5.100000368329D0,-4.922649092568D0,1.029977212649D-9;               167P    320
502,32,9D0,5.5D0,0D0,4.500000116114D0,5.5D0,-7.794228567021D0,       169P    321
-4.499999999929D0,5.5D0,-7.794228634101D0,-9D0,5.5D0,0D0,            169P    322
-4.500000099823D0,5.5D0,7.794228576427D0,4.499999999929D0,5.5D0,     169P    323
7.794228634101D0,-9D0,4.696152422707D0,5.196152422707D0,0D0,         169P    324
4.696152422707D0,1.039230484541D1,9D0,4.696152422707D0,              169P    325
5.196152422707D0,9D0,4.696152422707D0,-5.196152422707D0,0D0,         169P    326
4.696152422707D0,-1.039230484541D1,-9D0,4.696152422707D0,            169P    327
-5.196152422707D0,-9D0,-4.696152422707D0,5.196152422707D0,0D0,       169P    328
-4.696152422707D0,1.039230484541D1,9D0,-4.696152422707D0,            169P    329
5.196152422707D0,9D0,-4.696152422707D0,-5.196152422707D0,0D0,        169P    330
-4.696152422707D0,-1.039230484541D1,-9D0,-4.696152422707D0,          169P    331
-5.196152422707D0,9D0,-5.5D0,0D0,4.500000110768D0,-5.5D0,            169P    332
-7.794228570108D0,-4.499999999929D0,-5.5D0,-7.794228634101D0,        169P    333
-9D0,-5.5D0,0D0,-4.500000104661D0,-5.5D0,7.794228573634D0,           169P    334
4.499999999929D0,-5.5D0,7.794228634101D0,-6.099999143898D0,          169P    335
5.499997470249D0,0D0,6.099999143898D0,5.499997470249D0,0D0,          169P    336
-5.1D0,4.922650861827D0,0D0,5.1D0,4.922650861827D0,0D0,              169P    337
-6.099999143898D0,-5.499997470249D0,0D0,6.099999143898D0,            169P    338
-5.499997470249D0,0D0,-5.1D0,-4.922650861827D0,0D0,5.1D0,            169P    339
-4.922650861827D0,0D0;                                               169P    340
504,56,111,169,1,169,2,131,169,2,169,3,127,169,3,169,4,123,169,      171P    341
4,169,5,119,169,5,169,6,115,169,6,169,1,89,169,7,169,5,91,169,5,     171P    342
169,8,99,169,8,169,6,101,169,6,169,9,49,169,1,169,10,57,169,9,       171P    343
169,1,59,169,10,169,2,61,169,2,169,11,69,169,11,169,3,71,169,3,      171P    344
169,12,79,169,12,169,4,81,169,4,169,7,97,169,13,169,7,107,169,       171P    345
14,169,8,55,169,15,169,9,67,169,16,169,10,77,169,17,169,11,87,       171P    346
169,18,169,12,19,169,19,169,20,23,169,20,169,21,27,169,21,169,       171P    347
22,31,169,22,169,23,35,169,23,169,24,39,169,24,169,19,95,169,13,     171P    348
169,23,93,169,23,169,14,105,169,14,169,24,103,169,24,169,15,51,      171P    349
169,19,169,16,53,169,15,169,19,65,169,16,169,20,63,169,20,169,       171P    350
17,75,169,17,169,21,73,169,21,169,18,85,169,18,169,22,83,169,22,     171P    351
169,13,135,169,25,169,26,159,169,27,169,28,139,169,26,169,25,        171P    352
147,169,28,169,27,43,169,29,169,30,153,169,31,169,32,47,169,30,      171P    353
169,29,163,169,32,169,31,155,169,32,169,28,149,169,31,169,27,        171P    354
143,169,26,169,28,141,169,25,169,27,165,169,30,169,32,167,169,       171P    355
29,169,31;                                                           171P    356
128,1,1,1,1,0,0,1,0,0,-9.36D0,-9.36D0,9.36D0,9.36D0,                 173P    357
-9.360000000011D0,-9.360000000011D0,9.360000000011D0,                173P    358
9.360000000011D0,1D0,1D0,1D0,1D0,9.360000000011D0,-5.5D0,9.36D0,     173P    359
9.360000000011D0,-5.5D0,-9.36D0,-9.360000000011D0,-5.5D0,9.36D0,     173P    360
-9.360000000011D0,-5.5D0,-9.36D0,-9.36D0,9.36D0,                     173P    361
-9.360000000011D0,9.360000000011D0;                                  173P    362
508,6,0,171,25,1,0,0,171,26,1,0,0,171,27,1,0,0,171,28,1,0,0,171,     175P    363
29,1,0,0,171,30,1,0;                                                 175P    364
508,2,0,171,47,0,0,0,171,49,0,0;                                     177P    365
510,173,2,0,175,177;                                                 179P    366
110,0D0,-1.069615242271D1,0D0,0D0,-9.696152422707D0,0D0;             181P    367
110,8.967384051740D0,-5.518830826508D0,0D0,1.042492079367D1,         183P    368
-4.677321596199D0,0D0;                                               183P    369
120,181,183,-6.283185307180D-2,3.204424506662D0;                     185P    370
508,3,0,171,35,1,0,0,171,37,1,0,0,171,25,0,0;                        187P    371
510,185,1,0,187;                                                     189P    372
110,0D0,-1.069615242271D1,0D0,0D0,-9.696152422707D0,0D0;             191P    373
110,8.967384051740D0,-5.518830826508D0,0D0,1.042492079367D1,         193P    374
-4.677321596199D0,0D0;                                               193P    375
120,191,193,-6.283185307180D-2,3.204424506662D0;                     195P    376
508,3,0,171,38,1,0,0,171,39,1,0,0,171,26,0,0;                        197P    377
510,195,1,0,197;                                                     199P    378
110,0D0,-1.069615242271D1,0D0,0D0,-9.696152422707D0,0D0;             201P    379
110,8.967384051740D0,-5.518830826508D0,0D0,1.042492079367D1,         203P    380
-4.677321596199D0,0D0;                                               203P    381
120,201,203,-6.283185307180D-2,3.204424506662D0;                     205P    382
508,3,0,171,40,1,0,0,171,41,1,0,0,171,27,0,0;                        207P    383
510,205,1,0,207;                                                     209P    384
128,1,1,1,1,0,0,1,0,0,-2.078460969083D-1,-2.078460969083D-1,         211P    385
1.060015094232D1,1.060015094232D1,-2.200000032884D-1,                211P    386
-2.200000032884D-1,1.122000000012D1,1.122000000012D1,1D0,1D0,        211P    387
1D0,1D0,9D0,-5.720000003288D0,5.403998519615D0,9D0,                  211P    388
-5.720000003288D0,-5.403998519615D0,9D0,5.720000000120D0,            211P    389
5.403998519615D0,9D0,5.720000000120D0,-5.403998519615D0,             211P    390
-2.078460969083D-1,1.060015094232D1,-2.200000032884D-1,              211P    391
1.122000000012D1;                                                    211P    392
508,6,0,171,11,1,0,0,171,22,0,0,0,171,35,0,0,0,171,36,0,0,0,171,     213P    393
21,1,0,0,171,12,1,0;                                                 213P    394
510,211,1,0,213;                                                     215P    395
110,0D0,1.069615242271D1,0D0,0D0,1.169615242271D1,0D0;               217P    396
110,1.042492079367D1,4.677321596199D0,0D0,8.967384051740D0,          219P    397
5.518830826508D0,0D0;                                                219P    398
120,217,219,-6.283185306811D-2,3.204424506474D0;                     221P    399
508,3,0,171,13,0,0,0,171,11,0,0,0,171,1,1,0;                         223P    400
510,221,1,0,223;                                                     225P    401
110,0D0,1.069615242271D1,0D0,0D0,1.169615242271D1,0D0;               227P    402
110,1.042492079367D1,4.677321596199D0,0D0,8.967384051740D0,          229P    403
5.518830826508D0,0D0;                                                229P    404
120,227,229,-6.283185306811D-2,3.204424506474D0;                     231P    405
508,3,0,171,15,0,0,0,171,14,0,0,0,171,2,1,0;                         233P    406
510,231,1,0,233;                                                     235P    407
110,0D0,1.069615242271D1,0D0,0D0,1.169615242271D1,0D0;               237P    408
110,1.042492079367D1,4.677321596199D0,0D0,8.967384051740D0,          239P    409
5.518830826508D0,0D0;                                                239P    410
120,237,239,-6.283185306811D-2,3.204424506474D0;                     241P    411
508,3,0,171,17,0,0,0,171,16,0,0,0,171,3,1,0;                         243P    412
510,241,1,0,243;                                                     245P    413
128,1,1,1,1,0,0,1,0,0,-2.078460969083D-1,-2.078460969083D-1,         247P    414
1.060015094232D1,1.060015094232D1,-2.200000043580D-1,                247P    415
-2.200000043580D-1,1.122000000449D1,1.122000000449D1,1D0,1D0,        247P    416
1D0,1D0,9.18D0,-5.720000004358D0,-5.092229374252D0,-1.8D-1,          247P    417
-5.720000004358D0,-1.049622789387D1,9.18D0,5.720000004490D0,         247P    418
-5.092229374252D0,-1.8D-1,5.720000004490D0,-1.049622789387D1,        247P    419
-2.078460969083D-1,1.060015094232D1,-2.200000043580D-1,              247P    420
1.122000000449D1;                                                    247P    421
508,6,0,171,13,1,0,0,171,14,1,0,0,171,23,0,0,0,171,38,0,0,0,171,     249P    422
37,0,0,0,171,22,1,0;                                                 249P    423
510,247,1,0,249;                                                     251P    424
128,1,1,1,1,0,0,1,0,0,-2.078460969083D-1,-2.078460969083D-1,         253P    425
1.060015094232D1,1.060015094232D1,-2.200000000818D-1,                253P    426
-2.200000000818D-1,1.122000000397D1,1.122000000397D1,1D0,1D0,        253P    427
1D0,1D0,1.8D-1,-5.720000000082D0,-1.049622789387D1,-9.18D0,          253P    428
-5.720000000082D0,-5.092229374252D0,1.8D-1,5.720000003972D0,         253P    429
-1.049622789387D1,-9.18D0,5.720000003972D0,-5.092229374252D0,        253P    430
-2.078460969083D-1,1.060015094232D1,-2.200000000818D-1,              253P    431
1.122000000397D1;                                                    253P    432
508,6,0,171,15,1,0,0,171,16,1,0,0,171,24,0,0,0,171,40,0,0,0,171,     255P    433
39,0,0,0,171,23,1,0;                                                 255P    434
510,253,1,0,255;                                                     257P    435
128,1,1,1,1,0,0,1,0,0,-2.078460969083D-1,-2.078460969083D-1,         259P    436
1.060015094232D1,1.060015094232D1,-2.200000001200D-1,                259P    437
-2.200000001200D-1,1.122000000329D1,1.122000000329D1,1D0,1D0,        259P    438
1D0,1D0,-9D0,-5.720000000120D0,-5.403998519615D0,-9D0,               259P    439
-5.720000000120D0,5.403998519615D0,-9D0,5.720000003288D0,            259P    440
-5.403998519615D0,-9D0,5.720000003288D0,5.403998519615D0,            259P    441
-2.078460969083D-1,1.060015094232D1,-2.200000001200D-1,              259P    442
1.122000000329D1;                                                    259P    443
508,6,0,171,17,1,0,0,171,18,1,0,0,171,19,0,0,0,171,42,0,0,0,171,     261P    444
41,0,0,0,171,24,1,0;                                                 261P    445
510,259,1,0,261;                                                     263P    446
110,0D0,1.069615242271D1,0D0,0D0,1.169615242271D1,0D0;               265P    447
110,1.042492079367D1,4.677321596199D0,0D0,8.967384051740D0,          267P    448
5.518830826508D0,0D0;                                                267P    449
120,265,267,-3.204424506658D0,6.283185288385D-2;                     269P    450
508,3,0,171,7,0,0,0,171,18,0,0,0,171,4,1,0;                          271P    451
510,269,1,0,271;                                                     273P    452
110,0D0,1.069615242271D1,0D0,0D0,1.169615242271D1,0D0;               275P    453
110,1.042492079367D1,4.677321596199D0,0D0,8.967384051740D0,          277P    454
5.518830826508D0,0D0;                                                277P    455
120,275,277,-3.204424506658D0,6.283185288385D-2;                     279P    456
508,3,0,171,9,0,0,0,171,8,0,0,0,171,5,1,0;                           281P    457
510,279,1,0,281;                                                     283P    458
110,0D0,1.069615242271D1,0D0,0D0,1.169615242271D1,0D0;               285P    459
110,1.042492079367D1,4.677321596199D0,0D0,8.967384051740D0,          287P    460
5.518830826508D0,0D0;                                                287P    461
120,285,287,-3.204424506658D0,6.283185288385D-2;                     289P    462
508,3,0,171,12,0,0,0,171,10,0,0,0,171,6,1,0;                         291P    463
510,289,1,0,291;                                                     293P    464
128,1,1,1,1,0,0,1,0,0,-2.078460969083D-1,-2.078460969083D-1,         295P    465
1.060015094232D1,1.060015094232D1,-2.200000000039D-1,                295P    466
-2.200000000039D-1,1.122000000001D1,1.122000000001D1,1D0,1D0,        295P    467
1D0,1D0,-9.18D0,-5.720000000004D0,5.092229374252D0,1.8D-1,           295P    468
-5.720000000004D0,1.049622789387D1,-9.18D0,5.720000000005D0,         295P    469
5.092229374252D0,1.8D-1,5.720000000005D0,1.049622789387D1,           295P    470
-2.078460969083D-1,1.060015094232D1,-2.200000000039D-1,              295P    471
1.122000000001D1;                                                    295P    472
508,6,0,171,7,1,0,0,171,8,1,0,0,171,20,0,0,0,171,32,0,0,0,171,       297P    473
31,0,0,0,171,19,1,0;                                                 297P    474
510,295,1,0,297;                                                     299P    475
128,1,1,1,1,0,0,1,0,0,-2.078460969083D-1,-2.078460969083D-1,         301P    476
1.060015094232D1,1.060015094232D1,-2.200000000042D-1,                301P    477
-2.200000000042D-1,1.122D1,1.122D1,1D0,1D0,1D0,1D0,-1.8D-1,          301P    478
-5.720000000004D0,1.049622789387D1,9.18D0,-5.720000000004D0,         301P    479
5.092229374252D0,-1.8D-1,5.720000000005D0,1.049622789387D1,          301P    480
9.18D0,5.720000000005D0,5.092229374252D0,-2.078460969083D-1,         301P    481
1.060015094232D1,-2.200000000042D-1,1.122D1;                         301P    482
508,6,0,171,9,1,0,0,171,10,1,0,0,171,21,0,0,0,171,34,0,0,0,171,      303P    483
33,0,0,0,171,20,1,0;                                                 303P    484
510,301,1,0,303;                                                     305P    485
110,0D0,-1.069615242271D1,0D0,0D0,-9.696152422707D0,0D0;             307P    486
110,8.967384051740D0,-5.518830826508D0,0D0,1.042492079367D1,         309P    487
-4.677321596199D0,0D0;                                               309P    488
120,307,309,-3.204424506662D0,6.283185307180D-2;                     311P    489
508,3,0,171,42,1,0,0,171,31,1,0,0,171,28,0,0;                        313P    490
510,311,1,0,313;                                                     315P    491
110,0D0,-1.069615242271D1,0D0,0D0,-9.696152422707D0,0D0;             317P    492
110,8.967384051740D0,-5.518830826508D0,0D0,1.042492079367D1,         319P    493
-4.677321596199D0,0D0;                                               319P    494
120,317,319,-3.204424506662D0,6.283185307180D-2;                     321P    495
508,3,0,171,32,1,0,0,171,33,1,0,0,171,29,0,0;                        323P    496
510,321,1,0,323;                                                     325P    497
110,0D0,-1.069615242271D1,0D0,0D0,-9.696152422707D0,0D0;             327P    498
110,8.967384051740D0,-5.518830826508D0,0D0,1.042492079367D1,         329P    499
-4.677321596199D0,0D0;                                               329P    500
120,327,329,-3.204424506662D0,6.283185307180D-2;                     331P    501
508,3,0,171,34,1,0,0,171,36,1,0,0,171,30,0,0;                        333P    502
510,331,1,0,333;                                                     335P    503
128,1,1,1,1,0,0,1,0,0,-9.36D0,-9.36D0,9.36D0,9.36D0,                 337P    504
-9.360000000011D0,-9.360000000011D0,9.360000000011D0,                337P    505
9.360000000011D0,1D0,1D0,1D0,1D0,9.360000000011D0,5.5D0,9.36D0,      337P    506
9.360000000011D0,5.5D0,-9.36D0,-9.360000000011D0,5.5D0,9.36D0,       337P    507
-9.360000000011D0,5.5D0,-9.36D0,-9.36D0,9.36D0,                      337P    508
-9.360000000011D0,9.360000000011D0;                                  337P    509
508,6,0,171,1,0,0,0,171,6,0,0,0,171,5,0,0,0,171,4,0,0,0,171,3,0,     339P    510
0,0,171,2,0,0;                                                       339P    511
508,2,0,171,43,0,0,0,171,45,0,0;                                     341P    512
510,337,2,0,339,341;                                                 343P    513
110,0D0,1.978163357943D0,0D0,0D0,2.978163357943D0,0D0;               345P    514
110,0D0,4.903816730192D0,-5.067383214813D0,0D0,5.518832520912D0,     347P    515
-6.132622427464D0;                                                   347P    516
120,345,347,-1.633628184340D0,1.633628185148D0;                      349P    517
508,4,0,171,43,1,0,0,171,53,1,0,0,171,44,0,0,0,171,54,0,0;           351P    518
510,349,1,0,351;                                                     353P    519
110,0D0,1.978163357943D0,0D0,0D0,2.978163357943D0,0D0;               355P    520
110,0D0,4.903816730192D0,-5.067383214813D0,0D0,5.518832520912D0,     357P    521
-6.132622427464D0;                                                   357P    522
120,355,357,1.507964469250D0,4.775220838738D0;                       359P    523
508,4,0,171,45,1,0,0,171,54,1,0,0,171,46,0,0,0,171,53,0,0;           361P    524
510,359,1,0,361;                                                     363P    525
110,0D0,-7.205D0,0D0,0D0,-6.205D0,0D0;                               365P    526
110,5.1D0,-5.119570540635D0,0D0,5.1D0,5.119570540635D0,0D0;          367P    527
120,365,367,-3.204424506662D0,6.283185307180D-2;                     369P    528
508,4,0,171,46,1,0,0,171,52,0,0,0,171,48,1,0,0,171,51,1,0;           371P    529
510,369,1,0,371;                                                     373P    530
110,0D0,-7.205D0,0D0,0D0,-6.205D0,0D0;                               375P    531
110,5.1D0,-5.119570540635D0,0D0,5.1D0,5.119570540635D0,0D0;          377P    532
120,375,377,-6.283185307180D-2,3.204424506662D0;                     379P    533
508,4,0,171,44,1,0,0,171,51,0,0,0,171,50,1,0,0,171,52,1,0;           381P    534
510,379,1,0,381;                                                     383P    535
110,0D0,-1.978163357943D0,0D0,0D0,-2.978163357943D0,0D0;             385P    536
110,0D0,-4.903816730192D0,-5.067383214813D0,0D0,                     387P    537
-5.518832520912D0,-6.132622427464D0;                                 387P    538
120,385,387,-1.633628185148D0,1.633628184340D0;                      389P    539
508,4,0,171,49,1,0,0,171,56,1,0,0,171,50,0,0,0,171,55,0,0;           391P    540
510,389,1,0,391;                                                     393P    541
110,0D0,-1.978163357943D0,0D0,0D0,-2.978163357943D0,0D0;             395P    542
110,0D0,-4.903816730192D0,-5.067383214813D0,0D0,                     397P    543
-5.518832520912D0,-6.132622427464D0;                                 397P    544
120,395,397,-4.775220838738D0,-1.507964469250D0;                     399P    545
508,4,0,171,47,1,0,0,171,55,1,0,0,171,48,0,0,0,171,56,0,0;           401P    546
510,399,1,0,401;                                                     403P    547
514,26,179,0,189,1,199,1,209,1,215,1,225,1,235,1,245,1,251,1,        405P    548
257,1,263,1,273,1,283,1,293,1,299,1,305,1,315,1,325,1,335,1,343,     405P    549
1,353,0,363,0,373,0,383,0,393,0,403,0;                               405P    550
124,1D0,0D0,0D0,0D0,0D0,0D0,1D0,-5.5D0,0D0,-1D0,0D0,0D0;             407P    551
100,0D0,0D0,0D0,6D0,0D0,-6D0,0D0;                                    409P    552
124,-1D0,0D0,0D0,0D0,0D0,0D0,-1D0,5.5D0,0D0,-1D0,0D0,0D0;            411P    553
100,0D0,0D0,0D0,6D0,0D0,-6D0,0D0;                                    413P    554
124,-1D0,0D0,0D0,0D0,0D0,0D0,1D0,-5.5D0,0D0,1D0,0D0,0D0;             415P    555
100,0D0,0D0,0D0,6D0,0D0,-6D0,0D0;                                    417P    556
110,6D0,5.5D0,0D0,6D0,-5.5D0,0D0;                                    419P    557
124,1D0,0D0,0D0,0D0,0D0,0D0,-1D0,5.5D0,0D0,1D0,0D0,0D0;              421P    558
100,0D0,0D0,0D0,6D0,0D0,-6D0,0D0;                                    423P    559
110,-6D0,5.5D0,0D0,-6D0,-5.5D0,0D0;                                  425P    560
502,4,6D0,-5.5D0,0D0,-6D0,-5.5D0,0D0,6D0,5.5D0,0D0,-6D0,5.5D0,       427P    561
0D0;                                                                 427P    562
504,6,409,427,1,427,2,413,427,3,427,4,417,427,2,427,1,423,427,4,     429P    563
427,3,419,427,3,427,1,425,427,4,427,2;                               429P    564
110,0D0,-7.205D0,0D0,0D0,-6.205D0,0D0;                               431P    565
110,6D0,-5.72D0,0D0,6D0,5.72D0,0D0;                                  433P    566
120,431,433,-6.283185307180D-2,3.204424506662D0;                     435P    567
508,4,0,429,1,1,0,0,429,6,0,0,0,429,2,0,0,0,429,5,1,0;               437P    568
510,435,1,0,437;                                                     439P    569
110,0D0,-7.205D0,0D0,0D0,-6.205D0,0D0;                               441P    570
110,6D0,-5.72D0,0D0,6D0,5.72D0,0D0;                                  443P    571
120,441,443,-3.204424506662D0,6.283185307180D-2;                     445P    572
508,4,0,429,3,1,0,0,429,5,0,0,0,429,4,0,0,0,429,6,1,0;               447P    573
510,445,1,0,447;                                                     449P    574
514,2,439,0,449,0;                                                   451P    575
186,405,1,0;                                                         453P    576
S      1G      4D    454P    576                                        T      1
