 PTC IGES file: nut-m20-iso_4034.igs                                    S      1
1H,,1H;,16HNUT-M20-ISO_4034,20Hnut-m20-iso_4034.igs,                    G      1
49HPro/ENGINEER by Parametric Technology Corporation,7H2007160,32,38,7, G      2
38,15,16HNUT-M20-ISO_4034,1.,2,2HMM,32768,0.5,15H20111214.161422,       G      3
0.00521899, 52.192,13HVladimir Zima,7HUnknown,10,0,15H20111214.161422;  G      4
     314       1       1       1       0       0       0       001000200D      1
     314       0       4       1       0                   COLOR       1D      2
     314       2       1       1       0       0       0       001000200D      3
     314       0       1       1       0                   COLOR       2D      4
     314       3       1       1       0       0       0       001000200D      5
     314       0       1       1       0                   COLOR       3D      6
     314       4       1       1       0       0       0       001000200D      7
     314       0       1       1       0                   COLOR       4D      8
     314       5       1       1       0       0       0       001000200D      9
     314       0       8       1       0                   COLOR       5D     10
     314       6       1       1       0       0       0       001000200D     11
     314       0       8       1       0                   COLOR       6D     12
     314       7       1       1       0       0       0       001000200D     13
     314       0       5       1       0                   COLOR       7D     14
     314       8       1       1       0       0       0       001000200D     15
     314       0       8       1       0                   COLOR       8D     16
     124       9       1       1       0       0       0       001000000D     17
     124       0       0       1       0                   XFORM       1D     18
     100      10       1       1       0       0      17       001010000D     19
     100       0       0       1       0                     ARC       1D     20
     124      11       1       1       0       0       0       001000000D     21
     124       0       0       2       0                   XFORM       2D     22
     100      13       1       1       0       0      21       001010000D     23
     100       0       0       1       0                     ARC       2D     24
     124      14       1       1       0       0       0       001000000D     25
     124       0       0       2       0                   XFORM       3D     26
     100      16       1       1       0       0      25       001010000D     27
     100       0       0       1       0                     ARC       3D     28
     124      17       1       1       0       0       0       001000000D     29
     124       0       0       1       0                   XFORM       4D     30
     100      18       1       1       0       0      29       001010000D     31
     100       0       0       1       0                     ARC       4D     32
     124      19       1       1       0       0       0       001000000D     33
     124       0       0       2       0                   XFORM       5D     34
     100      21       1       1       0       0      33       001010000D     35
     100       0       0       1       0                     ARC       5D     36
     124      22       1       1       0       0       0       001000000D     37
     124       0       0       2       0                   XFORM       6D     38
     100      24       1       1       0       0      37       001010000D     39
     100       0       0       1       0                     ARC       6D     40
     124      25       1       1       0       0       0       001000000D     41
     124       0       0       2       0                   XFORM       7D     42
     100      27       1       1       0       0      41       001010000D     43
     100       0       0       1       0                     ARC       7D     44
     124      28       1       1       0       0       0       001000000D     45
     124       0       0       2       0                   XFORM       8D     46
     100      30       1       1       0       0      45       001010000D     47
     100       0       0       1       0                     ARC       8D     48
     126      31       1       1       0       0       0       001010000D     49
     126       0       0       8       0                B_SPLINE       1D     50
     126      39       1       1       0       0       0       001010000D     51
     126       0       0       8       0                B_SPLINE       2D     52
     126      47       1       1       0       0       0       001010000D     53
     126       0       0       8       0                B_SPLINE       3D     54
     110      55       1       1       0       0       0       001010000D     55
     110       0       0       2       0                    LINE       1D     56
     126      57       1       1       0       0       0       001010000D     57
     126       0       0       8       0                B_SPLINE       4D     58
     126      65       1       1       0       0       0       001010000D     59
     126       0       0      10       0                B_SPLINE       5D     60
     126      75       1       1       0       0       0       001010000D     61
     126       0       0      10       0                B_SPLINE       6D     62
     126      85       1       1       0       0       0       001010000D     63
     126       0       0      10       0                B_SPLINE       7D     64
     126      95       1       1       0       0       0       001010000D     65
     126       0       0      10       0                B_SPLINE       8D     66
     110     105       1       1       0       0       0       001010000D     67
     110       0       0       2       0                    LINE       2D     68
     126     107       1       1       0       0       0       001010000D     69
     126       0       0      10       0                B_SPLINE       9D     70
     126     117       1       1       0       0       0       001010000D     71
     126       0       0      10       0                B_SPLINE      10D     72
     126     127       1       1       0       0       0       001010000D     73
     126       0       0      10       0                B_SPLINE      11D     74
     126     137       1       1       0       0       0       001010000D     75
     126       0       0      10       0                B_SPLINE      12D     76
     110     147       1       1       0       0       0       001010000D     77
     110       0       0       2       0                    LINE       3D     78
     126     149       1       1       0       0       0       001010000D     79
     126       0       0       8       0                B_SPLINE      13D     80
     126     157       1       1       0       0       0       001010000D     81
     126       0       0       8       0                B_SPLINE      14D     82
     126     165       1       1       0       0       0       001010000D     83
     126       0       0       8       0                B_SPLINE      15D     84
     126     173       1       1       0       0       0       001010000D     85
     126       0       0       8       0                B_SPLINE      16D     86
     110     181       1       1       0       0       0       001010000D     87
     110       0       0       2       0                    LINE       4D     88
     126     183       1       1       0       0       0       001010000D     89
     126       0       0      10       0                B_SPLINE      17D     90
     126     193       1       1       0       0       0       001010000D     91
     126       0       0      10       0                B_SPLINE      18D     92
     126     203       1       1       0       0       0       001010000D     93
     126       0       0      10       0                B_SPLINE      19D     94
     126     213       1       1       0       0       0       001010000D     95
     126       0       0      10       0                B_SPLINE      20D     96
     110     223       1       1       0       0       0       001010000D     97
     110       0       0       2       0                    LINE       5D     98
     126     225       1       1       0       0       0       001010000D     99
     126       0       0      10       0                B_SPLINE      21D    100
     126     235       1       1       0       0       0       001010000D    101
     126       0       0      10       0                B_SPLINE      22D    102
     126     245       1       1       0       0       0       001010000D    103
     126       0       0      10       0                B_SPLINE      23D    104
     126     255       1       1       0       0       0       001010000D    105
     126       0       0      10       0                B_SPLINE      24D    106
     110     265       1       1       0       0       0       001010000D    107
     110       0       0       2       0                    LINE       6D    108
     124     267       1       1       0       0       0       001000000D    109
     124       0       0       1       0                   XFORM       9D    110
     100     268       1       1       0       0     109       001010000D    111
     100       0       0       1       0                     ARC       9D    112
     124     269       1       1       0       0       0       001000000D    113
     124       0       0       2       0                   XFORM      10D    114
     100     271       1       1       0       0     113       001010000D    115
     100       0       0       1       0                     ARC      10D    116
     124     272       1       1       0       0       0       001000000D    117
     124       0       0       2       0                   XFORM      11D    118
     100     274       1       1       0       0     117       001010000D    119
     100       0       0       1       0                     ARC      11D    120
     124     275       1       1       0       0       0       001000000D    121
     124       0       0       1       0                   XFORM      12D    122
     100     276       1       1       0       0     121       001010000D    123
     100       0       0       1       0                     ARC      12D    124
     124     277       1       1       0       0       0       001000000D    125
     124       0       0       2       0                   XFORM      13D    126
     100     279       1       1       0       0     125       001010000D    127
     100       0       0       1       0                     ARC      13D    128
     124     280       1       1       0       0       0       001000000D    129
     124       0       0       2       0                   XFORM      14D    130
     100     282       1       1       0       0     129       001010000D    131
     100       0       0       1       0                     ARC      14D    132
     124     283       1       1       0       0       0       001000000D    133
     124       0       0       2       0                   XFORM      15D    134
     100     285       1       1       0       0     133       001010000D    135
     100       0       0       1       0                     ARC      15D    136
     124     286       1       1       0       0       0       001000000D    137
     124       0       0       2       0                   XFORM      16D    138
     100     288       1       1       0       0     137       001010000D    139
     100       0       0       2       0                     ARC      16D    140
     110     290       1       1       0       0       0       001010000D    141
     110       0       0       2       0                    LINE       7D    142
     110     292       1       1       0       0       0       001010000D    143
     110       0       0       2       0                    LINE       8D    144
     124     294       1       1       0       0       0       001000000D    145
     124       0       0       2       0                   XFORM      17D    146
     100     296       1       1       0       0     145       001010000D    147
     100       0       0       1       0                     ARC      17D    148
     110     297       1       1       0       0       0       001010000D    149
     110       0       0       2       0                    LINE       9D    150
     124     299       1       1       0       0       0       001000000D    151
     124       0       0       2       0                   XFORM      18D    152
     100     301       1       1       0       0     151       001010000D    153
     100       0       0       1       0                     ARC      18D    154
     110     302       1       1       0       0       0       001010000D    155
     110       0       0       2       0                    LINE      10D    156
     124     304       1       1       0       0       0       001000000D    157
     124       0       0       2       0                   XFORM      19D    158
     100     306       1       1       0       0     157       001010000D    159
     100       0       0       1       0                     ARC      19D    160
     124     307       1       1       0       0       0       001000000D    161
     124       0       0       2       0                   XFORM      20D    162
     100     309       1       1       0       0     161       001010000D    163
     100       0       0       1       0                     ARC      20D    164
     110     310       1       1       0       0       0       001010000D    165
     110       0       0       2       0                    LINE      11D    166
     110     312       1       1       0       0       0       001010000D    167
     110       0       0       2       0                    LINE      12D    168
     502     314       1       1       0       0       0       001010000D    169
     502       0       0      20       1                  VERTEX       1D    170
     504     334       1       1       0       0       0       000010001D    171
     504       0       0      16       1                    EDGE       1D    172
     128     350       1       1       0       0       0       001010000D    173
     128       0       0       6       0                  SPLSRF       1D    174
     508     356       1       1       0       0       0       001010000D    175
     508       0       0       2       1                EDGELOOP       1D    176
     508     358       1       1       0       0       0       001010000D    177
     508       0       0       1       1                EDGELOOP       2D    178
     510     359       1       1       0       0       0       000010000D    179
     510       0       0       1       1                    FACE       1D    180
     110     360       1       1       0       0       0       001010000D    181
     110       0       0       1       0                    LINE      13D    182
     110     361       1       1       0       0       0       001010000D    183
     110       0       0       2       0                    LINE      14D    184
     120     363       1       1       0       0       0       001010000D    185
     120       0       0       1       0                    SREV       1D    186
     508     364       1       1       0       0       0       001010000D    187
     508       0       0       1       1                EDGELOOP       3D    188
     510     365       1       1       0       0       0       000010000D    189
     510       0       0       1       1                    FACE       2D    190
     110     366       1       1       0       0       0       001010000D    191
     110       0       0       1       0                    LINE      15D    192
     110     367       1       1       0       0       0       001010000D    193
     110       0       0       2       0                    LINE      16D    194
     120     369       1       1       0       0       0       001010000D    195
     120       0       0       1       0                    SREV       2D    196
     508     370       1       1       0       0       0       001010000D    197
     508       0       0       1       1                EDGELOOP       4D    198
     510     371       1       1       0       0       0       000010000D    199
     510       0       0       1       1                    FACE       3D    200
     110     372       1       1       0       0       0       001010000D    201
     110       0       0       1       0                    LINE      17D    202
     110     373       1       1       0       0       0       001010000D    203
     110       0       0       2       0                    LINE      18D    204
     120     375       1       1       0       0       0       001010000D    205
     120       0       0       1       0                    SREV       3D    206
     508     376       1       1       0       0       0       001010000D    207
     508       0       0       1       1                EDGELOOP       5D    208
     510     377       1       1       0       0       0       000010000D    209
     510       0       0       1       1                    FACE       4D    210
     128     378       1       1       0       0       0       001010000D    211
     128       0       0       8       0                  SPLSRF       2D    212
     508     386       1       1       0       0       0       001010000D    213
     508       0       0       2       1                EDGELOOP       6D    214
     510     388       1       1       0       0       0       000010000D    215
     510       0       0       1       1                    FACE       5D    216
     110     389       1       1       0       0       0       001010000D    217
     110       0       0       1       0                    LINE      19D    218
     110     390       1       1       0       0       0       001010000D    219
     110       0       0       2       0                    LINE      20D    220
     120     392       1       1       0       0       0       001010000D    221
     120       0       0       1       0                    SREV       4D    222
     508     393       1       1       0       0       0       001010000D    223
     508       0       0       1       1                EDGELOOP       7D    224
     510     394       1       1       0       0       0       000010000D    225
     510       0       0       1       1                    FACE       6D    226
     110     395       1       1       0       0       0       001010000D    227
     110       0       0       1       0                    LINE      21D    228
     110     396       1       1       0       0       0       001010000D    229
     110       0       0       2       0                    LINE      22D    230
     120     398       1       1       0       0       0       001010000D    231
     120       0       0       1       0                    SREV       5D    232
     508     399       1       1       0       0       0       001010000D    233
     508       0       0       1       1                EDGELOOP       8D    234
     510     400       1       1       0       0       0       000010000D    235
     510       0       0       1       1                    FACE       7D    236
     110     401       1       1       0       0       0       001010000D    237
     110       0       0       1       0                    LINE      23D    238
     110     402       1       1       0       0       0       001010000D    239
     110       0       0       2       0                    LINE      24D    240
     120     404       1       1       0       0       0       001010000D    241
     120       0       0       1       0                    SREV       6D    242
     508     405       1       1       0       0       0       001010000D    243
     508       0       0       1       1                EDGELOOP       9D    244
     510     406       1       1       0       0       0       000010000D    245
     510       0       0       1       1                    FACE       8D    246
     128     407       1       1       0       0       0       001010000D    247
     128       0       0       7       0                  SPLSRF       3D    248
     508     414       1       1       0       0       0       001010000D    249
     508       0       0       2       1                EDGELOOP      10D    250
     510     416       1       1       0       0       0       000010000D    251
     510       0       0       1       1                    FACE       9D    252
     128     417       1       1       0       0       0       001010000D    253
     128       0       0       7       0                  SPLSRF       4D    254
     508     424       1       1       0       0       0       001010000D    255
     508       0       0       2       1                EDGELOOP      11D    256
     510     426       1       1       0       0       0       000010000D    257
     510       0       0       1       1                    FACE      10D    258
     128     427       1       1       0       0       0       001010000D    259
     128       0       0       8       0                  SPLSRF       5D    260
     508     435       1       1       0       0       0       001010000D    261
     508       0       0       2       1                EDGELOOP      12D    262
     510     437       1       1       0       0       0       000010000D    263
     510       0       0       1       1                    FACE      11D    264
     110     438       1       1       0       0       0       001010000D    265
     110       0       0       1       0                    LINE      25D    266
     110     439       1       1       0       0       0       001010000D    267
     110       0       0       2       0                    LINE      26D    268
     120     441       1       1       0       0       0       001010000D    269
     120       0       0       1       0                    SREV       7D    270
     508     442       1       1       0       0       0       001010000D    271
     508       0       0       1       1                EDGELOOP      13D    272
     510     443       1       1       0       0       0       000010000D    273
     510       0       0       1       1                    FACE      12D    274
     110     444       1       1       0       0       0       001010000D    275
     110       0       0       1       0                    LINE      27D    276
     110     445       1       1       0       0       0       001010000D    277
     110       0       0       2       0                    LINE      28D    278
     120     447       1       1       0       0       0       001010000D    279
     120       0       0       1       0                    SREV       8D    280
     508     448       1       1       0       0       0       001010000D    281
     508       0       0       1       1                EDGELOOP      14D    282
     510     449       1       1       0       0       0       000010000D    283
     510       0       0       1       1                    FACE      13D    284
     110     450       1       1       0       0       0       001010000D    285
     110       0       0       1       0                    LINE      29D    286
     110     451       1       1       0       0       0       001010000D    287
     110       0       0       2       0                    LINE      30D    288
     120     453       1       1       0       0       0       001010000D    289
     120       0       0       1       0                    SREV       9D    290
     508     454       1       1       0       0       0       001010000D    291
     508       0       0       1       1                EDGELOOP      15D    292
     510     455       1       1       0       0       0       000010000D    293
     510       0       0       1       1                    FACE      14D    294
     128     456       1       1       0       0       0       001010000D    295
     128       0       0       7       0                  SPLSRF       6D    296
     508     463       1       1       0       0       0       001010000D    297
     508       0       0       2       1                EDGELOOP      16D    298
     510     465       1       1       0       0       0       000010000D    299
     510       0       0       1       1                    FACE      15D    300
     128     466       1       1       0       0       0       001010000D    301
     128       0       0       7       0                  SPLSRF       7D    302
     508     473       1       1       0       0       0       001010000D    303
     508       0       0       2       1                EDGELOOP      17D    304
     510     475       1       1       0       0       0       000010000D    305
     510       0       0       1       1                    FACE      16D    306
     110     476       1       1       0       0       0       001010000D    307
     110       0       0       1       0                    LINE      31D    308
     110     477       1       1       0       0       0       001010000D    309
     110       0       0       2       0                    LINE      32D    310
     120     479       1       1       0       0       0       001010000D    311
     120       0       0       1       0                    SREV      10D    312
     508     480       1       1       0       0       0       001010000D    313
     508       0       0       1       1                EDGELOOP      18D    314
     510     481       1       1       0       0       0       000010000D    315
     510       0       0       1       1                    FACE      17D    316
     110     482       1       1       0       0       0       001010000D    317
     110       0       0       1       0                    LINE      33D    318
     110     483       1       1       0       0       0       001010000D    319
     110       0       0       2       0                    LINE      34D    320
     120     485       1       1       0       0       0       001010000D    321
     120       0       0       1       0                    SREV      11D    322
     508     486       1       1       0       0       0       001010000D    323
     508       0       0       1       1                EDGELOOP      19D    324
     510     487       1       1       0       0       0       000010000D    325
     510       0       0       1       1                    FACE      18D    326
     110     488       1       1       0       0       0       001010000D    327
     110       0       0       1       0                    LINE      35D    328
     110     489       1       1       0       0       0       001010000D    329
     110       0       0       2       0                    LINE      36D    330
     120     491       1       1       0       0       0       001010000D    331
     120       0       0       1       0                    SREV      12D    332
     508     492       1       1       0       0       0       001010000D    333
     508       0       0       1       1                EDGELOOP      20D    334
     510     493       1       1       0       0       0       000010000D    335
     510       0       0       1       1                    FACE      19D    336
     128     494       1       1       0       0       0       001010000D    337
     128       0       0       6       0                  SPLSRF       8D    338
     508     500       1       1       0       0       0       001010000D    339
     508       0       0       2       1                EDGELOOP      21D    340
     508     502       1       1       0       0       0       001010000D    341
     508       0       0       1       1                EDGELOOP      22D    342
     510     503       1       1       0       0       0       000010000D    343
     510       0       0       1       1                    FACE      20D    344
     110     504       1       1       0       0       0       001010000D    345
     110       0       0       1       0                    LINE      37D    346
     110     505       1       1       0       0       0       001010000D    347
     110       0       0       2       0                    LINE      38D    348
     120     507       1       1       0       0       0       001010000D    349
     120       0       0       1       0                    SREV      13D    350
     508     508       1       1       0       0       0       001010000D    351
     508       0       0       1       1                EDGELOOP      23D    352
     510     509       1       1       0       0       0       000010000D    353
     510       0       0       1       1                    FACE      21D    354
     110     510       1       1       0       0       0       001010000D    355
     110       0       0       1       0                    LINE      39D    356
     110     511       1       1       0       0       0       001010000D    357
     110       0       0       2       0                    LINE      40D    358
     120     513       1       1       0       0       0       001010000D    359
     120       0       0       1       0                    SREV      14D    360
     508     514       1       1       0       0       0       001010000D    361
     508       0       0       1       1                EDGELOOP      24D    362
     510     515       1       1       0       0       0       000010000D    363
     510       0       0       1       1                    FACE      22D    364
     110     516       1       1       0       0       0       001010000D    365
     110       0       0       1       0                    LINE      41D    366
     110     517       1       1       0       0       0       001010000D    367
     110       0       0       1       0                    LINE      42D    368
     120     518       1       1       0       0       0       001010000D    369
     120       0       0       1       0                    SREV      15D    370
     508     519       1       1       0       0       0       001010000D    371
     508       0       0       1       1                EDGELOOP      25D    372
     510     520       1       1       0       0       0       000010000D    373
     510       0       0       1       1                    FACE      23D    374
     110     521       1       1       0       0       0       001010000D    375
     110       0       0       1       0                    LINE      43D    376
     110     522       1       1       0       0       0       001010000D    377
     110       0       0       1       0                    LINE      44D    378
     120     523       1       1       0       0       0       001010000D    379
     120       0       0       1       0                    SREV      16D    380
     508     524       1       1       0       0       0       001010000D    381
     508       0       0       1       1                EDGELOOP      26D    382
     510     525       1       1       0       0       0       000010000D    383
     510       0       0       1       1                    FACE      24D    384
     110     526       1       1       0       0       0       001010000D    385
     110       0       0       1       0                    LINE      45D    386
     110     527       1       1       0       0       0       001010000D    387
     110       0       0       2       0                    LINE      46D    388
     120     529       1       1       0       0       0       001010000D    389
     120       0       0       1       0                    SREV      17D    390
     508     530       1       1       0       0       0       001010000D    391
     508       0       0       1       1                EDGELOOP      27D    392
     510     531       1       1       0       0       0       000010000D    393
     510       0       0       1       1                    FACE      25D    394
     110     532       1       1       0       0       0       001010000D    395
     110       0       0       1       0                    LINE      47D    396
     110     533       1       1       0       0       0       001010000D    397
     110       0       0       2       0                    LINE      48D    398
     120     535       1       1       0       0       0       001010000D    399
     120       0       0       1       0                    SREV      18D    400
     508     536       1       1       0       0       0       001010000D    401
     508       0       0       1       1                EDGELOOP      28D    402
     510     537       1       1       0       0       0       000010000D    403
     510       0       0       1       1                    FACE      26D    404
     514     538       1       1       0       0       0       000010000D    405
     514       0       0       3       1                   SHELL       1D    406
     124     541       1       1       0       0       0       001000000D    407
     124       0       0       1       0                   XFORM      21D    408
     100     542       1       1       0       0     407       001010000D    409
     100       0       0       1       0                     ARC      21D    410
     124     543       1       1       0       0       0       001000000D    411
     124       0       0       1       0                   XFORM      22D    412
     100     544       1       1       0       0     411       001010000D    413
     100       0       0       1       0                     ARC      22D    414
     124     545       1       1       0       0       0       001000000D    415
     124       0       0       1       0                   XFORM      23D    416
     100     546       1       1       0       0     415       001010000D    417
     100       0       0       1       0                     ARC      23D    418
     110     547       1       1       0       0       0       001010000D    419
     110       0       0       1       0                    LINE      49D    420
     124     548       1       1       0       0       0       001000000D    421
     124       0       0       1       0                   XFORM      24D    422
     100     549       1       1       0       0     421       001010000D    423
     100       0       0       1       0                     ARC      24D    424
     110     550       1       1       0       0       0       001010000D    425
     110       0       0       1       0                    LINE      50D    426
     502     551       1       1       0       0       0       001010000D    427
     502       0       0       1       1                  VERTEX       2D    428
     504     552       1       1       0       0       0       000010001D    429
     504       0       0       2       1                    EDGE       2D    430
     110     554       1       1       0       0       0       001010000D    431
     110       0       0       1       0                    LINE      51D    432
     110     555       1       1       0       0       0       001010000D    433
     110       0       0       1       0                    LINE      52D    434
     120     556       1       1       0       0       0       001010000D    435
     120       0       0       1       0                    SREV      19D    436
     508     557       1       1       0       0       0       001010000D    437
     508       0       0       1       1                EDGELOOP      29D    438
     510     558       1       1       0       0       0       000010000D    439
     510       0       0       1       1                    FACE      27D    440
     110     559       1       1       0       0       0       001010000D    441
     110       0       0       1       0                    LINE      53D    442
     110     560       1       1       0       0       0       001010000D    443
     110       0       0       1       0                    LINE      54D    444
     120     561       1       1       0       0       0       001010000D    445
     120       0       0       1       0                    SREV      20D    446
     508     562       1       1       0       0       0       001010000D    447
     508       0       0       1       1                EDGELOOP      30D    448
     510     563       1       1       0       0       0       000010000D    449
     510       0       0       1       1                    FACE      28D    450
     514     564       1       1       0       0       0       000000000D    451
     514       0       0       1       1                   SHELL       2D    452
     186     565       1       1       0       0       0       000000000D    453
     186       0       0       1       0                    MSBR       1D    454
314,1.1D0,1.2D0,1D2;                                                   1P      1
314,1.1D1,1.1D1,1.1D1;                                                 3P      2
314,3.92D1,1.2D0,1.2D0;                                                5P      3
314,4.1D1,0D0,2.2D1;                                                   7P      4
314,8.784D1,9.49D1,1D2;                                                9P      5
314,9.6D1,9.6D1,9.6D1;                                                11P      6
314,9.8D1,6.27D1,0D0;                                                 13P      7
314,1D2,1D2,9.49D1;                                                   15P      8
124,1D0,0D0,0D0,0D0,0D0,0D0,1D0,-9D0,0D0,-1D0,0D0,0D0;                17P      9
100,0D0,0D0,0D0,1.5D1,0D0,7.500000000095D0,1.299038105671D1;          19P     10
124,5.000000000063D-1,-8.660254037808D-1,0D0,0D0,0D0,0D0,1D0,         21P     11
-9D0,-8.660254037808D-1,-5.000000000063D-1,0D0,0D0;                   21P     12
100,0D0,0D0,0D0,1.5D1,0D0,7.500000000024D0,1.299038105675D1;          23P     13
124,-4.999999999921D-1,-8.660254037890D-1,0D0,0D0,0D0,0D0,1D0,        25P     14
-9D0,-8.660254037890D-1,4.999999999921D-1,0D0,0D0;                    25P     15
100,0D0,0D0,0D0,1.5D1,0D0,7.499999999881D0,1.299038105684D1;          27P     16
124,-1D0,0D0,0D0,0D0,0D0,0D0,1D0,-9D0,0D0,1D0,0D0,0D0;                29P     17
100,0D0,0D0,0D0,1.5D1,0D0,7.500000000095D0,1.299038105671D1;          31P     18
124,-5.000000000063D-1,8.660254037808D-1,0D0,0D0,0D0,0D0,1D0,         33P     19
-9D0,8.660254037808D-1,5.000000000063D-1,0D0,0D0;                     33P     20
100,0D0,0D0,0D0,1.5D1,0D0,7.500000000024D0,1.299038105675D1;          35P     21
124,4.999999999921D-1,8.660254037890D-1,0D0,0D0,0D0,0D0,1D0,          37P     22
-9D0,8.660254037890D-1,-4.999999999921D-1,0D0,0D0;                    37P     23
100,0D0,0D0,0D0,1.5D1,0D0,7.499999999881D0,1.299038105684D1;          39P     24
124,-1D0,0D0,0D0,0D0,0D0,0D0,1D0,-8.999995832626D0,0D0,1D0,0D0,       41P     25
0D0;                                                                  41P     26
100,0D0,0D0,0D0,1.024999863887D1,0D0,-1.024999863887D1,0D0;           43P     27
124,1D0,0D0,0D0,0D0,0D0,0D0,1D0,-8.999995832626D0,0D0,-1D0,0D0,       45P     28
0D0;                                                                  45P     29
100,0D0,0D0,0D0,1.024999863887D1,0D0,-1.024999863887D1,0D0;           47P     30
126,7,3,0,0,1,0,0D0,0D0,0D0,0D0,2D-1,4D-1,6D-1,8D-1,1D0,1D0,1D0,      49P     31
1D0,1D0,1D0,1D0,1D0,1D0,1D0,1D0,1D0,1.5D1,9.000000000023D0,           49P     32
3.405666217373D-9,1.5D1,8.999999994194D0,-5.721302800407D-1,          49P     33
1.5D1,8.962048870028D0,-1.715470448270D0,1.5D1,8.794420082718D0,      49P     34
-3.425952781827D0,1.5D1,8.522109367255D0,-5.137213116274D0,           49P     35
1.5D1,8.151916417611D0,-6.860948053755D0,1.5D1,7.835007977181D0,      49P     36
-8.054888634338D0,1.5D1,7.660254037844D0,-8.660254037844D0,0D0,       49P     37
1D0,0D0,0D0,1D0;                                                      49P     38
126,7,3,0,0,1,0,0D0,0D0,0D0,0D0,2D-1,4D-1,6D-1,8D-1,1D0,1D0,1D0,      51P     39
1D0,1D0,1D0,1D0,1D0,1D0,1D0,1D0,1D0,1.5D1,-9.000000001014D0,          51P     40
3.013531742288D-8,1.5D1,-9.000000001014D0,-5.721302563296D-1,         51P     41
1.5D1,-8.962048875768D0,-1.715470296323D0,1.5D1,                      51P     42
-8.794420093980D0,-3.425952715074D0,1.5D1,-8.522109377574D0,          51P     43
-5.137213059922D0,1.5D1,-8.151916424669D0,-6.860948027457D0,          51P     44
1.5D1,-7.835007979831D0,-8.054888625158D0,1.5D1,                      51P     45
-7.660254037844D0,-8.660254037844D0,0D0,1D0,0D0,0D0,1D0;              51P     46
126,7,3,0,0,1,0,0D0,0D0,0D0,0D0,2D-1,4D-1,6D-1,8D-1,1D0,1D0,1D0,      53P     47
1D0,1D0,1D0,1D0,1D0,1D0,1D0,1D0,1D0,1.5D1,-7.660254037844D0,          53P     48
8.660254037844D0,1.5D1,-7.836674889219D0,8.049114281653D0,1.5D1,      53P     49
-8.155594692552D0,6.846285246008D0,1.5D1,-8.525582715662D0,           53P     50
5.118755299059D0,1.5D1,-8.796406165489D0,3.409775003058D0,1.5D1,      53P     51
-8.962478802570D0,1.706285304225D0,1.5D1,-9.000000001014D0,           53P     52
5.687652309509D-1,1.5D1,-9.000000001014D0,3.013531742288D-8,0D0,      53P     53
1D0,0D0,0D0,1D0;                                                      53P     54
110,1.5D1,-7.660254037844D0,8.660254037844D0,1.5D1,                   55P     55
7.660254037844D0,8.660254037844D0;                                    55P     56
126,7,3,0,0,1,0,0D0,0D0,0D0,0D0,2D-1,4D-1,6D-1,8D-1,1D0,1D0,1D0,      57P     57
1D0,1D0,1D0,1D0,1D0,1D0,1D0,1D0,1D0,1.5D1,7.660254037844D0,           57P     58
8.660254037844D0,1.5D1,7.836674888847D0,8.049114282941D0,1.5D1,       57P     59
8.155594691507D0,6.846285250056D0,1.5D1,8.525582714436D0,             57P     60
5.118755305623D0,1.5D1,8.796406163169D0,3.409775017074D0,1.5D1,       57P     61
8.962478804632D0,1.706285307537D0,1.5D1,8.999999993930D0,             57P     62
5.687652724210D-1,1.5D1,9.000000000023D0,3.405666217373D-9,0D0,       57P     63
1D0,0D0,0D0,1D0;                                                      57P     64
126,7,3,0,0,1,0,0D0,0D0,0D0,0D0,2D-1,4D-1,6D-1,8D-1,1D0,1D0,1D0,      59P     65
1D0,1D0,1D0,1D0,1D0,1D0,1D0,1D0,1D0,1.5D1,7.660254037844D0,           59P     66
-8.660254037844D0,1.446665062773D1,7.838037161934D0,                  59P     67
-8.968183441495D0,1.341866380046D1,8.158602138886D0,                  59P     68
-9.573238918329D0,1.191980469446D1,8.528438105370D0,                  59P     69
-1.043860562666D1,1.044130108741D1,8.798052111056D0,                  59P     70
-1.129222008218D1,8.971081377266D0,8.962833298249D0,                  59P     71
-1.214105182760D1,7.990141869086D0,9.000000000001D0,                  59P     72
-1.270739751671D1,7.500000000042D0,9.000000000001D0,                  59P     73
-1.299038105674D1,0D0,1D0,0D0,0D0,1D0;                                59P     74
126,7,3,0,0,1,0,0D0,0D0,0D0,0D0,2D-1,4D-1,6D-1,8D-1,1D0,1D0,1D0,      61P     75
1D0,1D0,1D0,1D0,1D0,1D0,1D0,1D0,1D0,7.500000000042D0,                 61P     76
9.000000000001D0,-1.299038105674D1,7.009729723825D0,                  61P     77
9.000000000001D0,-1.327343873269D1,6.028581197282D0,                  61P     78
8.962812633545D0,-1.383990509861D1,4.558222188133D0,                  61P     79
8.797985636872D0,-1.468881726834D1,3.079660916241D0,                  61P     80
8.528315368564D0,-1.554246501668D1,1.581397893438D0,                  61P     81
8.158611027792D0,-1.640748757622D1,5.333901164094D-1,                 61P     82
7.838050743314D0,-1.701255514840D1,0D0,7.660254037844D0,              61P     83
-1.732050807569D1,0D0,1D0,0D0,0D0,1D0;                                61P     84
126,7,3,0,0,1,0,0D0,0D0,0D0,0D0,2D-1,4D-1,6D-1,8D-1,1D0,1D0,1D0,      63P     85
1D0,1D0,1D0,1D0,1D0,1D0,1D0,1D0,1D0,7.500000000042D0,                 63P     86
-9.000000000001D0,-1.299038105674D1,7.009729723825D0,                 63P     87
-9.000000000001D0,-1.327343873269D1,6.028581197282D0,                 63P     88
-8.962812633545D0,-1.383990509861D1,4.558222188133D0,                 63P     89
-8.797985636872D0,-1.468881726834D1,3.079660916241D0,                 63P     90
-8.528315368564D0,-1.554246501668D1,1.581397893438D0,                 63P     91
-8.158611027792D0,-1.640748757622D1,5.333901164094D-1,                63P     92
-7.838050743314D0,-1.701255514840D1,0D0,-7.660254037844D0,            63P     93
-1.732050807569D1,0D0,1D0,0D0,0D0,1D0;                                63P     94
126,7,3,0,0,1,0,0D0,0D0,0D0,0D0,2D-1,4D-1,6D-1,8D-1,1D0,1D0,1D0,      65P     95
1D0,1D0,1D0,1D0,1D0,1D0,1D0,1D0,1D0,1.5D1,-7.660254037844D0,          65P     96
-8.660254037844D0,1.446665062773D1,-7.838037161934D0,                 65P     97
-8.968183441495D0,1.341866380046D1,-8.158602138886D0,                 65P     98
-9.573238918329D0,1.191980469446D1,-8.528438105370D0,                 65P     99
-1.043860562666D1,1.044130108741D1,-8.798052111056D0,                 65P    100
-1.129222008218D1,8.971081377266D0,-8.962833298249D0,                 65P    101
-1.214105182760D1,7.990141869086D0,-9.000000000001D0,                 65P    102
-1.270739751671D1,7.500000000042D0,-9.000000000001D0,                 65P    103
-1.299038105674D1,0D0,1D0,0D0,0D0,1D0;                                65P    104
110,1.5D1,-7.660254037844D0,-8.660254037844D0,1.5D1,                  67P    105
7.660254037844D0,-8.660254037844D0;                                   67P    106
126,7,3,0,0,1,0,0D0,0D0,0D0,0D0,2D-1,4D-1,6D-1,8D-1,1D0,1D0,1D0,      69P    107
1D0,1D0,1D0,1D0,1D0,1D0,1D0,1D0,1D0,0D0,7.660254037844D0,             69P    108
-1.732050807569D1,-5.333493722680D-1,7.838037161934D0,                69P    109
-1.701257867204D1,-1.581336199541D0,8.158602138886D0,                 69P    110
-1.640752319520D1,-3.080195305542D0,8.528438105370D0,                 69P    111
-1.554215648688D1,-4.558698912587D0,8.798052111056D0,                 69P    112
-1.468854203135D1,-6.028918622736D0,8.962833298249D0,                 69P    113
-1.383971028593D1,-7.009858130910D0,9.000000000001D0,                 69P    114
-1.327336459683D1,-7.499999999955D0,9.000000000001D0,                 69P    115
-1.299038105680D1,0D0,1D0,0D0,0D0,1D0;                                69P    116
126,7,3,0,0,1,0,0D0,0D0,0D0,0D0,2D-1,4D-1,6D-1,8D-1,1D0,1D0,1D0,      71P    117
1D0,1D0,1D0,1D0,1D0,1D0,1D0,1D0,1D0,-7.499999999955D0,                71P    118
9.000000000001D0,-1.299038105680D1,-7.990270276171D0,                 71P    119
9.000000000001D0,-1.270732338085D1,-8.971418802720D0,                 71P    120
8.962812633545D0,-1.214085701492D1,-1.044177781187D1,                 71P    121
8.797985636872D0,-1.129194484519D1,-1.192033908376D1,                 71P    122
8.528315368564D0,-1.043829709685D1,-1.341860210656D1,                 71P    123
8.158611027792D0,-9.573274537317D0,-1.446660988359D1,                 71P    124
7.838050743314D0,-8.968206965136D0,-1.5D1,7.660254037844D0,           71P    125
-8.660254037844D0,0D0,1D0,0D0,0D0,1D0;                                71P    126
126,7,3,0,0,1,0,0D0,0D0,0D0,0D0,2D-1,4D-1,6D-1,8D-1,1D0,1D0,1D0,      73P    127
1D0,1D0,1D0,1D0,1D0,1D0,1D0,1D0,1D0,-7.499999999954D0,                73P    128
-9.000000000001D0,-1.299038105680D1,-7.990270276171D0,                73P    129
-9.000000000001D0,-1.270732338085D1,-8.971418802720D0,                73P    130
-8.962812633545D0,-1.214085701492D1,-1.044177781187D1,                73P    131
-8.797985636872D0,-1.129194484519D1,-1.192033908376D1,                73P    132
-8.528315368564D0,-1.043829709685D1,-1.341860210656D1,                73P    133
-8.158611027792D0,-9.573274537317D0,-1.446660988359D1,                73P    134
-7.838050743314D0,-8.968206965136D0,-1.5D1,-7.660254037844D0,         73P    135
-8.660254037844D0,0D0,1D0,0D0,0D0,1D0;                                73P    136
126,7,3,0,0,1,0,0D0,0D0,0D0,0D0,2D-1,4D-1,6D-1,8D-1,1D0,1D0,1D0,      75P    137
1D0,1D0,1D0,1D0,1D0,1D0,1D0,1D0,1D0,0D0,-7.660254037844D0,            75P    138
-1.732050807569D1,-5.333493722680D-1,-7.838037161934D0,               75P    139
-1.701257867204D1,-1.581336199541D0,-8.158602138886D0,                75P    140
-1.640752319520D1,-3.080195305542D0,-8.528438105370D0,                75P    141
-1.554215648688D1,-4.558698912587D0,-8.798052111056D0,                75P    142
-1.468854203135D1,-6.028918622736D0,-8.962833298249D0,                75P    143
-1.383971028593D1,-7.009858130910D0,-9.000000000001D0,                75P    144
-1.327336459683D1,-7.499999999954D0,-9.000000000001D0,                75P    145
-1.299038105680D1,0D0,1D0,0D0,0D0,1D0;                                75P    146
110,0D0,-7.660254037844D0,-1.732050807569D1,0D0,                      77P    147
7.660254037844D0,-1.732050807569D1;                                   77P    148
126,7,3,0,0,1,0,0D0,0D0,0D0,0D0,2D-1,4D-1,6D-1,8D-1,1D0,1D0,1D0,      79P    149
1D0,1D0,1D0,1D0,1D0,1D0,1D0,1D0,1D0,-1.5D1,7.660254037844D0,          79P    150
-8.660254037844D0,-1.5D1,7.836674889219D0,-8.049114281653D0,          79P    151
-1.5D1,8.155594692500D0,-6.846285246593D0,-1.5D1,                     79P    152
8.525582715841D0,-5.118755297012D0,-1.5D1,8.796406164823D0,           79P    153
-3.409775010661D0,-1.5D1,8.962478805054D0,-1.706285275857D0,          79P    154
-1.5D1,8.999999995662D0,-5.687652920736D-1,-1.5D1,                    79P    155
9.000000001014D0,-9.125809063981D-8,0D0,1D0,0D0,0D0,1D0;              79P    156
126,7,3,0,0,1,0,0D0,0D0,0D0,0D0,2D-1,4D-1,6D-1,8D-1,1D0,1D0,1D0,      81P    157
1D0,1D0,1D0,1D0,1D0,1D0,1D0,1D0,1D0,-1.5D1,9.000000001014D0,          81P    158
-9.125809063981D-8,-1.5D1,9.000000001014D0,5.721301952069D-1,         81P    159
-1.5D1,8.962048875768D0,1.715470324691D0,-1.5D1,                      81P    160
8.794420093980D0,3.425952707470D0,-1.5D1,8.522109377574D0,            81P    161
5.137213061969D0,-1.5D1,8.151916424669D0,6.860948026872D0,            81P    162
-1.5D1,7.835007979831D0,8.054888625158D0,-1.5D1,                      81P    163
7.660254037844D0,8.660254037844D0,0D0,1D0,0D0,0D0,1D0;                81P    164
126,7,3,0,0,1,0,0D0,0D0,0D0,0D0,2D-1,4D-1,6D-1,8D-1,1D0,1D0,1D0,      83P    165
1D0,1D0,1D0,1D0,1D0,1D0,1D0,1D0,1D0,-1.5D1,-9.000000000023D0,         83P    166
2.513211860380D-12,-1.5D1,-9.000000000023D0,5.721302261903D-1,        83P    167
-1.5D1,-8.962048876228D0,1.715470310311D0,-1.5D1,                     83P    168
-8.794420093857D0,3.425952711325D0,-1.5D1,-8.522109377607D0,          83P    169
5.137213060932D0,-1.5D1,-8.151916424660D0,6.860948027168D0,           83P    170
-1.5D1,-7.835007979831D0,8.054888625158D0,-1.5D1,                     83P    171
-7.660254037844D0,8.660254037844D0,0D0,1D0,0D0,0D0,1D0;               83P    172
126,7,3,0,0,1,0,0D0,0D0,0D0,0D0,2D-1,4D-1,6D-1,8D-1,1D0,1D0,1D0,      85P    173
1D0,1D0,1D0,1D0,1D0,1D0,1D0,1D0,1D0,-1.5D1,-7.660254037844D0,         85P    174
-8.660254037844D0,-1.5D1,-7.836674891675D0,-8.049114273147D0,         85P    175
-1.5D1,-8.155594698996D0,-6.846285221681D0,-1.5D1,                    85P    176
-8.525582725359D0,-5.118755247279D0,-1.5D1,-8.796406174863D0,         85P    177
-3.409774941794D0,-1.5D1,-8.962478811126D0,-1.706285165543D0,         85P    178
-1.5D1,-9.000000000023D0,-5.687652087429D-1,-1.5D1,                   85P    179
-9.000000000023D0,2.513211860380D-12,0D0,1D0,0D0,0D0,1D0;             85P    180
110,-1.5D1,-7.660254037844D0,-8.660254037844D0,-1.5D1,                87P    181
7.660254037844D0,-8.660254037844D0;                                   87P    182
126,7,3,0,0,1,0,0D0,0D0,0D0,0D0,2D-1,4D-1,6D-1,8D-1,1D0,1D0,1D0,      89P    183
1D0,1D0,1D0,1D0,1D0,1D0,1D0,1D0,1D0,-1.5D1,7.660254037844D0,          89P    184
8.660254037844D0,-1.446665062773D1,7.838037161934D0,                  89P    185
8.968183441495D0,-1.341866380046D1,8.158602138886D0,                  89P    186
9.573238918329D0,-1.191980469446D1,8.528438105370D0,                  89P    187
1.043860562666D1,-1.044130108741D1,8.798052111056D0,                  89P    188
1.129222008218D1,-8.971081377266D0,8.962833298249D0,                  89P    189
1.214105182760D1,-7.990141869086D0,9.000000000001D0,                  89P    190
1.270739751671D1,-7.500000000042D0,9.000000000001D0,                  89P    191
1.299038105674D1,0D0,1D0,0D0,0D0,1D0;                                 89P    192
126,7,3,0,0,1,0,0D0,0D0,0D0,0D0,2D-1,4D-1,6D-1,8D-1,1D0,1D0,1D0,      91P    193
1D0,1D0,1D0,1D0,1D0,1D0,1D0,1D0,1D0,-7.500000000042D0,                91P    194
9.000000000001D0,1.299038105674D1,-7.009729723825D0,                  91P    195
9.000000000001D0,1.327343873269D1,-6.028581197282D0,                  91P    196
8.962812633545D0,1.383990509861D1,-4.558222188133D0,                  91P    197
8.797985636872D0,1.468881726834D1,-3.079660916241D0,                  91P    198
8.528315368564D0,1.554246501668D1,-1.581397893438D0,                  91P    199
8.158611027792D0,1.640748757622D1,-5.333901164094D-1,                 91P    200
7.838050743314D0,1.701255514840D1,0D0,7.660254037844D0,               91P    201
1.732050807569D1,0D0,1D0,0D0,0D0,1D0;                                 91P    202
126,7,3,0,0,1,0,0D0,0D0,0D0,0D0,2D-1,4D-1,6D-1,8D-1,1D0,1D0,1D0,      93P    203
1D0,1D0,1D0,1D0,1D0,1D0,1D0,1D0,1D0,-7.500000000042D0,                93P    204
-9.000000000001D0,1.299038105674D1,-7.009729723825D0,                 93P    205
-9.000000000001D0,1.327343873269D1,-6.028581197282D0,                 93P    206
-8.962812633545D0,1.383990509861D1,-4.558222188133D0,                 93P    207
-8.797985636872D0,1.468881726834D1,-3.079660916241D0,                 93P    208
-8.528315368564D0,1.554246501668D1,-1.581397893438D0,                 93P    209
-8.158611027792D0,1.640748757622D1,-5.333901164094D-1,                93P    210
-7.838050743314D0,1.701255514840D1,0D0,-7.660254037844D0,             93P    211
1.732050807569D1,0D0,1D0,0D0,0D0,1D0;                                 93P    212
126,7,3,0,0,1,0,0D0,0D0,0D0,0D0,2D-1,4D-1,6D-1,8D-1,1D0,1D0,1D0,      95P    213
1D0,1D0,1D0,1D0,1D0,1D0,1D0,1D0,1D0,-1.5D1,-7.660254037844D0,         95P    214
8.660254037844D0,-1.446665062773D1,-7.838037161934D0,                 95P    215
8.968183441495D0,-1.341866380046D1,-8.158602138886D0,                 95P    216
9.573238918329D0,-1.191980469446D1,-8.528438105370D0,                 95P    217
1.043860562666D1,-1.044130108741D1,-8.798052111056D0,                 95P    218
1.129222008218D1,-8.971081377266D0,-8.962833298249D0,                 95P    219
1.214105182760D1,-7.990141869086D0,-9.000000000001D0,                 95P    220
1.270739751671D1,-7.500000000042D0,-9.000000000001D0,                 95P    221
1.299038105674D1,0D0,1D0,0D0,0D0,1D0;                                 95P    222
110,-1.5D1,-7.660254037844D0,8.660254037844D0,-1.5D1,                 97P    223
7.660254037844D0,8.660254037844D0;                                    97P    224
126,7,3,0,0,1,0,0D0,0D0,0D0,0D0,2D-1,4D-1,6D-1,8D-1,1D0,1D0,1D0,      99P    225
1D0,1D0,1D0,1D0,1D0,1D0,1D0,1D0,1D0,0D0,7.660254037844D0,             99P    226
1.732050807569D1,5.333493722680D-1,7.838037161934D0,                  99P    227
1.701257867204D1,1.581336199541D0,8.158602138886D0,                   99P    228
1.640752319520D1,3.080195305542D0,8.528438105370D0,                   99P    229
1.554215648688D1,4.558698912587D0,8.798052111056D0,                   99P    230
1.468854203135D1,6.028918622736D0,8.962833298249D0,                   99P    231
1.383971028593D1,7.009858130910D0,9.000000000001D0,                   99P    232
1.327336459683D1,7.499999999954D0,9.000000000001D0,                   99P    233
1.299038105680D1,0D0,1D0,0D0,0D0,1D0;                                 99P    234
126,7,3,0,0,1,0,0D0,0D0,0D0,0D0,2D-1,4D-1,6D-1,8D-1,1D0,1D0,1D0,     101P    235
1D0,1D0,1D0,1D0,1D0,1D0,1D0,1D0,1D0,7.499999999954D0,                101P    236
9.000000000001D0,1.299038105680D1,7.990270276171D0,                  101P    237
9.000000000001D0,1.270732338085D1,8.971418802720D0,                  101P    238
8.962812633545D0,1.214085701492D1,1.044177781187D1,                  101P    239
8.797985636872D0,1.129194484519D1,1.192033908376D1,                  101P    240
8.528315368564D0,1.043829709685D1,1.341860210656D1,                  101P    241
8.158611027792D0,9.573274537317D0,1.446660988359D1,                  101P    242
7.838050743314D0,8.968206965136D0,1.5D1,7.660254037844D0,            101P    243
8.660254037844D0,0D0,1D0,0D0,0D0,1D0;                                101P    244
126,7,3,0,0,1,0,0D0,0D0,0D0,0D0,2D-1,4D-1,6D-1,8D-1,1D0,1D0,1D0,     103P    245
1D0,1D0,1D0,1D0,1D0,1D0,1D0,1D0,1D0,7.499999999955D0,                103P    246
-9.000000000001D0,1.299038105680D1,7.990270276171D0,                 103P    247
-9.000000000001D0,1.270732338085D1,8.971418802720D0,                 103P    248
-8.962812633545D0,1.214085701492D1,1.044177781187D1,                 103P    249
-8.797985636872D0,1.129194484519D1,1.192033908376D1,                 103P    250
-8.528315368564D0,1.043829709685D1,1.341860210656D1,                 103P    251
-8.158611027792D0,9.573274537317D0,1.446660988359D1,                 103P    252
-7.838050743314D0,8.968206965136D0,1.5D1,-7.660254037844D0,          103P    253
8.660254037844D0,0D0,1D0,0D0,0D0,1D0;                                103P    254
126,7,3,0,0,1,0,0D0,0D0,0D0,0D0,2D-1,4D-1,6D-1,8D-1,1D0,1D0,1D0,     105P    255
1D0,1D0,1D0,1D0,1D0,1D0,1D0,1D0,1D0,0D0,-7.660254037844D0,           105P    256
1.732050807569D1,5.333493722680D-1,-7.838037161934D0,                105P    257
1.701257867204D1,1.581336199541D0,-8.158602138886D0,                 105P    258
1.640752319520D1,3.080195305542D0,-8.528438105370D0,                 105P    259
1.554215648688D1,4.558698912587D0,-8.798052111056D0,                 105P    260
1.468854203135D1,6.028918622736D0,-8.962833298249D0,                 105P    261
1.383971028593D1,7.009858130910D0,-9.000000000001D0,                 105P    262
1.327336459683D1,7.499999999955D0,-9.000000000001D0,                 105P    263
1.299038105680D1,0D0,1D0,0D0,0D0,1D0;                                105P    264
110,0D0,-7.660254037844D0,1.732050807569D1,0D0,7.660254037844D0,     107P    265
1.732050807569D1;                                                    107P    266
124,1D0,0D0,0D0,0D0,0D0,0D0,1D0,9D0,0D0,-1D0,0D0,0D0;                109P    267
100,0D0,0D0,0D0,1.5D1,0D0,7.500000000095D0,1.299038105671D1;         111P    268
124,4.999999999921D-1,8.660254037890D-1,0D0,0D0,0D0,0D0,1D0,9D0,     113P    269
8.660254037890D-1,-4.999999999921D-1,0D0,0D0;                        113P    270
100,0D0,0D0,0D0,1.5D1,0D0,7.499999999881D0,1.299038105684D1;         115P    271
124,-5.000000000063D-1,8.660254037808D-1,0D0,0D0,0D0,0D0,1D0,        117P    272
9D0,8.660254037808D-1,5.000000000063D-1,0D0,0D0;                     117P    273
100,0D0,0D0,0D0,1.5D1,0D0,7.500000000024D0,1.299038105675D1;         119P    274
124,-1D0,0D0,0D0,0D0,0D0,0D0,1D0,9D0,0D0,1D0,0D0,0D0;                121P    275
100,0D0,0D0,0D0,1.5D1,0D0,7.500000000095D0,1.299038105671D1;         123P    276
124,-4.999999999921D-1,-8.660254037890D-1,0D0,0D0,0D0,0D0,1D0,       125P    277
9D0,-8.660254037890D-1,4.999999999921D-1,0D0,0D0;                    125P    278
100,0D0,0D0,0D0,1.5D1,0D0,7.499999999881D0,1.299038105684D1;         127P    279
124,5.000000000063D-1,-8.660254037808D-1,0D0,0D0,0D0,0D0,1D0,        129P    280
9D0,-8.660254037808D-1,-5.000000000063D-1,0D0,0D0;                   129P    281
100,0D0,0D0,0D0,1.5D1,0D0,7.500000000024D0,1.299038105675D1;         131P    282
124,-1D0,0D0,0D0,0D0,0D0,0D0,-1D0,8.999995832626D0,0D0,-1D0,0D0,     133P    283
0D0;                                                                 133P    284
100,0D0,0D0,0D0,1.024999863887D1,0D0,-1.024999863887D1,0D0;          135P    285
124,1D0,0D0,0D0,0D0,0D0,0D0,-1D0,8.999995832626D0,0D0,1D0,0D0,       137P    286
0D0;                                                                 137P    287
100,0D0,0D0,0D0,1.024999863887D1,0D0,-1.024999863887D1,              139P    288
1.035904893898D-14;                                                  139P    289
110,-1.025000097586D1,8.999998309059D0,2.819707166634D-9,            141P    290
-8.750000624785D0,8.133973513601D0,1.805301564559D-9;                141P    291
110,1.025000097586D1,8.999998309059D0,-2.819709283235D-9,            143P    292
8.750000624785D0,8.133973513601D0,-1.805302105792D-9;                143P    293
124,1D0,0D0,0D0,0D0,0D0,0D0,-1D0,8.133976474167D0,0D0,1D0,0D0,       145P    294
0D0;                                                                 145P    295
100,0D0,0D0,0D0,8.75D0,0D0,-8.75D0,0D0;                              147P    296
110,-8.750000624785D0,-8.133973513601D0,1.805302716415D-9,           149P    297
-8.750000624785D0,8.133973513601D0,1.805301564559D-9;                149P    298
124,-1D0,0D0,0D0,0D0,0D0,0D0,1D0,-8.133976474167D0,0D0,1D0,0D0,      151P    299
0D0;                                                                 151P    300
100,0D0,0D0,0D0,8.75D0,0D0,-8.75D0,0D0;                              153P    301
110,8.750000624785D0,-8.133973513601D0,-1.805300468213D-9,           155P    302
8.750000624785D0,8.133973513601D0,-1.805302105792D-9;                155P    303
124,-1D0,0D0,0D0,0D0,0D0,0D0,-1D0,8.133976474167D0,0D0,-1D0,0D0,     157P    304
0D0;                                                                 157P    305
100,0D0,0D0,0D0,8.75D0,0D0,-8.75D0,0D0;                              159P    306
124,1D0,0D0,0D0,0D0,0D0,0D0,1D0,-8.133976474167D0,0D0,-1D0,0D0,      161P    307
0D0;                                                                 161P    308
100,0D0,0D0,0D0,8.75D0,0D0,-8.75D0,0D0;                              163P    309
110,1.025000097586D1,-8.999998309059D0,-2.819708080494D-9,           165P    310
8.750000624785D0,-8.133973513601D0,-1.805300468213D-9;               165P    311
110,-1.025000097586D1,-8.999998309059D0,2.819710645333D-9,           167P    312
-8.750000624785D0,-8.133973513601D0,1.805302716415D-9;               167P    313
502,32,1.5D1,9D0,0D0,7.500000000095D0,9D0,-1.299038105671D1,         169P    314
-7.499999999881D0,9D0,-1.299038105684D1,-1.5D1,9D0,0D0,              169P    315
-7.500000000095D0,9D0,1.299038105671D1,7.499999999881D0,9D0,         169P    316
1.299038105684D1,-1.5D1,7.660254037844D0,8.660254037844D0,0D0,       169P    317
7.660254037844D0,1.732050807569D1,1.5D1,7.660254037844D0,            169P    318
8.660254037844D0,1.5D1,7.660254037844D0,-8.660254037844D0,0D0,       169P    319
7.660254037844D0,-1.732050807569D1,-1.5D1,7.660254037844D0,          169P    320
-8.660254037844D0,-1.5D1,-7.660254037844D0,8.660254037844D0,0D0,     169P    321
-7.660254037844D0,1.732050807569D1,1.5D1,-7.660254037844D0,          169P    322
8.660254037844D0,1.5D1,-7.660254037844D0,-8.660254037844D0,0D0,      169P    323
-7.660254037844D0,-1.732050807569D1,-1.5D1,-7.660254037844D0,        169P    324
-8.660254037844D0,1.5D1,-9D0,0D0,7.500000000095D0,-9D0,              169P    325
-1.299038105671D1,-7.499999999881D0,-9D0,-1.299038105684D1,          169P    326
-1.5D1,-9D0,0D0,-7.500000000095D0,-9D0,1.299038105671D1,             169P    327
7.499999999881D0,-9D0,1.299038105684D1,-1.024999863887D1,            169P    328
8.999995832626D0,0D0,1.024999863887D1,8.999995832626D0,0D0,          169P    329
-8.75D0,8.133976474167D0,0D0,8.75D0,8.133976474167D0,0D0,            169P    330
-1.024999863887D1,-8.999995832626D0,0D0,1.024999863887D1,            169P    331
-8.999995832626D0,0D0,-8.75D0,-8.133976474167D0,0D0,8.75D0,          169P    332
-8.133976474167D0,0D0;                                               169P    333
504,56,111,169,1,169,2,131,169,2,169,3,127,169,3,169,4,123,169,      171P    334
4,169,5,119,169,5,169,6,115,169,6,169,1,89,169,7,169,5,91,169,5,     171P    335
169,8,99,169,8,169,6,101,169,6,169,9,49,169,1,169,10,57,169,9,       171P    336
169,1,59,169,10,169,2,61,169,2,169,11,69,169,11,169,3,71,169,3,      171P    337
169,12,79,169,12,169,4,81,169,4,169,7,97,169,13,169,7,107,169,       171P    338
14,169,8,55,169,15,169,9,67,169,16,169,10,77,169,17,169,11,87,       171P    339
169,18,169,12,19,169,19,169,20,23,169,20,169,21,27,169,21,169,       171P    340
22,31,169,22,169,23,35,169,23,169,24,39,169,24,169,19,95,169,13,     171P    341
169,23,93,169,23,169,14,105,169,14,169,24,103,169,24,169,15,51,      171P    342
169,19,169,16,53,169,15,169,19,65,169,16,169,20,63,169,20,169,       171P    343
17,75,169,17,169,21,73,169,21,169,18,85,169,18,169,22,83,169,22,     171P    344
169,13,135,169,25,169,26,159,169,27,169,28,139,169,26,169,25,        171P    345
147,169,28,169,27,43,169,29,169,30,153,169,31,169,32,47,169,30,      171P    346
169,29,163,169,32,169,31,155,169,32,169,28,149,169,31,169,27,        171P    347
143,169,26,169,28,141,169,25,169,27,165,169,30,169,32,167,169,       171P    348
29,169,31;                                                           171P    349
128,1,1,1,1,0,0,1,0,0,-1.56D1,-1.56D1,1.56D1,1.56D1,                 173P    350
-1.560000000002D1,-1.560000000002D1,1.560000000002D1,                173P    351
1.560000000002D1,1D0,1D0,1D0,1D0,1.560000000002D1,-9D0,1.56D1,       173P    352
1.560000000002D1,-9D0,-1.56D1,-1.560000000002D1,-9D0,1.56D1,         173P    353
-1.560000000002D1,-9D0,-1.56D1,-1.56D1,1.56D1,-1.560000000002D1,     173P    354
1.560000000002D1;                                                    173P    355
508,6,0,171,25,1,0,0,171,26,1,0,0,171,27,1,0,0,171,28,1,0,0,171,     175P    356
29,1,0,0,171,30,1,0;                                                 175P    357
508,2,0,171,47,0,0,0,171,49,0,0;                                     177P    358
510,173,2,0,175,177;                                                 179P    359
110,0D0,-1.766025403784D1,0D0,0D0,-1.666025403784D1,0D0;             181P    360
110,1.494576052897D1,-9.031315173203D0,0D0,1.737474754672D1,         183P    361
-7.628938864642D0,0D0;                                               183P    362
120,181,183,-6.283185307179D-2,3.204424506662D0;                     185P    363
508,3,0,171,35,1,0,0,171,37,1,0,0,171,25,0,0;                        187P    364
510,185,1,0,187;                                                     189P    365
110,0D0,-1.766025403784D1,0D0,0D0,-1.666025403784D1,0D0;             191P    366
110,1.494576052897D1,-9.031315173203D0,0D0,1.737474754672D1,         193P    367
-7.628938864642D0,0D0;                                               193P    368
120,191,193,-6.283185307179D-2,3.204424506662D0;                     195P    369
508,3,0,171,38,1,0,0,171,39,1,0,0,171,26,0,0;                        197P    370
510,195,1,0,197;                                                     199P    371
110,0D0,-1.766025403784D1,0D0,0D0,-1.666025403784D1,0D0;             201P    372
110,1.494576052897D1,-9.031315173203D0,0D0,1.737474754672D1,         203P    373
-7.628938864642D0,0D0;                                               203P    374
120,201,203,-6.283185307179D-2,3.204424506662D0;                     205P    375
508,3,0,171,40,1,0,0,171,41,1,0,0,171,27,0,0;                        207P    376
510,205,1,0,207;                                                     209P    377
128,1,1,1,1,0,0,1,0,0,-3.464101615138D-1,-3.464101615138D-1,         211P    378
1.766691823720D1,1.766691823720D1,-3.600000041390D-1,                211P    379
-3.600000041390D-1,1.836000000017D1,1.836000000017D1,1D0,1D0,        211P    380
1D0,1D0,1.5D1,-9.360000004139D0,9.006664199358D0,1.5D1,              211P    381
-9.360000004139D0,-9.006664199358D0,1.5D1,9.360000000174D0,          211P    382
9.006664199358D0,1.5D1,9.360000000174D0,-9.006664199358D0,           211P    383
-3.464101615138D-1,1.766691823720D1,-3.600000041390D-1,              211P    384
1.836000000017D1;                                                    211P    385
508,6,0,171,11,1,0,0,171,22,0,0,0,171,35,0,0,0,171,36,0,0,0,171,     213P    386
21,1,0,0,171,12,1,0;                                                 213P    387
510,211,1,0,213;                                                     215P    388
110,0D0,1.766025403784D1,0D0,0D0,1.866025403784D1,0D0;               217P    389
110,1.737474754672D1,7.628938864642D0,0D0,1.494576052897D1,          219P    390
9.031315173203D0,0D0;                                                219P    391
120,217,219,-6.283183474663D-2,3.204424489683D0;                     221P    392
508,3,0,171,13,0,0,0,171,11,0,0,0,171,1,1,0;                         223P    393
510,221,1,0,223;                                                     225P    394
110,0D0,1.766025403784D1,0D0,0D0,1.866025403784D1,0D0;               227P    395
110,1.737474754672D1,7.628938864642D0,0D0,1.494576052897D1,          229P    396
9.031315173203D0,0D0;                                                229P    397
120,227,229,-6.283183474663D-2,3.204424489683D0;                     231P    398
508,3,0,171,15,0,0,0,171,14,0,0,0,171,2,1,0;                         233P    399
510,231,1,0,233;                                                     235P    400
110,0D0,1.766025403784D1,0D0,0D0,1.866025403784D1,0D0;               237P    401
110,1.737474754672D1,7.628938864642D0,0D0,1.494576052897D1,          239P    402
9.031315173203D0,0D0;                                                239P    403
120,237,239,-6.283183474663D-2,3.204424489683D0;                     241P    404
508,3,0,171,17,0,0,0,171,16,0,0,0,171,3,1,0;                         243P    405
510,241,1,0,243;                                                     245P    406
128,1,1,1,1,0,0,1,0,0,-3.464101615138D-1,-3.464101615138D-1,         247P    407
1.766691823720D1,1.766691823720D1,-3.600000000027D-1,                247P    408
-3.600000000027D-1,1.836D1,1.836D1,1D0,1D0,1D0,1D0,1.53D1,           247P    409
-9.360000000003D0,-8.487048957087D0,-3D-1,-9.360000000003D0,         247P    410
-1.749371315645D1,1.53D1,9.360000000003D0,-8.487048957087D0,         247P    411
-3D-1,9.360000000003D0,-1.749371315645D1,-3.464101615138D-1,         247P    412
1.766691823720D1,-3.600000000027D-1,1.836D1;                         247P    413
508,6,0,171,13,1,0,0,171,14,1,0,0,171,23,0,0,0,171,38,0,0,0,171,     249P    414
37,0,0,0,171,22,1,0;                                                 249P    415
510,247,1,0,249;                                                     251P    416
128,1,1,1,1,0,0,1,0,0,-3.464101615138D-1,-3.464101615138D-1,         253P    417
1.766691823720D1,1.766691823720D1,-3.600000000027D-1,                253P    418
-3.600000000027D-1,1.836D1,1.836D1,1D0,1D0,1D0,1D0,3D-1,             253P    419
-9.360000000003D0,-1.749371315645D1,-1.53D1,-9.360000000003D0,       253P    420
-8.487048957088D0,3D-1,9.360000000003D0,-1.749371315645D1,           253P    421
-1.53D1,9.360000000003D0,-8.487048957088D0,-3.464101615138D-1,       253P    422
1.766691823720D1,-3.600000000027D-1,1.836D1;                         253P    423
508,6,0,171,15,1,0,0,171,16,1,0,0,171,24,0,0,0,171,40,0,0,0,171,     255P    424
39,0,0,0,171,23,1,0;                                                 255P    425
510,253,1,0,255;                                                     257P    426
128,1,1,1,1,0,0,1,0,0,-3.464101615138D-1,-3.464101615138D-1,         259P    427
1.766691823720D1,1.766691823720D1,-3.600000001737D-1,                259P    428
-3.600000001737D-1,1.836000000414D1,1.836000000414D1,1D0,1D0,        259P    429
1D0,1D0,-1.5D1,-9.360000000174D0,-9.006664199358D0,-1.5D1,           259P    430
-9.360000000174D0,9.006664199358D0,-1.5D1,9.360000004139D0,          259P    431
-9.006664199358D0,-1.5D1,9.360000004139D0,9.006664199358D0,          259P    432
-3.464101615138D-1,1.766691823720D1,-3.600000001737D-1,              259P    433
1.836000000414D1;                                                    259P    434
508,6,0,171,17,1,0,0,171,18,1,0,0,171,19,0,0,0,171,42,0,0,0,171,     261P    435
41,0,0,0,171,24,1,0;                                                 261P    436
510,259,1,0,261;                                                     263P    437
110,0D0,1.766025403784D1,0D0,0D0,1.866025403784D1,0D0;               265P    438
110,1.737474754672D1,7.628938864642D0,0D0,1.494576052897D1,          267P    439
9.031315173203D0,0D0;                                                267P    440
120,265,267,-3.204424506290D0,6.283183414559D-2;                     269P    441
508,3,0,171,7,0,0,0,171,18,0,0,0,171,4,1,0;                          271P    442
510,269,1,0,271;                                                     273P    443
110,0D0,1.766025403784D1,0D0,0D0,1.866025403784D1,0D0;               275P    444
110,1.737474754672D1,7.628938864642D0,0D0,1.494576052897D1,          277P    445
9.031315173203D0,0D0;                                                277P    446
120,275,277,-3.204424506290D0,6.283183414559D-2;                     279P    447
508,3,0,171,9,0,0,0,171,8,0,0,0,171,5,1,0;                           281P    448
510,279,1,0,281;                                                     283P    449
110,0D0,1.766025403784D1,0D0,0D0,1.866025403784D1,0D0;               285P    450
110,1.737474754672D1,7.628938864642D0,0D0,1.494576052897D1,          287P    451
9.031315173203D0,0D0;                                                287P    452
120,285,287,-3.204424506290D0,6.283183414559D-2;                     289P    453
508,3,0,171,12,0,0,0,171,10,0,0,0,171,6,1,0;                         291P    454
510,289,1,0,291;                                                     293P    455
128,1,1,1,1,0,0,1,0,0,-3.464101615138D-1,-3.464101615138D-1,         295P    456
1.766691823720D1,1.766691823720D1,-3.600000000027D-1,                295P    457
-3.600000000027D-1,1.836D1,1.836D1,1D0,1D0,1D0,1D0,-1.53D1,          295P    458
-9.360000000003D0,8.487048957087D0,3D-1,-9.360000000003D0,           295P    459
1.749371315645D1,-1.53D1,9.360000000003D0,8.487048957087D0,3D-1,     295P    460
9.360000000003D0,1.749371315645D1,-3.464101615138D-1,                295P    461
1.766691823720D1,-3.600000000027D-1,1.836D1;                         295P    462
508,6,0,171,7,1,0,0,171,8,1,0,0,171,20,0,0,0,171,32,0,0,0,171,       297P    463
31,0,0,0,171,19,1,0;                                                 297P    464
510,295,1,0,297;                                                     299P    465
128,1,1,1,1,0,0,1,0,0,-3.464101615138D-1,-3.464101615138D-1,         301P    466
1.766691823720D1,1.766691823720D1,-3.600000000027D-1,                301P    467
-3.600000000027D-1,1.836D1,1.836D1,1D0,1D0,1D0,1D0,-3D-1,            301P    468
-9.360000000003D0,1.749371315645D1,1.53D1,-9.360000000003D0,         301P    469
8.487048957088D0,-3D-1,9.360000000003D0,1.749371315645D1,1.53D1,     301P    470
9.360000000003D0,8.487048957088D0,-3.464101615138D-1,                301P    471
1.766691823720D1,-3.600000000027D-1,1.836D1;                         301P    472
508,6,0,171,9,1,0,0,171,10,1,0,0,171,21,0,0,0,171,34,0,0,0,171,      303P    473
33,0,0,0,171,20,1,0;                                                 303P    474
510,301,1,0,303;                                                     305P    475
110,0D0,-1.766025403784D1,0D0,0D0,-1.666025403784D1,0D0;             307P    476
110,1.494576052897D1,-9.031315173203D0,0D0,1.737474754672D1,         309P    477
-7.628938864642D0,0D0;                                               309P    478
120,307,309,-3.204424506662D0,6.283185307179D-2;                     311P    479
508,3,0,171,42,1,0,0,171,31,1,0,0,171,28,0,0;                        313P    480
510,311,1,0,313;                                                     315P    481
110,0D0,-1.766025403784D1,0D0,0D0,-1.666025403784D1,0D0;             317P    482
110,1.494576052897D1,-9.031315173203D0,0D0,1.737474754672D1,         319P    483
-7.628938864642D0,0D0;                                               319P    484
120,317,319,-3.204424506662D0,6.283185307179D-2;                     321P    485
508,3,0,171,32,1,0,0,171,33,1,0,0,171,29,0,0;                        323P    486
510,321,1,0,323;                                                     325P    487
110,0D0,-1.766025403784D1,0D0,0D0,-1.666025403784D1,0D0;             327P    488
110,1.494576052897D1,-9.031315173203D0,0D0,1.737474754672D1,         329P    489
-7.628938864642D0,0D0;                                               329P    490
120,327,329,-3.204424506662D0,6.283185307179D-2;                     331P    491
508,3,0,171,34,1,0,0,171,36,1,0,0,171,30,0,0;                        333P    492
510,331,1,0,333;                                                     335P    493
128,1,1,1,1,0,0,1,0,0,-1.56D1,-1.56D1,1.56D1,1.56D1,                 337P    494
-1.560000000002D1,-1.560000000002D1,1.560000000002D1,                337P    495
1.560000000002D1,1D0,1D0,1D0,1D0,1.560000000002D1,9D0,1.56D1,        337P    496
1.560000000002D1,9D0,-1.56D1,-1.560000000002D1,9D0,1.56D1,           337P    497
-1.560000000002D1,9D0,-1.56D1,-1.56D1,1.56D1,-1.560000000002D1,      337P    498
1.560000000002D1;                                                    337P    499
508,6,0,171,1,0,0,0,171,6,0,0,0,171,5,0,0,0,171,4,0,0,0,171,3,0,     339P    500
0,0,171,2,0,0;                                                       339P    501
508,2,0,171,43,0,0,0,171,45,0,0;                                     341P    502
510,337,2,0,339,341;                                                 343P    503
110,0D0,3.082159740806D0,0D0,0D0,4.082159740806D0,0D0;               345P    504
110,0D0,8.102655741174D0,-8.695759120696D0,0D0,9.031317964828D0,     347P    505
-1.030425019424D1;                                                   347P    506
120,345,347,-1.633628184263D0,1.633628185088D0;                      349P    507
508,4,0,171,43,1,0,0,171,53,1,0,0,171,44,0,0,0,171,54,0,0;           351P    508
510,349,1,0,351;                                                     353P    509
110,0D0,3.082159740806D0,0D0,0D0,4.082159740806D0,0D0;               355P    510
110,0D0,8.102655741174D0,-8.695759120696D0,0D0,9.031317964828D0,     357P    511
-1.030425019424D1;                                                   357P    512
120,355,357,1.507964469327D0,4.775220838678D0;                       359P    513
508,4,0,171,45,1,0,0,171,54,1,0,0,171,46,0,0,0,171,53,0,0;           361P    514
510,359,1,0,361;                                                     363P    515
110,0D0,-1.179D1,0D0,0D0,-1.079D1,0D0;                               365P    516
110,8.75D0,-8.459358314624D0,0D0,8.75D0,8.459358314624D0,0D0;        367P    517
120,365,367,-3.204424506662D0,6.283185307180D-2;                     369P    518
508,4,0,171,46,1,0,0,171,52,0,0,0,171,48,1,0,0,171,51,1,0;           371P    519
510,369,1,0,371;                                                     373P    520
110,0D0,-1.179D1,0D0,0D0,-1.079D1,0D0;                               375P    521
110,8.75D0,-8.459358314624D0,0D0,8.75D0,8.459358314624D0,0D0;        377P    522
120,375,377,-6.283185307180D-2,3.204424506662D0;                     379P    523
508,4,0,171,44,1,0,0,171,51,0,0,0,171,50,1,0,0,171,52,1,0;           381P    524
510,379,1,0,381;                                                     383P    525
110,0D0,-3.082159740806D0,0D0,0D0,-4.082159740806D0,0D0;             385P    526
110,0D0,-8.102655741174D0,-8.695759120696D0,0D0,                     387P    527
-9.031317964828D0,-1.030425019424D1;                                 387P    528
120,385,387,-1.633628185088D0,1.633628184263D0;                      389P    529
508,4,0,171,49,1,0,0,171,56,1,0,0,171,50,0,0,0,171,55,0,0;           391P    530
510,389,1,0,391;                                                     393P    531
110,0D0,-3.082159740806D0,0D0,0D0,-4.082159740806D0,0D0;             395P    532
110,0D0,-8.102655741174D0,-8.695759120696D0,0D0,                     397P    533
-9.031317964828D0,-1.030425019424D1;                                 397P    534
120,395,397,-4.775220838678D0,-1.507964469327D0;                     399P    535
508,4,0,171,47,1,0,0,171,55,1,0,0,171,48,0,0,0,171,56,0,0;           401P    536
510,399,1,0,401;                                                     403P    537
514,26,179,0,189,1,199,1,209,1,215,1,225,1,235,1,245,1,251,1,        405P    538
257,1,263,1,273,1,283,1,293,1,299,1,305,1,315,1,325,1,335,1,343,     405P    539
1,353,0,363,0,373,0,383,0,393,0,403,0;                               405P    540
124,1D0,0D0,0D0,0D0,0D0,0D0,1D0,-9D0,0D0,-1D0,0D0,0D0;               407P    541
100,0D0,0D0,0D0,1D1,0D0,-1D1,0D0;                                    409P    542
124,-1D0,0D0,0D0,0D0,0D0,0D0,-1D0,9D0,0D0,-1D0,0D0,0D0;              411P    543
100,0D0,0D0,0D0,1D1,0D0,-1D1,0D0;                                    413P    544
124,-1D0,0D0,0D0,0D0,0D0,0D0,1D0,-9D0,0D0,1D0,0D0,0D0;               415P    545
100,0D0,0D0,0D0,1D1,0D0,-1D1,0D0;                                    417P    546
110,1D1,9D0,0D0,1D1,-9D0,0D0;                                        419P    547
124,1D0,0D0,0D0,0D0,0D0,0D0,-1D0,9D0,0D0,1D0,0D0,0D0;                421P    548
100,0D0,0D0,0D0,1D1,0D0,-1D1,0D0;                                    423P    549
110,-1D1,9D0,0D0,-1D1,-9D0,0D0;                                      425P    550
502,4,1D1,-9D0,0D0,-1D1,-9D0,0D0,1D1,9D0,0D0,-1D1,9D0,0D0;           427P    551
504,6,409,427,1,427,2,413,427,3,427,4,417,427,2,427,1,423,427,4,     429P    552
427,3,419,427,3,427,1,425,427,4,427,2;                               429P    553
110,0D0,-1.179D1,0D0,0D0,-1.079D1,0D0;                               431P    554
110,1D1,-9.36D0,0D0,1D1,9.36D0,0D0;                                  433P    555
120,431,433,-6.283185307180D-2,3.204424506662D0;                     435P    556
508,4,0,429,1,1,0,0,429,6,0,0,0,429,2,0,0,0,429,5,1,0;               437P    557
510,435,1,0,437;                                                     439P    558
110,0D0,-1.179D1,0D0,0D0,-1.079D1,0D0;                               441P    559
110,1D1,-9.36D0,0D0,1D1,9.36D0,0D0;                                  443P    560
120,441,443,-3.204424506662D0,6.283185307180D-2;                     445P    561
508,4,0,429,3,1,0,0,429,5,0,0,0,429,4,0,0,0,429,6,1,0;               447P    562
510,445,1,0,447;                                                     449P    563
514,2,439,0,449,0;                                                   451P    564
186,405,1,0;                                                         453P    565
S      1G      4D    454P    565                                        T      1
