solid NUT-M20-ISO_4034
  facet normal 0.000000e+00 -1.000000e+00 0.000000e+00
    outer loop
      vertex 1.448868e+01 -9.000000e+00 3.883067e+00
      vertex 1.448868e+01 -9.000000e+00 -3.883067e+00
      vertex 1.500000e+01 -9.000000e+00 1.841511e-21
    endloop
  endfacet
  facet normal 5.216370e-01 -8.503979e-01 -6.868913e-02
    outer loop
      vertex 1.500000e+01 -8.654183e+00 -4.281344e+00
      vertex 1.500000e+01 -9.000000e+00 1.841511e-21
      vertex 1.448868e+01 -9.000000e+00 -3.883067e+00
    endloop
  endfacet
  facet normal 5.201775e-01 -8.513070e-01 6.849694e-02
    outer loop
      vertex 1.500000e+01 -8.656895e+00 4.264246e+00
      vertex 1.448868e+01 -9.000000e+00 3.883067e+00
      vertex 1.500000e+01 -9.000000e+00 1.841511e-21
    endloop
  endfacet
  facet normal 1.000000e+00 5.081667e-11 1.612433e-14
    outer loop
      vertex 1.500000e+01 -8.656895e+00 4.264246e+00
      vertex 1.500000e+01 -9.000000e+00 1.841511e-21
      vertex 1.500000e+01 -8.654183e+00 -4.281344e+00
    endloop
  endfacet
  facet normal 0.000000e+00 -1.000000e+00 0.000000e+00
    outer loop
      vertex 1.298998e+01 -9.000000e+00 7.500702e+00
      vertex 1.298998e+01 -9.000000e+00 -7.500702e+00
      vertex 1.448868e+01 -9.000000e+00 -3.883067e+00
    endloop
  endfacet
  facet normal 4.473726e-01 -8.749333e-01 -1.853361e-01
    outer loop
      vertex 1.500000e+01 -8.654183e+00 -4.281344e+00
      vertex 1.448868e+01 -9.000000e+00 -3.883067e+00
      vertex 1.298998e+01 -9.000000e+00 -7.500702e+00
    endloop
  endfacet
  facet normal 0.000000e+00 -1.000000e+00 0.000000e+00
    outer loop
      vertex 1.448868e+01 -9.000000e+00 3.883067e+00
      vertex 1.298998e+01 -9.000000e+00 7.500702e+00
      vertex 1.448868e+01 -9.000000e+00 -3.883067e+00
    endloop
  endfacet
  facet normal 0.000000e+00 -1.000000e+00 0.000000e+00
    outer loop
      vertex 1.060632e+01 -9.000000e+00 1.060689e+01
      vertex 1.060632e+01 -9.000000e+00 -1.060689e+01
      vertex 1.298998e+01 -9.000000e+00 -7.500702e+00
    endloop
  endfacet
  facet normal 3.855412e-01 -8.739704e-01 -2.958610e-01
    outer loop
      vertex 1.118070e+01 -8.659129e+00 -1.086533e+01
      vertex 1.298998e+01 -9.000000e+00 -7.500702e+00
      vertex 1.060632e+01 -9.000000e+00 -1.060689e+01
    endloop
  endfacet
  facet normal 0.000000e+00 -1.000000e+00 0.000000e+00
    outer loop
      vertex 1.298998e+01 -9.000000e+00 7.500702e+00
      vertex 1.060632e+01 -9.000000e+00 1.060689e+01
      vertex 1.298998e+01 -9.000000e+00 -7.500702e+00
    endloop
  endfacet
  facet normal 4.629600e-01 -8.643919e-01 -1.962005e-01
    outer loop
      vertex 1.500000e+01 -8.654183e+00 -4.281344e+00
      vertex 1.298998e+01 -9.000000e+00 -7.500702e+00
      vertex 1.500000e+01 -7.660254e+00 -8.660254e+00
    endloop
  endfacet
  facet normal 4.011556e-01 -8.643460e-01 -3.032823e-01
    outer loop
      vertex 1.118070e+01 -8.659129e+00 -1.086533e+01
      vertex 1.500000e+01 -7.660254e+00 -8.660254e+00
      vertex 1.298998e+01 -9.000000e+00 -7.500702e+00
    endloop
  endfacet
  facet normal 0.000000e+00 -1.000000e+00 0.000000e+00
    outer loop
      vertex 7.862259e+00 -9.000000e+00 -6.576194e+00
      vertex 7.500000e+00 -9.000000e+00 -1.299038e+01
      vertex 1.060632e+01 -9.000000e+00 -1.060689e+01
    endloop
  endfacet
  facet normal 3.187199e-01 -8.519864e-01 -4.153755e-01
    outer loop
      vertex 1.118070e+01 -8.659129e+00 -1.086533e+01
      vertex 1.060632e+01 -9.000000e+00 -1.060689e+01
      vertex 7.500000e+00 -9.000000e+00 -1.299038e+01
    endloop
  endfacet
  facet normal 0.000000e+00 -1.000000e+00 0.000000e+00
    outer loop
      vertex 1.025000e+01 -9.000000e+00 0.000000e+00
      vertex 1.060632e+01 -9.000000e+00 -1.060689e+01
      vertex 1.060632e+01 -9.000000e+00 1.060689e+01
    endloop
  endfacet
  facet normal 0.000000e+00 -1.000000e+00 0.000000e+00
    outer loop
      vertex 9.645025e+00 -9.000000e+00 -3.468530e+00
      vertex 7.862259e+00 -9.000000e+00 -6.576194e+00
      vertex 1.060632e+01 -9.000000e+00 -1.060689e+01
    endloop
  endfacet
  facet normal 0.000000e+00 -1.000000e+00 0.000000e+00
    outer loop
      vertex 1.025000e+01 -9.000000e+00 0.000000e+00
      vertex 9.645025e+00 -9.000000e+00 -3.468530e+00
      vertex 1.060632e+01 -9.000000e+00 -1.060689e+01
    endloop
  endfacet
  facet normal 0.000000e+00 -1.000000e+00 0.000000e+00
    outer loop
      vertex 5.136073e+00 -9.000000e+00 -8.870218e+00
      vertex 3.882677e+00 -9.000000e+00 -1.448878e+01
      vertex 7.500000e+00 -9.000000e+00 -1.299038e+01
    endloop
  endfacet
  facet normal 2.003842e-01 -8.519567e-01 -4.837519e-01
    outer loop
      vertex 3.818824e+00 -8.659042e+00 -1.511571e+01
      vertex 7.500000e+00 -9.000000e+00 -1.299038e+01
      vertex 3.882677e+00 -9.000000e+00 -1.448878e+01
    endloop
  endfacet
  facet normal 0.000000e+00 -1.000000e+00 0.000000e+00
    outer loop
      vertex 7.862259e+00 -9.000000e+00 -6.576194e+00
      vertex 5.136073e+00 -9.000000e+00 -8.870218e+00
      vertex 7.500000e+00 -9.000000e+00 -1.299038e+01
    endloop
  endfacet
  facet normal 5.000000e-01 2.107699e-11 -8.660254e-01
    outer loop
      vertex 1.118070e+01 -8.659129e+00 -1.086533e+01
      vertex 7.500000e+00 -9.000000e+00 -1.299038e+01
      vertex 3.818824e+00 -8.659042e+00 -1.511571e+01
    endloop
  endfacet
  facet normal 0.000000e+00 -1.000000e+00 0.000000e+00
    outer loop
      vertex 1.783106e+00 -9.000000e+00 -1.009368e+01
      vertex 1.363081e-10 -9.000000e+00 -1.500000e+01
      vertex 3.882677e+00 -9.000000e+00 -1.448878e+01
    endloop
  endfacet
  facet normal 6.343497e-02 -8.739897e-01 -4.817862e-01
    outer loop
      vertex 3.818824e+00 -8.659042e+00 -1.511571e+01
      vertex 3.882677e+00 -9.000000e+00 -1.448878e+01
      vertex 1.363081e-10 -9.000000e+00 -1.500000e+01
    endloop
  endfacet
  facet normal 0.000000e+00 -1.000000e+00 0.000000e+00
    outer loop
      vertex 5.136073e+00 -9.000000e+00 -8.870218e+00
      vertex 1.783106e+00 -9.000000e+00 -1.009368e+01
      vertex 3.882677e+00 -9.000000e+00 -1.448878e+01
    endloop
  endfacet
  facet normal 0.000000e+00 -1.000000e+00 0.000000e+00
    outer loop
      vertex -1.782245e+00 -9.000000e+00 -1.009384e+01
      vertex -3.882677e+00 -9.000000e+00 -1.448878e+01
      vertex 1.363081e-10 -9.000000e+00 -1.500000e+01
    endloop
  endfacet
  facet normal -6.569092e-02 -8.641548e-01 -4.989200e-01
    outer loop
      vertex 1.776357e-15 -7.660254e+00 -1.732051e+01
      vertex 1.363081e-10 -9.000000e+00 -1.500000e+01
      vertex -3.882677e+00 -9.000000e+00 -1.448878e+01
    endloop
  endfacet
  facet normal 0.000000e+00 -1.000000e+00 0.000000e+00
    outer loop
      vertex 1.783106e+00 -9.000000e+00 -1.009368e+01
      vertex -1.782245e+00 -9.000000e+00 -1.009384e+01
      vertex 1.363081e-10 -9.000000e+00 -1.500000e+01
    endloop
  endfacet
  facet normal 6.205221e-02 -8.643565e-01 -4.990365e-01
    outer loop
      vertex 3.818824e+00 -8.659042e+00 -1.511571e+01
      vertex 1.363081e-10 -9.000000e+00 -1.500000e+01
      vertex 1.776357e-15 -7.660254e+00 -1.732051e+01
    endloop
  endfacet
  facet normal 0.000000e+00 -1.000000e+00 0.000000e+00
    outer loop
      vertex -5.135306e+00 -9.000000e+00 -8.870660e+00
      vertex -7.500000e+00 -9.000000e+00 -1.299038e+01
      vertex -3.882677e+00 -9.000000e+00 -1.448878e+01
    endloop
  endfacet
  facet normal -2.003657e-01 -8.519864e-01 -4.837072e-01
    outer loop
      vertex -3.819301e+00 -8.659129e+00 -1.511543e+01
      vertex -3.882677e+00 -9.000000e+00 -1.448878e+01
      vertex -7.500000e+00 -9.000000e+00 -1.299038e+01
    endloop
  endfacet
  facet normal 0.000000e+00 -1.000000e+00 0.000000e+00
    outer loop
      vertex -1.782245e+00 -9.000000e+00 -1.009384e+01
      vertex -5.135306e+00 -9.000000e+00 -8.870660e+00
      vertex -3.882677e+00 -9.000000e+00 -1.448878e+01
    endloop
  endfacet
  facet normal -4.882244e-02 -8.753198e-01 -4.810734e-01
    outer loop
      vertex -3.819301e+00 -8.659129e+00 -1.511543e+01
      vertex 1.776357e-15 -7.660254e+00 -1.732051e+01
      vertex -3.882677e+00 -9.000000e+00 -1.448878e+01
    endloop
  endfacet
  facet normal 0.000000e+00 -1.000000e+00 0.000000e+00
    outer loop
      vertex -9.644692e+00 -9.000000e+00 -3.469468e+00
      vertex -1.060632e+01 -9.000000e+00 -1.060689e+01
      vertex -7.500000e+00 -9.000000e+00 -1.299038e+01
    endloop
  endfacet
  facet normal -3.187493e-01 -8.519567e-01 -4.154138e-01
    outer loop
      vertex -1.118118e+01 -8.659042e+00 -1.086505e+01
      vertex -7.500000e+00 -9.000000e+00 -1.299038e+01
      vertex -1.060632e+01 -9.000000e+00 -1.060689e+01
    endloop
  endfacet
  facet normal 0.000000e+00 -1.000000e+00 0.000000e+00
    outer loop
      vertex -7.861672e+00 -9.000000e+00 -6.576903e+00
      vertex -9.644692e+00 -9.000000e+00 -3.469468e+00
      vertex -7.500000e+00 -9.000000e+00 -1.299038e+01
    endloop
  endfacet
  facet normal 0.000000e+00 -1.000000e+00 0.000000e+00
    outer loop
      vertex -5.135306e+00 -9.000000e+00 -8.870660e+00
      vertex -7.861672e+00 -9.000000e+00 -6.576903e+00
      vertex -7.500000e+00 -9.000000e+00 -1.299038e+01
    endloop
  endfacet
  facet normal -5.000000e-01 2.632202e-11 -8.660254e-01
    outer loop
      vertex -3.819301e+00 -8.659129e+00 -1.511543e+01
      vertex -7.500000e+00 -9.000000e+00 -1.299038e+01
      vertex -1.118118e+01 -8.659042e+00 -1.086505e+01
    endloop
  endfacet
  facet normal 0.000000e+00 -1.000000e+00 0.000000e+00
    outer loop
      vertex -1.298998e+01 -9.000000e+00 7.500702e+00
      vertex -1.298998e+01 -9.000000e+00 -7.500702e+00
      vertex -1.060632e+01 -9.000000e+00 -1.060689e+01
    endloop
  endfacet
  facet normal -3.855155e-01 -8.739884e-01 -2.958412e-01
    outer loop
      vertex -1.118118e+01 -8.659042e+00 -1.086505e+01
      vertex -1.060632e+01 -9.000000e+00 -1.060689e+01
      vertex -1.298998e+01 -9.000000e+00 -7.500702e+00
    endloop
  endfacet
  facet normal 0.000000e+00 -1.000000e+00 0.000000e+00
    outer loop
      vertex -1.060632e+01 -9.000000e+00 1.060689e+01
      vertex -1.298998e+01 -9.000000e+00 7.500702e+00
      vertex -1.060632e+01 -9.000000e+00 -1.060689e+01
    endloop
  endfacet
  facet normal 0.000000e+00 -1.000000e+00 0.000000e+00
    outer loop
      vertex -1.025000e+01 -9.000000e+00 1.255222e-15
      vertex -1.060632e+01 -9.000000e+00 1.060689e+01
      vertex -1.060632e+01 -9.000000e+00 -1.060689e+01
    endloop
  endfacet
  facet normal 0.000000e+00 -1.000000e+00 0.000000e+00
    outer loop
      vertex -9.644692e+00 -9.000000e+00 -3.469468e+00
      vertex -1.025000e+01 -9.000000e+00 1.255222e-15
      vertex -1.060632e+01 -9.000000e+00 -1.060689e+01
    endloop
  endfacet
  facet normal 0.000000e+00 -1.000000e+00 0.000000e+00
    outer loop
      vertex -1.448868e+01 -9.000000e+00 3.883067e+00
      vertex -1.448868e+01 -9.000000e+00 -3.883067e+00
      vertex -1.298998e+01 -9.000000e+00 -7.500702e+00
    endloop
  endfacet
  facet normal -4.648908e-01 -8.641668e-01 -1.925935e-01
    outer loop
      vertex -1.500000e+01 -7.660254e+00 -8.660254e+00
      vertex -1.298998e+01 -9.000000e+00 -7.500702e+00
      vertex -1.448868e+01 -9.000000e+00 -3.883067e+00
    endloop
  endfacet
  facet normal 0.000000e+00 -1.000000e+00 0.000000e+00
    outer loop
      vertex -1.298998e+01 -9.000000e+00 7.500702e+00
      vertex -1.448868e+01 -9.000000e+00 3.883067e+00
      vertex -1.298998e+01 -9.000000e+00 -7.500702e+00
    endloop
  endfacet
  facet normal -4.011600e-01 -8.643465e-01 -3.032752e-01
    outer loop
      vertex -1.118118e+01 -8.659042e+00 -1.086505e+01
      vertex -1.298998e+01 -9.000000e+00 -7.500702e+00
      vertex -1.500000e+01 -7.660254e+00 -8.660254e+00
    endloop
  endfacet
  facet normal 0.000000e+00 -1.000000e+00 0.000000e+00
    outer loop
      vertex -1.448868e+01 -9.000000e+00 3.883067e+00
      vertex -1.500000e+01 -9.000000e+00 -1.856865e-21
      vertex -1.448868e+01 -9.000000e+00 -3.883067e+00
    endloop
  endfacet
  facet normal -5.201775e-01 -8.513070e-01 -6.849694e-02
    outer loop
      vertex -1.500000e+01 -8.656895e+00 -4.264246e+00
      vertex -1.448868e+01 -9.000000e+00 -3.883067e+00
      vertex -1.500000e+01 -9.000000e+00 -1.856865e-21
    endloop
  endfacet
  facet normal -4.397114e-01 -8.759104e-01 -1.985820e-01
    outer loop
      vertex -1.500000e+01 -8.656895e+00 -4.264246e+00
      vertex -1.500000e+01 -7.660254e+00 -8.660254e+00
      vertex -1.448868e+01 -9.000000e+00 -3.883067e+00
    endloop
  endfacet
  facet normal -5.216370e-01 -8.503979e-01 6.868913e-02
    outer loop
      vertex -1.500000e+01 -8.654183e+00 4.281344e+00
      vertex -1.500000e+01 -9.000000e+00 -1.856865e-21
      vertex -1.448868e+01 -9.000000e+00 3.883067e+00
    endloop
  endfacet
  facet normal -1.000000e+00 5.081667e-11 -1.612438e-14
    outer loop
      vertex -1.500000e+01 -8.656895e+00 -4.264246e+00
      vertex -1.500000e+01 -9.000000e+00 -1.856865e-21
      vertex -1.500000e+01 -8.654183e+00 4.281344e+00
    endloop
  endfacet
  facet normal -4.473726e-01 -8.749333e-01 1.853361e-01
    outer loop
      vertex -1.500000e+01 -8.654183e+00 4.281344e+00
      vertex -1.448868e+01 -9.000000e+00 3.883067e+00
      vertex -1.298998e+01 -9.000000e+00 7.500702e+00
    endloop
  endfacet
  facet normal -3.855412e-01 -8.739704e-01 2.958610e-01
    outer loop
      vertex -1.118070e+01 -8.659129e+00 1.086533e+01
      vertex -1.298998e+01 -9.000000e+00 7.500702e+00
      vertex -1.060632e+01 -9.000000e+00 1.060689e+01
    endloop
  endfacet
  facet normal -4.011556e-01 -8.643460e-01 3.032823e-01
    outer loop
      vertex -1.500000e+01 -7.660254e+00 8.660254e+00
      vertex -1.298998e+01 -9.000000e+00 7.500702e+00
      vertex -1.118070e+01 -8.659129e+00 1.086533e+01
    endloop
  endfacet
  facet normal -4.629600e-01 -8.643919e-01 1.962005e-01
    outer loop
      vertex -1.500000e+01 -8.654183e+00 4.281344e+00
      vertex -1.298998e+01 -9.000000e+00 7.500702e+00
      vertex -1.500000e+01 -7.660254e+00 8.660254e+00
    endloop
  endfacet
  facet normal 0.000000e+00 -1.000000e+00 0.000000e+00
    outer loop
      vertex -7.862259e+00 -9.000000e+00 6.576194e+00
      vertex -7.500000e+00 -9.000000e+00 1.299038e+01
      vertex -1.060632e+01 -9.000000e+00 1.060689e+01
    endloop
  endfacet
  facet normal -3.187199e-01 -8.519864e-01 4.153755e-01
    outer loop
      vertex -1.118070e+01 -8.659129e+00 1.086533e+01
      vertex -1.060632e+01 -9.000000e+00 1.060689e+01
      vertex -7.500000e+00 -9.000000e+00 1.299038e+01
    endloop
  endfacet
  facet normal 0.000000e+00 -1.000000e+00 0.000000e+00
    outer loop
      vertex -9.645025e+00 -9.000000e+00 3.468530e+00
      vertex -1.060632e+01 -9.000000e+00 1.060689e+01
      vertex -1.025000e+01 -9.000000e+00 1.255222e-15
    endloop
  endfacet
  facet normal 0.000000e+00 -1.000000e+00 0.000000e+00
    outer loop
      vertex -9.645025e+00 -9.000000e+00 3.468530e+00
      vertex -7.862259e+00 -9.000000e+00 6.576194e+00
      vertex -1.060632e+01 -9.000000e+00 1.060689e+01
    endloop
  endfacet
  facet normal 0.000000e+00 -1.000000e+00 0.000000e+00
    outer loop
      vertex -5.136073e+00 -9.000000e+00 8.870218e+00
      vertex -3.882677e+00 -9.000000e+00 1.448878e+01
      vertex -7.500000e+00 -9.000000e+00 1.299038e+01
    endloop
  endfacet
  facet normal -2.003842e-01 -8.519567e-01 4.837519e-01
    outer loop
      vertex -3.818824e+00 -8.659042e+00 1.511571e+01
      vertex -7.500000e+00 -9.000000e+00 1.299038e+01
      vertex -3.882677e+00 -9.000000e+00 1.448878e+01
    endloop
  endfacet
  facet normal 0.000000e+00 -1.000000e+00 0.000000e+00
    outer loop
      vertex -7.862259e+00 -9.000000e+00 6.576194e+00
      vertex -5.136073e+00 -9.000000e+00 8.870218e+00
      vertex -7.500000e+00 -9.000000e+00 1.299038e+01
    endloop
  endfacet
  facet normal -5.000000e-01 2.107760e-11 8.660254e-01
    outer loop
      vertex -1.118070e+01 -8.659129e+00 1.086533e+01
      vertex -7.500000e+00 -9.000000e+00 1.299038e+01
      vertex -3.818824e+00 -8.659042e+00 1.511571e+01
    endloop
  endfacet
  facet normal 0.000000e+00 -1.000000e+00 0.000000e+00
    outer loop
      vertex -1.783106e+00 -9.000000e+00 1.009368e+01
      vertex -1.363038e-10 -9.000000e+00 1.500000e+01
      vertex -3.882677e+00 -9.000000e+00 1.448878e+01
    endloop
  endfacet
  facet normal -6.343497e-02 -8.739897e-01 4.817862e-01
    outer loop
      vertex -3.818824e+00 -8.659042e+00 1.511571e+01
      vertex -3.882677e+00 -9.000000e+00 1.448878e+01
      vertex -1.363038e-10 -9.000000e+00 1.500000e+01
    endloop
  endfacet
  facet normal 0.000000e+00 -1.000000e+00 0.000000e+00
    outer loop
      vertex -5.136073e+00 -9.000000e+00 8.870218e+00
      vertex -1.783106e+00 -9.000000e+00 1.009368e+01
      vertex -3.882677e+00 -9.000000e+00 1.448878e+01
    endloop
  endfacet
  facet normal 0.000000e+00 -1.000000e+00 0.000000e+00
    outer loop
      vertex 1.782245e+00 -9.000000e+00 1.009384e+01
      vertex 3.882677e+00 -9.000000e+00 1.448878e+01
      vertex -1.363038e-10 -9.000000e+00 1.500000e+01
    endloop
  endfacet
  facet normal 6.569092e-02 -8.641548e-01 4.989200e-01
    outer loop
      vertex -1.776357e-15 -7.660254e+00 1.732051e+01
      vertex -1.363038e-10 -9.000000e+00 1.500000e+01
      vertex 3.882677e+00 -9.000000e+00 1.448878e+01
    endloop
  endfacet
  facet normal 0.000000e+00 -1.000000e+00 0.000000e+00
    outer loop
      vertex -1.783106e+00 -9.000000e+00 1.009368e+01
      vertex 1.782245e+00 -9.000000e+00 1.009384e+01
      vertex -1.363038e-10 -9.000000e+00 1.500000e+01
    endloop
  endfacet
  facet normal -6.205221e-02 -8.643565e-01 4.990365e-01
    outer loop
      vertex -3.818824e+00 -8.659042e+00 1.511571e+01
      vertex -1.363038e-10 -9.000000e+00 1.500000e+01
      vertex -1.776357e-15 -7.660254e+00 1.732051e+01
    endloop
  endfacet
  facet normal 0.000000e+00 -1.000000e+00 0.000000e+00
    outer loop
      vertex 5.135306e+00 -9.000000e+00 8.870660e+00
      vertex 7.500000e+00 -9.000000e+00 1.299038e+01
      vertex 3.882677e+00 -9.000000e+00 1.448878e+01
    endloop
  endfacet
  facet normal 2.003657e-01 -8.519864e-01 4.837072e-01
    outer loop
      vertex 3.819301e+00 -8.659129e+00 1.511543e+01
      vertex 3.882677e+00 -9.000000e+00 1.448878e+01
      vertex 7.500000e+00 -9.000000e+00 1.299038e+01
    endloop
  endfacet
  facet normal 0.000000e+00 -1.000000e+00 0.000000e+00
    outer loop
      vertex 1.782245e+00 -9.000000e+00 1.009384e+01
      vertex 5.135306e+00 -9.000000e+00 8.870660e+00
      vertex 3.882677e+00 -9.000000e+00 1.448878e+01
    endloop
  endfacet
  facet normal 4.882244e-02 -8.753198e-01 4.810734e-01
    outer loop
      vertex 3.819301e+00 -8.659129e+00 1.511543e+01
      vertex -1.776357e-15 -7.660254e+00 1.732051e+01
      vertex 3.882677e+00 -9.000000e+00 1.448878e+01
    endloop
  endfacet
  facet normal 0.000000e+00 -1.000000e+00 0.000000e+00
    outer loop
      vertex 9.644692e+00 -9.000000e+00 3.469468e+00
      vertex 1.060632e+01 -9.000000e+00 1.060689e+01
      vertex 7.500000e+00 -9.000000e+00 1.299038e+01
    endloop
  endfacet
  facet normal 3.187493e-01 -8.519567e-01 4.154138e-01
    outer loop
      vertex 1.118118e+01 -8.659042e+00 1.086505e+01
      vertex 7.500000e+00 -9.000000e+00 1.299038e+01
      vertex 1.060632e+01 -9.000000e+00 1.060689e+01
    endloop
  endfacet
  facet normal 0.000000e+00 -1.000000e+00 0.000000e+00
    outer loop
      vertex 7.861672e+00 -9.000000e+00 6.576903e+00
      vertex 9.644692e+00 -9.000000e+00 3.469468e+00
      vertex 7.500000e+00 -9.000000e+00 1.299038e+01
    endloop
  endfacet
  facet normal 0.000000e+00 -1.000000e+00 0.000000e+00
    outer loop
      vertex 5.135306e+00 -9.000000e+00 8.870660e+00
      vertex 7.861672e+00 -9.000000e+00 6.576903e+00
      vertex 7.500000e+00 -9.000000e+00 1.299038e+01
    endloop
  endfacet
  facet normal 5.000000e-01 2.632386e-11 8.660254e-01
    outer loop
      vertex 3.819301e+00 -8.659129e+00 1.511543e+01
      vertex 7.500000e+00 -9.000000e+00 1.299038e+01
      vertex 1.118118e+01 -8.659042e+00 1.086505e+01
    endloop
  endfacet
  facet normal 3.855155e-01 -8.739884e-01 2.958412e-01
    outer loop
      vertex 1.118118e+01 -8.659042e+00 1.086505e+01
      vertex 1.060632e+01 -9.000000e+00 1.060689e+01
      vertex 1.298998e+01 -9.000000e+00 7.500702e+00
    endloop
  endfacet
  facet normal 0.000000e+00 -1.000000e+00 0.000000e+00
    outer loop
      vertex 9.644692e+00 -9.000000e+00 3.469468e+00
      vertex 1.025000e+01 -9.000000e+00 0.000000e+00
      vertex 1.060632e+01 -9.000000e+00 1.060689e+01
    endloop
  endfacet
  facet normal 4.648908e-01 -8.641668e-01 1.925935e-01
    outer loop
      vertex 1.500000e+01 -7.660254e+00 8.660254e+00
      vertex 1.298998e+01 -9.000000e+00 7.500702e+00
      vertex 1.448868e+01 -9.000000e+00 3.883067e+00
    endloop
  endfacet
  facet normal 4.011600e-01 -8.643465e-01 3.032752e-01
    outer loop
      vertex 1.118118e+01 -8.659042e+00 1.086505e+01
      vertex 1.298998e+01 -9.000000e+00 7.500702e+00
      vertex 1.500000e+01 -7.660254e+00 8.660254e+00
    endloop
  endfacet
  facet normal 4.397113e-01 -8.759104e-01 1.985820e-01
    outer loop
      vertex 1.500000e+01 -8.656895e+00 4.264246e+00
      vertex 1.500000e+01 -7.660254e+00 8.660254e+00
      vertex 1.448868e+01 -9.000000e+00 3.883067e+00
    endloop
  endfacet
  facet normal 4.981084e-01 -8.627490e-01 8.690347e-02
    outer loop
      vertex -8.750000e+00 -8.133975e+00 -1.071531e-15
      vertex -1.025000e+01 -9.000000e+00 1.255222e-15
      vertex -9.644692e+00 -9.000000e+00 -3.469468e+00
    endloop
  endfacet
  facet normal 5.321067e-01 -8.415753e-01 -9.280912e-02
    outer loop
      vertex -8.588093e+00 -8.133988e+00 1.675455e+00
      vertex -9.645025e+00 -9.000000e+00 3.468530e+00
      vertex -1.025000e+01 -9.000000e+00 1.255222e-15
    endloop
  endfacet
  facet normal 4.994172e-01 -8.650160e-01 -4.826793e-02
    outer loop
      vertex -8.588093e+00 -8.133988e+00 1.675455e+00
      vertex -1.025000e+01 -9.000000e+00 1.255222e-15
      vertex -8.750000e+00 -8.133975e+00 -1.071531e-15
    endloop
  endfacet
  facet normal 4.521611e-01 -8.533686e-01 2.594463e-01
    outer loop
      vertex -8.094906e+00 -8.133973e+00 -3.321898e+00
      vertex -9.644692e+00 -9.000000e+00 -3.469468e+00
      vertex -7.861672e+00 -9.000000e+00 -6.576903e+00
    endloop
  endfacet
  facet normal 4.725878e-01 -8.698376e-01 1.415745e-01
    outer loop
      vertex -8.587943e+00 -8.133994e+00 -1.676225e+00
      vertex -9.644692e+00 -9.000000e+00 -3.469468e+00
      vertex -8.094906e+00 -8.133973e+00 -3.321898e+00
    endloop
  endfacet
  facet normal 5.747572e-01 -8.164346e-01 5.557690e-02
    outer loop
      vertex -8.750000e+00 -8.133975e+00 -1.071531e-15
      vertex -9.644692e+00 -9.000000e+00 -3.469468e+00
      vertex -8.587943e+00 -8.133994e+00 -1.676225e+00
    endloop
  endfacet
  facet normal 3.427047e-01 -8.465387e-01 4.073398e-01
    outer loop
      vertex -6.195180e+00 -8.133975e+00 -6.179178e+00
      vertex -7.861672e+00 -9.000000e+00 -6.576903e+00
      vertex -5.135306e+00 -9.000000e+00 -8.870660e+00
    endloop
  endfacet
  facet normal 3.790656e-01 -8.718582e-01 3.101172e-01
    outer loop
      vertex -7.284040e+00 -8.133972e+00 -4.848223e+00
      vertex -7.861672e+00 -9.000000e+00 -6.576903e+00
      vertex -6.195180e+00 -8.133975e+00 -6.179178e+00
    endloop
  endfacet
  facet normal 4.841486e-01 -8.363288e-01 2.572047e-01
    outer loop
      vertex -8.094906e+00 -8.133973e+00 -3.321898e+00
      vertex -7.861672e+00 -9.000000e+00 -6.576903e+00
      vertex -7.284040e+00 -8.133972e+00 -4.848223e+00
    endloop
  endfacet
  facet normal 1.848746e-01 -8.420115e-01 5.067919e-01
    outer loop
      vertex -3.354988e+00 -8.133974e+00 -8.081247e+00
      vertex -5.135306e+00 -9.000000e+00 -8.870660e+00
      vertex -1.782245e+00 -9.000000e+00 -1.009384e+01
    endloop
  endfacet
  facet normal 2.318923e-01 -8.711780e-01 4.327526e-01
    outer loop
      vertex -4.870542e+00 -8.133976e+00 -7.269135e+00
      vertex -5.135306e+00 -9.000000e+00 -8.870660e+00
      vertex -3.354988e+00 -8.133974e+00 -8.081247e+00
    endloop
  endfacet
  facet normal 3.334118e-01 -8.512632e-01 4.052005e-01
    outer loop
      vertex -6.195180e+00 -8.133975e+00 -6.179178e+00
      vertex -5.135306e+00 -9.000000e+00 -8.870660e+00
      vertex -4.870542e+00 -8.133976e+00 -7.269135e+00
    endloop
  endfacet
  facet normal -2.311140e-05 -8.405578e-01 5.417219e-01
    outer loop
      vertex 5.517857e-04 -8.133975e+00 -8.750000e+00
      vertex -1.782245e+00 -9.000000e+00 -1.009384e+01
      vertex 1.783106e+00 -9.000000e+00 -1.009368e+01
    endloop
  endfacet
  facet normal 4.876574e-02 -8.677844e-01 4.945423e-01
    outer loop
      vertex -1.709560e+00 -8.133975e+00 -8.581370e+00
      vertex -1.782245e+00 -9.000000e+00 -1.009384e+01
      vertex 5.517857e-04 -8.133975e+00 -8.750000e+00
    endloop
  endfacet
  facet normal 1.477452e-01 -8.613294e-01 4.860896e-01
    outer loop
      vertex -3.354988e+00 -8.133974e+00 -8.081247e+00
      vertex -1.782245e+00 -9.000000e+00 -1.009384e+01
      vertex -1.709560e+00 -8.133975e+00 -8.581370e+00
    endloop
  endfacet
  facet normal -1.761493e-01 -8.578625e-01 4.827457e-01
    outer loop
      vertex 1.710656e+00 -8.133975e+00 -8.581151e+00
      vertex 1.783106e+00 -9.000000e+00 -1.009368e+01
      vertex 5.136073e+00 -9.000000e+00 -8.870218e+00
    endloop
  endfacet
  facet normal -4.882768e-02 -8.677891e-01 4.945280e-01
    outer loop
      vertex 5.517857e-04 -8.133975e+00 -8.750000e+00
      vertex 1.783106e+00 -9.000000e+00 -1.009368e+01
      vertex 1.710656e+00 -8.133975e+00 -8.581151e+00
    endloop
  endfacet
  facet normal -3.394312e-01 -8.497499e-01 4.033751e-01
    outer loop
      vertex 4.871443e+00 -8.133975e+00 -7.268531e+00
      vertex 5.136073e+00 -9.000000e+00 -8.870218e+00
      vertex 7.862259e+00 -9.000000e+00 -6.576194e+00
    endloop
  endfacet
  facet normal -2.319453e-01 -8.711797e-01 4.327209e-01
    outer loop
      vertex 3.356036e+00 -8.133975e+00 -8.080812e+00
      vertex 5.136073e+00 -9.000000e+00 -8.870218e+00
      vertex 4.871443e+00 -8.133975e+00 -7.268531e+00
    endloop
  endfacet
  facet normal -1.636331e-01 -8.268371e-01 5.381122e-01
    outer loop
      vertex 1.710656e+00 -8.133975e+00 -8.581151e+00
      vertex 5.136073e+00 -9.000000e+00 -8.870218e+00
      vertex 3.356036e+00 -8.133975e+00 -8.080812e+00
    endloop
  endfacet
  facet normal -4.655883e-01 -8.437350e-01 2.670930e-01
    outer loop
      vertex 7.284717e+00 -8.133973e+00 -4.847205e+00
      vertex 7.862259e+00 -9.000000e+00 -6.576194e+00
      vertex 9.645025e+00 -9.000000e+00 -3.468530e+00
    endloop
  endfacet
  facet normal -3.791067e-01 -8.718580e-01 3.100672e-01
    outer loop
      vertex 6.195932e+00 -8.133975e+00 -6.178424e+00
      vertex 7.862259e+00 -9.000000e+00 -6.576194e+00
      vertex 7.284717e+00 -8.133973e+00 -4.847205e+00
    endloop
  endfacet
  facet normal -3.402579e-01 -8.445776e-01 4.134166e-01
    outer loop
      vertex 4.871443e+00 -8.133975e+00 -7.268531e+00
      vertex 7.862259e+00 -9.000000e+00 -6.576194e+00
      vertex 6.195932e+00 -8.133975e+00 -6.178424e+00
    endloop
  endfacet
  facet normal -5.321067e-01 -8.415753e-01 9.280912e-02
    outer loop
      vertex 8.588093e+00 -8.133988e+00 -1.675455e+00
      vertex 9.645025e+00 -9.000000e+00 -3.468530e+00
      vertex 1.025000e+01 -9.000000e+00 0.000000e+00
    endloop
  endfacet
  facet normal -4.726124e-01 -8.698322e-01 1.415256e-01
    outer loop
      vertex 8.095375e+00 -8.133973e+00 -3.320752e+00
      vertex 9.645025e+00 -9.000000e+00 -3.468530e+00
      vertex 8.588093e+00 -8.133988e+00 -1.675455e+00
    endloop
  endfacet
  facet normal -4.556559e-01 -8.566331e-01 2.419865e-01
    outer loop
      vertex 7.284717e+00 -8.133973e+00 -4.847205e+00
      vertex 9.645025e+00 -9.000000e+00 -3.468530e+00
      vertex 8.095375e+00 -8.133973e+00 -3.320752e+00
    endloop
  endfacet
  facet normal -4.981084e-01 -8.627490e-01 -8.690347e-02
    outer loop
      vertex 8.750000e+00 -8.133975e+00 0.000000e+00
      vertex 1.025000e+01 -9.000000e+00 0.000000e+00
      vertex 9.644692e+00 -9.000000e+00 3.469468e+00
    endloop
  endfacet
  facet normal -4.994172e-01 -8.650160e-01 4.826793e-02
    outer loop
      vertex 8.588093e+00 -8.133988e+00 -1.675455e+00
      vertex 1.025000e+01 -9.000000e+00 0.000000e+00
      vertex 8.750000e+00 -8.133975e+00 0.000000e+00
    endloop
  endfacet
  facet normal -4.521611e-01 -8.533686e-01 -2.594463e-01
    outer loop
      vertex 8.094906e+00 -8.133973e+00 3.321898e+00
      vertex 9.644692e+00 -9.000000e+00 3.469468e+00
      vertex 7.861672e+00 -9.000000e+00 6.576903e+00
    endloop
  endfacet
  facet normal -5.747572e-01 -8.164346e-01 -5.557690e-02
    outer loop
      vertex 8.587943e+00 -8.133994e+00 1.676225e+00
      vertex 8.750000e+00 -8.133975e+00 0.000000e+00
      vertex 9.644692e+00 -9.000000e+00 3.469468e+00
    endloop
  endfacet
  facet normal -4.725878e-01 -8.698376e-01 -1.415745e-01
    outer loop
      vertex 8.587943e+00 -8.133994e+00 1.676225e+00
      vertex 9.644692e+00 -9.000000e+00 3.469468e+00
      vertex 8.094906e+00 -8.133973e+00 3.321898e+00
    endloop
  endfacet
  facet normal -3.427047e-01 -8.465387e-01 -4.073398e-01
    outer loop
      vertex 6.195180e+00 -8.133975e+00 6.179178e+00
      vertex 7.861672e+00 -9.000000e+00 6.576903e+00
      vertex 5.135306e+00 -9.000000e+00 8.870660e+00
    endloop
  endfacet
  facet normal -3.790656e-01 -8.718582e-01 -3.101172e-01
    outer loop
      vertex 7.284040e+00 -8.133972e+00 4.848223e+00
      vertex 7.861672e+00 -9.000000e+00 6.576903e+00
      vertex 6.195180e+00 -8.133975e+00 6.179178e+00
    endloop
  endfacet
  facet normal -4.841486e-01 -8.363288e-01 -2.572047e-01
    outer loop
      vertex 8.094906e+00 -8.133973e+00 3.321898e+00
      vertex 7.861672e+00 -9.000000e+00 6.576903e+00
      vertex 7.284040e+00 -8.133972e+00 4.848223e+00
    endloop
  endfacet
  facet normal -1.848746e-01 -8.420115e-01 -5.067919e-01
    outer loop
      vertex 3.354988e+00 -8.133974e+00 8.081247e+00
      vertex 5.135306e+00 -9.000000e+00 8.870660e+00
      vertex 1.782245e+00 -9.000000e+00 1.009384e+01
    endloop
  endfacet
  facet normal -2.318923e-01 -8.711780e-01 -4.327526e-01
    outer loop
      vertex 4.870542e+00 -8.133976e+00 7.269135e+00
      vertex 5.135306e+00 -9.000000e+00 8.870660e+00
      vertex 3.354988e+00 -8.133974e+00 8.081247e+00
    endloop
  endfacet
  facet normal -3.334118e-01 -8.512632e-01 -4.052005e-01
    outer loop
      vertex 6.195180e+00 -8.133975e+00 6.179178e+00
      vertex 5.135306e+00 -9.000000e+00 8.870660e+00
      vertex 4.870542e+00 -8.133976e+00 7.269135e+00
    endloop
  endfacet
  facet normal 2.311140e-05 -8.405578e-01 -5.417219e-01
    outer loop
      vertex -5.517857e-04 -8.133975e+00 8.750000e+00
      vertex 1.782245e+00 -9.000000e+00 1.009384e+01
      vertex -1.783106e+00 -9.000000e+00 1.009368e+01
    endloop
  endfacet
  facet normal -4.876574e-02 -8.677844e-01 -4.945423e-01
    outer loop
      vertex 1.709560e+00 -8.133975e+00 8.581370e+00
      vertex 1.782245e+00 -9.000000e+00 1.009384e+01
      vertex -5.517857e-04 -8.133975e+00 8.750000e+00
    endloop
  endfacet
  facet normal -1.477452e-01 -8.613294e-01 -4.860896e-01
    outer loop
      vertex 3.354988e+00 -8.133974e+00 8.081247e+00
      vertex 1.782245e+00 -9.000000e+00 1.009384e+01
      vertex 1.709560e+00 -8.133975e+00 8.581370e+00
    endloop
  endfacet
  facet normal 1.761493e-01 -8.578625e-01 -4.827457e-01
    outer loop
      vertex -1.710656e+00 -8.133975e+00 8.581151e+00
      vertex -1.783106e+00 -9.000000e+00 1.009368e+01
      vertex -5.136073e+00 -9.000000e+00 8.870218e+00
    endloop
  endfacet
  facet normal 4.882768e-02 -8.677891e-01 -4.945280e-01
    outer loop
      vertex -5.517857e-04 -8.133975e+00 8.750000e+00
      vertex -1.783106e+00 -9.000000e+00 1.009368e+01
      vertex -1.710656e+00 -8.133975e+00 8.581151e+00
    endloop
  endfacet
  facet normal 3.394312e-01 -8.497499e-01 -4.033751e-01
    outer loop
      vertex -4.871443e+00 -8.133975e+00 7.268531e+00
      vertex -5.136073e+00 -9.000000e+00 8.870218e+00
      vertex -7.862259e+00 -9.000000e+00 6.576194e+00
    endloop
  endfacet
  facet normal 2.319453e-01 -8.711797e-01 -4.327209e-01
    outer loop
      vertex -3.356036e+00 -8.133975e+00 8.080812e+00
      vertex -5.136073e+00 -9.000000e+00 8.870218e+00
      vertex -4.871443e+00 -8.133975e+00 7.268531e+00
    endloop
  endfacet
  facet normal 1.636331e-01 -8.268371e-01 -5.381122e-01
    outer loop
      vertex -1.710656e+00 -8.133975e+00 8.581151e+00
      vertex -5.136073e+00 -9.000000e+00 8.870218e+00
      vertex -3.356036e+00 -8.133975e+00 8.080812e+00
    endloop
  endfacet
  facet normal 4.655883e-01 -8.437350e-01 -2.670930e-01
    outer loop
      vertex -7.284717e+00 -8.133973e+00 4.847205e+00
      vertex -7.862259e+00 -9.000000e+00 6.576194e+00
      vertex -9.645025e+00 -9.000000e+00 3.468530e+00
    endloop
  endfacet
  facet normal 3.791067e-01 -8.718580e-01 -3.100672e-01
    outer loop
      vertex -6.195932e+00 -8.133975e+00 6.178424e+00
      vertex -7.862259e+00 -9.000000e+00 6.576194e+00
      vertex -7.284717e+00 -8.133973e+00 4.847205e+00
    endloop
  endfacet
  facet normal 3.402579e-01 -8.445776e-01 -4.134166e-01
    outer loop
      vertex -4.871443e+00 -8.133975e+00 7.268531e+00
      vertex -7.862259e+00 -9.000000e+00 6.576194e+00
      vertex -6.195932e+00 -8.133975e+00 6.178424e+00
    endloop
  endfacet
  facet normal 4.726124e-01 -8.698322e-01 -1.415256e-01
    outer loop
      vertex -8.095375e+00 -8.133973e+00 3.320752e+00
      vertex -9.645025e+00 -9.000000e+00 3.468530e+00
      vertex -8.588093e+00 -8.133988e+00 1.675455e+00
    endloop
  endfacet
  facet normal 4.556559e-01 -8.566331e-01 -2.419865e-01
    outer loop
      vertex -7.284717e+00 -8.133973e+00 4.847205e+00
      vertex -9.645025e+00 -9.000000e+00 3.468530e+00
      vertex -8.095375e+00 -8.133973e+00 3.320752e+00
    endloop
  endfacet
  facet normal 0.000000e+00 1.000000e+00 0.000000e+00
    outer loop
      vertex 1.448868e+01 9.000000e+00 -3.883067e+00
      vertex 1.448868e+01 9.000000e+00 3.883067e+00
      vertex 1.500000e+01 9.000000e+00 1.878579e-21
    endloop
  endfacet
  facet normal 5.201775e-01 8.513070e-01 6.849694e-02
    outer loop
      vertex 1.500000e+01 8.656895e+00 4.264246e+00
      vertex 1.500000e+01 9.000000e+00 1.878579e-21
      vertex 1.448868e+01 9.000000e+00 3.883067e+00
    endloop
  endfacet
  facet normal 5.216370e-01 8.503979e-01 -6.868913e-02
    outer loop
      vertex 1.500000e+01 8.654183e+00 -4.281345e+00
      vertex 1.448868e+01 9.000000e+00 -3.883067e+00
      vertex 1.500000e+01 9.000000e+00 1.878579e-21
    endloop
  endfacet
  facet normal 1.000000e+00 -5.081667e-11 1.612438e-14
    outer loop
      vertex 1.500000e+01 8.656895e+00 4.264246e+00
      vertex 1.500000e+01 8.654183e+00 -4.281345e+00
      vertex 1.500000e+01 9.000000e+00 1.878579e-21
    endloop
  endfacet
  facet normal 0.000000e+00 1.000000e+00 0.000000e+00
    outer loop
      vertex 1.298998e+01 9.000000e+00 -7.500702e+00
      vertex 1.298998e+01 9.000000e+00 7.500702e+00
      vertex 1.448868e+01 9.000000e+00 3.883067e+00
    endloop
  endfacet
  facet normal 4.482828e-01 8.743873e-01 1.857131e-01
    outer loop
      vertex 1.500000e+01 8.656895e+00 4.264246e+00
      vertex 1.448868e+01 9.000000e+00 3.883067e+00
      vertex 1.298998e+01 9.000000e+00 7.500702e+00
    endloop
  endfacet
  facet normal 0.000000e+00 1.000000e+00 0.000000e+00
    outer loop
      vertex 1.448868e+01 9.000000e+00 -3.883067e+00
      vertex 1.298998e+01 9.000000e+00 -7.500702e+00
      vertex 1.448868e+01 9.000000e+00 3.883067e+00
    endloop
  endfacet
  facet normal 0.000000e+00 1.000000e+00 0.000000e+00
    outer loop
      vertex 1.060632e+01 9.000000e+00 -1.060689e+01
      vertex 1.060632e+01 9.000000e+00 1.060689e+01
      vertex 1.298998e+01 9.000000e+00 7.500702e+00
    endloop
  endfacet
  facet normal 3.855155e-01 8.739884e-01 2.958412e-01
    outer loop
      vertex 1.118118e+01 8.659042e+00 1.086505e+01
      vertex 1.298998e+01 9.000000e+00 7.500702e+00
      vertex 1.060632e+01 9.000000e+00 1.060689e+01
    endloop
  endfacet
  facet normal 0.000000e+00 1.000000e+00 0.000000e+00
    outer loop
      vertex 1.298998e+01 9.000000e+00 -7.500702e+00
      vertex 1.060632e+01 9.000000e+00 -1.060689e+01
      vertex 1.298998e+01 9.000000e+00 7.500702e+00
    endloop
  endfacet
  facet normal 4.011600e-01 8.643465e-01 3.032752e-01
    outer loop
      vertex 1.500000e+01 7.660254e+00 8.660254e+00
      vertex 1.298998e+01 9.000000e+00 7.500702e+00
      vertex 1.118118e+01 8.659042e+00 1.086505e+01
    endloop
  endfacet
  facet normal 4.630851e-01 8.643778e-01 1.959674e-01
    outer loop
      vertex 1.500000e+01 8.656895e+00 4.264246e+00
      vertex 1.298998e+01 9.000000e+00 7.500702e+00
      vertex 1.500000e+01 7.660254e+00 8.660254e+00
    endloop
  endfacet
  facet normal 0.000000e+00 1.000000e+00 0.000000e+00
    outer loop
      vertex 7.861672e+00 9.000000e+00 6.576903e+00
      vertex 7.500000e+00 9.000000e+00 1.299038e+01
      vertex 1.060632e+01 9.000000e+00 1.060689e+01
    endloop
  endfacet
  facet normal 3.187493e-01 8.519567e-01 4.154138e-01
    outer loop
      vertex 1.118118e+01 8.659042e+00 1.086505e+01
      vertex 1.060632e+01 9.000000e+00 1.060689e+01
      vertex 7.500000e+00 9.000000e+00 1.299038e+01
    endloop
  endfacet
  facet normal 0.000000e+00 1.000000e+00 0.000000e+00
    outer loop
      vertex 1.025000e+01 9.000000e+00 0.000000e+00
      vertex 1.060632e+01 9.000000e+00 1.060689e+01
      vertex 1.060632e+01 9.000000e+00 -1.060689e+01
    endloop
  endfacet
  facet normal 0.000000e+00 1.000000e+00 0.000000e+00
    outer loop
      vertex 9.644692e+00 9.000000e+00 3.469468e+00
      vertex 7.861672e+00 9.000000e+00 6.576903e+00
      vertex 1.060632e+01 9.000000e+00 1.060689e+01
    endloop
  endfacet
  facet normal 0.000000e+00 1.000000e+00 0.000000e+00
    outer loop
      vertex 1.025000e+01 9.000000e+00 0.000000e+00
      vertex 9.644692e+00 9.000000e+00 3.469468e+00
      vertex 1.060632e+01 9.000000e+00 1.060689e+01
    endloop
  endfacet
  facet normal 0.000000e+00 1.000000e+00 0.000000e+00
    outer loop
      vertex 5.135306e+00 9.000000e+00 8.870660e+00
      vertex 3.882677e+00 9.000000e+00 1.448878e+01
      vertex 7.500000e+00 9.000000e+00 1.299038e+01
    endloop
  endfacet
  facet normal 2.003657e-01 8.519864e-01 4.837072e-01
    outer loop
      vertex 3.819301e+00 8.659129e+00 1.511543e+01
      vertex 7.500000e+00 9.000000e+00 1.299038e+01
      vertex 3.882677e+00 9.000000e+00 1.448878e+01
    endloop
  endfacet
  facet normal 0.000000e+00 1.000000e+00 0.000000e+00
    outer loop
      vertex 7.861672e+00 9.000000e+00 6.576903e+00
      vertex 5.135306e+00 9.000000e+00 8.870660e+00
      vertex 7.500000e+00 9.000000e+00 1.299038e+01
    endloop
  endfacet
  facet normal 5.000000e-01 -2.632264e-11 8.660254e-01
    outer loop
      vertex 1.118118e+01 8.659042e+00 1.086505e+01
      vertex 7.500000e+00 9.000000e+00 1.299038e+01
      vertex 3.819301e+00 8.659129e+00 1.511543e+01
    endloop
  endfacet
  facet normal 0.000000e+00 1.000000e+00 0.000000e+00
    outer loop
      vertex 1.782245e+00 9.000000e+00 1.009384e+01
      vertex -1.363200e-10 9.000000e+00 1.500000e+01
      vertex 3.882677e+00 9.000000e+00 1.448878e+01
    endloop
  endfacet
  facet normal 6.343921e-02 8.739717e-01 4.818184e-01
    outer loop
      vertex 3.819301e+00 8.659129e+00 1.511543e+01
      vertex 3.882677e+00 9.000000e+00 1.448878e+01
      vertex -1.363200e-10 9.000000e+00 1.500000e+01
    endloop
  endfacet
  facet normal 0.000000e+00 1.000000e+00 0.000000e+00
    outer loop
      vertex 5.135306e+00 9.000000e+00 8.870660e+00
      vertex 1.782245e+00 9.000000e+00 1.009384e+01
      vertex 3.882677e+00 9.000000e+00 1.448878e+01
    endloop
  endfacet
  facet normal 0.000000e+00 1.000000e+00 0.000000e+00
    outer loop
      vertex -1.783106e+00 9.000000e+00 1.009368e+01
      vertex -3.882677e+00 9.000000e+00 1.448878e+01
      vertex -1.363200e-10 9.000000e+00 1.500000e+01
    endloop
  endfacet
  facet normal -6.569092e-02 8.641548e-01 4.989200e-01
    outer loop
      vertex -1.776357e-15 7.660254e+00 1.732051e+01
      vertex -1.363200e-10 9.000000e+00 1.500000e+01
      vertex -3.882677e+00 9.000000e+00 1.448878e+01
    endloop
  endfacet
  facet normal 0.000000e+00 1.000000e+00 0.000000e+00
    outer loop
      vertex 1.782245e+00 9.000000e+00 1.009384e+01
      vertex -1.783106e+00 9.000000e+00 1.009368e+01
      vertex -1.363200e-10 9.000000e+00 1.500000e+01
    endloop
  endfacet
  facet normal 6.206063e-02 8.643560e-01 4.990362e-01
    outer loop
      vertex 3.819301e+00 8.659129e+00 1.511543e+01
      vertex -1.363200e-10 9.000000e+00 1.500000e+01
      vertex -1.776357e-15 7.660254e+00 1.732051e+01
    endloop
  endfacet
  facet normal 0.000000e+00 1.000000e+00 0.000000e+00
    outer loop
      vertex -5.136073e+00 9.000000e+00 8.870218e+00
      vertex -7.500000e+00 9.000000e+00 1.299038e+01
      vertex -3.882677e+00 9.000000e+00 1.448878e+01
    endloop
  endfacet
  facet normal -2.003842e-01 8.519567e-01 4.837519e-01
    outer loop
      vertex -3.818824e+00 8.659042e+00 1.511571e+01
      vertex -3.882677e+00 9.000000e+00 1.448878e+01
      vertex -7.500000e+00 9.000000e+00 1.299038e+01
    endloop
  endfacet
  facet normal 0.000000e+00 1.000000e+00 0.000000e+00
    outer loop
      vertex -1.783106e+00 9.000000e+00 1.009368e+01
      vertex -5.136073e+00 9.000000e+00 8.870218e+00
      vertex -3.882677e+00 9.000000e+00 1.448878e+01
    endloop
  endfacet
  facet normal -4.878276e-02 8.753453e-01 4.810311e-01
    outer loop
      vertex -1.776357e-15 7.660254e+00 1.732051e+01
      vertex -3.882677e+00 9.000000e+00 1.448878e+01
      vertex -3.818824e+00 8.659042e+00 1.511571e+01
    endloop
  endfacet
  facet normal 0.000000e+00 1.000000e+00 0.000000e+00
    outer loop
      vertex -9.645025e+00 9.000000e+00 3.468530e+00
      vertex -1.060632e+01 9.000000e+00 1.060689e+01
      vertex -7.500000e+00 9.000000e+00 1.299038e+01
    endloop
  endfacet
  facet normal -3.187199e-01 8.519864e-01 4.153755e-01
    outer loop
      vertex -1.118070e+01 8.659129e+00 1.086533e+01
      vertex -7.500000e+00 9.000000e+00 1.299038e+01
      vertex -1.060632e+01 9.000000e+00 1.060689e+01
    endloop
  endfacet
  facet normal 0.000000e+00 1.000000e+00 0.000000e+00
    outer loop
      vertex -7.862259e+00 9.000000e+00 6.576194e+00
      vertex -9.645025e+00 9.000000e+00 3.468530e+00
      vertex -7.500000e+00 9.000000e+00 1.299038e+01
    endloop
  endfacet
  facet normal 0.000000e+00 1.000000e+00 0.000000e+00
    outer loop
      vertex -5.136073e+00 9.000000e+00 8.870218e+00
      vertex -7.862259e+00 9.000000e+00 6.576194e+00
      vertex -7.500000e+00 9.000000e+00 1.299038e+01
    endloop
  endfacet
  facet normal -5.000000e-01 -2.107699e-11 8.660254e-01
    outer loop
      vertex -3.818824e+00 8.659042e+00 1.511571e+01
      vertex -7.500000e+00 9.000000e+00 1.299038e+01
      vertex -1.118070e+01 8.659129e+00 1.086533e+01
    endloop
  endfacet
  facet normal 0.000000e+00 1.000000e+00 0.000000e+00
    outer loop
      vertex -1.298998e+01 9.000000e+00 -7.500702e+00
      vertex -1.298998e+01 9.000000e+00 7.500702e+00
      vertex -1.060632e+01 9.000000e+00 1.060689e+01
    endloop
  endfacet
  facet normal -3.855412e-01 8.739704e-01 2.958610e-01
    outer loop
      vertex -1.118070e+01 8.659129e+00 1.086533e+01
      vertex -1.060632e+01 9.000000e+00 1.060689e+01
      vertex -1.298998e+01 9.000000e+00 7.500702e+00
    endloop
  endfacet
  facet normal 0.000000e+00 1.000000e+00 0.000000e+00
    outer loop
      vertex -1.060632e+01 9.000000e+00 -1.060689e+01
      vertex -1.298998e+01 9.000000e+00 -7.500702e+00
      vertex -1.060632e+01 9.000000e+00 1.060689e+01
    endloop
  endfacet
  facet normal 0.000000e+00 1.000000e+00 0.000000e+00
    outer loop
      vertex -1.025000e+01 9.000000e+00 -3.296693e-15
      vertex -1.060632e+01 9.000000e+00 -1.060689e+01
      vertex -1.060632e+01 9.000000e+00 1.060689e+01
    endloop
  endfacet
  facet normal 0.000000e+00 1.000000e+00 0.000000e+00
    outer loop
      vertex -9.645025e+00 9.000000e+00 3.468530e+00
      vertex -1.025000e+01 9.000000e+00 -3.296693e-15
      vertex -1.060632e+01 9.000000e+00 1.060689e+01
    endloop
  endfacet
  facet normal 0.000000e+00 1.000000e+00 0.000000e+00
    outer loop
      vertex -1.448868e+01 9.000000e+00 -3.883067e+00
      vertex -1.448868e+01 9.000000e+00 3.883067e+00
      vertex -1.298998e+01 9.000000e+00 7.500702e+00
    endloop
  endfacet
  facet normal -4.648908e-01 8.641668e-01 1.925935e-01
    outer loop
      vertex -1.500000e+01 7.660254e+00 8.660254e+00
      vertex -1.298998e+01 9.000000e+00 7.500702e+00
      vertex -1.448868e+01 9.000000e+00 3.883067e+00
    endloop
  endfacet
  facet normal 0.000000e+00 1.000000e+00 0.000000e+00
    outer loop
      vertex -1.298998e+01 9.000000e+00 -7.500702e+00
      vertex -1.448868e+01 9.000000e+00 -3.883067e+00
      vertex -1.298998e+01 9.000000e+00 7.500702e+00
    endloop
  endfacet
  facet normal -4.011556e-01 8.643460e-01 3.032823e-01
    outer loop
      vertex -1.118070e+01 8.659129e+00 1.086533e+01
      vertex -1.298998e+01 9.000000e+00 7.500702e+00
      vertex -1.500000e+01 7.660254e+00 8.660254e+00
    endloop
  endfacet
  facet normal 0.000000e+00 1.000000e+00 0.000000e+00
    outer loop
      vertex -1.448868e+01 9.000000e+00 -3.883067e+00
      vertex -1.500000e+01 9.000000e+00 -1.860071e-21
      vertex -1.448868e+01 9.000000e+00 3.883067e+00
    endloop
  endfacet
  facet normal -5.216370e-01 8.503979e-01 6.868913e-02
    outer loop
      vertex -1.500000e+01 8.654183e+00 4.281344e+00
      vertex -1.448868e+01 9.000000e+00 3.883067e+00
      vertex -1.500000e+01 9.000000e+00 -1.860071e-21
    endloop
  endfacet
  facet normal -4.379325e-01 8.767073e-01 1.989959e-01
    outer loop
      vertex -1.500000e+01 8.654183e+00 4.281344e+00
      vertex -1.500000e+01 7.660254e+00 8.660254e+00
      vertex -1.448868e+01 9.000000e+00 3.883067e+00
    endloop
  endfacet
  facet normal -5.201775e-01 8.513070e-01 -6.849694e-02
    outer loop
      vertex -1.500000e+01 8.656895e+00 -4.264246e+00
      vertex -1.500000e+01 9.000000e+00 -1.860071e-21
      vertex -1.448868e+01 9.000000e+00 -3.883067e+00
    endloop
  endfacet
  facet normal -1.000000e+00 -5.081667e-11 -1.612433e-14
    outer loop
      vertex -1.500000e+01 8.654183e+00 4.281344e+00
      vertex -1.500000e+01 9.000000e+00 -1.860071e-21
      vertex -1.500000e+01 8.656895e+00 -4.264246e+00
    endloop
  endfacet
  facet normal -4.482828e-01 8.743873e-01 -1.857131e-01
    outer loop
      vertex -1.500000e+01 8.656895e+00 -4.264246e+00
      vertex -1.448868e+01 9.000000e+00 -3.883067e+00
      vertex -1.298998e+01 9.000000e+00 -7.500702e+00
    endloop
  endfacet
  facet normal -3.855155e-01 8.739884e-01 -2.958412e-01
    outer loop
      vertex -1.118118e+01 8.659042e+00 -1.086505e+01
      vertex -1.298998e+01 9.000000e+00 -7.500702e+00
      vertex -1.060632e+01 9.000000e+00 -1.060689e+01
    endloop
  endfacet
  facet normal -4.011600e-01 8.643465e-01 -3.032752e-01
    outer loop
      vertex -1.500000e+01 7.660254e+00 -8.660254e+00
      vertex -1.298998e+01 9.000000e+00 -7.500702e+00
      vertex -1.118118e+01 8.659042e+00 -1.086505e+01
    endloop
  endfacet
  facet normal -4.630851e-01 8.643778e-01 -1.959674e-01
    outer loop
      vertex -1.500000e+01 8.656895e+00 -4.264246e+00
      vertex -1.298998e+01 9.000000e+00 -7.500702e+00
      vertex -1.500000e+01 7.660254e+00 -8.660254e+00
    endloop
  endfacet
  facet normal 0.000000e+00 1.000000e+00 0.000000e+00
    outer loop
      vertex -7.861672e+00 9.000000e+00 -6.576903e+00
      vertex -7.500000e+00 9.000000e+00 -1.299038e+01
      vertex -1.060632e+01 9.000000e+00 -1.060689e+01
    endloop
  endfacet
  facet normal -3.187493e-01 8.519567e-01 -4.154138e-01
    outer loop
      vertex -1.118118e+01 8.659042e+00 -1.086505e+01
      vertex -1.060632e+01 9.000000e+00 -1.060689e+01
      vertex -7.500000e+00 9.000000e+00 -1.299038e+01
    endloop
  endfacet
  facet normal 0.000000e+00 1.000000e+00 0.000000e+00
    outer loop
      vertex -9.644692e+00 9.000000e+00 -3.469468e+00
      vertex -1.060632e+01 9.000000e+00 -1.060689e+01
      vertex -1.025000e+01 9.000000e+00 -3.296693e-15
    endloop
  endfacet
  facet normal 0.000000e+00 1.000000e+00 0.000000e+00
    outer loop
      vertex -9.644692e+00 9.000000e+00 -3.469468e+00
      vertex -7.861672e+00 9.000000e+00 -6.576903e+00
      vertex -1.060632e+01 9.000000e+00 -1.060689e+01
    endloop
  endfacet
  facet normal 0.000000e+00 1.000000e+00 0.000000e+00
    outer loop
      vertex -5.135306e+00 9.000000e+00 -8.870660e+00
      vertex -3.882677e+00 9.000000e+00 -1.448878e+01
      vertex -7.500000e+00 9.000000e+00 -1.299038e+01
    endloop
  endfacet
  facet normal -2.003657e-01 8.519864e-01 -4.837072e-01
    outer loop
      vertex -3.819301e+00 8.659129e+00 -1.511543e+01
      vertex -7.500000e+00 9.000000e+00 -1.299038e+01
      vertex -3.882677e+00 9.000000e+00 -1.448878e+01
    endloop
  endfacet
  facet normal 0.000000e+00 1.000000e+00 0.000000e+00
    outer loop
      vertex -7.861672e+00 9.000000e+00 -6.576903e+00
      vertex -5.135306e+00 9.000000e+00 -8.870660e+00
      vertex -7.500000e+00 9.000000e+00 -1.299038e+01
    endloop
  endfacet
  facet normal -5.000000e-01 -2.632447e-11 -8.660254e-01
    outer loop
      vertex -1.118118e+01 8.659042e+00 -1.086505e+01
      vertex -7.500000e+00 9.000000e+00 -1.299038e+01
      vertex -3.819301e+00 8.659129e+00 -1.511543e+01
    endloop
  endfacet
  facet normal 0.000000e+00 1.000000e+00 0.000000e+00
    outer loop
      vertex -1.782245e+00 9.000000e+00 -1.009384e+01
      vertex 1.363059e-10 9.000000e+00 -1.500000e+01
      vertex -3.882677e+00 9.000000e+00 -1.448878e+01
    endloop
  endfacet
  facet normal -6.343921e-02 8.739717e-01 -4.818184e-01
    outer loop
      vertex -3.819301e+00 8.659129e+00 -1.511543e+01
      vertex -3.882677e+00 9.000000e+00 -1.448878e+01
      vertex 1.363059e-10 9.000000e+00 -1.500000e+01
    endloop
  endfacet
  facet normal 0.000000e+00 1.000000e+00 0.000000e+00
    outer loop
      vertex -5.135306e+00 9.000000e+00 -8.870660e+00
      vertex -1.782245e+00 9.000000e+00 -1.009384e+01
      vertex -3.882677e+00 9.000000e+00 -1.448878e+01
    endloop
  endfacet
  facet normal 0.000000e+00 1.000000e+00 0.000000e+00
    outer loop
      vertex 1.783106e+00 9.000000e+00 -1.009368e+01
      vertex 3.882677e+00 9.000000e+00 -1.448878e+01
      vertex 1.363059e-10 9.000000e+00 -1.500000e+01
    endloop
  endfacet
  facet normal 6.569092e-02 8.641548e-01 -4.989200e-01
    outer loop
      vertex 1.776357e-15 7.660254e+00 -1.732051e+01
      vertex 1.363059e-10 9.000000e+00 -1.500000e+01
      vertex 3.882677e+00 9.000000e+00 -1.448878e+01
    endloop
  endfacet
  facet normal 0.000000e+00 1.000000e+00 0.000000e+00
    outer loop
      vertex -1.782245e+00 9.000000e+00 -1.009384e+01
      vertex 1.783106e+00 9.000000e+00 -1.009368e+01
      vertex 1.363059e-10 9.000000e+00 -1.500000e+01
    endloop
  endfacet
  facet normal -6.206063e-02 8.643560e-01 -4.990362e-01
    outer loop
      vertex -3.819301e+00 8.659129e+00 -1.511543e+01
      vertex 1.363059e-10 9.000000e+00 -1.500000e+01
      vertex 1.776357e-15 7.660254e+00 -1.732051e+01
    endloop
  endfacet
  facet normal 0.000000e+00 1.000000e+00 0.000000e+00
    outer loop
      vertex 5.136073e+00 9.000000e+00 -8.870218e+00
      vertex 7.500000e+00 9.000000e+00 -1.299038e+01
      vertex 3.882677e+00 9.000000e+00 -1.448878e+01
    endloop
  endfacet
  facet normal 2.003842e-01 8.519567e-01 -4.837519e-01
    outer loop
      vertex 3.818824e+00 8.659042e+00 -1.511571e+01
      vertex 3.882677e+00 9.000000e+00 -1.448878e+01
      vertex 7.500000e+00 9.000000e+00 -1.299038e+01
    endloop
  endfacet
  facet normal 0.000000e+00 1.000000e+00 0.000000e+00
    outer loop
      vertex 1.783106e+00 9.000000e+00 -1.009368e+01
      vertex 5.136073e+00 9.000000e+00 -8.870218e+00
      vertex 3.882677e+00 9.000000e+00 -1.448878e+01
    endloop
  endfacet
  facet normal 4.878276e-02 8.753453e-01 -4.810311e-01
    outer loop
      vertex 1.776357e-15 7.660254e+00 -1.732051e+01
      vertex 3.882677e+00 9.000000e+00 -1.448878e+01
      vertex 3.818824e+00 8.659042e+00 -1.511571e+01
    endloop
  endfacet
  facet normal 0.000000e+00 1.000000e+00 0.000000e+00
    outer loop
      vertex 9.645025e+00 9.000000e+00 -3.468530e+00
      vertex 1.060632e+01 9.000000e+00 -1.060689e+01
      vertex 7.500000e+00 9.000000e+00 -1.299038e+01
    endloop
  endfacet
  facet normal 3.187199e-01 8.519864e-01 -4.153755e-01
    outer loop
      vertex 1.118070e+01 8.659129e+00 -1.086533e+01
      vertex 7.500000e+00 9.000000e+00 -1.299038e+01
      vertex 1.060632e+01 9.000000e+00 -1.060689e+01
    endloop
  endfacet
  facet normal 0.000000e+00 1.000000e+00 0.000000e+00
    outer loop
      vertex 7.862259e+00 9.000000e+00 -6.576194e+00
      vertex 9.645025e+00 9.000000e+00 -3.468530e+00
      vertex 7.500000e+00 9.000000e+00 -1.299038e+01
    endloop
  endfacet
  facet normal 0.000000e+00 1.000000e+00 0.000000e+00
    outer loop
      vertex 5.136073e+00 9.000000e+00 -8.870218e+00
      vertex 7.862259e+00 9.000000e+00 -6.576194e+00
      vertex 7.500000e+00 9.000000e+00 -1.299038e+01
    endloop
  endfacet
  facet normal 5.000000e-01 -2.107454e-11 -8.660254e-01
    outer loop
      vertex 3.818824e+00 8.659042e+00 -1.511571e+01
      vertex 7.500000e+00 9.000000e+00 -1.299038e+01
      vertex 1.118070e+01 8.659129e+00 -1.086533e+01
    endloop
  endfacet
  facet normal 3.855412e-01 8.739704e-01 -2.958610e-01
    outer loop
      vertex 1.118070e+01 8.659129e+00 -1.086533e+01
      vertex 1.060632e+01 9.000000e+00 -1.060689e+01
      vertex 1.298998e+01 9.000000e+00 -7.500702e+00
    endloop
  endfacet
  facet normal 0.000000e+00 1.000000e+00 0.000000e+00
    outer loop
      vertex 9.645025e+00 9.000000e+00 -3.468530e+00
      vertex 1.025000e+01 9.000000e+00 0.000000e+00
      vertex 1.060632e+01 9.000000e+00 -1.060689e+01
    endloop
  endfacet
  facet normal 4.648908e-01 8.641668e-01 -1.925935e-01
    outer loop
      vertex 1.500000e+01 7.660254e+00 -8.660254e+00
      vertex 1.298998e+01 9.000000e+00 -7.500702e+00
      vertex 1.448868e+01 9.000000e+00 -3.883067e+00
    endloop
  endfacet
  facet normal 4.011556e-01 8.643460e-01 -3.032823e-01
    outer loop
      vertex 1.118070e+01 8.659129e+00 -1.086533e+01
      vertex 1.298998e+01 9.000000e+00 -7.500702e+00
      vertex 1.500000e+01 7.660254e+00 -8.660254e+00
    endloop
  endfacet
  facet normal 4.379325e-01 8.767073e-01 -1.989959e-01
    outer loop
      vertex 1.500000e+01 7.660254e+00 -8.660254e+00
      vertex 1.448868e+01 9.000000e+00 -3.883067e+00
      vertex 1.500000e+01 8.654183e+00 -4.281345e+00
    endloop
  endfacet
  facet normal 4.981094e-01 8.627508e-01 -8.687938e-02
    outer loop
      vertex -8.750000e+00 8.133975e+00 -1.071531e-15
      vertex -1.025000e+01 9.000000e+00 -3.296693e-15
      vertex -9.645025e+00 9.000000e+00 3.468530e+00
    endloop
  endfacet
  facet normal 5.321209e-01 8.415632e-01 9.283753e-02
    outer loop
      vertex -8.587943e+00 8.133994e+00 -1.676225e+00
      vertex -9.644692e+00 9.000000e+00 -3.469468e+00
      vertex -1.025000e+01 9.000000e+00 -3.296693e-15
    endloop
  endfacet
  facet normal 4.994166e-01 8.650149e-01 4.829358e-02
    outer loop
      vertex -8.587943e+00 8.133994e+00 -1.676225e+00
      vertex -1.025000e+01 9.000000e+00 -3.296693e-15
      vertex -8.750000e+00 8.133975e+00 -1.071531e-15
    endloop
  endfacet
  facet normal 4.521751e-01 8.533758e-01 -2.593982e-01
    outer loop
      vertex -8.095375e+00 8.133973e+00 3.320752e+00
      vertex -9.645025e+00 9.000000e+00 3.468530e+00
      vertex -7.862259e+00 9.000000e+00 6.576194e+00
    endloop
  endfacet
  facet normal 5.747371e-01 8.164508e-01 -5.554602e-02
    outer loop
      vertex -8.588093e+00 8.133988e+00 1.675455e+00
      vertex -8.750000e+00 8.133975e+00 -1.071531e-15
      vertex -9.645025e+00 9.000000e+00 3.468530e+00
    endloop
  endfacet
  facet normal 4.726124e-01 8.698322e-01 -1.415256e-01
    outer loop
      vertex -8.588093e+00 8.133988e+00 1.675455e+00
      vertex -9.645025e+00 9.000000e+00 3.468530e+00
      vertex -8.095375e+00 8.133973e+00 3.320752e+00
    endloop
  endfacet
  facet normal 3.427379e-01 8.465421e-01 -4.073048e-01
    outer loop
      vertex -6.195932e+00 8.133975e+00 6.178424e+00
      vertex -7.862259e+00 9.000000e+00 6.576194e+00
      vertex -5.136073e+00 9.000000e+00 8.870218e+00
    endloop
  endfacet
  facet normal 3.791067e-01 8.718580e-01 -3.100672e-01
    outer loop
      vertex -7.284717e+00 8.133973e+00 4.847205e+00
      vertex -7.862259e+00 9.000000e+00 6.576194e+00
      vertex -6.195932e+00 8.133975e+00 6.178424e+00
    endloop
  endfacet
  facet normal 4.842122e-01 8.363082e-01 -2.571520e-01
    outer loop
      vertex -8.095375e+00 8.133973e+00 3.320752e+00
      vertex -7.862259e+00 9.000000e+00 6.576194e+00
      vertex -7.284717e+00 8.133973e+00 4.847205e+00
    endloop
  endfacet
  facet normal 1.849161e-01 8.420146e-01 -5.067715e-01
    outer loop
      vertex -3.356036e+00 8.133975e+00 8.080812e+00
      vertex -5.136073e+00 9.000000e+00 8.870218e+00
      vertex -1.783106e+00 9.000000e+00 1.009368e+01
    endloop
  endfacet
  facet normal 2.319453e-01 8.711797e-01 -4.327209e-01
    outer loop
      vertex -4.871443e+00 8.133975e+00 7.268531e+00
      vertex -5.136073e+00 9.000000e+00 8.870218e+00
      vertex -3.356036e+00 8.133975e+00 8.080812e+00
    endloop
  endfacet
  facet normal 3.334726e-01 8.512529e-01 -4.051723e-01
    outer loop
      vertex -6.195932e+00 8.133975e+00 6.178424e+00
      vertex -5.136073e+00 9.000000e+00 8.870218e+00
      vertex -4.871443e+00 8.133975e+00 7.268531e+00
    endloop
  endfacet
  facet normal 2.311140e-05 8.405578e-01 -5.417219e-01
    outer loop
      vertex -5.517857e-04 8.133975e+00 8.750000e+00
      vertex -1.783106e+00 9.000000e+00 1.009368e+01
      vertex 1.782245e+00 9.000000e+00 1.009384e+01
    endloop
  endfacet
  facet normal 4.882768e-02 8.677891e-01 -4.945280e-01
    outer loop
      vertex -1.710656e+00 8.133975e+00 8.581151e+00
      vertex -1.783106e+00 9.000000e+00 1.009368e+01
      vertex -5.517857e-04 8.133975e+00 8.750000e+00
    endloop
  endfacet
  facet normal 1.478118e-01 8.613214e-01 -4.860835e-01
    outer loop
      vertex -3.356036e+00 8.133975e+00 8.080812e+00
      vertex -1.783106e+00 9.000000e+00 1.009368e+01
      vertex -1.710656e+00 8.133975e+00 8.581151e+00
    endloop
  endfacet
  facet normal -1.761031e-01 8.578714e-01 -4.827468e-01
    outer loop
      vertex 1.709560e+00 8.133975e+00 8.581370e+00
      vertex 1.782245e+00 9.000000e+00 1.009384e+01
      vertex 5.135306e+00 9.000000e+00 8.870660e+00
    endloop
  endfacet
  facet normal -4.876574e-02 8.677844e-01 -4.945423e-01
    outer loop
      vertex -5.517857e-04 8.133975e+00 8.750000e+00
      vertex 1.782245e+00 9.000000e+00 1.009384e+01
      vertex 1.709560e+00 8.133975e+00 8.581370e+00
    endloop
  endfacet
  facet normal -3.393881e-01 8.497564e-01 -4.033977e-01
    outer loop
      vertex 4.870542e+00 8.133976e+00 7.269135e+00
      vertex 5.135306e+00 9.000000e+00 8.870660e+00
      vertex 7.861672e+00 9.000000e+00 6.576903e+00
    endloop
  endfacet
  facet normal -2.318923e-01 8.711780e-01 -4.327526e-01
    outer loop
      vertex 3.354988e+00 8.133974e+00 8.081247e+00
      vertex 5.135306e+00 9.000000e+00 8.870660e+00
      vertex 4.870542e+00 8.133976e+00 7.269135e+00
    endloop
  endfacet
  facet normal -1.635727e-01 8.268160e-01 -5.381628e-01
    outer loop
      vertex 1.709560e+00 8.133975e+00 8.581370e+00
      vertex 5.135306e+00 9.000000e+00 8.870660e+00
      vertex 3.354988e+00 8.133974e+00 8.081247e+00
    endloop
  endfacet
  facet normal -4.655546e-01 8.437415e-01 -2.671314e-01
    outer loop
      vertex 7.284040e+00 8.133972e+00 4.848223e+00
      vertex 7.861672e+00 9.000000e+00 6.576903e+00
      vertex 9.644692e+00 9.000000e+00 3.469468e+00
    endloop
  endfacet
  facet normal -3.790656e-01 8.718582e-01 -3.101172e-01
    outer loop
      vertex 6.195180e+00 8.133975e+00 6.179178e+00
      vertex 7.861672e+00 9.000000e+00 6.576903e+00
      vertex 7.284040e+00 8.133972e+00 4.848223e+00
    endloop
  endfacet
  facet normal -3.402170e-01 8.445675e-01 -4.134709e-01
    outer loop
      vertex 4.870542e+00 8.133976e+00 7.269135e+00
      vertex 7.861672e+00 9.000000e+00 6.576903e+00
      vertex 6.195180e+00 8.133975e+00 6.179178e+00
    endloop
  endfacet
  facet normal -5.321209e-01 8.415632e-01 -9.283753e-02
    outer loop
      vertex 8.587943e+00 8.133994e+00 1.676225e+00
      vertex 9.644692e+00 9.000000e+00 3.469468e+00
      vertex 1.025000e+01 9.000000e+00 0.000000e+00
    endloop
  endfacet
  facet normal -4.725878e-01 8.698376e-01 -1.415745e-01
    outer loop
      vertex 8.094906e+00 8.133973e+00 3.321898e+00
      vertex 9.644692e+00 9.000000e+00 3.469468e+00
      vertex 8.587943e+00 8.133994e+00 1.676225e+00
    endloop
  endfacet
  facet normal -4.556359e-01 8.566238e-01 -2.420572e-01
    outer loop
      vertex 7.284040e+00 8.133972e+00 4.848223e+00
      vertex 9.644692e+00 9.000000e+00 3.469468e+00
      vertex 8.094906e+00 8.133973e+00 3.321898e+00
    endloop
  endfacet
  facet normal -4.981094e-01 8.627508e-01 8.687938e-02
    outer loop
      vertex 8.750000e+00 8.133975e+00 0.000000e+00
      vertex 1.025000e+01 9.000000e+00 0.000000e+00
      vertex 9.645025e+00 9.000000e+00 -3.468530e+00
    endloop
  endfacet
  facet normal -4.994166e-01 8.650149e-01 -4.829358e-02
    outer loop
      vertex 8.587943e+00 8.133994e+00 1.676225e+00
      vertex 1.025000e+01 9.000000e+00 0.000000e+00
      vertex 8.750000e+00 8.133975e+00 0.000000e+00
    endloop
  endfacet
  facet normal -4.521751e-01 8.533758e-01 2.593982e-01
    outer loop
      vertex 8.095375e+00 8.133973e+00 -3.320752e+00
      vertex 9.645025e+00 9.000000e+00 -3.468530e+00
      vertex 7.862259e+00 9.000000e+00 -6.576194e+00
    endloop
  endfacet
  facet normal -4.726124e-01 8.698322e-01 1.415256e-01
    outer loop
      vertex 8.588093e+00 8.133988e+00 -1.675455e+00
      vertex 9.645025e+00 9.000000e+00 -3.468530e+00
      vertex 8.095375e+00 8.133973e+00 -3.320752e+00
    endloop
  endfacet
  facet normal -5.747371e-01 8.164508e-01 5.554602e-02
    outer loop
      vertex 8.750000e+00 8.133975e+00 0.000000e+00
      vertex 9.645025e+00 9.000000e+00 -3.468530e+00
      vertex 8.588093e+00 8.133988e+00 -1.675455e+00
    endloop
  endfacet
  facet normal -3.427379e-01 8.465421e-01 4.073048e-01
    outer loop
      vertex 6.195932e+00 8.133975e+00 -6.178424e+00
      vertex 7.862259e+00 9.000000e+00 -6.576194e+00
      vertex 5.136073e+00 9.000000e+00 -8.870218e+00
    endloop
  endfacet
  facet normal -3.791067e-01 8.718580e-01 3.100672e-01
    outer loop
      vertex 7.284717e+00 8.133973e+00 -4.847205e+00
      vertex 7.862259e+00 9.000000e+00 -6.576194e+00
      vertex 6.195932e+00 8.133975e+00 -6.178424e+00
    endloop
  endfacet
  facet normal -4.842122e-01 8.363082e-01 2.571520e-01
    outer loop
      vertex 8.095375e+00 8.133973e+00 -3.320752e+00
      vertex 7.862259e+00 9.000000e+00 -6.576194e+00
      vertex 7.284717e+00 8.133973e+00 -4.847205e+00
    endloop
  endfacet
  facet normal -1.849161e-01 8.420146e-01 5.067715e-01
    outer loop
      vertex 3.356036e+00 8.133975e+00 -8.080812e+00
      vertex 5.136073e+00 9.000000e+00 -8.870218e+00
      vertex 1.783106e+00 9.000000e+00 -1.009368e+01
    endloop
  endfacet
  facet normal -2.319453e-01 8.711797e-01 4.327209e-01
    outer loop
      vertex 4.871443e+00 8.133975e+00 -7.268531e+00
      vertex 5.136073e+00 9.000000e+00 -8.870218e+00
      vertex 3.356036e+00 8.133975e+00 -8.080812e+00
    endloop
  endfacet
  facet normal -3.334726e-01 8.512529e-01 4.051723e-01
    outer loop
      vertex 6.195932e+00 8.133975e+00 -6.178424e+00
      vertex 5.136073e+00 9.000000e+00 -8.870218e+00
      vertex 4.871443e+00 8.133975e+00 -7.268531e+00
    endloop
  endfacet
  facet normal -2.311140e-05 8.405578e-01 5.417219e-01
    outer loop
      vertex 5.517857e-04 8.133975e+00 -8.750000e+00
      vertex 1.783106e+00 9.000000e+00 -1.009368e+01
      vertex -1.782245e+00 9.000000e+00 -1.009384e+01
    endloop
  endfacet
  facet normal -4.882768e-02 8.677891e-01 4.945280e-01
    outer loop
      vertex 1.710656e+00 8.133975e+00 -8.581151e+00
      vertex 1.783106e+00 9.000000e+00 -1.009368e+01
      vertex 5.517857e-04 8.133975e+00 -8.750000e+00
    endloop
  endfacet
  facet normal -1.478118e-01 8.613214e-01 4.860835e-01
    outer loop
      vertex 3.356036e+00 8.133975e+00 -8.080812e+00
      vertex 1.783106e+00 9.000000e+00 -1.009368e+01
      vertex 1.710656e+00 8.133975e+00 -8.581151e+00
    endloop
  endfacet
  facet normal 1.761031e-01 8.578714e-01 4.827468e-01
    outer loop
      vertex -1.709560e+00 8.133975e+00 -8.581370e+00
      vertex -1.782245e+00 9.000000e+00 -1.009384e+01
      vertex -5.135306e+00 9.000000e+00 -8.870660e+00
    endloop
  endfacet
  facet normal 4.876574e-02 8.677844e-01 4.945423e-01
    outer loop
      vertex 5.517857e-04 8.133975e+00 -8.750000e+00
      vertex -1.782245e+00 9.000000e+00 -1.009384e+01
      vertex -1.709560e+00 8.133975e+00 -8.581370e+00
    endloop
  endfacet
  facet normal 3.393881e-01 8.497564e-01 4.033977e-01
    outer loop
      vertex -4.870542e+00 8.133976e+00 -7.269135e+00
      vertex -5.135306e+00 9.000000e+00 -8.870660e+00
      vertex -7.861672e+00 9.000000e+00 -6.576903e+00
    endloop
  endfacet
  facet normal 2.318923e-01 8.711780e-01 4.327526e-01
    outer loop
      vertex -3.354988e+00 8.133974e+00 -8.081247e+00
      vertex -5.135306e+00 9.000000e+00 -8.870660e+00
      vertex -4.870542e+00 8.133976e+00 -7.269135e+00
    endloop
  endfacet
  facet normal 1.635727e-01 8.268160e-01 5.381628e-01
    outer loop
      vertex -1.709560e+00 8.133975e+00 -8.581370e+00
      vertex -5.135306e+00 9.000000e+00 -8.870660e+00
      vertex -3.354988e+00 8.133974e+00 -8.081247e+00
    endloop
  endfacet
  facet normal 4.655546e-01 8.437415e-01 2.671314e-01
    outer loop
      vertex -7.284040e+00 8.133972e+00 -4.848223e+00
      vertex -7.861672e+00 9.000000e+00 -6.576903e+00
      vertex -9.644692e+00 9.000000e+00 -3.469468e+00
    endloop
  endfacet
  facet normal 3.790656e-01 8.718582e-01 3.101172e-01
    outer loop
      vertex -6.195180e+00 8.133975e+00 -6.179178e+00
      vertex -7.861672e+00 9.000000e+00 -6.576903e+00
      vertex -7.284040e+00 8.133972e+00 -4.848223e+00
    endloop
  endfacet
  facet normal 3.402170e-01 8.445675e-01 4.134709e-01
    outer loop
      vertex -4.870542e+00 8.133976e+00 -7.269135e+00
      vertex -7.861672e+00 9.000000e+00 -6.576903e+00
      vertex -6.195180e+00 8.133975e+00 -6.179178e+00
    endloop
  endfacet
  facet normal 4.725878e-01 8.698376e-01 1.415745e-01
    outer loop
      vertex -8.094906e+00 8.133973e+00 -3.321898e+00
      vertex -9.644692e+00 9.000000e+00 -3.469468e+00
      vertex -8.587943e+00 8.133994e+00 -1.676225e+00
    endloop
  endfacet
  facet normal 4.556359e-01 8.566238e-01 2.420572e-01
    outer loop
      vertex -7.284040e+00 8.133972e+00 -4.848223e+00
      vertex -9.644692e+00 9.000000e+00 -3.469468e+00
      vertex -8.094906e+00 8.133973e+00 -3.321898e+00
    endloop
  endfacet
  facet normal -5.000000e-01 8.367609e-16 8.660254e-01
    outer loop
      vertex -3.818824e+00 8.659042e+00 1.511571e+01
      vertex -1.118070e+01 8.659129e+00 1.086533e+01
      vertex -1.500000e+01 7.660254e+00 8.660254e+00
    endloop
  endfacet
  facet normal -5.000000e-01 -1.642920e-15 8.660254e-01
    outer loop
      vertex -1.776357e-15 7.660254e+00 1.732051e+01
      vertex -3.818824e+00 8.659042e+00 1.511571e+01
      vertex -1.500000e+01 7.660254e+00 8.660254e+00
    endloop
  endfacet
  facet normal -5.000000e-01 0.000000e+00 8.660254e-01
    outer loop
      vertex -1.500000e+01 -7.660254e+00 8.660254e+00
      vertex -1.776357e-15 7.660254e+00 1.732051e+01
      vertex -1.500000e+01 7.660254e+00 8.660254e+00
    endloop
  endfacet
  facet normal -1.000000e+00 0.000000e+00 -1.025580e-16
    outer loop
      vertex -1.500000e+01 -7.660254e+00 -8.660254e+00
      vertex -1.500000e+01 -7.660254e+00 8.660254e+00
      vertex -1.500000e+01 7.660254e+00 8.660254e+00
    endloop
  endfacet
  facet normal -1.000000e+00 0.000000e+00 -1.025580e-16
    outer loop
      vertex -1.500000e+01 -7.660254e+00 -8.660254e+00
      vertex -1.500000e+01 7.660254e+00 8.660254e+00
      vertex -1.500000e+01 7.660254e+00 -8.660254e+00
    endloop
  endfacet
  facet normal -1.000000e+00 -4.518352e-16 -1.025580e-16
    outer loop
      vertex -1.500000e+01 8.654183e+00 4.281344e+00
      vertex -1.500000e+01 7.660254e+00 -8.660254e+00
      vertex -1.500000e+01 7.660254e+00 8.660254e+00
    endloop
  endfacet
  facet normal -5.000000e-01 0.000000e+00 8.660254e-01
    outer loop
      vertex -1.500000e+01 -7.660254e+00 8.660254e+00
      vertex -1.776357e-15 -7.660254e+00 1.732051e+01
      vertex -1.776357e-15 7.660254e+00 1.732051e+01
    endloop
  endfacet
  facet normal 5.000000e-01 0.000000e+00 8.660254e-01
    outer loop
      vertex 1.500000e+01 7.660254e+00 8.660254e+00
      vertex -1.776357e-15 7.660254e+00 1.732051e+01
      vertex -1.776357e-15 -7.660254e+00 1.732051e+01
    endloop
  endfacet
  facet normal 5.000000e-01 -4.183805e-15 8.660254e-01
    outer loop
      vertex 1.118118e+01 8.659042e+00 1.086505e+01
      vertex 3.819301e+00 8.659129e+00 1.511543e+01
      vertex -1.776357e-15 7.660254e+00 1.732051e+01
    endloop
  endfacet
  facet normal 5.000000e-01 8.214600e-16 8.660254e-01
    outer loop
      vertex 1.500000e+01 7.660254e+00 8.660254e+00
      vertex 1.118118e+01 8.659042e+00 1.086505e+01
      vertex -1.776357e-15 7.660254e+00 1.732051e+01
    endloop
  endfacet
  facet normal -5.000000e-01 8.369105e-16 8.660254e-01
    outer loop
      vertex -1.118070e+01 -8.659129e+00 1.086533e+01
      vertex -3.818824e+00 -8.659042e+00 1.511571e+01
      vertex -1.776357e-15 -7.660254e+00 1.732051e+01
    endloop
  endfacet
  facet normal -5.000000e-01 8.213880e-16 8.660254e-01
    outer loop
      vertex -1.500000e+01 -7.660254e+00 8.660254e+00
      vertex -1.118070e+01 -8.659129e+00 1.086533e+01
      vertex -1.776357e-15 -7.660254e+00 1.732051e+01
    endloop
  endfacet
  facet normal 5.000000e-01 0.000000e+00 8.660254e-01
    outer loop
      vertex 1.500000e+01 -7.660254e+00 8.660254e+00
      vertex 1.500000e+01 7.660254e+00 8.660254e+00
      vertex -1.776357e-15 -7.660254e+00 1.732051e+01
    endloop
  endfacet
  facet normal 5.000000e-01 2.053470e-15 8.660254e-01
    outer loop
      vertex 3.819301e+00 -8.659129e+00 1.511543e+01
      vertex 1.500000e+01 -7.660254e+00 8.660254e+00
      vertex -1.776357e-15 -7.660254e+00 1.732051e+01
    endloop
  endfacet
  facet normal -1.000000e+00 1.329979e-15 -1.025580e-16
    outer loop
      vertex -1.500000e+01 -8.656895e+00 -4.264246e+00
      vertex -1.500000e+01 -7.660254e+00 8.660254e+00
      vertex -1.500000e+01 -7.660254e+00 -8.660254e+00
    endloop
  endfacet
  facet normal -1.000000e+00 0.000000e+00 0.000000e+00
    outer loop
      vertex -1.500000e+01 -8.656895e+00 -4.264246e+00
      vertex -1.500000e+01 -8.654183e+00 4.281344e+00
      vertex -1.500000e+01 -7.660254e+00 8.660254e+00
    endloop
  endfacet
  facet normal 1.000000e+00 0.000000e+00 1.025580e-16
    outer loop
      vertex 1.500000e+01 7.660254e+00 -8.660254e+00
      vertex 1.500000e+01 7.660254e+00 8.660254e+00
      vertex 1.500000e+01 -7.660254e+00 8.660254e+00
    endloop
  endfacet
  facet normal 1.000000e+00 -4.518352e-16 1.025580e-16
    outer loop
      vertex 1.500000e+01 7.660254e+00 -8.660254e+00
      vertex 1.500000e+01 8.654183e+00 -4.281345e+00
      vertex 1.500000e+01 7.660254e+00 8.660254e+00
    endloop
  endfacet
  facet normal 1.000000e+00 -1.779853e-15 5.647562e-19
    outer loop
      vertex 1.500000e+01 8.656895e+00 4.264246e+00
      vertex 1.500000e+01 7.660254e+00 8.660254e+00
      vertex 1.500000e+01 8.654183e+00 -4.281345e+00
    endloop
  endfacet
  facet normal 5.000000e-01 1.673821e-15 8.660254e-01
    outer loop
      vertex 3.819301e+00 -8.659129e+00 1.511543e+01
      vertex 1.118118e+01 -8.659042e+00 1.086505e+01
      vertex 1.500000e+01 -7.660254e+00 8.660254e+00
    endloop
  endfacet
  facet normal 1.000000e+00 0.000000e+00 1.025580e-16
    outer loop
      vertex 1.500000e+01 -7.660254e+00 -8.660254e+00
      vertex 1.500000e+01 7.660254e+00 -8.660254e+00
      vertex 1.500000e+01 -7.660254e+00 8.660254e+00
    endloop
  endfacet
  facet normal 1.000000e+00 1.329979e-15 1.025580e-16
    outer loop
      vertex 1.500000e+01 -8.656895e+00 4.264246e+00
      vertex 1.500000e+01 -7.660254e+00 -8.660254e+00
      vertex 1.500000e+01 -7.660254e+00 8.660254e+00
    endloop
  endfacet
  facet normal 5.000000e-01 0.000000e+00 -8.660254e-01
    outer loop
      vertex 1.776357e-15 7.660254e+00 -1.732051e+01
      vertex 1.500000e+01 7.660254e+00 -8.660254e+00
      vertex 1.500000e+01 -7.660254e+00 -8.660254e+00
    endloop
  endfacet
  facet normal 5.000000e-01 -1.673522e-15 -8.660254e-01
    outer loop
      vertex 3.818824e+00 8.659042e+00 -1.511571e+01
      vertex 1.118070e+01 8.659129e+00 -1.086533e+01
      vertex 1.500000e+01 7.660254e+00 -8.660254e+00
    endloop
  endfacet
  facet normal 5.000000e-01 -1.642920e-15 -8.660254e-01
    outer loop
      vertex 1.776357e-15 7.660254e+00 -1.732051e+01
      vertex 3.818824e+00 8.659042e+00 -1.511571e+01
      vertex 1.500000e+01 7.660254e+00 -8.660254e+00
    endloop
  endfacet
  facet normal 1.000000e+00 0.000000e+00 0.000000e+00
    outer loop
      vertex 1.500000e+01 -8.656895e+00 4.264246e+00
      vertex 1.500000e+01 -8.654183e+00 -4.281344e+00
      vertex 1.500000e+01 -7.660254e+00 -8.660254e+00
    endloop
  endfacet
  facet normal 5.000000e-01 0.000000e+00 -8.660254e-01
    outer loop
      vertex 1.776357e-15 -7.660254e+00 -1.732051e+01
      vertex 1.776357e-15 7.660254e+00 -1.732051e+01
      vertex 1.500000e+01 -7.660254e+00 -8.660254e+00
    endloop
  endfacet
  facet normal 5.000000e-01 8.213880e-16 -8.660254e-01
    outer loop
      vertex 1.118070e+01 -8.659129e+00 -1.086533e+01
      vertex 1.776357e-15 -7.660254e+00 -1.732051e+01
      vertex 1.500000e+01 -7.660254e+00 -8.660254e+00
    endloop
  endfacet
  facet normal -5.000000e-01 0.000000e+00 -8.660254e-01
    outer loop
      vertex -1.500000e+01 7.660254e+00 -8.660254e+00
      vertex 1.776357e-15 7.660254e+00 -1.732051e+01
      vertex 1.776357e-15 -7.660254e+00 -1.732051e+01
    endloop
  endfacet
  facet normal -5.000000e-01 -1.673522e-15 -8.660254e-01
    outer loop
      vertex -1.118118e+01 8.659042e+00 -1.086505e+01
      vertex -3.819301e+00 8.659129e+00 -1.511543e+01
      vertex 1.776357e-15 7.660254e+00 -1.732051e+01
    endloop
  endfacet
  facet normal -5.000000e-01 -1.642920e-15 -8.660254e-01
    outer loop
      vertex -1.500000e+01 7.660254e+00 -8.660254e+00
      vertex -1.118118e+01 8.659042e+00 -1.086505e+01
      vertex 1.776357e-15 7.660254e+00 -1.732051e+01
    endloop
  endfacet
  facet normal 5.000000e-01 3.347642e-15 -8.660254e-01
    outer loop
      vertex 1.118070e+01 -8.659129e+00 -1.086533e+01
      vertex 3.818824e+00 -8.659042e+00 -1.511571e+01
      vertex 1.776357e-15 -7.660254e+00 -1.732051e+01
    endloop
  endfacet
  facet normal -5.000000e-01 0.000000e+00 -8.660254e-01
    outer loop
      vertex -1.500000e+01 -7.660254e+00 -8.660254e+00
      vertex -1.500000e+01 7.660254e+00 -8.660254e+00
      vertex 1.776357e-15 -7.660254e+00 -1.732051e+01
    endloop
  endfacet
  facet normal -5.000000e-01 2.669511e-15 -8.660254e-01
    outer loop
      vertex -3.819301e+00 -8.659129e+00 -1.511543e+01
      vertex -1.500000e+01 -7.660254e+00 -8.660254e+00
      vertex 1.776357e-15 -7.660254e+00 -1.732051e+01
    endloop
  endfacet
  facet normal -1.000000e+00 -1.779853e-15 -5.647543e-19
    outer loop
      vertex -1.500000e+01 8.654183e+00 4.281344e+00
      vertex -1.500000e+01 8.656895e+00 -4.264246e+00
      vertex -1.500000e+01 7.660254e+00 -8.660254e+00
    endloop
  endfacet
  facet normal -5.000000e-01 8.369105e-16 -8.660254e-01
    outer loop
      vertex -3.819301e+00 -8.659129e+00 -1.511543e+01
      vertex -1.118118e+01 -8.659042e+00 -1.086505e+01
      vertex -1.500000e+01 -7.660254e+00 -8.660254e+00
    endloop
  endfacet
  facet normal 9.953590e-01 0.000000e+00 9.623087e-02
    outer loop
      vertex -8.587943e+00 -8.133994e+00 -1.676225e+00
      vertex -8.587943e+00 8.133994e+00 -1.676225e+00
      vertex -8.750000e+00 8.133975e+00 -1.071531e-15
    endloop
  endfacet
  facet normal 9.953590e-01 0.000000e+00 9.623087e-02
    outer loop
      vertex -8.750000e+00 -8.133975e+00 -1.071531e-15
      vertex -8.587943e+00 -8.133994e+00 -1.676225e+00
      vertex -8.750000e+00 8.133975e+00 -1.071531e-15
    endloop
  endfacet
  facet normal 9.953634e-01 0.000000e+00 -9.618628e-02
    outer loop
      vertex -8.588093e+00 8.133988e+00 1.675455e+00
      vertex -8.750000e+00 -8.133975e+00 -1.071531e-15
      vertex -8.750000e+00 8.133975e+00 -1.071531e-15
    endloop
  endfacet
  facet normal 9.579326e-01 4.192449e-17 2.869932e-01
    outer loop
      vertex -8.094906e+00 -8.133973e+00 -3.321898e+00
      vertex -8.094906e+00 8.133973e+00 -3.321898e+00
      vertex -8.587943e+00 8.133994e+00 -1.676225e+00
    endloop
  endfacet
  facet normal 9.579326e-01 0.000000e+00 2.869932e-01
    outer loop
      vertex -8.587943e+00 -8.133994e+00 -1.676225e+00
      vertex -8.094906e+00 -8.133973e+00 -3.321898e+00
      vertex -8.587943e+00 8.133994e+00 -1.676225e+00
    endloop
  endfacet
  facet normal 8.831144e-01 -1.175216e-16 4.691577e-01
    outer loop
      vertex -7.284040e+00 -8.133972e+00 -4.848223e+00
      vertex -7.284040e+00 8.133972e+00 -4.848223e+00
      vertex -8.094906e+00 8.133973e+00 -3.321898e+00
    endloop
  endfacet
  facet normal 8.831144e-01 -6.027603e-18 4.691577e-01
    outer loop
      vertex -8.094906e+00 -8.133973e+00 -3.321898e+00
      vertex -7.284040e+00 -8.133972e+00 -4.848223e+00
      vertex -8.094906e+00 8.133973e+00 -3.321898e+00
    endloop
  endfacet
  facet normal 7.739869e-01 -1.691015e-16 6.332016e-01
    outer loop
      vertex -6.195180e+00 -8.133975e+00 -6.179178e+00
      vertex -6.195180e+00 8.133975e+00 -6.179178e+00
      vertex -7.284040e+00 8.133972e+00 -4.848223e+00
    endloop
  endfacet
  facet normal 7.739869e-01 1.151876e-16 6.332016e-01
    outer loop
      vertex -7.284040e+00 -8.133972e+00 -4.848223e+00
      vertex -6.195180e+00 -8.133975e+00 -6.179178e+00
      vertex -7.284040e+00 8.133972e+00 -4.848223e+00
    endloop
  endfacet
  facet normal 6.353870e-01 -1.852342e-16 7.721939e-01
    outer loop
      vertex -4.870542e+00 -8.133976e+00 -7.269135e+00
      vertex -4.870542e+00 8.133976e+00 -7.269135e+00
      vertex -6.195180e+00 8.133975e+00 -6.179178e+00
    endloop
  endfacet
  facet normal 6.353870e-01 1.643229e-16 7.721939e-01
    outer loop
      vertex -6.195180e+00 -8.133975e+00 -6.179178e+00
      vertex -4.870542e+00 -8.133976e+00 -7.269135e+00
      vertex -6.195180e+00 8.133975e+00 -6.179178e+00
    endloop
  endfacet
  facet normal 4.723156e-01 -1.436461e-16 8.814295e-01
    outer loop
      vertex -3.354988e+00 -8.133974e+00 -8.081247e+00
      vertex -3.354988e+00 8.133974e+00 -8.081247e+00
      vertex -4.870542e+00 8.133976e+00 -7.269135e+00
    endloop
  endfacet
  facet normal 4.723156e-01 1.476351e-16 8.814295e-01
    outer loop
      vertex -4.870542e+00 -8.133976e+00 -7.269135e+00
      vertex -3.354988e+00 -8.133974e+00 -8.081247e+00
      vertex -4.870542e+00 8.133976e+00 -7.269135e+00
    endloop
  endfacet
  facet normal 2.908104e-01 -1.986205e-16 9.567807e-01
    outer loop
      vertex -1.709560e+00 -8.133975e+00 -8.581370e+00
      vertex -1.709560e+00 8.133975e+00 -8.581370e+00
      vertex -3.354988e+00 8.133974e+00 -8.081247e+00
    endloop
  endfacet
  facet normal 2.908104e-01 9.241240e-17 9.567807e-01
    outer loop
      vertex -3.354988e+00 -8.133974e+00 -8.081247e+00
      vertex -1.709560e+00 -8.133975e+00 -8.581370e+00
      vertex -3.354988e+00 8.133974e+00 -8.081247e+00
    endloop
  endfacet
  facet normal 9.813186e-02 -2.109590e-16 9.951734e-01
    outer loop
      vertex 5.517857e-04 -8.133975e+00 -8.750000e+00
      vertex 5.517857e-04 8.133975e+00 -8.750000e+00
      vertex -1.709560e+00 8.133975e+00 -8.581370e+00
    endloop
  endfacet
  facet normal 9.813186e-02 1.532144e-16 9.951734e-01
    outer loop
      vertex -1.709560e+00 -8.133975e+00 -8.581370e+00
      vertex 5.517857e-04 -8.133975e+00 -8.750000e+00
      vertex -1.709560e+00 8.133975e+00 -8.581370e+00
    endloop
  endfacet
  facet normal -9.825818e-02 -2.267834e-16 9.951610e-01
    outer loop
      vertex 1.710656e+00 -8.133975e+00 -8.581151e+00
      vertex 1.710656e+00 8.133975e+00 -8.581151e+00
      vertex 5.517857e-04 8.133975e+00 -8.750000e+00
    endloop
  endfacet
  facet normal -9.825818e-02 2.112305e-16 9.951610e-01
    outer loop
      vertex 5.517857e-04 -8.133975e+00 -8.750000e+00
      vertex 1.710656e+00 -8.133975e+00 -8.581151e+00
      vertex 5.517857e-04 8.133975e+00 -8.750000e+00
    endloop
  endfacet
  facet normal -2.909335e-01 -2.016245e-16 9.567433e-01
    outer loop
      vertex 3.356036e+00 -8.133975e+00 -8.080812e+00
      vertex 3.356036e+00 8.133975e+00 -8.080812e+00
      vertex 1.710656e+00 8.133975e+00 -8.581151e+00
    endloop
  endfacet
  facet normal -2.909335e-01 1.976256e-16 9.567433e-01
    outer loop
      vertex 1.710656e+00 -8.133975e+00 -8.581151e+00
      vertex 3.356036e+00 -8.133975e+00 -8.080812e+00
      vertex 1.710656e+00 8.133975e+00 -8.581151e+00
    endloop
  endfacet
  facet normal -4.724274e-01 -2.675182e-16 8.813696e-01
    outer loop
      vertex 4.871443e+00 -8.133975e+00 -7.268531e+00
      vertex 4.871443e+00 8.133975e+00 -7.268531e+00
      vertex 3.356036e+00 8.133975e+00 -8.080812e+00
    endloop
  endfacet
  facet normal -4.724274e-01 3.332164e-16 8.813696e-01
    outer loop
      vertex 3.356036e+00 -8.133975e+00 -8.080812e+00
      vertex 4.871443e+00 -8.133975e+00 -7.268531e+00
      vertex 3.356036e+00 8.133975e+00 -8.080812e+00
    endloop
  endfacet
  facet normal -6.354818e-01 -2.510290e-16 7.721158e-01
    outer loop
      vertex 6.195932e+00 -8.133975e+00 -6.178424e+00
      vertex 6.195932e+00 8.133975e+00 -6.178424e+00
      vertex 4.871443e+00 8.133975e+00 -7.268531e+00
    endloop
  endfacet
  facet normal -6.354818e-01 2.496247e-16 7.721158e-01
    outer loop
      vertex 4.871443e+00 -8.133975e+00 -7.268531e+00
      vertex 6.195932e+00 -8.133975e+00 -6.178424e+00
      vertex 4.871443e+00 8.133975e+00 -7.268531e+00
    endloop
  endfacet
  facet normal -7.740697e-01 -1.302893e-16 6.331004e-01
    outer loop
      vertex 7.284717e+00 -8.133973e+00 -4.847205e+00
      vertex 7.284717e+00 8.133973e+00 -4.847205e+00
      vertex 6.195932e+00 8.133975e+00 -6.178424e+00
    endloop
  endfacet
  facet normal -7.740697e-01 1.809359e-16 6.331004e-01
    outer loop
      vertex 6.195932e+00 -8.133975e+00 -6.178424e+00
      vertex 7.284717e+00 -8.133973e+00 -4.847205e+00
      vertex 6.195932e+00 8.133975e+00 -6.178424e+00
    endloop
  endfacet
  facet normal -8.831803e-01 -1.588225e-16 4.690336e-01
    outer loop
      vertex 8.095375e+00 -8.133973e+00 -3.320752e+00
      vertex 8.095375e+00 8.133973e+00 -3.320752e+00
      vertex 7.284717e+00 8.133973e+00 -4.847205e+00
    endloop
  endfacet
  facet normal -8.831803e-01 2.247490e-16 4.690336e-01
    outer loop
      vertex 7.284717e+00 -8.133973e+00 -4.847205e+00
      vertex 8.095375e+00 -8.133973e+00 -3.320752e+00
      vertex 7.284717e+00 8.133973e+00 -4.847205e+00
    endloop
  endfacet
  facet normal -9.579658e-01 -1.174714e-16 2.868825e-01
    outer loop
      vertex 8.588093e+00 -8.133988e+00 -1.675455e+00
      vertex 8.588093e+00 8.133988e+00 -1.675455e+00
      vertex 8.095375e+00 8.133973e+00 -3.320752e+00
    endloop
  endfacet
  facet normal -9.579658e-01 3.971102e-17 2.868825e-01
    outer loop
      vertex 8.095375e+00 -8.133973e+00 -3.320752e+00
      vertex 8.588093e+00 -8.133988e+00 -1.675455e+00
      vertex 8.095375e+00 8.133973e+00 -3.320752e+00
    endloop
  endfacet
  facet normal -9.953634e-01 0.000000e+00 9.618628e-02
    outer loop
      vertex 8.750000e+00 -8.133975e+00 0.000000e+00
      vertex 8.750000e+00 8.133975e+00 0.000000e+00
      vertex 8.588093e+00 8.133988e+00 -1.675455e+00
    endloop
  endfacet
  facet normal -9.953634e-01 -3.938593e-17 9.618628e-02
    outer loop
      vertex 8.588093e+00 -8.133988e+00 -1.675455e+00
      vertex 8.750000e+00 -8.133975e+00 0.000000e+00
      vertex 8.588093e+00 8.133988e+00 -1.675455e+00
    endloop
  endfacet
  facet normal -9.953590e-01 0.000000e+00 -9.623087e-02
    outer loop
      vertex 8.587943e+00 -8.133994e+00 1.676225e+00
      vertex 8.750000e+00 8.133975e+00 0.000000e+00
      vertex 8.750000e+00 -8.133975e+00 0.000000e+00
    endloop
  endfacet
  facet normal -9.953590e-01 7.420483e-17 -9.623087e-02
    outer loop
      vertex 8.587943e+00 -8.133994e+00 1.676225e+00
      vertex 8.587943e+00 8.133994e+00 1.676225e+00
      vertex 8.750000e+00 8.133975e+00 0.000000e+00
    endloop
  endfacet
  facet normal 9.953634e-01 -1.267867e-16 -9.618628e-02
    outer loop
      vertex -8.588093e+00 -8.133988e+00 1.675455e+00
      vertex -8.750000e+00 -8.133975e+00 -1.071531e-15
      vertex -8.588093e+00 8.133988e+00 1.675455e+00
    endloop
  endfacet
  facet normal -9.579326e-01 2.358780e-16 -2.869932e-01
    outer loop
      vertex 8.094906e+00 -8.133973e+00 3.321898e+00
      vertex 8.094906e+00 8.133973e+00 3.321898e+00
      vertex 8.587943e+00 8.133994e+00 1.676225e+00
    endloop
  endfacet
  facet normal -9.579326e-01 -2.177772e-16 -2.869932e-01
    outer loop
      vertex 8.587943e+00 -8.133994e+00 1.676225e+00
      vertex 8.094906e+00 -8.133973e+00 3.321898e+00
      vertex 8.587943e+00 8.133994e+00 1.676225e+00
    endloop
  endfacet
  facet normal -8.831144e-01 1.597092e-16 -4.691577e-01
    outer loop
      vertex 7.284040e+00 -8.133972e+00 4.848223e+00
      vertex 7.284040e+00 8.133972e+00 4.848223e+00
      vertex 8.094906e+00 8.133973e+00 3.321898e+00
    endloop
  endfacet
  facet normal -8.831144e-01 -6.178015e-17 -4.691577e-01
    outer loop
      vertex 8.094906e+00 -8.133973e+00 3.321898e+00
      vertex 7.284040e+00 -8.133972e+00 4.848223e+00
      vertex 8.094906e+00 8.133973e+00 3.321898e+00
    endloop
  endfacet
  facet normal -7.739869e-01 7.686432e-17 -6.332016e-01
    outer loop
      vertex 6.195180e+00 -8.133975e+00 6.179178e+00
      vertex 6.195180e+00 8.133975e+00 6.179178e+00
      vertex 7.284040e+00 8.133972e+00 4.848223e+00
    endloop
  endfacet
  facet normal -7.739869e-01 -1.266991e-16 -6.332016e-01
    outer loop
      vertex 7.284040e+00 -8.133972e+00 4.848223e+00
      vertex 6.195180e+00 -8.133975e+00 6.179178e+00
      vertex 7.284040e+00 8.133972e+00 4.848223e+00
    endloop
  endfacet
  facet normal -6.353870e-01 1.062275e-16 -7.721939e-01
    outer loop
      vertex 4.870542e+00 -8.133976e+00 7.269135e+00
      vertex 4.870542e+00 8.133976e+00 7.269135e+00
      vertex 6.195180e+00 8.133975e+00 6.179178e+00
    endloop
  endfacet
  facet normal -6.353870e-01 -7.469222e-17 -7.721939e-01
    outer loop
      vertex 6.195180e+00 -8.133975e+00 6.179178e+00
      vertex 4.870542e+00 -8.133976e+00 7.269135e+00
      vertex 6.195180e+00 8.133975e+00 6.179178e+00
    endloop
  endfacet
  facet normal -4.723156e-01 1.952199e-16 -8.814295e-01
    outer loop
      vertex 3.354988e+00 -8.133974e+00 8.081247e+00
      vertex 3.354988e+00 8.133974e+00 8.081247e+00
      vertex 4.870542e+00 8.133976e+00 7.269135e+00
    endloop
  endfacet
  facet normal -4.723156e-01 -7.209223e-17 -8.814295e-01
    outer loop
      vertex 4.870542e+00 -8.133976e+00 7.269135e+00
      vertex 3.354988e+00 -8.133974e+00 8.081247e+00
      vertex 4.870542e+00 8.133976e+00 7.269135e+00
    endloop
  endfacet
  facet normal -2.908104e-01 2.343445e-16 -9.567807e-01
    outer loop
      vertex 1.709560e+00 -8.133975e+00 8.581370e+00
      vertex 1.709560e+00 8.133975e+00 8.581370e+00
      vertex 3.354988e+00 8.133974e+00 8.081247e+00
    endloop
  endfacet
  facet normal -2.908104e-01 -6.065776e-17 -9.567807e-01
    outer loop
      vertex 3.354988e+00 -8.133974e+00 8.081247e+00
      vertex 1.709560e+00 -8.133975e+00 8.581370e+00
      vertex 3.354988e+00 8.133974e+00 8.081247e+00
    endloop
  endfacet
  facet normal -9.813186e-02 1.875191e-16 -9.951734e-01
    outer loop
      vertex -5.517857e-04 -8.133975e+00 8.750000e+00
      vertex -5.517857e-04 8.133975e+00 8.750000e+00
      vertex 1.709560e+00 8.133975e+00 8.581370e+00
    endloop
  endfacet
  facet normal -9.813186e-02 -1.411596e-16 -9.951734e-01
    outer loop
      vertex 1.709560e+00 -8.133975e+00 8.581370e+00
      vertex -5.517857e-04 -8.133975e+00 8.750000e+00
      vertex 1.709560e+00 8.133975e+00 8.581370e+00
    endloop
  endfacet
  facet normal 9.825818e-02 1.650582e-16 -9.951610e-01
    outer loop
      vertex -1.710656e+00 -8.133975e+00 8.581151e+00
      vertex -1.710656e+00 8.133975e+00 8.581151e+00
      vertex -5.517857e-04 8.133975e+00 8.750000e+00
    endloop
  endfacet
  facet normal 9.825818e-02 -1.877605e-16 -9.951610e-01
    outer loop
      vertex -5.517857e-04 -8.133975e+00 8.750000e+00
      vertex -1.710656e+00 -8.133975e+00 8.581151e+00
      vertex -5.517857e-04 8.133975e+00 8.750000e+00
    endloop
  endfacet
  facet normal 2.909335e-01 2.058945e-16 -9.567433e-01
    outer loop
      vertex -3.356036e+00 -8.133975e+00 8.080812e+00
      vertex -3.356036e+00 8.133975e+00 8.080812e+00
      vertex -1.710656e+00 8.133975e+00 8.581151e+00
    endloop
  endfacet
  facet normal 2.909335e-01 -1.631105e-16 -9.567433e-01
    outer loop
      vertex -1.710656e+00 -8.133975e+00 8.581151e+00
      vertex -3.356036e+00 -8.133975e+00 8.080812e+00
      vertex -1.710656e+00 8.133975e+00 8.581151e+00
    endloop
  endfacet
  facet normal 4.724274e-01 1.131652e-16 -8.813696e-01
    outer loop
      vertex -4.871443e+00 -8.133975e+00 7.268531e+00
      vertex -4.871443e+00 8.133975e+00 7.268531e+00
      vertex -3.356036e+00 8.133975e+00 8.080812e+00
    endloop
  endfacet
  facet normal 4.724274e-01 -1.060756e-16 -8.813696e-01
    outer loop
      vertex -3.356036e+00 -8.133975e+00 8.080812e+00
      vertex -4.871443e+00 -8.133975e+00 7.268531e+00
      vertex -3.356036e+00 8.133975e+00 8.080812e+00
    endloop
  endfacet
  facet normal 6.354818e-01 -4.475869e-17 -7.721158e-01
    outer loop
      vertex -6.195932e+00 -8.133975e+00 6.178424e+00
      vertex -6.195932e+00 8.133975e+00 6.178424e+00
      vertex -4.871443e+00 8.133975e+00 7.268531e+00
    endloop
  endfacet
  facet normal 6.354818e-01 -1.186544e-16 -7.721158e-01
    outer loop
      vertex -4.871443e+00 -8.133975e+00 7.268531e+00
      vertex -6.195932e+00 -8.133975e+00 6.178424e+00
      vertex -4.871443e+00 8.133975e+00 7.268531e+00
    endloop
  endfacet
  facet normal 7.740697e-01 0.000000e+00 -6.331004e-01
    outer loop
      vertex -7.284717e+00 -8.133973e+00 4.847205e+00
      vertex -7.284717e+00 8.133973e+00 4.847205e+00
      vertex -6.195932e+00 8.133975e+00 6.178424e+00
    endloop
  endfacet
  facet normal 7.740697e-01 4.617883e-17 -6.331004e-01
    outer loop
      vertex -6.195932e+00 -8.133975e+00 6.178424e+00
      vertex -7.284717e+00 -8.133973e+00 4.847205e+00
      vertex -6.195932e+00 8.133975e+00 6.178424e+00
    endloop
  endfacet
  facet normal 8.831803e-01 1.084243e-16 -4.690336e-01
    outer loop
      vertex -8.095375e+00 -8.133973e+00 3.320752e+00
      vertex -8.095375e+00 8.133973e+00 3.320752e+00
      vertex -7.284717e+00 8.133973e+00 4.847205e+00
    endloop
  endfacet
  facet normal 8.831803e-01 0.000000e+00 -4.690336e-01
    outer loop
      vertex -7.284717e+00 -8.133973e+00 4.847205e+00
      vertex -8.095375e+00 -8.133973e+00 3.320752e+00
      vertex -7.284717e+00 8.133973e+00 4.847205e+00
    endloop
  endfacet
  facet normal 9.579658e-01 6.097695e-17 -2.868825e-01
    outer loop
      vertex -8.588093e+00 -8.133988e+00 1.675455e+00
      vertex -8.588093e+00 8.133988e+00 1.675455e+00
      vertex -8.095375e+00 8.133973e+00 3.320752e+00
    endloop
  endfacet
  facet normal 9.579658e-01 2.069923e-17 -2.868825e-01
    outer loop
      vertex -8.095375e+00 -8.133973e+00 3.320752e+00
      vertex -8.588093e+00 -8.133988e+00 1.675455e+00
      vertex -8.095375e+00 8.133973e+00 3.320752e+00
    endloop
  endfacet
endsolid NUT-M20-ISO_4034
