 PTC IGES file: nut-m18-iso_4034.igs                                    S      1
1H,,1H;,16HNUT-M18-ISO_4034,20Hnut-m18-iso_4034.igs,                    G      1
49HPro/ENGINEER by Parametric Technology Corporation,7H2007160,32,38,7, G      2
38,15,16HNUT-M18-ISO_4034,1.,2,2HMM,32768,0.5,15H20111214.161424,       G      3
0.00469023,46.9042,13HVladimir Zima,7HUnknown,10,0,15H20111214.161424;  G      4
     314       1       1       1       0       0       0       001000200D      1
     314       0       4       1       0                   COLOR       1D      2
     314       2       1       1       0       0       0       001000200D      3
     314       0       1       1       0                   COLOR       2D      4
     314       3       1       1       0       0       0       001000200D      5
     314       0       1       1       0                   COLOR       3D      6
     314       4       1       1       0       0       0       001000200D      7
     314       0       1       1       0                   COLOR       4D      8
     314       5       1       1       0       0       0       001000200D      9
     314       0       8       1       0                   COLOR       5D     10
     314       6       1       1       0       0       0       001000200D     11
     314       0       8       1       0                   COLOR       6D     12
     314       7       1       1       0       0       0       001000200D     13
     314       0       5       1       0                   COLOR       7D     14
     314       8       1       1       0       0       0       001000200D     15
     314       0       8       1       0                   COLOR       8D     16
     124       9       1       1       0       0       0       001000000D     17
     124       0       0       1       0                   XFORM       1D     18
     100      10       1       1       0       0      17       001010000D     19
     100       0       0       1       0                     ARC       1D     20
     124      11       1       1       0       0       0       001000000D     21
     124       0       0       2       0                   XFORM       2D     22
     100      13       1       1       0       0      21       001010000D     23
     100       0       0       1       0                     ARC       2D     24
     124      14       1       1       0       0       0       001000000D     25
     124       0       0       2       0                   XFORM       3D     26
     100      16       1       1       0       0      25       001010000D     27
     100       0       0       1       0                     ARC       3D     28
     124      17       1       1       0       0       0       001000000D     29
     124       0       0       1       0                   XFORM       4D     30
     100      18       1       1       0       0      29       001010000D     31
     100       0       0       1       0                     ARC       4D     32
     124      19       1       1       0       0       0       001000000D     33
     124       0       0       2       0                   XFORM       5D     34
     100      21       1       1       0       0      33       001010000D     35
     100       0       0       1       0                     ARC       5D     36
     124      22       1       1       0       0       0       001000000D     37
     124       0       0       2       0                   XFORM       6D     38
     100      24       1       1       0       0      37       001010000D     39
     100       0       0       1       0                     ARC       6D     40
     124      25       1       1       0       0       0       001000000D     41
     124       0       0       2       0                   XFORM       7D     42
     100      27       1       1       0       0      41       001010000D     43
     100       0       0       2       0                     ARC       7D     44
     124      29       1       1       0       0       0       001000000D     45
     124       0       0       2       0                   XFORM       8D     46
     100      31       1       1       0       0      45       001010000D     47
     100       0       0       1       0                     ARC       8D     48
     126      32       1       1       0       0       0       001010000D     49
     126       0       0      10       0                B_SPLINE       1D     50
     126      42       1       1       0       0       0       001010000D     51
     126       0       0       8       0                B_SPLINE       2D     52
     126      50       1       1       0       0       0       001010000D     53
     126       0       0       8       0                B_SPLINE       3D     54
     110      58       1       1       0       0       0       001010000D     55
     110       0       0       2       0                    LINE       1D     56
     126      60       1       1       0       0       0       001010000D     57
     126       0       0      10       0                B_SPLINE       4D     58
     126      70       1       1       0       0       0       001010000D     59
     126       0       0      10       0                B_SPLINE       5D     60
     126      80       1       1       0       0       0       001010000D     61
     126       0       0      10       0                B_SPLINE       6D     62
     126      90       1       1       0       0       0       001010000D     63
     126       0       0      10       0                B_SPLINE       7D     64
     126     100       1       1       0       0       0       001010000D     65
     126       0       0      10       0                B_SPLINE       8D     66
     110     110       1       1       0       0       0       001010000D     67
     110       0       0       2       0                    LINE       2D     68
     126     112       1       1       0       0       0       001010000D     69
     126       0       0      10       0                B_SPLINE       9D     70
     126     122       1       1       0       0       0       001010000D     71
     126       0       0      10       0                B_SPLINE      10D     72
     126     132       1       1       0       0       0       001010000D     73
     126       0       0      10       0                B_SPLINE      11D     74
     126     142       1       1       0       0       0       001010000D     75
     126       0       0      10       0                B_SPLINE      12D     76
     110     152       1       1       0       0       0       001010000D     77
     110       0       0       2       0                    LINE       3D     78
     126     154       1       1       0       0       0       001010000D     79
     126       0       0       8       0                B_SPLINE      13D     80
     126     162       1       1       0       0       0       001010000D     81
     126       0       0       8       0                B_SPLINE      14D     82
     126     170       1       1       0       0       0       001010000D     83
     126       0       0       8       0                B_SPLINE      15D     84
     126     178       1       1       0       0       0       001010000D     85
     126       0       0       8       0                B_SPLINE      16D     86
     110     186       1       1       0       0       0       001010000D     87
     110       0       0       2       0                    LINE       4D     88
     126     188       1       1       0       0       0       001010000D     89
     126       0       0      10       0                B_SPLINE      17D     90
     126     198       1       1       0       0       0       001010000D     91
     126       0       0      10       0                B_SPLINE      18D     92
     126     208       1       1       0       0       0       001010000D     93
     126       0       0      10       0                B_SPLINE      19D     94
     126     218       1       1       0       0       0       001010000D     95
     126       0       0      10       0                B_SPLINE      20D     96
     110     228       1       1       0       0       0       001010000D     97
     110       0       0       2       0                    LINE       5D     98
     126     230       1       1       0       0       0       001010000D     99
     126       0       0      10       0                B_SPLINE      21D    100
     126     240       1       1       0       0       0       001010000D    101
     126       0       0      10       0                B_SPLINE      22D    102
     126     250       1       1       0       0       0       001010000D    103
     126       0       0      10       0                B_SPLINE      23D    104
     126     260       1       1       0       0       0       001010000D    105
     126       0       0      10       0                B_SPLINE      24D    106
     110     270       1       1       0       0       0       001010000D    107
     110       0       0       2       0                    LINE       6D    108
     124     272       1       1       0       0       0       001000000D    109
     124       0       0       2       0                   XFORM       9D    110
     100     274       1       1       0       0     109       001010000D    111
     100       0       0       1       0                     ARC       9D    112
     124     275       1       1       0       0       0       001000000D    113
     124       0       0       2       0                   XFORM      10D    114
     100     277       1       1       0       0     113       001010000D    115
     100       0       0       1       0                     ARC      10D    116
     124     278       1       1       0       0       0       001000000D    117
     124       0       0       2       0                   XFORM      11D    118
     100     280       1       1       0       0     117       001010000D    119
     100       0       0       1       0                     ARC      11D    120
     124     281       1       1       0       0       0       001000000D    121
     124       0       0       1       0                   XFORM      12D    122
     100     282       1       1       0       0     121       001010000D    123
     100       0       0       1       0                     ARC      12D    124
     124     283       1       1       0       0       0       001000000D    125
     124       0       0       2       0                   XFORM      13D    126
     100     285       1       1       0       0     125       001010000D    127
     100       0       0       1       0                     ARC      13D    128
     124     286       1       1       0       0       0       001000000D    129
     124       0       0       2       0                   XFORM      14D    130
     100     288       1       1       0       0     129       001010000D    131
     100       0       0       1       0                     ARC      14D    132
     124     289       1       1       0       0       0       001000000D    133
     124       0       0       2       0                   XFORM      15D    134
     100     291       1       1       0       0     133       001010000D    135
     100       0       0       1       0                     ARC      15D    136
     124     292       1       1       0       0       0       001000000D    137
     124       0       0       2       0                   XFORM      16D    138
     100     294       1       1       0       0     137       001010000D    139
     100       0       0       1       0                     ARC      16D    140
     110     295       1       1       0       0       0       001010000D    141
     110       0       0       2       0                    LINE       7D    142
     110     297       1       1       0       0       0       001010000D    143
     110       0       0       2       0                    LINE       8D    144
     124     299       1       1       0       0       0       001000000D    145
     124       0       0       2       0                   XFORM      17D    146
     100     301       1       1       0       0     145       001010000D    147
     100       0       0       1       0                     ARC      17D    148
     110     302       1       1       0       0       0       001010000D    149
     110       0       0       2       0                    LINE       9D    150
     124     304       1       1       0       0       0       001000000D    151
     124       0       0       2       0                   XFORM      18D    152
     100     306       1       1       0       0     151       001010000D    153
     100       0       0       1       0                     ARC      18D    154
     110     307       1       1       0       0       0       001010000D    155
     110       0       0       2       0                    LINE      10D    156
     124     309       1       1       0       0       0       001000000D    157
     124       0       0       2       0                   XFORM      19D    158
     100     311       1       1       0       0     157       001010000D    159
     100       0       0       1       0                     ARC      19D    160
     124     312       1       1       0       0       0       001000000D    161
     124       0       0       2       0                   XFORM      20D    162
     100     314       1       1       0       0     161       001010000D    163
     100       0       0       1       0                     ARC      20D    164
     110     315       1       1       0       0       0       001010000D    165
     110       0       0       2       0                    LINE      11D    166
     110     317       1       1       0       0       0       001010000D    167
     110       0       0       2       0                    LINE      12D    168
     502     319       1       1       0       0       0       001010000D    169
     502       0       0      21       1                  VERTEX       1D    170
     504     340       1       1       0       0       0       000010001D    171
     504       0       0      16       1                    EDGE       1D    172
     128     356       1       1       0       0       0       001010000D    173
     128       0       0       6       0                  SPLSRF       1D    174
     508     362       1       1       0       0       0       001010000D    175
     508       0       0       2       1                EDGELOOP       1D    176
     508     364       1       1       0       0       0       001010000D    177
     508       0       0       1       1                EDGELOOP       2D    178
     510     365       1       1       0       0       0       000010000D    179
     510       0       0       1       1                    FACE       1D    180
     110     366       1       1       0       0       0       001010000D    181
     110       0       0       1       0                    LINE      13D    182
     110     367       1       1       0       0       0       001010000D    183
     110       0       0       2       0                    LINE      14D    184
     120     369       1       1       0       0       0       001010000D    185
     120       0       0       1       0                    SREV       1D    186
     508     370       1       1       0       0       0       001010000D    187
     508       0       0       1       1                EDGELOOP       3D    188
     510     371       1       1       0       0       0       000010000D    189
     510       0       0       1       1                    FACE       2D    190
     110     372       1       1       0       0       0       001010000D    191
     110       0       0       1       0                    LINE      15D    192
     110     373       1       1       0       0       0       001010000D    193
     110       0       0       2       0                    LINE      16D    194
     120     375       1       1       0       0       0       001010000D    195
     120       0       0       1       0                    SREV       2D    196
     508     376       1       1       0       0       0       001010000D    197
     508       0       0       1       1                EDGELOOP       4D    198
     510     377       1       1       0       0       0       000010000D    199
     510       0       0       1       1                    FACE       3D    200
     110     378       1       1       0       0       0       001010000D    201
     110       0       0       1       0                    LINE      17D    202
     110     379       1       1       0       0       0       001010000D    203
     110       0       0       2       0                    LINE      18D    204
     120     381       1       1       0       0       0       001010000D    205
     120       0       0       1       0                    SREV       3D    206
     508     382       1       1       0       0       0       001010000D    207
     508       0       0       1       1                EDGELOOP       5D    208
     510     383       1       1       0       0       0       000010000D    209
     510       0       0       1       1                    FACE       4D    210
     128     384       1       1       0       0       0       001010000D    211
     128       0       0       8       0                  SPLSRF       2D    212
     508     392       1       1       0       0       0       001010000D    213
     508       0       0       2       1                EDGELOOP       6D    214
     510     394       1       1       0       0       0       000010000D    215
     510       0       0       1       1                    FACE       5D    216
     110     395       1       1       0       0       0       001010000D    217
     110       0       0       1       0                    LINE      19D    218
     110     396       1       1       0       0       0       001010000D    219
     110       0       0       2       0                    LINE      20D    220
     120     398       1       1       0       0       0       001010000D    221
     120       0       0       1       0                    SREV       4D    222
     508     399       1       1       0       0       0       001010000D    223
     508       0       0       1       1                EDGELOOP       7D    224
     510     400       1       1       0       0       0       000010000D    225
     510       0       0       1       1                    FACE       6D    226
     110     401       1       1       0       0       0       001010000D    227
     110       0       0       1       0                    LINE      21D    228
     110     402       1       1       0       0       0       001010000D    229
     110       0       0       2       0                    LINE      22D    230
     120     404       1       1       0       0       0       001010000D    231
     120       0       0       1       0                    SREV       5D    232
     508     405       1       1       0       0       0       001010000D    233
     508       0       0       1       1                EDGELOOP       8D    234
     510     406       1       1       0       0       0       000010000D    235
     510       0       0       1       1                    FACE       7D    236
     110     407       1       1       0       0       0       001010000D    237
     110       0       0       1       0                    LINE      23D    238
     110     408       1       1       0       0       0       001010000D    239
     110       0       0       2       0                    LINE      24D    240
     120     410       1       1       0       0       0       001010000D    241
     120       0       0       1       0                    SREV       6D    242
     508     411       1       1       0       0       0       001010000D    243
     508       0       0       1       1                EDGELOOP       9D    244
     510     412       1       1       0       0       0       000010000D    245
     510       0       0       1       1                    FACE       8D    246
     128     413       1       1       0       0       0       001010000D    247
     128       0       0       7       0                  SPLSRF       3D    248
     508     420       1       1       0       0       0       001010000D    249
     508       0       0       2       1                EDGELOOP      10D    250
     510     422       1       1       0       0       0       000010000D    251
     510       0       0       1       1                    FACE       9D    252
     128     423       1       1       0       0       0       001010000D    253
     128       0       0       8       0                  SPLSRF       4D    254
     508     431       1       1       0       0       0       001010000D    255
     508       0       0       2       1                EDGELOOP      11D    256
     510     433       1       1       0       0       0       000010000D    257
     510       0       0       1       1                    FACE      10D    258
     128     434       1       1       0       0       0       001010000D    259
     128       0       0       8       0                  SPLSRF       5D    260
     508     442       1       1       0       0       0       001010000D    261
     508       0       0       2       1                EDGELOOP      12D    262
     510     444       1       1       0       0       0       000010000D    263
     510       0       0       1       1                    FACE      11D    264
     110     445       1       1       0       0       0       001010000D    265
     110       0       0       1       0                    LINE      25D    266
     110     446       1       1       0       0       0       001010000D    267
     110       0       0       2       0                    LINE      26D    268
     120     448       1       1       0       0       0       001010000D    269
     120       0       0       1       0                    SREV       7D    270
     508     449       1       1       0       0       0       001010000D    271
     508       0       0       1       1                EDGELOOP      13D    272
     510     450       1       1       0       0       0       000010000D    273
     510       0       0       1       1                    FACE      12D    274
     110     451       1       1       0       0       0       001010000D    275
     110       0       0       1       0                    LINE      27D    276
     110     452       1       1       0       0       0       001010000D    277
     110       0       0       2       0                    LINE      28D    278
     120     454       1       1       0       0       0       001010000D    279
     120       0       0       1       0                    SREV       8D    280
     508     455       1       1       0       0       0       001010000D    281
     508       0       0       1       1                EDGELOOP      14D    282
     510     456       1       1       0       0       0       000010000D    283
     510       0       0       1       1                    FACE      13D    284
     110     457       1       1       0       0       0       001010000D    285
     110       0       0       1       0                    LINE      29D    286
     110     458       1       1       0       0       0       001010000D    287
     110       0       0       2       0                    LINE      30D    288
     120     460       1       1       0       0       0       001010000D    289
     120       0       0       1       0                    SREV       9D    290
     508     461       1       1       0       0       0       001010000D    291
     508       0       0       1       1                EDGELOOP      15D    292
     510     462       1       1       0       0       0       000010000D    293
     510       0       0       1       1                    FACE      14D    294
     128     463       1       1       0       0       0       001010000D    295
     128       0       0       7       0                  SPLSRF       6D    296
     508     470       1       1       0       0       0       001010000D    297
     508       0       0       2       1                EDGELOOP      16D    298
     510     472       1       1       0       0       0       000010000D    299
     510       0       0       1       1                    FACE      15D    300
     128     473       1       1       0       0       0       001010000D    301
     128       0       0       7       0                  SPLSRF       7D    302
     508     480       1       1       0       0       0       001010000D    303
     508       0       0       2       1                EDGELOOP      17D    304
     510     482       1       1       0       0       0       000010000D    305
     510       0       0       1       1                    FACE      16D    306
     110     483       1       1       0       0       0       001010000D    307
     110       0       0       1       0                    LINE      31D    308
     110     484       1       1       0       0       0       001010000D    309
     110       0       0       2       0                    LINE      32D    310
     120     486       1       1       0       0       0       001010000D    311
     120       0       0       1       0                    SREV      10D    312
     508     487       1       1       0       0       0       001010000D    313
     508       0       0       1       1                EDGELOOP      18D    314
     510     488       1       1       0       0       0       000010000D    315
     510       0       0       1       1                    FACE      17D    316
     110     489       1       1       0       0       0       001010000D    317
     110       0       0       1       0                    LINE      33D    318
     110     490       1       1       0       0       0       001010000D    319
     110       0       0       2       0                    LINE      34D    320
     120     492       1       1       0       0       0       001010000D    321
     120       0       0       1       0                    SREV      11D    322
     508     493       1       1       0       0       0       001010000D    323
     508       0       0       1       1                EDGELOOP      19D    324
     510     494       1       1       0       0       0       000010000D    325
     510       0       0       1       1                    FACE      18D    326
     110     495       1       1       0       0       0       001010000D    327
     110       0       0       1       0                    LINE      35D    328
     110     496       1       1       0       0       0       001010000D    329
     110       0       0       2       0                    LINE      36D    330
     120     498       1       1       0       0       0       001010000D    331
     120       0       0       1       0                    SREV      12D    332
     508     499       1       1       0       0       0       001010000D    333
     508       0       0       1       1                EDGELOOP      20D    334
     510     500       1       1       0       0       0       000010000D    335
     510       0       0       1       1                    FACE      19D    336
     128     501       1       1       0       0       0       001010000D    337
     128       0       0       6       0                  SPLSRF       8D    338
     508     507       1       1       0       0       0       001010000D    339
     508       0       0       2       1                EDGELOOP      21D    340
     508     509       1       1       0       0       0       001010000D    341
     508       0       0       1       1                EDGELOOP      22D    342
     510     510       1       1       0       0       0       000010000D    343
     510       0       0       1       1                    FACE      20D    344
     110     511       1       1       0       0       0       001010000D    345
     110       0       0       1       0                    LINE      37D    346
     110     512       1       1       0       0       0       001010000D    347
     110       0       0       2       0                    LINE      38D    348
     120     514       1       1       0       0       0       001010000D    349
     120       0       0       1       0                    SREV      13D    350
     508     515       1       1       0       0       0       001010000D    351
     508       0       0       1       1                EDGELOOP      23D    352
     510     516       1       1       0       0       0       000010000D    353
     510       0       0       1       1                    FACE      21D    354
     110     517       1       1       0       0       0       001010000D    355
     110       0       0       1       0                    LINE      39D    356
     110     518       1       1       0       0       0       001010000D    357
     110       0       0       2       0                    LINE      40D    358
     120     520       1       1       0       0       0       001010000D    359
     120       0       0       1       0                    SREV      14D    360
     508     521       1       1       0       0       0       001010000D    361
     508       0       0       1       1                EDGELOOP      24D    362
     510     522       1       1       0       0       0       000010000D    363
     510       0       0       1       1                    FACE      22D    364
     110     523       1       1       0       0       0       001010000D    365
     110       0       0       1       0                    LINE      41D    366
     110     524       1       1       0       0       0       001010000D    367
     110       0       0       1       0                    LINE      42D    368
     120     525       1       1       0       0       0       001010000D    369
     120       0       0       1       0                    SREV      15D    370
     508     526       1       1       0       0       0       001010000D    371
     508       0       0       1       1                EDGELOOP      25D    372
     510     527       1       1       0       0       0       000010000D    373
     510       0       0       1       1                    FACE      23D    374
     110     528       1       1       0       0       0       001010000D    375
     110       0       0       1       0                    LINE      43D    376
     110     529       1       1       0       0       0       001010000D    377
     110       0       0       1       0                    LINE      44D    378
     120     530       1       1       0       0       0       001010000D    379
     120       0       0       1       0                    SREV      16D    380
     508     531       1       1       0       0       0       001010000D    381
     508       0       0       1       1                EDGELOOP      26D    382
     510     532       1       1       0       0       0       000010000D    383
     510       0       0       1       1                    FACE      24D    384
     110     533       1       1       0       0       0       001010000D    385
     110       0       0       1       0                    LINE      45D    386
     110     534       1       1       0       0       0       001010000D    387
     110       0       0       2       0                    LINE      46D    388
     120     536       1       1       0       0       0       001010000D    389
     120       0       0       1       0                    SREV      17D    390
     508     537       1       1       0       0       0       001010000D    391
     508       0       0       1       1                EDGELOOP      27D    392
     510     538       1       1       0       0       0       000010000D    393
     510       0       0       1       1                    FACE      25D    394
     110     539       1       1       0       0       0       001010000D    395
     110       0       0       1       0                    LINE      47D    396
     110     540       1       1       0       0       0       001010000D    397
     110       0       0       2       0                    LINE      48D    398
     120     542       1       1       0       0       0       001010000D    399
     120       0       0       1       0                    SREV      18D    400
     508     543       1       1       0       0       0       001010000D    401
     508       0       0       1       1                EDGELOOP      28D    402
     510     544       1       1       0       0       0       000010000D    403
     510       0       0       1       1                    FACE      26D    404
     514     545       1       1       0       0       0       000010000D    405
     514       0       0       3       1                   SHELL       1D    406
     124     548       1       1       0       0       0       001000000D    407
     124       0       0       1       0                   XFORM      21D    408
     100     549       1       1       0       0     407       001010000D    409
     100       0       0       1       0                     ARC      21D    410
     124     550       1       1       0       0       0       001000000D    411
     124       0       0       1       0                   XFORM      22D    412
     100     551       1       1       0       0     411       001010000D    413
     100       0       0       1       0                     ARC      22D    414
     124     552       1       1       0       0       0       001000000D    415
     124       0       0       1       0                   XFORM      23D    416
     100     553       1       1       0       0     415       001010000D    417
     100       0       0       1       0                     ARC      23D    418
     110     554       1       1       0       0       0       001010000D    419
     110       0       0       1       0                    LINE      49D    420
     124     555       1       1       0       0       0       001000000D    421
     124       0       0       1       0                   XFORM      24D    422
     100     556       1       1       0       0     421       001010000D    423
     100       0       0       1       0                     ARC      24D    424
     110     557       1       1       0       0       0       001010000D    425
     110       0       0       1       0                    LINE      50D    426
     502     558       1       1       0       0       0       001010000D    427
     502       0       0       1       1                  VERTEX       2D    428
     504     559       1       1       0       0       0       000010001D    429
     504       0       0       2       1                    EDGE       2D    430
     110     561       1       1       0       0       0       001010000D    431
     110       0       0       1       0                    LINE      51D    432
     110     562       1       1       0       0       0       001010000D    433
     110       0       0       1       0                    LINE      52D    434
     120     563       1       1       0       0       0       001010000D    435
     120       0       0       1       0                    SREV      19D    436
     508     564       1       1       0       0       0       001010000D    437
     508       0       0       1       1                EDGELOOP      29D    438
     510     565       1       1       0       0       0       000010000D    439
     510       0       0       1       1                    FACE      27D    440
     110     566       1       1       0       0       0       001010000D    441
     110       0       0       1       0                    LINE      53D    442
     110     567       1       1       0       0       0       001010000D    443
     110       0       0       1       0                    LINE      54D    444
     120     568       1       1       0       0       0       001010000D    445
     120       0       0       1       0                    SREV      20D    446
     508     569       1       1       0       0       0       001010000D    447
     508       0       0       1       1                EDGELOOP      30D    448
     510     570       1       1       0       0       0       000010000D    449
     510       0       0       1       1                    FACE      28D    450
     514     571       1       1       0       0       0       000000000D    451
     514       0       0       1       1                   SHELL       2D    452
     186     572       1       1       0       0       0       000000000D    453
     186       0       0       1       0                    MSBR       1D    454
314,1.1D0,1.2D0,1D2;                                                   1P      1
314,1.1D1,1.1D1,1.1D1;                                                 3P      2
314,3.92D1,1.2D0,1.2D0;                                                5P      3
314,4.1D1,0D0,2.2D1;                                                   7P      4
314,8.784D1,9.49D1,1D2;                                                9P      5
314,9.6D1,9.6D1,9.6D1;                                                11P      6
314,9.8D1,6.27D1,0D0;                                                 13P      7
314,1D2,1D2,9.49D1;                                                   15P      8
124,1D0,0D0,0D0,0D0,0D0,0D0,1D0,-8D0,0D0,-1D0,0D0,0D0;                17P      9
100,0D0,0D0,0D0,1.35D1,0D0,6.750000000085D0,1.169134295104D1;         19P     10
124,5.000000000063D-1,-8.660254037808D-1,0D0,0D0,0D0,0D0,1D0,         21P     11
-8D0,-8.660254037808D-1,-5.000000000063D-1,0D0,0D0;                   21P     12
100,0D0,0D0,0D0,1.35D1,0D0,6.750000000021D0,1.169134295108D1;         23P     13
124,-4.999999999921D-1,-8.660254037890D-1,0D0,0D0,0D0,0D0,1D0,        25P     14
-8D0,-8.660254037890D-1,4.999999999921D-1,0D0,0D0;                    25P     15
100,0D0,0D0,0D0,1.35D1,0D0,6.749999999893D0,1.169134295115D1;         27P     16
124,-1D0,0D0,0D0,0D0,0D0,0D0,1D0,-8D0,0D0,1D0,0D0,0D0;                29P     17
100,0D0,0D0,0D0,1.35D1,0D0,6.750000000085D0,1.169134295104D1;         31P     18
124,-5.000000000063D-1,8.660254037808D-1,0D0,0D0,0D0,0D0,1D0,         33P     19
-8D0,8.660254037808D-1,5.000000000063D-1,0D0,0D0;                     33P     20
100,0D0,0D0,0D0,1.35D1,0D0,6.750000000021D0,1.169134295108D1;         35P     21
124,4.999999999921D-1,8.660254037890D-1,0D0,0D0,0D0,0D0,1D0,          37P     22
-8D0,8.660254037890D-1,-4.999999999921D-1,0D0,0D0;                    37P     23
100,0D0,0D0,0D0,1.35D1,0D0,6.749999999893D0,1.169134295115D1;         39P     24
124,-1D0,0D0,0D0,0D0,0D0,0D0,1D0,-7.999996210543D0,0D0,1D0,0D0,       41P     25
0D0;                                                                  41P     26
100,0D0,0D0,0D0,9.249998737315D0,0D0,-9.249998737315D0,               43P     27
1.345623461376D-14;                                                   43P     28
124,1D0,0D0,0D0,0D0,0D0,0D0,1D0,-7.999996210543D0,0D0,-1D0,0D0,       45P     29
0D0;                                                                  45P     30
100,0D0,0D0,0D0,9.249998737315D0,0D0,-9.249998737315D0,0D0;           47P     31
126,7,3,0,0,1,0,0D0,0D0,0D0,0D0,2D-1,4D-1,6D-1,8D-1,1D0,1D0,1D0,      49P     32
1D0,1D0,1D0,1D0,1D0,1D0,1D0,1D0,1D0,1.350000000512D1,                 49P     33
8.000000001206D0,-1.012043805437D-7,1.350000000512D1,                 49P     34
7.999999996116D0,-5.149176389254D-1,1.349999999762D1,                 49P     35
7.965843934392D0,-1.543924349055D0,1.350000000064D1,                  49P     36
7.814977889674D0,-3.083358996634D0,1.349999999983D1,                  49P     37
7.569898098381D0,-4.623493598005D0,1.350000000005D1,                  49P     38
7.236724334694D0,-6.174855026554D0,1.35D1,6.951506973171D0,           49P     39
-7.249400485520D0,1.35D1,6.794228634060D0,-7.794228634060D0,0D0,      49P     40
1D0,0D0,0D0,1D0;                                                      49P     41
126,7,3,0,0,1,0,0D0,0D0,0D0,0D0,2D-1,4D-1,6D-1,8D-1,1D0,1D0,1D0,      51P     42
1D0,1D0,1D0,1D0,1D0,1D0,1D0,1D0,1D0,1.35D1,-8.000000000020D0,         51P     43
-2.263335782118D-12,1.35D1,-8.000000000020D0,-5.149174982332D-1,      51P     44
1.35D1,-7.965843950157D0,-1.543924092727D0,1.35D1,                    51P     45
-7.814977910713D0,-3.083358853200D0,1.35D1,-7.569898119067D0,         51P     46
-4.623493489927D0,1.35D1,-7.236724348533D0,-6.174854973749D0,         51P     47
1.35D1,-6.951506978401D0,-7.249400467400D0,1.35D1,                    51P     48
-6.794228634060D0,-7.794228634060D0,0D0,1D0,0D0,0D0,1D0;              51P     49
126,7,3,0,0,1,0,0D0,0D0,0D0,0D0,2D-1,4D-1,6D-1,8D-1,1D0,1D0,1D0,      53P     50
1D0,1D0,1D0,1D0,1D0,1D0,1D0,1D0,1D0,1.35D1,-6.794228634060D0,         53P     51
7.794228634060D0,1.35D1,-6.953007083181D0,7.244203952010D0,           53P     52
1.35D1,-7.240034554400D0,6.161659422844D0,1.35D1,                     53P     53
-7.573023962651D0,4.606882403643D0,1.35D1,-7.816765326224D0,          53P     54
3.068799364845D0,1.35D1,-7.966230875678D0,1.535657775551D0,           53P     55
1.35D1,-8.000000000020D0,5.118890866807D-1,1.35D1,                    53P     56
-8.000000000020D0,-2.263335782118D-12,0D0,1D0,0D0,0D0,1D0;            53P     57
110,1.35D1,-6.794228634060D0,7.794228634060D0,1.35D1,                 55P     58
6.794228634060D0,7.794228634060D0;                                    55P     59
126,7,3,0,0,1,0,0D0,0D0,0D0,0D0,2D-1,4D-1,6D-1,8D-1,1D0,1D0,1D0,      57P     60
1D0,1D0,1D0,1D0,1D0,1D0,1D0,1D0,1D0,1.35D1,6.794228634060D0,          57P     61
7.794228634060D0,1.35D1,6.953007083202D0,7.244203951937D0,            57P     62
1.350000000005D1,7.240034554467D0,6.161659422368D0,                   57P     63
1.349999999983D1,7.573023962694D0,4.606882404134D0,                   57P     64
1.350000000064D1,7.816765326452D0,3.068799360844D0,                   57P     65
1.349999999762D1,7.966230875202D0,1.535657787325D0,                   57P     66
1.350000000512D1,8.000000001197D0,5.118890585561D-1,                  57P     67
1.350000000512D1,8.000000001206D0,-1.012043805437D-7,0D0,1D0,         57P     68
0D0,0D0,1D0;                                                          57P     69
126,7,3,0,0,1,0,0D0,0D0,0D0,0D0,2D-1,4D-1,6D-1,8D-1,1D0,1D0,1D0,      59P     70
1D0,1D0,1D0,1D0,1D0,1D0,1D0,1D0,1D0,1.35D1,6.794228634060D0,          59P     71
-7.794228634060D0,1.301998587678D1,6.954233341799D0,                  59P     72
-8.071364917313D0,1.207679815703D1,7.242741714750D0,                  59P     73
-8.615914601209D0,1.072782485736D1,7.575594168179D0,                  59P     74
-9.394744698902D0,9.397171100780D0,7.818246888759D0,                  59P     75
-1.016299800346D1,8.073973326621D0,7.966549961939D0,                  59P     76
-1.092694659456D1,7.191127698784D0,8.000000000001D0,                  59P     77
-1.143665775545D1,6.749999999996D0,8.000000000001D0,                  59P     78
-1.169134295109D1,0D0,1D0,0D0,0D0,1D0;                                59P     79
126,7,3,0,0,1,0,0D0,0D0,0D0,0D0,2D-1,4D-1,6D-1,8D-1,1D0,1D0,1D0,      61P     80
1D0,1D0,1D0,1D0,1D0,1D0,1D0,1D0,1D0,6.749999999996D0,                 61P     81
8.000000000001D0,-1.169134295109D1,6.308756735939D0,                  61P     82
8.000000000001D0,-1.194609486838D1,5.425723008649D0,                  61P     83
7.966531365504D0,-1.245591462853D1,4.102399867883D0,                  61P     84
7.818187062139D0,-1.321993560007D1,2.771694392495D0,                  61P     85
7.575483747002D0,-1.398821876450D1,1.423257458457D0,                  61P     86
7.242749742876D0,-1.476673919135D1,4.800508315092D-1,                 61P     87
6.954245577896D0,-1.531129979132D1,0D0,6.794228634060D0,              61P     88
-1.558845726812D1,0D0,1D0,0D0,0D0,1D0;                                61P     89
126,7,3,0,0,1,0,0D0,0D0,0D0,0D0,2D-1,4D-1,6D-1,8D-1,1D0,1D0,1D0,      63P     90
1D0,1D0,1D0,1D0,1D0,1D0,1D0,1D0,1D0,6.750000000037D0,                 63P     91
-8.000000000001D0,-1.169134295107D1,6.308756735980D0,                 63P     92
-8.000000000001D0,-1.194609486835D1,5.425723008630D0,                 63P     93
-7.966531365504D0,-1.245591462854D1,4.102399867889D0,                 63P     94
-7.818187062139D0,-1.321993560007D1,2.771694392494D0,                 63P     95
-7.575483747002D0,-1.398821876450D1,1.423257458457D0,                 63P     96
-7.242749742876D0,-1.476673919135D1,4.800508315092D-1,                63P     97
-6.954245577896D0,-1.531129979132D1,0D0,-6.794228634060D0,            63P     98
-1.558845726812D1,0D0,1D0,0D0,0D0,1D0;                                63P     99
126,7,3,0,0,1,0,0D0,0D0,0D0,0D0,2D-1,4D-1,6D-1,8D-1,1D0,1D0,1D0,      65P    100
1D0,1D0,1D0,1D0,1D0,1D0,1D0,1D0,1D0,1.35D1,-6.794228634060D0,         65P    101
-7.794228634060D0,1.301998587678D1,-6.954233341799D0,                 65P    102
-8.071364917313D0,1.207679815703D1,-7.242741714750D0,                 65P    103
-8.615914601208D0,1.072782485736D1,-7.575594168179D0,                 65P    104
-9.394744698903D0,9.397171100785D0,-7.818246888759D0,                 65P    105
-1.016299800346D1,8.073973326602D0,-7.966549961939D0,                 65P    106
-1.092694659458D1,7.191127698825D0,-8.000000000001D0,                 65P    107
-1.143665775543D1,6.750000000037D0,-8.000000000001D0,                 65P    108
-1.169134295107D1,0D0,1D0,0D0,0D0,1D0;                                65P    109
110,1.35D1,-6.794228634060D0,-7.794228634060D0,1.35D1,                67P    110
6.794228634060D0,-7.794228634060D0;                                   67P    111
126,7,3,0,0,1,0,0D0,0D0,0D0,0D0,2D-1,4D-1,6D-1,8D-1,1D0,1D0,1D0,      69P    112
1D0,1D0,1D0,1D0,1D0,1D0,1D0,1D0,1D0,0D0,6.794228634060D0,             69P    113
-1.558845726812D1,-4.800141162079D-1,6.954233339463D0,                69P    114
-1.531132098891D1,-1.423201822957D0,7.242741708638D0,                 69P    115
-1.476677131252D1,-2.772175100251D0,7.575594159037D0,                 69P    116
-1.398794122775D1,-4.102828849183D0,7.818246879956D0,                 69P    117
-1.321968792761D1,-5.426026560371D0,7.966549953927D0,                 69P    118
-1.245573937286D1,-6.308872283131D0,8.000000000927D0,                 69P    119
-1.194602815717D1,-6.749999975352D0,8.000000000927D0,                 69P    120
-1.169134296532D1,0D0,1D0,0D0,0D0,1D0;                                69P    121
126,7,3,0,0,1,0,0D0,0D0,0D0,0D0,2D-1,4D-1,6D-1,8D-1,1D0,1D0,1D0,      71P    122
1D0,1D0,1D0,1D0,1D0,1D0,1D0,1D0,1D0,-6.749999975352D0,                71P    123
8.000000000927D0,-1.169134296532D1,-7.191243288625D0,                 71P    124
8.000000000927D0,-1.143659101963D1,-8.074276979950D0,                 71P    125
7.966531365074D0,-1.092677128023D1,-9.397600135172D0,                 71P    126
7.818187062254D0,-1.016275030034D1,-1.072830560668D1,                 71P    127
7.575483746971D0,-9.394467138153D0,-1.207674254178D1,                 71P    128
7.242749742885D0,-8.615946710690D0,-1.301994916849D1,                 71P    129
6.954245577896D0,-8.071386110857D0,-1.35D1,6.794228634060D0,          71P    130
-7.794228634060D0,0D0,1D0,0D0,0D0,1D0;                                71P    131
126,7,3,0,0,1,0,0D0,0D0,0D0,0D0,2D-1,4D-1,6D-1,8D-1,1D0,1D0,1D0,      73P    132
1D0,1D0,1D0,1D0,1D0,1D0,1D0,1D0,1D0,-6.749999999959D0,                73P    133
-8.000000000001D0,-1.169134295112D1,-7.191243264016D0,                73P    134
-8.000000000001D0,-1.143659103383D1,-8.074276991371D0,                73P    135
-7.966531365504D0,-1.092677127364D1,-9.397600132111D0,                73P    136
-7.818187062139D0,-1.016275030211D1,-1.072830560751D1,                73P    137
-7.575483747002D0,-9.394467137678D0,-1.207674254154D1,                73P    138
-7.242749742876D0,-8.615946710826D0,-1.301994916849D1,                73P    139
-6.954245577896D0,-8.071386110857D0,-1.35D1,-6.794228634060D0,        73P    140
-7.794228634060D0,0D0,1D0,0D0,0D0,1D0;                                73P    141
126,7,3,0,0,1,0,0D0,0D0,0D0,0D0,2D-1,4D-1,6D-1,8D-1,1D0,1D0,1D0,      75P    142
1D0,1D0,1D0,1D0,1D0,1D0,1D0,1D0,1D0,0D0,-6.794228634060D0,            75P    143
-1.558845726812D1,-4.800141232158D-1,-6.954233341799D0,               75P    144
-1.531132098487D1,-1.423201842967D0,-7.242741714750D0,                75P    145
-1.476677130097D1,-2.772175142638D0,-7.575594168179D0,                75P    146
-1.398794120328D1,-4.102828899214D0,-7.818246888759D0,                75P    147
-1.321968789872D1,-5.426026673400D0,-7.966549961939D0,                75P    148
-1.245573930760D1,-6.308872301171D0,-8.000000000001D0,                75P    149
-1.194602814676D1,-6.749999999959D0,-8.000000000001D0,                75P    150
-1.169134295112D1,0D0,1D0,0D0,0D0,1D0;                                75P    151
110,0D0,-6.794228634060D0,-1.558845726812D1,0D0,                      77P    152
6.794228634060D0,-1.558845726812D1;                                   77P    153
126,7,3,0,0,1,0,0D0,0D0,0D0,0D0,2D-1,4D-1,6D-1,8D-1,1D0,1D0,1D0,      79P    154
1D0,1D0,1D0,1D0,1D0,1D0,1D0,1D0,1D0,-1.35D1,6.794228634060D0,         79P    155
-7.794228634060D0,-1.35D1,6.953007083202D0,-7.244203951937D0,         79P    156
-1.35D1,7.240034554465D0,-6.161659422927D0,-1.35D1,                   79P    157
7.573023962701D0,-4.606882402176D0,-1.35D1,7.816765326427D0,          79P    158
-3.068799368114D0,-1.35D1,7.966230875294D0,-1.535657760202D0,         79P    159
-1.35D1,8.000000000998D0,-5.118891169956D-1,-1.35D1,                  79P    160
8.000000001007D0,3.055941755203D-8,0D0,1D0,0D0,0D0,1D0;               79P    161
126,7,3,0,0,1,0,0D0,0D0,0D0,0D0,2D-1,4D-1,6D-1,8D-1,1D0,1D0,1D0,      81P    162
1D0,1D0,1D0,1D0,1D0,1D0,1D0,1D0,1D0,-1.35D1,8.000000001007D0,         81P    163
3.055941755203D-8,-1.35D1,8.000000001007D0,5.149175199473D-1,         81P    164
-1.35D1,7.965843941538D0,1.543924231990D0,-1.35D1,                    81P    165
7.814977901292D0,3.083358914375D0,-1.35D1,7.569898109368D0,           81P    166
4.623493541572D0,-1.35D1,7.236724342134D0,6.174854997851D0,           81P    167
-1.35D1,6.951506975973D0,7.249400475814D0,-1.35D1,                    81P    168
6.794228634060D0,7.794228634060D0,0D0,1D0,0D0,0D0,1D0;                81P    169
126,7,3,0,0,1,0,0D0,0D0,0D0,0D0,2D-1,4D-1,6D-1,8D-1,1D0,1D0,1D0,      83P    170
1D0,1D0,1D0,1D0,1D0,1D0,1D0,1D0,1D0,-1.35D1,-8.000000000020D0,        83P    171
2.248479180204D-12,-1.35D1,-8.000000000020D0,5.149174982332D-1,       83P    172
-1.35D1,-7.965843950157D0,1.543924092727D0,-1.35D1,                   83P    173
-7.814977910713D0,3.083358853200D0,-1.35D1,-7.569898119067D0,         83P    174
4.623493489927D0,-1.35D1,-7.236724348533D0,6.174854973749D0,          83P    175
-1.35D1,-6.951506978401D0,7.249400467400D0,-1.35D1,                   83P    176
-6.794228634060D0,7.794228634060D0,0D0,1D0,0D0,0D0,1D0;               83P    177
126,7,3,0,0,1,0,0D0,0D0,0D0,0D0,2D-1,4D-1,6D-1,8D-1,1D0,1D0,1D0,      85P    178
1D0,1D0,1D0,1D0,1D0,1D0,1D0,1D0,1D0,-1.35D1,-6.794228634060D0,        85P    179
-7.794228634060D0,-1.35D1,-6.953007083181D0,-7.244203952010D0,        85P    180
-1.35D1,-7.240034554400D0,-6.161659422844D0,-1.35D1,                  85P    181
-7.573023962651D0,-4.606882403643D0,-1.35D1,-7.816765326224D0,        85P    182
-3.068799364845D0,-1.35D1,-7.966230875678D0,-1.535657775551D0,        85P    183
-1.35D1,-8.000000000020D0,-5.118890866807D-1,-1.35D1,                 85P    184
-8.000000000020D0,2.248479180204D-12,0D0,1D0,0D0,0D0,1D0;             85P    185
110,-1.35D1,-6.794228634060D0,-7.794228634060D0,-1.35D1,              87P    186
6.794228634060D0,-7.794228634060D0;                                   87P    187
126,7,3,0,0,1,0,0D0,0D0,0D0,0D0,2D-1,4D-1,6D-1,8D-1,1D0,1D0,1D0,      89P    188
1D0,1D0,1D0,1D0,1D0,1D0,1D0,1D0,1D0,-1.35D1,6.794228634060D0,         89P    189
7.794228634060D0,-1.301998587678D1,6.954233341799D0,                  89P    190
8.071364917313D0,-1.207679815703D1,7.242741714750D0,                  89P    191
8.615914601208D0,-1.072782485736D1,7.575594168179D0,                  89P    192
9.394744698903D0,-9.397171100785D0,7.818246888759D0,                  89P    193
1.016299800346D1,-8.073973326602D0,7.966549961939D0,                  89P    194
1.092694659458D1,-7.191127698825D0,8.000000000001D0,                  89P    195
1.143665775543D1,-6.750000000037D0,8.000000000001D0,                  89P    196
1.169134295107D1,0D0,1D0,0D0,0D0,1D0;                                 89P    197
126,7,3,0,0,1,0,0D0,0D0,0D0,0D0,2D-1,4D-1,6D-1,8D-1,1D0,1D0,1D0,      91P    198
1D0,1D0,1D0,1D0,1D0,1D0,1D0,1D0,1D0,-6.750000000037D0,                91P    199
8.000000000001D0,1.169134295107D1,-6.308756735980D0,                  91P    200
8.000000000001D0,1.194609486835D1,-5.425723008630D0,                  91P    201
7.966531365504D0,1.245591462854D1,-4.102399867889D0,                  91P    202
7.818187062139D0,1.321993560007D1,-2.771694392494D0,                  91P    203
7.575483747002D0,1.398821876450D1,-1.423257458457D0,                  91P    204
7.242749742876D0,1.476673919135D1,-4.800508315092D-1,                 91P    205
6.954245577896D0,1.531129979132D1,0D0,6.794228634060D0,               91P    206
1.558845726812D1,0D0,1D0,0D0,0D0,1D0;                                 91P    207
126,7,3,0,0,1,0,0D0,0D0,0D0,0D0,2D-1,4D-1,6D-1,8D-1,1D0,1D0,1D0,      93P    208
1D0,1D0,1D0,1D0,1D0,1D0,1D0,1D0,1D0,-6.750000000037D0,                93P    209
-8.000000000001D0,1.169134295107D1,-6.308756735980D0,                 93P    210
-8.000000000001D0,1.194609486835D1,-5.425723008630D0,                 93P    211
-7.966531365504D0,1.245591462854D1,-4.102399867889D0,                 93P    212
-7.818187062139D0,1.321993560007D1,-2.771694392494D0,                 93P    213
-7.575483747002D0,1.398821876450D1,-1.423257458457D0,                 93P    214
-7.242749742876D0,1.476673919135D1,-4.800508315092D-1,                93P    215
-6.954245577896D0,1.531129979132D1,0D0,-6.794228634060D0,             93P    216
1.558845726812D1,0D0,1D0,0D0,0D0,1D0;                                 93P    217
126,7,3,0,0,1,0,0D0,0D0,0D0,0D0,2D-1,4D-1,6D-1,8D-1,1D0,1D0,1D0,      95P    218
1D0,1D0,1D0,1D0,1D0,1D0,1D0,1D0,1D0,-1.35D1,-6.794228634060D0,        95P    219
7.794228634060D0,-1.301998587678D1,-6.954233341799D0,                 95P    220
8.071364917313D0,-1.207679815703D1,-7.242741714750D0,                 95P    221
8.615914601208D0,-1.072782485736D1,-7.575594168179D0,                 95P    222
9.394744698903D0,-9.397171100785D0,-7.818246888759D0,                 95P    223
1.016299800346D1,-8.073973326602D0,-7.966549961939D0,                 95P    224
1.092694659458D1,-7.191127698825D0,-8.000000000001D0,                 95P    225
1.143665775543D1,-6.750000000037D0,-8.000000000001D0,                 95P    226
1.169134295107D1,0D0,1D0,0D0,0D0,1D0;                                 95P    227
110,-1.35D1,-6.794228634060D0,7.794228634060D0,-1.35D1,               97P    228
6.794228634060D0,7.794228634060D0;                                    97P    229
126,7,3,0,0,1,0,0D0,0D0,0D0,0D0,2D-1,4D-1,6D-1,8D-1,1D0,1D0,1D0,      99P    230
1D0,1D0,1D0,1D0,1D0,1D0,1D0,1D0,1D0,0D0,6.794228634060D0,             99P    231
1.558845726812D1,4.800141232158D-1,6.954233341799D0,                  99P    232
1.531132098487D1,1.423201842967D0,7.242741714750D0,                   99P    233
1.476677130097D1,2.772175142638D0,7.575594168179D0,                   99P    234
1.398794120328D1,4.102828899214D0,7.818246888759D0,                   99P    235
1.321968789872D1,5.426026673400D0,7.966549961939D0,                   99P    236
1.245573930760D1,6.308872301171D0,8.000000000001D0,                   99P    237
1.194602814676D1,6.749999999959D0,8.000000000001D0,                   99P    238
1.169134295112D1,0D0,1D0,0D0,0D0,1D0;                                 99P    239
126,7,3,0,0,1,0,0D0,0D0,0D0,0D0,2D-1,4D-1,6D-1,8D-1,1D0,1D0,1D0,     101P    240
1D0,1D0,1D0,1D0,1D0,1D0,1D0,1D0,1D0,6.749999999959D0,                101P    241
8.000000000001D0,1.169134295112D1,7.191243264016D0,                  101P    242
8.000000000001D0,1.143659103383D1,8.074276991371D0,                  101P    243
7.966531365504D0,1.092677127364D1,9.397600132111D0,                  101P    244
7.818187062139D0,1.016275030211D1,1.072830560751D1,                  101P    245
7.575483747002D0,9.394467137678D0,1.207674254154D1,                  101P    246
7.242749742876D0,8.615946710826D0,1.301994916849D1,                  101P    247
6.954245577896D0,8.071386110857D0,1.35D1,6.794228634060D0,           101P    248
7.794228634060D0,0D0,1D0,0D0,0D0,1D0;                                101P    249
126,7,3,0,0,1,0,0D0,0D0,0D0,0D0,2D-1,4D-1,6D-1,8D-1,1D0,1D0,1D0,     103P    250
1D0,1D0,1D0,1D0,1D0,1D0,1D0,1D0,1D0,6.749999999959D0,                103P    251
-8.000000000001D0,1.169134295112D1,7.191243264016D0,                 103P    252
-8.000000000001D0,1.143659103383D1,8.074276991371D0,                 103P    253
-7.966531365504D0,1.092677127364D1,9.397600132111D0,                 103P    254
-7.818187062139D0,1.016275030211D1,1.072830560751D1,                 103P    255
-7.575483747002D0,9.394467137678D0,1.207674254154D1,                 103P    256
-7.242749742876D0,8.615946710826D0,1.301994916849D1,                 103P    257
-6.954245577896D0,8.071386110857D0,1.35D1,-6.794228634060D0,         103P    258
7.794228634060D0,0D0,1D0,0D0,0D0,1D0;                                103P    259
126,7,3,0,0,1,0,0D0,0D0,0D0,0D0,2D-1,4D-1,6D-1,8D-1,1D0,1D0,1D0,     105P    260
1D0,1D0,1D0,1D0,1D0,1D0,1D0,1D0,1D0,0D0,-6.794228634060D0,           105P    261
1.558845726812D1,4.800141232158D-1,-6.954233341799D0,                105P    262
1.531132098487D1,1.423201842967D0,-7.242741714750D0,                 105P    263
1.476677130097D1,2.772175142638D0,-7.575594168179D0,                 105P    264
1.398794120328D1,4.102828899214D0,-7.818246888759D0,                 105P    265
1.321968789872D1,5.426026673400D0,-7.966549961939D0,                 105P    266
1.245573930760D1,6.308872301171D0,-8.000000000001D0,                 105P    267
1.194602814676D1,6.749999999959D0,-8.000000000001D0,                 105P    268
1.169134295112D1,0D0,1D0,0D0,0D0,1D0;                                105P    269
110,0D0,-6.794228634060D0,1.558845726812D1,0D0,6.794228634060D0,     107P    270
1.558845726812D1;                                                    107P    271
124,1D0,-2.000739746891D-9,0D0,0D0,0D0,0D0,1D0,8D0,                  109P    272
-2.000739746891D-9,-1D0,0D0,0D0;                                     109P    273
100,0D0,0D0,0D0,1.35D1,0D0,6.750000023311D0,1.169134293763D1;        111P    274
124,4.999999999921D-1,8.660254037890D-1,0D0,0D0,0D0,0D0,1D0,8D0,     113P    275
8.660254037890D-1,-4.999999999921D-1,0D0,0D0;                        113P    276
100,0D0,0D0,0D0,1.35D1,0D0,6.749999976502D0,1.169134296466D1;        115P    277
124,-5.000000000063D-1,8.660254037808D-1,0D0,0D0,0D0,0D0,1D0,        117P    278
8D0,8.660254037808D-1,5.000000000063D-1,0D0,0D0;                     117P    279
100,0D0,0D0,0D0,1.35D1,0D0,6.750000000021D0,1.169134295108D1;        119P    280
124,-1D0,0D0,0D0,0D0,0D0,0D0,1D0,8D0,0D0,1D0,0D0,0D0;                121P    281
100,0D0,0D0,0D0,1.35D1,0D0,6.750000000085D0,1.169134295104D1;        123P    282
124,-4.999999999921D-1,-8.660254037890D-1,0D0,0D0,0D0,0D0,1D0,       125P    283
8D0,-8.660254037890D-1,4.999999999921D-1,0D0,0D0;                    125P    284
100,0D0,0D0,0D0,1.35D1,0D0,6.749999999893D0,1.169134295115D1;        127P    285
124,4.999999999940D-1,-8.660254037879D-1,0D0,0D0,0D0,0D0,1D0,        129P    286
8D0,-8.660254037879D-1,-4.999999999940D-1,0D0,0D0;                   129P    287
100,0D0,0D0,0D0,1.35D1,0D0,6.750000000187D0,1.169134295098D1;        131P    288
124,-1D0,0D0,0D0,0D0,0D0,0D0,-1D0,7.999996210543D0,0D0,-1D0,0D0,     133P    289
0D0;                                                                 133P    290
100,0D0,0D0,0D0,9.249998737315D0,0D0,-9.249998737315D0,0D0;          135P    291
124,1D0,0D0,0D0,0D0,0D0,0D0,-1D0,7.999996210543D0,0D0,1D0,0D0,       137P    292
0D0;                                                                 137P    293
100,0D0,0D0,0D0,9.249998737315D0,0D0,-9.249998737315D0,0D0;          139P    294
110,-9.250000883191D0,7.999998469613D0,2.517839260554D-9,            141P    295
-7.750000554978D0,7.133973634554D0,1.582158032553D-9;                141P    296
110,9.250000883191D0,7.999998469613D0,-2.517841288450D-9,            143P    297
7.750000554978D0,7.133973634554D0,-1.582158379498D-9;                143P    298
124,1D0,0D0,0D0,0D0,0D0,0D0,-1D0,7.133976284413D0,0D0,1D0,0D0,       145P    299
0D0;                                                                 145P    300
100,0D0,0D0,0D0,7.75D0,0D0,-7.75D0,0D0;                              147P    301
110,-7.750000554978D0,-7.133973634554D0,1.582159781155D-9,           149P    302
-7.750000554978D0,7.133973634554D0,1.582158032553D-9;                149P    303
124,-1D0,0D0,0D0,0D0,0D0,0D0,1D0,-7.133976284413D0,0D0,1D0,0D0,      151P    304
0D0;                                                                 151P    305
100,0D0,0D0,0D0,7.75D0,0D0,-7.75D0,0D0;                              153P    306
110,7.750000554978D0,-7.133973634554D0,-1.582159212165D-9,           155P    307
7.750000554978D0,7.133973634554D0,-1.582158379498D-9;                155P    308
124,-1D0,0D0,0D0,0D0,0D0,0D0,-1D0,7.133976284413D0,0D0,-1D0,0D0,     157P    309
0D0;                                                                 157P    310
100,0D0,0D0,0D0,7.75D0,0D0,-7.75D0,0D0;                              159P    311
124,1D0,0D0,0D0,0D0,0D0,0D0,1D0,-7.133976284413D0,0D0,-1D0,0D0,      161P    312
0D0;                                                                 161P    313
100,0D0,0D0,0D0,7.75D0,0D0,-7.75D0,0D0;                              163P    314
110,9.250000883191D0,-7.999998469613D0,-2.517843767949D-9,           165P    315
7.750000554978D0,-7.133973634554D0,-1.582159212165D-9;               165P    316
110,-9.250000883191D0,-7.999998469613D0,2.517844996707D-9,           167P    317
-7.750000554978D0,-7.133973634554D0,1.582159781155D-9;               167P    318
502,32,1.35D1,8D0,-2.700998658303D-8,6.749999999919D0,8D0,           169P    319
-1.169134295114D1,-6.749999999893D0,8D0,-1.169134295115D1,           169P    320
-1.35D1,8D0,0D0,-6.750000000085D0,8D0,1.169134295104D1,              169P    321
6.749999999893D0,8D0,1.169134295115D1,-1.35D1,6.794228634060D0,      169P    322
7.794228634060D0,0D0,6.794228634060D0,1.558845726812D1,1.35D1,       169P    323
6.794228634060D0,7.794228634060D0,1.35D1,6.794228634060D0,           169P    324
-7.794228634060D0,0D0,6.794228634060D0,-1.558845726812D1,            169P    325
-1.35D1,6.794228634060D0,-7.794228634060D0,-1.35D1,                  169P    326
-6.794228634060D0,7.794228634060D0,0D0,-6.794228634060D0,            169P    327
1.558845726812D1,1.35D1,-6.794228634060D0,7.794228634060D0,          169P    328
1.35D1,-6.794228634060D0,-7.794228634060D0,0D0,                      169P    329
-6.794228634060D0,-1.558845726812D1,-1.35D1,-6.794228634060D0,       169P    330
-7.794228634060D0,1.35D1,-8D0,0D0,6.750000000085D0,-8D0,             169P    331
-1.169134295104D1,-6.749999999893D0,-8D0,-1.169134295115D1,          169P    332
-1.35D1,-8D0,0D0,-6.750000000085D0,-8D0,1.169134295104D1,            169P    333
6.749999999893D0,-8D0,1.169134295115D1,-9.249998737315D0,            169P    334
7.999996210543D0,0D0,9.249998737315D0,7.999996210543D0,0D0,          169P    335
-7.75D0,7.133976284413D0,0D0,7.75D0,7.133976284413D0,0D0,            169P    336
-9.249998737315D0,-7.999996210543D0,0D0,9.249998737315D0,            169P    337
-7.999996210543D0,0D0,-7.75D0,-7.133976284413D0,0D0,7.75D0,          169P    338
-7.133976284413D0,0D0;                                               169P    339
504,56,111,169,1,169,2,131,169,2,169,3,127,169,3,169,4,123,169,      171P    340
4,169,5,119,169,5,169,6,115,169,6,169,1,89,169,7,169,5,91,169,5,     171P    341
169,8,99,169,8,169,6,101,169,6,169,9,49,169,1,169,10,57,169,9,       171P    342
169,1,59,169,10,169,2,61,169,2,169,11,69,169,11,169,3,71,169,3,      171P    343
169,12,79,169,12,169,4,81,169,4,169,7,97,169,13,169,7,107,169,       171P    344
14,169,8,55,169,15,169,9,67,169,16,169,10,77,169,17,169,11,87,       171P    345
169,18,169,12,19,169,19,169,20,23,169,20,169,21,27,169,21,169,       171P    346
22,31,169,22,169,23,35,169,23,169,24,39,169,24,169,19,95,169,13,     171P    347
169,23,93,169,23,169,14,105,169,14,169,24,103,169,24,169,15,51,      171P    348
169,19,169,16,53,169,15,169,19,65,169,16,169,20,63,169,20,169,       171P    349
17,75,169,17,169,21,73,169,21,169,18,85,169,18,169,22,83,169,22,     171P    350
169,13,135,169,25,169,26,159,169,27,169,28,139,169,26,169,25,        171P    351
147,169,28,169,27,43,169,29,169,30,153,169,31,169,32,47,169,30,      171P    352
169,29,163,169,32,169,31,155,169,32,169,28,149,169,31,169,27,        171P    353
143,169,26,169,28,141,169,25,169,27,165,169,30,169,32,167,169,       171P    354
29,169,31;                                                           171P    355
128,1,1,1,1,0,0,1,0,0,-1.404D1,-1.404D1,1.404D1,1.404D1,             173P    356
-1.404000000002D1,-1.404000000002D1,1.404000000002D1,                173P    357
1.404000000002D1,1D0,1D0,1D0,1D0,1.404000000002D1,-8D0,1.404D1,      173P    358
1.404000000002D1,-8D0,-1.404D1,-1.404000000002D1,-8D0,1.404D1,       173P    359
-1.404000000002D1,-8D0,-1.404D1,-1.404D1,1.404D1,                    173P    360
-1.404000000002D1,1.404000000002D1;                                  173P    361
508,6,0,171,25,1,0,0,171,26,1,0,0,171,27,1,0,0,171,28,1,0,0,171,     175P    362
29,1,0,0,171,30,1,0;                                                 175P    363
508,2,0,171,47,0,0,0,171,49,0,0;                                     177P    364
510,173,2,0,175,177;                                                 179P    365
110,0D0,-1.579422863406D1,0D0,0D0,-1.479422863406D1,0D0;             181P    366
110,1.345125576776D1,-8.028142495603D0,0D0,1.563720150036D1,         183P    367
-6.766086138457D0,0D0;                                               183P    368
120,181,183,-6.283185307180D-2,3.204424506662D0;                     185P    369
508,3,0,171,35,1,0,0,171,37,1,0,0,171,25,0,0;                        187P    370
510,185,1,0,187;                                                     189P    371
110,0D0,-1.579422863406D1,0D0,0D0,-1.479422863406D1,0D0;             191P    372
110,1.345125576776D1,-8.028142495603D0,0D0,1.563720150036D1,         193P    373
-6.766086138457D0,0D0;                                               193P    374
120,191,193,-6.283185307180D-2,3.204424506662D0;                     195P    375
508,3,0,171,38,1,0,0,171,39,1,0,0,171,26,0,0;                        197P    376
510,195,1,0,197;                                                     199P    377
110,0D0,-1.579422863406D1,0D0,0D0,-1.479422863406D1,0D0;             201P    378
110,1.345125576776D1,-8.028142495603D0,0D0,1.563720150036D1,         203P    379
-6.766086138457D0,0D0;                                               203P    380
120,201,203,-6.283185307180D-2,3.204424506662D0;                     205P    381
508,3,0,171,40,1,0,0,171,41,1,0,0,171,27,0,0;                        207P    382
510,205,1,0,207;                                                     209P    383
128,1,1,1,1,0,0,1,0,0,-3.117691453624D-1,-3.117691453624D-1,         211P    384
1.590022641348D1,1.590022641348D1,-3.200000001798D-1,                211P    385
-3.200000001798D-1,1.632000000492D1,1.632000000492D1,1D0,1D0,        211P    386
1D0,1D0,1.35D1,-8.320000000180D0,8.105997779422D0,1.35D1,            211P    387
-8.320000000180D0,-8.105997779422D0,1.35D1,8.320000004924D0,         211P    388
8.105997779422D0,1.35D1,8.320000004924D0,-8.105997779422D0,          211P    389
-3.117691453624D-1,1.590022641348D1,-3.200000001798D-1,              211P    390
1.632000000492D1;                                                    211P    391
508,6,0,171,11,1,0,0,171,22,0,0,0,171,35,0,0,0,171,36,0,0,0,171,     213P    392
21,1,0,0,171,12,1,0;                                                 213P    393
510,211,1,0,213;                                                     215P    394
110,0D0,1.579422863406D1,0D0,0D0,1.679422863406D1,0D0;               217P    395
110,1.563720150036D1,6.766086138457D0,0D0,1.345125576776D1,          219P    396
8.028142495603D0,0D0;                                                219P    397
120,217,219,-6.283183560579D-2,3.204424506288D0;                     221P    398
508,3,0,171,13,0,0,0,171,11,0,0,0,171,1,1,0;                         223P    399
510,221,1,0,223;                                                     225P    400
110,0D0,1.579422863406D1,0D0,0D0,1.679422863406D1,0D0;               227P    401
110,1.563720150036D1,6.766086138457D0,0D0,1.345125576776D1,          229P    402
8.028142495603D0,0D0;                                                229P    403
120,227,229,-6.283183560579D-2,3.204424506288D0;                     231P    404
508,3,0,171,15,0,0,0,171,14,0,0,0,171,2,1,0;                         233P    405
510,231,1,0,233;                                                     235P    406
110,0D0,1.579422863406D1,0D0,0D0,1.679422863406D1,0D0;               237P    407
110,1.563720150036D1,6.766086138457D0,0D0,1.345125576776D1,          239P    408
8.028142495603D0,0D0;                                                239P    409
120,237,239,-6.283183560579D-2,3.204424506288D0;                     241P    410
508,3,0,171,17,0,0,0,171,16,0,0,0,171,3,1,0;                         243P    411
510,241,1,0,243;                                                     245P    412
128,1,1,1,1,0,0,1,0,0,-3.117691453624D-1,-3.117691453624D-1,         247P    413
1.590022641348D1,1.590022641348D1,-3.200000000024D-1,                247P    414
-3.200000000024D-1,1.632D1,1.632D1,1D0,1D0,1D0,1D0,1.377D1,          247P    415
-8.320000000002D0,-7.638344061379D0,-2.7D-1,-8.320000000002D0,       247P    416
-1.574434184080D1,1.377D1,8.320000000002D0,-7.638344061379D0,        247P    417
-2.7D-1,8.320000000002D0,-1.574434184080D1,-3.117691453624D-1,       247P    418
1.590022641348D1,-3.200000000024D-1,1.632D1;                         247P    419
508,6,0,171,13,1,0,0,171,14,1,0,0,171,23,0,0,0,171,38,0,0,0,171,     249P    420
37,0,0,0,171,22,1,0;                                                 249P    421
510,247,1,0,249;                                                     251P    422
128,1,1,1,1,0,0,1,0,0,-3.117691453624D-1,-3.117691453624D-1,         253P    423
1.590022641348D1,1.590022641348D1,-3.200000000765D-1,                253P    424
-3.200000000765D-1,1.632000000378D1,1.632000000378D1,1D0,1D0,        253P    425
1D0,1D0,2.7D-1,-8.320000000076D0,-1.574434184080D1,-1.377D1,         253P    426
-8.320000000076D0,-7.638344061379D0,2.7D-1,8.320000003780D0,         253P    427
-1.574434184080D1,-1.377D1,8.320000003780D0,-7.638344061379D0,       253P    428
-3.117691453624D-1,1.590022641348D1,-3.200000000765D-1,              253P    429
1.632000000378D1;                                                    253P    430
508,6,0,171,15,1,0,0,171,16,1,0,0,171,24,0,0,0,171,40,0,0,0,171,     255P    431
39,0,0,0,171,23,1,0;                                                 255P    432
510,253,1,0,255;                                                     257P    433
128,1,1,1,1,0,0,1,0,0,-3.117691453624D-1,-3.117691453624D-1,         259P    434
1.590022641348D1,1.590022641348D1,-3.200000001639D-1,                259P    435
-3.200000001639D-1,1.632000000411D1,1.632000000411D1,1D0,1D0,        259P    436
1D0,1D0,-1.35D1,-8.320000000164D0,-8.105997779422D0,-1.35D1,         259P    437
-8.320000000164D0,8.105997779422D0,-1.35D1,8.320000004109D0,         259P    438
-8.105997779422D0,-1.35D1,8.320000004109D0,8.105997779422D0,         259P    439
-3.117691453624D-1,1.590022641348D1,-3.200000001639D-1,              259P    440
1.632000000411D1;                                                    259P    441
508,6,0,171,17,1,0,0,171,18,1,0,0,171,19,0,0,0,171,42,0,0,0,171,     261P    442
41,0,0,0,171,24,1,0;                                                 261P    443
510,259,1,0,261;                                                     263P    444
110,0D0,1.579422863406D1,0D0,0D0,1.679422863406D1,0D0;               265P    445
110,1.563720150036D1,6.766086138457D0,0D0,1.345125576776D1,          267P    446
8.028142495603D0,0D0;                                                267P    447
120,265,267,-3.204424506661D0,6.283185304067D-2;                     269P    448
508,3,0,171,7,0,0,0,171,18,0,0,0,171,4,1,0;                          271P    449
510,269,1,0,271;                                                     273P    450
110,0D0,1.579422863406D1,0D0,0D0,1.679422863406D1,0D0;               275P    451
110,1.563720150036D1,6.766086138457D0,0D0,1.345125576776D1,          277P    452
8.028142495603D0,0D0;                                                277P    453
120,275,277,-3.204424506661D0,6.283185304067D-2;                     279P    454
508,3,0,171,9,0,0,0,171,8,0,0,0,171,5,1,0;                           281P    455
510,279,1,0,281;                                                     283P    456
110,0D0,1.579422863406D1,0D0,0D0,1.679422863406D1,0D0;               285P    457
110,1.563720150036D1,6.766086138457D0,0D0,1.345125576776D1,          287P    458
8.028142495603D0,0D0;                                                287P    459
120,285,287,-3.204424506661D0,6.283185304067D-2;                     289P    460
508,3,0,171,12,0,0,0,171,10,0,0,0,171,6,1,0;                         291P    461
510,289,1,0,291;                                                     293P    462
128,1,1,1,1,0,0,1,0,0,-3.117691453624D-1,-3.117691453624D-1,         295P    463
1.590022641348D1,1.590022641348D1,-3.200000000024D-1,                295P    464
-3.200000000024D-1,1.632D1,1.632D1,1D0,1D0,1D0,1D0,-1.377D1,         295P    465
-8.320000000002D0,7.638344061379D0,2.7D-1,-8.320000000002D0,         295P    466
1.574434184080D1,-1.377D1,8.320000000002D0,7.638344061379D0,         295P    467
2.7D-1,8.320000000002D0,1.574434184080D1,-3.117691453624D-1,         295P    468
1.590022641348D1,-3.200000000024D-1,1.632D1;                         295P    469
508,6,0,171,7,1,0,0,171,8,1,0,0,171,20,0,0,0,171,32,0,0,0,171,       297P    470
31,0,0,0,171,19,1,0;                                                 297P    471
510,295,1,0,297;                                                     299P    472
128,1,1,1,1,0,0,1,0,0,-3.117691453624D-1,-3.117691453624D-1,         301P    473
1.590022641348D1,1.590022641348D1,-3.200000000024D-1,                301P    474
-3.200000000024D-1,1.632D1,1.632D1,1D0,1D0,1D0,1D0,-2.7D-1,          301P    475
-8.320000000002D0,1.574434184080D1,1.377D1,-8.320000000002D0,        301P    476
7.638344061379D0,-2.7D-1,8.320000000002D0,1.574434184080D1,          301P    477
1.377D1,8.320000000002D0,7.638344061379D0,-3.117691453624D-1,        301P    478
1.590022641348D1,-3.200000000024D-1,1.632D1;                         301P    479
508,6,0,171,9,1,0,0,171,10,1,0,0,171,21,0,0,0,171,34,0,0,0,171,      303P    480
33,0,0,0,171,20,1,0;                                                 303P    481
510,301,1,0,303;                                                     305P    482
110,0D0,-1.579422863406D1,0D0,0D0,-1.479422863406D1,0D0;             307P    483
110,1.345125576776D1,-8.028142495603D0,0D0,1.563720150036D1,         309P    484
-6.766086138457D0,0D0;                                               309P    485
120,307,309,-3.204424506662D0,6.283185307180D-2;                     311P    486
508,3,0,171,42,1,0,0,171,31,1,0,0,171,28,0,0;                        313P    487
510,311,1,0,313;                                                     315P    488
110,0D0,-1.579422863406D1,0D0,0D0,-1.479422863406D1,0D0;             317P    489
110,1.345125576776D1,-8.028142495603D0,0D0,1.563720150036D1,         319P    490
-6.766086138457D0,0D0;                                               319P    491
120,317,319,-3.204424506662D0,6.283185307180D-2;                     321P    492
508,3,0,171,32,1,0,0,171,33,1,0,0,171,29,0,0;                        323P    493
510,321,1,0,323;                                                     325P    494
110,0D0,-1.579422863406D1,0D0,0D0,-1.479422863406D1,0D0;             327P    495
110,1.345125576776D1,-8.028142495603D0,0D0,1.563720150036D1,         329P    496
-6.766086138457D0,0D0;                                               329P    497
120,327,329,-3.204424506662D0,6.283185307180D-2;                     331P    498
508,3,0,171,34,1,0,0,171,36,1,0,0,171,30,0,0;                        333P    499
510,331,1,0,333;                                                     335P    500
128,1,1,1,1,0,0,1,0,0,-1.404D1,-1.404D1,1.404D1,1.404D1,             337P    501
-1.404000002089D1,-1.404000002089D1,1.404000000043D1,                337P    502
1.404000000043D1,1D0,1D0,1D0,1D0,1.404000002089D1,8D0,1.404D1,       337P    503
1.404000002089D1,8D0,-1.404D1,-1.404000000043D1,8D0,1.404D1,         337P    504
-1.404000000043D1,8D0,-1.404D1,-1.404D1,1.404D1,                     337P    505
-1.404000002089D1,1.404000000043D1;                                  337P    506
508,6,0,171,1,0,0,0,171,6,0,0,0,171,5,0,0,0,171,4,0,0,0,171,3,0,     339P    507
0,0,171,2,0,0;                                                       339P    508
508,2,0,171,43,0,0,0,171,45,0,0;                                     341P    509
510,337,2,0,339,341;                                                 343P    510
110,0D0,2.659510009996D0,0D0,0D0,3.659510009996D0,0D0;               345P    511
110,0D0,7.105828827040D0,-7.701254511086D0,0D0,8.028145034253D0,     347P    512
-9.298753958093D0;                                                   347P    513
120,345,347,-1.633628184294D0,1.633628185111D0;                      349P    514
508,4,0,171,43,1,0,0,171,53,1,0,0,171,44,0,0,0,171,54,0,0;           351P    515
510,349,1,0,351;                                                     353P    516
110,0D0,2.659510009996D0,0D0,0D0,3.659510009996D0,0D0;               355P    517
110,0D0,7.105828827040D0,-7.701254511086D0,0D0,8.028145034253D0,     357P    518
-9.298753958093D0;                                                   357P    519
120,355,357,1.507964469296D0,4.775220838701D0;                       359P    520
508,4,0,171,45,1,0,0,171,54,1,0,0,171,46,0,0,0,171,53,0,0;           361P    521
510,359,1,0,361;                                                     363P    522
110,0D0,-1.048D1,0D0,0D0,-9.48D0,0D0;                                365P    523
110,7.75D0,-7.419355758729D0,0D0,7.75D0,7.419355758729D0,0D0;        367P    524
120,365,367,-3.204424506662D0,6.283185307180D-2;                     369P    525
508,4,0,171,46,1,0,0,171,52,0,0,0,171,48,1,0,0,171,51,1,0;           371P    526
510,369,1,0,371;                                                     373P    527
110,0D0,-1.048D1,0D0,0D0,-9.48D0,0D0;                                375P    528
110,7.75D0,-7.419355758729D0,0D0,7.75D0,7.419355758729D0,0D0;        377P    529
120,375,377,-6.283185307180D-2,3.204424506662D0;                     379P    530
508,4,0,171,44,1,0,0,171,51,0,0,0,171,50,1,0,0,171,52,1,0;           381P    531
510,379,1,0,381;                                                     383P    532
110,0D0,-2.659510009996D0,0D0,0D0,-3.659510009996D0,0D0;             385P    533
110,0D0,-7.105828827040D0,-7.701254511086D0,0D0,                     387P    534
-8.028145034253D0,-9.298753958093D0;                                 387P    535
120,385,387,-1.633628185111D0,1.633628184294D0;                      389P    536
508,4,0,171,49,1,0,0,171,56,1,0,0,171,50,0,0,0,171,55,0,0;           391P    537
510,389,1,0,391;                                                     393P    538
110,0D0,-2.659510009996D0,0D0,0D0,-3.659510009996D0,0D0;             395P    539
110,0D0,-7.105828827040D0,-7.701254511086D0,0D0,                     397P    540
-8.028145034253D0,-9.298753958093D0;                                 397P    541
120,395,397,-4.775220838701D0,-1.507964469296D0;                     399P    542
508,4,0,171,47,1,0,0,171,55,1,0,0,171,48,0,0,0,171,56,0,0;           401P    543
510,399,1,0,401;                                                     403P    544
514,26,179,0,189,1,199,1,209,1,215,1,225,1,235,1,245,1,251,1,        405P    545
257,1,263,1,273,1,283,1,293,1,299,1,305,1,315,1,325,1,335,1,343,     405P    546
1,353,0,363,0,373,0,383,0,393,0,403,0;                               405P    547
124,1D0,0D0,0D0,0D0,0D0,0D0,1D0,-8D0,0D0,-1D0,0D0,0D0;               407P    548
100,0D0,0D0,0D0,9D0,0D0,-9D0,0D0;                                    409P    549
124,-1D0,0D0,0D0,0D0,0D0,0D0,-1D0,8D0,0D0,-1D0,0D0,0D0;              411P    550
100,0D0,0D0,0D0,9D0,0D0,-9D0,0D0;                                    413P    551
124,-1D0,0D0,0D0,0D0,0D0,0D0,1D0,-8D0,0D0,1D0,0D0,0D0;               415P    552
100,0D0,0D0,0D0,9D0,0D0,-9D0,0D0;                                    417P    553
110,9D0,8D0,0D0,9D0,-8D0,0D0;                                        419P    554
124,1D0,0D0,0D0,0D0,0D0,0D0,-1D0,8D0,0D0,1D0,0D0,0D0;                421P    555
100,0D0,0D0,0D0,9D0,0D0,-9D0,0D0;                                    423P    556
110,-9D0,8D0,0D0,-9D0,-8D0,0D0;                                      425P    557
502,4,9D0,-8D0,0D0,-9D0,-8D0,0D0,9D0,8D0,0D0,-9D0,8D0,0D0;           427P    558
504,6,409,427,1,427,2,413,427,3,427,4,417,427,2,427,1,423,427,4,     429P    559
427,3,419,427,3,427,1,425,427,4,427,2;                               429P    560
110,0D0,-1.048D1,0D0,0D0,-9.48D0,0D0;                                431P    561
110,9D0,-8.32D0,0D0,9D0,8.32D0,0D0;                                  433P    562
120,431,433,-6.283185307180D-2,3.204424506662D0;                     435P    563
508,4,0,429,1,1,0,0,429,6,0,0,0,429,2,0,0,0,429,5,1,0;               437P    564
510,435,1,0,437;                                                     439P    565
110,0D0,-1.048D1,0D0,0D0,-9.48D0,0D0;                                441P    566
110,9D0,-8.32D0,0D0,9D0,8.32D0,0D0;                                  443P    567
120,441,443,-3.204424506662D0,6.283185307180D-2;                     445P    568
508,4,0,429,3,1,0,0,429,5,0,0,0,429,4,0,0,0,429,6,1,0;               447P    569
510,445,1,0,447;                                                     449P    570
514,2,439,0,449,0;                                                   451P    571
186,405,1,0;                                                         453P    572
S      1G      4D    454P    572                                        T      1
