 PTC IGES file: nut-m10-iso_4034.igs                                    S      1
1H,,1H;,16HNUT-M10-ISO_4034,20Hnut-m10-iso_4034.igs,                    G      1
49HPro/ENGINEER by Parametric Technology Corporation,7H2007160,32,38,7, G      2
38,15,16HNUT-M10-ISO_4034,1.,2,2HMM,32768,0.5,15H20111214.161432,       G      3
0.00276334,27.6345,13HVladimir Zima,7HUnknown,10,0,15H20111214.161432;  G      4
     314       1       1       1       0       0       0       001000200D      1
     314       0       4       1       0                   COLOR       1D      2
     314       2       1       1       0       0       0       001000200D      3
     314       0       1       1       0                   COLOR       2D      4
     314       3       1       1       0       0       0       001000200D      5
     314       0       1       1       0                   COLOR       3D      6
     314       4       1       1       0       0       0       001000200D      7
     314       0       1       1       0                   COLOR       4D      8
     314       5       1       1       0       0       0       001000200D      9
     314       0       8       1       0                   COLOR       5D     10
     314       6       1       1       0       0       0       001000200D     11
     314       0       8       1       0                   COLOR       6D     12
     314       7       1       1       0       0       0       001000200D     13
     314       0       5       1       0                   COLOR       7D     14
     314       8       1       1       0       0       0       001000200D     15
     314       0       8       1       0                   COLOR       8D     16
     124       9       1       1       0       0       0       001000000D     17
     124       0       0       1       0                   XFORM       1D     18
     100      10       1       1       0       0      17       001010000D     19
     100       0       0       1       0                     ARC       1D     20
     124      11       1       1       0       0       0       001000000D     21
     124       0       0       2       0                   XFORM       2D     22
     100      13       1       1       0       0      21       001010000D     23
     100       0       0       1       0                     ARC       2D     24
     124      14       1       1       0       0       0       001000000D     25
     124       0       0       2       0                   XFORM       3D     26
     100      16       1       1       0       0      25       001010000D     27
     100       0       0       1       0                     ARC       3D     28
     124      17       1       1       0       0       0       001000000D     29
     124       0       0       1       0                   XFORM       4D     30
     100      18       1       1       0       0      29       001010000D     31
     100       0       0       1       0                     ARC       4D     32
     124      19       1       1       0       0       0       001000000D     33
     124       0       0       2       0                   XFORM       5D     34
     100      21       1       1       0       0      33       001010000D     35
     100       0       0       1       0                     ARC       5D     36
     124      22       1       1       0       0       0       001000000D     37
     124       0       0       2       0                   XFORM       6D     38
     100      24       1       1       0       0      37       001010000D     39
     100       0       0       1       0                     ARC       6D     40
     124      25       1       1       0       0       0       001000000D     41
     124       0       0       2       0                   XFORM       7D     42
     100      27       1       1       0       0      41       001010000D     43
     100       0       0       1       0                     ARC       7D     44
     124      28       1       1       0       0       0       001000000D     45
     124       0       0       2       0                   XFORM       8D     46
     100      30       1       1       0       0      45       001010000D     47
     100       0       0       1       0                     ARC       8D     48
     126      31       1       1       0       0       0       001010000D     49
     126       0       0       9       0                B_SPLINE       1D     50
     126      40       1       1       0       0       0       001010000D     51
     126       0       0       9       0                B_SPLINE       2D     52
     126      49       1       1       0       0       0       001010000D     53
     126       0       0       9       0                B_SPLINE       3D     54
     110      58       1       1       0       0       0       001010000D     55
     110       0       0       2       0                    LINE       1D     56
     126      60       1       1       0       0       0       001010000D     57
     126       0       0       9       0                B_SPLINE       4D     58
     126      69       1       1       0       0       0       001010000D     59
     126       0       0       9       0                B_SPLINE       5D     60
     126      78       1       1       0       0       0       001010000D     61
     126       0       0       9       0                B_SPLINE       6D     62
     126      87       1       1       0       0       0       001010000D     63
     126       0       0       9       0                B_SPLINE       7D     64
     126      96       1       1       0       0       0       001010000D     65
     126       0       0       9       0                B_SPLINE       8D     66
     110     105       1       1       0       0       0       001010000D     67
     110       0       0       2       0                    LINE       2D     68
     126     107       1       1       0       0       0       001010000D     69
     126       0       0       9       0                B_SPLINE       9D     70
     126     116       1       1       0       0       0       001010000D     71
     126       0       0       9       0                B_SPLINE      10D     72
     126     125       1       1       0       0       0       001010000D     73
     126       0       0       9       0                B_SPLINE      11D     74
     126     134       1       1       0       0       0       001010000D     75
     126       0       0       9       0                B_SPLINE      12D     76
     110     143       1       1       0       0       0       001010000D     77
     110       0       0       2       0                    LINE       3D     78
     126     145       1       1       0       0       0       001010000D     79
     126       0       0       9       0                B_SPLINE      13D     80
     126     154       1       1       0       0       0       001010000D     81
     126       0       0       9       0                B_SPLINE      14D     82
     126     163       1       1       0       0       0       001010000D     83
     126       0       0       9       0                B_SPLINE      15D     84
     126     172       1       1       0       0       0       001010000D     85
     126       0       0       9       0                B_SPLINE      16D     86
     110     181       1       1       0       0       0       001010000D     87
     110       0       0       2       0                    LINE       4D     88
     126     183       1       1       0       0       0       001010000D     89
     126       0       0       9       0                B_SPLINE      17D     90
     126     192       1       1       0       0       0       001010000D     91
     126       0       0       9       0                B_SPLINE      18D     92
     126     201       1       1       0       0       0       001010000D     93
     126       0       0       9       0                B_SPLINE      19D     94
     126     210       1       1       0       0       0       001010000D     95
     126       0       0       9       0                B_SPLINE      20D     96
     110     219       1       1       0       0       0       001010000D     97
     110       0       0       2       0                    LINE       5D     98
     126     221       1       1       0       0       0       001010000D     99
     126       0       0       9       0                B_SPLINE      21D    100
     126     230       1       1       0       0       0       001010000D    101
     126       0       0       9       0                B_SPLINE      22D    102
     126     239       1       1       0       0       0       001010000D    103
     126       0       0       9       0                B_SPLINE      23D    104
     126     248       1       1       0       0       0       001010000D    105
     126       0       0       9       0                B_SPLINE      24D    106
     110     257       1       1       0       0       0       001010000D    107
     110       0       0       2       0                    LINE       6D    108
     124     259       1       1       0       0       0       001000000D    109
     124       0       0       1       0                   XFORM       9D    110
     100     260       1       1       0       0     109       001010000D    111
     100       0       0       1       0                     ARC       9D    112
     124     261       1       1       0       0       0       001000000D    113
     124       0       0       2       0                   XFORM      10D    114
     100     263       1       1       0       0     113       001010000D    115
     100       0       0       1       0                     ARC      10D    116
     124     264       1       1       0       0       0       001000000D    117
     124       0       0       2       0                   XFORM      11D    118
     100     266       1       1       0       0     117       001010000D    119
     100       0       0       1       0                     ARC      11D    120
     124     267       1       1       0       0       0       001000000D    121
     124       0       0       1       0                   XFORM      12D    122
     100     268       1       1       0       0     121       001010000D    123
     100       0       0       1       0                     ARC      12D    124
     124     269       1       1       0       0       0       001000000D    125
     124       0       0       2       0                   XFORM      13D    126
     100     271       1       1       0       0     125       001010000D    127
     100       0       0       1       0                     ARC      13D    128
     124     272       1       1       0       0       0       001000000D    129
     124       0       0       2       0                   XFORM      14D    130
     100     274       1       1       0       0     129       001010000D    131
     100       0       0       1       0                     ARC      14D    132
     124     275       1       1       0       0       0       001000000D    133
     124       0       0       2       0                   XFORM      15D    134
     100     277       1       1       0       0     133       001010000D    135
     100       0       0       1       0                     ARC      15D    136
     124     278       1       1       0       0       0       001000000D    137
     124       0       0       2       0                   XFORM      16D    138
     100     280       1       1       0       0     137       001010000D    139
     100       0       0       1       0                     ARC      16D    140
     110     281       1       1       0       0       0       001010000D    141
     110       0       0       2       0                    LINE       7D    142
     110     283       1       1       0       0       0       001010000D    143
     110       0       0       2       0                    LINE       8D    144
     124     285       1       1       0       0       0       001000000D    145
     124       0       0       2       0                   XFORM      17D    146
     100     287       1       1       0       0     145       001010000D    147
     100       0       0       1       0                     ARC      17D    148
     110     288       1       1       0       0       0       001010000D    149
     110       0       0       2       0                    LINE       9D    150
     124     290       1       1       0       0       0       001000000D    151
     124       0       0       2       0                   XFORM      18D    152
     100     292       1       1       0       0     151       001010000D    153
     100       0       0       1       0                     ARC      18D    154
     110     293       1       1       0       0       0       001010000D    155
     110       0       0       2       0                    LINE      10D    156
     124     295       1       1       0       0       0       001000000D    157
     124       0       0       2       0                   XFORM      19D    158
     100     297       1       1       0       0     157       001010000D    159
     100       0       0       1       0                     ARC      19D    160
     124     298       1       1       0       0       0       001000000D    161
     124       0       0       2       0                   XFORM      20D    162
     100     300       1       1       0       0     161       001010000D    163
     100       0       0       1       0                     ARC      20D    164
     110     301       1       1       0       0       0       001010000D    165
     110       0       0       2       0                    LINE      11D    166
     110     303       1       1       0       0       0       001010000D    167
     110       0       0       2       0                    LINE      12D    168
     502     305       1       1       0       0       0       001010000D    169
     502       0       0      20       1                  VERTEX       1D    170
     504     325       1       1       0       0       0       000010001D    171
     504       0       0      16       1                    EDGE       1D    172
     128     341       1       1       0       0       0       001010000D    173
     128       0       0       6       0                  SPLSRF       1D    174
     508     347       1       1       0       0       0       001010000D    175
     508       0       0       2       1                EDGELOOP       1D    176
     508     349       1       1       0       0       0       001010000D    177
     508       0       0       1       1                EDGELOOP       2D    178
     510     350       1       1       0       0       0       000010000D    179
     510       0       0       1       1                    FACE       1D    180
     110     351       1       1       0       0       0       001010000D    181
     110       0       0       1       0                    LINE      13D    182
     110     352       1       1       0       0       0       001010000D    183
     110       0       0       2       0                    LINE      14D    184
     120     354       1       1       0       0       0       001010000D    185
     120       0       0       1       0                    SREV       1D    186
     508     355       1       1       0       0       0       001010000D    187
     508       0       0       1       1                EDGELOOP       3D    188
     510     356       1       1       0       0       0       000010000D    189
     510       0       0       1       1                    FACE       2D    190
     110     357       1       1       0       0       0       001010000D    191
     110       0       0       1       0                    LINE      15D    192
     110     358       1       1       0       0       0       001010000D    193
     110       0       0       2       0                    LINE      16D    194
     120     360       1       1       0       0       0       001010000D    195
     120       0       0       1       0                    SREV       2D    196
     508     361       1       1       0       0       0       001010000D    197
     508       0       0       1       1                EDGELOOP       4D    198
     510     362       1       1       0       0       0       000010000D    199
     510       0       0       1       1                    FACE       3D    200
     110     363       1       1       0       0       0       001010000D    201
     110       0       0       1       0                    LINE      17D    202
     110     364       1       1       0       0       0       001010000D    203
     110       0       0       2       0                    LINE      18D    204
     120     366       1       1       0       0       0       001010000D    205
     120       0       0       1       0                    SREV       3D    206
     508     367       1       1       0       0       0       001010000D    207
     508       0       0       1       1                EDGELOOP       5D    208
     510     368       1       1       0       0       0       000010000D    209
     510       0       0       1       1                    FACE       4D    210
     128     369       1       1       0       0       0       001010000D    211
     128       0       0       8       0                  SPLSRF       2D    212
     508     377       1       1       0       0       0       001010000D    213
     508       0       0       2       1                EDGELOOP       6D    214
     510     379       1       1       0       0       0       000010000D    215
     510       0       0       1       1                    FACE       5D    216
     110     380       1       1       0       0       0       001010000D    217
     110       0       0       1       0                    LINE      19D    218
     110     381       1       1       0       0       0       001010000D    219
     110       0       0       2       0                    LINE      20D    220
     120     383       1       1       0       0       0       001010000D    221
     120       0       0       1       0                    SREV       4D    222
     508     384       1       1       0       0       0       001010000D    223
     508       0       0       1       1                EDGELOOP       7D    224
     510     385       1       1       0       0       0       000010000D    225
     510       0       0       1       1                    FACE       6D    226
     110     386       1       1       0       0       0       001010000D    227
     110       0       0       1       0                    LINE      21D    228
     110     387       1       1       0       0       0       001010000D    229
     110       0       0       2       0                    LINE      22D    230
     120     389       1       1       0       0       0       001010000D    231
     120       0       0       1       0                    SREV       5D    232
     508     390       1       1       0       0       0       001010000D    233
     508       0       0       1       1                EDGELOOP       8D    234
     510     391       1       1       0       0       0       000010000D    235
     510       0       0       1       1                    FACE       7D    236
     110     392       1       1       0       0       0       001010000D    237
     110       0       0       1       0                    LINE      23D    238
     110     393       1       1       0       0       0       001010000D    239
     110       0       0       2       0                    LINE      24D    240
     120     395       1       1       0       0       0       001010000D    241
     120       0       0       1       0                    SREV       6D    242
     508     396       1       1       0       0       0       001010000D    243
     508       0       0       1       1                EDGELOOP       9D    244
     510     397       1       1       0       0       0       000010000D    245
     510       0       0       1       1                    FACE       8D    246
     128     398       1       1       0       0       0       001010000D    247
     128       0       0       8       0                  SPLSRF       3D    248
     508     406       1       1       0       0       0       001010000D    249
     508       0       0       2       1                EDGELOOP      10D    250
     510     408       1       1       0       0       0       000010000D    251
     510       0       0       1       1                    FACE       9D    252
     128     409       1       1       0       0       0       001010000D    253
     128       0       0       8       0                  SPLSRF       4D    254
     508     417       1       1       0       0       0       001010000D    255
     508       0       0       2       1                EDGELOOP      11D    256
     510     419       1       1       0       0       0       000010000D    257
     510       0       0       1       1                    FACE      10D    258
     128     420       1       1       0       0       0       001010000D    259
     128       0       0       8       0                  SPLSRF       5D    260
     508     428       1       1       0       0       0       001010000D    261
     508       0       0       2       1                EDGELOOP      12D    262
     510     430       1       1       0       0       0       000010000D    263
     510       0       0       1       1                    FACE      11D    264
     110     431       1       1       0       0       0       001010000D    265
     110       0       0       1       0                    LINE      25D    266
     110     432       1       1       0       0       0       001010000D    267
     110       0       0       2       0                    LINE      26D    268
     120     434       1       1       0       0       0       001010000D    269
     120       0       0       1       0                    SREV       7D    270
     508     435       1       1       0       0       0       001010000D    271
     508       0       0       1       1                EDGELOOP      13D    272
     510     436       1       1       0       0       0       000010000D    273
     510       0       0       1       1                    FACE      12D    274
     110     437       1       1       0       0       0       001010000D    275
     110       0       0       1       0                    LINE      27D    276
     110     438       1       1       0       0       0       001010000D    277
     110       0       0       2       0                    LINE      28D    278
     120     440       1       1       0       0       0       001010000D    279
     120       0       0       1       0                    SREV       8D    280
     508     441       1       1       0       0       0       001010000D    281
     508       0       0       1       1                EDGELOOP      14D    282
     510     442       1       1       0       0       0       000010000D    283
     510       0       0       1       1                    FACE      13D    284
     110     443       1       1       0       0       0       001010000D    285
     110       0       0       1       0                    LINE      29D    286
     110     444       1       1       0       0       0       001010000D    287
     110       0       0       2       0                    LINE      30D    288
     120     446       1       1       0       0       0       001010000D    289
     120       0       0       1       0                    SREV       9D    290
     508     447       1       1       0       0       0       001010000D    291
     508       0       0       1       1                EDGELOOP      15D    292
     510     448       1       1       0       0       0       000010000D    293
     510       0       0       1       1                    FACE      14D    294
     128     449       1       1       0       0       0       001010000D    295
     128       0       0       8       0                  SPLSRF       6D    296
     508     457       1       1       0       0       0       001010000D    297
     508       0       0       2       1                EDGELOOP      16D    298
     510     459       1       1       0       0       0       000010000D    299
     510       0       0       1       1                    FACE      15D    300
     128     460       1       1       0       0       0       001010000D    301
     128       0       0       8       0                  SPLSRF       7D    302
     508     468       1       1       0       0       0       001010000D    303
     508       0       0       2       1                EDGELOOP      17D    304
     510     470       1       1       0       0       0       000010000D    305
     510       0       0       1       1                    FACE      16D    306
     110     471       1       1       0       0       0       001010000D    307
     110       0       0       1       0                    LINE      31D    308
     110     472       1       1       0       0       0       001010000D    309
     110       0       0       2       0                    LINE      32D    310
     120     474       1       1       0       0       0       001010000D    311
     120       0       0       1       0                    SREV      10D    312
     508     475       1       1       0       0       0       001010000D    313
     508       0       0       1       1                EDGELOOP      18D    314
     510     476       1       1       0       0       0       000010000D    315
     510       0       0       1       1                    FACE      17D    316
     110     477       1       1       0       0       0       001010000D    317
     110       0       0       1       0                    LINE      33D    318
     110     478       1       1       0       0       0       001010000D    319
     110       0       0       2       0                    LINE      34D    320
     120     480       1       1       0       0       0       001010000D    321
     120       0       0       1       0                    SREV      11D    322
     508     481       1       1       0       0       0       001010000D    323
     508       0       0       1       1                EDGELOOP      19D    324
     510     482       1       1       0       0       0       000010000D    325
     510       0       0       1       1                    FACE      18D    326
     110     483       1       1       0       0       0       001010000D    327
     110       0       0       1       0                    LINE      35D    328
     110     484       1       1       0       0       0       001010000D    329
     110       0       0       2       0                    LINE      36D    330
     120     486       1       1       0       0       0       001010000D    331
     120       0       0       1       0                    SREV      12D    332
     508     487       1       1       0       0       0       001010000D    333
     508       0       0       1       1                EDGELOOP      20D    334
     510     488       1       1       0       0       0       000010000D    335
     510       0       0       1       1                    FACE      19D    336
     128     489       1       1       0       0       0       001010000D    337
     128       0       0       6       0                  SPLSRF       8D    338
     508     495       1       1       0       0       0       001010000D    339
     508       0       0       2       1                EDGELOOP      21D    340
     508     497       1       1       0       0       0       001010000D    341
     508       0       0       1       1                EDGELOOP      22D    342
     510     498       1       1       0       0       0       000010000D    343
     510       0       0       1       1                    FACE      20D    344
     110     499       1       1       0       0       0       001010000D    345
     110       0       0       1       0                    LINE      37D    346
     110     500       1       1       0       0       0       001010000D    347
     110       0       0       2       0                    LINE      38D    348
     120     502       1       1       0       0       0       001010000D    349
     120       0       0       1       0                    SREV      13D    350
     508     503       1       1       0       0       0       001010000D    351
     508       0       0       1       1                EDGELOOP      23D    352
     510     504       1       1       0       0       0       000010000D    353
     510       0       0       1       1                    FACE      21D    354
     110     505       1       1       0       0       0       001010000D    355
     110       0       0       1       0                    LINE      39D    356
     110     506       1       1       0       0       0       001010000D    357
     110       0       0       2       0                    LINE      40D    358
     120     508       1       1       0       0       0       001010000D    359
     120       0       0       1       0                    SREV      14D    360
     508     509       1       1       0       0       0       001010000D    361
     508       0       0       1       1                EDGELOOP      24D    362
     510     510       1       1       0       0       0       000010000D    363
     510       0       0       1       1                    FACE      22D    364
     110     511       1       1       0       0       0       001010000D    365
     110       0       0       1       0                    LINE      41D    366
     110     512       1       1       0       0       0       001010000D    367
     110       0       0       1       0                    LINE      42D    368
     120     513       1       1       0       0       0       001010000D    369
     120       0       0       1       0                    SREV      15D    370
     508     514       1       1       0       0       0       001010000D    371
     508       0       0       1       1                EDGELOOP      25D    372
     510     515       1       1       0       0       0       000010000D    373
     510       0       0       1       1                    FACE      23D    374
     110     516       1       1       0       0       0       001010000D    375
     110       0       0       1       0                    LINE      43D    376
     110     517       1       1       0       0       0       001010000D    377
     110       0       0       1       0                    LINE      44D    378
     120     518       1       1       0       0       0       001010000D    379
     120       0       0       1       0                    SREV      16D    380
     508     519       1       1       0       0       0       001010000D    381
     508       0       0       1       1                EDGELOOP      26D    382
     510     520       1       1       0       0       0       000010000D    383
     510       0       0       1       1                    FACE      24D    384
     110     521       1       1       0       0       0       001010000D    385
     110       0       0       1       0                    LINE      45D    386
     110     522       1       1       0       0       0       001010000D    387
     110       0       0       2       0                    LINE      46D    388
     120     524       1       1       0       0       0       001010000D    389
     120       0       0       1       0                    SREV      17D    390
     508     525       1       1       0       0       0       001010000D    391
     508       0       0       1       1                EDGELOOP      27D    392
     510     526       1       1       0       0       0       000010000D    393
     510       0       0       1       1                    FACE      25D    394
     110     527       1       1       0       0       0       001010000D    395
     110       0       0       1       0                    LINE      47D    396
     110     528       1       1       0       0       0       001010000D    397
     110       0       0       2       0                    LINE      48D    398
     120     530       1       1       0       0       0       001010000D    399
     120       0       0       1       0                    SREV      18D    400
     508     531       1       1       0       0       0       001010000D    401
     508       0       0       1       1                EDGELOOP      28D    402
     510     532       1       1       0       0       0       000010000D    403
     510       0       0       1       1                    FACE      26D    404
     514     533       1       1       0       0       0       000010000D    405
     514       0       0       3       1                   SHELL       1D    406
     124     536       1       1       0       0       0       001000000D    407
     124       0       0       1       0                   XFORM      21D    408
     100     537       1       1       0       0     407       001010000D    409
     100       0       0       1       0                     ARC      21D    410
     124     538       1       1       0       0       0       001000000D    411
     124       0       0       1       0                   XFORM      22D    412
     100     539       1       1       0       0     411       001010000D    413
     100       0       0       1       0                     ARC      22D    414
     124     540       1       1       0       0       0       001000000D    415
     124       0       0       1       0                   XFORM      23D    416
     100     541       1       1       0       0     415       001010000D    417
     100       0       0       1       0                     ARC      23D    418
     110     542       1       1       0       0       0       001010000D    419
     110       0       0       1       0                    LINE      49D    420
     124     543       1       1       0       0       0       001000000D    421
     124       0       0       1       0                   XFORM      24D    422
     100     544       1       1       0       0     421       001010000D    423
     100       0       0       1       0                     ARC      24D    424
     110     545       1       1       0       0       0       001010000D    425
     110       0       0       1       0                    LINE      50D    426
     502     546       1       1       0       0       0       001010000D    427
     502       0       0       2       1                  VERTEX       2D    428
     504     548       1       1       0       0       0       000010001D    429
     504       0       0       2       1                    EDGE       2D    430
     110     550       1       1       0       0       0       001010000D    431
     110       0       0       1       0                    LINE      51D    432
     110     551       1       1       0       0       0       001010000D    433
     110       0       0       1       0                    LINE      52D    434
     120     552       1       1       0       0       0       001010000D    435
     120       0       0       1       0                    SREV      19D    436
     508     553       1       1       0       0       0       001010000D    437
     508       0       0       1       1                EDGELOOP      29D    438
     510     554       1       1       0       0       0       000010000D    439
     510       0       0       1       1                    FACE      27D    440
     110     555       1       1       0       0       0       001010000D    441
     110       0       0       1       0                    LINE      53D    442
     110     556       1       1       0       0       0       001010000D    443
     110       0       0       1       0                    LINE      54D    444
     120     557       1       1       0       0       0       001010000D    445
     120       0       0       1       0                    SREV      20D    446
     508     558       1       1       0       0       0       001010000D    447
     508       0       0       1       1                EDGELOOP      30D    448
     510     559       1       1       0       0       0       000010000D    449
     510       0       0       1       1                    FACE      28D    450
     514     560       1       1       0       0       0       000000000D    451
     514       0       0       1       1                   SHELL       2D    452
     186     561       1       1       0       0       0       000000000D    453
     186       0       0       1       0                    MSBR       1D    454
314,1.1D0,1.2D0,1D2;                                                   1P      1
314,1.1D1,1.1D1,1.1D1;                                                 3P      2
314,3.92D1,1.2D0,1.2D0;                                                5P      3
314,4.1D1,0D0,2.2D1;                                                   7P      4
314,8.784D1,9.49D1,1D2;                                                9P      5
314,9.6D1,9.6D1,9.6D1;                                                11P      6
314,9.8D1,6.27D1,0D0;                                                 13P      7
314,1D2,1D2,9.49D1;                                                   15P      8
124,1D0,0D0,0D0,0D0,0D0,0D0,1D0,-4.5D0,0D0,-1D0,0D0,0D0;              17P      9
100,0D0,0D0,0D0,8D0,0D0,4.000000000051D0,6.928203230246D0;            19P     10
124,5.000000000063D-1,-8.660254037808D-1,0D0,0D0,0D0,0D0,1D0,         21P     11
-4.5D0,-8.660254037808D-1,-5.000000000063D-1,0D0,0D0;                 21P     12
100,0D0,0D0,0D0,8D0,0D0,4.000000000013D0,6.928203230268D0;            23P     13
124,-4.999999999921D-1,-8.660254037890D-1,0D0,0D0,0D0,0D0,1D0,        25P     14
-4.5D0,-8.660254037890D-1,4.999999999921D-1,0D0,0D0;                  25P     15
100,0D0,0D0,0D0,8D0,0D0,3.999999999937D0,6.928203230312D0;            27P     16
124,-1D0,0D0,0D0,0D0,0D0,0D0,1D0,-4.5D0,0D0,1D0,0D0,0D0;              29P     17
100,0D0,0D0,0D0,8D0,0D0,4.000000000051D0,6.928203230246D0;            31P     18
124,-5.000000000063D-1,8.660254037808D-1,0D0,0D0,0D0,0D0,1D0,         33P     19
-4.5D0,8.660254037808D-1,5.000000000063D-1,0D0,0D0;                   33P     20
100,0D0,0D0,0D0,8D0,0D0,4.000000000013D0,6.928203230268D0;            35P     21
124,4.999999999921D-1,8.660254037890D-1,0D0,0D0,0D0,0D0,1D0,          37P     22
-4.5D0,8.660254037890D-1,-4.999999999921D-1,0D0,0D0;                  37P     23
100,0D0,0D0,0D0,8D0,0D0,3.999999999937D0,6.928203230312D0;            39P     24
124,-1D0,0D0,0D0,0D0,0D0,0D0,1D0,-4.499997744986D0,0D0,1D0,0D0,       41P     25
0D0;                                                                  41P     26
100,0D0,0D0,0D0,5.249999188645D0,0D0,-5.249999188645D0,0D0;           43P     27
124,1D0,0D0,0D0,0D0,0D0,0D0,1D0,-4.499997744986D0,0D0,-1D0,0D0,       45P     28
0D0;                                                                  45P     29
100,0D0,0D0,0D0,5.249999188645D0,0D0,-5.249999188645D0,0D0;           47P     30
126,7,3,0,0,1,0,0D0,0D0,0D0,0D0,2D-1,4D-1,6D-1,8D-1,1D0,1D0,1D0,      49P     31
1D0,1D0,1D0,1D0,1D0,1D0,1D0,1D0,1D0,8.000000000002D0,                 49P     32
4.500000000012D0,3.671780053416D-10,8.000000000002D0,                 49P     33
4.500000000012D0,-3.051369882375D-1,7.999999999999D0,                 49P     34
4.479759287404D0,-9.149198950793D-1,8D0,4.390356871565D0,             49P     35
-1.827178941450D0,8D0,4.245124056615D0,-2.739852076080D0,8D0,         49P     36
4.047687482551D0,-3.659177433395D0,8D0,3.878670323365D0,              49P     37
-4.295942675812D0,8D0,3.785468820184D0,-4.618802153517D0,0D0,         49P     38
1D0,0D0,0D0,1D0;                                                      49P     39
126,7,3,0,0,1,0,0D0,0D0,0D0,0D0,2D-1,4D-1,6D-1,8D-1,1D0,1D0,1D0,      51P     40
1D0,1D0,1D0,1D0,1D0,1D0,1D0,1D0,1D0,8.000000000002D0,                 51P     41
-4.500000000012D0,-1.346573664128D-12,8.000000000002D0,               51P     42
-4.500000000012D0,-3.051369886060D-1,7.999999999999D0,                51P     43
-4.479759287404D0,-9.149198949082D-1,8D0,-4.390356871565D0,           51P     44
-1.827178941496D0,8D0,-4.245124056615D0,-2.739852076068D0,8D0,        51P     45
-4.047687482551D0,-3.659177433399D0,8D0,-3.878670323365D0,            51P     46
-4.295942675812D0,8D0,-3.785468820184D0,-4.618802153517D0,0D0,        51P     47
1D0,0D0,0D0,1D0;                                                      51P     48
126,7,3,0,0,1,0,0D0,0D0,0D0,0D0,2D-1,4D-1,6D-1,8D-1,1D0,1D0,1D0,      53P     49
1D0,1D0,1D0,1D0,1D0,1D0,1D0,1D0,1D0,8D0,-3.785468820184D0,            53P     50
4.618802153517D0,8D0,-3.879559002453D0,4.292864201150D0,8D0,          53P     51
-4.049648520400D0,3.651360133190D0,8D0,-4.246976010166D0,             53P     52
2.730010692977D0,8D0,-4.391415945935D0,1.818552281184D0,              53P     53
7.999999999999D0,-4.479988539245D0,9.100220725862D-1,                 53P     54
8.000000000002D0,-4.500000000012D0,3.033426191685D-1,                 53P     55
8.000000000002D0,-4.500000000012D0,-1.346573664128D-12,0D0,1D0,       53P     56
0D0,0D0,1D0;                                                          53P     57
110,8D0,-3.785468820184D0,4.618802153517D0,8D0,3.785468820184D0,      55P     58
4.618802153517D0;                                                     55P     59
126,7,3,0,0,1,0,0D0,0D0,0D0,0D0,2D-1,4D-1,6D-1,8D-1,1D0,1D0,1D0,      57P     60
1D0,1D0,1D0,1D0,1D0,1D0,1D0,1D0,1D0,8D0,3.785468820184D0,             57P     61
4.618802153517D0,8D0,3.879559002453D0,4.292864201150D0,8D0,           57P     62
4.049648520400D0,3.651360133194D0,8D0,4.246976010167D0,               57P     63
2.730010692965D0,8D0,4.391415945931D0,1.818552281229D0,               57P     64
7.999999999999D0,4.479988539260D0,9.100220724152D-1,                  57P     65
8.000000000002D0,4.499999999980D0,3.033426195370D-1,                  57P     66
8.000000000002D0,4.500000000012D0,3.671780053416D-10,0D0,1D0,         57P     67
0D0,0D0,1D0;                                                          57P     68
126,7,3,0,0,1,0,0D0,0D0,0D0,0D0,2D-1,4D-1,6D-1,8D-1,1D0,1D0,1D0,      59P     69
1D0,1D0,1D0,1D0,1D0,1D0,1D0,1D0,1D0,8D0,3.785468820184D0,             59P     70
-4.618802153517D0,7.715547918929D0,3.880286180541D0,                  59P     71
-4.783030639095D0,7.156622860868D0,4.051253855474D0,                  59P     72
-5.105726171823D0,6.357231031129D0,4.248499950177D0,                  59P     73
-5.567255259911D0,5.568694272081D0,4.392294426386D0,                  59P     74
-6.022517170014D0,4.784576990392D0,4.480177740001D0,                  59P     75
-6.475227493672D0,4.261409045687D0,4.5D0,-6.777278647381D0,           59P     76
4.000000000022D0,4.5D0,-6.928203230264D0,0D0,1D0,0D0,0D0,1D0;         59P     77
126,7,3,0,0,1,0,0D0,0D0,0D0,0D0,2D-1,4D-1,6D-1,8D-1,1D0,1D0,1D0,      61P     78
1D0,1D0,1D0,1D0,1D0,1D0,1D0,1D0,1D0,4.000000000022D0,4.5D0,           61P     79
-6.928203230264D0,3.738522473987D0,4.5D0,-7.079167350307D0,           61P     80
3.215243102712D0,4.480166724119D0,-7.381282836173D0,                  61P     81
2.431051535741D0,4.392258973901D0,-7.834036048460D0,                  61P     82
1.642484551055D0,4.248434614127D0,-8.289315409342D0,                  61P     83
8.434103097859D-1,4.051258678823D0,-8.750661137642D0,                 61P     84
2.844739245593D-1,3.880293461703D0,-9.073363210112D0,0D0,             61P     85
3.785468820184D0,-9.237604307034D0,0D0,1D0,0D0,0D0,1D0;               61P     86
126,7,3,0,0,1,0,0D0,0D0,0D0,0D0,2D-1,4D-1,6D-1,8D-1,1D0,1D0,1D0,      63P     87
1D0,1D0,1D0,1D0,1D0,1D0,1D0,1D0,1D0,4.000000000022D0,-4.5D0,          63P     88
-6.928203230264D0,3.738522473987D0,-4.5D0,-7.079167350307D0,          63P     89
3.215243102712D0,-4.480166724119D0,-7.381282836173D0,                 63P     90
2.431051535741D0,-4.392258973901D0,-7.834036048460D0,                 63P     91
1.642484551055D0,-4.248434614127D0,-8.289315409342D0,                 63P     92
8.434103097859D-1,-4.051258678823D0,-8.750661137642D0,                63P     93
2.844739245593D-1,-3.880293461703D0,-9.073363210112D0,0D0,            63P     94
-3.785468820184D0,-9.237604307034D0,0D0,1D0,0D0,0D0,1D0;              63P     95
126,7,3,0,0,1,0,0D0,0D0,0D0,0D0,2D-1,4D-1,6D-1,8D-1,1D0,1D0,1D0,      65P     96
1D0,1D0,1D0,1D0,1D0,1D0,1D0,1D0,1D0,8D0,-3.785468820184D0,            65P     97
-4.618802153517D0,7.715547918929D0,-3.880286180541D0,                 65P     98
-4.783030639095D0,7.156622860868D0,-4.051253855474D0,                 65P     99
-5.105726171823D0,6.357231031129D0,-4.248499950177D0,                 65P    100
-5.567255259911D0,5.568694272081D0,-4.392294426386D0,                 65P    101
-6.022517170014D0,4.784576990392D0,-4.480177740001D0,                 65P    102
-6.475227493672D0,4.261409045687D0,-4.5D0,-6.777278647381D0,          65P    103
4.000000000022D0,-4.5D0,-6.928203230264D0,0D0,1D0,0D0,0D0,1D0;        65P    104
110,8D0,-3.785468820184D0,-4.618802153517D0,8D0,                      67P    105
3.785468820184D0,-4.618802153517D0;                                   67P    106
126,7,3,0,0,1,0,0D0,0D0,0D0,0D0,2D-1,4D-1,6D-1,8D-1,1D0,1D0,1D0,      69P    107
1D0,1D0,1D0,1D0,1D0,1D0,1D0,1D0,1D0,0D0,3.785468820184D0,             69P    108
-9.237604307034D0,-2.844520810707D-1,3.880286180541D0,                69P    109
-9.073375821456D0,-8.433771391321D-1,4.051253855474D0,                69P    110
-8.750680288728D0,-1.642768968871D0,4.248499950177D0,                 69P    111
-8.289151200640D0,-2.431305727919D0,4.392294426386D0,                 69P    112
-7.833889290538D0,-3.215423009609D0,4.480177740001D0,                 69P    113
-7.381178966877D0,-3.738590954311D0,4.5D0,-7.079127813174D0,          69P    114
-3.999999999976D0,4.5D0,-6.928203230291D0,0D0,1D0,0D0,0D0,1D0;        69P    115
126,7,3,0,0,1,0,0D0,0D0,0D0,0D0,2D-1,4D-1,6D-1,8D-1,1D0,1D0,1D0,      71P    116
1D0,1D0,1D0,1D0,1D0,1D0,1D0,1D0,1D0,-3.999999999976D0,4.5D0,          71P    117
-6.928203230291D0,-4.261477526011D0,4.5D0,-6.777239110247D0,          71P    118
-4.784756897289D0,4.480166724119D0,-6.475123624376D0,                 71P    119
-5.568948464259D0,4.392258973901D0,-6.022370412091D0,                 71P    120
-6.357515448945D0,4.248434614127D0,-5.567091051208D0,                 71P    121
-7.156589690214D0,4.051258678823D0,-5.105745322909D0,                 71P    122
-7.715526075441D0,3.880293461703D0,-4.783043250439D0,-8D0,            71P    123
3.785468820184D0,-4.618802153517D0,0D0,1D0,0D0,0D0,1D0;               71P    124
126,7,3,0,0,1,0,0D0,0D0,0D0,0D0,2D-1,4D-1,6D-1,8D-1,1D0,1D0,1D0,      73P    125
1D0,1D0,1D0,1D0,1D0,1D0,1D0,1D0,1D0,-3.999999999976D0,-4.5D0,         73P    126
-6.928203230291D0,-4.261477526011D0,-4.5D0,-6.777239110247D0,         73P    127
-4.784756897289D0,-4.480166724119D0,-6.475123624376D0,                73P    128
-5.568948464259D0,-4.392258973901D0,-6.022370412091D0,                73P    129
-6.357515448945D0,-4.248434614127D0,-5.567091051208D0,                73P    130
-7.156589690214D0,-4.051258678823D0,-5.105745322909D0,                73P    131
-7.715526075441D0,-3.880293461703D0,-4.783043250439D0,-8D0,           73P    132
-3.785468820184D0,-4.618802153517D0,0D0,1D0,0D0,0D0,1D0;              73P    133
126,7,3,0,0,1,0,0D0,0D0,0D0,0D0,2D-1,4D-1,6D-1,8D-1,1D0,1D0,1D0,      75P    134
1D0,1D0,1D0,1D0,1D0,1D0,1D0,1D0,1D0,0D0,-3.785468820184D0,            75P    135
-9.237604307034D0,-2.844520810707D-1,-3.880286180541D0,               75P    136
-9.073375821456D0,-8.433771391321D-1,-4.051253855474D0,               75P    137
-8.750680288728D0,-1.642768968871D0,-4.248499950177D0,                75P    138
-8.289151200640D0,-2.431305727919D0,-4.392294426386D0,                75P    139
-7.833889290538D0,-3.215423009609D0,-4.480177740001D0,                75P    140
-7.381178966877D0,-3.738590954311D0,-4.5D0,-7.079127813174D0,         75P    141
-3.999999999976D0,-4.5D0,-6.928203230291D0,0D0,1D0,0D0,0D0,1D0;       75P    142
110,0D0,-3.785468820184D0,-9.237604307034D0,0D0,                      77P    143
3.785468820184D0,-9.237604307034D0;                                   77P    144
126,7,3,0,0,1,0,0D0,0D0,0D0,0D0,2D-1,4D-1,6D-1,8D-1,1D0,1D0,1D0,      79P    145
1D0,1D0,1D0,1D0,1D0,1D0,1D0,1D0,1D0,-8D0,3.785468820184D0,            79P    146
-4.618802153517D0,-8D0,3.879559000523D0,-4.292864207833D0,-8D0,       79P    147
4.049648515305D0,-3.651360153029D0,-8D0,4.246976002656D0,             79P    148
-2.730010731125D0,-8D0,4.391415938162D0,-1.818552338744D0,            79P    149
-7.999999999999D0,4.479988534042D0,-9.100221463900D-1,                79P    150
-8.000000000002D0,4.499999997514D0,-3.033427123794D-1,                79P    151
-8.000000000002D0,4.500000001704D0,-4.362043437567D-8,0D0,1D0,        79P    152
0D0,0D0,1D0;                                                          79P    153
126,7,3,0,0,1,0,0D0,0D0,0D0,0D0,2D-1,4D-1,6D-1,8D-1,1D0,1D0,1D0,      81P    154
1D0,1D0,1D0,1D0,1D0,1D0,1D0,1D0,1D0,-8.000000000002D0,                81P    155
4.500000001704D0,-4.362043437567D-8,-8.000000000002D0,                81P    156
4.500000001704D0,3.051369847023D-1,-7.999999999999D0,                 81P    157
4.479759279127D0,9.149200338188D-1,-8D0,4.390356863014D0,             81P    158
1.827178994691D0,-8D0,4.245124047685D0,2.739852124278D0,-8D0,         81P    159
4.047687476684D0,3.659177455297D0,-8D0,3.878670321136D0,              81P    160
4.295942683536D0,-8D0,3.785468820184D0,4.618802153517D0,0D0,1D0,      81P    161
0D0,0D0,1D0;                                                          81P    162
126,7,3,0,0,1,0,0D0,0D0,0D0,0D0,2D-1,4D-1,6D-1,8D-1,1D0,1D0,1D0,      83P    163
1D0,1D0,1D0,1D0,1D0,1D0,1D0,1D0,1D0,-8.000000000002D0,                83P    164
-4.500000000012D0,1.338928967450D-12,-8.000000000002D0,               83P    165
-4.500000000012D0,3.051369886060D-1,-7.999999999999D0,                83P    166
-4.479759287404D0,9.149198949082D-1,-8D0,-4.390356871565D0,           83P    167
1.827178941496D0,-8D0,-4.245124056615D0,2.739852076068D0,-8D0,        83P    168
-4.047687482551D0,3.659177433399D0,-8D0,-3.878670323365D0,            83P    169
4.295942675812D0,-8D0,-3.785468820184D0,4.618802153517D0,0D0,         83P    170
1D0,0D0,0D0,1D0;                                                      83P    171
126,7,3,0,0,1,0,0D0,0D0,0D0,0D0,2D-1,4D-1,6D-1,8D-1,1D0,1D0,1D0,      85P    172
1D0,1D0,1D0,1D0,1D0,1D0,1D0,1D0,1D0,-8D0,-3.785468820184D0,           85P    173
-4.618802153517D0,-8D0,-3.879559002453D0,-4.292864201150D0,-8D0,      85P    174
-4.049648520400D0,-3.651360133190D0,-8D0,-4.246976010166D0,           85P    175
-2.730010692977D0,-8D0,-4.391415945935D0,-1.818552281184D0,           85P    176
-7.999999999999D0,-4.479988539245D0,-9.100220725862D-1,               85P    177
-8.000000000002D0,-4.500000000012D0,-3.033426191685D-1,               85P    178
-8.000000000002D0,-4.500000000012D0,1.338928967450D-12,0D0,1D0,       85P    179
0D0,0D0,1D0;                                                          85P    180
110,-8D0,-3.785468820184D0,-4.618802153517D0,-8D0,                    87P    181
3.785468820184D0,-4.618802153517D0;                                   87P    182
126,7,3,0,0,1,0,0D0,0D0,0D0,0D0,2D-1,4D-1,6D-1,8D-1,1D0,1D0,1D0,      89P    183
1D0,1D0,1D0,1D0,1D0,1D0,1D0,1D0,1D0,-8D0,3.785468820184D0,            89P    184
4.618802153517D0,-7.715547918929D0,3.880286180541D0,                  89P    185
4.783030639095D0,-7.156622860868D0,4.051253855474D0,                  89P    186
5.105726171823D0,-6.357231031129D0,4.248499950177D0,                  89P    187
5.567255259911D0,-5.568694272081D0,4.392294426386D0,                  89P    188
6.022517170014D0,-4.784576990392D0,4.480177740001D0,                  89P    189
6.475227493672D0,-4.261409045687D0,4.5D0,6.777278647381D0,            89P    190
-4.000000000022D0,4.5D0,6.928203230264D0,0D0,1D0,0D0,0D0,1D0;         89P    191
126,7,3,0,0,1,0,0D0,0D0,0D0,0D0,2D-1,4D-1,6D-1,8D-1,1D0,1D0,1D0,      91P    192
1D0,1D0,1D0,1D0,1D0,1D0,1D0,1D0,1D0,-4.000000000022D0,4.5D0,          91P    193
6.928203230264D0,-3.738522473987D0,4.5D0,7.079167350307D0,            91P    194
-3.215243102712D0,4.480166724119D0,7.381282836173D0,                  91P    195
-2.431051535741D0,4.392258973901D0,7.834036048460D0,                  91P    196
-1.642484551055D0,4.248434614127D0,8.289315409342D0,                  91P    197
-8.434103097859D-1,4.051258678823D0,8.750661137642D0,                 91P    198
-2.844739245593D-1,3.880293461703D0,9.073363210112D0,0D0,             91P    199
3.785468820184D0,9.237604307034D0,0D0,1D0,0D0,0D0,1D0;                91P    200
126,7,3,0,0,1,0,0D0,0D0,0D0,0D0,2D-1,4D-1,6D-1,8D-1,1D0,1D0,1D0,      93P    201
1D0,1D0,1D0,1D0,1D0,1D0,1D0,1D0,1D0,-4.000000000022D0,-4.5D0,         93P    202
6.928203230264D0,-3.738522473987D0,-4.5D0,7.079167350307D0,           93P    203
-3.215243102712D0,-4.480166724119D0,7.381282836173D0,                 93P    204
-2.431051535741D0,-4.392258973901D0,7.834036048460D0,                 93P    205
-1.642484551055D0,-4.248434614127D0,8.289315409342D0,                 93P    206
-8.434103097859D-1,-4.051258678823D0,8.750661137642D0,                93P    207
-2.844739245593D-1,-3.880293461703D0,9.073363210112D0,0D0,            93P    208
-3.785468820184D0,9.237604307034D0,0D0,1D0,0D0,0D0,1D0;               93P    209
126,7,3,0,0,1,0,0D0,0D0,0D0,0D0,2D-1,4D-1,6D-1,8D-1,1D0,1D0,1D0,      95P    210
1D0,1D0,1D0,1D0,1D0,1D0,1D0,1D0,1D0,-8D0,-3.785468820184D0,           95P    211
4.618802153517D0,-7.715547918929D0,-3.880286180541D0,                 95P    212
4.783030639095D0,-7.156622860868D0,-4.051253855474D0,                 95P    213
5.105726171823D0,-6.357231031129D0,-4.248499950177D0,                 95P    214
5.567255259911D0,-5.568694272081D0,-4.392294426386D0,                 95P    215
6.022517170014D0,-4.784576990392D0,-4.480177740001D0,                 95P    216
6.475227493672D0,-4.261409045687D0,-4.5D0,6.777278647381D0,           95P    217
-4.000000000022D0,-4.5D0,6.928203230264D0,0D0,1D0,0D0,0D0,1D0;        95P    218
110,-8D0,-3.785468820184D0,4.618802153517D0,-8D0,                     97P    219
3.785468820184D0,4.618802153517D0;                                    97P    220
126,7,3,0,0,1,0,0D0,0D0,0D0,0D0,2D-1,4D-1,6D-1,8D-1,1D0,1D0,1D0,      99P    221
1D0,1D0,1D0,1D0,1D0,1D0,1D0,1D0,1D0,0D0,3.785468820184D0,             99P    222
9.237604307034D0,2.844520810707D-1,3.880286180541D0,                  99P    223
9.073375821456D0,8.433771392984D-1,4.051253855474D0,                  99P    224
8.750680288646D0,1.642768968289D0,4.248499950177D0,                   99P    225
8.289151200927D0,2.431305730081D0,4.392294426386D0,                   99P    226
7.833889289471D0,3.215423001542D0,4.480177740001D0,                   99P    227
7.381178970857D0,3.738590971693D0,4.5D0,7.079127804600D0,             99P    228
4.000000017357D0,4.5D0,6.928203221716D0,0D0,1D0,0D0,0D0,1D0;          99P    229
126,7,3,0,0,1,0,0D0,0D0,0D0,0D0,2D-1,4D-1,6D-1,8D-1,1D0,1D0,1D0,     101P    230
1D0,1D0,1D0,1D0,1D0,1D0,1D0,1D0,1D0,4.000000017357D0,4.5D0,          101P    231
6.928203221716D0,4.261477543393D0,4.5D0,6.777239101673D0,            101P    232
4.784756889222D0,4.480166724119D0,6.475123628356D0,                  101P    233
5.568948466421D0,4.392258973901D0,6.022370411025D0,                  101P    234
6.357515448363D0,4.248434614127D0,5.567091051496D0,                  101P    235
7.156589690380D0,4.051258678823D0,5.105745322827D0,                  101P    236
7.715526075441D0,3.880293461703D0,4.783043250439D0,8D0,              101P    237
3.785468820184D0,4.618802153517D0,0D0,1D0,0D0,0D0,1D0;               101P    238
126,7,3,0,0,1,0,0D0,0D0,0D0,0D0,2D-1,4D-1,6D-1,8D-1,1D0,1D0,1D0,     103P    239
1D0,1D0,1D0,1D0,1D0,1D0,1D0,1D0,1D0,3.999999999976D0,-4.5D0,         103P    240
6.928203230291D0,4.261477526011D0,-4.5D0,6.777239110247D0,           103P    241
4.784756897289D0,-4.480166724119D0,6.475123624376D0,                 103P    242
5.568948464259D0,-4.392258973901D0,6.022370412091D0,                 103P    243
6.357515448945D0,-4.248434614127D0,5.567091051208D0,                 103P    244
7.156589690214D0,-4.051258678823D0,5.105745322909D0,                 103P    245
7.715526075441D0,-3.880293461703D0,4.783043250439D0,8D0,             103P    246
-3.785468820184D0,4.618802153517D0,0D0,1D0,0D0,0D0,1D0;              103P    247
126,7,3,0,0,1,0,0D0,0D0,0D0,0D0,2D-1,4D-1,6D-1,8D-1,1D0,1D0,1D0,     105P    248
1D0,1D0,1D0,1D0,1D0,1D0,1D0,1D0,1D0,0D0,-3.785468820184D0,           105P    249
9.237604307034D0,2.844520810707D-1,-3.880286180541D0,                105P    250
9.073375821456D0,8.433771391321D-1,-4.051253855474D0,                105P    251
8.750680288728D0,1.642768968871D0,-4.248499950177D0,                 105P    252
8.289151200640D0,2.431305727919D0,-4.392294426386D0,                 105P    253
7.833889290538D0,3.215423009609D0,-4.480177740001D0,                 105P    254
7.381178966877D0,3.738590954311D0,-4.5D0,7.079127813174D0,           105P    255
3.999999999976D0,-4.5D0,6.928203230291D0,0D0,1D0,0D0,0D0,1D0;        105P    256
110,0D0,-3.785468820184D0,9.237604307034D0,0D0,3.785468820184D0,     107P    257
9.237604307034D0;                                                    107P    258
124,1D0,0D0,0D0,0D0,0D0,0D0,1D0,4.5D0,0D0,-1D0,0D0,0D0;              109P    259
100,0D0,0D0,0D0,8D0,0D0,4.000000000051D0,6.928203230246D0;           111P    260
124,5.000000083667D-1,8.660253989539D-1,0D0,0D0,0D0,0D0,1D0,         113P    261
4.5D0,8.660253989539D-1,-5.000000083667D-1,0D0,0D0;                  113P    262
100,0D0,0D0,0D0,8D0,0D0,4.000000066934D0,6.928203191631D0;           115P    263
124,-5.000000000063D-1,8.660254037808D-1,0D0,0D0,0D0,0D0,1D0,        117P    264
4.5D0,8.660254037808D-1,5.000000000063D-1,0D0,0D0;                   117P    265
100,0D0,0D0,0D0,8D0,0D0,3.999999933016D0,6.928203268949D0;           119P    266
124,-1D0,0D0,0D0,0D0,0D0,0D0,1D0,4.5D0,0D0,1D0,0D0,0D0;              121P    267
100,0D0,0D0,0D0,8D0,0D0,4.000000000051D0,6.928203230246D0;           123P    268
124,-4.999999999921D-1,-8.660254037890D-1,0D0,0D0,0D0,0D0,1D0,       125P    269
4.5D0,-8.660254037890D-1,4.999999999921D-1,0D0,0D0;                  125P    270
100,0D0,0D0,0D0,8D0,0D0,3.999999999937D0,6.928203230312D0;           127P    271
124,5.000000000063D-1,-8.660254037808D-1,0D0,0D0,0D0,0D0,1D0,        129P    272
4.5D0,-8.660254037808D-1,-5.000000000063D-1,0D0,0D0;                 129P    273
100,0D0,0D0,0D0,8D0,0D0,4.000000000013D0,6.928203230268D0;           131P    274
124,-1D0,0D0,0D0,0D0,0D0,0D0,-1D0,4.499997744986D0,0D0,-1D0,0D0,     133P    275
0D0;                                                                 133P    276
100,0D0,0D0,0D0,5.249999188645D0,0D0,-5.249999188645D0,0D0;          135P    277
124,1D0,0D0,0D0,0D0,0D0,0D0,-1D0,4.499997744986D0,0D0,1D0,0D0,       137P    278
0D0;                                                                 137P    279
100,0D0,0D0,0D0,5.249999188645D0,0D0,-5.249999188645D0,0D0;          139P    280
110,-5.250000515559D0,4.499999106606D0,1.350331175319D-9,            141P    281
-4.250000313018D0,3.922649188393D0,8.198442801764D-10;               141P    282
110,5.250000515559D0,4.499999106606D0,-1.350331978718D-9,            143P    283
4.250000313018D0,3.922649188393D0,-8.198444050765D-10;               143P    284
124,1D0,0D0,0D0,0D0,0D0,0D0,-1D0,3.922650729709D0,0D0,1D0,0D0,       145P    285
0D0;                                                                 145P    286
100,0D0,0D0,0D0,4.25D0,0D0,-4.25D0,0D0;                              147P    287
110,-4.250000313018D0,-3.922649188393D0,8.198451405993D-10,          149P    288
-4.250000313018D0,3.922649188393D0,8.198442801764D-10;               149P    289
124,-1D0,0D0,0D0,0D0,0D0,0D0,1D0,-3.922650729709D0,0D0,1D0,0D0,      151P    290
0D0;                                                                 151P    291
100,0D0,0D0,0D0,4.25D0,0D0,-4.25D0,0D0;                              153P    292
110,4.250000313018D0,-3.922649188393D0,-8.198444883433D-10,          155P    293
4.250000313018D0,3.922649188393D0,-8.198444050765D-10;               155P    294
124,-1D0,0D0,0D0,0D0,0D0,0D0,-1D0,3.922650729709D0,0D0,-1D0,0D0,     157P    295
0D0;                                                                 157P    296
100,0D0,0D0,0D0,4.25D0,0D0,-4.25D0,0D0;                              159P    297
124,1D0,0D0,0D0,0D0,0D0,0D0,1D0,-3.922650729709D0,0D0,-1D0,0D0,      161P    298
0D0;                                                                 161P    299
100,0D0,0D0,0D0,4.25D0,0D0,-4.25D0,0D0;                              163P    300
110,5.250000515559D0,-4.499999106606D0,-1.350333014926D-9,           165P    301
4.250000313018D0,-3.922649188393D0,-8.198444883433D-10;              165P    302
110,-5.250000515559D0,-4.499999106606D0,1.350332859158D-9,           167P    303
-4.250000313018D0,-3.922649188393D0,8.198451405993D-10;              167P    304
502,32,8D0,4.5D0,0D0,4.000000000051D0,4.5D0,-6.928203230246D0,       169P    305
-3.999999999937D0,4.5D0,-6.928203230312D0,-8D0,4.5D0,0D0,            169P    306
-4.000000000051D0,4.5D0,6.928203230246D0,4.000000066934D0,4.5D0,     169P    307
6.928203191631D0,-8D0,3.785468820184D0,4.618802153517D0,0D0,         169P    308
3.785468820184D0,9.237604307034D0,8D0,3.785468820184D0,              169P    309
4.618802153517D0,8D0,3.785468820184D0,-4.618802153517D0,0D0,         169P    310
3.785468820184D0,-9.237604307034D0,-8D0,3.785468820184D0,            169P    311
-4.618802153517D0,-8D0,-3.785468820184D0,4.618802153517D0,0D0,       169P    312
-3.785468820184D0,9.237604307034D0,8D0,-3.785468820184D0,            169P    313
4.618802153517D0,8D0,-3.785468820184D0,-4.618802153517D0,0D0,        169P    314
-3.785468820184D0,-9.237604307034D0,-8D0,-3.785468820184D0,          169P    315
-4.618802153517D0,8D0,-4.5D0,0D0,4.000000000051D0,-4.5D0,            169P    316
-6.928203230246D0,-3.999999999937D0,-4.5D0,-6.928203230312D0,        169P    317
-8D0,-4.5D0,0D0,-4.000000000051D0,-4.5D0,6.928203230246D0,           169P    318
3.999999999937D0,-4.5D0,6.928203230312D0,-5.249999188645D0,          169P    319
4.499997744986D0,0D0,5.249999188645D0,4.499997744986D0,0D0,          169P    320
-4.25D0,3.922650729709D0,0D0,4.25D0,3.922650729709D0,0D0,            169P    321
-5.249999188645D0,-4.499997744986D0,0D0,5.249999188645D0,            169P    322
-4.499997744986D0,0D0,-4.25D0,-3.922650729709D0,0D0,4.25D0,          169P    323
-3.922650729709D0,0D0;                                               169P    324
504,56,111,169,1,169,2,131,169,2,169,3,127,169,3,169,4,123,169,      171P    325
4,169,5,119,169,5,169,6,115,169,6,169,1,89,169,7,169,5,91,169,5,     171P    326
169,8,99,169,8,169,6,101,169,6,169,9,49,169,1,169,10,57,169,9,       171P    327
169,1,59,169,10,169,2,61,169,2,169,11,69,169,11,169,3,71,169,3,      171P    328
169,12,79,169,12,169,4,81,169,4,169,7,97,169,13,169,7,107,169,       171P    329
14,169,8,55,169,15,169,9,67,169,16,169,10,77,169,17,169,11,87,       171P    330
169,18,169,12,19,169,19,169,20,23,169,20,169,21,27,169,21,169,       171P    331
22,31,169,22,169,23,35,169,23,169,24,39,169,24,169,19,95,169,13,     171P    332
169,23,93,169,23,169,14,105,169,14,169,24,103,169,24,169,15,51,      171P    333
169,19,169,16,53,169,15,169,19,65,169,16,169,20,63,169,20,169,       171P    334
17,75,169,17,169,21,73,169,21,169,18,85,169,18,169,22,83,169,22,     171P    335
169,13,135,169,25,169,26,159,169,27,169,28,139,169,26,169,25,        171P    336
147,169,28,169,27,43,169,29,169,30,153,169,31,169,32,47,169,30,      171P    337
169,29,163,169,32,169,31,155,169,32,169,28,149,169,31,169,27,        171P    338
143,169,26,169,28,141,169,25,169,27,165,169,30,169,32,167,169,       171P    339
29,169,31;                                                           171P    340
128,1,1,1,1,0,0,1,0,0,-8.32D0,-8.32D0,8.32D0,8.32D0,                 173P    341
-8.320000000010D0,-8.320000000010D0,8.320000000010D0,                173P    342
8.320000000010D0,1D0,1D0,1D0,1D0,8.320000000010D0,-4.5D0,8.32D0,     173P    343
8.320000000010D0,-4.5D0,-8.32D0,-8.320000000010D0,-4.5D0,8.32D0,     173P    344
-8.320000000010D0,-4.5D0,-8.32D0,-8.32D0,8.32D0,                     173P    345
-8.320000000010D0,8.320000000010D0;                                  173P    346
508,6,0,171,25,1,0,0,171,26,1,0,0,171,27,1,0,0,171,28,1,0,0,171,     175P    347
29,1,0,0,171,30,1,0;                                                 175P    348
508,2,0,171,47,0,0,0,171,49,0,0;                                     177P    349
510,173,2,0,175,177;                                                 179P    350
110,0D0,-9.118802153517D0,0D0,0D0,-8.118802153517D0,0D0;             181P    351
110,7.971281363908D0,-4.516580712279D0,0D0,9.266322943126D0,         183P    352
-3.768888107905D0,0D0;                                               183P    353
120,181,183,-6.283185307180D-2,3.204424506662D0;                     185P    354
508,3,0,171,35,1,0,0,171,37,1,0,0,171,25,0,0;                        187P    355
510,185,1,0,187;                                                     189P    356
110,0D0,-9.118802153517D0,0D0,0D0,-8.118802153517D0,0D0;             191P    357
110,7.971281363908D0,-4.516580712279D0,0D0,9.266322943126D0,         193P    358
-3.768888107905D0,0D0;                                               193P    359
120,191,193,-6.283185307180D-2,3.204424506662D0;                     195P    360
508,3,0,171,38,1,0,0,171,39,1,0,0,171,26,0,0;                        197P    361
510,195,1,0,197;                                                     199P    362
110,0D0,-9.118802153517D0,0D0,0D0,-8.118802153517D0,0D0;             201P    363
110,7.971281363908D0,-4.516580712279D0,0D0,9.266322943126D0,         203P    364
-3.768888107905D0,0D0;                                               203P    365
120,201,203,-6.283185307180D-2,3.204424506662D0;                     205P    366
508,3,0,171,40,1,0,0,171,41,1,0,0,171,27,0,0;                        207P    367
510,205,1,0,207;                                                     209P    368
128,1,1,1,1,0,0,1,0,0,-1.847520861407D-1,-1.847520861407D-1,         211P    369
9.422356393175D0,9.422356393175D0,-1.800000000503D-1,                211P    370
-1.800000000503D-1,9.180000000050D0,9.180000000050D0,1D0,1D0,        211P    371
1D0,1D0,8D0,-4.680000000050D0,4.803554239658D0,8D0,                  211P    372
-4.680000000050D0,-4.803554239658D0,8D0,4.680000000050D0,            211P    373
4.803554239658D0,8D0,4.680000000050D0,-4.803554239658D0,             211P    374
-1.847520861407D-1,9.422356393175D0,-1.800000000503D-1,              211P    375
9.180000000050D0;                                                    211P    376
508,6,0,171,11,1,0,0,171,22,0,0,0,171,35,0,0,0,171,36,0,0,0,171,     213P    377
21,1,0,0,171,12,1,0;                                                 213P    378
510,211,1,0,213;                                                     215P    379
110,0D0,9.118802153517D0,0D0,0D0,1.011880215352D1,0D0;               217P    380
110,9.266322943126D0,3.768888107905D0,0D0,7.971281363908D0,          219P    381
4.516580712279D0,0D0;                                                219P    382
120,217,219,-6.283185259328D-2,3.204424482258D0;                     221P    383
508,3,0,171,13,0,0,0,171,11,0,0,0,171,1,1,0;                         223P    384
510,221,1,0,223;                                                     225P    385
110,0D0,9.118802153517D0,0D0,0D0,1.011880215352D1,0D0;               227P    386
110,9.266322943126D0,3.768888107905D0,0D0,7.971281363908D0,          229P    387
4.516580712279D0,0D0;                                                229P    388
120,227,229,-6.283185259328D-2,3.204424482258D0;                     231P    389
508,3,0,171,15,0,0,0,171,14,0,0,0,171,2,1,0;                         233P    390
510,231,1,0,233;                                                     235P    391
110,0D0,9.118802153517D0,0D0,0D0,1.011880215352D1,0D0;               237P    392
110,9.266322943126D0,3.768888107905D0,0D0,7.971281363908D0,          239P    393
4.516580712279D0,0D0;                                                239P    394
120,237,239,-6.283185259328D-2,3.204424482258D0;                     241P    395
508,3,0,171,17,0,0,0,171,16,0,0,0,171,3,1,0;                         243P    396
510,241,1,0,243;                                                     245P    397
128,1,1,1,1,0,0,1,0,0,-1.847520861407D-1,-1.847520861407D-1,         247P    398
9.422356393175D0,9.422356393175D0,-1.800000000014D-1,                247P    399
-1.800000000014D-1,9.180000000001D0,9.180000000001D0,1D0,1D0,        247P    400
1D0,1D0,8.16D0,-4.680000000001D0,-4.526426110447D0,-1.6D-1,          247P    401
-4.680000000001D0,-9.329980350104D0,8.16D0,4.680000000001D0,         247P    402
-4.526426110447D0,-1.6D-1,4.680000000001D0,-9.329980350104D0,        247P    403
-1.847520861407D-1,9.422356393175D0,-1.800000000014D-1,              247P    404
9.180000000001D0;                                                    247P    405
508,6,0,171,13,1,0,0,171,14,1,0,0,171,23,0,0,0,171,38,0,0,0,171,     249P    406
37,0,0,0,171,22,1,0;                                                 249P    407
510,247,1,0,249;                                                     251P    408
128,1,1,1,1,0,0,1,0,0,-1.847520861407D-1,-1.847520861407D-1,         253P    409
9.422356393175D0,9.422356393175D0,-1.800000000014D-1,                253P    410
-1.800000000014D-1,9.180000000001D0,9.180000000001D0,1D0,1D0,        253P    411
1D0,1D0,1.6D-1,-4.680000000001D0,-9.329980350104D0,-8.16D0,          253P    412
-4.680000000001D0,-4.526426110447D0,1.6D-1,4.680000000001D0,         253P    413
-9.329980350104D0,-8.16D0,4.680000000001D0,-4.526426110447D0,        253P    414
-1.847520861407D-1,9.422356393175D0,-1.800000000014D-1,              253P    415
9.180000000001D0;                                                    253P    416
508,6,0,171,15,1,0,0,171,16,1,0,0,171,24,0,0,0,171,40,0,0,0,171,     255P    417
39,0,0,0,171,23,1,0;                                                 255P    418
510,253,1,0,255;                                                     257P    419
128,1,1,1,1,0,0,1,0,0,-1.847520861407D-1,-1.847520861407D-1,         259P    420
9.422356393175D0,9.422356393175D0,-1.800000001857D-1,                259P    421
-1.800000001857D-1,9.180000006954D0,9.180000006954D0,1D0,1D0,        259P    422
1D0,1D0,-8D0,-4.680000000186D0,-4.803554239658D0,-8D0,               259P    423
-4.680000000186D0,4.803554239658D0,-8D0,4.680000006954D0,            259P    424
-4.803554239658D0,-8D0,4.680000006954D0,4.803554239658D0,            259P    425
-1.847520861407D-1,9.422356393175D0,-1.800000001857D-1,              259P    426
9.180000006954D0;                                                    259P    427
508,6,0,171,17,1,0,0,171,18,1,0,0,171,19,0,0,0,171,42,0,0,0,171,     261P    428
41,0,0,0,171,24,1,0;                                                 261P    429
510,259,1,0,261;                                                     263P    430
110,0D0,9.118802153517D0,0D0,0D0,1.011880215352D1,0D0;               265P    431
110,9.266322943126D0,3.768888107905D0,0D0,7.971281363908D0,          267P    432
4.516580712279D0,0D0;                                                267P    433
120,265,267,-3.204424506658D0,6.283185288385D-2;                     269P    434
508,3,0,171,7,0,0,0,171,18,0,0,0,171,4,1,0;                          271P    435
510,269,1,0,271;                                                     273P    436
110,0D0,9.118802153517D0,0D0,0D0,1.011880215352D1,0D0;               275P    437
110,9.266322943126D0,3.768888107905D0,0D0,7.971281363908D0,          277P    438
4.516580712279D0,0D0;                                                277P    439
120,275,277,-3.204424506658D0,6.283185288385D-2;                     279P    440
508,3,0,171,9,0,0,0,171,8,0,0,0,171,5,1,0;                           281P    441
510,279,1,0,281;                                                     283P    442
110,0D0,9.118802153517D0,0D0,0D0,1.011880215352D1,0D0;               285P    443
110,9.266322943126D0,3.768888107905D0,0D0,7.971281363908D0,          287P    444
4.516580712279D0,0D0;                                                287P    445
120,285,287,-3.204424506658D0,6.283185288385D-2;                     289P    446
508,3,0,171,12,0,0,0,171,10,0,0,0,171,6,1,0;                         291P    447
510,289,1,0,291;                                                     293P    448
128,1,1,1,1,0,0,1,0,0,-1.847520861407D-1,-1.847520861407D-1,         295P    449
9.422356393175D0,9.422356393175D0,-1.800000000014D-1,                295P    450
-1.800000000014D-1,9.180000000001D0,9.180000000001D0,1D0,1D0,        295P    451
1D0,1D0,-8.16D0,-4.680000000001D0,4.526426110447D0,1.6D-1,           295P    452
-4.680000000001D0,9.329980350104D0,-8.16D0,4.680000000001D0,         295P    453
4.526426110447D0,1.6D-1,4.680000000001D0,9.329980350104D0,           295P    454
-1.847520861407D-1,9.422356393175D0,-1.800000000014D-1,              295P    455
9.180000000001D0;                                                    295P    456
508,6,0,171,7,1,0,0,171,8,1,0,0,171,20,0,0,0,171,32,0,0,0,171,       297P    457
31,0,0,0,171,19,1,0;                                                 297P    458
510,295,1,0,297;                                                     299P    459
128,1,1,1,1,0,0,1,0,0,-1.847520861407D-1,-1.847520861407D-1,         301P    460
9.422356393175D0,9.422356393175D0,-1.800000000014D-1,                301P    461
-1.800000000014D-1,9.180000000001D0,9.180000000001D0,1D0,1D0,        301P    462
1D0,1D0,-1.6D-1,-4.680000000001D0,9.329980350104D0,8.16D0,           301P    463
-4.680000000001D0,4.526426110447D0,-1.6D-1,4.680000000001D0,         301P    464
9.329980350104D0,8.16D0,4.680000000001D0,4.526426110447D0,           301P    465
-1.847520861407D-1,9.422356393175D0,-1.800000000014D-1,              301P    466
9.180000000001D0;                                                    301P    467
508,6,0,171,9,1,0,0,171,10,1,0,0,171,21,0,0,0,171,34,0,0,0,171,      303P    468
33,0,0,0,171,20,1,0;                                                 303P    469
510,301,1,0,303;                                                     305P    470
110,0D0,-9.118802153517D0,0D0,0D0,-8.118802153517D0,0D0;             307P    471
110,7.971281363908D0,-4.516580712279D0,0D0,9.266322943126D0,         309P    472
-3.768888107905D0,0D0;                                               309P    473
120,307,309,-3.204424506662D0,6.283185307180D-2;                     311P    474
508,3,0,171,42,1,0,0,171,31,1,0,0,171,28,0,0;                        313P    475
510,311,1,0,313;                                                     315P    476
110,0D0,-9.118802153517D0,0D0,0D0,-8.118802153517D0,0D0;             317P    477
110,7.971281363908D0,-4.516580712279D0,0D0,9.266322943126D0,         319P    478
-3.768888107905D0,0D0;                                               319P    479
120,317,319,-3.204424506662D0,6.283185307180D-2;                     321P    480
508,3,0,171,32,1,0,0,171,33,1,0,0,171,29,0,0;                        323P    481
510,321,1,0,323;                                                     325P    482
110,0D0,-9.118802153517D0,0D0,0D0,-8.118802153517D0,0D0;             327P    483
110,7.971281363908D0,-4.516580712279D0,0D0,9.266322943126D0,         329P    484
-3.768888107905D0,0D0;                                               329P    485
120,327,329,-3.204424506662D0,6.283185307180D-2;                     331P    486
508,3,0,171,34,1,0,0,171,36,1,0,0,171,30,0,0;                        333P    487
510,331,1,0,333;                                                     335P    488
128,1,1,1,1,0,0,1,0,0,-8.32D0,-8.32D0,8.32D0,8.32D0,                 337P    489
-8.320000000010D0,-8.320000000010D0,8.320000000010D0,                337P    490
8.320000000010D0,1D0,1D0,1D0,1D0,8.320000000010D0,4.5D0,8.32D0,      337P    491
8.320000000010D0,4.5D0,-8.32D0,-8.320000000010D0,4.5D0,8.32D0,       337P    492
-8.320000000010D0,4.5D0,-8.32D0,-8.32D0,8.32D0,                      337P    493
-8.320000000010D0,8.320000000010D0;                                  337P    494
508,6,0,171,1,0,0,0,171,6,0,0,0,171,5,0,0,0,171,4,0,0,0,171,3,0,     339P    495
0,0,171,2,0,0;                                                       339P    496
508,2,0,171,43,0,0,0,171,45,0,0;                                     341P    497
510,337,2,0,339,341;                                                 343P    498
110,0D0,1.468911086754D0,0D0,0D0,2.468911086754D0,0D0;               345P    499
110,0D0,3.906067165292D0,-4.221280642100D0,0D0,4.516582222224D0,     347P    500
-5.278724362769D0;                                                   347P    501
120,345,347,-1.633628184477D0,1.633628185249D0;                      349P    502
508,4,0,171,43,1,0,0,171,53,1,0,0,171,44,0,0,0,171,54,0,0;           351P    503
510,349,1,0,351;                                                     353P    504
110,0D0,1.468911086754D0,0D0,0D0,2.468911086754D0,0D0;               355P    505
110,0D0,3.906067165292D0,-4.221280642100D0,0D0,4.516582222224D0,     357P    506
-5.278724362769D0;                                                   357P    507
120,355,357,1.507964469112D0,4.775220838839D0;                       359P    508
508,4,0,171,45,1,0,0,171,54,1,0,0,171,46,0,0,0,171,53,0,0;           361P    509
510,359,1,0,361;                                                     363P    510
110,0D0,-5.895D0,0D0,0D0,-4.895D0,0D0;                               365P    511
110,4.25D0,-4.079568688801D0,0D0,4.25D0,4.079568688801D0,0D0;        367P    512
120,365,367,-3.204424506662D0,6.283185307180D-2;                     369P    513
508,4,0,171,46,1,0,0,171,52,0,0,0,171,48,1,0,0,171,51,1,0;           371P    514
510,369,1,0,371;                                                     373P    515
110,0D0,-5.895D0,0D0,0D0,-4.895D0,0D0;                               375P    516
110,4.25D0,-4.079568688801D0,0D0,4.25D0,4.079568688801D0,0D0;        377P    517
120,375,377,-6.283185307180D-2,3.204424506662D0;                     379P    518
508,4,0,171,44,1,0,0,171,51,0,0,0,171,50,1,0,0,171,52,1,0;           381P    519
510,379,1,0,381;                                                     383P    520
110,0D0,-1.468911086754D0,0D0,0D0,-2.468911086754D0,0D0;             385P    521
110,0D0,-3.906067165292D0,-4.221280642100D0,0D0,                     387P    522
-4.516582222224D0,-5.278724362769D0;                                 387P    523
120,385,387,-1.633628185249D0,1.633628184477D0;                      389P    524
508,4,0,171,49,1,0,0,171,56,1,0,0,171,50,0,0,0,171,55,0,0;           391P    525
510,389,1,0,391;                                                     393P    526
110,0D0,-1.468911086754D0,0D0,0D0,-2.468911086754D0,0D0;             395P    527
110,0D0,-3.906067165292D0,-4.221280642100D0,0D0,                     397P    528
-4.516582222224D0,-5.278724362769D0;                                 397P    529
120,395,397,-4.775220838839D0,-1.507964469112D0;                     399P    530
508,4,0,171,47,1,0,0,171,55,1,0,0,171,48,0,0,0,171,56,0,0;           401P    531
510,399,1,0,401;                                                     403P    532
514,26,179,0,189,1,199,1,209,1,215,1,225,1,235,1,245,1,251,1,        405P    533
257,1,263,1,273,1,283,1,293,1,299,1,305,1,315,1,325,1,335,1,343,     405P    534
1,353,0,363,0,373,0,383,0,393,0,403,0;                               405P    535
124,1D0,0D0,0D0,0D0,0D0,0D0,1D0,-4.5D0,0D0,-1D0,0D0,0D0;             407P    536
100,0D0,0D0,0D0,5D0,0D0,-5D0,0D0;                                    409P    537
124,-1D0,0D0,0D0,0D0,0D0,0D0,-1D0,4.5D0,0D0,-1D0,0D0,0D0;            411P    538
100,0D0,0D0,0D0,5D0,0D0,-5D0,0D0;                                    413P    539
124,-1D0,0D0,0D0,0D0,0D0,0D0,1D0,-4.5D0,0D0,1D0,0D0,0D0;             415P    540
100,0D0,0D0,0D0,5D0,0D0,-5D0,0D0;                                    417P    541
110,5D0,4.5D0,0D0,5D0,-4.5D0,0D0;                                    419P    542
124,1D0,0D0,0D0,0D0,0D0,0D0,-1D0,4.5D0,0D0,1D0,0D0,0D0;              421P    543
100,0D0,0D0,0D0,5D0,0D0,-5D0,0D0;                                    423P    544
110,-5D0,4.5D0,0D0,-5D0,-4.5D0,0D0;                                  425P    545
502,4,5D0,-4.5D0,0D0,-5D0,-4.5D0,0D0,5D0,4.5D0,0D0,-5D0,4.5D0,       427P    546
0D0;                                                                 427P    547
504,6,409,427,1,427,2,413,427,3,427,4,417,427,2,427,1,423,427,4,     429P    548
427,3,419,427,3,427,1,425,427,4,427,2;                               429P    549
110,0D0,-5.895D0,0D0,0D0,-4.895D0,0D0;                               431P    550
110,5D0,-4.68D0,0D0,5D0,4.68D0,0D0;                                  433P    551
120,431,433,-6.283185307180D-2,3.204424506662D0;                     435P    552
508,4,0,429,1,1,0,0,429,6,0,0,0,429,2,0,0,0,429,5,1,0;               437P    553
510,435,1,0,437;                                                     439P    554
110,0D0,-5.895D0,0D0,0D0,-4.895D0,0D0;                               441P    555
110,5D0,-4.68D0,0D0,5D0,4.68D0,0D0;                                  443P    556
120,441,443,-3.204424506662D0,6.283185307180D-2;                     445P    557
508,4,0,429,3,1,0,0,429,5,0,0,0,429,4,0,0,0,429,6,1,0;               447P    558
510,445,1,0,447;                                                     449P    559
514,2,439,0,449,0;                                                   451P    560
186,405,1,0;                                                         453P    561
S      1G      4D    454P    561                                        T      1
