 PTC IGES file: nut-m16-iso_4034.igs                                    S      1
1H,,1H;,16HNUT-M16-ISO_4034,20Hnut-m16-iso_4034.igs,                    G      1
49HPro/ENGINEER by Parametric Technology Corporation,7H2007160,32,38,7, G      2
38,15,16HNUT-M16-ISO_4034,1.,2,2HMM,32768,0.5,15H20111214.161426,       G      3
0.00419626,41.9643,13HVladimir Zima,7HUnknown,10,0,15H20111214.161426;  G      4
     314       1       1       1       0       0       0       001000200D      1
     314       0       4       1       0                   COLOR       1D      2
     314       2       1       1       0       0       0       001000200D      3
     314       0       1       1       0                   COLOR       2D      4
     314       3       1       1       0       0       0       001000200D      5
     314       0       1       1       0                   COLOR       3D      6
     314       4       1       1       0       0       0       001000200D      7
     314       0       1       1       0                   COLOR       4D      8
     314       5       1       1       0       0       0       001000200D      9
     314       0       8       1       0                   COLOR       5D     10
     314       6       1       1       0       0       0       001000200D     11
     314       0       8       1       0                   COLOR       6D     12
     314       7       1       1       0       0       0       001000200D     13
     314       0       5       1       0                   COLOR       7D     14
     314       8       1       1       0       0       0       001000200D     15
     314       0       8       1       0                   COLOR       8D     16
     124       9       1       1       0       0       0       001000000D     17
     124       0       0       2       0                   XFORM       1D     18
     100      11       1       1       0       0      17       001010000D     19
     100       0       0       1       0                     ARC       1D     20
     124      12       1       1       0       0       0       001000000D     21
     124       0       0       2       0                   XFORM       2D     22
     100      14       1       1       0       0      21       001010000D     23
     100       0       0       1       0                     ARC       2D     24
     124      15       1       1       0       0       0       001000000D     25
     124       0       0       2       0                   XFORM       3D     26
     100      17       1       1       0       0      25       001010000D     27
     100       0       0       1       0                     ARC       3D     28
     124      18       1       1       0       0       0       001000000D     29
     124       0       0       1       0                   XFORM       4D     30
     100      19       1       1       0       0      29       001010000D     31
     100       0       0       1       0                     ARC       4D     32
     124      20       1       1       0       0       0       001000000D     33
     124       0       0       2       0                   XFORM       5D     34
     100      22       1       1       0       0      33       001010000D     35
     100       0       0       1       0                     ARC       5D     36
     124      23       1       1       0       0       0       001000000D     37
     124       0       0       2       0                   XFORM       6D     38
     100      25       1       1       0       0      37       001010000D     39
     100       0       0       1       0                     ARC       6D     40
     124      26       1       1       0       0       0       001000000D     41
     124       0       0       2       0                   XFORM       7D     42
     100      28       1       1       0       0      41       001010000D     43
     100       0       0       1       0                     ARC       7D     44
     124      29       1       1       0       0       0       001000000D     45
     124       0       0       2       0                   XFORM       8D     46
     100      31       1       1       0       0      45       001010000D     47
     100       0       0       1       0                     ARC       8D     48
     126      32       1       1       0       0       0       001010000D     49
     126       0       0       8       0                B_SPLINE       1D     50
     126      40       1       1       0       0       0       001010000D     51
     126       0       0      10       0                B_SPLINE       2D     52
     126      50       1       1       0       0       0       001010000D     53
     126       0       0      10       0                B_SPLINE       3D     54
     110      60       1       1       0       0       0       001010000D     55
     110       0       0       2       0                    LINE       1D     56
     126      62       1       1       0       0       0       001010000D     57
     126       0       0       8       0                B_SPLINE       4D     58
     126      70       1       1       0       0       0       001010000D     59
     126       0       0      10       0                B_SPLINE       5D     60
     126      80       1       1       0       0       0       001010000D     61
     126       0       0      10       0                B_SPLINE       6D     62
     126      90       1       1       0       0       0       001010000D     63
     126       0       0      10       0                B_SPLINE       7D     64
     126     100       1       1       0       0       0       001010000D     65
     126       0       0      10       0                B_SPLINE       8D     66
     110     110       1       1       0       0       0       001010000D     67
     110       0       0       2       0                    LINE       2D     68
     126     112       1       1       0       0       0       001010000D     69
     126       0       0      10       0                B_SPLINE       9D     70
     126     122       1       1       0       0       0       001010000D     71
     126       0       0      10       0                B_SPLINE      10D     72
     126     132       1       1       0       0       0       001010000D     73
     126       0       0      10       0                B_SPLINE      11D     74
     126     142       1       1       0       0       0       001010000D     75
     126       0       0      10       0                B_SPLINE      12D     76
     110     152       1       1       0       0       0       001010000D     77
     110       0       0       2       0                    LINE       3D     78
     126     154       1       1       0       0       0       001010000D     79
     126       0       0      10       0                B_SPLINE      13D     80
     126     164       1       1       0       0       0       001010000D     81
     126       0       0      10       0                B_SPLINE      14D     82
     126     174       1       1       0       0       0       001010000D     83
     126       0       0       8       0                B_SPLINE      15D     84
     126     182       1       1       0       0       0       001010000D     85
     126       0       0       8       0                B_SPLINE      16D     86
     110     190       1       1       0       0       0       001010000D     87
     110       0       0       2       0                    LINE       4D     88
     126     192       1       1       0       0       0       001010000D     89
     126       0       0      10       0                B_SPLINE      17D     90
     126     202       1       1       0       0       0       001010000D     91
     126       0       0      10       0                B_SPLINE      18D     92
     126     212       1       1       0       0       0       001010000D     93
     126       0       0      10       0                B_SPLINE      19D     94
     126     222       1       1       0       0       0       001010000D     95
     126       0       0      10       0                B_SPLINE      20D     96
     110     232       1       1       0       0       0       001010000D     97
     110       0       0       2       0                    LINE       5D     98
     126     234       1       1       0       0       0       001010000D     99
     126       0       0      10       0                B_SPLINE      21D    100
     126     244       1       1       0       0       0       001010000D    101
     126       0       0      10       0                B_SPLINE      22D    102
     126     254       1       1       0       0       0       001010000D    103
     126       0       0      10       0                B_SPLINE      23D    104
     126     264       1       1       0       0       0       001010000D    105
     126       0       0      10       0                B_SPLINE      24D    106
     110     274       1       1       0       0       0       001010000D    107
     110       0       0       2       0                    LINE       6D    108
     124     276       1       1       0       0       0       001000000D    109
     124       0       0       1       0                   XFORM       9D    110
     100     277       1       1       0       0     109       001010000D    111
     100       0       0       1       0                     ARC       9D    112
     124     278       1       1       0       0       0       001000000D    113
     124       0       0       2       0                   XFORM      10D    114
     100     280       1       1       0       0     113       001010000D    115
     100       0       0       1       0                     ARC      10D    116
     124     281       1       1       0       0       0       001000000D    117
     124       0       0       2       0                   XFORM      11D    118
     100     283       1       1       0       0     117       001010000D    119
     100       0       0       1       0                     ARC      11D    120
     124     284       1       1       0       0       0       001000000D    121
     124       0       0       2       0                   XFORM      12D    122
     100     286       1       1       0       0     121       001010000D    123
     100       0       0       1       0                     ARC      12D    124
     124     287       1       1       0       0       0       001000000D    125
     124       0       0       2       0                   XFORM      13D    126
     100     289       1       1       0       0     125       001010000D    127
     100       0       0       1       0                     ARC      13D    128
     124     290       1       1       0       0       0       001000000D    129
     124       0       0       2       0                   XFORM      14D    130
     100     292       1       1       0       0     129       001010000D    131
     100       0       0       1       0                     ARC      14D    132
     124     293       1       1       0       0       0       001000000D    133
     124       0       0       2       0                   XFORM      15D    134
     100     295       1       1       0       0     133       001010000D    135
     100       0       0       2       0                     ARC      15D    136
     124     297       1       1       0       0       0       001000000D    137
     124       0       0       2       0                   XFORM      16D    138
     100     299       1       1       0       0     137       001010000D    139
     100       0       0       1       0                     ARC      16D    140
     110     300       1       1       0       0       0       001010000D    141
     110       0       0       2       0                    LINE       7D    142
     110     302       1       1       0       0       0       001010000D    143
     110       0       0       2       0                    LINE       8D    144
     124     304       1       1       0       0       0       001000000D    145
     124       0       0       2       0                   XFORM      17D    146
     100     306       1       1       0       0     145       001010000D    147
     100       0       0       1       0                     ARC      17D    148
     110     307       1       1       0       0       0       001010000D    149
     110       0       0       2       0                    LINE       9D    150
     124     309       1       1       0       0       0       001000000D    151
     124       0       0       2       0                   XFORM      18D    152
     100     311       1       1       0       0     151       001010000D    153
     100       0       0       1       0                     ARC      18D    154
     110     312       1       1       0       0       0       001010000D    155
     110       0       0       2       0                    LINE      10D    156
     124     314       1       1       0       0       0       001000000D    157
     124       0       0       2       0                   XFORM      19D    158
     100     316       1       1       0       0     157       001010000D    159
     100       0       0       1       0                     ARC      19D    160
     124     317       1       1       0       0       0       001000000D    161
     124       0       0       2       0                   XFORM      20D    162
     100     319       1       1       0       0     161       001010000D    163
     100       0       0       1       0                     ARC      20D    164
     110     320       1       1       0       0       0       001010000D    165
     110       0       0       2       0                    LINE      11D    166
     110     322       1       1       0       0       0       001010000D    167
     110       0       0       2       0                    LINE      12D    168
     502     324       1       1       0       0       0       001010000D    169
     502       0       0      20       1                  VERTEX       1D    170
     504     344       1       1       0       0       0       000010001D    171
     504       0       0      16       1                    EDGE       1D    172
     128     360       1       1       0       0       0       001010000D    173
     128       0       0       6       0                  SPLSRF       1D    174
     508     366       1       1       0       0       0       001010000D    175
     508       0       0       2       1                EDGELOOP       1D    176
     508     368       1       1       0       0       0       001010000D    177
     508       0       0       1       1                EDGELOOP       2D    178
     510     369       1       1       0       0       0       000010000D    179
     510       0       0       1       1                    FACE       1D    180
     110     370       1       1       0       0       0       001010000D    181
     110       0       0       1       0                    LINE      13D    182
     110     371       1       1       0       0       0       001010000D    183
     110       0       0       2       0                    LINE      14D    184
     120     373       1       1       0       0       0       001010000D    185
     120       0       0       1       0                    SREV       1D    186
     508     374       1       1       0       0       0       001010000D    187
     508       0       0       1       1                EDGELOOP       3D    188
     510     375       1       1       0       0       0       000010000D    189
     510       0       0       1       1                    FACE       2D    190
     110     376       1       1       0       0       0       001010000D    191
     110       0       0       1       0                    LINE      15D    192
     110     377       1       1       0       0       0       001010000D    193
     110       0       0       2       0                    LINE      16D    194
     120     379       1       1       0       0       0       001010000D    195
     120       0       0       1       0                    SREV       2D    196
     508     380       1       1       0       0       0       001010000D    197
     508       0       0       1       1                EDGELOOP       4D    198
     510     381       1       1       0       0       0       000010000D    199
     510       0       0       1       1                    FACE       3D    200
     110     382       1       1       0       0       0       001010000D    201
     110       0       0       1       0                    LINE      17D    202
     110     383       1       1       0       0       0       001010000D    203
     110       0       0       2       0                    LINE      18D    204
     120     385       1       1       0       0       0       001010000D    205
     120       0       0       1       0                    SREV       3D    206
     508     386       1       1       0       0       0       001010000D    207
     508       0       0       1       1                EDGELOOP       5D    208
     510     387       1       1       0       0       0       000010000D    209
     510       0       0       1       1                    FACE       4D    210
     128     388       1       1       0       0       0       001010000D    211
     128       0       0       8       0                  SPLSRF       2D    212
     508     396       1       1       0       0       0       001010000D    213
     508       0       0       2       1                EDGELOOP       6D    214
     510     398       1       1       0       0       0       000010000D    215
     510       0       0       1       1                    FACE       5D    216
     110     399       1       1       0       0       0       001010000D    217
     110       0       0       1       0                    LINE      19D    218
     110     400       1       1       0       0       0       001010000D    219
     110       0       0       2       0                    LINE      20D    220
     120     402       1       1       0       0       0       001010000D    221
     120       0       0       1       0                    SREV       4D    222
     508     403       1       1       0       0       0       001010000D    223
     508       0       0       1       1                EDGELOOP       7D    224
     510     404       1       1       0       0       0       000010000D    225
     510       0       0       1       1                    FACE       6D    226
     110     405       1       1       0       0       0       001010000D    227
     110       0       0       1       0                    LINE      21D    228
     110     406       1       1       0       0       0       001010000D    229
     110       0       0       2       0                    LINE      22D    230
     120     408       1       1       0       0       0       001010000D    231
     120       0       0       1       0                    SREV       5D    232
     508     409       1       1       0       0       0       001010000D    233
     508       0       0       1       1                EDGELOOP       8D    234
     510     410       1       1       0       0       0       000010000D    235
     510       0       0       1       1                    FACE       7D    236
     110     411       1       1       0       0       0       001010000D    237
     110       0       0       1       0                    LINE      23D    238
     110     412       1       1       0       0       0       001010000D    239
     110       0       0       2       0                    LINE      24D    240
     120     414       1       1       0       0       0       001010000D    241
     120       0       0       1       0                    SREV       6D    242
     508     415       1       1       0       0       0       001010000D    243
     508       0       0       1       1                EDGELOOP       9D    244
     510     416       1       1       0       0       0       000010000D    245
     510       0       0       1       1                    FACE       8D    246
     128     417       1       1       0       0       0       001010000D    247
     128       0       0       8       0                  SPLSRF       3D    248
     508     425       1       1       0       0       0       001010000D    249
     508       0       0       2       1                EDGELOOP      10D    250
     510     427       1       1       0       0       0       000010000D    251
     510       0       0       1       1                    FACE       9D    252
     128     428       1       1       0       0       0       001010000D    253
     128       0       0       8       0                  SPLSRF       4D    254
     508     436       1       1       0       0       0       001010000D    255
     508       0       0       2       1                EDGELOOP      11D    256
     510     438       1       1       0       0       0       000010000D    257
     510       0       0       1       1                    FACE      10D    258
     128     439       1       1       0       0       0       001010000D    259
     128       0       0       8       0                  SPLSRF       5D    260
     508     447       1       1       0       0       0       001010000D    261
     508       0       0       2       1                EDGELOOP      12D    262
     510     449       1       1       0       0       0       000010000D    263
     510       0       0       1       1                    FACE      11D    264
     110     450       1       1       0       0       0       001010000D    265
     110       0       0       1       0                    LINE      25D    266
     110     451       1       1       0       0       0       001010000D    267
     110       0       0       2       0                    LINE      26D    268
     120     453       1       1       0       0       0       001010000D    269
     120       0       0       1       0                    SREV       7D    270
     508     454       1       1       0       0       0       001010000D    271
     508       0       0       1       1                EDGELOOP      13D    272
     510     455       1       1       0       0       0       000010000D    273
     510       0       0       1       1                    FACE      12D    274
     110     456       1       1       0       0       0       001010000D    275
     110       0       0       1       0                    LINE      27D    276
     110     457       1       1       0       0       0       001010000D    277
     110       0       0       2       0                    LINE      28D    278
     120     459       1       1       0       0       0       001010000D    279
     120       0       0       1       0                    SREV       8D    280
     508     460       1       1       0       0       0       001010000D    281
     508       0       0       1       1                EDGELOOP      14D    282
     510     461       1       1       0       0       0       000010000D    283
     510       0       0       1       1                    FACE      13D    284
     110     462       1       1       0       0       0       001010000D    285
     110       0       0       1       0                    LINE      29D    286
     110     463       1       1       0       0       0       001010000D    287
     110       0       0       2       0                    LINE      30D    288
     120     465       1       1       0       0       0       001010000D    289
     120       0       0       1       0                    SREV       9D    290
     508     466       1       1       0       0       0       001010000D    291
     508       0       0       1       1                EDGELOOP      15D    292
     510     467       1       1       0       0       0       000010000D    293
     510       0       0       1       1                    FACE      14D    294
     128     468       1       1       0       0       0       001010000D    295
     128       0       0       8       0                  SPLSRF       6D    296
     508     476       1       1       0       0       0       001010000D    297
     508       0       0       2       1                EDGELOOP      16D    298
     510     478       1       1       0       0       0       000010000D    299
     510       0       0       1       1                    FACE      15D    300
     128     479       1       1       0       0       0       001010000D    301
     128       0       0       8       0                  SPLSRF       7D    302
     508     487       1       1       0       0       0       001010000D    303
     508       0       0       2       1                EDGELOOP      17D    304
     510     489       1       1       0       0       0       000010000D    305
     510       0       0       1       1                    FACE      16D    306
     110     490       1       1       0       0       0       001010000D    307
     110       0       0       1       0                    LINE      31D    308
     110     491       1       1       0       0       0       001010000D    309
     110       0       0       2       0                    LINE      32D    310
     120     493       1       1       0       0       0       001010000D    311
     120       0       0       1       0                    SREV      10D    312
     508     494       1       1       0       0       0       001010000D    313
     508       0       0       1       1                EDGELOOP      18D    314
     510     495       1       1       0       0       0       000010000D    315
     510       0       0       1       1                    FACE      17D    316
     110     496       1       1       0       0       0       001010000D    317
     110       0       0       1       0                    LINE      33D    318
     110     497       1       1       0       0       0       001010000D    319
     110       0       0       2       0                    LINE      34D    320
     120     499       1       1       0       0       0       001010000D    321
     120       0       0       1       0                    SREV      11D    322
     508     500       1       1       0       0       0       001010000D    323
     508       0       0       1       1                EDGELOOP      19D    324
     510     501       1       1       0       0       0       000010000D    325
     510       0       0       1       1                    FACE      18D    326
     110     502       1       1       0       0       0       001010000D    327
     110       0       0       1       0                    LINE      35D    328
     110     503       1       1       0       0       0       001010000D    329
     110       0       0       2       0                    LINE      36D    330
     120     505       1       1       0       0       0       001010000D    331
     120       0       0       1       0                    SREV      12D    332
     508     506       1       1       0       0       0       001010000D    333
     508       0       0       1       1                EDGELOOP      20D    334
     510     507       1       1       0       0       0       000010000D    335
     510       0       0       1       1                    FACE      19D    336
     128     508       1       1       0       0       0       001010000D    337
     128       0       0       6       0                  SPLSRF       8D    338
     508     514       1       1       0       0       0       001010000D    339
     508       0       0       2       1                EDGELOOP      21D    340
     508     516       1       1       0       0       0       001010000D    341
     508       0       0       1       1                EDGELOOP      22D    342
     510     517       1       1       0       0       0       000010000D    343
     510       0       0       1       1                    FACE      20D    344
     110     518       1       1       0       0       0       001010000D    345
     110       0       0       1       0                    LINE      37D    346
     110     519       1       1       0       0       0       001010000D    347
     110       0       0       2       0                    LINE      38D    348
     120     521       1       1       0       0       0       001010000D    349
     120       0       0       1       0                    SREV      13D    350
     508     522       1       1       0       0       0       001010000D    351
     508       0       0       1       1                EDGELOOP      23D    352
     510     523       1       1       0       0       0       000010000D    353
     510       0       0       1       1                    FACE      21D    354
     110     524       1       1       0       0       0       001010000D    355
     110       0       0       1       0                    LINE      39D    356
     110     525       1       1       0       0       0       001010000D    357
     110       0       0       2       0                    LINE      40D    358
     120     527       1       1       0       0       0       001010000D    359
     120       0       0       1       0                    SREV      14D    360
     508     528       1       1       0       0       0       001010000D    361
     508       0       0       1       1                EDGELOOP      24D    362
     510     529       1       1       0       0       0       000010000D    363
     510       0       0       1       1                    FACE      22D    364
     110     530       1       1       0       0       0       001010000D    365
     110       0       0       1       0                    LINE      41D    366
     110     531       1       1       0       0       0       001010000D    367
     110       0       0       1       0                    LINE      42D    368
     120     532       1       1       0       0       0       001010000D    369
     120       0       0       1       0                    SREV      15D    370
     508     533       1       1       0       0       0       001010000D    371
     508       0       0       1       1                EDGELOOP      25D    372
     510     534       1       1       0       0       0       000010000D    373
     510       0       0       1       1                    FACE      23D    374
     110     535       1       1       0       0       0       001010000D    375
     110       0       0       1       0                    LINE      43D    376
     110     536       1       1       0       0       0       001010000D    377
     110       0       0       1       0                    LINE      44D    378
     120     537       1       1       0       0       0       001010000D    379
     120       0       0       1       0                    SREV      16D    380
     508     538       1       1       0       0       0       001010000D    381
     508       0       0       1       1                EDGELOOP      26D    382
     510     539       1       1       0       0       0       000010000D    383
     510       0       0       1       1                    FACE      24D    384
     110     540       1       1       0       0       0       001010000D    385
     110       0       0       1       0                    LINE      45D    386
     110     541       1       1       0       0       0       001010000D    387
     110       0       0       2       0                    LINE      46D    388
     120     543       1       1       0       0       0       001010000D    389
     120       0       0       1       0                    SREV      17D    390
     508     544       1       1       0       0       0       001010000D    391
     508       0       0       1       1                EDGELOOP      27D    392
     510     545       1       1       0       0       0       000010000D    393
     510       0       0       1       1                    FACE      25D    394
     110     546       1       1       0       0       0       001010000D    395
     110       0       0       1       0                    LINE      47D    396
     110     547       1       1       0       0       0       001010000D    397
     110       0       0       2       0                    LINE      48D    398
     120     549       1       1       0       0       0       001010000D    399
     120       0       0       1       0                    SREV      18D    400
     508     550       1       1       0       0       0       001010000D    401
     508       0       0       1       1                EDGELOOP      28D    402
     510     551       1       1       0       0       0       000010000D    403
     510       0       0       1       1                    FACE      26D    404
     514     552       1       1       0       0       0       000010000D    405
     514       0       0       3       1                   SHELL       1D    406
     124     555       1       1       0       0       0       001000000D    407
     124       0       0       1       0                   XFORM      21D    408
     100     556       1       1       0       0     407       001010000D    409
     100       0       0       1       0                     ARC      21D    410
     124     557       1       1       0       0       0       001000000D    411
     124       0       0       1       0                   XFORM      22D    412
     100     558       1       1       0       0     411       001010000D    413
     100       0       0       1       0                     ARC      22D    414
     124     559       1       1       0       0       0       001000000D    415
     124       0       0       1       0                   XFORM      23D    416
     100     560       1       1       0       0     415       001010000D    417
     100       0       0       1       0                     ARC      23D    418
     110     561       1       1       0       0       0       001010000D    419
     110       0       0       1       0                    LINE      49D    420
     124     562       1       1       0       0       0       001000000D    421
     124       0       0       1       0                   XFORM      24D    422
     100     563       1       1       0       0     421       001010000D    423
     100       0       0       1       0                     ARC      24D    424
     110     564       1       1       0       0       0       001010000D    425
     110       0       0       1       0                    LINE      50D    426
     502     565       1       1       0       0       0       001010000D    427
     502       0       0       2       1                  VERTEX       2D    428
     504     567       1       1       0       0       0       000010001D    429
     504       0       0       2       1                    EDGE       2D    430
     110     569       1       1       0       0       0       001010000D    431
     110       0       0       1       0                    LINE      51D    432
     110     570       1       1       0       0       0       001010000D    433
     110       0       0       1       0                    LINE      52D    434
     120     571       1       1       0       0       0       001010000D    435
     120       0       0       1       0                    SREV      19D    436
     508     572       1       1       0       0       0       001010000D    437
     508       0       0       1       1                EDGELOOP      29D    438
     510     573       1       1       0       0       0       000010000D    439
     510       0       0       1       1                    FACE      27D    440
     110     574       1       1       0       0       0       001010000D    441
     110       0       0       1       0                    LINE      53D    442
     110     575       1       1       0       0       0       001010000D    443
     110       0       0       1       0                    LINE      54D    444
     120     576       1       1       0       0       0       001010000D    445
     120       0       0       1       0                    SREV      20D    446
     508     577       1       1       0       0       0       001010000D    447
     508       0       0       1       1                EDGELOOP      30D    448
     510     578       1       1       0       0       0       000010000D    449
     510       0       0       1       1                    FACE      28D    450
     514     579       1       1       0       0       0       000000000D    451
     514       0       0       1       1                   SHELL       2D    452
     186     580       1       1       0       0       0       000000000D    453
     186       0       0       1       0                    MSBR       1D    454
314,1.1D0,1.2D0,1D2;                                                   1P      1
314,1.1D1,1.1D1,1.1D1;                                                 3P      2
314,3.92D1,1.2D0,1.2D0;                                                5P      3
314,4.1D1,0D0,2.2D1;                                                   7P      4
314,8.784D1,9.49D1,1D2;                                                9P      5
314,9.6D1,9.6D1,9.6D1;                                                11P      6
314,9.8D1,6.27D1,0D0;                                                 13P      7
314,1D2,1D2,9.49D1;                                                   15P      8
124,1D0,-5.244962717538D-9,0D0,0D0,0D0,0D0,1D0,-7.5D0,                17P      9
-5.244962717538D-9,-1D0,0D0,0D0;                                      17P     10
100,0D0,0D0,0D0,1.2D1,0D0,6.000000054583D0,1.039230481390D1;          19P     11
124,5.000000000063D-1,-8.660254037808D-1,0D0,0D0,0D0,0D0,1D0,         21P     12
-7.5D0,-8.660254037808D-1,-5.000000000063D-1,0D0,0D0;                 21P     13
100,0D0,0D0,0D0,1.2D1,0D0,6.000000000019D0,1.039230484540D1;          23P     14
124,-4.999999999921D-1,-8.660254037890D-1,0D0,0D0,0D0,0D0,1D0,        25P     15
-7.5D0,-8.660254037890D-1,4.999999999921D-1,0D0,0D0;                  25P     16
100,0D0,0D0,0D0,1.2D1,0D0,5.999999999905D0,1.039230484547D1;          27P     17
124,-1D0,0D0,0D0,0D0,0D0,0D0,1D0,-7.5D0,0D0,1D0,0D0,0D0;              29P     18
100,0D0,0D0,0D0,1.2D1,0D0,6.000000000076D0,1.039230484537D1;          31P     19
124,-5.000000000063D-1,8.660254037808D-1,0D0,0D0,0D0,0D0,1D0,         33P     20
-7.5D0,8.660254037808D-1,5.000000000063D-1,0D0,0D0;                   33P     21
100,0D0,0D0,0D0,1.2D1,0D0,6.000000000019D0,1.039230484540D1;          35P     22
124,4.999999999921D-1,8.660254037890D-1,0D0,0D0,0D0,0D0,1D0,          37P     23
-7.5D0,8.660254037890D-1,-4.999999999921D-1,0D0,0D0;                  37P     24
100,0D0,0D0,0D0,1.2D1,0D0,5.999999945398D0,1.039230487694D1;          39P     25
124,-1D0,0D0,0D0,0D0,0D0,0D0,1D0,-7.499996719776D0,0D0,1D0,0D0,       41P     26
0D0;                                                                  41P     27
100,0D0,0D0,0D0,7.999998934201D0,0D0,-7.999998934201D0,0D0;           43P     28
124,1D0,0D0,0D0,0D0,0D0,0D0,1D0,-7.499996719776D0,0D0,-1D0,0D0,       45P     29
0D0;                                                                  45P     30
100,0D0,0D0,0D0,7.999998934201D0,0D0,-7.999998934201D0,0D0;           47P     31
126,7,3,0,0,1,0,0D0,0D0,0D0,0D0,2D-1,4D-1,6D-1,8D-1,1D0,1D0,1D0,      49P     32
1D0,1D0,1D0,1D0,1D0,1D0,1D0,1D0,1D0,1.2D1,7.500000000018D0,           49P     33
-5.570519120044D-8,1.2D1,7.499999995063D0,-4.577033847060D-1,         49P     34
1.2D1,7.469639213231D0,-1.372373851989D0,1.2D1,7.335536596707D0,      49P     35
-2.740757917344D0,1.2D1,7.117688473891D0,-4.109765189730D0,           49P     36
1.2D1,6.821534459379D0,-5.488753097545D0,1.2D1,6.568007003522D0,      49P     37
-6.443908753570D0,1.2D1,6.428203230276D0,-6.928203230276D0,0D0,       49P     38
1D0,0D0,0D0,1D0;                                                      49P     39
126,7,3,0,0,1,0,0D0,0D0,0D0,0D0,2D-1,4D-1,6D-1,8D-1,1D0,1D0,1D0,      51P     40
1D0,1D0,1D0,1D0,1D0,1D0,1D0,1D0,1D0,1.199999999898D1,                 51P     41
-7.500000000018D0,-1.573689924036D-8,1.199999999898D1,                51P     42
-7.500000000018D0,-4.577032960606D-1,1.200000000048D1,                51P     43
-7.469639218502D0,-1.372373754600D0,1.199999999987D1,                 51P     44
-7.335536606177D0,-2.740757852074D0,1.200000000003D1,                 51P     45
-7.117688482691D0,-4.109765144118D0,1.199999999999D1,                 51P     46
-6.821534465371D0,-5.488753074532D0,1.2D1,-6.568007005775D0,          51P     47
-6.443908745766D0,1.2D1,-6.428203230276D0,-6.928203230276D0,0D0,      51P     48
1D0,0D0,0D0,1D0;                                                      51P     49
126,7,3,0,0,1,0,0D0,0D0,0D0,0D0,2D-1,4D-1,6D-1,8D-1,1D0,1D0,1D0,      53P     50
1D0,1D0,1D0,1D0,1D0,1D0,1D0,1D0,1D0,1.2D1,-6.428203230276D0,          53P     51
6.928203230276D0,1.2D1,-6.569340890340D0,6.439288034090D0,            53P     52
1.199999999999D1,-6.824477823356D0,5.477019845232D0,                  53P     53
1.200000000003D1,-7.120467679092D0,4.094996000010D0,                  53P     54
1.199999999987D1,-7.337125646676D0,2.727814089265D0,                  53P     55
1.200000000048D1,-7.469983215009D0,1.365024695456D0,                  53P     56
1.199999999898D1,-7.500000000018D0,4.550109320016D-1,                 53P     57
1.199999999898D1,-7.500000000018D0,-1.573689924036D-8,0D0,1D0,        53P     58
0D0,0D0,1D0;                                                          53P     59
110,1.2D1,-6.428203230276D0,6.928203230276D0,1.2D1,                   55P     60
6.428203230276D0,6.928203230276D0;                                    55P     61
126,7,3,0,0,1,0,0D0,0D0,0D0,0D0,2D-1,4D-1,6D-1,8D-1,1D0,1D0,1D0,      57P     62
1D0,1D0,1D0,1D0,1D0,1D0,1D0,1D0,1D0,1.2D1,6.428203230276D0,           57P     63
6.928203230276D0,1.2D1,6.569340890340D0,6.439288034090D0,1.2D1,       57P     64
6.824477823356D0,5.477019844850D0,1.2D1,7.120467679094D0,             57P     65
4.094996001349D0,1.2D1,7.337125646670D0,2.727814084293D0,1.2D1,       57P     66
7.469983215032D0,1.365024714006D0,1.2D1,7.499999999970D0,             57P     67
4.550108920333D-1,1.2D1,7.500000000018D0,-5.570519120044D-8,0D0,      57P     68
1D0,0D0,0D0,1D0;                                                      57P     69
126,7,3,0,0,1,0,0D0,0D0,0D0,0D0,2D-1,4D-1,6D-1,8D-1,1D0,1D0,1D0,      59P     70
1D0,1D0,1D0,1D0,1D0,1D0,1D0,1D0,1D0,1.2D1,6.428203230276D0,           59P     71
-6.928203230276D0,1.157331954794D1,6.570430047630D0,                  59P     72
-7.174547304132D0,1.073492878615D1,6.826882354501D0,                  59P     73
-7.658592436134D0,9.535841820969D0,7.122750871776D0,                  59P     74
-8.350885618265D0,8.353040496109D0,7.338441723107D0,                  59P     75
-9.033776281571D0,7.176864836082D0,7.470266658386D0,                  59P     76
-9.712841615501D0,6.392113444326D0,7.500000000009D0,                  59P     77
-1.016591804278D1,6.000000000267D0,7.500000000009D0,                  59P     78
-1.039230484526D1,0D0,1D0,0D0,0D0,1D0;                                59P     79
126,7,3,0,0,1,0,0D0,0D0,0D0,0D0,2D-1,4D-1,6D-1,8D-1,1D0,1D0,1D0,      61P     80
1D0,1D0,1D0,1D0,1D0,1D0,1D0,1D0,1D0,6.000000000267D0,                 61P     81
7.500000000009D0,-1.039230484526D1,5.607783826272D0,                  61P     82
7.500000000009D0,-1.061875095890D1,4.822865169200D0,                  61P     83
7.470250121191D0,-1.107192395685D1,3.646578061489D0,                  61P     84
7.338388543386D0,-1.175105363513D1,2.463730056030D0,                  61P     85
7.122652554218D0,-1.243397124949D1,1.265120290185D0,                  61P     86
6.826889379525D0,-1.312598892046D1,4.267129291908D-1,                 61P     87
6.570440873339D0,-1.361004363602D1,0D0,6.428203230276D0,              61P     88
-1.385640646055D1,0D0,1D0,0D0,0D0,1D0;                                61P     89
126,7,3,0,0,1,0,0D0,0D0,0D0,0D0,2D-1,4D-1,6D-1,8D-1,1D0,1D0,1D0,      63P     90
1D0,1D0,1D0,1D0,1D0,1D0,1D0,1D0,1D0,6.000000000267D0,                 63P     91
-7.500000000009D0,-1.039230484526D1,5.607783826272D0,                 63P     92
-7.500000000009D0,-1.061875095890D1,4.822865169200D0,                 63P     93
-7.470250121191D0,-1.107192395685D1,3.646578061489D0,                 63P     94
-7.338388543386D0,-1.175105363513D1,2.463730056030D0,                 63P     95
-7.122652554218D0,-1.243397124949D1,1.265120290185D0,                 63P     96
-6.826889379525D0,-1.312598892046D1,4.267129291907D-1,                63P     97
-6.570440873339D0,-1.361004363602D1,0D0,-6.428203230276D0,            63P     98
-1.385640646055D1,0D0,1D0,0D0,0D0,1D0;                                63P     99
126,7,3,0,0,1,0,0D0,0D0,0D0,0D0,2D-1,4D-1,6D-1,8D-1,1D0,1D0,1D0,      65P    100
1D0,1D0,1D0,1D0,1D0,1D0,1D0,1D0,1D0,1.2D1,-6.428203230276D0,          65P    101
-6.928203230276D0,1.157331954794D1,-6.570430047630D0,                 65P    102
-7.174547304132D0,1.073492878615D1,-6.826882354501D0,                 65P    103
-7.658592436134D0,9.535841820969D0,-7.122750871776D0,                 65P    104
-8.350885618265D0,8.353040496109D0,-7.338441723107D0,                 65P    105
-9.033776281571D0,7.176864836082D0,-7.470266658386D0,                 65P    106
-9.712841615501D0,6.392113444326D0,-7.500000000009D0,                 65P    107
-1.016591804278D1,6.000000000267D0,-7.500000000009D0,                 65P    108
-1.039230484526D1,0D0,1D0,0D0,0D0,1D0;                                65P    109
110,1.2D1,-6.428203230276D0,-6.928203230276D0,1.2D1,                  67P    110
6.428203230276D0,-6.928203230276D0;                                   67P    111
126,7,3,0,0,1,0,0D0,0D0,0D0,0D0,2D-1,4D-1,6D-1,8D-1,1D0,1D0,1D0,      69P    112
1D0,1D0,1D0,1D0,1D0,1D0,1D0,1D0,1D0,0D0,6.428203230276D0,             69P    113
-1.385640646055D1,-4.266804520621D-1,6.570430047630D0,                69P    114
-1.361006238669D1,-1.265071213847D0,6.826882354501D0,                 69P    115
-1.312601725469D1,-2.464158179031D0,7.122750871776D0,                 69P    116
-1.243372407256D1,-3.646959503891D0,7.338441723107D0,                 69P    117
-1.175083340926D1,-4.823135163920D0,7.470266658386D0,                 69P    118
-1.107176807532D1,-5.607886555671D0,7.500000000009D0,                 69P    119
-1.061869164805D1,-5.999999999730D0,7.500000000009D0,                 69P    120
-1.039230484557D1,0D0,1D0,0D0,0D0,1D0;                                69P    121
126,7,3,0,0,1,0,0D0,0D0,0D0,0D0,2D-1,4D-1,6D-1,8D-1,1D0,1D0,1D0,      71P    122
1D0,1D0,1D0,1D0,1D0,1D0,1D0,1D0,1D0,-5.999999999730D0,                71P    123
7.500000000009D0,-1.039230484557D1,-6.392216173725D0,                 71P    124
7.500000000009D0,-1.016585873193D1,-7.177134830801D0,                 71P    125
7.470250121191D0,-9.712685733977D0,-8.353421938511D0,                 71P    126
7.338388543386D0,-9.033556055697D0,-9.536269943970D0,                 71P    127
7.122652554218D0,-8.350638441335D0,-1.073487970981D1,                 71P    128
6.826889379525D0,-7.658620770371D0,-1.157328707081D1,                 71P    129
6.570440873339D0,-7.174566054810D0,-1.2D1,6.428203230276D0,           71P    130
-6.928203230276D0,0D0,1D0,0D0,0D0,1D0;                                71P    131
126,7,3,0,0,1,0,0D0,0D0,0D0,0D0,2D-1,4D-1,6D-1,8D-1,1D0,1D0,1D0,      73P    132
1D0,1D0,1D0,1D0,1D0,1D0,1D0,1D0,1D0,-5.999999999730D0,                73P    133
-7.500000000009D0,-1.039230484557D1,-6.392216173725D0,                73P    134
-7.500000000009D0,-1.016585873193D1,-7.177134830801D0,                73P    135
-7.470250121191D0,-9.712685733977D0,-8.353421938511D0,                73P    136
-7.338388543386D0,-9.033556055697D0,-9.536269943970D0,                73P    137
-7.122652554218D0,-8.350638441335D0,-1.073487970981D1,                73P    138
-6.826889379525D0,-7.658620770371D0,-1.157328707081D1,                73P    139
-6.570440873339D0,-7.174566054810D0,-1.2D1,-6.428203230276D0,         73P    140
-6.928203230276D0,0D0,1D0,0D0,0D0,1D0;                                73P    141
126,7,3,0,0,1,0,0D0,0D0,0D0,0D0,2D-1,4D-1,6D-1,8D-1,1D0,1D0,1D0,      75P    142
1D0,1D0,1D0,1D0,1D0,1D0,1D0,1D0,1D0,0D0,-6.428203230276D0,            75P    143
-1.385640646055D1,-4.266804520621D-1,-6.570430047630D0,               75P    144
-1.361006238669D1,-1.265071213847D0,-6.826882354501D0,                75P    145
-1.312601725469D1,-2.464158179031D0,-7.122750871776D0,                75P    146
-1.243372407256D1,-3.646959503891D0,-7.338441723107D0,                75P    147
-1.175083340926D1,-4.823135163920D0,-7.470266658386D0,                75P    148
-1.107176807532D1,-5.607886555671D0,-7.500000000009D0,                75P    149
-1.061869164805D1,-5.999999999730D0,-7.500000000009D0,                75P    150
-1.039230484557D1,0D0,1D0,0D0,0D0,1D0;                                75P    151
110,0D0,-6.428203230276D0,-1.385640646055D1,0D0,                      77P    152
6.428203230276D0,-1.385640646055D1;                                   77P    153
126,7,3,0,0,1,0,0D0,0D0,0D0,0D0,2D-1,4D-1,6D-1,8D-1,1D0,1D0,1D0,      79P    154
1D0,1D0,1D0,1D0,1D0,1D0,1D0,1D0,1D0,-1.2D1,6.428203230276D0,          79P    155
-6.928203230276D0,-1.2D1,6.569340890340D0,-6.439288034090D0,          79P    156
-1.199999999999D1,6.824477823356D0,-5.477019845538D0,                 79P    157
-1.200000000003D1,7.120467679094D0,-4.094995998938D0,                 79P    158
-1.199999999987D1,7.337125646670D0,-2.727814093249D0,                 79P    159
-1.200000000048D1,7.469983215032D0,-1.365024680594D0,                 79P    160
-1.199999999898D1,7.499999999970D0,-4.550109640242D-1,                79P    161
-1.199999999898D1,7.500000000018D0,-1.628565589777D-8,0D0,1D0,        79P    162
0D0,0D0,1D0;                                                          79P    163
126,7,3,0,0,1,0,0D0,0D0,0D0,0D0,2D-1,4D-1,6D-1,8D-1,1D0,1D0,1D0,      81P    164
1D0,1D0,1D0,1D0,1D0,1D0,1D0,1D0,1D0,-1.199999999898D1,                81P    165
7.500000000018D0,-1.628565589777D-8,-1.199999999898D1,                81P    166
7.500000000018D0,4.577032640380D-1,-1.200000000048D1,                 81P    167
7.469639218502D0,1.372373769462D0,-1.199999999987D1,                  81P    168
7.335536606177D0,2.740757848091D0,-1.200000000003D1,                  81P    169
7.117688482691D0,4.109765145190D0,-1.199999999999D1,                  81P    170
6.821534465371D0,5.488753074226D0,-1.2D1,6.568007005775D0,            81P    171
6.443908745766D0,-1.2D1,6.428203230276D0,6.928203230276D0,0D0,        81P    172
1D0,0D0,0D0,1D0;                                                      81P    173
126,7,3,0,0,1,0,0D0,0D0,0D0,0D0,2D-1,4D-1,6D-1,8D-1,1D0,1D0,1D0,      83P    174
1D0,1D0,1D0,1D0,1D0,1D0,1D0,1D0,1D0,-1.2D1,-7.500000000018D0,         83P    175
2.006839138941D-12,-1.2D1,-7.500000000018D0,4.577032803257D-1,        83P    176
-1.2D1,-7.469639218502D0,1.372373761903D0,-1.2D1,                     83P    177
-7.335536606176D0,2.740757850117D0,-1.2D1,-7.117688482691D0,          83P    178
4.109765144645D0,-1.2D1,-6.821534465371D0,5.488753074381D0,           83P    179
-1.2D1,-6.568007005775D0,6.443908745766D0,-1.2D1,                     83P    180
-6.428203230276D0,6.928203230276D0,0D0,1D0,0D0,0D0,1D0;               83P    181
126,7,3,0,0,1,0,0D0,0D0,0D0,0D0,2D-1,4D-1,6D-1,8D-1,1D0,1D0,1D0,      85P    182
1D0,1D0,1D0,1D0,1D0,1D0,1D0,1D0,1D0,-1.2D1,-6.428203230276D0,         85P    183
-6.928203230276D0,-1.2D1,-6.569340890340D0,-6.439288034090D0,         85P    184
-1.2D1,-6.824477823356D0,-5.477019845383D0,-1.2D1,                    85P    185
-7.120467679092D0,-4.094995999483D0,-1.2D1,-7.337125646676D0,         85P    186
-2.727814091222D0,-1.2D1,-7.469983215009D0,-1.365024688153D0,         85P    187
-1.2D1,-7.500000000018D0,-4.550109477365D-1,-1.2D1,                   85P    188
-7.500000000018D0,2.006839138941D-12,0D0,1D0,0D0,0D0,1D0;             85P    189
110,-1.2D1,-6.428203230276D0,-6.928203230276D0,-1.2D1,                87P    190
6.428203230276D0,-6.928203230276D0;                                   87P    191
126,7,3,0,0,1,0,0D0,0D0,0D0,0D0,2D-1,4D-1,6D-1,8D-1,1D0,1D0,1D0,      89P    192
1D0,1D0,1D0,1D0,1D0,1D0,1D0,1D0,1D0,-1.2D1,6.428203230276D0,          89P    193
6.928203230276D0,-1.157331954794D1,6.570430047630D0,                  89P    194
7.174547304132D0,-1.073492878615D1,6.826882354501D0,                  89P    195
7.658592436134D0,-9.535841820969D0,7.122750871776D0,                  89P    196
8.350885618265D0,-8.353040496109D0,7.338441723107D0,                  89P    197
9.033776281571D0,-7.176864836082D0,7.470266658386D0,                  89P    198
9.712841615501D0,-6.392113444326D0,7.500000000009D0,                  89P    199
1.016591804278D1,-6.000000000267D0,7.500000000009D0,                  89P    200
1.039230484526D1,0D0,1D0,0D0,0D0,1D0;                                 89P    201
126,7,3,0,0,1,0,0D0,0D0,0D0,0D0,2D-1,4D-1,6D-1,8D-1,1D0,1D0,1D0,      91P    202
1D0,1D0,1D0,1D0,1D0,1D0,1D0,1D0,1D0,-6.000000000267D0,                91P    203
7.500000000009D0,1.039230484526D1,-5.607783826272D0,                  91P    204
7.500000000009D0,1.061875095890D1,-4.822865169200D0,                  91P    205
7.470250121191D0,1.107192395685D1,-3.646578061489D0,                  91P    206
7.338388543386D0,1.175105363513D1,-2.463730056030D0,                  91P    207
7.122652554218D0,1.243397124949D1,-1.265120290185D0,                  91P    208
6.826889379525D0,1.312598892046D1,-4.267129291908D-1,                 91P    209
6.570440873339D0,1.361004363602D1,0D0,6.428203230276D0,               91P    210
1.385640646055D1,0D0,1D0,0D0,0D0,1D0;                                 91P    211
126,7,3,0,0,1,0,0D0,0D0,0D0,0D0,2D-1,4D-1,6D-1,8D-1,1D0,1D0,1D0,      93P    212
1D0,1D0,1D0,1D0,1D0,1D0,1D0,1D0,1D0,-6.000000000267D0,                93P    213
-7.500000000009D0,1.039230484526D1,-5.607783826272D0,                 93P    214
-7.500000000009D0,1.061875095890D1,-4.822865169200D0,                 93P    215
-7.470250121191D0,1.107192395685D1,-3.646578061489D0,                 93P    216
-7.338388543386D0,1.175105363513D1,-2.463730056030D0,                 93P    217
-7.122652554218D0,1.243397124949D1,-1.265120290185D0,                 93P    218
-6.826889379525D0,1.312598892046D1,-4.267129291908D-1,                93P    219
-6.570440873339D0,1.361004363602D1,0D0,-6.428203230276D0,             93P    220
1.385640646055D1,0D0,1D0,0D0,0D0,1D0;                                 93P    221
126,7,3,0,0,1,0,0D0,0D0,0D0,0D0,2D-1,4D-1,6D-1,8D-1,1D0,1D0,1D0,      95P    222
1D0,1D0,1D0,1D0,1D0,1D0,1D0,1D0,1D0,-1.2D1,-6.428203230276D0,         95P    223
6.928203230276D0,-1.157331954794D1,-6.570430047630D0,                 95P    224
7.174547304132D0,-1.073492878615D1,-6.826882354501D0,                 95P    225
7.658592436134D0,-9.535841820969D0,-7.122750871776D0,                 95P    226
8.350885618265D0,-8.353040496109D0,-7.338441723107D0,                 95P    227
9.033776281571D0,-7.176864836082D0,-7.470266658386D0,                 95P    228
9.712841615501D0,-6.392113444326D0,-7.500000000009D0,                 95P    229
1.016591804278D1,-6.000000000267D0,-7.500000000009D0,                 95P    230
1.039230484526D1,0D0,1D0,0D0,0D0,1D0;                                 95P    231
110,-1.2D1,-6.428203230276D0,6.928203230276D0,-1.2D1,                 97P    232
6.428203230276D0,6.928203230276D0;                                    97P    233
126,7,3,0,0,1,0,0D0,0D0,0D0,0D0,2D-1,4D-1,6D-1,8D-1,1D0,1D0,1D0,      99P    234
1D0,1D0,1D0,1D0,1D0,1D0,1D0,1D0,1D0,0D0,6.428203230276D0,             99P    235
1.385640646055D1,4.266804520621D-1,6.570430047630D0,                  99P    236
1.361006238669D1,1.265071213847D0,6.826882354501D0,                   99P    237
1.312601725469D1,2.464158179031D0,7.122750871776D0,                   99P    238
1.243372407256D1,3.646959503891D0,7.338441723107D0,                   99P    239
1.175083340926D1,4.823135163920D0,7.470266658386D0,                   99P    240
1.107176807532D1,5.607886555671D0,7.500000000009D0,                   99P    241
1.061869164805D1,5.999999999730D0,7.500000000009D0,                   99P    242
1.039230484557D1,0D0,1D0,0D0,0D0,1D0;                                 99P    243
126,7,3,0,0,1,0,0D0,0D0,0D0,0D0,2D-1,4D-1,6D-1,8D-1,1D0,1D0,1D0,     101P    244
1D0,1D0,1D0,1D0,1D0,1D0,1D0,1D0,1D0,5.999999999730D0,                101P    245
7.500000000009D0,1.039230484557D1,6.392216173725D0,                  101P    246
7.500000000009D0,1.016585873193D1,7.177134830801D0,                  101P    247
7.470250121191D0,9.712685733977D0,8.353421938511D0,                  101P    248
7.338388543386D0,9.033556055697D0,9.536269943970D0,                  101P    249
7.122652554218D0,8.350638441335D0,1.073487970981D1,                  101P    250
6.826889379525D0,7.658620770371D0,1.157328707081D1,                  101P    251
6.570440873339D0,7.174566054810D0,1.2D1,6.428203230276D0,            101P    252
6.928203230276D0,0D0,1D0,0D0,0D0,1D0;                                101P    253
126,7,3,0,0,1,0,0D0,0D0,0D0,0D0,2D-1,4D-1,6D-1,8D-1,1D0,1D0,1D0,     103P    254
1D0,1D0,1D0,1D0,1D0,1D0,1D0,1D0,1D0,5.999999999730D0,                103P    255
-7.500000000009D0,1.039230484557D1,6.392216173725D0,                 103P    256
-7.500000000009D0,1.016585873193D1,7.177134830801D0,                 103P    257
-7.470250121191D0,9.712685733977D0,8.353421938511D0,                 103P    258
-7.338388543386D0,9.033556055697D0,9.536269943970D0,                 103P    259
-7.122652554218D0,8.350638441335D0,1.073487970981D1,                 103P    260
-6.826889379525D0,7.658620770371D0,1.157328707081D1,                 103P    261
-6.570440873339D0,7.174566054810D0,1.2D1,-6.428203230276D0,          103P    262
6.928203230276D0,0D0,1D0,0D0,0D0,1D0;                                103P    263
126,7,3,0,0,1,0,0D0,0D0,0D0,0D0,2D-1,4D-1,6D-1,8D-1,1D0,1D0,1D0,     105P    264
1D0,1D0,1D0,1D0,1D0,1D0,1D0,1D0,1D0,0D0,-6.428203230276D0,           105P    265
1.385640646055D1,4.266804520621D-1,-6.570430047630D0,                105P    266
1.361006238669D1,1.265071213847D0,-6.826882354501D0,                 105P    267
1.312601725469D1,2.464158179031D0,-7.122750871776D0,                 105P    268
1.243372407256D1,3.646959503891D0,-7.338441723107D0,                 105P    269
1.175083340926D1,4.823135163920D0,-7.470266658386D0,                 105P    270
1.107176807532D1,5.607886555671D0,-7.500000000009D0,                 105P    271
1.061869164805D1,5.999999999730D0,-7.500000000009D0,                 105P    272
1.039230484557D1,0D0,1D0,0D0,0D0,1D0;                                105P    273
110,0D0,-6.428203230276D0,1.385640646055D1,0D0,6.428203230276D0,     107P    274
1.385640646055D1;                                                    107P    275
124,1D0,0D0,0D0,0D0,0D0,0D0,1D0,7.5D0,0D0,-1D0,0D0,0D0;              109P    276
100,0D0,0D0,0D0,1.2D1,0D0,6.000000000076D0,1.039230484537D1;         111P    277
124,4.999999999921D-1,8.660254037890D-1,0D0,0D0,0D0,0D0,1D0,         113P    278
7.5D0,8.660254037890D-1,-4.999999999921D-1,0D0,0D0;                  113P    279
100,0D0,0D0,0D0,1.2D1,0D0,5.999999999905D0,1.039230484547D1;         115P    280
124,-5.000000000063D-1,8.660254037808D-1,0D0,0D0,0D0,0D0,1D0,        117P    281
7.5D0,8.660254037808D-1,5.000000000063D-1,0D0,0D0;                   117P    282
100,0D0,0D0,0D0,1.2D1,0D0,6.000000000019D0,1.039230484540D1;         119P    283
124,-1D0,-5.244962675795D-9,0D0,0D0,0D0,0D0,1D0,7.5D0,               121P    284
-5.244962675795D-9,1D0,0D0,0D0;                                      121P    285
100,0D0,0D0,0D0,1.2D1,0D0,5.999999945569D0,1.039230487684D1;         123P    286
124,-4.999999999921D-1,-8.660254037890D-1,0D0,0D0,0D0,0D0,1D0,       125P    287
7.5D0,-8.660254037890D-1,4.999999999921D-1,0D0,0D0;                  125P    288
100,0D0,0D0,0D0,1.2D1,0D0,6.000000054412D0,1.039230481400D1;         127P    289
124,5.000000000063D-1,-8.660254037808D-1,0D0,0D0,0D0,0D0,1D0,        129P    290
7.5D0,-8.660254037808D-1,-5.000000000063D-1,0D0,0D0;                 129P    291
100,0D0,0D0,0D0,1.2D1,0D0,6.000000000019D0,1.039230484540D1;         131P    292
124,-1D0,0D0,0D0,0D0,0D0,0D0,-1D0,7.499996719776D0,0D0,-1D0,0D0,     133P    293
0D0;                                                                 133P    294
100,0D0,0D0,0D0,7.999998934201D0,0D0,-7.999998934201D0,              135P    295
1.163782456901D-14;                                                  135P    296
124,1D0,0D0,0D0,0D0,0D0,0D0,-1D0,7.499996719776D0,0D0,1D0,0D0,       137P    297
0D0;                                                                 137P    298
100,0D0,0D0,0D0,7.999998934201D0,0D0,-7.999998934201D0,0D0;          139P    299
110,-8.000000769044D0,7.499998667417D0,2.200675218454D-9,            141P    300
-7.000000504685D0,6.922648856303D0,1.444194202389D-9;                141P    301
110,8.000000769044D0,7.499998667417D0,-2.200679036836D-9,            143P    302
7.000000504685D0,6.922648856303D0,-1.444195479146D-9;                143P    303
124,1D0,0D0,0D0,0D0,0D0,0D0,-1D0,6.922651243077D0,0D0,1D0,0D0,       145P    304
0D0;                                                                 145P    305
100,0D0,0D0,0D0,7D0,0D0,-7D0,0D0;                                    147P    306
110,-7.000000504685D0,-6.922648856303D0,1.444196589369D-9,           149P    307
-7.000000504685D0,6.922648856303D0,1.444194202389D-9;                149P    308
124,-1D0,0D0,0D0,0D0,0D0,0D0,1D0,-6.922651243077D0,0D0,1D0,0D0,      151P    309
0D0;                                                                 151P    310
100,0D0,0D0,0D0,7D0,0D0,-7D0,0D0;                                    153P    311
110,7.000000504685D0,-6.922648856303D0,-1.444196200791D-9,           155P    312
7.000000504685D0,6.922648856303D0,-1.444195479146D-9;                155P    313
124,-1D0,0D0,0D0,0D0,0D0,0D0,-1D0,6.922651243077D0,0D0,-1D0,0D0,     157P    314
0D0;                                                                 157P    315
100,0D0,0D0,0D0,7D0,0D0,-7D0,0D0;                                    159P    316
124,1D0,0D0,0D0,0D0,0D0,0D0,1D0,-6.922651243077D0,0D0,-1D0,0D0,      161P    317
0D0;                                                                 161P    318
100,0D0,0D0,0D0,7D0,0D0,-7D0,0D0;                                    163P    319
110,8.000000769044D0,-7.499998667417D0,-2.200679258880D-9,           165P    320
7.000000504685D0,-6.922648856303D0,-1.444196200791D-9;               165P    321
110,-8.000000769044D0,-7.499998667417D0,2.200679733472D-9,           167P    322
-7.000000504685D0,-6.922648856303D0,1.444196589369D-9;               167P    323
502,32,1.2D1,7.5D0,0D0,6.000000000076D0,7.5D0,-1.039230484537D1,     169P    324
-5.999999999905D0,7.5D0,-1.039230484547D1,-1.2D1,7.5D0,              169P    325
-6.293955046033D-8,-6.000000000076D0,7.5D0,1.039230484537D1,         169P    326
5.999999999905D0,7.5D0,1.039230484547D1,-1.2D1,6.428203230276D0,     169P    327
6.928203230276D0,0D0,6.428203230276D0,1.385640646055D1,1.2D1,        169P    328
6.428203230276D0,6.928203230276D0,1.2D1,6.428203230276D0,            169P    329
-6.928203230276D0,0D0,6.428203230276D0,-1.385640646055D1,-1.2D1,     169P    330
6.428203230276D0,-6.928203230276D0,-1.2D1,-6.428203230276D0,         169P    331
6.928203230276D0,0D0,-6.428203230276D0,1.385640646055D1,1.2D1,       169P    332
-6.428203230276D0,6.928203230276D0,1.2D1,-6.428203230276D0,          169P    333
-6.928203230276D0,0D0,-6.428203230276D0,-1.385640646055D1,           169P    334
-1.2D1,-6.428203230276D0,-6.928203230276D0,1.2D1,-7.5D0,             169P    335
-6.293955261046D-8,6.000000000076D0,-7.5D0,-1.039230484537D1,        169P    336
-5.999999999905D0,-7.5D0,-1.039230484547D1,-1.2D1,-7.5D0,0D0,        169P    337
-6.000000000076D0,-7.5D0,1.039230484537D1,5.999999999905D0,          169P    338
-7.5D0,1.039230484547D1,-7.999998934201D0,7.499996719776D0,0D0,      169P    339
7.999998934201D0,7.499996719776D0,0D0,-7D0,6.922651243077D0,0D0,     169P    340
7D0,6.922651243077D0,0D0,-7.999998934201D0,-7.499996719776D0,        169P    341
0D0,7.999998934201D0,-7.499996719776D0,0D0,-7D0,                     169P    342
-6.922651243077D0,0D0,7D0,-6.922651243077D0,0D0;                     169P    343
504,56,111,169,1,169,2,131,169,2,169,3,127,169,3,169,4,123,169,      171P    344
4,169,5,119,169,5,169,6,115,169,6,169,1,89,169,7,169,5,91,169,5,     171P    345
169,8,99,169,8,169,6,101,169,6,169,9,49,169,1,169,10,57,169,9,       171P    346
169,1,59,169,10,169,2,61,169,2,169,11,69,169,11,169,3,71,169,3,      171P    347
169,12,79,169,12,169,4,81,169,4,169,7,97,169,13,169,7,107,169,       171P    348
14,169,8,55,169,15,169,9,67,169,16,169,10,77,169,17,169,11,87,       171P    349
169,18,169,12,19,169,19,169,20,23,169,20,169,21,27,169,21,169,       171P    350
22,31,169,22,169,23,35,169,23,169,24,39,169,24,169,19,95,169,13,     171P    351
169,23,93,169,23,169,14,105,169,14,169,24,103,169,24,169,15,51,      171P    352
169,19,169,16,53,169,15,169,19,65,169,16,169,20,63,169,20,169,       171P    353
17,75,169,17,169,21,73,169,21,169,18,85,169,18,169,22,83,169,22,     171P    354
169,13,135,169,25,169,26,159,169,27,169,28,139,169,26,169,25,        171P    355
147,169,28,169,27,43,169,29,169,30,153,169,31,169,32,47,169,30,      171P    356
169,29,163,169,32,169,31,155,169,32,169,28,149,169,31,169,27,        171P    357
143,169,26,169,28,141,169,25,169,27,165,169,30,169,32,167,169,       171P    358
29,169,31;                                                           171P    359
128,1,1,1,1,0,0,1,0,0,-1.248D1,-1.248D1,1.248D1,1.248D1,             173P    360
-1.247999999582D1,-1.247999999582D1,1.247999999993D1,                173P    361
1.247999999993D1,1D0,1D0,1D0,1D0,1.247999999582D1,-7.5D0,            173P    362
1.248D1,1.247999999582D1,-7.5D0,-1.248D1,-1.247999999993D1,          173P    363
-7.5D0,1.248D1,-1.247999999993D1,-7.5D0,-1.248D1,-1.248D1,           173P    364
1.248D1,-1.247999999582D1,1.247999999993D1;                          173P    365
508,6,0,171,25,1,0,0,171,26,1,0,0,171,27,1,0,0,171,28,1,0,0,171,     175P    366
29,1,0,0,171,30,1,0;                                                 175P    367
508,2,0,171,47,0,0,0,171,49,0,0;                                     177P    368
510,173,2,0,175,177;                                                 179P    369
110,0D0,-1.442820323028D1,0D0,0D0,-1.342820323028D1,0D0;             181P    370
110,1.195638944918D1,-7.525178563257D0,0D0,1.390001701137D1,         183P    371
-6.403024667019D0,0D0;                                               183P    372
120,181,183,-6.283185307180D-2,3.204424506662D0;                     185P    373
508,3,0,171,35,1,0,0,171,37,1,0,0,171,25,0,0;                        187P    374
510,185,1,0,187;                                                     189P    375
110,0D0,-1.442820323028D1,0D0,0D0,-1.342820323028D1,0D0;             191P    376
110,1.195638944918D1,-7.525178563257D0,0D0,1.390001701137D1,         193P    377
-6.403024667019D0,0D0;                                               193P    378
120,191,193,-6.283185307180D-2,3.204424506662D0;                     195P    379
508,3,0,171,38,1,0,0,171,39,1,0,0,171,26,0,0;                        197P    380
510,195,1,0,197;                                                     199P    381
110,0D0,-1.442820323028D1,0D0,0D0,-1.342820323028D1,0D0;             201P    382
110,1.195638944918D1,-7.525178563257D0,0D0,1.390001701137D1,         203P    383
-6.403024667019D0,0D0;                                               203P    384
120,201,203,-6.283185307180D-2,3.204424506662D0;                     205P    385
508,3,0,171,40,1,0,0,171,41,1,0,0,171,27,0,0;                        207P    386
510,205,1,0,207;                                                     209P    387
128,1,1,1,1,0,0,1,0,0,-2.771281292110D-1,-2.771281292110D-1,         211P    388
1.413353458976D1,1.413353458976D1,-3.000000000755D-1,                211P    389
-3.000000000755D-1,1.530000000008D1,1.530000000008D1,1D0,1D0,        211P    390
1D0,1D0,1.2D1,-7.800000000076D0,7.205331359487D0,1.2D1,              211P    391
-7.800000000076D0,-7.205331359487D0,1.2D1,7.800000000076D0,          211P    392
7.205331359487D0,1.2D1,7.800000000076D0,-7.205331359487D0,           211P    393
-2.771281292110D-1,1.413353458976D1,-3.000000000755D-1,              211P    394
1.530000000008D1;                                                    211P    395
508,6,0,171,11,1,0,0,171,22,0,0,0,171,35,0,0,0,171,36,0,0,0,171,     213P    396
21,1,0,0,171,12,1,0;                                                 213P    397
510,211,1,0,213;                                                     215P    398
110,0D0,1.442820323028D1,0D0,0D0,1.542820323028D1,0D0;               217P    399
110,1.390001701137D1,6.403024667019D0,0D0,1.195638944918D1,          219P    400
7.525178563257D0,0D0;                                                219P    401
120,217,219,-6.283183394108D-2,3.204424506099D0;                     221P    402
508,3,0,171,13,0,0,0,171,11,0,0,0,171,1,1,0;                         223P    403
510,221,1,0,223;                                                     225P    404
110,0D0,1.442820323028D1,0D0,0D0,1.542820323028D1,0D0;               227P    405
110,1.390001701137D1,6.403024667019D0,0D0,1.195638944918D1,          229P    406
7.525178563257D0,0D0;                                                229P    407
120,227,229,-6.283183394108D-2,3.204424506099D0;                     231P    408
508,3,0,171,15,0,0,0,171,14,0,0,0,171,2,1,0;                         233P    409
510,231,1,0,233;                                                     235P    410
110,0D0,1.442820323028D1,0D0,0D0,1.542820323028D1,0D0;               237P    411
110,1.390001701137D1,6.403024667019D0,0D0,1.195638944918D1,          239P    412
7.525178563257D0,0D0;                                                239P    413
120,237,239,-6.283183394108D-2,3.204424506099D0;                     241P    414
508,3,0,171,17,0,0,0,171,16,0,0,0,171,3,1,0;                         243P    415
510,241,1,0,243;                                                     245P    416
128,1,1,1,1,0,0,1,0,0,-2.771281292110D-1,-2.771281292110D-1,         247P    417
1.413353458976D1,1.413353458976D1,-3.000000000388D-1,                247P    418
-3.000000000388D-1,1.530000000004D1,1.530000000004D1,1D0,1D0,        247P    419
1D0,1D0,1.224D1,-7.800000000039D0,-6.789639165670D0,-2.4D-1,         247P    420
-7.800000000039D0,-1.399497052516D1,1.224D1,7.800000000039D0,        247P    421
-6.789639165670D0,-2.4D-1,7.800000000039D0,-1.399497052516D1,        247P    422
-2.771281292110D-1,1.413353458976D1,-3.000000000388D-1,              247P    423
1.530000000004D1;                                                    247P    424
508,6,0,171,13,1,0,0,171,14,1,0,0,171,23,0,0,0,171,38,0,0,0,171,     249P    425
37,0,0,0,171,22,1,0;                                                 249P    426
510,247,1,0,249;                                                     251P    427
128,1,1,1,1,0,0,1,0,0,-2.771281292110D-1,-2.771281292110D-1,         253P    428
1.413353458976D1,1.413353458976D1,-3.000000000388D-1,                253P    429
-3.000000000388D-1,1.530000000004D1,1.530000000004D1,1D0,1D0,        253P    430
1D0,1D0,2.4D-1,-7.800000000039D0,-1.399497052516D1,-1.224D1,         253P    431
-7.800000000039D0,-6.789639165670D0,2.4D-1,7.800000000039D0,         253P    432
-1.399497052516D1,-1.224D1,7.800000000039D0,-6.789639165670D0,       253P    433
-2.771281292110D-1,1.413353458976D1,-3.000000000388D-1,              253P    434
1.530000000004D1;                                                    253P    435
508,6,0,171,15,1,0,0,171,16,1,0,0,171,24,0,0,0,171,40,0,0,0,171,     255P    436
39,0,0,0,171,23,1,0;                                                 255P    437
510,253,1,0,255;                                                     257P    438
128,1,1,1,1,0,0,1,0,0,-2.771281292110D-1,-2.771281292110D-1,         259P    439
1.413353458976D1,1.413353458976D1,-3.000000000755D-1,                259P    440
-3.000000000755D-1,1.530000000008D1,1.530000000008D1,1D0,1D0,        259P    441
1D0,1D0,-1.2D1,-7.800000000076D0,-7.205331359487D0,-1.2D1,           259P    442
-7.800000000076D0,7.205331359487D0,-1.2D1,7.800000000076D0,          259P    443
-7.205331359487D0,-1.2D1,7.800000000076D0,7.205331359487D0,          259P    444
-2.771281292110D-1,1.413353458976D1,-3.000000000755D-1,              259P    445
1.530000000008D1;                                                    259P    446
508,6,0,171,17,1,0,0,171,18,1,0,0,171,19,0,0,0,171,42,0,0,0,171,     261P    447
41,0,0,0,171,24,1,0;                                                 261P    448
510,259,1,0,261;                                                     263P    449
110,0D0,1.442820323028D1,0D0,0D0,1.542820323028D1,0D0;               265P    450
110,1.390001701137D1,6.403024667019D0,0D0,1.195638944918D1,          267P    451
7.525178563257D0,0D0;                                                267P    452
120,265,267,-3.204424506658D0,6.283185288385D-2;                     269P    453
508,3,0,171,7,0,0,0,171,18,0,0,0,171,4,1,0;                          271P    454
510,269,1,0,271;                                                     273P    455
110,0D0,1.442820323028D1,0D0,0D0,1.542820323028D1,0D0;               275P    456
110,1.390001701137D1,6.403024667019D0,0D0,1.195638944918D1,          277P    457
7.525178563257D0,0D0;                                                277P    458
120,275,277,-3.204424506658D0,6.283185288385D-2;                     279P    459
508,3,0,171,9,0,0,0,171,8,0,0,0,171,5,1,0;                           281P    460
510,279,1,0,281;                                                     283P    461
110,0D0,1.442820323028D1,0D0,0D0,1.542820323028D1,0D0;               285P    462
110,1.390001701137D1,6.403024667019D0,0D0,1.195638944918D1,          287P    463
7.525178563257D0,0D0;                                                287P    464
120,285,287,-3.204424506658D0,6.283185288385D-2;                     289P    465
508,3,0,171,12,0,0,0,171,10,0,0,0,171,6,1,0;                         291P    466
510,289,1,0,291;                                                     293P    467
128,1,1,1,1,0,0,1,0,0,-2.771281292110D-1,-2.771281292110D-1,         295P    468
1.413353458976D1,1.413353458976D1,-3.000000000388D-1,                295P    469
-3.000000000388D-1,1.530000000004D1,1.530000000004D1,1D0,1D0,        295P    470
1D0,1D0,-1.224D1,-7.800000000039D0,6.789639165670D0,2.4D-1,          295P    471
-7.800000000039D0,1.399497052516D1,-1.224D1,7.800000000039D0,        295P    472
6.789639165670D0,2.4D-1,7.800000000039D0,1.399497052516D1,           295P    473
-2.771281292110D-1,1.413353458976D1,-3.000000000388D-1,              295P    474
1.530000000004D1;                                                    295P    475
508,6,0,171,7,1,0,0,171,8,1,0,0,171,20,0,0,0,171,32,0,0,0,171,       297P    476
31,0,0,0,171,19,1,0;                                                 297P    477
510,295,1,0,297;                                                     299P    478
128,1,1,1,1,0,0,1,0,0,-2.771281292110D-1,-2.771281292110D-1,         301P    479
1.413353458976D1,1.413353458976D1,-3.000000000388D-1,                301P    480
-3.000000000388D-1,1.530000000004D1,1.530000000004D1,1D0,1D0,        301P    481
1D0,1D0,-2.4D-1,-7.800000000039D0,1.399497052516D1,1.224D1,          301P    482
-7.800000000039D0,6.789639165670D0,-2.4D-1,7.800000000039D0,         301P    483
1.399497052516D1,1.224D1,7.800000000039D0,6.789639165670D0,          301P    484
-2.771281292110D-1,1.413353458976D1,-3.000000000388D-1,              301P    485
1.530000000004D1;                                                    301P    486
508,6,0,171,9,1,0,0,171,10,1,0,0,171,21,0,0,0,171,34,0,0,0,171,      303P    487
33,0,0,0,171,20,1,0;                                                 303P    488
510,301,1,0,303;                                                     305P    489
110,0D0,-1.442820323028D1,0D0,0D0,-1.342820323028D1,0D0;             307P    490
110,1.195638944918D1,-7.525178563257D0,0D0,1.390001701137D1,         309P    491
-6.403024667019D0,0D0;                                               309P    492
120,307,309,-3.204424506662D0,6.283185307180D-2;                     311P    493
508,3,0,171,42,1,0,0,171,31,1,0,0,171,28,0,0;                        313P    494
510,311,1,0,313;                                                     315P    495
110,0D0,-1.442820323028D1,0D0,0D0,-1.342820323028D1,0D0;             317P    496
110,1.195638944918D1,-7.525178563257D0,0D0,1.390001701137D1,         319P    497
-6.403024667019D0,0D0;                                               319P    498
120,317,319,-3.204424506662D0,6.283185307180D-2;                     321P    499
508,3,0,171,32,1,0,0,171,33,1,0,0,171,29,0,0;                        323P    500
510,321,1,0,323;                                                     325P    501
110,0D0,-1.442820323028D1,0D0,0D0,-1.342820323028D1,0D0;             327P    502
110,1.195638944918D1,-7.525178563257D0,0D0,1.390001701137D1,         329P    503
-6.403024667019D0,0D0;                                               329P    504
120,327,329,-3.204424506662D0,6.283185307180D-2;                     331P    505
508,3,0,171,34,1,0,0,171,36,1,0,0,171,30,0,0;                        333P    506
510,331,1,0,333;                                                     335P    507
128,1,1,1,1,0,0,1,0,0,-1.248D1,-1.248D1,1.248D1,1.248D1,             337P    508
-1.247999999993D1,-1.247999999993D1,1.247999999582D1,                337P    509
1.247999999582D1,1D0,1D0,1D0,1D0,1.247999999993D1,7.5D0,1.248D1,     337P    510
1.247999999993D1,7.5D0,-1.248D1,-1.247999999582D1,7.5D0,1.248D1,     337P    511
-1.247999999582D1,7.5D0,-1.248D1,-1.248D1,1.248D1,                   337P    512
-1.247999999993D1,1.247999999582D1;                                  337P    513
508,6,0,171,1,0,0,0,171,6,0,0,0,171,5,0,0,0,171,4,0,0,0,171,3,0,     339P    514
0,0,171,2,0,0;                                                       339P    515
508,2,0,171,43,0,0,0,171,45,0,0;                                     341P    516
510,337,2,0,339,341;                                                 343P    517
110,0D0,2.881197846483D0,0D0,0D0,3.881197846483D0,0D0;               345P    518
110,0D0,6.897468194490D0,-6.956388313269D0,0D0,7.525180759659D0,     347P    519
-8.043618995985D0;                                                   347P    520
120,345,347,-1.633628184289D0,1.633628185114D0;                      349P    521
508,4,0,171,43,1,0,0,171,53,1,0,0,171,44,0,0,0,171,54,0,0;           351P    522
510,349,1,0,351;                                                     353P    523
110,0D0,2.881197846483D0,0D0,0D0,3.881197846483D0,0D0;               355P    524
110,0D0,6.897468194490D0,-6.956388313269D0,0D0,7.525180759659D0,     357P    525
-8.043618995985D0;                                                   357P    526
120,355,357,1.507964469301D0,4.775220838704D0;                       359P    527
508,4,0,171,45,1,0,0,171,54,1,0,0,171,46,0,0,0,171,53,0,0;           361P    528
510,359,1,0,361;                                                     363P    529
110,0D0,-9.825D0,0D0,0D0,-8.825D0,0D0;                               365P    530
110,7D0,-7.199575633117D0,0D0,7D0,7.199575633117D0,0D0;              367P    531
120,365,367,-3.204424506662D0,6.283185307180D-2;                     369P    532
508,4,0,171,46,1,0,0,171,52,0,0,0,171,48,1,0,0,171,51,1,0;           371P    533
510,369,1,0,371;                                                     373P    534
110,0D0,-9.825D0,0D0,0D0,-8.825D0,0D0;                               375P    535
110,7D0,-7.199575633117D0,0D0,7D0,7.199575633117D0,0D0;              377P    536
120,375,377,-6.283185307180D-2,3.204424506662D0;                     379P    537
508,4,0,171,44,1,0,0,171,51,0,0,0,171,50,1,0,0,171,52,1,0;           381P    538
510,379,1,0,381;                                                     383P    539
110,0D0,-2.881197846483D0,0D0,0D0,-3.881197846483D0,0D0;             385P    540
110,0D0,-6.897468194490D0,-6.956388313270D0,0D0,                     387P    541
-7.525180759659D0,-8.043618995985D0;                                 387P    542
120,385,387,-1.633628185114D0,1.633628184289D0;                      389P    543
508,4,0,171,49,1,0,0,171,56,1,0,0,171,50,0,0,0,171,55,0,0;           391P    544
510,389,1,0,391;                                                     393P    545
110,0D0,-2.881197846483D0,0D0,0D0,-3.881197846483D0,0D0;             395P    546
110,0D0,-6.897468194490D0,-6.956388313269D0,0D0,                     397P    547
-7.525180759659D0,-8.043618995985D0;                                 397P    548
120,395,397,-4.775220838704D0,-1.507964469301D0;                     399P    549
508,4,0,171,47,1,0,0,171,55,1,0,0,171,48,0,0,0,171,56,0,0;           401P    550
510,399,1,0,401;                                                     403P    551
514,26,179,0,189,1,199,1,209,1,215,1,225,1,235,1,245,1,251,1,        405P    552
257,1,263,1,273,1,283,1,293,1,299,1,305,1,315,1,325,1,335,1,343,     405P    553
1,353,0,363,0,373,0,383,0,393,0,403,0;                               405P    554
124,1D0,0D0,0D0,0D0,0D0,0D0,1D0,-7.5D0,0D0,-1D0,0D0,0D0;             407P    555
100,0D0,0D0,0D0,8D0,0D0,-8D0,0D0;                                    409P    556
124,-1D0,0D0,0D0,0D0,0D0,0D0,-1D0,7.5D0,0D0,-1D0,0D0,0D0;            411P    557
100,0D0,0D0,0D0,8D0,0D0,-8D0,0D0;                                    413P    558
124,-1D0,0D0,0D0,0D0,0D0,0D0,1D0,-7.5D0,0D0,1D0,0D0,0D0;             415P    559
100,0D0,0D0,0D0,8D0,0D0,-8D0,0D0;                                    417P    560
110,8D0,7.5D0,0D0,8D0,-7.5D0,0D0;                                    419P    561
124,1D0,0D0,0D0,0D0,0D0,0D0,-1D0,7.5D0,0D0,1D0,0D0,0D0;              421P    562
100,0D0,0D0,0D0,8D0,0D0,-8D0,0D0;                                    423P    563
110,-8D0,7.5D0,0D0,-8D0,-7.5D0,0D0;                                  425P    564
502,4,8D0,-7.5D0,0D0,-8D0,-7.5D0,0D0,8D0,7.5D0,0D0,-8D0,7.5D0,       427P    565
0D0;                                                                 427P    566
504,6,409,427,1,427,2,413,427,3,427,4,417,427,2,427,1,423,427,4,     429P    567
427,3,419,427,3,427,1,425,427,4,427,2;                               429P    568
110,0D0,-9.825D0,0D0,0D0,-8.825D0,0D0;                               431P    569
110,8D0,-7.8D0,0D0,8D0,7.8D0,0D0;                                    433P    570
120,431,433,-6.283185307180D-2,3.204424506662D0;                     435P    571
508,4,0,429,1,1,0,0,429,6,0,0,0,429,2,0,0,0,429,5,1,0;               437P    572
510,435,1,0,437;                                                     439P    573
110,0D0,-9.825D0,0D0,0D0,-8.825D0,0D0;                               441P    574
110,8D0,-7.8D0,0D0,8D0,7.8D0,0D0;                                    443P    575
120,441,443,-3.204424506662D0,6.283185307180D-2;                     445P    576
508,4,0,429,3,1,0,0,429,5,0,0,0,429,4,0,0,0,429,6,1,0;               447P    577
510,445,1,0,447;                                                     449P    578
514,2,439,0,449,0;                                                   451P    579
186,405,1,0;                                                         453P    580
S      1G      4D    454P    580                                        T      1
