 PTC IGES file: nut-m08-iso_4034.igs                                    S      1
1H,,1H;,16HNUT-M08-ISO_4034,20Hnut-m08-iso_4034.igs,                    G      1
49HPro/ENGINEER by Parametric Technology Corporation,7H2007160,32,38,7, G      2
38,15,16HNUT-M08-ISO_4034,1.,2,2HMM,32768,0.5,15H20111214.161434,       G      3
0.00223523,22.3532,13HVladimir Zima,7HUnknown,10,0,15H20111214.161434;  G      4
     314       1       1       1       0       0       0       001000200D      1
     314       0       4       1       0                   COLOR       1D      2
     314       2       1       1       0       0       0       001000200D      3
     314       0       1       1       0                   COLOR       2D      4
     314       3       1       1       0       0       0       001000200D      5
     314       0       1       1       0                   COLOR       3D      6
     314       4       1       1       0       0       0       001000200D      7
     314       0       1       1       0                   COLOR       4D      8
     314       5       1       1       0       0       0       001000200D      9
     314       0       8       1       0                   COLOR       5D     10
     314       6       1       1       0       0       0       001000200D     11
     314       0       8       1       0                   COLOR       6D     12
     314       7       1       1       0       0       0       001000200D     13
     314       0       5       1       0                   COLOR       7D     14
     314       8       1       1       0       0       0       001000200D     15
     314       0       8       1       0                   COLOR       8D     16
     124       9       1       1       0       0       0       001000000D     17
     124       0       0       1       0                   XFORM       1D     18
     100      10       1       1       0       0      17       001010000D     19
     100       0       0       1       0                     ARC       1D     20
     124      11       1       1       0       0       0       001000000D     21
     124       0       0       2       0                   XFORM       2D     22
     100      13       1       1       0       0      21       001010000D     23
     100       0       0       1       0                     ARC       2D     24
     124      14       1       1       0       0       0       001000000D     25
     124       0       0       2       0                   XFORM       3D     26
     100      16       1       1       0       0      25       001010000D     27
     100       0       0       1       0                     ARC       3D     28
     124      17       1       1       0       0       0       001000000D     29
     124       0       0       1       0                   XFORM       4D     30
     100      18       1       1       0       0      29       001010000D     31
     100       0       0       1       0                     ARC       4D     32
     124      19       1       1       0       0       0       001000000D     33
     124       0       0       2       0                   XFORM       5D     34
     100      21       1       1       0       0      33       001010000D     35
     100       0       0       1       0                     ARC       5D     36
     124      22       1       1       0       0       0       001000000D     37
     124       0       0       2       0                   XFORM       6D     38
     100      24       1       1       0       0      37       001010000D     39
     100       0       0       1       0                     ARC       6D     40
     124      25       1       1       0       0       0       001000000D     41
     124       0       0       2       0                   XFORM       7D     42
     100      27       1       1       0       0      41       001010000D     43
     100       0       0       1       0                     ARC       7D     44
     124      28       1       1       0       0       0       001000000D     45
     124       0       0       2       0                   XFORM       8D     46
     100      30       1       1       0       0      45       001010000D     47
     100       0       0       1       0                     ARC       8D     48
     126      31       1       1       0       0       0       001010000D     49
     126       0       0      10       0                B_SPLINE       1D     50
     126      41       1       1       0       0       0       001010000D     51
     126       0       0       9       0                B_SPLINE       2D     52
     126      50       1       1       0       0       0       001010000D     53
     126       0       0       9       0                B_SPLINE       3D     54
     110      59       1       1       0       0       0       001010000D     55
     110       0       0       2       0                    LINE       1D     56
     126      61       1       1       0       0       0       001010000D     57
     126       0       0      10       0                B_SPLINE       4D     58
     126      71       1       1       0       0       0       001010000D     59
     126       0       0      10       0                B_SPLINE       5D     60
     126      81       1       1       0       0       0       001010000D     61
     126       0       0      10       0                B_SPLINE       6D     62
     126      91       1       1       0       0       0       001010000D     63
     126       0       0       9       0                B_SPLINE       7D     64
     126     100       1       1       0       0       0       001010000D     65
     126       0       0       9       0                B_SPLINE       8D     66
     110     109       1       1       0       0       0       001010000D     67
     110       0       0       2       0                    LINE       2D     68
     126     111       1       1       0       0       0       001010000D     69
     126       0       0      10       0                B_SPLINE       9D     70
     126     121       1       1       0       0       0       001010000D     71
     126       0       0      10       0                B_SPLINE      10D     72
     126     131       1       1       0       0       0       001010000D     73
     126       0       0       9       0                B_SPLINE      11D     74
     126     140       1       1       0       0       0       001010000D     75
     126       0       0       9       0                B_SPLINE      12D     76
     110     149       1       1       0       0       0       001010000D     77
     110       0       0       2       0                    LINE       3D     78
     126     151       1       1       0       0       0       001010000D     79
     126       0       0      10       0                B_SPLINE      13D     80
     126     161       1       1       0       0       0       001010000D     81
     126       0       0      10       0                B_SPLINE      14D     82
     126     171       1       1       0       0       0       001010000D     83
     126       0       0       9       0                B_SPLINE      15D     84
     126     180       1       1       0       0       0       001010000D     85
     126       0       0       9       0                B_SPLINE      16D     86
     110     189       1       1       0       0       0       001010000D     87
     110       0       0       2       0                    LINE       4D     88
     126     191       1       1       0       0       0       001010000D     89
     126       0       0      10       0                B_SPLINE      17D     90
     126     201       1       1       0       0       0       001010000D     91
     126       0       0      10       0                B_SPLINE      18D     92
     126     211       1       1       0       0       0       001010000D     93
     126       0       0       9       0                B_SPLINE      19D     94
     126     220       1       1       0       0       0       001010000D     95
     126       0       0       9       0                B_SPLINE      20D     96
     110     229       1       1       0       0       0       001010000D     97
     110       0       0       2       0                    LINE       5D     98
     126     231       1       1       0       0       0       001010000D     99
     126       0       0      10       0                B_SPLINE      21D    100
     126     241       1       1       0       0       0       001010000D    101
     126       0       0      10       0                B_SPLINE      22D    102
     126     251       1       1       0       0       0       001010000D    103
     126       0       0       9       0                B_SPLINE      23D    104
     126     260       1       1       0       0       0       001010000D    105
     126       0       0       9       0                B_SPLINE      24D    106
     110     269       1       1       0       0       0       001010000D    107
     110       0       0       2       0                    LINE       6D    108
     124     271       1       1       0       0       0       001000000D    109
     124       0       0       2       0                   XFORM       9D    110
     100     273       1       1       0       0     109       001010000D    111
     100       0       0       1       0                     ARC       9D    112
     124     274       1       1       0       0       0       001000000D    113
     124       0       0       2       0                   XFORM      10D    114
     100     276       1       1       0       0     113       001010000D    115
     100       0       0       1       0                     ARC      10D    116
     124     277       1       1       0       0       0       001000000D    117
     124       0       0       2       0                   XFORM      11D    118
     100     279       1       1       0       0     117       001010000D    119
     100       0       0       1       0                     ARC      11D    120
     124     280       1       1       0       0       0       001000000D    121
     124       0       0       2       0                   XFORM      12D    122
     100     282       1       1       0       0     121       001010000D    123
     100       0       0       1       0                     ARC      12D    124
     124     283       1       1       0       0       0       001000000D    125
     124       0       0       2       0                   XFORM      13D    126
     100     285       1       1       0       0     125       001010000D    127
     100       0       0       1       0                     ARC      13D    128
     124     286       1       1       0       0       0       001000000D    129
     124       0       0       2       0                   XFORM      14D    130
     100     288       1       1       0       0     129       001010000D    131
     100       0       0       1       0                     ARC      14D    132
     124     289       1       1       0       0       0       001000000D    133
     124       0       0       2       0                   XFORM      15D    134
     100     291       1       1       0       0     133       001010000D    135
     100       0       0       1       0                     ARC      15D    136
     124     292       1       1       0       0       0       001000000D    137
     124       0       0       2       0                   XFORM      16D    138
     100     294       1       1       0       0     137       001010000D    139
     100       0       0       1       0                     ARC      16D    140
     110     295       1       1       0       0       0       001010000D    141
     110       0       0       2       0                    LINE       7D    142
     110     297       1       1       0       0       0       001010000D    143
     110       0       0       2       0                    LINE       8D    144
     124     299       1       1       0       0       0       001000000D    145
     124       0       0       2       0                   XFORM      17D    146
     100     301       1       1       0       0     145       001010000D    147
     100       0       0       1       0                     ARC      17D    148
     110     302       1       1       0       0       0       001010000D    149
     110       0       0       2       0                    LINE       9D    150
     124     304       1       1       0       0       0       001000000D    151
     124       0       0       2       0                   XFORM      18D    152
     100     306       1       1       0       0     151       001010000D    153
     100       0       0       1       0                     ARC      18D    154
     110     307       1       1       0       0       0       001010000D    155
     110       0       0       2       0                    LINE      10D    156
     124     309       1       1       0       0       0       001000000D    157
     124       0       0       2       0                   XFORM      19D    158
     100     311       1       1       0       0     157       001010000D    159
     100       0       0       1       0                     ARC      19D    160
     124     312       1       1       0       0       0       001000000D    161
     124       0       0       2       0                   XFORM      20D    162
     100     314       1       1       0       0     161       001010000D    163
     100       0       0       1       0                     ARC      20D    164
     110     315       1       1       0       0       0       001010000D    165
     110       0       0       2       0                    LINE      11D    166
     110     317       1       1       0       0       0       001010000D    167
     110       0       0       2       0                    LINE      12D    168
     502     319       1       1       0       0       0       001010000D    169
     502       0       0      20       1                  VERTEX       1D    170
     504     339       1       1       0       0       0       000010001D    171
     504       0       0      16       1                    EDGE       1D    172
     128     355       1       1       0       0       0       001010000D    173
     128       0       0       6       0                  SPLSRF       1D    174
     508     361       1       1       0       0       0       001010000D    175
     508       0       0       2       1                EDGELOOP       1D    176
     508     363       1       1       0       0       0       001010000D    177
     508       0       0       1       1                EDGELOOP       2D    178
     510     364       1       1       0       0       0       000010000D    179
     510       0       0       1       1                    FACE       1D    180
     110     365       1       1       0       0       0       001010000D    181
     110       0       0       1       0                    LINE      13D    182
     110     366       1       1       0       0       0       001010000D    183
     110       0       0       2       0                    LINE      14D    184
     120     368       1       1       0       0       0       001010000D    185
     120       0       0       1       0                    SREV       1D    186
     508     369       1       1       0       0       0       001010000D    187
     508       0       0       1       1                EDGELOOP       3D    188
     510     370       1       1       0       0       0       000010000D    189
     510       0       0       1       1                    FACE       2D    190
     110     371       1       1       0       0       0       001010000D    191
     110       0       0       1       0                    LINE      15D    192
     110     372       1       1       0       0       0       001010000D    193
     110       0       0       2       0                    LINE      16D    194
     120     374       1       1       0       0       0       001010000D    195
     120       0       0       1       0                    SREV       2D    196
     508     375       1       1       0       0       0       001010000D    197
     508       0       0       1       1                EDGELOOP       4D    198
     510     376       1       1       0       0       0       000010000D    199
     510       0       0       1       1                    FACE       3D    200
     110     377       1       1       0       0       0       001010000D    201
     110       0       0       1       0                    LINE      17D    202
     110     378       1       1       0       0       0       001010000D    203
     110       0       0       2       0                    LINE      18D    204
     120     380       1       1       0       0       0       001010000D    205
     120       0       0       1       0                    SREV       3D    206
     508     381       1       1       0       0       0       001010000D    207
     508       0       0       1       1                EDGELOOP       5D    208
     510     382       1       1       0       0       0       000010000D    209
     510       0       0       1       1                    FACE       4D    210
     128     383       1       1       0       0       0       001010000D    211
     128       0       0       8       0                  SPLSRF       2D    212
     508     391       1       1       0       0       0       001010000D    213
     508       0       0       2       1                EDGELOOP       6D    214
     510     393       1       1       0       0       0       000010000D    215
     510       0       0       1       1                    FACE       5D    216
     110     394       1       1       0       0       0       001010000D    217
     110       0       0       1       0                    LINE      19D    218
     110     395       1       1       0       0       0       001010000D    219
     110       0       0       2       0                    LINE      20D    220
     120     397       1       1       0       0       0       001010000D    221
     120       0       0       1       0                    SREV       4D    222
     508     398       1       1       0       0       0       001010000D    223
     508       0       0       1       1                EDGELOOP       7D    224
     510     399       1       1       0       0       0       000010000D    225
     510       0       0       1       1                    FACE       6D    226
     110     400       1       1       0       0       0       001010000D    227
     110       0       0       1       0                    LINE      21D    228
     110     401       1       1       0       0       0       001010000D    229
     110       0       0       2       0                    LINE      22D    230
     120     403       1       1       0       0       0       001010000D    231
     120       0       0       1       0                    SREV       5D    232
     508     404       1       1       0       0       0       001010000D    233
     508       0       0       1       1                EDGELOOP       8D    234
     510     405       1       1       0       0       0       000010000D    235
     510       0       0       1       1                    FACE       7D    236
     110     406       1       1       0       0       0       001010000D    237
     110       0       0       1       0                    LINE      23D    238
     110     407       1       1       0       0       0       001010000D    239
     110       0       0       2       0                    LINE      24D    240
     120     409       1       1       0       0       0       001010000D    241
     120       0       0       1       0                    SREV       6D    242
     508     410       1       1       0       0       0       001010000D    243
     508       0       0       1       1                EDGELOOP       9D    244
     510     411       1       1       0       0       0       000010000D    245
     510       0       0       1       1                    FACE       8D    246
     128     412       1       1       0       0       0       001010000D    247
     128       0       0       8       0                  SPLSRF       3D    248
     508     420       1       1       0       0       0       001010000D    249
     508       0       0       2       1                EDGELOOP      10D    250
     510     422       1       1       0       0       0       000010000D    251
     510       0       0       1       1                    FACE       9D    252
     128     423       1       1       0       0       0       001010000D    253
     128       0       0       8       0                  SPLSRF       4D    254
     508     431       1       1       0       0       0       001010000D    255
     508       0       0       2       1                EDGELOOP      11D    256
     510     433       1       1       0       0       0       000010000D    257
     510       0       0       1       1                    FACE      10D    258
     128     434       1       1       0       0       0       001010000D    259
     128       0       0       8       0                  SPLSRF       5D    260
     508     442       1       1       0       0       0       001010000D    261
     508       0       0       2       1                EDGELOOP      12D    262
     510     444       1       1       0       0       0       000010000D    263
     510       0       0       1       1                    FACE      11D    264
     110     445       1       1       0       0       0       001010000D    265
     110       0       0       1       0                    LINE      25D    266
     110     446       1       1       0       0       0       001010000D    267
     110       0       0       2       0                    LINE      26D    268
     120     448       1       1       0       0       0       001010000D    269
     120       0       0       1       0                    SREV       7D    270
     508     449       1       1       0       0       0       001010000D    271
     508       0       0       1       1                EDGELOOP      13D    272
     510     450       1       1       0       0       0       000010000D    273
     510       0       0       1       1                    FACE      12D    274
     110     451       1       1       0       0       0       001010000D    275
     110       0       0       1       0                    LINE      27D    276
     110     452       1       1       0       0       0       001010000D    277
     110       0       0       2       0                    LINE      28D    278
     120     454       1       1       0       0       0       001010000D    279
     120       0       0       1       0                    SREV       8D    280
     508     455       1       1       0       0       0       001010000D    281
     508       0       0       1       1                EDGELOOP      14D    282
     510     456       1       1       0       0       0       000010000D    283
     510       0       0       1       1                    FACE      13D    284
     110     457       1       1       0       0       0       001010000D    285
     110       0       0       1       0                    LINE      29D    286
     110     458       1       1       0       0       0       001010000D    287
     110       0       0       2       0                    LINE      30D    288
     120     460       1       1       0       0       0       001010000D    289
     120       0       0       1       0                    SREV       9D    290
     508     461       1       1       0       0       0       001010000D    291
     508       0       0       1       1                EDGELOOP      15D    292
     510     462       1       1       0       0       0       000010000D    293
     510       0       0       1       1                    FACE      14D    294
     128     463       1       1       0       0       0       001010000D    295
     128       0       0       8       0                  SPLSRF       6D    296
     508     471       1       1       0       0       0       001010000D    297
     508       0       0       2       1                EDGELOOP      16D    298
     510     473       1       1       0       0       0       000010000D    299
     510       0       0       1       1                    FACE      15D    300
     128     474       1       1       0       0       0       001010000D    301
     128       0       0       8       0                  SPLSRF       7D    302
     508     482       1       1       0       0       0       001010000D    303
     508       0       0       2       1                EDGELOOP      17D    304
     510     484       1       1       0       0       0       000010000D    305
     510       0       0       1       1                    FACE      16D    306
     110     485       1       1       0       0       0       001010000D    307
     110       0       0       1       0                    LINE      31D    308
     110     486       1       1       0       0       0       001010000D    309
     110       0       0       2       0                    LINE      32D    310
     120     488       1       1       0       0       0       001010000D    311
     120       0       0       1       0                    SREV      10D    312
     508     489       1       1       0       0       0       001010000D    313
     508       0       0       1       1                EDGELOOP      18D    314
     510     490       1       1       0       0       0       000010000D    315
     510       0       0       1       1                    FACE      17D    316
     110     491       1       1       0       0       0       001010000D    317
     110       0       0       1       0                    LINE      33D    318
     110     492       1       1       0       0       0       001010000D    319
     110       0       0       2       0                    LINE      34D    320
     120     494       1       1       0       0       0       001010000D    321
     120       0       0       1       0                    SREV      11D    322
     508     495       1       1       0       0       0       001010000D    323
     508       0       0       1       1                EDGELOOP      19D    324
     510     496       1       1       0       0       0       000010000D    325
     510       0       0       1       1                    FACE      18D    326
     110     497       1       1       0       0       0       001010000D    327
     110       0       0       1       0                    LINE      35D    328
     110     498       1       1       0       0       0       001010000D    329
     110       0       0       2       0                    LINE      36D    330
     120     500       1       1       0       0       0       001010000D    331
     120       0       0       1       0                    SREV      12D    332
     508     501       1       1       0       0       0       001010000D    333
     508       0       0       1       1                EDGELOOP      20D    334
     510     502       1       1       0       0       0       000010000D    335
     510       0       0       1       1                    FACE      19D    336
     128     503       1       1       0       0       0       001010000D    337
     128       0       0       6       0                  SPLSRF       8D    338
     508     509       1       1       0       0       0       001010000D    339
     508       0       0       2       1                EDGELOOP      21D    340
     508     511       1       1       0       0       0       001010000D    341
     508       0       0       1       1                EDGELOOP      22D    342
     510     512       1       1       0       0       0       000010000D    343
     510       0       0       1       1                    FACE      20D    344
     110     513       1       1       0       0       0       001010000D    345
     110       0       0       1       0                    LINE      37D    346
     110     514       1       1       0       0       0       001010000D    347
     110       0       0       2       0                    LINE      38D    348
     120     516       1       1       0       0       0       001010000D    349
     120       0       0       1       0                    SREV      13D    350
     508     517       1       1       0       0       0       001010000D    351
     508       0       0       1       1                EDGELOOP      23D    352
     510     518       1       1       0       0       0       000010000D    353
     510       0       0       1       1                    FACE      21D    354
     110     519       1       1       0       0       0       001010000D    355
     110       0       0       1       0                    LINE      39D    356
     110     520       1       1       0       0       0       001010000D    357
     110       0       0       2       0                    LINE      40D    358
     120     522       1       1       0       0       0       001010000D    359
     120       0       0       1       0                    SREV      14D    360
     508     523       1       1       0       0       0       001010000D    361
     508       0       0       1       1                EDGELOOP      24D    362
     510     524       1       1       0       0       0       000010000D    363
     510       0       0       1       1                    FACE      22D    364
     110     525       1       1       0       0       0       001010000D    365
     110       0       0       1       0                    LINE      41D    366
     110     526       1       1       0       0       0       001010000D    367
     110       0       0       1       0                    LINE      42D    368
     120     527       1       1       0       0       0       001010000D    369
     120       0       0       1       0                    SREV      15D    370
     508     528       1       1       0       0       0       001010000D    371
     508       0       0       1       1                EDGELOOP      25D    372
     510     529       1       1       0       0       0       000010000D    373
     510       0       0       1       1                    FACE      23D    374
     110     530       1       1       0       0       0       001010000D    375
     110       0       0       1       0                    LINE      43D    376
     110     531       1       1       0       0       0       001010000D    377
     110       0       0       1       0                    LINE      44D    378
     120     532       1       1       0       0       0       001010000D    379
     120       0       0       1       0                    SREV      16D    380
     508     533       1       1       0       0       0       001010000D    381
     508       0       0       1       1                EDGELOOP      26D    382
     510     534       1       1       0       0       0       000010000D    383
     510       0       0       1       1                    FACE      24D    384
     110     535       1       1       0       0       0       001010000D    385
     110       0       0       1       0                    LINE      45D    386
     110     536       1       1       0       0       0       001010000D    387
     110       0       0       2       0                    LINE      46D    388
     120     538       1       1       0       0       0       001010000D    389
     120       0       0       1       0                    SREV      17D    390
     508     539       1       1       0       0       0       001010000D    391
     508       0       0       1       1                EDGELOOP      27D    392
     510     540       1       1       0       0       0       000010000D    393
     510       0       0       1       1                    FACE      25D    394
     110     541       1       1       0       0       0       001010000D    395
     110       0       0       1       0                    LINE      47D    396
     110     542       1       1       0       0       0       001010000D    397
     110       0       0       2       0                    LINE      48D    398
     120     544       1       1       0       0       0       001010000D    399
     120       0       0       1       0                    SREV      18D    400
     508     545       1       1       0       0       0       001010000D    401
     508       0       0       1       1                EDGELOOP      28D    402
     510     546       1       1       0       0       0       000010000D    403
     510       0       0       1       1                    FACE      26D    404
     514     547       1       1       0       0       0       000010000D    405
     514       0       0       3       1                   SHELL       1D    406
     124     550       1       1       0       0       0       001000000D    407
     124       0       0       1       0                   XFORM      21D    408
     100     551       1       1       0       0     407       001010000D    409
     100       0       0       1       0                     ARC      21D    410
     124     552       1       1       0       0       0       001000000D    411
     124       0       0       1       0                   XFORM      22D    412
     100     553       1       1       0       0     411       001010000D    413
     100       0       0       1       0                     ARC      22D    414
     124     554       1       1       0       0       0       001000000D    415
     124       0       0       1       0                   XFORM      23D    416
     100     555       1       1       0       0     415       001010000D    417
     100       0       0       1       0                     ARC      23D    418
     110     556       1       1       0       0       0       001010000D    419
     110       0       0       1       0                    LINE      49D    420
     124     557       1       1       0       0       0       001000000D    421
     124       0       0       1       0                   XFORM      24D    422
     100     558       1       1       0       0     421       001010000D    423
     100       0       0       1       0                     ARC      24D    424
     110     559       1       1       0       0       0       001010000D    425
     110       0       0       1       0                    LINE      50D    426
     502     560       1       1       0       0       0       001010000D    427
     502       0       0       2       1                  VERTEX       2D    428
     504     562       1       1       0       0       0       000010001D    429
     504       0       0       2       1                    EDGE       2D    430
     110     564       1       1       0       0       0       001010000D    431
     110       0       0       1       0                    LINE      51D    432
     110     565       1       1       0       0       0       001010000D    433
     110       0       0       1       0                    LINE      52D    434
     120     566       1       1       0       0       0       001010000D    435
     120       0       0       1       0                    SREV      19D    436
     508     567       1       1       0       0       0       001010000D    437
     508       0       0       1       1                EDGELOOP      29D    438
     510     568       1       1       0       0       0       000010000D    439
     510       0       0       1       1                    FACE      27D    440
     110     569       1       1       0       0       0       001010000D    441
     110       0       0       1       0                    LINE      53D    442
     110     570       1       1       0       0       0       001010000D    443
     110       0       0       1       0                    LINE      54D    444
     120     571       1       1       0       0       0       001010000D    445
     120       0       0       1       0                    SREV      20D    446
     508     572       1       1       0       0       0       001010000D    447
     508       0       0       1       1                EDGELOOP      30D    448
     510     573       1       1       0       0       0       000010000D    449
     510       0       0       1       1                    FACE      28D    450
     514     574       1       1       0       0       0       000000000D    451
     514       0       0       1       1                   SHELL       2D    452
     186     575       1       1       0       0       0       000000000D    453
     186       0       0       1       0                    MSBR       1D    454
314,1.1D0,1.2D0,1D2;                                                   1P      1
314,1.1D1,1.1D1,1.1D1;                                                 3P      2
314,3.92D1,1.2D0,1.2D0;                                                5P      3
314,4.1D1,0D0,2.2D1;                                                   7P      4
314,8.784D1,9.49D1,1D2;                                                9P      5
314,9.6D1,9.6D1,9.6D1;                                                11P      6
314,9.8D1,6.27D1,0D0;                                                 13P      7
314,1D2,1D2,9.49D1;                                                   15P      8
124,1D0,0D0,0D0,0D0,0D0,0D0,1D0,-3.5D0,0D0,-1D0,0D0,0D0;              17P      9
100,0D0,0D0,0D0,6.5D0,0D0,3.250000000049D0,5.629165124570D0;          19P     10
124,5.000000000076D-1,-8.660254037801D-1,0D0,0D0,0D0,0D0,1D0,         21P     11
-3.5D0,-8.660254037801D-1,-5.000000000076D-1,0D0,0D0;                 21P     12
100,0D0,0D0,0D0,6.5D0,0D0,3.249999999999D0,5.629165124600D0;          23P     13
124,-4.999999999927D-1,-8.660254037887D-1,0D0,0D0,0D0,0D0,1D0,        25P     14
-3.5D0,-8.660254037887D-1,4.999999999927D-1,0D0,0D0;                  25P     15
100,0D0,0D0,0D0,6.5D0,0D0,3.249999999952D0,5.629165124626D0;          27P     16
124,-1D0,0D0,0D0,0D0,0D0,0D0,1D0,-3.5D0,0D0,1D0,0D0,0D0;              29P     17
100,0D0,0D0,0D0,6.5D0,0D0,3.250000000049D0,5.629165124570D0;          31P     18
124,-5.000000000076D-1,8.660254037801D-1,0D0,0D0,0D0,0D0,1D0,         33P     19
-3.5D0,8.660254037801D-1,5.000000000076D-1,0D0,0D0;                   33P     20
100,0D0,0D0,0D0,6.5D0,0D0,3.249999999999D0,5.629165124600D0;          35P     21
124,4.999999999927D-1,8.660254037887D-1,0D0,0D0,0D0,0D0,1D0,          37P     22
-3.5D0,8.660254037887D-1,-4.999999999927D-1,0D0,0D0;                  37P     23
100,0D0,0D0,0D0,6.5D0,0D0,3.249999999952D0,5.629165124626D0;          39P     24
124,-1D0,0D0,0D0,0D0,0D0,0D0,1D0,-3.499998355610D0,0D0,1D0,0D0,       41P     25
0D0;                                                                  41P     26
100,0D0,0D0,0D0,3.899999381397D0,0D0,-3.899999381397D0,0D0;           43P     27
124,1D0,0D0,0D0,0D0,0D0,0D0,1D0,-3.499998355610D0,0D0,-1D0,0D0,       45P     28
0D0;                                                                  45P     29
100,0D0,0D0,0D0,3.899999381397D0,0D0,-3.899999381397D0,0D0;           47P     30
126,7,3,0,0,1,0,0D0,0D0,0D0,0D0,2D-1,4D-1,6D-1,8D-1,1D0,1D0,1D0,      49P     31
1D0,1D0,1D0,1D0,1D0,1D0,1D0,1D0,1D0,6.500000003545D0,                 49P     32
3.500000000831D0,-2.632208472724D-8,6.500000003545D0,                 49P     33
3.500000000831D0,-2.479242568714D-1,6.499999998355D0,                 49P     34
3.483554357173D0,-7.433737290732D-1,6.500000000441D0,                 49P     35
3.410914694120D0,-1.484585024277D0,6.499999999881D0,                  49P     36
3.292912815139D0,-2.226132412012D0,6.500000000034D0,                  49P     37
3.132495435027D0,-2.973084263208D0,6.5D0,2.995169335833D0,            49P     38
-3.490454469914D0,6.5D0,2.919443416399D0,-3.752776749733D0,0D0,       49P     39
1D0,0D0,0D0,1D0;                                                      49P     40
126,7,3,0,0,1,0,0D0,0D0,0D0,0D0,2D-1,4D-1,6D-1,8D-1,1D0,1D0,1D0,      51P     41
1D0,1D0,1D0,1D0,1D0,1D0,1D0,1D0,1D0,6.500000000002D0,                 51P     42
-3.500000000010D0,-1.086575273926D-12,6.500000000002D0,               51P     43
-3.500000000010D0,-2.479242377370D-1,6.499999999999D0,                51P     44
-3.483554364329D0,-7.433736139993D-1,6.5D0,-3.410914701939D0,         51P     45
-1.484584973362D0,6.5D0,-3.292912823189D0,-2.226132369183D0,          51P     46
6.5D0,-3.132495440338D0,-2.973084243193D0,6.5D0,                      51P     47
-2.995169337849D0,-3.490454462931D0,6.5D0,-2.919443416399D0,          51P     48
-3.752776749733D0,0D0,1D0,0D0,0D0,1D0;                                51P     49
126,7,3,0,0,1,0,0D0,0D0,0D0,0D0,2D-1,4D-1,6D-1,8D-1,1D0,1D0,1D0,      53P     50
1D0,1D0,1D0,1D0,1D0,1D0,1D0,1D0,1D0,6.5D0,-2.919443416399D0,          53P     51
3.752776749733D0,6.5D0,-2.995891219913D0,3.487953790106D0,6.5D0,      53P     52
-3.134088430503D0,2.966734113301D0,6.5D0,-3.294417286257D0,           53P     53
2.218137636728D0,6.5D0,-3.411775115582D0,1.477576552600D0,            53P     54
6.499999999999D0,-3.483740608061D0,7.393945938993D-1,                 53P     55
6.500000000002D0,-3.500000000010D0,2.464664657583D-1,                 53P     56
6.500000000002D0,-3.500000000010D0,-1.086575273926D-12,0D0,1D0,       53P     57
0D0,0D0,1D0;                                                          53P     58
110,6.5D0,-2.919443416399D0,3.752776749733D0,6.5D0,                   55P     59
2.919443416399D0,3.752776749733D0;                                    55P     60
126,7,3,0,0,1,0,0D0,0D0,0D0,0D0,2D-1,4D-1,6D-1,8D-1,1D0,1D0,1D0,      57P     61
1D0,1D0,1D0,1D0,1D0,1D0,1D0,1D0,1D0,6.5D0,2.919443416399D0,           57P     62
3.752776749733D0,6.5D0,2.995891219925D0,3.487953790067D0,             57P     63
6.500000000034D0,3.134088430540D0,2.966734113422D0,                   57P     64
6.499999999881D0,3.294417286273D0,2.218137635677D0,                   57P     65
6.500000000441D0,3.411775115727D0,1.477576555340D0,                   57P     66
6.499999998355D0,3.483740607718D0,7.393945819924D-1,                  57P     67
6.500000003545D0,3.500000000829D0,2.464664899418D-1,                  57P     68
6.500000003545D0,3.500000000831D0,-2.632208472724D-8,0D0,1D0,         57P     69
0D0,0D0,1D0;                                                          57P     70
126,7,3,0,0,1,0,0D0,0D0,0D0,0D0,2D-1,4D-1,6D-1,8D-1,1D0,1D0,1D0,      59P     71
1D0,1D0,1D0,1D0,1D0,1D0,1D0,1D0,1D0,6.5D0,2.919443416399D0,           59P     72
-3.752776749733D0,6.268883142340D0,2.996482368952D0,                  59P     73
-3.886212129717D0,5.814757156821D0,3.135393448632D0,                  59P     74
-4.148401889702D0,5.165251142330D0,3.295656023346D0,                  59P     75
-4.523394362009D0,4.524564274784D0,3.412489205113D0,                  59P     76
-4.893295097453D0,3.887468932229D0,3.483894404239D0,                  59P     77
-5.261122264976D0,3.462394873884D0,3.500000000001D0,                  59P     78
-5.506538886989D0,3.250000000036D0,3.500000000001D0,                  59P     79
-5.629165124579D0,0D0,1D0,0D0,0D0,1D0;                                59P     80
126,7,3,0,0,1,0,0D0,0D0,0D0,0D0,2D-1,4D-1,6D-1,8D-1,1D0,1D0,1D0,      61P     81
1D0,1D0,1D0,1D0,1D0,1D0,1D0,1D0,1D0,3.250000000036D0,                 61P     82
3.500000000001D0,-5.629165124579D0,3.037549487543D0,                  61P     83
3.500000000001D0,-5.751823485157D0,2.612384920114D0,                  61P     84
3.483885456484D0,-5.997292362610D0,1.975229224510D0,                  61P     85
3.412460400169D0,-6.365154374983D0,1.334518063484D0,                  61P     86
3.295602999687D0,-6.735069136274D0,6.852699273573D-1,                 61P     87
3.135397408747D0,-7.109912722438D0,2.311346618788D-1,                 61P     88
2.996488303692D0,-7.372107840210D0,0D0,2.919443416399D0,              61P     89
-7.505553499465D0,0D0,1D0,0D0,0D0,1D0;                                61P     90
126,7,3,0,0,1,0,0D0,0D0,0D0,0D0,2D-1,4D-1,6D-1,8D-1,1D0,1D0,1D0,      63P     91
1D0,1D0,1D0,1D0,1D0,1D0,1D0,1D0,1D0,3.250000000020D0,-3.5D0,          63P     92
-5.629165124588D0,3.037549487559D0,-3.5D0,-5.751823485147D0,          63P     93
2.612384920106D0,-3.483885456485D0,-5.997292362614D0,                 63P     94
1.975229224512D0,-3.412460400169D0,-6.365154374982D0,                 63P     95
1.334518063484D0,-3.295602999687D0,-6.735069136274D0,                 63P     96
6.852699273575D-1,-3.135397408747D0,-7.109912722438D0,                63P     97
2.311346618788D-1,-2.996488303692D0,-7.372107840210D0,0D0,            63P     98
-2.919443416399D0,-7.505553499465D0,0D0,1D0,0D0,0D0,1D0;              63P     99
126,7,3,0,0,1,0,0D0,0D0,0D0,0D0,2D-1,4D-1,6D-1,8D-1,1D0,1D0,1D0,      65P    100
1D0,1D0,1D0,1D0,1D0,1D0,1D0,1D0,1D0,6.5D0,-2.919443416399D0,          65P    101
-3.752776749733D0,6.268883142336D0,-2.996482368954D0,                 65P    102
-3.886212129719D0,5.814757156808D0,-3.135393448636D0,                 65P    103
-4.148401889710D0,5.165251142303D0,-3.295656023352D0,                 65P    104
-4.523394362024D0,4.524564274751D0,-3.412489205119D0,                 65P    105
-4.893295097472D0,3.887468932156D0,-3.483894404244D0,                 65P    106
-5.261122265018D0,3.462394873872D0,-3.5D0,-5.506538886995D0,          65P    107
3.250000000020D0,-3.5D0,-5.629165124588D0,0D0,1D0,0D0,0D0,1D0;        65P    108
110,6.5D0,-2.919443416399D0,-3.752776749733D0,6.5D0,                  67P    109
2.919443416399D0,-3.752776749733D0;                                   67P    110
126,7,3,0,0,1,0,0D0,0D0,0D0,0D0,2D-1,4D-1,6D-1,8D-1,1D0,1D0,1D0,      69P    111
1D0,1D0,1D0,1D0,1D0,1D0,1D0,1D0,1D0,0D0,2.919443416399D0,             69P    112
-7.505553499465D0,-2.311168576622D-1,2.996482368953D0,                69P    113
-7.372118119480D0,-6.852428429970D-1,3.135393448634D0,                69P    114
-7.109928359618D0,-1.334748858348D0,3.295656023349D0,                 69P    115
-6.734935886737D0,-1.975435722774D0,3.412489205117D0,                 69P    116
-6.365035153379D0,-2.612531076995D0,3.483894404242D0,                 69P    117
-5.997207978061D0,-3.037605106339D0,3.500000000001D0,                 69P    118
-5.751791375427D0,-3.249999980189D0,3.500000000001D0,                 69P    119
-5.629165137835D0,0D0,1D0,0D0,0D0,1D0;                                69P    120
126,7,3,0,0,1,0,0D0,0D0,0D0,0D0,2D-1,4D-1,6D-1,8D-1,1D0,1D0,1D0,      71P    121
1D0,1D0,1D0,1D0,1D0,1D0,1D0,1D0,1D0,-3.249999980189D0,                71P    122
3.500000000001D0,-5.629165137835D0,-3.462450492664D0,                 71P    123
3.500000000001D0,-5.506506777268D0,-3.887615089073D0,                 71P    124
3.483885456484D0,-5.261037880449D0,-4.524770773028D0,                 71P    125
3.412460400169D0,-4.893175875860D0,-5.165481937179D0,                 71P    126
3.295602999687D0,-4.523261112481D0,-5.814730072453D0,                 71P    127
3.135397408747D0,-4.148417526886D0,-6.268865338121D0,                 71P    128
2.996488303692D0,-3.886222408987D0,-6.5D0,2.919443416399D0,           71P    129
-3.752776749733D0,0D0,1D0,0D0,0D0,1D0;                                71P    130
126,7,3,0,0,1,0,0D0,0D0,0D0,0D0,2D-1,4D-1,6D-1,8D-1,1D0,1D0,1D0,      73P    131
1D0,1D0,1D0,1D0,1D0,1D0,1D0,1D0,1D0,-3.249999999981D0,-3.5D0,         73P    132
-5.629165124611D0,-3.462450512443D0,-3.5D0,-5.506506764052D0,         73P    133
-3.887615079893D0,-3.483885456485D0,-5.261037886583D0,                73P    134
-4.524770775488D0,-3.412460400169D0,-4.893175874216D0,                73P    135
-5.165481936516D0,-3.295602999687D0,-4.523261112923D0,                73P    136
-5.814730072643D0,-3.135397408747D0,-4.148417526760D0,                73P    137
-6.268865338121D0,-2.996488303692D0,-3.886222408987D0,-6.5D0,         73P    138
-2.919443416399D0,-3.752776749733D0,0D0,1D0,0D0,0D0,1D0;              73P    139
126,7,3,0,0,1,0,0D0,0D0,0D0,0D0,2D-1,4D-1,6D-1,8D-1,1D0,1D0,1D0,      75P    140
1D0,1D0,1D0,1D0,1D0,1D0,1D0,1D0,1D0,0D0,-2.919443416399D0,            75P    141
-7.505553499465D0,-2.311168576641D-1,-2.996482368954D0,               75P    142
-7.372118119479D0,-6.852428431918D-1,-3.135393448636D0,               75P    143
-7.109928359488D0,-1.334748857697D0,-3.295656023352D0,                75P    144
-6.734935887173D0,-1.975435725249D0,-3.412489205119D0,                75P    145
-6.365035151726D0,-2.612531067844D0,-3.483894404244D0,                75P    146
-5.997207984179D0,-3.037605126129D0,-3.5D0,-5.751791362204D0,         75P    147
-3.249999999981D0,-3.5D0,-5.629165124611D0,0D0,1D0,0D0,0D0,1D0;       75P    148
110,0D0,-2.919443416399D0,-7.505553499465D0,0D0,                      77P    149
2.919443416399D0,-7.505553499465D0;                                   77P    150
126,7,3,0,0,1,0,0D0,0D0,0D0,0D0,2D-1,4D-1,6D-1,8D-1,1D0,1D0,1D0,      79P    151
1D0,1D0,1D0,1D0,1D0,1D0,1D0,1D0,1D0,-6.5D0,2.919443416399D0,          79P    152
-3.752776749733D0,-6.5D0,2.995891219924D0,-3.487953790068D0,          79P    153
-6.500000000034D0,3.134088430538D0,-2.966734113439D0,                 79P    154
-6.499999999881D0,3.294417286272D0,-2.218137635647D0,                 79P    155
-6.500000000441D0,3.411775115722D0,-1.477576555508D0,                 79P    156
-6.499999998355D0,3.483740607727D0,-7.393945814452D-1,                79P    157
-6.500000003545D0,3.500000000805D0,-2.464664911899D-1,                79P    158
-6.500000003545D0,3.500000000808D0,2.364605063541D-8,0D0,1D0,         79P    159
0D0,0D0,1D0;                                                          79P    160
126,7,3,0,0,1,0,0D0,0D0,0D0,0D0,2D-1,4D-1,6D-1,8D-1,1D0,1D0,1D0,      81P    161
1D0,1D0,1D0,1D0,1D0,1D0,1D0,1D0,1D0,-6.500000003545D0,                81P    162
3.500000000808D0,2.364605063541D-8,-6.500000003545D0,                 81P    163
3.500000000808D0,2.479242544037D-1,-6.499999998355D0,                 81P    164
3.483554357376D0,7.433737267156D-1,-6.500000000441D0,                 81P    165
3.410914694340D0,1.484585022598D0,-6.499999999881D0,                  81P    166
3.292912815367D0,2.226132410866D0,-6.500000000034D0,                  81P    167
3.132495435177D0,2.973084262624D0,-6.5D0,2.995169335890D0,            81P    168
3.490454469717D0,-6.5D0,2.919443416399D0,3.752776749733D0,0D0,        81P    169
1D0,0D0,0D0,1D0;                                                      81P    170
126,7,3,0,0,1,0,0D0,0D0,0D0,0D0,2D-1,4D-1,6D-1,8D-1,1D0,1D0,1D0,      83P    171
1D0,1D0,1D0,1D0,1D0,1D0,1D0,1D0,1D0,-6.500000000002D0,                83P    172
-3.500000000010D0,1.086963852027D-12,-6.500000000002D0,               83P    173
-3.500000000010D0,2.479242377370D-1,-6.499999999999D0,                83P    174
-3.483554364329D0,7.433736139993D-1,-6.5D0,-3.410914701939D0,         83P    175
1.484584973362D0,-6.5D0,-3.292912823189D0,2.226132369183D0,           83P    176
-6.5D0,-3.132495440338D0,2.973084243193D0,-6.5D0,                     83P    177
-2.995169337849D0,3.490454462931D0,-6.5D0,-2.919443416399D0,          83P    178
3.752776749733D0,0D0,1D0,0D0,0D0,1D0;                                 83P    179
126,7,3,0,0,1,0,0D0,0D0,0D0,0D0,2D-1,4D-1,6D-1,8D-1,1D0,1D0,1D0,      85P    180
1D0,1D0,1D0,1D0,1D0,1D0,1D0,1D0,1D0,-6.5D0,-2.919443416399D0,         85P    181
-3.752776749733D0,-6.5D0,-2.995891219913D0,-3.487953790106D0,         85P    182
-6.5D0,-3.134088430503D0,-2.966734113301D0,-6.5D0,                    85P    183
-3.294417286257D0,-2.218137636728D0,-6.5D0,-3.411775115582D0,         85P    184
-1.477576552600D0,-6.499999999999D0,-3.483740608061D0,                85P    185
-7.393945938993D-1,-6.500000000002D0,-3.500000000010D0,               85P    186
-2.464664657583D-1,-6.500000000002D0,-3.500000000010D0,               85P    187
1.086963852027D-12,0D0,1D0,0D0,0D0,1D0;                               85P    188
110,-6.5D0,-2.919443416399D0,-3.752776749733D0,-6.5D0,                87P    189
2.919443416399D0,-3.752776749733D0;                                   87P    190
126,7,3,0,0,1,0,0D0,0D0,0D0,0D0,2D-1,4D-1,6D-1,8D-1,1D0,1D0,1D0,      89P    191
1D0,1D0,1D0,1D0,1D0,1D0,1D0,1D0,1D0,-6.5D0,2.919443416399D0,          89P    192
3.752776749733D0,-6.268883142340D0,2.996482368953D0,                  89P    193
3.886212129717D0,-5.814757156820D0,3.135393448632D0,                  89P    194
4.148401889703D0,-5.165251142329D0,3.295656023346D0,                  89P    195
4.523394362010D0,-4.524564274782D0,3.412489205114D0,                  89P    196
4.893295097454D0,-3.887468932225D0,3.483894404239D0,                  89P    197
5.261122264978D0,-3.462394873883D0,3.500000000001D0,                  89P    198
5.506538886989D0,-3.250000000035D0,3.500000000001D0,                  89P    199
5.629165124580D0,0D0,1D0,0D0,0D0,1D0;                                 89P    200
126,7,3,0,0,1,0,0D0,0D0,0D0,0D0,2D-1,4D-1,6D-1,8D-1,1D0,1D0,1D0,      91P    201
1D0,1D0,1D0,1D0,1D0,1D0,1D0,1D0,1D0,-3.250000000035D0,                91P    202
3.500000000001D0,5.629165124580D0,-3.037549487544D0,                  91P    203
3.500000000001D0,5.751823485156D0,-2.612384920113D0,                  91P    204
3.483885456484D0,5.997292362610D0,-1.975229224510D0,                  91P    205
3.412460400169D0,6.365154374983D0,-1.334518063484D0,                  91P    206
3.295602999687D0,6.735069136274D0,-6.852699273573D-1,                 91P    207
3.135397408747D0,7.109912722438D0,-2.311346618788D-1,                 91P    208
2.996488303692D0,7.372107840210D0,0D0,2.919443416399D0,               91P    209
7.505553499465D0,0D0,1D0,0D0,0D0,1D0;                                 91P    210
126,7,3,0,0,1,0,0D0,0D0,0D0,0D0,2D-1,4D-1,6D-1,8D-1,1D0,1D0,1D0,      93P    211
1D0,1D0,1D0,1D0,1D0,1D0,1D0,1D0,1D0,-3.250000000020D0,-3.5D0,         93P    212
5.629165124588D0,-3.037549487559D0,-3.5D0,5.751823485147D0,           93P    213
-2.612384920106D0,-3.483885456485D0,5.997292362614D0,                 93P    214
-1.975229224512D0,-3.412460400169D0,6.365154374982D0,                 93P    215
-1.334518063484D0,-3.295602999687D0,6.735069136274D0,                 93P    216
-6.852699273575D-1,-3.135397408747D0,7.109912722438D0,                93P    217
-2.311346618788D-1,-2.996488303692D0,7.372107840210D0,0D0,            93P    218
-2.919443416399D0,7.505553499465D0,0D0,1D0,0D0,0D0,1D0;               93P    219
126,7,3,0,0,1,0,0D0,0D0,0D0,0D0,2D-1,4D-1,6D-1,8D-1,1D0,1D0,1D0,      95P    220
1D0,1D0,1D0,1D0,1D0,1D0,1D0,1D0,1D0,-6.5D0,-2.919443416399D0,         95P    221
3.752776749733D0,-6.268883142336D0,-2.996482368954D0,                 95P    222
3.886212129719D0,-5.814757156808D0,-3.135393448636D0,                 95P    223
4.148401889710D0,-5.165251142303D0,-3.295656023352D0,                 95P    224
4.523394362024D0,-4.524564274751D0,-3.412489205119D0,                 95P    225
4.893295097472D0,-3.887468932156D0,-3.483894404244D0,                 95P    226
5.261122265018D0,-3.462394873872D0,-3.5D0,5.506538886995D0,           95P    227
-3.250000000020D0,-3.5D0,5.629165124588D0,0D0,1D0,0D0,0D0,1D0;        95P    228
110,-6.5D0,-2.919443416399D0,3.752776749733D0,-6.5D0,                 97P    229
2.919443416399D0,3.752776749733D0;                                    97P    230
126,7,3,0,0,1,0,0D0,0D0,0D0,0D0,2D-1,4D-1,6D-1,8D-1,1D0,1D0,1D0,      99P    231
1D0,1D0,1D0,1D0,1D0,1D0,1D0,1D0,1D0,0D0,2.919443416399D0,             99P    232
7.505553499465D0,2.311168576599D-1,2.996482368953D0,                  99P    233
7.372118119481D0,6.852428429931D-1,3.135393448632D0,                  99P    234
7.109928359620D0,1.334748858325D0,3.295656023346D0,                   99P    235
6.734935886751D0,1.975435722792D0,3.412489205114D0,                   99P    236
6.365035153365D0,2.612531076827D0,3.483894404239D0,                   99P    237
5.997207978170D0,3.037605106615D0,3.500000000001D0,                   99P    238
5.751791375241D0,3.249999980463D0,3.500000000001D0,                   99P    239
5.629165137651D0,0D0,1D0,0D0,0D0,1D0;                                 99P    240
126,7,3,0,0,1,0,0D0,0D0,0D0,0D0,2D-1,4D-1,6D-1,8D-1,1D0,1D0,1D0,     101P    241
1D0,1D0,1D0,1D0,1D0,1D0,1D0,1D0,1D0,3.249999980463D0,                101P    242
3.500000000001D0,5.629165137651D0,3.462450492954D0,                  101P    243
3.500000000001D0,5.506506777075D0,3.887615088938D0,                  101P    244
3.483885456484D0,5.261037880538D0,4.524770773064D0,                  101P    245
3.412460400169D0,4.893175875836D0,5.165481937169D0,                  101P    246
3.295602999687D0,4.523261112487D0,5.814730072456D0,                  101P    247
3.135397408747D0,4.148417526885D0,6.268865338121D0,                  101P    248
2.996488303692D0,3.886222408987D0,6.5D0,2.919443416399D0,            101P    249
3.752776749733D0,0D0,1D0,0D0,0D0,1D0;                                101P    250
126,7,3,0,0,1,0,0D0,0D0,0D0,0D0,2D-1,4D-1,6D-1,8D-1,1D0,1D0,1D0,     103P    251
1D0,1D0,1D0,1D0,1D0,1D0,1D0,1D0,1D0,3.249999999981D0,-3.5D0,         103P    252
5.629165124611D0,3.462450512443D0,-3.5D0,5.506506764052D0,           103P    253
3.887615079893D0,-3.483885456485D0,5.261037886583D0,                 103P    254
4.524770775488D0,-3.412460400169D0,4.893175874216D0,                 103P    255
5.165481936516D0,-3.295602999687D0,4.523261112923D0,                 103P    256
5.814730072643D0,-3.135397408747D0,4.148417526760D0,                 103P    257
6.268865338121D0,-2.996488303692D0,3.886222408987D0,6.5D0,           103P    258
-2.919443416399D0,3.752776749733D0,0D0,1D0,0D0,0D0,1D0;              103P    259
126,7,3,0,0,1,0,0D0,0D0,0D0,0D0,2D-1,4D-1,6D-1,8D-1,1D0,1D0,1D0,     105P    260
1D0,1D0,1D0,1D0,1D0,1D0,1D0,1D0,1D0,0D0,-2.919443416399D0,           105P    261
7.505553499465D0,2.311168576641D-1,-2.996482368954D0,                105P    262
7.372118119479D0,6.852428431918D-1,-3.135393448636D0,                105P    263
7.109928359488D0,1.334748857697D0,-3.295656023352D0,                 105P    264
6.734935887173D0,1.975435725249D0,-3.412489205119D0,                 105P    265
6.365035151726D0,2.612531067844D0,-3.483894404244D0,                 105P    266
5.997207984179D0,3.037605126129D0,-3.5D0,5.751791362204D0,           105P    267
3.249999999981D0,-3.5D0,5.629165124611D0,0D0,1D0,0D0,0D0,1D0;        105P    268
110,0D0,-2.919443416399D0,7.505553499465D0,0D0,2.919443416399D0,     107P    269
7.505553499465D0;                                                    107P    270
124,1D0,-5.979780651737D-10,0D0,0D0,0D0,0D0,1D0,3.5D0,               109P    271
-5.979780651737D-10,-1D0,0D0,0D0;                                    109P    272
100,0D0,0D0,0D0,6.5D0,0D0,3.250000003415D0,5.629165122627D0;         111P    273
124,4.999999875187D-1,8.660254109905D-1,0D0,0D0,0D0,0D0,1D0,         113P    274
3.5D0,8.660254109905D-1,-4.999999875187D-1,0D0,0D0;                  113P    275
100,0D0,0D0,0D0,6.5D0,0D0,3.249999915506D0,5.629165173382D0;         115P    276
124,-5.000000000076D-1,8.660254037801D-1,0D0,0D0,0D0,0D0,1D0,        117P    277
3.5D0,8.660254037801D-1,5.000000000076D-1,0D0,0D0;                   117P    278
100,0D0,0D0,0D0,6.5D0,0D0,3.250000081079D0,5.629165077788D0;         119P    279
124,-1D0,-5.979782699803D-10,0D0,0D0,0D0,0D0,1D0,3.5D0,              121P    280
-5.979782699803D-10,1D0,0D0,0D0;                                     121P    281
100,0D0,0D0,0D0,6.5D0,0D0,3.249999996683D0,5.629165126514D0;         123P    282
124,-4.999999873382D-1,-8.660254110947D-1,0D0,0D0,0D0,0D0,1D0,       125P    283
3.5D0,-8.660254110947D-1,4.999999873382D-1,0D0,0D0;                  125P    284
100,0D0,0D0,0D0,6.5D0,0D0,3.249999921064D0,5.629165170172D0;         127P    285
124,5.000000000076D-1,-8.660254037801D-1,0D0,0D0,0D0,0D0,1D0,        129P    286
3.5D0,-8.660254037801D-1,-5.000000000076D-1,0D0,0D0;                 129P    287
100,0D0,0D0,0D0,6.5D0,0D0,3.250000082253D0,5.629165077110D0;         131P    288
124,-1D0,0D0,0D0,0D0,0D0,0D0,-1D0,3.499998355610D0,0D0,-1D0,0D0,     133P    289
0D0;                                                                 133P    290
100,0D0,0D0,0D0,3.899999381397D0,0D0,-3.899999381397D0,0D0;          135P    291
124,1D0,0D0,0D0,0D0,0D0,0D0,-1D0,3.499998355610D0,0D0,1D0,0D0,       137P    292
0D0;                                                                 137P    293
100,0D0,0D0,0D0,3.899999381397D0,0D0,-3.899999381397D0,0D0;          139P    294
110,-3.900000371466D0,3.499999356306D0,9.115918655056D-10,           141P    295
-3.400000242882D0,3.211324444529D0,5.960412972605D-10;               141P    296
110,3.900000371466D0,3.499999356306D0,-9.115928609388D-10,           143P    297
3.400000242882D0,3.211324444529D0,-5.960414859985D-10;               143P    298
124,1D0,0D0,0D0,0D0,0D0,0D0,-1D0,3.211325663594D0,0D0,1D0,0D0,       145P    299
0D0;                                                                 145P    300
100,0D0,0D0,0D0,3.4D0,0D0,-3.4D0,0D0;                                147P    301
110,-3.400000242882D0,-3.211324444529D0,5.960422187459D-10,          149P    302
-3.400000242882D0,3.211324444529D0,5.960412972605D-10;               149P    303
124,-1D0,0D0,0D0,0D0,0D0,0D0,1D0,-3.211325663594D0,0D0,1D0,0D0,      151P    304
0D0;                                                                 151P    305
100,0D0,0D0,0D0,3.4D0,0D0,-3.4D0,0D0;                                153P    306
110,3.400000242882D0,-3.211324444529D0,-5.960415082028D-10,          155P    307
3.400000242882D0,3.211324444529D0,-5.960414859985D-10;               155P    308
124,-1D0,0D0,0D0,0D0,0D0,0D0,-1D0,3.211325663594D0,0D0,-1D0,0D0,     157P    309
0D0;                                                                 157P    310
100,0D0,0D0,0D0,3.4D0,0D0,-3.4D0,0D0;                                159P    311
124,1D0,0D0,0D0,0D0,0D0,0D0,1D0,-3.211325663594D0,0D0,-1D0,0D0,      161P    312
0D0;                                                                 161P    313
100,0D0,0D0,0D0,3.4D0,0D0,-3.4D0,0D0;                                163P    314
110,3.900000371466D0,-3.499999356306D0,-9.115921651988D-10,          165P    315
3.400000242882D0,-3.211324444529D0,-5.960415082028D-10;              165P    316
110,-3.900000371466D0,-3.499999356306D0,9.115942931937D-10,          167P    317
-3.400000242882D0,-3.211324444529D0,5.960422187459D-10;              167P    318
502,32,6.5D0,3.5D0,-3.886857423629D-9,3.250000000049D0,3.5D0,        169P    319
-5.629165124570D0,-3.249999917698D0,3.5D0,-5.629165172116D0,         169P    320
-6.5D0,3.5D0,-3.886859278879D-9,-3.250000000049D0,3.5D0,             169P    321
5.629165124570D0,3.249999918872D0,3.5D0,5.629165171438D0,-6.5D0,     169P    322
2.919443416399D0,3.752776749733D0,0D0,2.919443416399D0,              169P    323
7.505553499465D0,6.5D0,2.919443416399D0,3.752776749733D0,6.5D0,      169P    324
2.919443416399D0,-3.752776749733D0,0D0,2.919443416399D0,             169P    325
-7.505553499465D0,-6.5D0,2.919443416399D0,-3.752776749733D0,         169P    326
-6.5D0,-2.919443416399D0,3.752776749733D0,0D0,-2.919443416399D0,     169P    327
7.505553499465D0,6.5D0,-2.919443416399D0,3.752776749733D0,6.5D0,     169P    328
-2.919443416399D0,-3.752776749733D0,0D0,-2.919443416399D0,           169P    329
-7.505553499465D0,-6.5D0,-2.919443416399D0,-3.752776749733D0,        169P    330
6.5D0,-3.5D0,0D0,3.250000000049D0,-3.5D0,-5.629165124570D0,          169P    331
-3.249999999952D0,-3.5D0,-5.629165124626D0,-6.5D0,-3.5D0,0D0,        169P    332
-3.250000000049D0,-3.5D0,5.629165124570D0,3.249999999952D0,          169P    333
-3.5D0,5.629165124626D0,-3.899999381397D0,3.499998355610D0,0D0,      169P    334
3.899999381397D0,3.499998355610D0,0D0,-3.4D0,3.211325663594D0,       169P    335
0D0,3.4D0,3.211325663594D0,0D0,-3.899999381397D0,                    169P    336
-3.499998355610D0,0D0,3.899999381397D0,-3.499998355610D0,0D0,        169P    337
-3.4D0,-3.211325663594D0,0D0,3.4D0,-3.211325663594D0,0D0;            169P    338
504,56,111,169,1,169,2,131,169,2,169,3,127,169,3,169,4,123,169,      171P    339
4,169,5,119,169,5,169,6,115,169,6,169,1,89,169,7,169,5,91,169,5,     171P    340
169,8,99,169,8,169,6,101,169,6,169,9,49,169,1,169,10,57,169,9,       171P    341
169,1,59,169,10,169,2,61,169,2,169,11,69,169,11,169,3,71,169,3,      171P    342
169,12,79,169,12,169,4,81,169,4,169,7,97,169,13,169,7,107,169,       171P    343
14,169,8,55,169,15,169,9,67,169,16,169,10,77,169,17,169,11,87,       171P    344
169,18,169,12,19,169,19,169,20,23,169,20,169,21,27,169,21,169,       171P    345
22,31,169,22,169,23,35,169,23,169,24,39,169,24,169,19,95,169,13,     171P    346
169,23,93,169,23,169,14,105,169,14,169,24,103,169,24,169,15,51,      171P    347
169,19,169,16,53,169,15,169,19,65,169,16,169,20,63,169,20,169,       171P    348
17,75,169,17,169,21,73,169,21,169,18,85,169,18,169,22,83,169,22,     171P    349
169,13,135,169,25,169,26,159,169,27,169,28,139,169,26,169,25,        171P    350
147,169,28,169,27,43,169,29,169,30,153,169,31,169,32,47,169,30,      171P    351
169,29,163,169,32,169,31,155,169,32,169,28,149,169,31,169,27,        171P    352
143,169,26,169,28,141,169,25,169,27,165,169,30,169,32,167,169,       171P    353
29,169,31;                                                           171P    354
128,1,1,1,1,0,0,1,0,0,-6.76D0,-6.76D0,6.76D0,6.76D0,                 173P    355
-6.760000000008D0,-6.760000000008D0,6.760000000008D0,                173P    356
6.760000000008D0,1D0,1D0,1D0,1D0,6.760000000008D0,-3.5D0,6.76D0,     173P    357
6.760000000008D0,-3.5D0,-6.76D0,-6.760000000008D0,-3.5D0,6.76D0,     173P    358
-6.760000000008D0,-3.5D0,-6.76D0,-6.76D0,6.76D0,                     173P    359
-6.760000000008D0,6.760000000008D0;                                  173P    360
508,6,0,171,25,1,0,0,171,26,1,0,0,171,27,1,0,0,171,28,1,0,0,171,     175P    361
29,1,0,0,171,30,1,0;                                                 175P    362
508,2,0,171,47,0,0,0,171,49,0,0;                                     177P    363
510,173,2,0,175,177;                                                 179P    364
110,0D0,-7.252776749733D0,0D0,0D0,-6.252776749733D0,0D0;             181P    365
110,6.476769846446D0,-3.513411935408D0,0D0,7.528783653020D0,         183P    366
-2.906031480991D0,0D0;                                               183P    367
120,181,183,-6.283185307180D-2,3.204424506662D0;                     185P    368
508,3,0,171,35,1,0,0,171,37,1,0,0,171,25,0,0;                        187P    369
510,185,1,0,187;                                                     189P    370
110,0D0,-7.252776749733D0,0D0,0D0,-6.252776749733D0,0D0;             191P    371
110,6.476769846446D0,-3.513411935408D0,0D0,7.528783653020D0,         193P    372
-2.906031480991D0,0D0;                                               193P    373
120,191,193,-6.283185307180D-2,3.204424506662D0;                     195P    374
508,3,0,171,38,1,0,0,171,39,1,0,0,171,26,0,0;                        197P    375
510,195,1,0,197;                                                     199P    376
110,0D0,-7.252776749733D0,0D0,0D0,-6.252776749733D0,0D0;             201P    377
110,6.476769846446D0,-3.513411935408D0,0D0,7.528783653020D0,         203P    378
-2.906031480991D0,0D0;                                               203P    379
120,201,203,-6.283185307180D-2,3.204424506662D0;                     205P    380
508,3,0,171,40,1,0,0,171,41,1,0,0,171,27,0,0;                        207P    381
510,205,1,0,207;                                                     209P    382
128,1,1,1,1,0,0,1,0,0,-1.501110699893D-1,-1.501110699893D-1,         211P    383
7.655664569454D0,7.655664569454D0,-1.400000001066D-1,                211P    384
-1.400000001066D-1,7.140000003391D0,7.140000003391D0,1D0,1D0,        211P    385
1D0,1D0,6.5D0,-3.640000000107D0,3.902887819722D0,6.5D0,              211P    386
-3.640000000107D0,-3.902887819722D0,6.5D0,3.640000003391D0,          211P    387
3.902887819722D0,6.5D0,3.640000003391D0,-3.902887819722D0,           211P    388
-1.501110699893D-1,7.655664569454D0,-1.400000001066D-1,              211P    389
7.140000003391D0;                                                    211P    390
508,6,0,171,11,1,0,0,171,22,0,0,0,171,35,0,0,0,171,36,0,0,0,171,     213P    391
21,1,0,0,171,12,1,0;                                                 213P    392
510,211,1,0,213;                                                     215P    393
110,0D0,7.252776749733D0,0D0,0D0,8.252776749733D0,0D0;               217P    394
110,7.528783653020D0,2.906031480991D0,0D0,6.476769846446D0,          219P    395
3.513411935408D0,0D0;                                                219P    396
120,217,219,-6.283185307135D-2,3.204424506639D0;                     221P    397
508,3,0,171,13,0,0,0,171,11,0,0,0,171,1,1,0;                         223P    398
510,221,1,0,223;                                                     225P    399
110,0D0,7.252776749733D0,0D0,0D0,8.252776749733D0,0D0;               227P    400
110,7.528783653020D0,2.906031480991D0,0D0,6.476769846446D0,          229P    401
3.513411935408D0,0D0;                                                229P    402
120,227,229,-6.283185307135D-2,3.204424506639D0;                     231P    403
508,3,0,171,15,0,0,0,171,14,0,0,0,171,2,1,0;                         233P    404
510,231,1,0,233;                                                     235P    405
110,0D0,7.252776749733D0,0D0,0D0,8.252776749733D0,0D0;               237P    406
110,7.528783653020D0,2.906031480991D0,0D0,6.476769846446D0,          239P    407
3.513411935408D0,0D0;                                                239P    408
120,237,239,-6.283185307135D-2,3.204424506639D0;                     241P    409
508,3,0,171,17,0,0,0,171,16,0,0,0,171,3,1,0;                         243P    410
510,241,1,0,243;                                                     245P    411
128,1,1,1,1,0,0,1,0,0,-1.501110699893D-1,-1.501110699893D-1,         247P    412
7.655664569454D0,7.655664569454D0,-1.400000000012D-1,                247P    413
-1.400000000012D-1,7.140000000004D0,7.140000000004D0,1D0,1D0,        247P    414
1D0,1D0,6.63D0,-3.640000000001D0,-3.677721214738D0,-1.3D-1,          247P    415
-3.640000000001D0,-7.580609034460D0,6.63D0,3.640000000004D0,         247P    416
-3.677721214738D0,-1.3D-1,3.640000000004D0,-7.580609034460D0,        247P    417
-1.501110699893D-1,7.655664569454D0,-1.400000000012D-1,              247P    418
7.140000000004D0;                                                    247P    419
508,6,0,171,13,1,0,0,171,14,1,0,0,171,23,0,0,0,171,38,0,0,0,171,     249P    420
37,0,0,0,171,22,1,0;                                                 249P    421
510,247,1,0,249;                                                     251P    422
128,1,1,1,1,0,0,1,0,0,-1.501110699893D-1,-1.501110699893D-1,         253P    423
7.655664569454D0,7.655664569454D0,-1.400000000012D-1,                253P    424
-1.400000000012D-1,7.140000000002D0,7.140000000002D0,1D0,1D0,        253P    425
1D0,1D0,1.3D-1,-3.640000000001D0,-7.580609034460D0,-6.63D0,          253P    426
-3.640000000001D0,-3.677721214738D0,1.3D-1,3.640000000002D0,         253P    427
-7.580609034460D0,-6.63D0,3.640000000002D0,-3.677721214738D0,        253P    428
-1.501110699893D-1,7.655664569454D0,-1.400000000012D-1,              253P    429
7.140000000002D0;                                                    253P    430
508,6,0,171,15,1,0,0,171,16,1,0,0,171,24,0,0,0,171,40,0,0,0,171,     255P    431
39,0,0,0,171,23,1,0;                                                 255P    432
510,253,1,0,255;                                                     257P    433
128,1,1,1,1,0,0,1,0,0,-1.501110699893D-1,-1.501110699893D-1,         259P    434
7.655664569454D0,7.655664569454D0,-1.400000001048D-1,                259P    435
-1.400000001048D-1,7.140000003297D0,7.140000003297D0,1D0,1D0,        259P    436
1D0,1D0,-6.5D0,-3.640000000105D0,-3.902887819722D0,-6.5D0,           259P    437
-3.640000000105D0,3.902887819722D0,-6.5D0,3.640000003297D0,          259P    438
-3.902887819722D0,-6.5D0,3.640000003297D0,3.902887819722D0,          259P    439
-1.501110699893D-1,7.655664569454D0,-1.400000001048D-1,              259P    440
7.140000003297D0;                                                    259P    441
508,6,0,171,17,1,0,0,171,18,1,0,0,171,19,0,0,0,171,42,0,0,0,171,     261P    442
41,0,0,0,171,24,1,0;                                                 261P    443
510,259,1,0,261;                                                     263P    444
110,0D0,7.252776749733D0,0D0,0D0,8.252776749733D0,0D0;               265P    445
110,7.528783653020D0,2.906031480991D0,0D0,6.476769846446D0,          267P    446
3.513411935408D0,0D0;                                                267P    447
120,265,267,-3.204424506661D0,6.283185305774D-2;                     269P    448
508,3,0,171,7,0,0,0,171,18,0,0,0,171,4,1,0;                          271P    449
510,269,1,0,271;                                                     273P    450
110,0D0,7.252776749733D0,0D0,0D0,8.252776749733D0,0D0;               275P    451
110,7.528783653020D0,2.906031480991D0,0D0,6.476769846446D0,          277P    452
3.513411935408D0,0D0;                                                277P    453
120,275,277,-3.204424506661D0,6.283185305774D-2;                     279P    454
508,3,0,171,9,0,0,0,171,8,0,0,0,171,5,1,0;                           281P    455
510,279,1,0,281;                                                     283P    456
110,0D0,7.252776749733D0,0D0,0D0,8.252776749733D0,0D0;               285P    457
110,7.528783653020D0,2.906031480991D0,0D0,6.476769846446D0,          287P    458
3.513411935408D0,0D0;                                                287P    459
120,285,287,-3.204424506661D0,6.283185305774D-2;                     289P    460
508,3,0,171,12,0,0,0,171,10,0,0,0,171,6,1,0;                         291P    461
510,289,1,0,291;                                                     293P    462
128,1,1,1,1,0,0,1,0,0,-1.501110699893D-1,-1.501110699893D-1,         295P    463
7.655664569454D0,7.655664569454D0,-1.400000000012D-1,                295P    464
-1.400000000012D-1,7.140000000003D0,7.140000000003D0,1D0,1D0,        295P    465
1D0,1D0,-6.63D0,-3.640000000001D0,3.677721214738D0,1.3D-1,           295P    466
-3.640000000001D0,7.580609034460D0,-6.63D0,3.640000000003D0,         295P    467
3.677721214738D0,1.3D-1,3.640000000003D0,7.580609034460D0,           295P    468
-1.501110699893D-1,7.655664569454D0,-1.400000000012D-1,              295P    469
7.140000000003D0;                                                    295P    470
508,6,0,171,7,1,0,0,171,8,1,0,0,171,20,0,0,0,171,32,0,0,0,171,       297P    471
31,0,0,0,171,19,1,0;                                                 297P    472
510,295,1,0,297;                                                     299P    473
128,1,1,1,1,0,0,1,0,0,-1.501110699893D-1,-1.501110699893D-1,         301P    474
7.655664569454D0,7.655664569454D0,-1.400000000012D-1,                301P    475
-1.400000000012D-1,7.140000000003D0,7.140000000003D0,1D0,1D0,        301P    476
1D0,1D0,-1.3D-1,-3.640000000001D0,7.580609034460D0,6.63D0,           301P    477
-3.640000000001D0,3.677721214738D0,-1.3D-1,3.640000000003D0,         301P    478
7.580609034460D0,6.63D0,3.640000000003D0,3.677721214738D0,           301P    479
-1.501110699893D-1,7.655664569454D0,-1.400000000012D-1,              301P    480
7.140000000003D0;                                                    301P    481
508,6,0,171,9,1,0,0,171,10,1,0,0,171,21,0,0,0,171,34,0,0,0,171,      303P    482
33,0,0,0,171,20,1,0;                                                 303P    483
510,301,1,0,303;                                                     305P    484
110,0D0,-7.252776749733D0,0D0,0D0,-6.252776749733D0,0D0;             307P    485
110,6.476769846446D0,-3.513411935408D0,0D0,7.528783653020D0,         309P    486
-2.906031480991D0,0D0;                                               309P    487
120,307,309,-3.204424506662D0,6.283185307180D-2;                     311P    488
508,3,0,171,42,1,0,0,171,31,1,0,0,171,28,0,0;                        313P    489
510,311,1,0,313;                                                     315P    490
110,0D0,-7.252776749733D0,0D0,0D0,-6.252776749733D0,0D0;             317P    491
110,6.476769846446D0,-3.513411935408D0,0D0,7.528783653020D0,         319P    492
-2.906031480991D0,0D0;                                               319P    493
120,317,319,-3.204424506662D0,6.283185307180D-2;                     321P    494
508,3,0,171,32,1,0,0,171,33,1,0,0,171,29,0,0;                        323P    495
510,321,1,0,323;                                                     325P    496
110,0D0,-7.252776749733D0,0D0,0D0,-6.252776749733D0,0D0;             327P    497
110,6.476769846446D0,-3.513411935408D0,0D0,7.528783653020D0,         329P    498
-2.906031480991D0,0D0;                                               329P    499
120,327,329,-3.204424506662D0,6.283185307180D-2;                     331P    500
508,3,0,171,34,1,0,0,171,36,1,0,0,171,30,0,0;                        333P    501
510,331,1,0,333;                                                     335P    502
128,1,1,1,1,0,0,1,0,0,-6.76D0,-6.76D0,6.76D0,6.76D0,                 337P    503
-6.760000014748D0,-6.760000014748D0,6.760000014748D0,                337P    504
6.760000014748D0,1D0,1D0,1D0,1D0,6.760000014748D0,3.5D0,6.76D0,      337P    505
6.760000014748D0,3.5D0,-6.76D0,-6.760000014748D0,3.5D0,6.76D0,       337P    506
-6.760000014748D0,3.5D0,-6.76D0,-6.76D0,6.76D0,                      337P    507
-6.760000014748D0,6.760000014748D0;                                  337P    508
508,6,0,171,1,0,0,0,171,6,0,0,0,171,5,0,0,0,171,4,0,0,0,171,3,0,     339P    509
0,0,171,2,0,0;                                                       339P    510
508,2,0,171,43,0,0,0,171,45,0,0;                                     341P    511
510,337,2,0,339,341;                                                 343P    512
110,0D0,1.248333950160D0,0D0,0D0,2.248333950160D0,0D0;               345P    513
110,0D0,3.197911481368D0,-3.376769267788D0,0D0,3.513413059449D0,     347P    514
-3.923234343297D0;                                                   347P    515
120,345,347,-1.633628184186D0,1.633628184887D0;                      349P    516
508,4,0,171,43,1,0,0,171,53,1,0,0,171,44,0,0,0,171,54,0,0;           351P    517
510,349,1,0,351;                                                     353P    518
110,0D0,1.248333950160D0,0D0,0D0,2.248333950160D0,0D0;               355P    519
110,0D0,3.197911481368D0,-3.376769267788D0,0D0,3.513413059449D0,     357P    520
-3.923234343297D0;                                                   357P    521
120,355,357,1.507964469404D0,4.775220838477D0;                       359P    522
508,4,0,171,45,1,0,0,171,54,1,0,0,171,46,0,0,0,171,53,0,0;           361P    523
510,359,1,0,361;                                                     363P    524
110,0D0,-4.5025D0,0D0,0D0,-3.5025D0,0D0;                             365P    525
110,3.4D0,-3.339787938228D0,0D0,3.4D0,3.339787938228D0,0D0;          367P    526
120,365,367,-3.204424506662D0,6.283185307180D-2;                     369P    527
508,4,0,171,46,1,0,0,171,52,0,0,0,171,48,1,0,0,171,51,1,0;           371P    528
510,369,1,0,371;                                                     373P    529
110,0D0,-4.5025D0,0D0,0D0,-3.5025D0,0D0;                             375P    530
110,3.4D0,-3.339787938228D0,0D0,3.4D0,3.339787938228D0,0D0;          377P    531
120,375,377,-6.283185307180D-2,3.204424506662D0;                     379P    532
508,4,0,171,44,1,0,0,171,51,0,0,0,171,50,1,0,0,171,52,1,0;           381P    533
510,379,1,0,381;                                                     383P    534
110,0D0,-1.248333950160D0,0D0,0D0,-2.248333950160D0,0D0;             385P    535
110,0D0,-3.197911481368D0,-3.376769267788D0,0D0,                     387P    536
-3.513413059449D0,-3.923234343297D0;                                 387P    537
120,385,387,-1.633628184887D0,1.633628184186D0;                      389P    538
508,4,0,171,49,1,0,0,171,56,1,0,0,171,50,0,0,0,171,55,0,0;           391P    539
510,389,1,0,391;                                                     393P    540
110,0D0,-1.248333950160D0,0D0,0D0,-2.248333950160D0,0D0;             395P    541
110,0D0,-3.197911481368D0,-3.376769267788D0,0D0,                     397P    542
-3.513413059449D0,-3.923234343297D0;                                 397P    543
120,395,397,-4.775220838477D0,-1.507964469404D0;                     399P    544
508,4,0,171,47,1,0,0,171,55,1,0,0,171,48,0,0,0,171,56,0,0;           401P    545
510,399,1,0,401;                                                     403P    546
514,26,179,0,189,1,199,1,209,1,215,1,225,1,235,1,245,1,251,1,        405P    547
257,1,263,1,273,1,283,1,293,1,299,1,305,1,315,1,325,1,335,1,343,     405P    548
1,353,0,363,0,373,0,383,0,393,0,403,0;                               405P    549
124,1D0,0D0,0D0,0D0,0D0,0D0,1D0,-3.5D0,0D0,-1D0,0D0,0D0;             407P    550
100,0D0,0D0,0D0,4D0,0D0,-4D0,0D0;                                    409P    551
124,-1D0,0D0,0D0,0D0,0D0,0D0,-1D0,3.5D0,0D0,-1D0,0D0,0D0;            411P    552
100,0D0,0D0,0D0,4D0,0D0,-4D0,0D0;                                    413P    553
124,-1D0,0D0,0D0,0D0,0D0,0D0,1D0,-3.5D0,0D0,1D0,0D0,0D0;             415P    554
100,0D0,0D0,0D0,4D0,0D0,-4D0,0D0;                                    417P    555
110,4D0,3.5D0,0D0,4D0,-3.5D0,0D0;                                    419P    556
124,1D0,0D0,0D0,0D0,0D0,0D0,-1D0,3.5D0,0D0,1D0,0D0,0D0;              421P    557
100,0D0,0D0,0D0,4D0,0D0,-4D0,0D0;                                    423P    558
110,-4D0,3.5D0,0D0,-4D0,-3.5D0,0D0;                                  425P    559
502,4,4D0,-3.5D0,0D0,-4D0,-3.5D0,0D0,4D0,3.5D0,0D0,-4D0,3.5D0,       427P    560
0D0;                                                                 427P    561
504,6,409,427,1,427,2,413,427,3,427,4,417,427,2,427,1,423,427,4,     429P    562
427,3,419,427,3,427,1,425,427,4,427,2;                               429P    563
110,0D0,-4.5025D0,0D0,0D0,-3.5025D0,0D0;                             431P    564
110,4D0,-3.64D0,0D0,4D0,3.64D0,0D0;                                  433P    565
120,431,433,-6.283185307180D-2,3.204424506662D0;                     435P    566
508,4,0,429,1,1,0,0,429,6,0,0,0,429,2,0,0,0,429,5,1,0;               437P    567
510,435,1,0,437;                                                     439P    568
110,0D0,-4.5025D0,0D0,0D0,-3.5025D0,0D0;                             441P    569
110,4D0,-3.64D0,0D0,4D0,3.64D0,0D0;                                  443P    570
120,441,443,-3.204424506662D0,6.283185307180D-2;                     445P    571
508,4,0,429,3,1,0,0,429,5,0,0,0,429,4,0,0,0,429,6,1,0;               447P    572
510,445,1,0,447;                                                     449P    573
514,2,439,0,449,0;                                                   451P    574
186,405,1,0;                                                         453P    575
S      1G      4D    454P    575                                        T      1
