ISO-10303-21;
HEADER;
FILE_DESCRIPTION((''),'2;1');
FILE_NAME('SCREW-M06X18-CSN_02_1143',
 '2011-09-17T',
 ('Vladimir Zima'),
 ('ZIMA-Engineering'),
 'ZIMA-CAD-3D',
 'ZIMA-CAD-3D',
 '');
FILE_SCHEMA(('CONFIG_CONTROL_DESIGN'));
ENDSEC;
DATA;
#1=CARTESIAN_POINT('',(0.E0,1.799999710190E1,1.998401444325E-14));
#2=DIRECTION('',(0.E0,1.E0,0.E0));
#3=DIRECTION('',(0.E0,0.E0,-1.E0));
#4=AXIS2_PLACEMENT_3D('',#1,#2,#3);
#6=CARTESIAN_POINT('',(0.E0,1.799999710190E1,-2.065014825803E-14));
#7=DIRECTION('',(0.E0,1.E0,0.E0));
#8=DIRECTION('',(0.E0,0.E0,1.E0));
#9=AXIS2_PLACEMENT_3D('',#6,#7,#8);
#11=DIRECTION('',(3.445890935557E-10,-7.071058005430E-1,-7.071077618288E-1));
#12=VECTOR('',#11,4.242640687674E-1);
#13=CARTESIAN_POINT('',(-8.771770739303E-10,1.799999750392E1,
-2.699997503457E0));
#14=LINE('',#13,#12);
#15=DIRECTION('',(-3.445895333013E-10,-7.071058005430E-1,7.071077618288E-1));
#16=VECTOR('',#15,4.242640687674E-1);
#17=CARTESIAN_POINT('',(8.771784643472E-10,1.799999750392E1,2.699997503457E0));
#18=LINE('',#17,#16);
#19=CARTESIAN_POINT('',(0.E0,3.E-1,0.E0));
#20=DIRECTION('',(0.E0,-1.E0,0.E0));
#21=DIRECTION('',(0.E0,0.E0,-1.E0));
#22=AXIS2_PLACEMENT_3D('',#19,#20,#21);
#24=DIRECTION('',(4.201804260705E-11,1.E0,-1.195662352533E-7));
#25=VECTOR('',#24,1.739999791994E1);
#26=CARTESIAN_POINT('',(-1.323470684173E-13,3.E-1,3.E0));
#27=LINE('',#26,#25);
#28=CARTESIAN_POINT('',(0.E0,1.769999809383E1,0.E0));
#29=DIRECTION('',(0.E0,1.E0,0.E0));
#30=DIRECTION('',(0.E0,0.E0,1.E0));
#31=AXIS2_PLACEMENT_3D('',#28,#29,#30);
#33=CARTESIAN_POINT('',(-4.087542804232E-12,3.E-1,-3.3E0));
#34=DIRECTION('',(1.E0,0.E0,-1.238649807722E-12));
#35=DIRECTION('',(1.238649807722E-12,0.E0,1.E0));
#36=AXIS2_PLACEMENT_3D('',#33,#34,#35);
#38=CARTESIAN_POINT('',(4.087938321184E-12,3.E-1,3.3E0));
#39=DIRECTION('',(-1.E0,0.E0,1.238767768919E-12));
#40=DIRECTION('',(-1.238767768919E-12,0.E0,-1.E0));
#41=AXIS2_PLACEMENT_3D('',#38,#39,#40);
#43=CARTESIAN_POINT('',(0.E0,3.E-1,0.E0));
#44=DIRECTION('',(0.E0,-1.E0,0.E0));
#45=DIRECTION('',(0.E0,0.E0,1.E0));
#46=AXIS2_PLACEMENT_3D('',#43,#44,#45);
#48=DIRECTION('',(-4.201790187735E-11,1.E0,1.195662352277E-7));
#49=VECTOR('',#48,1.739999791994E1);
#50=CARTESIAN_POINT('',(1.311022204457E-13,3.E-1,-3.E0));
#51=LINE('',#50,#49);
#52=CARTESIAN_POINT('',(0.E0,1.769999809383E1,0.E0));
#53=DIRECTION('',(0.E0,1.E0,0.E0));
#54=DIRECTION('',(0.E0,0.E0,-1.E0));
#55=AXIS2_PLACEMENT_3D('',#52,#53,#54);
#57=CARTESIAN_POINT('',(0.E0,0.E0,0.E0));
#58=DIRECTION('',(0.E0,1.E0,0.E0));
#59=DIRECTION('',(0.E0,0.E0,-1.E0));
#60=AXIS2_PLACEMENT_3D('',#57,#58,#59);
#62=CARTESIAN_POINT('',(0.E0,0.E0,0.E0));
#63=DIRECTION('',(0.E0,1.E0,0.E0));
#64=DIRECTION('',(0.E0,0.E0,1.E0));
#65=AXIS2_PLACEMENT_3D('',#62,#63,#64);
#67=CARTESIAN_POINT('',(0.E0,0.E0,0.E0));
#68=DIRECTION('',(0.E0,-1.E0,0.E0));
#69=DIRECTION('',(0.E0,0.E0,1.E0));
#70=AXIS2_PLACEMENT_3D('',#67,#68,#69);
#72=CARTESIAN_POINT('',(0.E0,0.E0,0.E0));
#73=DIRECTION('',(0.E0,-1.E0,0.E0));
#74=DIRECTION('',(0.E0,0.E0,-1.E0));
#75=AXIS2_PLACEMENT_3D('',#72,#73,#74);
#77=CARTESIAN_POINT('',(0.E0,-5.5E0,0.E0));
#78=DIRECTION('',(0.E0,-1.E0,0.E0));
#79=DIRECTION('',(0.E0,0.E0,1.E0));
#80=AXIS2_PLACEMENT_3D('',#77,#78,#79);
#82=DIRECTION('',(-1.112727095499E-12,-1.E0,0.E0));
#83=VECTOR('',#82,5.5E0);
#84=CARTESIAN_POINT('',(0.E0,0.E0,-5.E0));
#85=LINE('',#84,#83);
#86=CARTESIAN_POINT('',(0.E0,-5.5E0,4.5E0));
#87=DIRECTION('',(-1.E0,0.E0,0.E0));
#88=DIRECTION('',(0.E0,-1.E0,0.E0));
#89=AXIS2_PLACEMENT_3D('',#86,#87,#88);
#91=CARTESIAN_POINT('',(0.E0,-6.E0,0.E0));
#92=DIRECTION('',(0.E0,-1.E0,0.E0));
#93=DIRECTION('',(0.E0,0.E0,-1.E0));
#94=AXIS2_PLACEMENT_3D('',#91,#92,#93);
#96=CARTESIAN_POINT('',(0.E0,-6.E0,0.E0));
#97=DIRECTION('',(0.E0,-1.E0,0.E0));
#98=DIRECTION('',(0.E0,0.E0,1.E0));
#99=AXIS2_PLACEMENT_3D('',#96,#97,#98);
#101=CARTESIAN_POINT('',(0.E0,-6.E0,0.E0));
#102=DIRECTION('',(0.E0,-1.E0,0.E0));
#103=DIRECTION('',(1.E0,0.E0,0.E0));
#104=AXIS2_PLACEMENT_3D('',#101,#102,#103);
#106=CARTESIAN_POINT('',(0.E0,-6.E0,0.E0));
#107=DIRECTION('',(0.E0,-1.E0,0.E0));
#108=DIRECTION('',(4.999999967461E-1,0.E0,8.660254056631E-1));
#109=AXIS2_PLACEMENT_3D('',#106,#107,#108);
#111=CARTESIAN_POINT('',(0.E0,-6.E0,0.E0));
#112=DIRECTION('',(0.E0,-1.E0,0.E0));
#113=DIRECTION('',(-4.999999967454E-1,0.E0,8.660254056635E-1));
#114=AXIS2_PLACEMENT_3D('',#111,#112,#113);
#116=CARTESIAN_POINT('',(0.E0,-6.E0,0.E0));
#117=DIRECTION('',(0.E0,-1.E0,0.E0));
#118=DIRECTION('',(-1.E0,0.E0,0.E0));
#119=AXIS2_PLACEMENT_3D('',#116,#117,#118);
#121=CARTESIAN_POINT('',(0.E0,-6.E0,0.E0));
#122=DIRECTION('',(0.E0,-1.E0,0.E0));
#123=DIRECTION('',(-4.999999967461E-1,0.E0,-8.660254056631E-1));
#124=AXIS2_PLACEMENT_3D('',#121,#122,#123);
#126=CARTESIAN_POINT('',(0.E0,-6.E0,0.E0));
#127=DIRECTION('',(0.E0,-1.E0,0.E0));
#128=DIRECTION('',(4.999999967454E-1,0.E0,-8.660254056635E-1));
#129=AXIS2_PLACEMENT_3D('',#126,#127,#128);
#131=CARTESIAN_POINT('',(0.E0,-5.5E0,-4.5E0));
#132=DIRECTION('',(1.E0,0.E0,0.E0));
#133=DIRECTION('',(0.E0,-1.E0,0.E0));
#134=AXIS2_PLACEMENT_3D('',#131,#132,#133);
#136=CARTESIAN_POINT('',(0.E0,-5.5E0,0.E0));
#137=DIRECTION('',(0.E0,-1.E0,0.E0));
#138=DIRECTION('',(0.E0,0.E0,-1.E0));
#139=AXIS2_PLACEMENT_3D('',#136,#137,#138);
#141=DIRECTION('',(1.112855856827E-12,-1.E0,0.E0));
#142=VECTOR('',#141,5.5E0);
#143=CARTESIAN_POINT('',(0.E0,0.E0,5.E0));
#144=LINE('',#143,#142);
#145=CARTESIAN_POINT('',(2.886751345948E0,-6.E0,0.E0));
#146=CARTESIAN_POINT('',(2.814200536496E0,-5.958112770633E0,1.256616881010E-1));
#147=CARTESIAN_POINT('',(2.671668692907E0,-5.885445464796E0,3.725340828921E-1));
#148=CARTESIAN_POINT('',(2.468430096427E0,-5.812829472327E0,7.245536580629E-1));
#149=CARTESIAN_POINT('',(2.266083546605E0,-5.775129411609E0,1.075028163061E0));
#150=CARTESIAN_POINT('',(2.063807967133E0,-5.775148551776E0,1.425379743943E0));
#151=CARTESIAN_POINT('',(1.861443092959E0,-5.812905361100E0,1.775885987287E0));
#152=CARTESIAN_POINT('',(1.658400226934E0,-5.885479517768E0,2.127566548826E0));
#153=CARTESIAN_POINT('',(1.515908602960E0,-5.958123092208E0,2.374369277545E0));
#154=CARTESIAN_POINT('',(1.443375671001E0,-6.E0,2.500000000920E0));
#156=DIRECTION('',(0.E0,1.E0,0.E0));
#157=VECTOR('',#156,3.3E0);
#158=CARTESIAN_POINT('',(2.886751345948E0,-6.E0,0.E0));
#159=LINE('',#158,#157);
#160=CARTESIAN_POINT('',(1.443375671190E0,-6.E0,-2.500000001249E0));
#161=CARTESIAN_POINT('',(1.515926480642E0,-5.958112770633E0,-2.374338313148E0));
#162=CARTESIAN_POINT('',(1.658458326842E0,-5.885445464796E0,-2.127465916529E0));
#163=CARTESIAN_POINT('',(1.861696922278E0,-5.812829472327E0,-1.775446342090E0));
#164=CARTESIAN_POINT('',(2.064043472359E0,-5.775129411609E0,-1.424971836905E0));
#165=CARTESIAN_POINT('',(2.266319051839E0,-5.775148551776E0,-1.074620256037E0));
#166=CARTESIAN_POINT('',(2.468683925722E0,-5.812905361100E0,
-7.241140128248E-1));
#167=CARTESIAN_POINT('',(2.671726792903E0,-5.885479517768E0,
-3.724334507481E-1));
#168=CARTESIAN_POINT('',(2.814218413989E0,-5.958123092208E0,
-1.256307233756E-1));
#169=CARTESIAN_POINT('',(2.886751345948E0,-6.E0,0.E0));
#171=DIRECTION('',(5.406432204282E-10,1.E0,3.785507934054E-10));
#172=VECTOR('',#171,3.3E0);
#173=CARTESIAN_POINT('',(1.443375671190E0,-6.E0,-2.500000001249E0));
#174=LINE('',#173,#172);
#175=CARTESIAN_POINT('',(-2.886751345948E0,-6.E0,0.E0));
#176=CARTESIAN_POINT('',(-2.814200536496E0,-5.958112770633E0,
-1.256616881010E-1));
#177=CARTESIAN_POINT('',(-2.671668692907E0,-5.885445464796E0,
-3.725340828921E-1));
#178=CARTESIAN_POINT('',(-2.468430096427E0,-5.812829472327E0,
-7.245536580629E-1));
#179=CARTESIAN_POINT('',(-2.266083546605E0,-5.775129411609E0,
-1.075028163061E0));
#180=CARTESIAN_POINT('',(-2.063807967133E0,-5.775148551776E0,
-1.425379743943E0));
#181=CARTESIAN_POINT('',(-1.861443092959E0,-5.812905361100E0,
-1.775885987287E0));
#182=CARTESIAN_POINT('',(-1.658400226934E0,-5.885479517768E0,
-2.127566548826E0));
#183=CARTESIAN_POINT('',(-1.515908602960E0,-5.958123092208E0,
-2.374369277545E0));
#184=CARTESIAN_POINT('',(-1.443375671001E0,-6.E0,-2.500000000920E0));
#186=DIRECTION('',(0.E0,1.E0,0.E0));
#187=VECTOR('',#186,3.3E0);
#188=CARTESIAN_POINT('',(-2.886751345948E0,-6.E0,0.E0));
#189=LINE('',#188,#187);
#190=CARTESIAN_POINT('',(-1.443375671190E0,-6.E0,2.500000001249E0));
#191=CARTESIAN_POINT('',(-1.515926480642E0,-5.958112770633E0,2.374338313148E0));
#192=CARTESIAN_POINT('',(-1.658458326842E0,-5.885445464796E0,2.127465916529E0));
#193=CARTESIAN_POINT('',(-1.861696922278E0,-5.812829472327E0,1.775446342090E0));
#194=CARTESIAN_POINT('',(-2.064043472359E0,-5.775129411609E0,1.424971836905E0));
#195=CARTESIAN_POINT('',(-2.266319051839E0,-5.775148551776E0,1.074620256037E0));
#196=CARTESIAN_POINT('',(-2.468683925722E0,-5.812905361100E0,
7.241140128248E-1));
#197=CARTESIAN_POINT('',(-2.671726792903E0,-5.885479517768E0,
3.724334507481E-1));
#198=CARTESIAN_POINT('',(-2.814218413989E0,-5.958123092208E0,
1.256307233756E-1));
#199=CARTESIAN_POINT('',(-2.886751345948E0,-6.E0,0.E0));
#201=DIRECTION('',(-5.406432204282E-10,1.E0,-3.785507934054E-10));
#202=VECTOR('',#201,3.3E0);
#203=CARTESIAN_POINT('',(-1.443375671190E0,-6.E0,2.500000001249E0));
#204=LINE('',#203,#202);
#205=CARTESIAN_POINT('',(1.443375671001E0,-6.E0,2.500000000920E0));
#206=CARTESIAN_POINT('',(1.298274052097E0,-5.958112770633E0,2.500000000920E0));
#207=CARTESIAN_POINT('',(1.013210367812E0,-5.885445464796E0,2.499999999574E0));
#208=CARTESIAN_POINT('',(6.067331736720E-1,-5.812829472327E0,2.500000000111E0));
#209=CARTESIAN_POINT('',(2.020400744055E-1,-5.775129411609E0,2.499999999980E0));
#210=CARTESIAN_POINT('',(-2.025110848648E-1,-5.775148551776E0,
2.499999999967E0));
#211=CARTESIAN_POINT('',(-6.072408322872E-1,-5.812905361100E0,
2.500000000153E0));
#212=CARTESIAN_POINT('',(-1.013326567715E0,-5.885479517768E0,2.499999999421E0));
#213=CARTESIAN_POINT('',(-1.298309807271E0,-5.958123092208E0,2.500000001249E0));
#214=CARTESIAN_POINT('',(-1.443375671190E0,-6.E0,2.500000001249E0));
#216=DIRECTION('',(5.980497578643E-10,1.E0,-2.788737591021E-10));
#217=VECTOR('',#216,3.3E0);
#218=CARTESIAN_POINT('',(1.443375671001E0,-6.E0,2.500000000920E0));
#219=LINE('',#218,#217);
#220=DIRECTION('',(-5.E-1,0.E0,-8.660254037844E-1));
#221=VECTOR('',#220,2.886751345948E0);
#222=CARTESIAN_POINT('',(-1.443375672974E0,-2.7E0,2.5E0));
#223=LINE('',#222,#221);
#224=DIRECTION('',(-1.E0,0.E0,0.E0));
#225=VECTOR('',#224,2.886751345948E0);
#226=CARTESIAN_POINT('',(1.443375672974E0,-2.7E0,2.5E0));
#227=LINE('',#226,#225);
#228=DIRECTION('',(-5.E-1,0.E0,8.660254037844E-1));
#229=VECTOR('',#228,2.886751345948E0);
#230=CARTESIAN_POINT('',(2.886751345948E0,-2.7E0,0.E0));
#231=LINE('',#230,#229);
#232=DIRECTION('',(5.E-1,0.E0,8.660254037844E-1));
#233=VECTOR('',#232,2.886751345948E0);
#234=CARTESIAN_POINT('',(1.443375672974E0,-2.7E0,-2.5E0));
#235=LINE('',#234,#233);
#236=DIRECTION('',(1.E0,0.E0,0.E0));
#237=VECTOR('',#236,2.886751345948E0);
#238=CARTESIAN_POINT('',(-1.443375672974E0,-2.7E0,-2.5E0));
#239=LINE('',#238,#237);
#240=DIRECTION('',(5.E-1,0.E0,-8.660254037844E-1));
#241=VECTOR('',#240,2.886751345948E0);
#242=CARTESIAN_POINT('',(-2.886751345948E0,-2.7E0,0.E0));
#243=LINE('',#242,#241);
#244=CARTESIAN_POINT('',(-1.443375671001E0,-6.E0,-2.500000000920E0));
#245=CARTESIAN_POINT('',(-1.298274052097E0,-5.958112770633E0,
-2.500000000920E0));
#246=CARTESIAN_POINT('',(-1.013210367812E0,-5.885445464796E0,
-2.499999999574E0));
#247=CARTESIAN_POINT('',(-6.067331736720E-1,-5.812829472327E0,
-2.500000000111E0));
#248=CARTESIAN_POINT('',(-2.020400744055E-1,-5.775129411609E0,
-2.499999999980E0));
#249=CARTESIAN_POINT('',(2.025110848649E-1,-5.775148551776E0,
-2.499999999967E0));
#250=CARTESIAN_POINT('',(6.072408322872E-1,-5.812905361100E0,
-2.500000000153E0));
#251=CARTESIAN_POINT('',(1.013326567715E0,-5.885479517768E0,-2.499999999421E0));
#252=CARTESIAN_POINT('',(1.298309807271E0,-5.958123092208E0,-2.500000001249E0));
#253=CARTESIAN_POINT('',(1.443375671190E0,-6.E0,-2.500000001249E0));
#255=DIRECTION('',(-5.980496232918E-10,1.E0,2.788737591021E-10));
#256=VECTOR('',#255,3.3E0);
#257=CARTESIAN_POINT('',(-1.443375671001E0,-6.E0,-2.500000000920E0));
#258=LINE('',#257,#256);
#259=CARTESIAN_POINT('',(0.E0,0.E0,-5.E0));
#260=CARTESIAN_POINT('',(0.E0,0.E0,5.E0));
#261=VERTEX_POINT('',#259);
#262=VERTEX_POINT('',#260);
#263=CARTESIAN_POINT('',(-1.443375672974E0,-2.7E0,2.5E0));
#264=CARTESIAN_POINT('',(-2.886751345948E0,-2.7E0,0.E0));
#265=VERTEX_POINT('',#263);
#266=VERTEX_POINT('',#264);
#267=CARTESIAN_POINT('',(-1.443375672974E0,-2.7E0,-2.5E0));
#268=VERTEX_POINT('',#267);
#269=CARTESIAN_POINT('',(1.443375672974E0,-2.7E0,-2.5E0));
#270=VERTEX_POINT('',#269);
#271=CARTESIAN_POINT('',(2.886751345948E0,-2.7E0,0.E0));
#272=VERTEX_POINT('',#271);
#273=CARTESIAN_POINT('',(1.443375672974E0,-2.7E0,2.5E0));
#274=VERTEX_POINT('',#273);
#275=CARTESIAN_POINT('',(0.E0,1.799999710190E1,-2.699995409177E0));
#276=CARTESIAN_POINT('',(0.E0,1.799999710190E1,2.699995409177E0));
#277=VERTEX_POINT('',#275);
#278=VERTEX_POINT('',#276);
#279=CARTESIAN_POINT('',(0.E0,1.769999809383E1,-3.E0));
#280=CARTESIAN_POINT('',(0.E0,1.769999809383E1,3.E0));
#281=VERTEX_POINT('',#279);
#282=VERTEX_POINT('',#280);
#283=CARTESIAN_POINT('',(0.E0,3.E-1,3.E0));
#284=CARTESIAN_POINT('',(0.E0,3.E-1,-3.E0));
#285=VERTEX_POINT('',#283);
#286=VERTEX_POINT('',#284);
#287=CARTESIAN_POINT('',(0.E0,0.E0,3.299999938425E0));
#288=CARTESIAN_POINT('',(0.E0,0.E0,-3.299999938425E0));
#289=VERTEX_POINT('',#287);
#290=VERTEX_POINT('',#288);
#291=CARTESIAN_POINT('',(0.E0,-6.E0,-4.499999976652E0));
#292=CARTESIAN_POINT('',(0.E0,-6.E0,4.499999976652E0));
#293=VERTEX_POINT('',#291);
#294=VERTEX_POINT('',#292);
#295=CARTESIAN_POINT('',(0.E0,-5.5E0,-5.E0));
#296=CARTESIAN_POINT('',(0.E0,-5.5E0,5.E0));
#297=VERTEX_POINT('',#295);
#298=VERTEX_POINT('',#296);
#299=CARTESIAN_POINT('',(2.886751345948E0,-6.E0,0.E0));
#300=CARTESIAN_POINT('',(1.443375663581E0,-6.E0,2.500000005423E0));
#301=VERTEX_POINT('',#299);
#302=VERTEX_POINT('',#300);
#303=CARTESIAN_POINT('',(-1.443375663579E0,-6.E0,2.500000005424E0));
#304=VERTEX_POINT('',#303);
#305=CARTESIAN_POINT('',(-2.886751345948E0,-6.E0,0.E0));
#306=VERTEX_POINT('',#305);
#307=CARTESIAN_POINT('',(-1.443375663581E0,-6.E0,-2.500000005423E0));
#308=VERTEX_POINT('',#307);
#309=CARTESIAN_POINT('',(1.443375663579E0,-6.E0,-2.500000005424E0));
#310=VERTEX_POINT('',#309);
#311=CARTESIAN_POINT('',(0.E0,1.8E1,0.E0));
#312=DIRECTION('',(0.E0,1.E0,0.E0));
#313=DIRECTION('',(0.E0,0.E0,-1.E0));
#314=AXIS2_PLACEMENT_3D('',#311,#312,#313);
#315=PLANE('',#314);
#317=ORIENTED_EDGE('',*,*,#316,.F.);
#319=ORIENTED_EDGE('',*,*,#318,.F.);
#320=EDGE_LOOP('',(#317,#319));
#321=FACE_OUTER_BOUND('',#320,.F.);
#322=ADVANCED_FACE('',(#321),#315,.T.);
#323=CARTESIAN_POINT('',(0.E0,1.784999552063E1,1.998401444325E-14));
#324=DIRECTION('',(0.E0,-1.E0,0.E0));
#325=DIRECTION('',(0.E0,0.E0,-1.E0));
#326=AXIS2_PLACEMENT_3D('',#323,#324,#325);
#327=CONICAL_SURFACE('',#326,2.849996574392E0,4.499992054001E1);
#328=ORIENTED_EDGE('',*,*,#316,.T.);
#330=ORIENTED_EDGE('',*,*,#329,.T.);
#332=ORIENTED_EDGE('',*,*,#331,.F.);
#334=ORIENTED_EDGE('',*,*,#333,.F.);
#335=EDGE_LOOP('',(#328,#330,#332,#334));
#336=FACE_OUTER_BOUND('',#335,.F.);
#337=ADVANCED_FACE('',(#336),#327,.T.);
#338=CARTESIAN_POINT('',(0.E0,1.784999552063E1,-2.065014825803E-14));
#339=DIRECTION('',(0.E0,-1.E0,0.E0));
#340=DIRECTION('',(0.E0,0.E0,-1.E0));
#341=AXIS2_PLACEMENT_3D('',#338,#339,#340);
#342=CONICAL_SURFACE('',#341,2.849996574392E0,4.499992054001E1);
#343=ORIENTED_EDGE('',*,*,#318,.T.);
#344=ORIENTED_EDGE('',*,*,#333,.T.);
#346=ORIENTED_EDGE('',*,*,#345,.F.);
#347=ORIENTED_EDGE('',*,*,#329,.F.);
#348=EDGE_LOOP('',(#343,#344,#346,#347));
#349=FACE_OUTER_BOUND('',#348,.F.);
#350=ADVANCED_FACE('',(#349),#342,.T.);
#351=CARTESIAN_POINT('',(0.E0,0.E0,0.E0));
#352=DIRECTION('',(0.E0,1.E0,0.E0));
#353=DIRECTION('',(0.E0,0.E0,-1.E0));
#354=AXIS2_PLACEMENT_3D('',#351,#352,#353);
#355=CYLINDRICAL_SURFACE('',#354,3.E0);
#357=ORIENTED_EDGE('',*,*,#356,.T.);
#359=ORIENTED_EDGE('',*,*,#358,.T.);
#360=ORIENTED_EDGE('',*,*,#345,.T.);
#362=ORIENTED_EDGE('',*,*,#361,.F.);
#363=EDGE_LOOP('',(#357,#359,#360,#362));
#364=FACE_OUTER_BOUND('',#363,.F.);
#365=ADVANCED_FACE('',(#364),#355,.T.);
#366=CARTESIAN_POINT('',(0.E0,3.E-1,0.E0));
#367=DIRECTION('',(0.E0,1.E0,0.E0));
#368=DIRECTION('',(-1.372795542884E-2,0.E0,-9.999057671800E-1));
#369=AXIS2_PLACEMENT_3D('',#366,#367,#368);
#370=TOROIDAL_SURFACE('',#369,3.3E0,3.E-1);
#371=ORIENTED_EDGE('',*,*,#356,.F.);
#373=ORIENTED_EDGE('',*,*,#372,.T.);
#375=ORIENTED_EDGE('',*,*,#374,.T.);
#377=ORIENTED_EDGE('',*,*,#376,.F.);
#378=EDGE_LOOP('',(#371,#373,#375,#377));
#379=FACE_OUTER_BOUND('',#378,.F.);
#380=ADVANCED_FACE('',(#379),#370,.F.);
#381=CARTESIAN_POINT('',(0.E0,3.E-1,0.E0));
#382=DIRECTION('',(0.E0,1.E0,0.E0));
#383=DIRECTION('',(1.372795542884E-2,0.E0,9.999057671800E-1));
#384=AXIS2_PLACEMENT_3D('',#381,#382,#383);
#385=TOROIDAL_SURFACE('',#384,3.3E0,3.E-1);
#387=ORIENTED_EDGE('',*,*,#386,.F.);
#388=ORIENTED_EDGE('',*,*,#376,.T.);
#390=ORIENTED_EDGE('',*,*,#389,.T.);
#391=ORIENTED_EDGE('',*,*,#372,.F.);
#392=EDGE_LOOP('',(#387,#388,#390,#391));
#393=FACE_OUTER_BOUND('',#392,.F.);
#394=ADVANCED_FACE('',(#393),#385,.F.);
#395=CARTESIAN_POINT('',(0.E0,0.E0,0.E0));
#396=DIRECTION('',(0.E0,1.E0,0.E0));
#397=DIRECTION('',(0.E0,0.E0,-1.E0));
#398=AXIS2_PLACEMENT_3D('',#395,#396,#397);
#399=CYLINDRICAL_SURFACE('',#398,3.E0);
#400=ORIENTED_EDGE('',*,*,#386,.T.);
#401=ORIENTED_EDGE('',*,*,#361,.T.);
#402=ORIENTED_EDGE('',*,*,#331,.T.);
#403=ORIENTED_EDGE('',*,*,#358,.F.);
#404=EDGE_LOOP('',(#400,#401,#402,#403));
#405=FACE_OUTER_BOUND('',#404,.F.);
#406=ADVANCED_FACE('',(#405),#399,.T.);
#407=CARTESIAN_POINT('',(0.E0,0.E0,0.E0));
#408=DIRECTION('',(0.E0,1.E0,0.E0));
#409=DIRECTION('',(0.E0,0.E0,-1.E0));
#410=AXIS2_PLACEMENT_3D('',#407,#408,#409);
#411=PLANE('',#410);
#413=ORIENTED_EDGE('',*,*,#412,.F.);
#415=ORIENTED_EDGE('',*,*,#414,.F.);
#416=EDGE_LOOP('',(#413,#415));
#417=FACE_OUTER_BOUND('',#416,.F.);
#418=ORIENTED_EDGE('',*,*,#389,.F.);
#419=ORIENTED_EDGE('',*,*,#374,.F.);
#420=EDGE_LOOP('',(#418,#419));
#421=FACE_BOUND('',#420,.F.);
#422=ADVANCED_FACE('',(#417,#421),#411,.T.);
#423=CARTESIAN_POINT('',(0.E0,0.E0,0.E0));
#424=DIRECTION('',(0.E0,1.E0,0.E0));
#425=DIRECTION('',(0.E0,0.E0,-1.E0));
#426=AXIS2_PLACEMENT_3D('',#423,#424,#425);
#427=CYLINDRICAL_SURFACE('',#426,5.E0);
#429=ORIENTED_EDGE('',*,*,#428,.T.);
#431=ORIENTED_EDGE('',*,*,#430,.F.);
#432=ORIENTED_EDGE('',*,*,#412,.T.);
#434=ORIENTED_EDGE('',*,*,#433,.T.);
#435=EDGE_LOOP('',(#429,#431,#432,#434));
#436=FACE_OUTER_BOUND('',#435,.F.);
#437=ADVANCED_FACE('',(#436),#427,.T.);
#438=CARTESIAN_POINT('',(0.E0,-5.5E0,0.E0));
#439=DIRECTION('',(0.E0,1.E0,0.E0));
#440=DIRECTION('',(1.216906034856E-2,0.E0,9.999259542437E-1));
#441=AXIS2_PLACEMENT_3D('',#438,#439,#440);
#442=TOROIDAL_SURFACE('',#441,4.5E0,5.E-1);
#444=ORIENTED_EDGE('',*,*,#443,.T.);
#446=ORIENTED_EDGE('',*,*,#445,.T.);
#447=ORIENTED_EDGE('',*,*,#428,.F.);
#449=ORIENTED_EDGE('',*,*,#448,.F.);
#450=EDGE_LOOP('',(#444,#446,#447,#449));
#451=FACE_OUTER_BOUND('',#450,.F.);
#452=ADVANCED_FACE('',(#451),#442,.T.);
#453=CARTESIAN_POINT('',(0.E0,-6.E0,0.E0));
#454=DIRECTION('',(0.E0,1.E0,0.E0));
#455=DIRECTION('',(0.E0,0.E0,-1.E0));
#456=AXIS2_PLACEMENT_3D('',#453,#454,#455);
#457=PLANE('',#456);
#459=ORIENTED_EDGE('',*,*,#458,.F.);
#460=ORIENTED_EDGE('',*,*,#443,.F.);
#461=EDGE_LOOP('',(#459,#460));
#462=FACE_OUTER_BOUND('',#461,.F.);
#464=ORIENTED_EDGE('',*,*,#463,.T.);
#466=ORIENTED_EDGE('',*,*,#465,.T.);
#468=ORIENTED_EDGE('',*,*,#467,.T.);
#470=ORIENTED_EDGE('',*,*,#469,.T.);
#472=ORIENTED_EDGE('',*,*,#471,.T.);
#474=ORIENTED_EDGE('',*,*,#473,.T.);
#475=EDGE_LOOP('',(#464,#466,#468,#470,#472,#474));
#476=FACE_BOUND('',#475,.F.);
#477=ADVANCED_FACE('',(#462,#476),#457,.F.);
#478=CARTESIAN_POINT('',(0.E0,-5.5E0,0.E0));
#479=DIRECTION('',(0.E0,1.E0,0.E0));
#480=DIRECTION('',(-1.216906034856E-2,0.E0,-9.999259542437E-1));
#481=AXIS2_PLACEMENT_3D('',#478,#479,#480);
#482=TOROIDAL_SURFACE('',#481,4.5E0,5.E-1);
#483=ORIENTED_EDGE('',*,*,#458,.T.);
#484=ORIENTED_EDGE('',*,*,#448,.T.);
#486=ORIENTED_EDGE('',*,*,#485,.F.);
#487=ORIENTED_EDGE('',*,*,#445,.F.);
#488=EDGE_LOOP('',(#483,#484,#486,#487));
#489=FACE_OUTER_BOUND('',#488,.F.);
#490=ADVANCED_FACE('',(#489),#482,.T.);
#491=CARTESIAN_POINT('',(0.E0,0.E0,0.E0));
#492=DIRECTION('',(0.E0,1.E0,0.E0));
#493=DIRECTION('',(0.E0,0.E0,-1.E0));
#494=AXIS2_PLACEMENT_3D('',#491,#492,#493);
#495=CYLINDRICAL_SURFACE('',#494,5.E0);
#496=ORIENTED_EDGE('',*,*,#485,.T.);
#497=ORIENTED_EDGE('',*,*,#433,.F.);
#498=ORIENTED_EDGE('',*,*,#414,.T.);
#499=ORIENTED_EDGE('',*,*,#430,.T.);
#500=EDGE_LOOP('',(#496,#497,#498,#499));
#501=FACE_OUTER_BOUND('',#500,.F.);
#502=ADVANCED_FACE('',(#501),#495,.T.);
#503=CARTESIAN_POINT('',(0.E0,-5.887688506936E0,0.E0));
#504=DIRECTION('',(0.E0,-1.E0,0.E0));
#505=DIRECTION('',(-1.E0,0.E0,0.E0));
#506=AXIS2_PLACEMENT_3D('',#503,#504,#505);
#507=CONICAL_SURFACE('',#506,2.692222133688E0,6.E1);
#509=ORIENTED_EDGE('',*,*,#508,.T.);
#510=ORIENTED_EDGE('',*,*,#463,.F.);
#511=EDGE_LOOP('',(#509,#510));
#512=FACE_OUTER_BOUND('',#511,.F.);
#513=ADVANCED_FACE('',(#512),#507,.F.);
#514=CARTESIAN_POINT('',(0.E0,-5.887688506936E0,0.E0));
#515=DIRECTION('',(0.E0,-1.E0,0.E0));
#516=DIRECTION('',(-1.E0,0.E0,0.E0));
#517=AXIS2_PLACEMENT_3D('',#514,#515,#516);
#518=CONICAL_SURFACE('',#517,2.692222133688E0,6.E1);
#520=ORIENTED_EDGE('',*,*,#519,.T.);
#521=ORIENTED_EDGE('',*,*,#465,.F.);
#522=EDGE_LOOP('',(#520,#521));
#523=FACE_OUTER_BOUND('',#522,.F.);
#524=ADVANCED_FACE('',(#523),#518,.F.);
#525=CARTESIAN_POINT('',(0.E0,-5.887688506936E0,0.E0));
#526=DIRECTION('',(0.E0,-1.E0,0.E0));
#527=DIRECTION('',(-1.E0,0.E0,0.E0));
#528=AXIS2_PLACEMENT_3D('',#525,#526,#527);
#529=CONICAL_SURFACE('',#528,2.692222133688E0,6.E1);
#531=ORIENTED_EDGE('',*,*,#530,.T.);
#532=ORIENTED_EDGE('',*,*,#467,.F.);
#533=EDGE_LOOP('',(#531,#532));
#534=FACE_OUTER_BOUND('',#533,.F.);
#535=ADVANCED_FACE('',(#534),#529,.F.);
#536=CARTESIAN_POINT('',(2.886751345948E0,-6.E0,0.E0));
#537=DIRECTION('',(8.660254037844E-1,0.E0,5.E-1));
#538=DIRECTION('',(-5.E-1,0.E0,8.660254037844E-1));
#539=AXIS2_PLACEMENT_3D('',#536,#537,#538);
#540=PLANE('',#539);
#541=ORIENTED_EDGE('',*,*,#508,.F.);
#543=ORIENTED_EDGE('',*,*,#542,.T.);
#545=ORIENTED_EDGE('',*,*,#544,.T.);
#547=ORIENTED_EDGE('',*,*,#546,.F.);
#548=EDGE_LOOP('',(#541,#543,#545,#547));
#549=FACE_OUTER_BOUND('',#548,.F.);
#550=ADVANCED_FACE('',(#549),#540,.F.);
#551=CARTESIAN_POINT('',(1.443375672974E0,-6.E0,-2.5E0));
#552=DIRECTION('',(8.660254037844E-1,0.E0,-5.E-1));
#553=DIRECTION('',(5.E-1,0.E0,8.660254037844E-1));
#554=AXIS2_PLACEMENT_3D('',#551,#552,#553);
#555=PLANE('',#554);
#557=ORIENTED_EDGE('',*,*,#556,.F.);
#559=ORIENTED_EDGE('',*,*,#558,.T.);
#561=ORIENTED_EDGE('',*,*,#560,.T.);
#562=ORIENTED_EDGE('',*,*,#542,.F.);
#563=EDGE_LOOP('',(#557,#559,#561,#562));
#564=FACE_OUTER_BOUND('',#563,.F.);
#565=ADVANCED_FACE('',(#564),#555,.F.);
#566=CARTESIAN_POINT('',(0.E0,-5.887688506936E0,0.E0));
#567=DIRECTION('',(0.E0,-1.E0,0.E0));
#568=DIRECTION('',(-1.E0,0.E0,0.E0));
#569=AXIS2_PLACEMENT_3D('',#566,#567,#568);
#570=CONICAL_SURFACE('',#569,2.692222133688E0,6.E1);
#572=ORIENTED_EDGE('',*,*,#571,.T.);
#573=ORIENTED_EDGE('',*,*,#469,.F.);
#574=EDGE_LOOP('',(#572,#573));
#575=FACE_OUTER_BOUND('',#574,.F.);
#576=ADVANCED_FACE('',(#575),#570,.F.);
#577=CARTESIAN_POINT('',(0.E0,-5.887688506936E0,0.E0));
#578=DIRECTION('',(0.E0,-1.E0,0.E0));
#579=DIRECTION('',(-1.E0,0.E0,0.E0));
#580=AXIS2_PLACEMENT_3D('',#577,#578,#579);
#581=CONICAL_SURFACE('',#580,2.692222133688E0,6.E1);
#583=ORIENTED_EDGE('',*,*,#582,.T.);
#584=ORIENTED_EDGE('',*,*,#471,.F.);
#585=EDGE_LOOP('',(#583,#584));
#586=FACE_OUTER_BOUND('',#585,.F.);
#587=ADVANCED_FACE('',(#586),#581,.F.);
#588=CARTESIAN_POINT('',(0.E0,-5.887688506936E0,0.E0));
#589=DIRECTION('',(0.E0,-1.E0,0.E0));
#590=DIRECTION('',(-1.E0,0.E0,0.E0));
#591=AXIS2_PLACEMENT_3D('',#588,#589,#590);
#592=CONICAL_SURFACE('',#591,2.692222133688E0,6.E1);
#593=ORIENTED_EDGE('',*,*,#556,.T.);
#594=ORIENTED_EDGE('',*,*,#473,.F.);
#595=EDGE_LOOP('',(#593,#594));
#596=FACE_OUTER_BOUND('',#595,.F.);
#597=ADVANCED_FACE('',(#596),#592,.F.);
#598=CARTESIAN_POINT('',(-2.886751345948E0,-6.E0,0.E0));
#599=DIRECTION('',(-8.660254037844E-1,0.E0,-5.E-1));
#600=DIRECTION('',(5.E-1,0.E0,-8.660254037844E-1));
#601=AXIS2_PLACEMENT_3D('',#598,#599,#600);
#602=PLANE('',#601);
#603=ORIENTED_EDGE('',*,*,#571,.F.);
#605=ORIENTED_EDGE('',*,*,#604,.T.);
#607=ORIENTED_EDGE('',*,*,#606,.T.);
#609=ORIENTED_EDGE('',*,*,#608,.F.);
#610=EDGE_LOOP('',(#603,#605,#607,#609));
#611=FACE_OUTER_BOUND('',#610,.F.);
#612=ADVANCED_FACE('',(#611),#602,.F.);
#613=CARTESIAN_POINT('',(-1.443375672974E0,-6.E0,2.5E0));
#614=DIRECTION('',(-8.660254037844E-1,0.E0,5.E-1));
#615=DIRECTION('',(-5.E-1,0.E0,-8.660254037844E-1));
#616=AXIS2_PLACEMENT_3D('',#613,#614,#615);
#617=PLANE('',#616);
#618=ORIENTED_EDGE('',*,*,#530,.F.);
#620=ORIENTED_EDGE('',*,*,#619,.T.);
#622=ORIENTED_EDGE('',*,*,#621,.T.);
#623=ORIENTED_EDGE('',*,*,#604,.F.);
#624=EDGE_LOOP('',(#618,#620,#622,#623));
#625=FACE_OUTER_BOUND('',#624,.F.);
#626=ADVANCED_FACE('',(#625),#617,.F.);
#627=CARTESIAN_POINT('',(1.443375672974E0,-6.E0,2.5E0));
#628=DIRECTION('',(0.E0,0.E0,1.E0));
#629=DIRECTION('',(-1.E0,0.E0,0.E0));
#630=AXIS2_PLACEMENT_3D('',#627,#628,#629);
#631=PLANE('',#630);
#632=ORIENTED_EDGE('',*,*,#519,.F.);
#633=ORIENTED_EDGE('',*,*,#546,.T.);
#635=ORIENTED_EDGE('',*,*,#634,.T.);
#636=ORIENTED_EDGE('',*,*,#619,.F.);
#637=EDGE_LOOP('',(#632,#633,#635,#636));
#638=FACE_OUTER_BOUND('',#637,.F.);
#639=ADVANCED_FACE('',(#638),#631,.F.);
#640=CARTESIAN_POINT('',(0.E0,-2.7E0,0.E0));
#641=DIRECTION('',(0.E0,-1.E0,0.E0));
#642=DIRECTION('',(1.E0,0.E0,0.E0));
#643=AXIS2_PLACEMENT_3D('',#640,#641,#642);
#644=PLANE('',#643);
#645=ORIENTED_EDGE('',*,*,#621,.F.);
#646=ORIENTED_EDGE('',*,*,#634,.F.);
#647=ORIENTED_EDGE('',*,*,#544,.F.);
#648=ORIENTED_EDGE('',*,*,#560,.F.);
#650=ORIENTED_EDGE('',*,*,#649,.F.);
#651=ORIENTED_EDGE('',*,*,#606,.F.);
#652=EDGE_LOOP('',(#645,#646,#647,#648,#650,#651));
#653=FACE_OUTER_BOUND('',#652,.F.);
#654=ADVANCED_FACE('',(#653),#644,.T.);
#655=CARTESIAN_POINT('',(-1.443375672974E0,-6.E0,-2.5E0));
#656=DIRECTION('',(0.E0,0.E0,-1.E0));
#657=DIRECTION('',(1.E0,0.E0,0.E0));
#658=AXIS2_PLACEMENT_3D('',#655,#656,#657);
#659=PLANE('',#658);
#660=ORIENTED_EDGE('',*,*,#582,.F.);
#661=ORIENTED_EDGE('',*,*,#608,.T.);
#662=ORIENTED_EDGE('',*,*,#649,.T.);
#663=ORIENTED_EDGE('',*,*,#558,.F.);
#664=EDGE_LOOP('',(#660,#661,#662,#663));
#665=FACE_OUTER_BOUND('',#664,.F.);
#666=ADVANCED_FACE('',(#665),#659,.F.);
#667=CLOSED_SHELL('',(#322,#337,#350,#365,#380,#394,#406,#422,#437,#452,#477,
#490,#502,#513,#524,#535,#550,#565,#576,#587,#597,#612,#626,#639,#654,#666));
#668=MANIFOLD_SOLID_BREP('',#667);
#669=(LENGTH_UNIT()NAMED_UNIT(*)SI_UNIT(.MILLI.,.METRE.));
#670=DIMENSIONAL_EXPONENTS(0.E0,0.E0,0.E0,0.E0,0.E0,0.E0,0.E0);
#671=(NAMED_UNIT(*)PLANE_ANGLE_UNIT()SI_UNIT($,.RADIAN.));
#672=PLANE_ANGLE_MEASURE_WITH_UNIT(PLANE_ANGLE_MEASURE(1.745329251994E-2),#671);
#673=(CONVERSION_BASED_UNIT('DEGREE',#672)NAMED_UNIT(#670)PLANE_ANGLE_UNIT());
#674=(NAMED_UNIT(*)SI_UNIT($,.STERADIAN.)SOLID_ANGLE_UNIT());
#675=UNCERTAINTY_MEASURE_WITH_UNIT(LENGTH_MEASURE(2.785566644971E-3),#669,
'closure',
'Maximum model space distance between geometric entities at asserted connectivities');
#676=(GEOMETRIC_REPRESENTATION_CONTEXT(3)GLOBAL_UNCERTAINTY_ASSIGNED_CONTEXT((
#675))GLOBAL_UNIT_ASSIGNED_CONTEXT((#669,#673,#674))REPRESENTATION_CONTEXT
('ID1','3'));
#678=APPLICATION_CONTEXT(
'CONFIGURATION CONTROLLED 3D DESIGNS OF MECHANICAL PARTS AND ASSEMBLIES');
#679=APPLICATION_PROTOCOL_DEFINITION('international standard',
'config_control_design',1994,#678);
#680=DESIGN_CONTEXT('',#678,'design');
#681=MECHANICAL_CONTEXT('',#678,'mechanical');
#682=PRODUCT('SCREW-M06X18-CSN_02_1143','SCREW-M06X18-CSN_02_1143',
'NOT SPECIFIED',(#681));
#683=PRODUCT_DEFINITION_FORMATION_WITH_SPECIFIED_SOURCE('8','LAST_VERSION',#682,
.MADE.);
#687=PRODUCT_CATEGORY('part','');
#688=PRODUCT_RELATED_PRODUCT_CATEGORY('detail','',(#682));
#689=PRODUCT_CATEGORY_RELATIONSHIP('','',#687,#688);
#690=SECURITY_CLASSIFICATION_LEVEL('unclassified');
#691=SECURITY_CLASSIFICATION('','',#690);
#692=CC_DESIGN_SECURITY_CLASSIFICATION(#691,(#683));
#693=APPROVAL_STATUS('approved');
#694=APPROVAL(#693,'');
#695=CC_DESIGN_APPROVAL(#694,(#691,#683,#684));
#696=CALENDAR_DATE(111,14,12);
#697=COORDINATED_UNIVERSAL_TIME_OFFSET(1,0,.AHEAD.);
#698=LOCAL_TIME(10,8,1.7E1,#697);
#699=DATE_AND_TIME(#696,#698);
#700=APPROVAL_DATE_TIME(#699,#694);
#701=DATE_TIME_ROLE('creation_date');
#702=CC_DESIGN_DATE_AND_TIME_ASSIGNMENT(#699,#701,(#684));
#703=DATE_TIME_ROLE('classification_date');
#704=CC_DESIGN_DATE_AND_TIME_ASSIGNMENT(#699,#703,(#691));
#705=PERSON('UNSPECIFIED','UNSPECIFIED',$,$,$,$);
#706=ORGANIZATION('UNSPECIFIED','UNSPECIFIED','UNSPECIFIED');
#707=PERSON_AND_ORGANIZATION(#705,#706);
#708=APPROVAL_ROLE('approver');
#709=APPROVAL_PERSON_ORGANIZATION(#707,#694,#708);
#710=PERSON_AND_ORGANIZATION_ROLE('creator');
#711=CC_DESIGN_PERSON_AND_ORGANIZATION_ASSIGNMENT(#707,#710,(#683,#684));
#712=PERSON_AND_ORGANIZATION_ROLE('design_supplier');
#713=CC_DESIGN_PERSON_AND_ORGANIZATION_ASSIGNMENT(#707,#712,(#683));
#714=PERSON_AND_ORGANIZATION_ROLE('classification_officer');
#715=CC_DESIGN_PERSON_AND_ORGANIZATION_ASSIGNMENT(#707,#714,(#691));
#716=PERSON_AND_ORGANIZATION_ROLE('design_owner');
#717=CC_DESIGN_PERSON_AND_ORGANIZATION_ASSIGNMENT(#707,#716,(#682));
#5=CIRCLE('',#4,2.699995409177E0);
#10=CIRCLE('',#9,2.699995409177E0);
#23=CIRCLE('',#22,3.E0);
#32=CIRCLE('',#31,3.E0);
#37=CIRCLE('',#36,3.E-1);
#42=CIRCLE('',#41,3.E-1);
#47=CIRCLE('',#46,3.E0);
#56=CIRCLE('',#55,3.E0);
#61=CIRCLE('',#60,5.E0);
#66=CIRCLE('',#65,5.E0);
#71=CIRCLE('',#70,3.299999938425E0);
#76=CIRCLE('',#75,3.299999938425E0);
#81=CIRCLE('',#80,5.E0);
#90=CIRCLE('',#89,5.E-1);
#95=CIRCLE('',#94,4.499999976652E0);
#100=CIRCLE('',#99,4.499999976652E0);
#105=CIRCLE('',#104,2.886751345948E0);
#110=CIRCLE('',#109,2.886751345948E0);
#115=CIRCLE('',#114,2.886751345948E0);
#120=CIRCLE('',#119,2.886751345948E0);
#125=CIRCLE('',#124,2.886751345948E0);
#130=CIRCLE('',#129,2.886751345948E0);
#135=CIRCLE('',#134,5.E-1);
#140=CIRCLE('',#139,5.E0);
#155=B_SPLINE_CURVE_WITH_KNOTS('',3,(#145,#146,#147,#148,#149,#150,#151,#152,
#153,#154),.UNSPECIFIED.,.F.,.F.,(4,1,1,1,1,1,1,4),(0.E0,1.428571428571E-1,
2.857142857143E-1,4.285714285714E-1,5.714285714286E-1,7.142857142857E-1,
8.571428571429E-1,1.E0),.UNSPECIFIED.);
#170=B_SPLINE_CURVE_WITH_KNOTS('',3,(#160,#161,#162,#163,#164,#165,#166,#167,
#168,#169),.UNSPECIFIED.,.F.,.F.,(4,1,1,1,1,1,1,4),(0.E0,1.428571428571E-1,
2.857142857143E-1,4.285714285714E-1,5.714285714286E-1,7.142857142857E-1,
8.571428571429E-1,1.E0),.UNSPECIFIED.);
#185=B_SPLINE_CURVE_WITH_KNOTS('',3,(#175,#176,#177,#178,#179,#180,#181,#182,
#183,#184),.UNSPECIFIED.,.F.,.F.,(4,1,1,1,1,1,1,4),(0.E0,1.428571428571E-1,
2.857142857143E-1,4.285714285714E-1,5.714285714286E-1,7.142857142857E-1,
8.571428571429E-1,1.E0),.UNSPECIFIED.);
#200=B_SPLINE_CURVE_WITH_KNOTS('',3,(#190,#191,#192,#193,#194,#195,#196,#197,
#198,#199),.UNSPECIFIED.,.F.,.F.,(4,1,1,1,1,1,1,4),(0.E0,1.428571428571E-1,
2.857142857143E-1,4.285714285714E-1,5.714285714286E-1,7.142857142857E-1,
8.571428571429E-1,1.E0),.UNSPECIFIED.);
#215=B_SPLINE_CURVE_WITH_KNOTS('',3,(#205,#206,#207,#208,#209,#210,#211,#212,
#213,#214),.UNSPECIFIED.,.F.,.F.,(4,1,1,1,1,1,1,4),(0.E0,1.428571428571E-1,
2.857142857143E-1,4.285714285714E-1,5.714285714286E-1,7.142857142857E-1,
8.571428571429E-1,1.E0),.UNSPECIFIED.);
#254=B_SPLINE_CURVE_WITH_KNOTS('',3,(#244,#245,#246,#247,#248,#249,#250,#251,
#252,#253),.UNSPECIFIED.,.F.,.F.,(4,1,1,1,1,1,1,4),(0.E0,1.428571428571E-1,
2.857142857143E-1,4.285714285714E-1,5.714285714286E-1,7.142857142857E-1,
8.571428571429E-1,1.E0),.UNSPECIFIED.);
#316=EDGE_CURVE('',#277,#278,#5,.T.);
#318=EDGE_CURVE('',#278,#277,#10,.T.);
#329=EDGE_CURVE('',#278,#282,#18,.T.);
#331=EDGE_CURVE('',#281,#282,#56,.T.);
#333=EDGE_CURVE('',#277,#281,#14,.T.);
#345=EDGE_CURVE('',#282,#281,#32,.T.);
#356=EDGE_CURVE('',#286,#285,#23,.T.);
#358=EDGE_CURVE('',#285,#282,#27,.T.);
#361=EDGE_CURVE('',#286,#281,#51,.T.);
#372=EDGE_CURVE('',#286,#290,#37,.T.);
#374=EDGE_CURVE('',#290,#289,#76,.T.);
#376=EDGE_CURVE('',#285,#289,#42,.T.);
#386=EDGE_CURVE('',#285,#286,#47,.T.);
#389=EDGE_CURVE('',#289,#290,#71,.T.);
#412=EDGE_CURVE('',#261,#262,#61,.T.);
#414=EDGE_CURVE('',#262,#261,#66,.T.);
#428=EDGE_CURVE('',#298,#297,#81,.T.);
#430=EDGE_CURVE('',#261,#297,#85,.T.);
#433=EDGE_CURVE('',#262,#298,#144,.T.);
#443=EDGE_CURVE('',#294,#293,#100,.T.);
#445=EDGE_CURVE('',#293,#297,#135,.T.);
#448=EDGE_CURVE('',#294,#298,#90,.T.);
#458=EDGE_CURVE('',#293,#294,#95,.T.);
#463=EDGE_CURVE('',#301,#302,#105,.T.);
#465=EDGE_CURVE('',#302,#304,#110,.T.);
#467=EDGE_CURVE('',#304,#306,#115,.T.);
#469=EDGE_CURVE('',#306,#308,#120,.T.);
#471=EDGE_CURVE('',#308,#310,#125,.T.);
#473=EDGE_CURVE('',#310,#301,#130,.T.);
#485=EDGE_CURVE('',#297,#298,#140,.T.);
#508=EDGE_CURVE('',#301,#302,#155,.T.);
#519=EDGE_CURVE('',#302,#304,#215,.T.);
#530=EDGE_CURVE('',#304,#306,#200,.T.);
#542=EDGE_CURVE('',#301,#272,#159,.T.);
#544=EDGE_CURVE('',#272,#274,#231,.T.);
#546=EDGE_CURVE('',#302,#274,#219,.T.);
#556=EDGE_CURVE('',#310,#301,#170,.T.);
#558=EDGE_CURVE('',#310,#270,#174,.T.);
#560=EDGE_CURVE('',#270,#272,#235,.T.);
#571=EDGE_CURVE('',#306,#308,#185,.T.);
#582=EDGE_CURVE('',#308,#310,#254,.T.);
#604=EDGE_CURVE('',#306,#266,#189,.T.);
#606=EDGE_CURVE('',#266,#268,#243,.T.);
#608=EDGE_CURVE('',#308,#268,#258,.T.);
#619=EDGE_CURVE('',#304,#265,#204,.T.);
#621=EDGE_CURVE('',#265,#266,#223,.T.);
#634=EDGE_CURVE('',#274,#265,#227,.T.);
#649=EDGE_CURVE('',#268,#270,#239,.T.);
#677=ADVANCED_BREP_SHAPE_REPRESENTATION('',(#668),#676);
#684=PRODUCT_DEFINITION('design','',#683,#680);
#685=PRODUCT_DEFINITION_SHAPE('','SHAPE FOR SCREW-M06X18-CSN_02_1143.',#684);
#686=SHAPE_DEFINITION_REPRESENTATION(#685,#677);
ENDSEC;
END-ISO-10303-21;
