ISO-10303-21;
HEADER;
FILE_DESCRIPTION(('STEP AP214'),'1');
FILE_NAME('din_en_iso_7047_m10x354_8z.stp','2017-06-12T20:15:09',('TraceParts'),('TraceParts S.A.'),'Spatial InterOp 3D',' ',' ');
FILE_SCHEMA(('automotive_design'));
ENDSEC;
DATA;
#1=PRODUCT_DEFINITION_CONTEXT('',#9,'design');
#2=APPLICATION_PROTOCOL_DEFINITION('INTERNATIONAL STANDARD','automotive_design',1994,#9);
#3=PRODUCT_CATEGORY_RELATIONSHIP('NONE','NONE',#10,#11);
#4=SHAPE_DEFINITION_REPRESENTATION(#12,#13);
#5= (GEOMETRIC_REPRESENTATION_CONTEXT(3)GLOBAL_UNCERTAINTY_ASSIGNED_CONTEXT((#16))GLOBAL_UNIT_ASSIGNED_CONTEXT((#18,#19,#20))REPRESENTATION_CONTEXT('NONE','WORKSPACE'));
#9=APPLICATION_CONTEXT(' ');
#10=PRODUCT_CATEGORY('part','NONE');
#11=PRODUCT_RELATED_PRODUCT_CATEGORY('detail',' ',(#22));
#12=PRODUCT_DEFINITION_SHAPE('NONE','NONE',#23);
#13=ADVANCED_BREP_SHAPE_REPRESENTATION('din_en_iso_7047_m10x354_8z',(#24,#25),#5);
#16=UNCERTAINTY_MEASURE_WITH_UNIT(LENGTH_MEASURE(1.0E-006),#18,'','');
#18= (CONVERSION_BASED_UNIT('MILLIMETRE',#28)LENGTH_UNIT()NAMED_UNIT(#31));
#19= (NAMED_UNIT(#33)PLANE_ANGLE_UNIT()SI_UNIT($,.RADIAN.));
#20= (NAMED_UNIT(#33)SOLID_ANGLE_UNIT()SI_UNIT($,.STERADIAN.));
#22=PRODUCT('din_en_iso_7047_m10x354_8z','din_en_iso_7047_m10x354_8z','PART-din_en_iso_7047_m10x354_8z-DESC',(#39));
#23=PRODUCT_DEFINITION('NONE','NONE',#40,#1);
#24=MANIFOLD_SOLID_BREP('din_en_iso_7047_m10x354_8z',#41);
#25=AXIS2_PLACEMENT_3D('',#42,#43,#44);
#28=LENGTH_MEASURE_WITH_UNIT(LENGTH_MEASURE(1.0),#45);
#31=DIMENSIONAL_EXPONENTS(1.0,0.0,0.0,0.0,0.0,0.0,0.0);
#33=DIMENSIONAL_EXPONENTS(0.0,0.0,0.0,0.0,0.0,0.0,0.0);
#39=PRODUCT_CONTEXT('',#9,'mechanical');
#40=PRODUCT_DEFINITION_FORMATION_WITH_SPECIFIED_SOURCE(' ','NONE',#22,.NOT_KNOWN.);
#41=CLOSED_SHELL('',(#46,#47,#48,#49,#50,#51,#52,#53,#54,#55,#56,#57,#58,#59,#60,#61,#62,#63,#64,#65,#66,#67,#68,#69,#70,#71,#72,#73,#74,#75,#76));
#42=CARTESIAN_POINT('',(0.0,0.0,0.0));
#43=DIRECTION('',(0.0,0.0,1.0));
#44=DIRECTION('',(1.0,0.0,0.0));
#45= (NAMED_UNIT(#31)LENGTH_UNIT()SI_UNIT(.MILLI.,.METRE.));
#46=ADVANCED_FACE('',(#78),#79,.T.);
#47=ADVANCED_FACE('',(#80),#81,.T.);
#48=ADVANCED_FACE('',(#82),#83,.T.);
#49=ADVANCED_FACE('',(#84),#85,.T.);
#50=ADVANCED_FACE('',(#86),#87,.F.);
#51=ADVANCED_FACE('',(#88),#89,.T.);
#52=ADVANCED_FACE('',(#90),#91,.T.);
#53=ADVANCED_FACE('',(#92),#93,.T.);
#54=ADVANCED_FACE('',(#94),#95,.F.);
#55=ADVANCED_FACE('',(#96),#97,.F.);
#56=ADVANCED_FACE('',(#98),#99,.F.);
#57=ADVANCED_FACE('',(#100),#101,.F.);
#58=ADVANCED_FACE('',(#102),#103,.F.);
#59=ADVANCED_FACE('',(#104),#105,.F.);
#60=ADVANCED_FACE('',(#106),#107,.F.);
#61=ADVANCED_FACE('',(#108),#109,.F.);
#62=ADVANCED_FACE('',(#110),#111,.F.);
#63=ADVANCED_FACE('',(#112),#113,.F.);
#64=ADVANCED_FACE('',(#114),#115,.F.);
#65=ADVANCED_FACE('',(#116),#117,.F.);
#66=ADVANCED_FACE('',(#118),#119,.F.);
#67=ADVANCED_FACE('',(#120),#121,.T.);
#68=ADVANCED_FACE('',(#122),#123,.T.);
#69=ADVANCED_FACE('',(#124),#125,.T.);
#70=ADVANCED_FACE('',(#126),#127,.F.);
#71=ADVANCED_FACE('',(#128),#129,.T.);
#72=ADVANCED_FACE('',(#130),#131,.T.);
#73=ADVANCED_FACE('',(#132,#133),#134,.T.);
#74=ADVANCED_FACE('',(#135),#136,.T.);
#75=ADVANCED_FACE('',(#137),#138,.T.);
#76=ADVANCED_FACE('',(#139),#140,.T.);
#78=FACE_OUTER_BOUND('',#141,.T.);
#79=CONICAL_SURFACE('',#142,4.5940625,0.785398163397448);
#80=FACE_OUTER_BOUND('',#143,.T.);
#81=CYLINDRICAL_SURFACE('',#144,5.0);
#82=FACE_OUTER_BOUND('',#145,.T.);
#83=CONICAL_SURFACE('',#146,4.5940625,0.785398163397448);
#84=FACE_OUTER_BOUND('',#147,.T.);
#85=CYLINDRICAL_SURFACE('',#148,5.0);
#86=FACE_OUTER_BOUND('',#149,.T.);
#87=TOROIDAL_SURFACE('',#150,7.5,2.5);
#88=FACE_OUTER_BOUND('',#151,.T.);
#89=CONICAL_SURFACE('',#152,7.44111652351682,0.896408823740911);
#90=FACE_OUTER_BOUND('',#153,.T.);
#91=CYLINDRICAL_SURFACE('',#154,9.15);
#92=FACE_OUTER_BOUND('',#155,.T.);
#93=SPHERICAL_SURFACE('',#156,19.3505434782609);
#94=FACE_OUTER_BOUND('',#157,.T.);
#95=PLANE('',#158);
#96=FACE_OUTER_BOUND('',#159,.T.);
#97=PLANE('',#160);
#98=FACE_OUTER_BOUND('',#161,.T.);
#99=PLANE('',#162);
#100=FACE_OUTER_BOUND('',#163,.T.);
#101=PLANE('',#164);
#102=FACE_OUTER_BOUND('',#165,.T.);
#103=PLANE('',#166);
#104=FACE_OUTER_BOUND('',#167,.T.);
#105=PLANE('',#168);
#106=FACE_OUTER_BOUND('',#169,.T.);
#107=PLANE('',#170);
#108=FACE_OUTER_BOUND('',#171,.T.);
#109=PLANE('',#172);
#110=FACE_OUTER_BOUND('',#173,.T.);
#111=PLANE('',#174);
#112=FACE_OUTER_BOUND('',#175,.T.);
#113=PLANE('',#176);
#114=FACE_OUTER_BOUND('',#177,.T.);
#115=PLANE('',#178);
#116=FACE_OUTER_BOUND('',#179,.T.);
#117=PLANE('',#180);
#118=FACE_OUTER_BOUND('',#181,.T.);
#119=PLANE('',#182);
#120=FACE_OUTER_BOUND('',#183,.T.);
#121=SPHERICAL_SURFACE('',#184,19.3505434782609);
#122=FACE_OUTER_BOUND('',#185,.T.);
#123=CYLINDRICAL_SURFACE('',#186,9.15);
#124=FACE_OUTER_BOUND('',#187,.T.);
#125=CONICAL_SURFACE('',#188,7.44111652351682,0.896408823740911);
#126=FACE_OUTER_BOUND('',#189,.T.);
#127=TOROIDAL_SURFACE('',#190,7.5,2.5);
#128=FACE_OUTER_BOUND('',#191,.T.);
#129=CYLINDRICAL_SURFACE('',#192,5.0);
#130=FACE_OUTER_BOUND('',#193,.T.);
#131=CONICAL_SURFACE('',#194,4.5940625,0.785398163397448);
#132=FACE_OUTER_BOUND('',#195,.T.);
#133=FACE_BOUND('',#196,.T.);
#134=PLANE('',#197);
#135=FACE_OUTER_BOUND('',#198,.T.);
#136=CYLINDRICAL_SURFACE('',#199,5.0);
#137=FACE_OUTER_BOUND('',#200,.T.);
#138=CONICAL_SURFACE('',#201,4.5940625,0.785398163397448);
#139=FACE_OUTER_BOUND('',#202,.T.);
#140=PLANE('',#203);
#141=EDGE_LOOP('',(#204,#205,#206,#207));
#142=AXIS2_PLACEMENT_3D('',#208,#209,#210);
#143=EDGE_LOOP('',(#211,#212,#213,#214));
#144=AXIS2_PLACEMENT_3D('',#215,#216,#217);
#145=EDGE_LOOP('',(#218,#219,#220,#221));
#146=AXIS2_PLACEMENT_3D('',#222,#223,#224);
#147=EDGE_LOOP('',(#225,#226,#227,#228,#229));
#148=AXIS2_PLACEMENT_3D('',#230,#231,#232);
#149=EDGE_LOOP('',(#233,#234,#235,#236,#237,#238));
#150=AXIS2_PLACEMENT_3D('',#239,#240,#241);
#151=EDGE_LOOP('',(#242,#243,#244,#245,#246));
#152=AXIS2_PLACEMENT_3D('',#247,#248,#249);
#153=EDGE_LOOP('',(#250,#251,#252,#253,#254));
#154=AXIS2_PLACEMENT_3D('',#255,#256,#257);
#155=EDGE_LOOP('',(#258,#259,#260,#261,#262,#263,#264,#265,#266,#267,#268));
#156=AXIS2_PLACEMENT_3D('',#269,#270,#271);
#157=EDGE_LOOP('',(#272,#273,#274,#275));
#158=AXIS2_PLACEMENT_3D('',#276,#277,#278);
#159=EDGE_LOOP('',(#279,#280,#281,#282));
#160=AXIS2_PLACEMENT_3D('',#283,#284,#285);
#161=EDGE_LOOP('',(#286,#287,#288,#289));
#162=AXIS2_PLACEMENT_3D('',#290,#291,#292);
#163=EDGE_LOOP('',(#293,#294,#295,#296,#297));
#164=AXIS2_PLACEMENT_3D('',#298,#299,#300);
#165=EDGE_LOOP('',(#301,#302,#303,#304));
#166=AXIS2_PLACEMENT_3D('',#305,#306,#307);
#167=EDGE_LOOP('',(#308,#309,#310,#311));
#168=AXIS2_PLACEMENT_3D('',#312,#313,#314);
#169=EDGE_LOOP('',(#315,#316,#317,#318));
#170=AXIS2_PLACEMENT_3D('',#319,#320,#321);
#171=EDGE_LOOP('',(#322,#323,#324,#325));
#172=AXIS2_PLACEMENT_3D('',#326,#327,#328);
#173=EDGE_LOOP('',(#329,#330,#331,#332));
#174=AXIS2_PLACEMENT_3D('',#333,#334,#335);
#175=EDGE_LOOP('',(#336,#337,#338,#339,#340));
#176=AXIS2_PLACEMENT_3D('',#341,#342,#343);
#177=EDGE_LOOP('',(#344,#345,#346,#347));
#178=AXIS2_PLACEMENT_3D('',#348,#349,#350);
#179=EDGE_LOOP('',(#351,#352,#353,#354));
#180=AXIS2_PLACEMENT_3D('',#355,#356,#357);
#181=EDGE_LOOP('',(#358,#359,#360,#361,#362,#363,#364,#365,#366,#367,#368,#369));
#182=AXIS2_PLACEMENT_3D('',#370,#371,#372);
#183=EDGE_LOOP('',(#373,#374,#375,#376,#377,#378,#379,#380,#381,#382,#383));
#184=AXIS2_PLACEMENT_3D('',#384,#385,#386);
#185=EDGE_LOOP('',(#387,#388,#389,#390,#391));
#186=AXIS2_PLACEMENT_3D('',#392,#393,#394);
#187=EDGE_LOOP('',(#395,#396,#397,#398,#399));
#188=AXIS2_PLACEMENT_3D('',#400,#401,#402);
#189=EDGE_LOOP('',(#403,#404,#405,#406,#407,#408));
#190=AXIS2_PLACEMENT_3D('',#409,#410,#411);
#191=EDGE_LOOP('',(#412,#413,#414,#415,#416));
#192=AXIS2_PLACEMENT_3D('',#417,#418,#419);
#193=EDGE_LOOP('',(#420,#421,#422,#423));
#194=AXIS2_PLACEMENT_3D('',#424,#425,#426);
#195=EDGE_LOOP('',(#427,#428));
#196=EDGE_LOOP('',(#429,#430));
#197=AXIS2_PLACEMENT_3D('',#431,#432,#433);
#198=EDGE_LOOP('',(#434,#435,#436,#437));
#199=AXIS2_PLACEMENT_3D('',#438,#439,#440);
#200=EDGE_LOOP('',(#441,#442,#443,#444));
#201=AXIS2_PLACEMENT_3D('',#445,#446,#447);
#202=EDGE_LOOP('',(#448,#449));
#203=AXIS2_PLACEMENT_3D('',#450,#451,#452);
#204=ORIENTED_EDGE('',*,*,#453,.F.);
#205=ORIENTED_EDGE('',*,*,#454,.T.);
#206=ORIENTED_EDGE('',*,*,#455,.F.);
#207=ORIENTED_EDGE('',*,*,#456,.F.);
#208=CARTESIAN_POINT('',(2.25903516779099E-015,0.0,36.8940625));
#209=DIRECTION('',(-6.12303176911189E-017,0.0,-1.0));
#210=DIRECTION('',(0.0,1.0,0.0));
#211=ORIENTED_EDGE('',*,*,#457,.F.);
#212=ORIENTED_EDGE('',*,*,#458,.T.);
#213=ORIENTED_EDGE('',*,*,#459,.F.);
#214=ORIENTED_EDGE('',*,*,#454,.F.);
#215=CARTESIAN_POINT('',(1.36574223610041E-015,0.0,22.305));
#216=DIRECTION('',(6.12303176911189E-017,-0.0,1.0));
#217=DIRECTION('',(0.0,1.0,0.0));
#218=ORIENTED_EDGE('',*,*,#460,.F.);
#219=ORIENTED_EDGE('',*,*,#461,.T.);
#220=ORIENTED_EDGE('',*,*,#462,.F.);
#221=ORIENTED_EDGE('',*,*,#463,.F.);
#222=CARTESIAN_POINT('',(4.72449304409817E-016,0.0,7.7159375));
#223=DIRECTION('',(-6.12303176911189E-017,0.0,-1.0));
#224=DIRECTION('',(0.0,1.0,0.0));
#225=ORIENTED_EDGE('',*,*,#464,.F.);
#226=ORIENTED_EDGE('',*,*,#465,.T.);
#227=ORIENTED_EDGE('',*,*,#466,.T.);
#228=ORIENTED_EDGE('',*,*,#467,.F.);
#229=ORIENTED_EDGE('',*,*,#461,.F.);
#230=CARTESIAN_POINT('',(4.47287470733623E-016,0.0,7.305));
#231=DIRECTION('',(6.12303176911189E-017,-0.0,1.0));
#232=DIRECTION('',(0.0,1.0,0.0));
#233=ORIENTED_EDGE('',*,*,#468,.F.);
#234=ORIENTED_EDGE('',*,*,#469,.T.);
#235=ORIENTED_EDGE('',*,*,#470,.T.);
#236=ORIENTED_EDGE('',*,*,#471,.F.);
#237=ORIENTED_EDGE('',*,*,#472,.F.);
#238=ORIENTED_EDGE('',*,*,#466,.F.);
#239=CARTESIAN_POINT('',(4.46981319145168E-016,0.0,7.3));
#240=DIRECTION('',(6.12303176911189E-017,0.0,1.0));
#241=DIRECTION('',(1.0,0.0,-6.12303176911189E-017));
#242=ORIENTED_EDGE('',*,*,#473,.F.);
#243=ORIENTED_EDGE('',*,*,#474,.T.);
#244=ORIENTED_EDGE('',*,*,#475,.F.);
#245=ORIENTED_EDGE('',*,*,#469,.F.);
#246=ORIENTED_EDGE('',*,*,#476,.F.);
#247=CARTESIAN_POINT('',(2.55092638273154E-016,0.0,4.16611652351682));
#248=DIRECTION('',(-6.12303176911189E-017,0.0,-1.0));
#249=DIRECTION('',(0.0,1.0,0.0));
#250=ORIENTED_EDGE('',*,*,#477,.F.);
#251=ORIENTED_EDGE('',*,*,#478,.T.);
#252=ORIENTED_EDGE('',*,*,#479,.T.);
#253=ORIENTED_EDGE('',*,*,#480,.F.);
#254=ORIENTED_EDGE('',*,*,#474,.F.);
#255=CARTESIAN_POINT('',(1.56137310112353E-016,0.0,2.55));
#256=DIRECTION('',(6.12303176911189E-017,-0.0,1.0));
#257=DIRECTION('',(0.0,1.0,0.0));
#258=ORIENTED_EDGE('',*,*,#481,.F.);
#259=ORIENTED_EDGE('',*,*,#482,.T.);
#260=ORIENTED_EDGE('',*,*,#483,.T.);
#261=ORIENTED_EDGE('',*,*,#484,.T.);
#262=ORIENTED_EDGE('',*,*,#485,.T.);
#263=ORIENTED_EDGE('',*,*,#486,.T.);
#264=ORIENTED_EDGE('',*,*,#487,.T.);
#265=ORIENTED_EDGE('',*,*,#488,.T.);
#266=ORIENTED_EDGE('',*,*,#489,.F.);
#267=ORIENTED_EDGE('',*,*,#478,.F.);
#268=ORIENTED_EDGE('',*,*,#490,.F.);
#269=CARTESIAN_POINT('',(1.18483992466972E-015,0.0,19.3505434782609));
#270=DIRECTION('',(-1.0,0.0,6.12303176911189E-017));
#271=DIRECTION('',(6.12303176911189E-017,0.0,1.0));
#272=ORIENTED_EDGE('',*,*,#485,.F.);
#273=ORIENTED_EDGE('',*,*,#491,.T.);
#274=ORIENTED_EDGE('',*,*,#492,.F.);
#275=ORIENTED_EDGE('',*,*,#493,.F.);
#276=CARTESIAN_POINT('',(-1.3375,5.1375,0.0));
#277=DIRECTION('',(0.0,0.984807753012208,0.17364817766693));
#278=DIRECTION('',(-1.0,0.0,0.0));
#279=ORIENTED_EDGE('',*,*,#486,.F.);
#280=ORIENTED_EDGE('',*,*,#493,.T.);
#281=ORIENTED_EDGE('',*,*,#494,.F.);
#282=ORIENTED_EDGE('',*,*,#495,.F.);
#283=CARTESIAN_POINT('',(-1.3375,1.275,0.0));
#284=DIRECTION('',(-0.984807753012208,2.26455661819758E-016,0.17364817766693));
#285=DIRECTION('',(-2.29949105423981E-016,-1.0,0.0));
#286=ORIENTED_EDGE('',*,*,#487,.F.);
#287=ORIENTED_EDGE('',*,*,#495,.T.);
#288=ORIENTED_EDGE('',*,*,#496,.F.);
#289=ORIENTED_EDGE('',*,*,#497,.F.);
#290=CARTESIAN_POINT('',(-5.2,1.275,0.0));
#291=DIRECTION('',(1.13227830909879E-016,0.984807753012208,0.17364817766693));
#292=DIRECTION('',(-1.0,1.1497455271199E-016,0.0));
#293=ORIENTED_EDGE('',*,*,#488,.F.);
#294=ORIENTED_EDGE('',*,*,#497,.T.);
#295=ORIENTED_EDGE('',*,*,#498,.F.);
#296=ORIENTED_EDGE('',*,*,#499,.F.);
#297=ORIENTED_EDGE('',*,*,#500,.F.);
#298=CARTESIAN_POINT('',(-5.2,-1.3,0.0));
#299=DIRECTION('',(-0.984807753012208,1.80900274744843E-016,0.17364817766693));
#300=DIRECTION('',(-1.83690953073357E-016,-1.0,0.0));
#301=ORIENTED_EDGE('',*,*,#501,.F.);
#302=ORIENTED_EDGE('',*,*,#499,.T.);
#303=ORIENTED_EDGE('',*,*,#502,.F.);
#304=ORIENTED_EDGE('',*,*,#503,.F.);
#305=CARTESIAN_POINT('',(-1.3375,-1.3,0.0));
#306=DIRECTION('',(0.0,-0.984807753012208,0.17364817766693));
#307=DIRECTION('',(1.0,0.0,0.0));
#308=ORIENTED_EDGE('',*,*,#504,.F.);
#309=ORIENTED_EDGE('',*,*,#503,.T.);
#310=ORIENTED_EDGE('',*,*,#505,.F.);
#311=ORIENTED_EDGE('',*,*,#506,.F.);
#312=CARTESIAN_POINT('',(-1.3375,-5.1625,0.0));
#313=DIRECTION('',(-0.984807753012208,-1.13227830909879E-016,0.17364817766693));
#314=DIRECTION('',(1.1497455271199E-016,-1.0,0.0));
#315=ORIENTED_EDGE('',*,*,#507,.F.);
#316=ORIENTED_EDGE('',*,*,#506,.T.);
#317=ORIENTED_EDGE('',*,*,#508,.F.);
#318=ORIENTED_EDGE('',*,*,#509,.F.);
#319=CARTESIAN_POINT('',(1.2375,-5.1625,0.0));
#320=DIRECTION('',(0.0,-0.984807753012208,0.17364817766693));
#321=DIRECTION('',(1.0,0.0,0.0));
#322=ORIENTED_EDGE('',*,*,#484,.F.);
#323=ORIENTED_EDGE('',*,*,#510,.T.);
#324=ORIENTED_EDGE('',*,*,#511,.F.);
#325=ORIENTED_EDGE('',*,*,#491,.F.);
#326=CARTESIAN_POINT('',(1.2375,5.1375,0.0));
#327=DIRECTION('',(0.984807753012208,-0.0,0.17364817766693));
#328=DIRECTION('',(0.0,1.0,0.0));
#329=ORIENTED_EDGE('',*,*,#483,.F.);
#330=ORIENTED_EDGE('',*,*,#512,.T.);
#331=ORIENTED_EDGE('',*,*,#513,.F.);
#332=ORIENTED_EDGE('',*,*,#510,.F.);
#333=CARTESIAN_POINT('',(1.2375,1.275,0.0));
#334=DIRECTION('',(1.13227830909879E-016,0.984807753012208,0.17364817766693));
#335=DIRECTION('',(-1.0,1.1497455271199E-016,0.0));
#336=ORIENTED_EDGE('',*,*,#514,.F.);
#337=ORIENTED_EDGE('',*,*,#515,.T.);
#338=ORIENTED_EDGE('',*,*,#516,.F.);
#339=ORIENTED_EDGE('',*,*,#512,.F.);
#340=ORIENTED_EDGE('',*,*,#482,.F.);
#341=CARTESIAN_POINT('',(5.1,1.275,0.0));
#342=DIRECTION('',(0.984807753012208,-0.0,0.17364817766693));
#343=DIRECTION('',(0.0,1.0,0.0));
#344=ORIENTED_EDGE('',*,*,#517,.F.);
#345=ORIENTED_EDGE('',*,*,#518,.T.);
#346=ORIENTED_EDGE('',*,*,#519,.F.);
#347=ORIENTED_EDGE('',*,*,#515,.F.);
#348=CARTESIAN_POINT('',(5.1,-1.3,0.0));
#349=DIRECTION('',(0.0,-0.984807753012208,0.17364817766693));
#350=DIRECTION('',(1.0,0.0,0.0));
#351=ORIENTED_EDGE('',*,*,#520,.F.);
#352=ORIENTED_EDGE('',*,*,#509,.T.);
#353=ORIENTED_EDGE('',*,*,#521,.F.);
#354=ORIENTED_EDGE('',*,*,#518,.F.);
#355=CARTESIAN_POINT('',(1.2375,-1.3,0.0));
#356=DIRECTION('',(0.984807753012208,-0.0,0.17364817766693));
#357=DIRECTION('',(0.0,1.0,0.0));
#358=ORIENTED_EDGE('',*,*,#508,.T.);
#359=ORIENTED_EDGE('',*,*,#505,.T.);
#360=ORIENTED_EDGE('',*,*,#502,.T.);
#361=ORIENTED_EDGE('',*,*,#498,.T.);
#362=ORIENTED_EDGE('',*,*,#496,.T.);
#363=ORIENTED_EDGE('',*,*,#494,.T.);
#364=ORIENTED_EDGE('',*,*,#492,.T.);
#365=ORIENTED_EDGE('',*,*,#511,.T.);
#366=ORIENTED_EDGE('',*,*,#513,.T.);
#367=ORIENTED_EDGE('',*,*,#516,.T.);
#368=ORIENTED_EDGE('',*,*,#519,.T.);
#369=ORIENTED_EDGE('',*,*,#521,.T.);
#370=CARTESIAN_POINT('',(-0.0499999999999998,-0.0124999999999997,6.05));
#371=DIRECTION('',(0.0,0.0,1.0));
#372=DIRECTION('',(1.0,0.0,0.0));
#373=ORIENTED_EDGE('',*,*,#481,.T.);
#374=ORIENTED_EDGE('',*,*,#522,.F.);
#375=ORIENTED_EDGE('',*,*,#479,.F.);
#376=ORIENTED_EDGE('',*,*,#489,.T.);
#377=ORIENTED_EDGE('',*,*,#500,.T.);
#378=ORIENTED_EDGE('',*,*,#501,.T.);
#379=ORIENTED_EDGE('',*,*,#504,.T.);
#380=ORIENTED_EDGE('',*,*,#507,.T.);
#381=ORIENTED_EDGE('',*,*,#520,.T.);
#382=ORIENTED_EDGE('',*,*,#517,.T.);
#383=ORIENTED_EDGE('',*,*,#514,.T.);
#384=CARTESIAN_POINT('',(1.18483992466972E-015,0.0,19.3505434782609));
#385=DIRECTION('',(-1.0,0.0,6.12303176911189E-017));
#386=DIRECTION('',(6.12303176911189E-017,0.0,1.0));
#387=ORIENTED_EDGE('',*,*,#477,.T.);
#388=ORIENTED_EDGE('',*,*,#523,.F.);
#389=ORIENTED_EDGE('',*,*,#480,.T.);
#390=ORIENTED_EDGE('',*,*,#522,.T.);
#391=ORIENTED_EDGE('',*,*,#490,.T.);
#392=CARTESIAN_POINT('',(1.56137310112353E-016,0.0,2.55));
#393=DIRECTION('',(6.12303176911189E-017,-0.0,1.0));
#394=DIRECTION('',(0.0,1.0,0.0));
#395=ORIENTED_EDGE('',*,*,#473,.T.);
#396=ORIENTED_EDGE('',*,*,#524,.F.);
#397=ORIENTED_EDGE('',*,*,#470,.F.);
#398=ORIENTED_EDGE('',*,*,#475,.T.);
#399=ORIENTED_EDGE('',*,*,#523,.T.);
#400=CARTESIAN_POINT('',(2.55092638273154E-016,0.0,4.16611652351682));
#401=DIRECTION('',(-6.12303176911189E-017,0.0,-1.0));
#402=DIRECTION('',(0.0,1.0,0.0));
#403=ORIENTED_EDGE('',*,*,#468,.T.);
#404=ORIENTED_EDGE('',*,*,#465,.F.);
#405=ORIENTED_EDGE('',*,*,#525,.F.);
#406=ORIENTED_EDGE('',*,*,#471,.T.);
#407=ORIENTED_EDGE('',*,*,#524,.T.);
#408=ORIENTED_EDGE('',*,*,#476,.T.);
#409=CARTESIAN_POINT('',(4.46981319145168E-016,0.0,7.3));
#410=DIRECTION('',(6.12303176911189E-017,0.0,1.0));
#411=DIRECTION('',(1.0,0.0,-6.12303176911189E-017));
#412=ORIENTED_EDGE('',*,*,#464,.T.);
#413=ORIENTED_EDGE('',*,*,#526,.F.);
#414=ORIENTED_EDGE('',*,*,#467,.T.);
#415=ORIENTED_EDGE('',*,*,#472,.T.);
#416=ORIENTED_EDGE('',*,*,#525,.T.);
#417=CARTESIAN_POINT('',(4.47287470733623E-016,0.0,7.305));
#418=DIRECTION('',(6.12303176911189E-017,-0.0,1.0));
#419=DIRECTION('',(0.0,1.0,0.0));
#420=ORIENTED_EDGE('',*,*,#460,.T.);
#421=ORIENTED_EDGE('',*,*,#527,.F.);
#422=ORIENTED_EDGE('',*,*,#462,.T.);
#423=ORIENTED_EDGE('',*,*,#526,.T.);
#424=CARTESIAN_POINT('',(4.72449304409817E-016,0.0,7.7159375));
#425=DIRECTION('',(-6.12303176911189E-017,0.0,-1.0));
#426=DIRECTION('',(0.0,1.0,0.0));
#427=ORIENTED_EDGE('',*,*,#458,.F.);
#428=ORIENTED_EDGE('',*,*,#528,.F.);
#429=ORIENTED_EDGE('',*,*,#463,.T.);
#430=ORIENTED_EDGE('',*,*,#527,.T.);
#431=CARTESIAN_POINT('',(4.97304986497556E-016,4.5940625,8.121875));
#432=DIRECTION('',(-6.12303176911189E-017,-0.0,-1.0));
#433=DIRECTION('',(0.0,-1.0,0.0));
#434=ORIENTED_EDGE('',*,*,#457,.T.);
#435=ORIENTED_EDGE('',*,*,#529,.F.);
#436=ORIENTED_EDGE('',*,*,#459,.T.);
#437=ORIENTED_EDGE('',*,*,#528,.T.);
#438=CARTESIAN_POINT('',(1.36574223610041E-015,0.0,22.305));
#439=DIRECTION('',(6.12303176911189E-017,-0.0,1.0));
#440=DIRECTION('',(0.0,1.0,0.0));
#441=ORIENTED_EDGE('',*,*,#453,.T.);
#442=ORIENTED_EDGE('',*,*,#530,.F.);
#443=ORIENTED_EDGE('',*,*,#455,.T.);
#444=ORIENTED_EDGE('',*,*,#529,.T.);
#445=CARTESIAN_POINT('',(2.25903516779099E-015,0.0,36.8940625));
#446=DIRECTION('',(-6.12303176911189E-017,0.0,-1.0));
#447=DIRECTION('',(0.0,1.0,0.0));
#448=ORIENTED_EDGE('',*,*,#456,.T.);
#449=ORIENTED_EDGE('',*,*,#530,.T.);
#450=CARTESIAN_POINT('',(2.28389084987873E-015,2.0940625,37.3));
#451=DIRECTION('',(6.12303176911189E-017,-0.0,1.0));
#452=DIRECTION('',(0.0,1.0,0.0));
#453=EDGE_CURVE('',#531,#532,#533,.T.);
#454=EDGE_CURVE('',#531,#534,#535,.T.);
#455=EDGE_CURVE('',#536,#534,#537,.T.);
#456=EDGE_CURVE('',#532,#536,#538,.T.);
#457=EDGE_CURVE('',#539,#531,#540,.T.);
#458=EDGE_CURVE('',#539,#541,#542,.T.);
#459=EDGE_CURVE('',#534,#541,#543,.T.);
#460=EDGE_CURVE('',#544,#545,#546,.T.);
#461=EDGE_CURVE('',#544,#547,#548,.T.);
#462=EDGE_CURVE('',#549,#547,#550,.T.);
#463=EDGE_CURVE('',#545,#549,#551,.T.);
#464=EDGE_CURVE('',#552,#544,#553,.T.);
#465=EDGE_CURVE('',#552,#554,#555,.T.);
#466=EDGE_CURVE('',#554,#556,#557,.T.);
#467=EDGE_CURVE('',#547,#556,#558,.T.);
#468=EDGE_CURVE('',#559,#554,#560,.T.);
#469=EDGE_CURVE('',#559,#561,#562,.T.);
#470=EDGE_CURVE('',#561,#563,#564,.T.);
#471=EDGE_CURVE('',#565,#563,#566,.T.);
#472=EDGE_CURVE('',#556,#565,#567,.T.);
#473=EDGE_CURVE('',#568,#569,#570,.T.);
#474=EDGE_CURVE('',#568,#571,#572,.T.);
#475=EDGE_CURVE('',#561,#571,#573,.T.);
#476=EDGE_CURVE('',#569,#559,#574,.T.);
#477=EDGE_CURVE('',#575,#568,#576,.T.);
#478=EDGE_CURVE('',#575,#577,#578,.T.);
#479=EDGE_CURVE('',#577,#579,#580,.T.);
#480=EDGE_CURVE('',#571,#579,#581,.T.);
#481=EDGE_CURVE('',#582,#583,#584,.T.);
#482=EDGE_CURVE('',#582,#585,#586,.T.);
#483=EDGE_CURVE('',#585,#587,#588,.T.);
#484=EDGE_CURVE('',#587,#589,#590,.T.);
#485=EDGE_CURVE('',#589,#591,#592,.T.);
#486=EDGE_CURVE('',#591,#593,#594,.T.);
#487=EDGE_CURVE('',#593,#595,#596,.T.);
#488=EDGE_CURVE('',#595,#597,#598,.T.);
#489=EDGE_CURVE('',#577,#597,#599,.T.);
#490=EDGE_CURVE('',#583,#575,#600,.T.);
#491=EDGE_CURVE('',#589,#601,#602,.T.);
#492=EDGE_CURVE('',#603,#601,#604,.T.);
#493=EDGE_CURVE('',#591,#603,#605,.T.);
#494=EDGE_CURVE('',#606,#603,#607,.T.);
#495=EDGE_CURVE('',#593,#606,#608,.T.);
#496=EDGE_CURVE('',#609,#606,#610,.T.);
#497=EDGE_CURVE('',#595,#609,#611,.T.);
#498=EDGE_CURVE('',#612,#609,#613,.T.);
#499=EDGE_CURVE('',#614,#612,#615,.T.);
#500=EDGE_CURVE('',#597,#614,#616,.T.);
#501=EDGE_CURVE('',#614,#617,#618,.T.);
#502=EDGE_CURVE('',#619,#612,#620,.T.);
#503=EDGE_CURVE('',#617,#619,#621,.T.);
#504=EDGE_CURVE('',#617,#622,#623,.T.);
#505=EDGE_CURVE('',#624,#619,#625,.T.);
#506=EDGE_CURVE('',#622,#624,#626,.T.);
#507=EDGE_CURVE('',#622,#627,#628,.T.);
#508=EDGE_CURVE('',#629,#624,#630,.T.);
#509=EDGE_CURVE('',#627,#629,#631,.T.);
#510=EDGE_CURVE('',#587,#632,#633,.T.);
#511=EDGE_CURVE('',#601,#632,#634,.T.);
#512=EDGE_CURVE('',#585,#635,#636,.T.);
#513=EDGE_CURVE('',#632,#635,#637,.T.);
#514=EDGE_CURVE('',#638,#582,#639,.T.);
#515=EDGE_CURVE('',#638,#640,#641,.T.);
#516=EDGE_CURVE('',#635,#640,#642,.T.);
#517=EDGE_CURVE('',#643,#638,#644,.T.);
#518=EDGE_CURVE('',#643,#645,#646,.T.);
#519=EDGE_CURVE('',#640,#645,#647,.T.);
#520=EDGE_CURVE('',#627,#643,#648,.T.);
#521=EDGE_CURVE('',#645,#629,#649,.T.);
#522=EDGE_CURVE('',#579,#583,#650,.T.);
#523=EDGE_CURVE('',#571,#568,#651,.T.);
#524=EDGE_CURVE('',#563,#569,#652,.T.);
#525=EDGE_CURVE('',#565,#552,#653,.T.);
#526=EDGE_CURVE('',#547,#544,#654,.T.);
#527=EDGE_CURVE('',#549,#545,#655,.T.);
#528=EDGE_CURVE('',#541,#539,#656,.T.);
#529=EDGE_CURVE('',#534,#531,#657,.T.);
#530=EDGE_CURVE('',#536,#532,#658,.T.);
#531=VERTEX_POINT('',#659);
#532=VERTEX_POINT('',#660);
#533=LINE('',#661,#662);
#534=VERTEX_POINT('',#663);
#535=CIRCLE('',#664,5.0);
#536=VERTEX_POINT('',#665);
#537=LINE('',#666,#667);
#538=CIRCLE('',#668,4.188125);
#539=VERTEX_POINT('',#669);
#540=LINE('',#670,#671);
#541=VERTEX_POINT('',#672);
#542=CIRCLE('',#673,5.0);
#543=LINE('',#674,#675);
#544=VERTEX_POINT('',#676);
#545=VERTEX_POINT('',#677);
#546=LINE('',#678,#679);
#547=VERTEX_POINT('',#680);
#548=CIRCLE('',#681,5.0);
#549=VERTEX_POINT('',#682);
#550=LINE('',#683,#684);
#551=CIRCLE('',#685,4.188125);
#552=VERTEX_POINT('',#686);
#553=LINE('',#687,#688);
#554=VERTEX_POINT('',#689);
#555=CIRCLE('',#690,5.0);
#556=VERTEX_POINT('',#691);
#557=CIRCLE('',#692,5.0);
#558=LINE('',#693,#694);
#559=VERTEX_POINT('',#695);
#560=CIRCLE('',#696,2.5);
#561=VERTEX_POINT('',#697);
#562=CIRCLE('',#698,5.73223304703363);
#563=VERTEX_POINT('',#699);
#564=CIRCLE('',#700,5.73223304703363);
#565=VERTEX_POINT('',#701);
#566=CIRCLE('',#702,2.5);
#567=CIRCLE('',#703,5.0);
#568=VERTEX_POINT('',#704);
#569=VERTEX_POINT('',#705);
#570=LINE('',#706,#707);
#571=VERTEX_POINT('',#708);
#572=CIRCLE('',#709,9.15);
#573=LINE('',#710,#711);
#574=CIRCLE('',#712,5.73223304703363);
#575=VERTEX_POINT('',#713);
#576=LINE('',#714,#715);
#577=VERTEX_POINT('',#716);
#578=CIRCLE('',#717,9.15);
#579=VERTEX_POINT('',#718);
#580=CIRCLE('',#719,9.15);
#581=LINE('',#720,#721);
#582=VERTEX_POINT('',#722);
#583=VERTEX_POINT('',#723);
#584=CIRCLE('',#724,19.3505434782609);
#585=VERTEX_POINT('',#725);
#586=CIRCLE('',#726,19.27900884742);
#587=VERTEX_POINT('',#727);
#588=CIRCLE('',#728,19.2357576894661);
#589=VERTEX_POINT('',#729);
#590=CIRCLE('',#730,19.2316813164604);
#591=VERTEX_POINT('',#731);
#592=CIRCLE('',#732,19.2757888921781);
#593=VERTEX_POINT('',#733);
#594=CIRCLE('',#734,19.2423922213001);
#595=VERTEX_POINT('',#735);
#596=CIRCLE('',#736,19.2357576894661);
#597=VERTEX_POINT('',#737);
#598=CIRCLE('',#738,19.2702638281);
#599=CIRCLE('',#739,19.3505434782609);
#600=CIRCLE('',#740,9.15);
#601=VERTEX_POINT('',#741);
#602=LINE('',#742,#743);
#603=VERTEX_POINT('',#744);
#604=LINE('',#745,#746);
#605=LINE('',#747,#748);
#606=VERTEX_POINT('',#749);
#607=LINE('',#750,#751);
#608=LINE('',#752,#753);
#609=VERTEX_POINT('',#754);
#610=LINE('',#755,#756);
#611=LINE('',#757,#758);
#612=VERTEX_POINT('',#759);
#613=LINE('',#760,#761);
#614=VERTEX_POINT('',#762);
#615=LINE('',#763,#764);
#616=CIRCLE('',#765,19.2702638281);
#617=VERTEX_POINT('',#766);
#618=CIRCLE('',#767,19.238435407355);
#619=VERTEX_POINT('',#768);
#620=LINE('',#769,#770);
#621=LINE('',#771,#772);
#622=VERTEX_POINT('',#773);
#623=CIRCLE('',#774,19.2423922213001);
#624=VERTEX_POINT('',#775);
#625=LINE('',#776,#777);
#626=LINE('',#778,#779);
#627=VERTEX_POINT('',#780);
#628=CIRCLE('',#781,19.2736026440891);
#629=VERTEX_POINT('',#782);
#630=LINE('',#783,#784);
#631=LINE('',#785,#786);
#632=VERTEX_POINT('',#787);
#633=LINE('',#788,#789);
#634=LINE('',#790,#791);
#635=VERTEX_POINT('',#792);
#636=LINE('',#793,#794);
#637=LINE('',#795,#796);
#638=VERTEX_POINT('',#797);
#639=CIRCLE('',#798,19.27900884742);
#640=VERTEX_POINT('',#799);
#641=LINE('',#800,#801);
#642=LINE('',#802,#803);
#643=VERTEX_POINT('',#804);
#644=CIRCLE('',#805,19.238435407355);
#645=VERTEX_POINT('',#806);
#646=LINE('',#807,#808);
#647=LINE('',#809,#810);
#648=CIRCLE('',#811,19.2316813164604);
#649=LINE('',#812,#813);
#650=CIRCLE('',#814,9.15);
#651=CIRCLE('',#815,9.15);
#652=CIRCLE('',#816,5.73223304703363);
#653=CIRCLE('',#817,5.0);
#654=CIRCLE('',#818,5.0);
#655=CIRCLE('',#819,4.188125);
#656=CIRCLE('',#820,5.0);
#657=CIRCLE('',#821,5.0);
#658=CIRCLE('',#822,4.188125);
#659=CARTESIAN_POINT('',(2.23417948570326E-015,5.0,36.488125));
#660=CARTESIAN_POINT('',(2.28389084987873E-015,4.188125,37.3));
#661=CARTESIAN_POINT('',(2.82162698052671E-015,4.5940625,36.8940625));
#662=VECTOR('',#823,1.0);
#663=CARTESIAN_POINT('',(1.62187630879207E-015,-5.0,36.488125));
#664=AXIS2_PLACEMENT_3D('',#824,#825,#826);
#665=CARTESIAN_POINT('',(1.7710104013185E-015,-4.188125,37.3));
#666=CARTESIAN_POINT('',(1.69644335505528E-015,-4.5940625,36.8940625));
#667=VECTOR('',#827,1.0);
#668=AXIS2_PLACEMENT_3D('',#828,#829,#830);
#669=CARTESIAN_POINT('',(4.97304986497556E-016,5.0,8.121875));
#670=CARTESIAN_POINT('',(1.9780454130116E-015,5.0,22.305));
#671=VECTOR('',#831,1.0);
#672=CARTESIAN_POINT('',(-1.14998190413633E-016,-5.0,8.121875));
#673=AXIS2_PLACEMENT_3D('',#832,#833,#834);
#674=CARTESIAN_POINT('',(7.53439059189217E-016,-5.0,22.305));
#675=VECTOR('',#835,1.0);
#676=CARTESIAN_POINT('',(4.47593622322079E-016,5.0,7.31));
#677=CARTESIAN_POINT('',(4.97304986497556E-016,4.188125,8.121875));
#678=CARTESIAN_POINT('',(1.03504111714553E-015,4.5940625,7.7159375));
#679=VECTOR('',#836,1.0);
#680=CARTESIAN_POINT('',(-1.6470955458911E-016,-5.0,7.31));
#681=AXIS2_PLACEMENT_3D('',#837,#838,#839);
#682=CARTESIAN_POINT('',(-1.55754620626788E-017,-4.188125,8.121875));
#683=CARTESIAN_POINT('',(-9.01425083258943E-017,-4.5940625,7.7159375));
#684=VECTOR('',#840,1.0);
#685=AXIS2_PLACEMENT_3D('',#841,#842,#843);
#686=CARTESIAN_POINT('',(4.46981319145168E-016,5.0,7.3));
#687=CARTESIAN_POINT('',(1.05959064764481E-015,5.0,7.305));
#688=VECTOR('',#844,1.0);
#689=CARTESIAN_POINT('',(-5.0,6.12303176911189E-016,7.3));
#690=AXIS2_PLACEMENT_3D('',#845,#846,#847);
#691=CARTESIAN_POINT('',(-1.65321857766021E-016,-5.0,7.3));
#692=AXIS2_PLACEMENT_3D('',#848,#849,#850);
#693=CARTESIAN_POINT('',(-1.65015706177565E-016,-5.0,7.305));
#694=VECTOR('',#851,1.0);
#695=CARTESIAN_POINT('',(-5.73223304703363,7.01972901098799E-016,5.53223304703363));
#696=AXIS2_PLACEMENT_3D('',#852,#853,#854);
#697=CARTESIAN_POINT('',(-3.63232514087623E-016,-5.73223304703363,5.53223304703363));
#698=AXIS2_PLACEMENT_3D('',#855,#856,#857);
#699=CARTESIAN_POINT('',(5.73223304703363,-7.01972901098799E-016,5.53223304703363));
#700=AXIS2_PLACEMENT_3D('',#858,#859,#860);
#701=CARTESIAN_POINT('',(5.0,-6.12303176911189E-016,7.3));
#702=AXIS2_PLACEMENT_3D('',#861,#862,#863);
#703=AXIS2_PLACEMENT_3D('',#864,#865,#866);
#704=CARTESIAN_POINT('',(1.71444889535133E-016,9.15,2.8));
#705=CARTESIAN_POINT('',(3.38740387011176E-016,5.73223304703363,5.53223304703363));
#706=CARTESIAN_POINT('',(1.16633649569629E-015,7.44111652351682,4.16611652351682));
#707=VECTOR('',#867,1.0);
#708=CARTESIAN_POINT('',(-9.49069924212343E-016,-9.15,2.8));
#709=AXIS2_PLACEMENT_3D('',#868,#869,#870);
#710=CARTESIAN_POINT('',(-6.56151219149983E-016,-7.44111652351682,4.16611652351682));
#711=VECTOR('',#871,1.0);
#712=AXIS2_PLACEMENT_3D('',#872,#873,#874);
#713=CARTESIAN_POINT('',(1.40829730689573E-016,9.15,2.3));
#714=CARTESIAN_POINT('',(1.27665212385983E-015,9.15,2.55));
#715=VECTOR('',#875,1.0);
#716=CARTESIAN_POINT('',(-9.15,2.0880203879603E-015,2.3));
#717=AXIS2_PLACEMENT_3D('',#876,#877,#878);
#718=CARTESIAN_POINT('',(-9.79685083057902E-016,-9.15,2.3));
#719=AXIS2_PLACEMENT_3D('',#879,#880,#881);
#720=CARTESIAN_POINT('',(-9.64377503635122E-016,-9.15,2.55));
#721=VECTOR('',#882,1.0);
#722=CARTESIAN_POINT('',(4.98484310965099,2.28970237848319E-015,0.653087178640067));
#723=CARTESIAN_POINT('',(9.15,2.0880203879603E-015,2.3));
#724=AXIS2_PLACEMENT_3D('',#883,#884,#885);
#725=CARTESIAN_POINT('',(4.97884191673919,1.15384191673919,0.687121634896751));
#726=AXIS2_PLACEMENT_3D('',#886,#887,#888);
#727=CARTESIAN_POINT('',(1.22340789314539,1.26090789314539,0.0799203094046632));
#728=AXIS2_PLACEMENT_3D('',#889,#890,#891);
#729=CARTESIAN_POINT('',(1.11504816197276,5.01504816197276,0.694458882782666));
#730=AXIS2_PLACEMENT_3D('',#892,#893,#894);
#731=CARTESIAN_POINT('',(-1.21400809124251,5.01400809124251,0.700357417006234));
#732=AXIS2_PLACEMENT_3D('',#895,#896,#897);
#733=CARTESIAN_POINT('',(-1.32226943779341,1.25976943779341,0.0863768105447882));
#734=AXIS2_PLACEMENT_3D('',#898,#899,#900);
#735=CARTESIAN_POINT('',(-5.07435193994044,1.14935193994044,0.712585558686037));
#736=AXIS2_PLACEMENT_3D('',#901,#902,#903);
#737=CARTESIAN_POINT('',(-5.08030918402171,2.28655352734817E-015,0.678800348632912));
#738=AXIS2_PLACEMENT_3D('',#904,#905,#906);
#739=AXIS2_PLACEMENT_3D('',#907,#908,#909);
#740=AXIS2_PLACEMENT_3D('',#910,#911,#912);
#741=CARTESIAN_POINT('',(0.170721766713787,4.07072176671379,6.05));
#742=CARTESIAN_POINT('',(1.19981351131317,5.09981351131317,0.213730698134844));
#743=VECTOR('',#913,1.0);
#744=CARTESIAN_POINT('',(-0.270721766713788,4.07072176671379,6.05));
#745=CARTESIAN_POINT('',(1.2375,4.07072176671379,6.05));
#746=VECTOR('',#914,1.0);
#747=CARTESIAN_POINT('',(-1.28097026696976,5.08097026696976,0.320596047202266));
#748=VECTOR('',#915,1.0);
#749=CARTESIAN_POINT('',(-0.270721766713788,0.208221766713786,6.05));
#750=CARTESIAN_POINT('',(-0.270721766713788,5.1375,6.05));
#751=VECTOR('',#916,1.0);
#752=CARTESIAN_POINT('',(-1.39402973303024,1.33152973303024,-0.320596047202266));
#753=VECTOR('',#917,1.0);
#754=CARTESIAN_POINT('',(-4.13322176671379,0.208221766713787,6.05));
#755=CARTESIAN_POINT('',(-1.3375,0.208221766713787,6.05));
#756=VECTOR('',#918,1.0);
#757=CARTESIAN_POINT('',(-5.16231351131317,1.23731351131317,0.213730698134844));
#758=VECTOR('',#919,1.0);
#759=CARTESIAN_POINT('',(-4.13322176671379,-0.233221766713787,6.05));
#760=CARTESIAN_POINT('',(-4.13322176671379,1.275,6.05));
#761=VECTOR('',#920,1.0);
#762=CARTESIAN_POINT('',(-5.07409247146072,-1.17409247146072,0.714057077557833));
#763=CARTESIAN_POINT('',(-5.14347026696976,-1.24347026696976,0.320596047202266));
#764=VECTOR('',#921,1.0);
#765=AXIS2_PLACEMENT_3D('',#922,#923,#924);
#766=CARTESIAN_POINT('',(-1.32198508017576,-1.28448508017576,0.0879894827320626));
#767=AXIS2_PLACEMENT_3D('',#925,#926,#927);
#768=CARTESIAN_POINT('',(-0.270721766713787,-0.233221766713787,6.05));
#769=CARTESIAN_POINT('',(-5.2,-0.233221766713787,6.05));
#770=VECTOR('',#928,1.0);
#771=CARTESIAN_POINT('',(-1.39402973303024,-1.35652973303024,-0.320596047202266));
#772=VECTOR('',#929,1.0);
#773=CARTESIAN_POINT('',(-1.2128861460299,-5.0378861460299,0.706720284493102));
#774=AXIS2_PLACEMENT_3D('',#930,#931,#932);
#775=CARTESIAN_POINT('',(-0.270721766713787,-4.09572176671379,6.05));
#776=CARTESIAN_POINT('',(-0.270721766713787,-1.3,6.05));
#777=VECTOR('',#933,1.0);
#778=CARTESIAN_POINT('',(-1.29981351131317,-5.12481351131317,0.213730698134844));
#779=VECTOR('',#934,1.0);
#780=CARTESIAN_POINT('',(1.11392533818341,-5.03892533818341,0.700826732925822));
#781=AXIS2_PLACEMENT_3D('',#935,#936,#937);
#782=CARTESIAN_POINT('',(0.170721766713788,-4.09572176671379,6.05));
#783=CARTESIAN_POINT('',(-1.3375,-4.09572176671379,6.05));
#784=VECTOR('',#938,1.0);
#785=CARTESIAN_POINT('',(1.18097026696976,-5.10597026696976,0.320596047202266));
#786=VECTOR('',#939,1.0);
#787=CARTESIAN_POINT('',(0.170721766713787,0.208221766713787,6.05));
#788=CARTESIAN_POINT('',(1.29402973303024,1.33152973303024,-0.320596047202266));
#789=VECTOR('',#940,1.0);
#790=CARTESIAN_POINT('',(0.170721766713787,1.275,6.05));
#791=VECTOR('',#941,1.0);
#792=CARTESIAN_POINT('',(4.03322176671379,0.208221766713787,6.05));
#793=CARTESIAN_POINT('',(5.04347026696976,1.21847026696976,0.320596047202266));
#794=VECTOR('',#942,1.0);
#795=CARTESIAN_POINT('',(5.1,0.208221766713787,6.05));
#796=VECTOR('',#943,1.0);
#797=CARTESIAN_POINT('',(4.97858156968277,-1.17858156968277,0.688598136424627));
#798=AXIS2_PLACEMENT_3D('',#944,#945,#946);
#799=CARTESIAN_POINT('',(4.03322176671379,-0.233221766713787,6.05));
#800=CARTESIAN_POINT('',(5.06231351131317,-1.26231351131317,0.213730698134844));
#801=VECTOR('',#947,1.0);
#802=CARTESIAN_POINT('',(4.03322176671379,-1.3,6.05));
#803=VECTOR('',#948,1.0);
#804=CARTESIAN_POINT('',(1.22312312549115,-1.28562312549115,0.0815353070249856));
#805=AXIS2_PLACEMENT_3D('',#949,#950,#951);
#806=CARTESIAN_POINT('',(0.170721766713787,-0.233221766713787,6.05));
#807=CARTESIAN_POINT('',(1.29402973303024,-1.35652973303024,-0.320596047202266));
#808=VECTOR('',#952,1.0);
#809=CARTESIAN_POINT('',(1.2375,-0.233221766713787,6.05));
#810=VECTOR('',#953,1.0);
#811=AXIS2_PLACEMENT_3D('',#954,#955,#956);
#812=CARTESIAN_POINT('',(0.170721766713788,-5.1625,6.05));
#813=VECTOR('',#957,1.0);
#814=AXIS2_PLACEMENT_3D('',#958,#959,#960);
#815=AXIS2_PLACEMENT_3D('',#961,#962,#963);
#816=AXIS2_PLACEMENT_3D('',#964,#965,#966);
#817=AXIS2_PLACEMENT_3D('',#967,#968,#969);
#818=AXIS2_PLACEMENT_3D('',#970,#971,#972);
#819=AXIS2_PLACEMENT_3D('',#973,#974,#975);
#820=AXIS2_PLACEMENT_3D('',#976,#977,#978);
#821=AXIS2_PLACEMENT_3D('',#979,#980,#981);
#822=AXIS2_PLACEMENT_3D('',#982,#983,#984);
#823=DIRECTION('',(-4.32963728535967E-017,-0.707106781186547,0.707106781186548));
#824=CARTESIAN_POINT('',(2.23417948570326E-015,0.0,36.488125));
#825=DIRECTION('',(6.12303176911189E-017,-0.0,1.0));
#826=DIRECTION('',(0.0,1.0,0.0));
#827=DIRECTION('',(-1.2988911856079E-016,-0.707106781186547,-0.707106781186548));
#828=CARTESIAN_POINT('',(2.28389084987873E-015,0.0,37.3));
#829=DIRECTION('',(6.12303176911189E-017,-0.0,1.0));
#830=DIRECTION('',(0.0,1.0,0.0));
#831=DIRECTION('',(6.12303176911189E-017,0.0,1.0));
#832=CARTESIAN_POINT('',(4.97304986497556E-016,0.0,8.121875));
#833=DIRECTION('',(6.12303176911189E-017,-0.0,1.0));
#834=DIRECTION('',(0.0,1.0,0.0));
#835=DIRECTION('',(-6.12303176911189E-017,-0.0,-1.0));
#836=DIRECTION('',(-4.32963728535967E-017,-0.707106781186547,0.707106781186548));
#837=CARTESIAN_POINT('',(4.47593622322079E-016,0.0,7.31));
#838=DIRECTION('',(6.12303176911189E-017,-0.0,1.0));
#839=DIRECTION('',(0.0,1.0,0.0));
#840=DIRECTION('',(-1.2988911856079E-016,-0.707106781186547,-0.707106781186548));
#841=CARTESIAN_POINT('',(4.97304986497556E-016,0.0,8.121875));
#842=DIRECTION('',(6.12303176911189E-017,-0.0,1.0));
#843=DIRECTION('',(0.0,1.0,0.0));
#844=DIRECTION('',(6.12303176911189E-017,0.0,1.0));
#845=CARTESIAN_POINT('',(4.46981319145168E-016,0.0,7.3));
#846=DIRECTION('',(6.12303176911189E-017,-0.0,1.0));
#847=DIRECTION('',(0.0,1.0,0.0));
#848=CARTESIAN_POINT('',(4.46981319145168E-016,0.0,7.3));
#849=DIRECTION('',(6.12303176911189E-017,-0.0,1.0));
#850=DIRECTION('',(0.0,1.0,0.0));
#851=DIRECTION('',(-6.12303176911189E-017,-0.0,-1.0));
#852=CARTESIAN_POINT('',(-7.5,9.18454765366783E-016,7.3));
#853=DIRECTION('',(-1.22460635382238E-016,-1.0,7.49830360911069E-033));
#854=DIRECTION('',(-1.0,1.22460635382238E-016,6.12303176911189E-017));
#855=CARTESIAN_POINT('',(3.38740387011176E-016,0.0,5.53223304703363));
#856=DIRECTION('',(6.12303176911189E-017,-0.0,1.0));
#857=DIRECTION('',(0.0,1.0,0.0));
#858=CARTESIAN_POINT('',(3.38740387011176E-016,0.0,5.53223304703363));
#859=DIRECTION('',(6.12303176911189E-017,-0.0,1.0));
#860=DIRECTION('',(0.0,1.0,0.0));
#861=CARTESIAN_POINT('',(7.5,-9.18454765366783E-016,7.3));
#862=DIRECTION('',(-1.22460635382238E-016,-1.0,7.49830360911069E-033));
#863=DIRECTION('',(1.0,-1.22460635382238E-016,-6.12303176911189E-017));
#864=CARTESIAN_POINT('',(4.46981319145168E-016,0.0,7.3));
#865=DIRECTION('',(6.12303176911189E-017,-0.0,1.0));
#866=DIRECTION('',(0.0,1.0,0.0));
#867=DIRECTION('',(-5.74193479722341E-017,-0.781089552364503,0.624419018918403));
#868=CARTESIAN_POINT('',(1.71444889535133E-016,0.0,2.8));
#869=DIRECTION('',(6.12303176911189E-017,-0.0,1.0));
#870=DIRECTION('',(0.0,1.0,0.0));
#871=DIRECTION('',(-1.33886097773735E-016,-0.781089552364503,-0.624419018918403));
#872=CARTESIAN_POINT('',(3.38740387011176E-016,0.0,5.53223304703363));
#873=DIRECTION('',(6.12303176911189E-017,-0.0,1.0));
#874=DIRECTION('',(0.0,1.0,0.0));
#875=DIRECTION('',(6.12303176911189E-017,0.0,1.0));
#876=CARTESIAN_POINT('',(1.40829730689573E-016,0.0,2.3));
#877=DIRECTION('',(6.12303176911189E-017,-0.0,1.0));
#878=DIRECTION('',(0.0,1.0,0.0));
#879=CARTESIAN_POINT('',(1.40829730689573E-016,0.0,2.3));
#880=DIRECTION('',(6.12303176911189E-017,-0.0,1.0));
#881=DIRECTION('',(0.0,1.0,0.0));
#882=DIRECTION('',(-6.12303176911189E-017,-0.0,-1.0));
#883=CARTESIAN_POINT('',(1.18483992466972E-015,0.0,19.3505434782609));
#884=DIRECTION('',(-7.49830360911068E-033,-1.0,-1.22460635382238E-016));
#885=DIRECTION('',(0.0,-1.22460635382238E-016,1.0));
#886=CARTESIAN_POINT('',(1.63707835607188,0.0,19.6392045619702));
#887=DIRECTION('',(0.984807753012208,0.0,0.17364817766693));
#888=DIRECTION('',(-0.17364817766693,0.0,0.984807753012208));
#889=CARTESIAN_POINT('',(9.46545531470291E-016,-2.07258378118117,18.9850910378599));
#890=DIRECTION('',(1.13227830909879E-016,0.984807753012208,0.17364817766693));
#891=DIRECTION('',(0.0,0.17364817766693,-0.984807753012208));
#892=CARTESIAN_POINT('',(-2.1089530178209,0.0,18.9786781601725));
#893=DIRECTION('',(0.984807753012208,0.0,0.17364817766693));
#894=DIRECTION('',(-0.17364817766693,0.0,0.984807753012208));
#895=CARTESIAN_POINT('',(1.18483992466972E-015,1.67344759271162,19.6456174396576));
#896=DIRECTION('',(0.0,0.984807753012208,0.17364817766693));
#897=DIRECTION('',(0.0,0.17364817766693,-0.984807753012208));
#898=CARTESIAN_POINT('',(2.01196838678161,-4.6265033068176E-016,18.9957791673388));
#899=DIRECTION('',(-0.984807753012208,2.26455661819758E-016,0.17364817766693));
#900=DIRECTION('',(-0.17364817766693,0.0,-0.984807753012208));
#901=CARTESIAN_POINT('',(9.46545531470291E-016,-2.07258378118117,18.9850910378599));
#902=DIRECTION('',(1.13227830909879E-016,0.984807753012208,0.17364817766693));
#903=DIRECTION('',(0.0,0.17364817766693,-0.984807753012208));
#904=CARTESIAN_POINT('',(-1.73406298711118,3.18531682791684E-016,19.6563055691365));
#905=DIRECTION('',(-0.984807753012208,1.80900274744843E-016,0.17364817766693));
#906=DIRECTION('',(-0.17364817766693,0.0,-0.984807753012208));
#907=CARTESIAN_POINT('',(1.18483992466972E-015,0.0,19.3505434782609));
#908=DIRECTION('',(-7.49830360911068E-033,-1.0,-1.22460635382238E-016));
#909=DIRECTION('',(0.0,-1.22460635382238E-016,1.0));
#910=CARTESIAN_POINT('',(1.40829730689573E-016,0.0,2.3));
#911=DIRECTION('',(6.12303176911189E-017,-0.0,1.0));
#912=DIRECTION('',(0.0,1.0,0.0));
#913=DIRECTION('',(-0.171087869746036,-0.171087869746036,0.970287525247814));
#914=DIRECTION('',(1.0,0.0,0.0));
#915=DIRECTION('',(0.171087869746036,-0.171087869746036,0.970287525247814));
#916=DIRECTION('',(2.29949105423981E-016,1.0,0.0));
#917=DIRECTION('',(0.171087869746036,-0.171087869746036,0.970287525247814));
#918=DIRECTION('',(1.0,-1.1497455271199E-016,0.0));
#919=DIRECTION('',(0.171087869746036,-0.171087869746036,0.970287525247814));
#920=DIRECTION('',(1.83690953073357E-016,1.0,0.0));
#921=DIRECTION('',(0.171087869746036,0.171087869746036,0.970287525247814));
#922=CARTESIAN_POINT('',(-1.73406298711118,3.18531682791684E-016,19.6563055691365));
#923=DIRECTION('',(-0.984807753012208,1.80900274744843E-016,0.17364817766693));
#924=DIRECTION('',(-0.17364817766693,0.0,-0.984807753012208));
#925=CARTESIAN_POINT('',(1.18483992466972E-015,2.04833762342134,18.9893662896514));
#926=DIRECTION('',(0.0,-0.984807753012208,0.17364817766693));
#927=DIRECTION('',(-0.0,0.17364817766693,0.984807753012208));
#928=DIRECTION('',(-1.0,-0.0,-0.0));
#929=DIRECTION('',(0.171087869746036,0.171087869746036,0.970287525247814));
#930=CARTESIAN_POINT('',(2.01196838678161,2.3132516534088E-016,18.9957791673388));
#931=DIRECTION('',(-0.984807753012208,-1.13227830909879E-016,0.17364817766693));
#932=DIRECTION('',(-0.17364817766693,0.0,-0.984807753012208));
#933=DIRECTION('',(-1.1497455271199E-016,1.0,0.0));
#934=DIRECTION('',(0.171087869746036,0.171087869746036,0.970287525247814));
#935=CARTESIAN_POINT('',(1.18483992466972E-015,-1.69769375047144,19.6498926914491));
#936=DIRECTION('',(0.0,-0.984807753012208,0.17364817766693));
#937=DIRECTION('',(0.0,0.17364817766693,0.984807753012208));
#938=DIRECTION('',(-1.0,-0.0,-0.0));
#939=DIRECTION('',(-0.171087869746036,0.171087869746036,0.970287525247814));
#940=DIRECTION('',(-0.171087869746036,-0.171087869746036,0.970287525247814));
#941=DIRECTION('',(-0.0,-1.0,-0.0));
#942=DIRECTION('',(-0.171087869746036,-0.171087869746036,0.970287525247814));
#943=DIRECTION('',(1.0,-1.1497455271199E-016,0.0));
#944=CARTESIAN_POINT('',(1.63707835607188,0.0,19.6392045619702));
#945=DIRECTION('',(0.984807753012208,0.0,0.17364817766693));
#946=DIRECTION('',(-0.17364817766693,0.0,0.984807753012208));
#947=DIRECTION('',(-0.171087869746036,0.171087869746036,0.970287525247814));
#948=DIRECTION('',(-0.0,-1.0,-0.0));
#949=CARTESIAN_POINT('',(1.18483992466972E-015,2.04833762342134,18.9893662896514));
#950=DIRECTION('',(0.0,-0.984807753012208,0.17364817766693));
#951=DIRECTION('',(-0.0,0.17364817766693,0.984807753012208));
#952=DIRECTION('',(-0.171087869746036,0.171087869746036,0.970287525247814));
#953=DIRECTION('',(-1.0,-0.0,-0.0));
#954=CARTESIAN_POINT('',(-2.1089530178209,0.0,18.9786781601725));
#955=DIRECTION('',(0.984807753012208,0.0,0.17364817766693));
#956=DIRECTION('',(-0.17364817766693,0.0,0.984807753012208));
#957=DIRECTION('',(-0.0,-1.0,-0.0));
#958=CARTESIAN_POINT('',(1.40829730689573E-016,0.0,2.3));
#959=DIRECTION('',(6.12303176911189E-017,-0.0,1.0));
#960=DIRECTION('',(0.0,1.0,0.0));
#961=CARTESIAN_POINT('',(1.71444889535133E-016,0.0,2.8));
#962=DIRECTION('',(6.12303176911189E-017,-0.0,1.0));
#963=DIRECTION('',(0.0,1.0,0.0));
#964=CARTESIAN_POINT('',(3.38740387011176E-016,0.0,5.53223304703363));
#965=DIRECTION('',(6.12303176911189E-017,-0.0,1.0));
#966=DIRECTION('',(0.0,1.0,0.0));
#967=CARTESIAN_POINT('',(4.46981319145168E-016,0.0,7.3));
#968=DIRECTION('',(6.12303176911189E-017,-0.0,1.0));
#969=DIRECTION('',(0.0,1.0,0.0));
#970=CARTESIAN_POINT('',(4.47593622322079E-016,0.0,7.31));
#971=DIRECTION('',(6.12303176911189E-017,-0.0,1.0));
#972=DIRECTION('',(0.0,1.0,0.0));
#973=CARTESIAN_POINT('',(4.97304986497556E-016,0.0,8.121875));
#974=DIRECTION('',(6.12303176911189E-017,-0.0,1.0));
#975=DIRECTION('',(0.0,1.0,0.0));
#976=CARTESIAN_POINT('',(4.97304986497556E-016,0.0,8.121875));
#977=DIRECTION('',(6.12303176911189E-017,-0.0,1.0));
#978=DIRECTION('',(0.0,1.0,0.0));
#979=CARTESIAN_POINT('',(2.23417948570326E-015,0.0,36.488125));
#980=DIRECTION('',(6.12303176911189E-017,-0.0,1.0));
#981=DIRECTION('',(0.0,1.0,0.0));
#982=CARTESIAN_POINT('',(2.28389084987873E-015,0.0,37.3));
#983=DIRECTION('',(6.12303176911189E-017,-0.0,1.0));
#984=DIRECTION('',(0.0,1.0,0.0));
ENDSEC;
END-ISO-10303-21;
